<?xml version="1.0" encoding="utf-8" ?>
<svg baseProfile="full" height="300mm" version="1.1" viewBox="0,0,200,300" width="200mm" xmlns="http://www.w3.org/2000/svg" xmlns:ev="http://www.w3.org/2001/xml-events" xmlns:xlink="http://www.w3.org/1999/xlink"><defs /><rect fill="#222222" height="300" width="200" x="0" y="0" /><text fill="#FFFFFF" style="font-size:12px; font-family:Arial; font-weight:bold;" x="10" y="20">Over 10km Runs</text><text fill="#FFFFFF" style="font-size:4px; font-family:Arial" x="10" y="280">Runner</text><text fill="#FFFFFF" style="font-size:9px; font-family:Arial" x="10" y="290">unsung</text><text fill="#FFFFFF" style="font-size:4px; font-family:Arial" x="65" y="280">SPECIAL TRACKS</text><rect fill="yellow" height="2.6" width="2.6" x="65" y="283" /><text fill="#FFFFFF" style="font-size:3px; font-family:Arial" x="70" y="285.5">Over 20.0 km</text><rect fill="red" height="2.6" width="2.6" x="65" y="287" /><text fill="#FFFFFF" style="font-size:3px; font-family:Arial" x="70" y="289.5">Over 40.0 km</text><text fill="#FFFFFF" style="font-size:4px; font-family:Arial" x="120" y="280">STATISTICS</text><text fill="#FFFFFF" style="font-size:3px; font-family:Arial" x="120" y="285">Number: 36</text><text fill="#FFFFFF" style="font-size:3px; font-family:Arial" x="120" y="290">Weekly: 1.8</text><text fill="#FFFFFF" style="font-size:3px; font-family:Arial" x="141" y="285">Total: 436.2 km</text><text fill="#FFFFFF" style="font-size:3px; font-family:Arial" x="141" y="290">Avg: 12.1 km</text><text fill="#FFFFFF" style="font-size:3px; font-family:Arial" x="167" y="285">Min: 10.0 km</text><text fill="#FFFFFF" style="font-size:3px; font-family:Arial" x="167" y="290">Max: 21.1 km</text><polyline fill="none" points="20.766020353185013,31.5 20.688510428299196,32.020631604245864 24.60276163497474,36.13830491695262 29.13709224073682,42.07801256469975 28.749542616307735,42.83525302026828 24.699649041052908,45.03596626751823 16.173557303845882,32.99089585416368 26.30797998246271,47.828233059626655 24.699649041052908,45.225273764372105 29.35024453420192,42.5749519480305 31.44301250600256,45.177946907497244 32.39250908594113,45.55656143811939 33.8458201775793,47.61526497839077 31.24923769396264,53.2233462457516 31.307370137539692,54.07519246818265 28.594522766652517,57.482539848584565 27.199344118591398,58.47633819670591 28.517012841650285,57.5535256141593 31.307370137539692,54.098854809679324 31.210482731461525,53.29433357420203 33.80706521507818,47.567938706313726 24.467119266511872,35.61768439676962 20.630377984722145,31.547330203815363 20.49473561614286,31.783981048778514 24.408986822818406,35.8779948320298 29.15646972192917,42.125340179991326 29.020827353466302,42.59861569630448 24.544629191281274,45.01230281732569 16.154179822537117,32.872571206171415 26.38548990734853,47.87555926806817 24.719026522361673,45.20161033740442 29.31148957181722,42.5749519480305 31.40425754361786,45.13062003903906 32.31499916105531,45.48557127006643 33.82644269627053,47.567938706313726 31.191105250269175,53.29433357420203 31.326747618732043,54.00420542623033 28.710787653923035,57.31690629423247 27.218721599900164,58.45267639064696 28.517012841650285,57.50620177332894 31.287992656347342,54.098854809679324 31.229860212653875,53.2233462457516 33.82644269627053,47.567938706313726 24.79653644724749,35.97265308527858 20.669132947106846,31.547330203815363 20.61100050341338,31.902306362680974 24.408986822818406,35.90165939966391 29.13709224073682,42.03068493781029 28.943317428580485,42.66960692392604 24.58338415378239,45.01230281732569 16.173557303845882,32.91990107407037 26.366112426156178,47.899222367981565 24.757781484746374,45.13062003903906 29.31148957181722,42.59861569630448 31.38488006242551,45.05962971469853 32.29562167986296,45.438244476914406 33.8458201775793,47.567938706313726 31.191105250269175,53.341658445380745 31.268615175038576,54.122517148338375 28.652655210229568,57.43521599037922 27.179966637399048,58.5 28.57514528534375,57.458877920973464 30.881065550725907,54.64308786593028 32.004959461512044,51.590630501304986" stroke="#4DD2FF" stroke-linecap="round" stroke-linejoin="round" stroke-width="0.5"><title>2025-06-28 15.0km</title><desc>1751061993000</desc></polyline><polyline fill="none" points="58.17123401723802,31.5 58.09358799061738,31.90301273363002 61.93706630729139,35.86197561061999 66.71229694294743,42.120290836377535 66.53759338322561,42.618102686843486 62.18941589363385,45.03602776871412 53.725998994428664,32.96980709982745 64.05292053206358,48.21247172882431 62.32529644027818,45.20196269736334 66.78994296956807,42.5706920895318 68.96403171436395,45.178257716223015 69.74049198033754,45.55753706605174 71.23517799237743,47.619855537923286 68.76991664781235,53.21408018442162 68.847562674433,53.9726066863077 66.09112873021513,57.55186355909973 64.7129117581062,58.5 66.03289421030786,57.599270491322386 68.86697418114636,54.16223784798058 68.78932815452572,53.28519217000576 71.27400100557134,47.7146742502664 62.771761093172245,36.50203985651024 58.190645523834974,31.571119955086033 57.996530457399786,31.73706641541503 62.13118137372658,36.075330594176194 66.69288543635048,42.16770154396363 66.45994735648856,42.641807981199236 62.20882740034722,45.012322767230216 53.725998994428664,32.87498117177165 64.05292053206358,48.21247172882431 62.30588493356481,45.178257716223015 66.86758899618872,42.594397389606456 68.82815116771962,44.988617762952344 69.70166896702722,45.486422244488494 71.17694347235374,47.57244616441312 68.86697418114636,52.977040043624584 68.7505051412154,54.138533962890506 66.09112873021513,57.50445661525009 64.69350025150925,58.47629664556007 66.1105402369285,57.480753139039734 68.82815116771962,54.06742229030351 68.88638568774331,53.000744070712244 71.21576648566406,47.904311535763554 69.48814239376225,45.273077623263816" stroke="#4DD2FF" stroke-linecap="round" stroke-linejoin="round" stroke-width="0.5"><title>2025-06-26 10.0km</title><desc>1750889907000</desc></polyline><polyline fill="none" points="93.91838884120807,32.22977954715316 97.6965054407483,36.30236941832118 104.4431422255002,45.271179568066145 105.13708200899418,45.53011538441933 106.67917041690089,47.71928608768212 104.2503811744973,53.32156651133846 104.30820948968176,54.09834041802969 101.57100256567355,57.558477002807194 100.24095131375361,58.47646198121947 101.667383091175,57.487862592344754 104.32748559478205,54.168956072229776 104.2503811744973,53.39218245058146 106.71772262710147,47.67220740990888 98.10130364773795,36.42007304613071 93.70635168510489,31.711871766587137 93.57141894951928,31.876660757072386 97.71578154573217,36.34945087804226 104.50097054080106,45.31825883331476 105.21418642939534,45.15348135457316 104.67445548670366,45.12994170316961 97.65795323054772,35.878635761881014 93.78345610550605,31.782495636944077 93.49431452900171,32.06499085914402 94.14970210241154,32.41810930351494 97.65795323054772,36.20820646418724 104.50097054080106,45.29471920209471 105.17563421919476,45.12994170316961 104.82866432738956,45.29471920209471 97.73505765083246,35.996339648918365 93.89911273610778,31.92374329987797 93.28227737289853,31.829578202756238 93.80273221072275,32.06499085914402 97.63867712544743,36.20820646418724 104.5780749610858,45.15348135457316 105.2912908497965,45.15348135457316 104.7515599069884,45.224100291277864 97.61940102023073,35.878635761881014 93.66779947490431,31.5 93.62924726482015,31.92374329987797 97.67722933553159,36.30236941832118 106.67917041690089,47.71928608768212 104.26965727948118,53.29802785917127 104.32748559478205,54.09834041802969 101.62883088097442,57.51140073209535 100.20239910355303,58.5 101.55172646057326,57.60555326206668 103.76847854699008,54.945726558493334 105.2912908497965,51.203076283884" stroke="#4DD2FF" stroke-linecap="round" stroke-linejoin="round" stroke-width="0.5"><title>2025-06-25 10.5km</title><desc>1750804247000</desc></polyline><polyline fill="none" points="133.15182197873946,31.5 133.73416724940762,31.713359786881483 133.2682910328731,31.57111995499872 133.1906449967064,31.903012733600917 137.05353529250715,35.95680007660121 141.751120476285,42.14399619141477 141.4017133138841,42.689218560859445 137.26706189173274,45.01232276705559 128.70658641215414,32.9461006220954 139.09174374002032,48.21247172856238 137.32529641885776,45.225667675287696 141.88700103957672,42.59439738940273 143.9834440140985,45.15455273195403 144.79872739315033,45.55753706583346 146.23517906083725,47.59615085236146 143.82815194199793,53.16667217919894 143.9057979779318,53.97260668614763 141.16877520561684,57.457049659773475 139.75173504685517,58.4762966454 141.07171766052488,57.57556702653528 143.9057979779318,54.02001449394447 143.7699174148729,53.40371208796569 146.29341358796228,47.61985553771956 137.24765038280748,35.81456335997791 133.1324104696978,31.547413306252565 133.03535292460583,31.784479663678212 137.15059283771552,36.099036688829074 141.73170896735974,42.096585478037014 141.57641689514276,42.57069208925532 137.13118132867385,45.01232276705559 128.74540943012107,32.87498117169889 139.14997826714534,48.18876711574558 137.34470792789944,45.20196269710141 141.88700103957672,42.57069208925532 143.9834440140985,45.130847745080246 144.85696192015894,45.60494693234796 146.23517906083725,47.548741473045084 143.80874043295626,53.308896159243886 143.88638646900654,53.996310591493966 141.1299521876499,57.504456615119125 139.75173504685517,58.5 141.11054067860823,57.52816008852096 143.8475634509232,54.13853396274499 143.80874043295626,53.33260014578991 146.29341358796228,47.904311535472516 144.50755475775804,45.20196269710141" stroke="#4DD2FF" stroke-linecap="round" stroke-linejoin="round" stroke-width="0.5"><title>2025-06-23 10.0km</title><desc>1750631203000</desc></polyline><polyline fill="none" points="170.58195106883068,31.5 175.0,36.491479903212166 179.2234212248586,42.12456746901444 179.00933074823115,42.623693932939204 174.72752121137455,45.048004231983214 166.20282767887693,32.949919283695635 176.5570216497872,48.232836493771174 174.82483506435528,45.23814493685495 179.35966061928775,42.623693932939204 181.46163984644227,45.16684219434683 182.22068790066987,45.452053007422364 183.7582467799075,47.6861898915522 181.28647491091397,53.271419711003546 181.26701214024797,54.245847613725346 178.62007533560973,57.573125572278514 177.21875585091766,58.5 178.56168702372815,57.62065770175832 181.4227143052267,54.079482220171485 181.36432599334512,53.20011991650972 183.79717232100666,47.614888047406566 175.07785108243115,36.25379329222778 170.7181904631434,31.547538508690195 170.50409998639952,31.737692427443108 174.630207358161,36.08741249149898 179.18449568364304,42.10079951015359 179.0677190599963,42.57615813441225 174.7664467524737,45.00046902669419 166.20282767887693,32.902381118168705 176.57648442033678,48.25660370243713 174.86376060557086,45.190609778117505 179.34019784873817,42.623693932939204 181.46163984644227,45.16684219434683 182.22068790066987,45.47582055629755 183.6803956972435,47.49605158242048 181.28647491091397,53.29518630333769 181.34486322267912,54.079482220171485 178.60061256506015,57.52559343112807 177.21875585091766,58.5 178.79524027125444,57.359230845671846 181.4032515345607,54.079482220171485 181.28647491091397,53.41401922155637 183.77770955045708,47.567353470178205 175.09731385309715,36.20625593511795 170.7181904631434,31.547538508690195 170.5235627569491,31.737692427443108 174.49396796384826,35.897262830418185 179.14557014242746,42.053263583788066 179.0482562893303,42.55239023086324 174.7859095231397,45.00046902669419 166.22229044954292,32.87861203099601 176.61540996155236,48.25660370243713 174.82483506435528,45.190609778117505 179.35966061928775,42.599926035123644 181.46163984644227,45.16684219434683 182.2012251301203,45.47582055629755 183.69985846802592,47.567353470178205 181.26701214024797,53.29518630333769 181.36432599334512,54.05571572377812 178.62007533560973,57.50182735626004 177.21875585091766,58.5 178.58114979439415,57.54935950312938 180.89721949840896,54.744942939752946 181.4227143052267,53.98441621704842 181.28647491091397,53.437785796413664 181.69519309385214,52.55842058862618" stroke="#4DD2FF" stroke-linecap="round" stroke-linejoin="round" stroke-width="0.5"><title>2025-06-21 15.0km</title><desc>1750457084000</desc></polyline><polyline fill="none" points="20.873758039437234,61.5 20.564531475654803,61.8540454289614 24.41053686279338,65.84291236044373 29.203548601595685,72.19188546235091 29.08758864016272,72.64031804140541 24.835723388008773,75.07127651282644 23.424877190729603,73.48997691158729 16.235359582467936,63.03419216601469 26.47848950815387,78.02142768948397 24.81639672780875,75.21288480005751 29.338835223345086,72.66391972717247 31.464767849305645,75.18928342602157 32.276487579219975,75.54330373261473 33.70666043681558,77.66741193014605 31.2908279071562,83.23718459051452 31.310154567472637,84.1575976426393 28.585095474030823,87.53240793661098 27.232229257468134,88.5 28.72038209566381,87.39080869105237 31.36813454818912,84.13399736277643 31.2908279071562,83.30798575031804 33.74531375733204,77.64381085646164 25.00966333015822,66.22055229292891 20.79645139852073,61.712427335296525 20.583858135854825,61.90125143706973 24.507170163909905,65.93732241282123 29.222875261795707,72.26269067573594 28.952302018529736,72.7347247673315 24.77774340729229,75.09487790129788 16.274012902984396,63.01058930200816 26.47848950815387,77.99782665903331 24.835723388008773,75.2364861711103 29.358161883428693,72.64031804140541 31.484094509505667,75.11847928677162 32.25716091901995,75.54330373261473 33.70666043681558,77.59660870036168 31.32948122767266,83.18998380273115 31.36813454818912,84.06319650600199 28.701055435463786,87.43800845116493 27.290209238184616,88.47640025135479 28.68172877514735,87.46160832684836 31.38746120838914,84.08679679446504 31.32948122767266,83.28438536659814 33.764640417532064,77.97422562574502 31.36813454818912,74.48124086402822" stroke="#4DD2FF" stroke-linecap="round" stroke-linejoin="round" stroke-width="0.5"><title>2025-06-20 10.0km</title><desc>1750370921000</desc></polyline><polyline fill="none" points="58.23321435647085,61.5 58.13624195556622,61.92634504981106 62.03453247528523,66.00026150420308 66.68920772289857,72.13466000324115 66.53405188128818,72.6083506445575 62.24787175748497,75.04783909328398 53.753089430741966,63.03957491957408 64.05155841598753,78.22149650494976 62.34484415850602,75.23731263779337 66.84436356439255,72.65571964495757 68.9583619061159,75.16626008033927 69.73414111405145,75.49783845880302 71.18872712890152,77.60571629877086 68.8032060645055,83.2424004827044 68.82260054466315,84.07131078714156 66.16555675759446,87.45796459224948 64.73036522278562,88.5 66.08797883673105,87.5763779891713 68.90017846552655,84.07131078714156 68.74502262391616,83.43186600803165 71.26630504964851,77.62940018909285 62.59697240102105,66.33185558201512 58.19442539603915,61.571057573513826 58.15563643560745,61.90265923833067 62.38363311893772,66.40291138188331 66.66981324262451,72.13466000324115 66.43707948026713,72.67940414084296 62.34484415850602,75.00047067819105 60.81268022279255,73.29520001581113 53.73369495046791,62.89746082460624 64.03216393571347,78.17412886630336 62.34484415850602,75.21362845489057 66.7861801238032,72.65571964495757 68.97775638627354,75.14257588876353 69.7535355942091,75.52152260691219 71.20812160905916,77.5583485095267 68.78381158423144,83.28976688142575 68.84199502482079,84.07131078714156 66.12676779716276,87.52901263909007 64.73036522278562,88.45263487580814 66.12676779716276,87.5053299596475 68.78381158423144,84.21340934012551 68.78381158423144,83.33713326853467 71.26630504964851,77.8899227911752 69.03593982686289,74.73994418795337" stroke="#4DD2FF" stroke-linecap="round" stroke-linejoin="round" stroke-width="0.5"><title>2025-06-17 10.0km</title><desc>1750111475000</desc></polyline><polyline fill="none" points="95.50228655943647,61.737274719343986 95.77428650832735,61.666092334038694 95.67714366945438,61.99827657532296 99.52400008938275,65.93698920612223 104.16742778825574,72.08217022547615 103.72057072934695,72.77022856527765 99.6017143605277,74.95301817703876 91.22800164832734,62.8999166477297 101.56399970606435,78.20343109143141 99.87371430930216,75.19027643714799 104.43942773714662,72.60414574125025 106.4211416504113,75.04792151592846 107.21771292935591,75.47498596622609 108.71371264825575,77.58656859501207 106.3045702438103,83.28060941839067 106.4211416504113,83.96862803171098 103.642856458202,87.50358173574205 102.22457101056352,88.47627581500274 103.54571361932904,87.5984789338836 106.3628559471108,84.13470112450887 106.28514167596586,83.42295829726208 108.77199835155625,77.56284307522583 99.71828576712869,65.74717356474139 95.71600080491044,61.5 95.59942939830944,61.80845707860135 99.64057149610016,66.0556238877034 104.24514205928426,72.24825349653838 99.73771433497313,75.00046985231165 91.22800164832734,62.8999166477297 101.64171397709288,78.22715653287014 99.87371430930216,75.19027643714799 104.36171346600167,72.58041961188428 106.44057021825574,75.02419568551704 107.19828436151147,75.42753440700471 108.73314121598378,77.49166649833205 106.34342737926636,83.1857101078349 106.3045702438103,84.13470112450887 103.62342789047398,87.52730603965756 102.26342814601958,88.5 103.60399932274595,87.57475463868468 106.38228451495524,84.08725168388628 106.3045702438103,83.37550868258404 108.75256978382822,77.58656859501207 100.16514282603748,66.29289303305268" stroke="#4DD2FF" stroke-linecap="round" stroke-linejoin="round" stroke-width="0.5"><title>2025-06-15 10.5km</title><desc>1749940293000</desc></polyline><polyline fill="none" points="133.18093924212735,61.5 137.1214755740948,66.051624496351 141.70259170373902,72.16770154368714 141.5861226496054,72.54698678628483 137.27676764619537,75.0123227670556 128.71629216661677,62.96980709971103 139.04321496735793,78.18876711574558 137.35441368236206,75.2256676752877 141.91611830308102,72.61810268665431 143.99314976856112,75.17825771600474 144.711375602521,75.46271729793807 146.24488481529988,77.6909695762879 143.7990346783772,83.30889615924389 143.8766807144275,83.99631059149397 141.13965794211254,87.50445661511912 139.74202929239254,88.5 141.1590694510378,87.50445661511912 143.89609222346917,84.09112618387735 143.7990346783772,83.40371208796569 146.28370783338323,77.54874147304508 137.83970140793826,66.54945193856838 133.14211622416042,61.5 133.33623131434433,62.0689589096728 137.1797101011034,66.09903668882907 141.70259170373902,72.12029083617381 141.54729963152204,72.57069208925532 137.1214755740948,74.9649127554876 128.7745266937418,62.87498117169889 139.1402725125663,78.18876711574558 137.37382519140374,75.17825771600474 141.97435283008963,72.59439738940273 143.97373825951945,75.13084774508025 144.75019862048794,75.48642224431387 146.20606179733295,77.50133208202897 143.7990346783772,83.2614881774789 143.89609222346917,84.04371839347004 141.13965794211254,87.48075313887966 139.72261778323445,88.45259328806424 141.12024643307086,87.52816008852096 143.93491524155252,84.02001449394447 143.81844618741889,83.30889615924389 146.28370783338323,77.90431153547252 144.18726485874504,74.87009269763075" stroke="#4DD2FF" stroke-linecap="round" stroke-linejoin="round" stroke-width="0.5"><title>2025-06-13 10.0km</title><desc>1749765414000</desc></polyline><polyline fill="none" points="168.3437308188295,61.52376925587305 172.43091364926659,66.06364379388106 179.30127335968427,75.14307460738928 180.0019332736265,75.38075034310168 181.55895530432463,77.59112075992743 179.10664560599253,83.27141971078527 179.2039594828384,84.00818272199831 176.59594758145977,87.33546475030016 175.07785110140685,88.5 176.44024537841324,87.54935950304207 179.2039594828384,84.1270152041543 179.18449670739938,83.29518630310486 181.6562691811705,77.59112075992743 172.56715307710692,65.77841919765342 168.32426804339048,61.54753850877751 172.7812436062377,66.37263663392514 179.26234780903906,75.0717718299129 180.06032159971073,75.45205300717498 181.55895530432463,77.51981888094451 179.16503393207677,83.24765311548254 179.22342225827742,84.03194922421244 176.45970815373585,87.47806127829244 175.09731387684587,88.4524680855684 176.47917092905845,87.47806127829244 179.22342225827742,84.07948221996776 179.14557115663774,83.29518630310486 181.67573195660952,77.63865533139324 172.5476903016679,65.70711298317474 168.3437308188295,61.5 172.27521144622006,65.75465046236059 179.26234780903906,75.04800423166307 180.06032159971073,75.45205300717498 181.57841807964724,77.56735346979985 179.14557115663774,83.24765311548254 179.2039594828384,84.00818272199831 176.45970815373585,87.50182735611452 175.07785110140685,88.4524680855684 176.49863370449748,87.45429519760364 179.22342225827742,84.07948221996776 179.14557115663774,83.29518630310486 181.61734363040887,77.59112075992743 172.7812436062377,65.99233768408885 168.53835857252125,61.5 168.4799702463206,61.785230878100265 172.50876475090627,66.0161063902924 174.33826563693583,68.44049914411153" stroke="#4DD2FF" stroke-linecap="round" stroke-linejoin="round" stroke-width="0.5"><title>2025-06-09 10.0km</title><desc>1749421393000</desc></polyline><polyline fill="none" points="18.39028139039874,91.75963337812573 18.506241366034374,91.5 18.428934715571813,92.06647237451398 22.448880536598153,96.12614237902744 28.76869920734316,104.55204523696739 29.98627895116806,105.5197023988294 31.513085296726786,107.64381085621426 29.058599146315828,113.35518650898302 29.213212447124533,114.0159959201992 26.410846369923092,117.55600780065288 25.077306650346145,118.5 26.488153020385653,117.4616083267756 29.232539109769277,114.06319650579826 29.116579134133644,113.37878688411729 31.551738621899858,107.7146140687546 23.47319365455769,97.02303469469189 18.39028139039874,91.73603035816632 22.468207199359313,96.17334734171163 29.232539109769277,105.16568204894429 30.005605613812804,105.5197023988294 31.532411959255114,107.69101300077455 29.116579134133644,113.33158613099658 29.116579134133644,114.15759764249378 26.488153020385653,117.48520819954865 25.05797998793423,118.5 26.50747968291398,117.48520819954865 29.232539109769277,114.08679679431953 29.0972524714889,113.40238725629752 31.629045272246003,107.69101300077455 22.58416717487853,95.91371990396874 18.39028139039874,91.71242733536928 22.429553874069825,96.12614237902744 29.17455912195146,105.09487790102139 30.06358560163062,105.56690506309678 31.532411959255114,107.64381085621426 29.0972524714889,113.33158613099658 29.193885784596205,114.03959621446847 26.430173032567836,117.53240793655277 25.05797998793423,118.47640025120927 26.488153020385653,117.48520819954865 29.155232459306717,114.18119791940262 29.0972524714889,113.49678871623473 31.551738621899858,107.64381085621426 22.738780475687236,96.05533491331153 18.370954727753997,91.68882430961821 22.429553874069825,96.1025398933416 28.807352532516234,104.59924813796533 30.024932276341133,105.54330373245466 31.532411959255114,107.64381085621426 29.116579134133644,113.28438536637987 29.077925808960572,114.2283984645619 26.410846369923092,117.53240793655277 25.038653325173073,118.47640025120927 26.39151970727835,117.60320752036932 29.232539109769277,114.08679679431953 29.116579134133644,113.37878688411729 31.551738621899858,108.02142768923659 31.435778646264225,107.40779996027413 29.0972524714889,104.4340379339701" stroke="#4DD2FF" stroke-linecap="round" stroke-linejoin="round" stroke-width="0.5"><title>2025-06-07 12.0km</title><desc>1749247836000</desc></polyline><polyline fill="none" points="56.15815987077076,91.5 55.98467488249298,92.08853210887173 59.8591729553882,96.13758421810053 66.70219193981029,105.17702100261522 67.60816910117865,105.6713529551489 69.01532511762343,107.71928608731832 66.56725917116273,113.39218245039228 66.66363972018007,114.07480186061002 63.92643212643452,117.53493886881915 62.557828329503536,118.47646198110306 63.92643212643452,117.55847700271988 66.70219193981029,114.14541752351215 66.60581139079295,113.41572109103436 69.11170566675719,107.81344340840587 60.14831460255664,96.04342118339264 55.88829433335923,91.80603692124714 60.01338183390908,96.27882868386223 66.68291583005339,105.1299417027767 67.51178855204489,105.55365498639003 69.01532511762343,107.67220740950142 66.58653528091963,113.32156651109108 66.66363972018007,114.07480186061002 63.94570823619142,117.51140073194983 62.557828329503536,118.47646198110306 63.92643212643452,117.60555326205213 66.74074415944051,114.07480186061002 66.64436361030675,113.32156651109108 69.1309817766305,107.78990408248501 60.22541904181708,96.13758421810053 55.94612266274635,91.71187176660169 59.99410572403576,96.25528794681304 66.68291583005339,105.1299417027767 67.49251244228799,105.50657577875245 69.01532511762343,107.6957467498869 66.56725917116273,113.34510516036244 66.66363972018007,114.07480186061002 63.868603796930984,117.53493886881915 62.596380549133755,118.5 63.868603796930984,117.62909138733812 66.72146804968361,114.07480186061002 66.60581139079295,113.43925972876605 69.09242955700029,107.81344340840587 60.302523481077515,96.25528794681304 56.11960765114054,91.75895434964332 55.86901822348591,91.90020202987944 59.99410572403576,96.23174720683892 62.172306133201346,99.10369622438157" stroke="#4DD2FF" stroke-linecap="round" stroke-linejoin="round" stroke-width="0.5"><title>2025-06-05 10.1km</title><desc>1749073951000</desc></polyline><polyline fill="none" points="93.50916440936271,91.5 93.41185053251684,91.78523087810026 97.36279393546283,95.94480026302335 106.56868669192772,107.59112075992743 104.07745144283399,113.3427194791584 104.23315364588052,113.96064970879524 101.46943954145536,117.50182735611452 100.08758248924278,118.5 101.48890231677797,117.50182735611452 104.2136908704415,114.1270152041543 104.15530254435726,113.3427194791584 106.64653779345099,107.61488804708642 97.6741983415559,95.89726283030177 93.3534622064326,91.5475385087775 97.49903336318675,96.06364379388106 106.56868669192772,107.68618989123206 104.0969142181566,113.29518630310486 104.2136908704415,114.00818272199831 101.46943954145536,117.47806127829244 100.06811971380375,118.47623404416663 101.44997676601633,117.54935950304207 104.23315364588052,114.07948221996776 104.19422809511889,113.27141971078527 106.60761224268936,107.56735346979985 97.71312389231753,95.94480026302335 93.3534622064326,91.59507700597169 97.42118226166349,96.0161063902924 106.56868669192772,107.59112075992743 104.0969142181566,113.29518630310486 104.2136908704415,113.98441621685924 101.4110512152547,117.54935950304207 100.06811971380375,118.47623404416663 101.4110512152547,117.5731255721912 104.23315364588052,114.1032487135235 104.15530254435726,113.29518630310486 106.64653779345099,107.7337244393857 98.00506552308798,96.30133063755056 93.64540383720305,91.57130775881524 93.39238775719423,91.71392319787992 96.46750626782887,94.85143636770954 99.32853424921632,98.46426755074935" stroke="#4DD2FF" stroke-linecap="round" stroke-linejoin="round" stroke-width="0.5"><title>2025-06-03 10.0km</title><desc>1748953280000</desc></polyline><polyline fill="none" points="130.8319905512035,91.64286700035154 134.96537652541883,95.9526388720551 144.12901524163317,107.59568898467114 141.6918772852514,113.19077203553752 141.71137438889127,114.04787693500111 139.09876249951776,117.40483478587703 137.61698262195569,118.5 139.04027118859813,117.42864279080823 141.78936280345079,114.00026009514113 141.71137438889127,113.28600609958812 144.14851234538946,107.61949818950961 135.12135335465427,95.73834307811921 130.89048186223954,91.5 134.96537652541883,95.92882823996479 144.12901524163317,107.57187977699505 141.6723801814951,113.26219758795924 141.6918772852514,114.04787693500111 138.9817798776785,117.50006678818318 137.61698262195569,118.47619212597783 139.059768292238,117.42864279080823 141.75036859617103,114.09549376320501 141.71137438889127,113.26219758795924 144.12901524163317,107.57187977699505 135.43330701300874,96.11931321531301 130.89048186223954,91.52381117401819 134.94587942177895,95.90501760490588 144.12901524163317,107.57187977699505 141.6918772852514,113.26219758795924 141.75036859617103,114.02406851648993 139.04027118859813,117.45245079288725 137.61698262195569,118.47619212597783 139.059768292238,117.45245079288725 141.78936280345079,114.04787693500111 141.73087149253115,113.16696351228165 144.16800944891293,107.73854416979884 135.5697867386043,96.28598741580208 131.1439442097908,91.5 130.98796738055535,91.76192275385256 135.02386783645488,96.0002601275628 137.2270405489253,98.85751413287653" stroke="#4DD2FF" stroke-linecap="round" stroke-linejoin="round" stroke-width="0.5"><title>2025-05-31 10.0km</title><desc>1748691698000</desc></polyline><polyline fill="none" points="168.5255680285627,91.5 168.4289347155718,91.90125143711339 172.39090054878034,95.98452742164955 179.34849908517208,105.23648617093568 180.04425893886946,105.4961010623665 181.55173862178344,107.66741192997142 179.0585991461994,113.40238725629752 179.23253910965286,114.0159959201992 176.5268063454423,117.43800845101941 175.09663331287447,118.47640025120927 176.44949969509616,117.50880806945497 179.2518657722976,114.03959621446847 179.13590579666197,113.40238725629752 181.629045272246,107.66741192997142 172.50686052441597,95.84291236032732 168.370954727754,91.71242733536928 172.48753386188764,96.1025398933416 179.34849908517208,105.21288479981013 180.08291226415895,105.5197023988294 181.5710652844282,107.66741192997142 179.15523245930672,113.21358419791795 179.17455912183505,114.11039707988675 176.4688263576245,117.50880806945497 175.13528663828038,118.47640025120927 176.48815302026924,117.48520819954865 179.15523245930672,114.11039707988675 179.15523245930672,113.26078497977869 181.629045272246,107.76181619598356 172.99002708948683,96.40937198183383 168.39028139028233,91.66522128105862 172.50686052441597,96.14974486178835 179.29051909747068,105.16568204894429 180.12156558933202,105.56690506309678 181.55173862178344,107.64381085621426 179.0585991461994,113.35518650898302 179.1938857844798,114.03959621446847 176.44949969509616,117.55600780065288 175.09663331287447,118.47640025120927 176.39151970727835,117.57960766195902 179.21321244712453,114.18119791940262 179.17455912183505,113.33158613099658 181.60971860960126,107.7146140687546 172.95137376419734,96.36216707690619 168.39028139028233,91.71242733536928 172.33292056107894,95.89011739232228 179.0972524714889,104.92966812149098 180.0056056136964,105.4961010623665 181.51308529661037,107.59660870017251 179.07792580884416,113.30798575017252 179.1938857844798,114.0159959201992 176.44949969509616,117.53240793655277 175.07730665046256,118.5 176.58478633326013,117.39080869102327 179.23253910965286,114.08679679431953 179.13590579666197,113.37878688411729 181.60971860960126,107.7146140687546 172.85474045120645,96.29135969787603 168.370954727754,91.73603035816632 172.48753386188764,96.14974486178835 179.21321244712453,105.09487790102139 180.0635856015142,105.59050639087218 181.5710652844282,107.76181619598356 179.0972524714889,113.30798575017252 179.21321244712453,114.03959621446847 176.5268063454423,117.43800845101941 175.0579799877014,118.5 176.44949969509616,117.55600780065288 179.15523245930672,114.20479819343018 179.11657913401723,113.40238725629752 181.60971860960126,107.7146140687546" stroke="#4DD2FF" stroke-linecap="round" stroke-linejoin="round" stroke-width="0.5"><title>2025-03-01 15.0km</title><desc>1740782421000</desc></polyline><polyline fill="none" points="16.79773731296882,121.5289095727785 17.152813619817607,121.5 17.058126604533754,122.02037176993326 21.981851392192766,127.16620867954043 30.243293463718146,138.1513282231317 31.237507122801617,138.61384836849174 33.083903918159194,141.215507318062 30.05391943338327,148.5 33.15491917950567,141.27332163599203 22.2422406837577,127.02166422868322 17.058126604533754,121.76018602818658 22.05286665353924,127.2240264350985 30.31430872506462,138.2380508193164 31.190163615276106,138.5849408859649 33.083903918159194,141.15769298585656 30.00657592585776,148.47109372678096 33.20226268703118,141.3311359398358 22.502629975555465,127.33966190373758 17.223828881047666,121.70236693556944 16.93976783566177,121.8180051066447 22.289584191399626,127.48420615996292 30.266965217422694,138.1513282231317 31.284850630327128,138.6716633229953 33.03656041051727,141.15769298585656 30.030247679678723,148.47109372678096 33.20226268703118,141.36004308650445 22.620988744543865,127.45529731584247 17.342187650036067,121.7890955691546 16.916096081840806,121.7890955691546 22.076538407360204,127.28184417646844 30.33798047876917,138.2380508193164 31.237507122801617,138.5849408859649 33.083903918159194,141.18660015372734 30.00657592585776,148.4421874499676 33.17859093321022,141.3311359398358 22.029194899834692,126.761483994429" stroke="#4DD2FF" stroke-linecap="round" stroke-linejoin="round" stroke-width="0.5"><title>2025-02-25 10.0km</title><desc>1740436543000</desc></polyline><polyline fill="none" points="54.72734237997793,121.5 54.5377653647447,122.02092947848723 59.443070631241426,127.14334157321719 67.80815642361995,138.2559898274485 68.68495011865161,138.63219013759226 70.50962888915092,141.12088481202954 67.45269952027593,148.47106274294492 70.58072026981972,141.17876112084195 59.774830407695845,127.14334157321719 54.37188547651749,121.73152435429802 59.37197925057262,127.05652195337461 67.78445929673035,138.22705131719704 68.85083000687882,138.80582084822527 70.48593176226132,141.17876112084195 67.42900239338633,148.44212548229552 70.55702314293012,141.2076992699731 59.41937350423541,126.70924315550656 54.419279730296694,121.73152435429802 59.324584996677004,127.02758207306033 67.0735454900423,137.35889436562138 68.68495011865161,138.69006705538777 70.48593176226132,141.14982296816015 67.45269952027593,148.44212548229552 70.55702314293012,141.2076992699731 60.13028731092345,127.51955955734593 54.39558260340709,121.73152435429802 59.443070631241426,127.11440170345304 67.73706504295114,138.19811280351132 68.7086472454248,138.66112859823625 70.55702314293012,141.2076992699731 67.50009377405513,148.38425095043203 70.60441739670932,141.32345183090365 59.940710295923054,127.31698071716528 54.75103950675111,121.76046488262364 54.419279730296694,121.81834592878295 59.585253392579034,127.31698071716528 67.64227653527632,138.024481646833 68.7323443723144,138.66112859823625 70.53332601615693,141.17876112084195 67.47639664716553,148.5 70.62811452359892,141.52601867633348 68.63755586487241,138.5743132057978" stroke="#4DD2FF" stroke-linecap="round" stroke-linejoin="round" stroke-width="0.5"><title>2025-02-22 12.0km</title><desc>1740177306000</desc></polyline><polyline fill="none" points="92.05628175020684,121.5 91.91379353043158,121.93504048796603 96.8058890743414,127.03945590011426 104.99896170862485,137.97297585499473 106.2101115763653,138.7269931260962 107.96746628626715,141.13403221295448 104.90396956214681,148.44200114754494 108.06245843274519,141.22103316812718 97.28084980684798,127.1264620282891 92.22251800645608,121.73202169290744 91.84254942066036,121.73202169290744 97.25710177025758,127.59049417218193 105.21269403817132,138.20498142455472 106.11511942988727,138.610990625064 108.01496235956438,141.22103316812718 104.95146563544404,148.4710005755769 108.0387103962712,141.16303253492515 96.90088122081943,126.6624289759784 92.1987699699821,121.64501358463895 91.86629745725077,121.76102438861562 96.73464496457018,126.95244974009984 105.14144992828369,138.14698005351238 106.13886746647768,138.63999125566625 108.01496235956438,141.1920328533306 104.97521367203444,148.5 108.0387103962712,141.16303253492515 97.20960569696035,126.9814517970517 91.86629745725077,121.67401629098458 96.97212533070706,127.24247014937282 105.26019011146855,138.2339821048663 106.23385961295571,138.75599374252488 107.99121432285756,141.13403221295448 104.92771759873722,148.44200114754494 108.08620646945201,141.1920328533306 97.37584195332602,127.21346812443517 91.86629745725077,121.67401629098458 96.8296371109318,127.06845794642868 105.16519796499051,138.1179793625779 106.11511942988727,138.610990625064 108.01496235956438,141.22103316812718 104.95146563544404,148.44200114754494 108.06245843274519,141.1050318875059 97.0908655137755,126.86544354814396 91.91379353043158,121.64501358463895 96.66340085468255,126.86544354814396 105.18894600169733,138.08897866822372 106.16261550306808,138.610990625064 107.96746628626715,141.16303253492515 104.97521367203444,148.5 108.15745057933964,141.33703439199599 99.13319666322786,129.50461716391146" stroke="#4DD2FF" stroke-linecap="round" stroke-linejoin="round" stroke-width="0.5"><title>2025-02-05 15.0km</title><desc>1738709514000</desc></polyline><polyline fill="none" points="129.57151320483536,121.5 129.52396605769172,122.0516436441394 134.37377507181372,127.16154486167943 142.64697868400253,138.16487901259097 143.66924234875478,138.65842030424392 145.4998075158801,141.21320587632363 142.48056366899982,148.5 145.618675383972,141.2712688651518 134.77792582300026,127.13251164286339 129.76170179364271,121.70323728125368 129.33377746888436,121.67420339456294 134.49264293978922,127.2196112885722 142.57565796328709,138.01971961387608 143.64546877529938,138.6293884918996 145.4998075158801,141.2422373724694 142.48056366899982,148.47096939162293 145.5949018104002,141.21320587632363 134.63528438133653,126.92927901164512 129.35755104245618,121.70323728125368 134.51641651336104,127.24864449676534 142.55188438971527,137.9616558295238 143.62169520161115,138.60035667604825 145.4998075158801,141.15514287327824 142.43301652173977,148.44193877965154 145.618675383972,141.67770938918693 145.52358108956832,141.12611136639316 134.87302011728752,127.19057807690115 129.7379282200709,121.67420339456294 129.35755104245618,121.76130504395405 134.3500014982419,127.07444519457931 142.694525831379,138.19391088164411 143.71678949601483,138.6874521129066 145.52358108956832,141.1841743765981 142.456790095428,148.47096939162293 145.57112823671196,141.15514287327824 134.58773723407649,126.84217925931443 129.7379282200709,121.67420339456294 129.35755104245618,121.79033891993458 134.42132221907377,127.16154486167943 142.57565796328709,137.99068772344617 143.64546877529938,138.6293884918996 145.47603394230828,141.12611136639316 142.456790095428,148.44193877965154 145.66622253123205,141.47448921417526 143.16999730328098,138.19391088164411" stroke="#4DD2FF" stroke-linecap="round" stroke-linejoin="round" stroke-width="0.5"><title>2025-02-04 12.0km</title><desc>1738622138000</desc></polyline><polyline fill="none" points="164.26786746666767,121.5 164.26786746666767,122.42627546945005 171.92825888609514,130.43846367680817 185.46667342446744,148.5 185.9596689119935,148.45368947039242 185.77005526283756,147.8516520697449 172.3833316436503,130.2995254418056 164.38163565611467,121.82419667212525 164.00240835826844,122.19470681474195 172.0799498052802,130.5774018607044 185.50459615443833,148.5 185.80797799280845,147.9442732706084 172.3074861841742,130.16058715590043 164.53332657529972,121.91682424189639 164.1161765474826,122.19470681474195 172.04202707554214,130.53108913841425 185.46667342446744,148.4073789350805 185.9596689119935,148.45368947039242 185.77005526283756,147.80534146085847 172.9521725908853,130.9479034350952 164.57124930503778,121.96313801812357 164.0403310880065,122.19470681474195 172.7246362119913,131.41102989329374 185.39082796499133,148.3147578476055 186.03551437170245,148.22213673737133 185.4287506947294,147.34223505991395 172.3074861841742,130.2995254418056 164.4574811158236,121.82419667212525 164.07825381774455,122.14839306668728 172.68671348225325,131.27209201527876 185.4287506947294,148.45368947039242 185.84590072277933,147.9442732706084 172.5350225630682,130.43846367680817 164.4574811158236,121.87051045981934 163.96448562829755,122.19470681474195 172.3074861841742,130.90159075817792 185.39082796499133,148.4073789350805 185.6562870736234,147.7127202259726 174.05193175491877,132.38359361092444 164.4574811158236,121.82419667212525 164.0403310880065,122.19470681474195 171.81449069688097,130.2995254418056 185.39082796499133,148.36106839418062 185.84590072277933,147.9905838626728 181.02971403789707,141.41442308947444 169.04613142134622,126.7334266261023" stroke="#4DD2FF" stroke-linecap="round" stroke-linejoin="round" stroke-width="0.5"><title>2025-01-23 11.4km</title><desc>1737585341000</desc></polyline><polyline fill="none" points="16.93304869509302,151.5 17.028657006914727,152.02543455726118 22.000289218500257,157.22133620848763 30.246506107971072,168.22576552261307 31.22649130341597,168.75116324602277 33.043049226980656,171.20300399162807 30.126995718223043,178.44162491735187 33.18646169453859,171.34894609866024 22.57393908908125,157.3964769893355 17.17206947458908,151.6167633348814 16.813538305461407,151.67514498102537 21.856876750825904,157.07538545961143 30.174799874192104,168.1381991229282 31.27429545938503,168.75116324602277 33.0908533828333,171.2905692665372 30.00748532859143,178.5 33.18646169453859,171.31975768442499 22.406624543480575,157.19214606581954 16.885244539240375,151.64595415972872 21.97638714045752,157.19214606581954 30.27040818578098,168.25495431543095 31.20258922560606,168.66359703912167 33.11475546087604,171.2905692665372 30.055289484444074,178.44162491735187 33.18646169453859,171.34894609866024 22.31101623165887,157.1045756165695 16.837440383271314,151.6167633348814 22.502232855185866,157.80513831120334 30.294310263823718,168.25495431543095 31.250393381458707,168.69278577840305 33.043049226980656,171.20300399162807 30.055289484444074,178.38324982053018 33.162559616728686,171.2905692665372 22.07199545239564,156.81267388662673 17.14816739654634,151.58757250654162 16.837440383271314,151.64595415972872 21.80907259497326,156.95862479621428 30.079191562253982,167.9922550520423 31.250393381458707,168.7219745139737 33.043049226980656,171.26138084515696 30.055289484444074,178.35406226666237 33.18646169453859,171.40732291649329 22.31101623165887,157.1045756165695 17.219873630441725,151.7043357986404 16.861342461197637,151.85028983345546 22.024191296310164,157.2505263475905 30.342114419676363,168.342520672275 30.60503727698233,168.05063269112725 24.53390948008746,159.99438347337127" stroke="#4DD2FF" stroke-linecap="round" stroke-linejoin="round" stroke-width="0.5"><title>2025-01-18 14.0km</title><desc>1737153490000</desc></polyline><polyline fill="none" points="64.07668576462311,163.62111569165063 60.70912296164897,166.24322564225076 59.98920229176292,167.26734243453393 59.24548259144649,168.1098650049862 58.34111943587777,168.85069394941456 57.299911855428945,169.48983307033268 56.62758924634545,170.57199614017736 55.50308505946305,171.69045270360948 53.99779638607288,172.77257571255177 49.0,176.8830111150928 52.563904803886544,174.0580250985222 54.00374614368775,172.79436322183392 55.37219039222691,171.83570525880714 56.67518730717711,170.5647333664565 57.33561040103086,169.48257016438947 58.3946672542952,168.8361679804293 59.162185985042015,168.21881101709369 59.98325253414805,167.31818465238393 60.72697223443538,166.25048894404972 65.11789334504283,162.80758438034172 65.69501983249211,162.48797974669287 65.65337152930442,162.3063854390748 66.27214631994138,162.06668010330395 69.02688408989343,159.80759141146336 69.50286469809362,159.19740481433473 70.86535918904701,158.23852750135484 71.43653591888142,157.34501425900453 72.67408550021355,156.58224842070922 73.23336271484732,155.80494363509206 74.5185103569529,154.97677594497873 74.756500661053,154.2503035539412 75.69656236225273,153.61100050128152 76.0,153.11698888490355 75.63111502863467,153.61826534735155 74.7743499338685,154.19945015388294 74.50661084178137,154.9477172198749 73.25121198763372,155.76862073283337 72.69193477302906,156.53866150561225 71.37108858526335,157.37407181161325 70.87725870427676,158.20947037151927 69.50881445567938,159.16834815342372 69.01498457469279,159.80032732217296 67.40855002199532,161.10784909096765" stroke="#4DD2FF" stroke-linecap="round" stroke-linejoin="round" stroke-width="0.5"><title>2025-01-16 10.5km</title><desc>1736984045000</desc></polyline><polyline fill="none" points="89.1746312440373,151.5 89.36555485520512,152.43267438086332 97.19342291518115,160.50021251867292 110.55807569995522,178.31347806332633 111.05447708908468,178.453369524359 110.93992292205803,177.8471728224249 98.4917034714017,161.52612998525728 89.55647846660577,151.77980255393777 89.0982617996633,151.5 88.98370763286948,152.0596049024607 97.11705347057432,160.4535798409488 110.55807569995522,178.453369524359 110.97810764447786,177.987064454559 98.37714930460788,161.38623231157544 89.36555485520512,151.59326754065114 88.98370763286948,152.01297119189985 97.19342291518115,160.50021251867292 110.5198909775354,178.453369524359 110.86355347768404,177.8005422669812 98.6062576379627,161.7126601372438 89.44192429981194,151.6865350586595 88.94552291068248,152.01297119189985 97.07886874838732,160.4535798409488 110.5198909775354,178.40673904310097 111.01629236689769,178.453369524359 110.90173820010386,177.89380337213515 99.29358263825998,162.50541226391215 89.40373957739212,151.59326754065114 88.98370763286948,152.01297119189985 97.0406840259675,160.40694715746213 110.5198909775354,178.5 111.05447708908468,178.5 110.93992292205803,177.89380337213515 97.57527013728395,160.31368177346303 89.48010902223177,151.77980255393777 88.90733818849549,151.96633747566375 97.15523819276132,160.5934778569208 110.4435215331614,178.453369524359 111.09266181127168,178.36010855610948 110.71081458870322,177.56738940396463 97.68982430407777,160.4535798409488 89.55647846660577,151.77980255393777 88.98370763286948,151.63990130258026 89.02189235528931,152.15287230617832 97.0406840259675,160.40694715746213 101.20281875040382,166.1427244131046 101.8519590285141,165.90956441906746 99.4845062494278,162.92510389877134" stroke="#4DD2FF" stroke-linecap="round" stroke-linejoin="round" stroke-width="0.5"><title>2025-01-14 10.6km</title><desc>1736807801000</desc></polyline><polyline fill="none" points="133.0519208076439,167.66607620728246 131.02700930903666,169.24349626720505 130.18447620296502,170.32388036444536 129.58620689655072,170.82084596602 129.0056378654699,171.16655704836376 128.65871246886672,171.75857942817674 127.86574013372592,172.54504638697836 127.0302871377935,173.13272456634513 125.98597089287068,174.04014963543887 124.0,175.60000213835156 125.79126786417328,174.21298986642432 127.05152746821113,173.12840343890275 127.80201914251666,172.60986431232232 128.63747213846364,171.8017923524858 129.04103841615142,171.15359294376321 129.6782483283023,170.76466759594769 130.21633669856237,170.31091595093312 131.06948996984283,169.2262098533538 133.96171496000898,167.00483536021056 133.979415235357,166.9054320721698 134.1422577684425,166.9054320721698 134.39714173330867,166.71959039273133 135.97954634849157,165.41867128485683 136.25567064377537,165.05993766257234 137.0840435295686,164.476447489571 137.3920283204352,163.96642596909078 138.17084043529758,163.47800863286466 138.49298544644262,163.02416346661266 139.2470171758323,162.53573311133005 139.38507932345965,162.11645565326398 139.99042874001316,161.67556059064373 140.54267733053712,160.82401240157924 144.42611773961107,158.09200357316877 145.79965910581814,157.430583606063 146.24924609939626,156.95504526100194 151.0,154.39999786164844 147.79625016389764,156.06015120457596 146.25278615445131,156.93342972963364 145.82089943622123,157.400322265672 144.39425724399916,158.09632653875087 140.55329749574594,160.789431330988 139.96918840961007,161.67556059064373 139.38153926839004,162.09484327836253 139.22577684541466,162.53573311133005 138.489445391373,163.00687401172036 138.12835977447685,163.48665324613467 137.38140815522638,163.95345922434717 137.07696341942938,164.45915874495404 136.23797036842734,165.05129343398949 135.96892618328275,165.41002714396745 134.31926052183553,166.7584875692446 134.16703815392975,166.85356937617325 134.07853677723324,166.7844189964926 134.0608365018852,166.88382262475352 133.9227743542724,167.01780098587187 131.06594991477323,169.20460182417082 130.1490756522835,170.35413064414752 129.64638783270493,170.76898901219465 129.0020978104003,171.1622356806838 128.46754949522438,171.96600098338604 127.83033958305896,172.56233117869124 127.27455093746539,172.94691560933643 127.81617936278053,172.6055431209934 128.5312704864191,171.92278825969333 129.01625803067873,171.16655704836376 129.7101088239142,170.74306050676387 130.40041956208006,170.1034846884395" stroke="yellow" stroke-linecap="round" stroke-linejoin="round" stroke-width="0.5"><title>2025-01-01 21.1km</title><desc>1735687361000</desc></polyline><polyline fill="none" points="186.310469208227,151.5 187.3962742522126,152.50402931199642 186.8152733076131,154.18517075378622 186.64383040595567,154.38363686421508 186.215223151783,154.17349626371288 186.01520643313415,154.36028793167497 185.7961405031965,155.41098417535977 186.44381368730683,156.928635876131 187.00576542061754,157.45397116342065 187.61534018215025,158.52798087281553 186.7962240963825,160.4191421751966 186.7295518568135,161.4347501984157 186.8438471246045,162.2635716364166 187.3486512239906,163.13907933550945 187.23435595619958,164.48150870209065 187.77725847822148,165.7188614702609 187.8153569007991,166.29083981518488 187.3867496465682,167.56318737734546 186.88194554724032,168.05344516365585 185.47230391111225,168.61373665887368 183.85312095080735,168.74213632487226 182.93875880842097,169.19737009691016 182.64349603332812,169.51253065310448 182.62444682203932,170.23622868902748 183.76739949994953,172.0454495075246 183.95789161295397,172.62906173018564 184.00551464117598,173.34106375624833 183.68167804909172,173.93634001733153 182.78636511811055,174.55495646856434 181.5195925667649,174.77672364331374 180.62427963572554,175.19691265115398 177.98596387094585,175.6170997889858 175.26192665530834,178.5 170.01386894268217,174.6133163018967 170.59486988728167,173.63286631399387 176.80491277045803,165.61380384643417 170.39485316863284,160.734332041553 170.04244275967358,160.96780533803394 162.47038126859115,170.63309299853427 162.1846430991427,170.4930234327694 169.91862288617995,160.51253187497787 169.6900323505979,160.1156250128115 166.61358472600114,157.66410445959627 166.67073235986754,157.4072748118415 166.9659951350186,157.37225253301585 167.29935633268906,157.57071194124728 173.9665802870295,162.85891775536584 174.5094828090514,162.74218351818126 175.15715599316172,161.91336628293357" stroke="#4DD2FF" stroke-linecap="round" stroke-linejoin="round" stroke-width="0.5"><title>2024-12-28 10.1km</title><desc>1735347410000</desc></polyline><polyline fill="none" points="26.080113996227738,194.27063548213118 22.797023432562128,196.82434037480562 22.101646611787146,197.81934969180656 21.417669411021052,198.59168759466775 20.528499050007667,199.31530999793904 19.57093096897006,199.89280974104986 18.97245091831428,200.8877654403368 17.764091196964728,202.0775148176108 16.413236225460423,203.0376453142817 15.107979734020773,204.18560618276751 11.5,207.03105790877817 14.629195693472866,204.59608354374723 16.51013299555052,202.96807118461584 17.650094996846747,202.19579263708874 18.94395186827751,200.94342678417524 19.559531348961173,199.9136831160722 20.5,199.33618358466265 21.446168461057823,198.57081373502297 22.170044331840472,197.77064334677198 22.80272324255202,196.83825670895385 27.539265357831027,193.1990194741993 27.539265357831027,193.032012565287 27.75015832806821,193.0528884557025 28.149145028495695,192.8023772655688 30.776757441431982,190.6381930299758 31.29544015202555,189.99796841850184 32.57219759342843,189.11416826499044 33.068081063975114,188.29298731994277 34.32773907537921,187.49963176531674 34.85782140595256,186.76194036310335 36.05478150729323,185.98944194815704 36.29987333758618,185.27956929541688 37.23464217860601,184.62536508936682 37.99271690941532,183.36565283014352 38.5,182.96894209122183 38.129512349609286,183.20557689988345 37.28024065864156,184.5279297769739 36.259974667511415,185.28652887421413 36.05478150729323,185.96160397168933 34.81222292588791,186.77585915730742 34.32203926536022,187.4717945275006 33.01678277392057,188.31386494834442 32.57219759342843,189.09329093010092 31.22704243194312,190.03972241700467 30.7596580114041,190.6312341055309 28.103546548460145,192.80933592461588 27.2770740975393,193.33819152404612" stroke="#4DD2FF" stroke-linecap="round" stroke-linejoin="round" stroke-width="0.5"><title>2024-12-24 11.5km</title><desc>1734996352000</desc></polyline><polyline fill="none" points="67.3502132196154,190.54695010848081 63.30597014923114,193.70078965686116 61.679637526656734,195.8091288970827 60.65058635393507,196.69636984138924 59.1969616204733,197.60995303460368 58.412579957337584,198.90124793883297 56.8006396588753,200.48239378628932 55.296641791035654,201.50133601907146 52.91471215352067,203.56552818167256 49.02158848615363,206.61339719968237 52.69163113005925,203.76755231603602 55.17430703624268,201.6330947361712 56.85820895523648,200.45604164044926 58.44136460556183,198.90124793883297 59.28331556505873,197.54846222254855 60.39872068227851,196.91598224587506 61.57889125801739,195.94968264791532 63.38512793177506,193.65686526514764 68.32169509594678,189.78262832802284 69.32915778251481,189.14129458592652 69.30037313431967,188.94801480174647 69.62420042642043,188.9216584272508 70.04157782514812,188.6405231648023 73.33742004263331,185.94332585651864 73.93470149251516,185.1701691994749 75.66897654582863,183.94891617045505 76.0,183.3778195028135 75.5826226012723,183.9928464953773 73.94909381662728,185.12623959423217 73.35900852878694,185.89061089411553 70.08475479742629,188.60538117966644 69.66018123668619,188.8953020431145 69.55223880594713,188.79866188524466 69.40831556502962,189.05344020298799 68.35767590615433,189.7211308199694 63.42830490402412,193.58658618257323 61.53571428571013,195.94968264791532 60.470682302780915,196.81935287056695 59.16817697224906,197.62752182840632 58.4197761194082,198.88367945630307 57.47707889127196,199.8411554951963 56.68550106609473,200.5526661280237 55.23187633260386,201.55403953487257 52.26705756931915,204.08376286509883 49.0,206.6221804971865 52.33182302775094,204.03984481644875 55.275053304911125,201.54525561825722 57.07409381659818,200.25400820135837 58.398187633254565,198.92760065457696 59.22574626863934,197.60995303460368 60.391524520237,196.9071977625863 61.43496801707079,196.08145153972146 62.47121535180486,194.9394464531215 63.24840085286996,193.78863835979428 65.34248400849174,192.1546349125856" stroke="#4DD2FF" stroke-linecap="round" stroke-linejoin="round" stroke-width="0.5"><title>2024-12-21 15.0km</title><desc>1734737288000</desc></polyline><polyline fill="none" points="102.55371613800526,192.5856208009718 98.9341282704263,195.37121431471314 98.24646909005241,196.36331350234832 97.34626070849481,197.385922323243 96.55857837459189,198.03458341818623 95.408312109299,198.72902488775435 94.6706413521606,199.90421593822248 93.43285482749343,201.1175393415906 91.90750173648121,202.20874717697006 89.71324380641454,204.08588528296968 86.5,206.61916922798264 90.2446168094466,203.65857425048307 91.85123871266842,202.2545317043987 93.6579069228901,200.91913586876763 94.6706413521606,199.90421593822248 95.37080342671834,198.7595496103313 96.39604075014358,198.14142106994404 97.3212549201271,197.40118501464167 98.17770317202667,196.4548910943122 98.959134058794,195.3483195320223 103.51643899051123,191.77663063268847 104.82299143320415,190.92183717968146 107.66739986106404,188.59399210893025 108.19252141698962,187.92233543009206 109.64285714284051,186.90720423626772 110.14922435747576,186.04471137987275 111.51829127111705,185.17457376857055 112.17469321601675,184.312056973773 113.39372539939359,183.53349175710173 113.5,183.38083077201736 112.11843019214575,184.32732286134706 111.56205140074599,185.1211438708997 110.11796712200157,186.03707864655007 109.58659411899862,186.92246948922548 108.1425098402251,187.92996793294878 107.63614262558986,188.58635968723684 104.52292197264615,191.127904529043 104.43540171333007,191.31107493528543 104.08532067606575,191.3950278585762" stroke="#4DD2FF" stroke-linecap="round" stroke-linejoin="round" stroke-width="0.5"><title>2024-12-17 10.2km</title><desc>1734391788000</desc></polyline><polyline fill="none" points="137.11968235962559,195.33166886910112 134.1792399319529,197.60015366170046 133.0,199.1144980543504 132.2240499149484,199.781293877164 131.25921724335058,200.37953317694337 130.61089052754687,201.40774057809904 129.51332955190446,202.44215862217243 128.41576857632026,203.20238019549288 127.03233125357656,204.4050026590121 124.0,206.77277749115092 129.96256381168496,202.04958075031027 130.69767441862496,201.30803652557006 131.26942711288575,200.37330155373638 132.21384004538413,199.78752557270127 132.836642087379,199.28275576663145 133.45433919454808,198.61595342534565 134.25581395349582,197.53783399902022 137.74248440159135,194.80192574226749 139.03913783325697,193.93562806378395 141.30062393649132,192.07210331537863 141.72943845720147,191.52986091314233 142.90357345435768,190.70090448391784 143.31707317076507,189.9903596733493 144.45547362451907,189.27357197918536 144.96086216680123,188.58793953634813 145.99716392511618,187.92723045734965 146.2319909245707,187.28521248816833 147.05899035735638,186.6992861190738 147.8196256381343,185.496245973216 151.0,183.22722250885272 147.88088485537446,185.40897770779702 147.06409529212397,186.6556530349044 146.22178105503554,187.26027958838677 146.00226885991287,187.88983157416078 144.92512762336992,188.59417260010014 144.42484401591355,189.2673389985248 143.33238797506783,189.95296230373424 142.90867838912527,190.67597325471434 141.6783891094674,191.5547917247859 141.34146341463202,192.003544249681 140.86670448101358,192.39619946881794" stroke="#4DD2FF" stroke-linecap="round" stroke-linejoin="round" stroke-width="0.5"><title>2024-12-14 12.1km</title><desc>1734132056000</desc></polyline><polyline fill="none" points="179.89339019186446,190.48985192139662 175.79157782514812,193.70518635903136 174.98560767588788,194.8735646126952 174.10047974414192,195.87501657321263 173.0426439232251,196.76225621654157 171.7689232409175,197.52650336863735 170.8550106609764,198.9583468532437 169.35101279316586,200.40772992694838 167.7534648187575,201.52329578766512 165.88246268656803,203.1658691324992 161.5,206.6441358870943 166.53011727079866,202.6300605609067 167.6958955223963,201.5672153493215 169.68203624733724,200.11785564966704 170.96295309168636,198.8265833067635 171.6969616204733,197.5967785609464 172.94189765455667,196.83253215590958 173.98534115139046,195.9892163492259 174.97841151384637,194.8911340655468 175.9211087420117,193.58219806970737 180.99440298508853,189.61132022648235 182.6711087420117,188.49556949514954 185.7582622601185,185.94772729959368 186.68656716417172,187.27437364465732 185.85181236674543,185.89501236941578 186.42750533050275,185.14821337130707 188.1473880597041,183.92696064090705 188.5,183.35586411291297 188.08981876331381,183.94453276977583 186.44189765455667,185.1042837768182 185.8949893390236,185.8159399016513 182.18896588485222,188.8821307645121 180.74253731343197,189.7694567240178 175.87073560766294,193.5909829545053 174.96401918976335,194.85599515552894 173.97094882727833,195.95407797591906 172.93470149251516,196.79739419482212 171.65378464819514,197.58799416566762 170.8550106609764,198.89685722826835 169.6604477611836,200.09150338469772 167.8326226013014,201.4354565839094 165.2204157782835,203.66653910726745 161.51439232411212,206.5826528344478 165.33555437100586,203.60505350867606 167.63832622603513,201.61991878790286 169.4373667377222,200.34624154155608 170.9917377398524,198.80901481562614 171.74733475479297,197.56164097337023 172.86273987207096,196.89402354651975 174.0860874200298,195.89258578133013 175.94269722813624,193.5734131838617 180.94402985073975,189.65524706623546 182.49120469082845,188.6361374700209 185.84461620467482,185.88622654396022 186.44909381662728,185.1218556178428 188.03944562896504,184.00603518707794" stroke="#4DD2FF" stroke-linecap="round" stroke-linejoin="round" stroke-width="0.5"><title>2024-12-07 17.1km</title><desc>1733527336000</desc></polyline><polyline fill="none" points="13.404623783571878,238.4930785752149 13.619982677133521,238.38233566372583 13.506635891069891,238.5 13.597313319944078,238.3061997863333 13.121256818354595,237.15722773902235 13.177930211415514,237.05340381385759 19.9844047157967,234.59618195413714 20.772164879075717,234.15317848592167 21.37857018460636,233.48866677711703 32.46388586368994,220.48758559010457 32.843597597035114,219.8159895411045 34.69681754952762,215.03150224020283 35.22954744414892,213.91667929120376 36.41402135870885,212.02627707210922 36.635047591582406,211.83238608944157 36.87874318167451,211.88085889747163 36.55003750202013,211.5 36.44802539452212,211.50692473012532 35.733940642210655,212.46945396297087 35.09919864014955,213.53583411381987 34.35110985196661,215.0176536427971 32.61690402487875,219.6152015440748 32.23719229150447,220.31449458814313 27.901677723770263,225.46545601418984 22.591380795725854,231.58507439041568 22.393023920070846,232.01425354143794 21.16321129107382,233.42636840409614 20.58514268201543,234.00781721680687 20.171426912827883,234.27777356208026 13.240270943759242,236.78346071653505" stroke="#4DD2FF" stroke-linecap="round" stroke-linejoin="round" stroke-width="0.5"><title>2024-11-30 11.9km</title><desc>1732919585000</desc></polyline><polyline fill="none" points="51.38784873788245,211.92262332868995 59.46242231945507,220.32803508028155 73.03539600665681,238.45304512692383 73.53525056201033,238.2652255775174 72.45864075096324,236.62180059895036 59.46242231945507,219.6236780337931 51.81080259219743,211.5 51.38784873788245,211.92262332868995 59.53932302026078,220.46890633448493 73.03539600665681,238.5 73.61215126258321,238.35913536362932 73.38144916016608,237.7956763014954 60.11607827618718,220.37499217077857 51.81080259219743,211.54695817054017 51.46474943868816,212.01653956089285 59.53932302026078,220.37499217077857 73.07384635717608,238.45304512692383 73.49680021149106,238.0304510113201 60.5774824807886,220.8915197865863 51.92615364328958,211.68783264799276 51.42629908840172,211.96958144765813 59.61622372106649,220.46890633448493 73.07384635717608,238.5 73.65060161286965,238.35913536362932 73.07384635717608,237.37308146222495 59.77002512244508,219.95237814966822 51.81080259219743,211.54695817054017 51.38784873788245,211.92262332868995 59.308620918076485,220.23412088208715 73.07384635717608,238.5 73.4583498609718,237.93654114476521 60.07762792566791,220.37499217077857 51.77235224167816,211.54695817054017 51.42629908840172,211.96958144765813 59.53932302026078,220.46890633448493 72.99694565637037,238.45304512692383 73.49680021149106,238.1243608549994 60.23142932727933,220.51586340769427 51.81080259219743,211.5939163354924 51.34939838736318,211.87566520407563 59.57777337078005,220.56282047511195 72.92004495556466,238.3121804734692 73.57370091229677,238.1243608549994 68.76740711345337,231.87930620886618" stroke="#4DD2FF" stroke-linecap="round" stroke-linejoin="round" stroke-width="0.5"><title>2024-11-26 10.9km</title><desc>1732619882000</desc></polyline><polyline fill="none" points="88.94552088226192,211.73276680833078 96.60741847776808,219.83296303026145 110.52081460878253,238.40689984348137 110.74952796986327,237.56899741006782 99.1613843429368,222.20712579475367 89.28859092388302,211.5 89.32670981739648,212.47761963758967 97.0267263064161,220.39159089591703 110.52081460878253,238.31379966429085 110.78764686337672,237.66209777171025 97.97969864401966,220.76400901729357 90.47027662280016,212.66383261722513 89.32670981739648,211.639660101966 89.1361153498292,212.15174670418492 97.0267263064161,220.29848630863125 110.52081460878253,238.31379966429085 111.01636022445746,238.26724956612452 110.78764686337672,237.70864794397494 97.86534196371213,220.67090452110278 89.44106649793684,211.5 89.28859092388302,212.47761963758967 97.102964093443,220.4846954603854 110.52081460878253,238.40689984348137 110.82576575689018,237.70864794397494 98.17029311158694,220.95021794131026 89.40294760442339,211.5 89.05987756280228,211.965533474111 96.98860741290264,220.3450386050681 110.44457682175562,238.26724956612452 110.94012243743055,237.80174827118753 97.67474749591202,220.39159089591703 89.44106649793684,211.59310674038716 88.98363977577537,212.01208679025876 97.102964093443,220.4846954603854 110.71140907634981,238.5 110.52081460878253,237.28969618916744 97.82722307019867,220.62435226453817 89.44106649793684,211.54655337295844 89.40294760442339,212.47761963758967 96.91236962587573,220.25193400637363 110.40645792824216,238.26724956612452 110.78764686337672,237.66209777171025 98.0559364312794,220.81056125677424 89.40294760442339,211.59310674038716 89.09799645631574,211.918980152288 97.102964093443,220.4846954603854 110.40645792824216,238.1741493527079 111.05447911797091,238.1275992373703 110.78764686337672,237.61554759385763 96.95048851938918,219.55364878982073 89.44106649793684,211.639660101966 89.36482871090993,212.33795984330936 97.06484519992955,220.39159089591703 110.48269571526907,238.31379966429085 110.978241330944,238.1741493527079 110.74952796986327,237.61554759385763 97.86534196371213,220.62435226453817 89.44106649793684,211.73276680833078" stroke="#4DD2FF" stroke-linecap="round" stroke-linejoin="round" stroke-width="0.5"><title>2024-11-16 14.9km</title><desc>1731755814000</desc></polyline><polyline fill="none" points="126.34973157919012,211.92115848133108 134.6262194791343,220.57820229558274 148.11382939014584,238.45320788794197 148.38204890559427,237.75132551940624 134.741170699941,219.87628712426522 127.07775597786531,211.78077237246907 126.54131694720127,211.59359081360162 126.5796340208035,212.15513521499815 134.51126825832762,220.3910250425688 148.03719524294138,238.45320788794197 148.49700012616813,237.9852864520799 146.00639034155756,234.5226500358258 135.27760973060504,220.57820229558274 127.03943890426308,211.73397699129418 126.50299987383187,212.06154453882482 134.81780484737828,220.76537945709424 147.88392694853246,238.31283151719254 148.5353172000032,238.03207862147246 135.16265850979835,220.43781936439336 126.96280475705862,211.59359081360162 126.54131694720127,211.96795383948484 134.81780484737828,220.71858517537476 148.03719524294138,238.35962364656734 148.45868305279873,237.75132551940624 135.66078046662733,220.9993507800682 126.92448768345639,211.64038621194777 126.54131694720127,212.10833987980732 134.58790240553208,220.43781936439336 148.03719524294138,238.5 148.65026842080988,238.12566294302815 135.66078046662733,220.9993507800682 128.76370721659623,213.51219744759146 126.77121938881464,211.64038621194777 126.5796340208035,212.01474919199245 134.6262194791343,220.48461368057178 147.96056109573692,238.35962364656734 148.57363427360542,238.12566294302815 136.69534145412035,222.4031757126213 126.8095364626497,211.54679540969664 126.54131694720127,212.06154453882482 134.58790240553208,220.48461368057178 148.15214646374807,238.5 148.61195134720765,238.07887078501517 135.00939021538943,220.2038476978778 126.77121938881464,211.5 126.77121938881464,212.20193054454285 134.54958533192985,220.43781936439336 147.99887816933915,238.45320788794197 148.57363427360542,238.35962364656734 148.30541475815699,237.75132551940624 134.97107314155437,220.25064204257797 126.5796340208035,211.96795383948484 134.85612192074768,220.9057622680266 148.03719524294138,238.45320788794197 148.38204890559427,237.84490990973427 142.36626834864728,229.98374131153105" stroke="#4DD2FF" stroke-linecap="round" stroke-linejoin="round" stroke-width="0.5"><title>2024-11-10 14.3km</title><desc>1731237417000</desc></polyline><polyline fill="none" points="163.9455269682221,211.96633747580927 173.03348752623424,221.71266013747663 185.44351769983768,238.31347806329723 186.0162883233279,238.26684756492614 185.29077886696905,237.10108325025067 173.5298887330573,221.47949743343634 164.51829759171233,211.77980255396687 164.0600810928736,212.0596049024898 172.04068511235528,220.45357984121074 185.558071824722,238.5 186.09265773976222,238.31347806329723 185.29077886696905,237.14771389134694 172.3843474863097,220.08051821382833 164.441928175278,211.77980255396687 163.90734226000495,211.91970375398523 171.96431569592096,220.40694715766585 185.51988711650483,238.5 186.09265773976222,238.08032551416545 172.57527102762833,220.36031446859124 164.441928175278,211.7331688091508 163.90734226000495,211.96633747580927 171.735207446618,220.17378365492914 185.6344412411563,238.40673904307187 185.93991890689358,237.8471728223958 172.65164044382982,220.40694715766585 164.3273740503937,211.5466337733087 164.1364505093079,212.1062386072299 172.1170545287896,220.40694715766585 185.59625653270632,238.36010855596396 186.05447303154506,238.08032551416545 185.558071824722,237.28760578020592 173.0716722344514,220.8732737354003 164.441928175278,211.59326754091308 163.98371167643927,211.77980255396687 173.83536639879458,222.5986771118187 185.51988711650483,238.31347806329723 185.97810361511074,238.12695603535394 185.09985532588325,236.72803791664774 173.22441106732003,221.10643681022339 164.40374346706085,211.5 164.02189638465643,212.1062386072299 172.7661945684813,221.24633458678727 185.44351769983768,238.31347806329723 186.05447303154506,238.22021706073429 185.48170240805484,237.28760578020592 173.5298887330573,221.33959974249592 164.48011288326234,211.7331688091508 164.0600810928736,211.91970375398523 172.26979336189106,220.64011051793932 185.558071824722,238.22021706073429 185.8253647822421,237.6606505662785 174.5226911471691,222.78520673888852" stroke="#4DD2FF" stroke-linecap="round" stroke-linejoin="round" stroke-width="0.5"><title>2024-10-26 12.9km</title><desc>1729940418000</desc></polyline><polyline fill="none" points="16.75397876149509,241.70522320031887 21.89123799011577,247.0409647137276 29.71715625433717,257.4189348385844 31.277538730297238,258.6501896042464 33.14999770151917,261.22994098109484 30.149262170773,268.4706856887642 33.222015354200266,261.25925617812027 21.987261527217925,246.71847821566917 16.8980140669737,241.5586352180253 21.963255642796867,247.12891550149652 30.389321013120934,258.29840317387425 31.301544614485465,258.70882062574674 33.14999770151917,261.3472017474851 30.125256286468357,268.5 33.246021238388494,261.3765169301623 22.203314485261217,246.86506304127397 16.85000229848083,241.6465880182368 21.915243874420412,247.12891550149652 30.293297476135194,258.2104564855981 31.229526961804368,258.6208740881266 33.101985932909884,261.20062578057696 30.101250402163714,268.44137137386133 33.17400358559098,261.22994098109484 22.51539098052308,247.27550007602258 16.8980140669737,241.5 22.13129683258012,247.39276767113188 29.861191559699364,257.68277567798214 31.325550498673692,258.67950511675735 33.101985932909884,261.171310576392 30.125256286468357,268.44137137386133 33.222015354200266,261.3472017474851 21.915243874420412,246.6305272772006 17.21009056211915,241.61727042170241 16.85000229848083,241.5586352180253 17.01804348814767,241.93976378551451 21.3631085366942,246.5132593090966 21.3631085366942,245.95623567672737 18.8905024593696,243.46427199296886" stroke="#4DD2FF" stroke-linecap="round" stroke-linejoin="round" stroke-width="0.5"><title>2024-10-19 10.6km</title><desc>1729335763000</desc></polyline></svg>