<?xml version="1.0" encoding="utf-8" ?>
<svg baseProfile="full" height="300mm" version="1.1" viewBox="0,0,200,300" width="200mm" xmlns="http://www.w3.org/2000/svg" xmlns:ev="http://www.w3.org/2001/xml-events" xmlns:xlink="http://www.w3.org/1999/xlink"><defs /><rect fill="#222222" height="300" width="200" x="0" y="0" /><text fill="#FFFFFF" style="font-size:12px; font-family:Arial; font-weight:bold;" x="10" y="20">Over 10km Runs</text><text fill="#FFFFFF" style="font-size:4px; font-family:Arial" x="10" y="280">Runner</text><text fill="#FFFFFF" style="font-size:9px; font-family:Arial" x="10" y="290">unsung</text><text fill="#FFFFFF" style="font-size:4px; font-family:Arial" x="65" y="280">SPECIAL TRACKS</text><rect fill="yellow" height="2.6" width="2.6" x="65" y="283" /><text fill="#FFFFFF" style="font-size:3px; font-family:Arial" x="70" y="285.5">Over 20.0 km</text><rect fill="red" height="2.6" width="2.6" x="65" y="287" /><text fill="#FFFFFF" style="font-size:3px; font-family:Arial" x="70" y="289.5">Over 40.0 km</text><text fill="#FFFFFF" style="font-size:4px; font-family:Arial" x="120" y="280">STATISTICS</text><text fill="#FFFFFF" style="font-size:3px; font-family:Arial" x="120" y="285">Number: 30</text><text fill="#FFFFFF" style="font-size:3px; font-family:Arial" x="120" y="290">Weekly: 1.6</text><text fill="#FFFFFF" style="font-size:3px; font-family:Arial" x="141" y="285">Total: 365.6 km</text><text fill="#FFFFFF" style="font-size:3px; font-family:Arial" x="141" y="290">Avg: 12.2 km</text><text fill="#FFFFFF" style="font-size:3px; font-family:Arial" x="167" y="285">Min: 10.0 km</text><text fill="#FFFFFF" style="font-size:3px; font-family:Arial" x="167" y="290">Max: 21.1 km</text><polyline fill="none" points="22.879857227788307,31.80000000000291 22.763490346609615,32.31161405977036 27.441438970388845,37.200313805034966 33.02704926743172,44.56159200388356 32.84086225752253,45.130020773460274 27.697446108912118,48.05740691193205 17.50370731682051,33.647489903480164 29.861870099208318,51.865795805933885 27.813812990207225,48.28477516534622 33.21323627734091,45.186863573937444 35.75003428722266,48.199512096398394 36.68096933676861,48.59740615055489 38.42647255468182,51.12685955851339 35.563847277429886,57.890880579230725 35.58712065347936,58.885572944564046 32.39866810897365,62.949557510684826 30.676438267342746,64.19999999999709 32.305574604077265,63.091653586991015 35.68021415849216,58.885572944564046 35.49402714869939,58.11823920963798 38.51956605957821,51.15528022691433 28.116366881295107,37.598226698406506 22.833310475223698,31.88526908820495 22.786763722775504,32.28319108598225 27.86035974265542,37.68349365825998 33.00377589114942,44.56159200388356 32.72449537634384,45.21528496900282 27.813812990207225,48.00056481381762 25.975216267281212,45.95424001895299 17.480433940538205,33.47695298951294 29.838596722809598,51.808954639564035 27.813812990207225,48.25635414586577 33.14341614861041,45.186863573937444 35.773307663504966,48.171091066498775 36.70424271305092,48.62582712828589 38.44974593084771,51.0700182114233 35.54057390114758,57.947720257696346 35.61039402987808,58.885572944564046 32.35212135652546,63.03481516690226 30.676438267342746,64.14316185095231 32.35212135652546,63.006395951568265 35.54057390114758,59.05609120814188 35.54057390114758,58.00455992222123 38.51956605957821,51.46790734940441 35.843127792235464,47.6879330255324" stroke="#4DD2FF" stroke-linecap="round" stroke-linejoin="round" stroke-width="0.5"><title>2025-06-17 10.0km</title><desc>1750111475000</desc></polyline><polyline fill="none" points="58.60274387139361,32.084729663212784 58.929143809946254,31.99931080083479 58.81257240334526,32.397931890387554 63.42880010732915,37.12438704734086 69.00091334595345,44.498604270556825 68.46468487533275,45.32427427833318 63.5220572326798,47.94362181243196 53.47360197803937,33.479899977275636 65.87679964734707,51.844117309723515 63.84845717123244,48.22833172457467 69.3273132846225,45.12497488949157 71.70536998054013,48.057505819102516 72.66125551518053,48.56998315946839 74.45645517797675,51.10388231399702 71.56548429257236,57.93673130206298 71.70536998054013,58.76235363804153 68.37142774986569,63.00429808287299 66.66948521265294,64.17153097799746 68.25485634326469,63.118174720642855 71.63542713655625,58.961641349393176 71.54217001132201,58.10754995670868 74.52639802184422,51.07541169026808 63.66194292064756,36.896608277675114 58.85920096596237,31.80000000000291 58.71931527799461,32.17014849431871 63.568685795296915,37.266748665235355 69.09417047118768,44.69790419584024 63.68525720201433,48.000563822773984 53.47360197803937,33.479899977275636 65.9700567725813,51.872587839432526 63.84845717123244,48.22833172457467 69.23405615927186,45.096503534252406 71.72868426190689,48.02903482261172 72.63794123393018,48.513041288388195 74.4797694592271,50.98999979799555 71.61211285518948,57.82285212939314 71.56548429257236,58.961641349393176 68.34811346861534,63.03276724758325 66.71611377527006,64.19999999999709 68.32479918736499,63.08970556642453 71.65874141803943,58.90470202064898 71.56548429257236,58.0506104190863 74.50308374059387,51.10388231399702 64.19817139138468,37.55147163965739" stroke="#4DD2FF" stroke-linecap="round" stroke-linejoin="round" stroke-width="0.5"><title>2025-06-15 10.5km</title><desc>1749940293000</desc></polyline><polyline fill="none" points="94.81712709041312,31.80000000000291 99.54577068879735,37.261949395615375 105.04311004432384,44.601241852433304 104.90334717941005,45.05638414353598 99.73212117538787,48.01478732046962 89.45955059991684,33.56376851965615 101.85185796080623,51.826520538903424 99.82529641874135,48.270801210353966 105.29934196348768,45.141723223990994 107.7917797222035,48.213909259211505 108.65365072293207,48.555260757522774 110.49386177829001,51.22916349154548 107.55884161393624,57.970675391101395 107.65201685728971,58.79557270980149 104.36758953041863,63.00534793814586 102.69043515075464,64.19999999999709 104.39088334119879,63.00534793814586 107.67531066818628,58.909351420647 107.55884161393624,58.084454505558824 110.54044939996675,51.05848976765992 100.4076416894095,37.8593423262937 94.7705394688528,31.80000000000291 95.00347757712007,32.482750691619 99.61565212125424,37.31884402659489 105.04311004432384,44.54434900340857 104.85675955773331,45.0848305071122 99.54577068879735,47.957895306593855 89.52943203237373,33.44997740603867 101.96832701493986,51.826520538903424 99.8485902295215,48.213909259211505 105.36922339606099,45.113276867283275 107.76848591130693,48.157017294099205 108.70023834449239,48.58370669318538 110.44727415672969,51.00159849843476 107.55884161393624,57.913785812983406 107.67531066818628,58.85246207215823 104.36758953041863,62.976903766655596 102.66714133985806,64.1431119456829 104.34429571952205,63.033792106230976 107.7218982897466,58.82401739273337 107.5821354247164,57.970675391101395 110.54044939996675,51.48517384256411 108.02471783047076,47.844111237165635" stroke="#4DD2FF" stroke-linecap="round" stroke-linejoin="round" stroke-width="0.5"><title>2025-06-13 10.0km</title><desc>1749765414000</desc></polyline><polyline fill="none" points="128.01247698254883,31.82852310704766 132.91709637921304,37.276372552645626 141.16152803169098,48.171689528855495 142.00231992837507,48.45690041172202 143.87074636528268,51.1093449119071 140.9279747272376,57.92570365294523 141.0447513795225,58.80981926640379 137.91513709782157,62.80255770035728 136.09342132182792,64.19999999999709 137.72829445416573,63.05923140363302 141.0447513795225,58.952418244982255 141.0213960489491,57.95422356373456 143.98752301756758,51.1093449119071 133.0805836925283,36.934103037187015 127.98912165209185,31.857046210527187 133.33749232755508,37.64716396070435 141.11481737089343,48.086126195892575 142.072385919746,48.54246360860998 143.87074636528268,51.023782657124684 140.99804071860854,57.89718373857613 141.06810670997947,58.838339069043286 137.7516497845063,62.97367353395384 136.1167766522849,64.14296170267335 137.77500511496328,62.97367353395384 141.06810670997947,58.89537866396131 140.97468538803514,57.95422356373456 144.01087834790815,51.166386397671886 133.0572283619549,36.84853557981842 128.01247698254883,31.80000000000291 132.7302537355572,36.905580554826884 141.11481737089343,48.057605077992775 142.072385919746,48.54246360860998 143.89410169562325,51.080824163756915 140.97468538803514,57.89718373857613 141.0447513795225,58.80981926640379 137.7516497845063,63.00219282731996 136.09342132182792,64.14296170267335 137.79836044553667,62.94515423712437 141.06810670997947,58.89537866396131 140.97468538803514,57.95422356373456 143.9408123565372,51.1093449119071 133.33749232755508,37.19080522090371 128.24603028711863,31.80000000000291 128.1759642957477,32.14227705373196 133.01051770115737,37.21932766833925 135.2059187644627,40.12859897293674" stroke="#4DD2FF" stroke-linecap="round" stroke-linejoin="round" stroke-width="0.5"><title>2025-06-09 10.0km</title><desc>1749421393000</desc></polyline><polyline fill="none" points="164.06833766854834,32.11156005374505 164.20748963928781,31.79999999998836 164.11472165875603,32.47976684941386 168.93865664396435,37.35137085482711 176.52243904885836,47.462454284352134 177.98353474133182,48.623642878592364 179.81570235616527,51.17257302744838 176.87031897553243,58.02622381078254 177.0558549364796,58.81919510423904 173.69301564386114,63.06720936077181 172.0927679805318,64.19999999999709 173.78578362450935,62.95392999211617 177.07904693169985,58.87583580696082 176.93989496096037,58.05454426094366 179.86208634625655,51.25753688249097 170.1678323855158,38.42764163362153 164.06833766854834,32.08323642979667 168.9618486391846,37.40801681004814 177.07904693169985,48.19881845872442 178.00672673655208,48.623642878592364 179.8388943511527,51.229215600920725 176.93989496096037,57.99790335718717 176.93989496096037,58.98911717098963 173.78578362450935,62.98224983944965 172.06957598554436,64.19999999999709 173.8089756196132,62.98224983944965 177.07904693169985,58.90415615317761 176.91670296585653,58.08286470755411 179.95485432678834,51.229215600920725 169.10100060992409,37.09646388475085 164.06833766854834,32.05491280242859 168.91546464897692,37.35137085482711 177.0094709462719,48.11385348121985 178.07630272198003,48.68028607570159 179.8388943511527,51.17257302744838 176.91670296585653,57.99790335718717 177.03266294149216,58.84751545735344 173.7162076390814,63.038889523857506 172.06957598554436,64.1716803014424 173.78578362450935,62.98224983944965 176.98627895116806,59.017437503280235 176.91670296585653,58.19614645947877 179.86208634625655,51.17257302744838 169.28653657087125,37.26640189597674 164.04514567332808,32.026589171538944 168.91546464897692,37.32304787199246 176.56882303906605,47.51909776554385 178.02991873165593,48.65196447895141 179.8388943511527,51.17257302744838 176.93989496096037,57.94126243965002 176.8935109707527,59.07407815747138 173.69301564386114,63.038889523857506 172.0463839903241,64.1716803014424 173.66982364887372,63.12384902444319 177.07904693169985,58.90415615317761 176.93989496096037,58.05454426094366 179.86208634625655,51.62571322708391 179.72293437551707,50.88935995232896 176.91670296585653,47.32084552074957" stroke="#4DD2FF" stroke-linecap="round" stroke-linejoin="round" stroke-width="0.5"><title>2025-06-07 12.0km</title><desc>1749247836000</desc></polyline><polyline fill="none" points="20.389791844878346,72.59999999999127 20.181609858991578,73.30623853064026 24.831007546395995,78.16510106172063 33.042630327749066,89.01242520313826 34.12980292143766,89.60562354617286 35.81839014124125,92.06314330478199 32.88071100541856,98.87061894046201 32.99636766430922,99.6897622327233 29.71171855169814,103.84192664259172 28.06939399545081,104.97175437732949 29.71171855169814,103.87017240327259 33.042630327749066,99.77450102822331 32.92697366885841,98.89886530923832 35.93404680013191,92.17613209008414 25.177977523067966,78.05210542006535 20.065953199984506,72.96724430548784 25.016058200621046,78.33459442063759 33.01949899608735,88.9559300433466 34.014146262547,89.46438598367968 35.81839014124125,92.00664889140171 32.90384233719669,98.7858798133093 32.99636766430922,99.6897622327233 29.734849883476272,103.81368087834562 28.06939399545081,104.97175437732949 29.71171855169814,103.92666391446255 33.08889299130533,99.6897622327233 32.97323633241467,98.7858798133093 35.95717813191004,92.1478848989791 25.270502850180492,78.16510106172063 20.1353471953189,72.85424611991039 24.992926868842915,78.30634553616983 33.01949899608735,88.9559300433466 33.99101493076887,89.40789093449712 35.81839014124125,92.03489609985263 32.88071100541856,98.81412619243201 32.99636766430922,99.6897622327233 29.642324556363747,103.84192664259172 28.115656659007072,105.0 29.642324556363747,103.95490966479701 33.06576165964361,99.6897622327233 32.92697366885841,98.92711167452217 35.91091546835378,92.17613209008414 25.363028177409433,78.30634553616983 20.343529181438498,72.91074521957489 20.042821868206374,73.08024243585533 24.992926868842915,78.27809664820961 27.60676735988818,81.72443546926661" stroke="#4DD2FF" stroke-linecap="round" stroke-linejoin="round" stroke-width="0.5"><title>2025-06-05 10.1km</title><desc>1749073951000</desc></polyline><polyline fill="none" points="56.21099729137495,72.60000000000582 56.094220639090054,72.94227705373487 60.8353527225554,77.93376031561638 71.88242403033655,91.90934491191001 68.89294173149392,98.81126337499882 69.07978437514976,99.55277965056302 65.763327449793,103.80219282732287 64.10509898711462,105.0 65.78668278013356,103.80219282732287 69.05642904457636,99.75241824498517 68.98636305332184,98.81126337499882 71.97584535216447,91.93786565649498 61.20903800986707,77.8767153963563 56.024154647719115,72.6570462105301 60.998840035754256,78.07637255264854 71.88242403033655,92.0234278694843 68.91629706183448,98.75422356373747 69.05642904457636,99.6098192664067 65.763327449793,103.77367353395675 64.08174365654122,104.97148085299705 65.7399721192196,103.85923140363593 69.07978437514976,99.69537866396422 69.0330737142358,98.72570365294814 71.92913469125051,91.88082416375983 61.25574867089745,77.93376031561638 56.024154647719115,72.71409240717185 60.90541871404275,78.01932766834216 71.88242403033655,91.90934491191001 68.91629706183448,98.75422356373747 69.05642904457636,99.5812994602311 65.69326145830564,103.85923140363593 64.08174365654122,104.97148085299705 65.69326145830564,103.88775068662653 69.07978437514976,99.7238984562282 68.98636305332184,98.75422356373747 71.97584535216447,92.08046932726575 61.60607862775214,78.36159676506941 56.374484604690224,72.68556931057537 56.070865308633074,72.85670783744717 59.76100752141792,76.62172364126309 63.19424109905958,80.95712106089923" stroke="#4DD2FF" stroke-linecap="round" stroke-linejoin="round" stroke-width="0.5"><title>2025-06-03 10.0km</title><desc>1748953280000</desc></polyline><polyline fill="none" points="91.9983886614209,72.7714404004364 96.95845183043275,77.94316664648068 107.95481828984339,91.91482678161992 105.03025274211541,98.62892644264502 105.05364926648326,99.6574523220188 101.91851499932818,103.68580174306408 100.14037914632354,105.0 101.84832542622462,103.7143713489786 105.1472353640711,99.60031211418391 105.05364926648326,98.74320731952321 107.97821481432766,91.94339782741736 97.14562402537558,77.68601169374597 92.06857823452447,72.60000000000582 96.95845183043275,77.91459388796648 107.95481828984339,91.88625573240279 105.00685621774755,98.71463710557146 105.03025274211541,99.6574523220188 101.77813585300464,103.80008014582563 100.14037914632354,104.97143055118795 101.87172195059247,103.7143713489786 105.10044231533539,99.71459251585475 105.05364926648326,98.71463710557146 107.95481828984339,91.88625573240279 97.51996841561049,78.14317585837853 92.06857823452447,72.62857340884511 96.93505530594848,77.8860211259016 107.95481828984339,91.88625573240279 105.03025274211541,98.71463710557146 105.10044231533539,99.6288822198112 101.84832542622462,103.74294095148798 100.14037914632354,104.97143055118795 101.87172195059247,103.74294095148798 105.1472353640711,99.6574523220188 105.07704579085112,98.60035621473799 108.0016113385791,92.08625300377025 97.68374408618547,78.34318489897123 92.37273305165581,72.60000000000582 92.18556085648015,72.91430730462889 97.02864140353631,78.00031215308991 99.67244865861721,81.42901695946057" stroke="#4DD2FF" stroke-linecap="round" stroke-linejoin="round" stroke-width="0.5"><title>2025-05-31 10.0km</title><desc>1748691698000</desc></polyline><polyline fill="none" points="128.23068163439166,72.59999999999127 128.11472165875603,73.08150172453315 132.86908065865282,77.98143290597363 141.2181989023229,89.0837834051199 142.05311072675977,89.39532127484563 143.86208634625655,92.0008943159628 140.87031897553243,98.88286470755702 141.07904693158343,99.61919510424195 137.83216761471704,103.72561014123494 136.11595997563563,104.9716803014453 137.73939963418525,103.81056968333723 141.1022389268037,99.64751545735635 140.96308695606422,98.88286470755702 143.95485432678834,92.0008943159628 133.0082326293923,77.81149483239278 128.04514567332808,72.8549128024315 132.98504063428845,78.12304787199537 141.2181989023229,89.05546175976633 142.09949471708387,89.42364287859527 143.8852783413604,92.0008943159628 140.98627895128448,98.65630103751027 141.0094709462719,99.73247649586119 137.7625916292891,103.81056968333723 136.16234396595974,104.9716803014453 137.78578362439293,103.78224983945256 140.98627895128448,99.73247649586119 140.98627895128448,98.71294197574025 143.95485432678834,92.11417943517154 133.58803250745405,78.49124637820933 128.06833766843192,72.79826553727617 133.0082326293923,78.17969383414311 141.14862291701138,88.99881845872733 142.14587870729156,89.4802860757045 143.86208634625655,91.97257302745129 140.87031897553243,98.82622381078545 141.03266294137575,99.64751545735635 137.73939963418525,103.86720936077472 136.11595997563563,104.9716803014453 137.66982364887372,103.89552919435664 141.055854936596,99.81743750328314 141.0094709462719,98.79790335719008 143.93166233156808,92.05753688249388 133.54164851712994,78.43460049228452 128.06833766843192,72.8549128024315 132.7995046733413,77.868140870778 140.91670296585653,88.71560174578917 142.00672673643567,89.39532127484563 143.81570235604886,91.91593044019828 140.89351097063627,98.76958290020411 141.03266294137575,99.61919510424195 137.73939963418525,103.83888952386042 136.0927679806482,105.0 137.90174360002857,103.6689704292221 141.07904693158343,99.70415615318052 140.96308695606422,98.85454426094657 143.93166233156808,92.05753688249388 133.4256885414943,78.34963163745124 128.04514567332808,72.88323642979958 132.98504063428845,78.17969383414311 141.055854936596,88.91385348122276 142.0763027218636,89.50860766903497 143.8852783413604,92.11417943517154 140.91670296585653,98.76958290020411 141.055854936596,99.64751545735635 137.83216761471704,103.72561014123494 136.06957598542795,105.0 137.73939963418525,103.86720936077472 140.98627895128448,99.8457578321104 140.93989496096037,98.88286470755702 143.93166233156808,92.05753688249388" stroke="#4DD2FF" stroke-linecap="round" stroke-linejoin="round" stroke-width="0.5"><title>2025-03-01 15.0km</title><desc>1740782421000</desc></polyline><polyline fill="none" points="162.15728477551602,72.63469148732838 162.58337634371128,72.59999999997672 162.4697519254405,73.22444612390245 168.37822167063132,79.39945041545434 178.29195215646178,92.5815938677406 179.48500854731537,93.1366180421901 181.70068470179103,96.25860878167441 178.06470332003664,105.0 181.7859030152904,96.32798596317298 168.6906888205558,79.22599707441987 162.4697519254405,72.91222323381226 168.4634399842471,79.46883172210073 178.37717047007754,92.68566098317388 179.4281963382382,93.10192906315206 181.70068470179103,96.18923158300458 178.00789111107588,104.96531247213716 181.84271522448398,96.39736312779132 169.0031559705967,79.60759428446181 162.66859465721063,72.84284032267169 162.32772140274756,72.98160612795618 168.74750102963299,79.78104739196715 178.32035826088395,92.5815938677406 179.54182075627614,93.2059959875769 181.64387249259744,96.18923158300458 178.03629721561447,104.96531247213716 181.84271522448398,96.43205170379952 169.14518649340607,79.74635677901097 162.81062518002,72.9469146829797 162.29931529820897,72.9469146829797 168.4918460889021,79.53821301175049 178.40557657449972,92.68566098317388 179.48500854731537,93.10192906315206 181.70068470179103,96.22392018447863 178.00789111107588,104.93062493996695 181.81430911982898,96.39736312779132 168.4350338797085,78.9137807933148" stroke="#4DD2FF" stroke-linecap="round" stroke-linejoin="round" stroke-width="0.5"><title>2025-02-25 10.0km</title><desc>1740436543000</desc></polyline><polyline fill="none" points="18.672810855903663,113.39999999999418 18.445318437647074,114.02511537415558 24.331684757373296,120.17200988784316 34.36978770827409,133.50718779291492 35.421940142288804,133.95862816509907 37.611554667004384,136.94506177440053 33.94323942437768,145.76527529151645 37.69686432380695,137.0145133449987 24.7297964891186,120.17200988784316 18.246262571774423,113.67782922514016 24.24637510057073,120.06782634402043 34.34135115600657,133.47246158061898 35.620996008161455,134.16698501785868 37.58311811462045,137.0145133449987 33.91480287199374,145.73055057873717 37.66842777142301,137.0492391239386 24.30324820498936,119.65109178659623 18.303135676309466,113.67782922514016 24.189501995919272,120.03309848764911 33.48825458798092,132.43067323873402 35.421940142288804,134.02808046643622 37.58311811462045,136.97978756178054 33.94323942437768,145.73055057873717 37.66842777142301,137.0492391239386 25.156344773131423,120.62347146880347 18.274699124041945,113.67782922514016 24.331684757373296,120.13728204413201 34.284478051471524,133.4377353641903 35.45037669443991,133.99335431784857 37.66842777142301,137.0492391239386 34.00011252879631,145.66110114048934 37.72530087607447,137.1881421970611 24.92885235499125,120.3803768605867 18.70124740805477,113.71255785910762 18.303135676309466,113.7820151145279 24.502304070978425,120.3803768605867 34.17073184228502,133.22937797618215 35.47881324670743,133.99335431784857 37.639991219271906,137.0145133449987 33.971675976528786,145.79999999998836 37.75373742822558,137.43122241157107 35.36506703775376,133.8891758469399" stroke="#4DD2FF" stroke-linecap="round" stroke-linejoin="round" stroke-width="0.5"><title>2025-02-22 12.0km</title><desc>1740177306000</desc></polyline><polyline fill="none" points="54.46753810031805,113.39999999996508 54.29655223665759,113.9220485855476 60.16706688934937,120.04734708013711 69.99875405046623,133.16757102598785 71.45213389163837,134.07239175130962 73.56095954356715,136.96083865553373 69.88476347469259,145.7304013770481 73.67495011934079,137.06523980174097 60.73701976821758,120.15175443392945 54.66702160786372,113.67842603145982 54.21105930476915,113.67842603145982 60.708522124332376,120.70859300662414 70.25523284589872,133.44597770945984 71.33814331586473,133.93318875005934 73.61795483145397,137.06523980174097 69.94175876257941,145.76520069068647 73.646452475572,136.99563904188108 60.2810574650066,119.5949147711799 54.638523963978514,113.57401630157256 54.239556948654354,113.71322926631547 60.08157395757735,119.94293968810234 70.16973991401028,133.3763760642032 71.36664095986634,133.96798950678203 73.61795483145397,137.03043942397926 69.97025640646461,145.79999999998836 73.646452475572,136.99563904188108 60.65152683632914,119.9777421564504 54.239556948654354,113.60881954917568 60.366550396895036,120.29096417923574 70.31222813378554,133.48077852581628 71.48063153552357,134.10719249100657 73.58945718745235,136.96083865553373 69.9132611185778,145.7304013770481 73.70344776334241,137.03043942397926 60.85101034399122,120.25616174930474 54.239556948654354,113.60881954917568 60.195564533234574,120.0821495357086 70.1982375580119,133.3415752350702 71.33814331586473,133.93318875005934 73.61795483145397,137.06523980174097 69.94175876257941,145.7304013770481 73.67495011934079,136.92603826499544 60.50903861655388,119.83853225776693 54.29655223665759,113.57401630157256 59.99608102568891,119.83853225776693 70.22673520201351,133.30677440186264 71.39513860363513,133.93318875005934 73.56095954356715,136.99563904188108 69.97025640646461,145.79999999998836 73.78894069523085,137.20444127038354 62.95983599592,123.00554059667047" stroke="#4DD2FF" stroke-linecap="round" stroke-linejoin="round" stroke-width="0.5"><title>2025-02-05 15.0km</title><desc>1738709514000</desc></polyline><polyline fill="none" points="90.48581584566273,113.39999999999418 90.4287592691835,114.06197237296146 96.2485300861299,120.19385383400368 106.17637442087289,133.3978548151208 107.4030908185523,133.99010436510434 109.59976901905611,137.05584705158253 105.97667640272994,145.79999999998836 109.74241046071984,137.12552263817634 96.7335109874839,120.15901397142443 90.71404215227813,113.64388473751023 90.20053296268452,113.6090440734697 96.39117152779363,120.26353354629828 106.09078955592122,133.2236635366571 107.37456253031269,133.95526619028533 109.59976901905611,137.0906848469749 105.97667640272994,145.7651632699417 109.71388217236381,137.05584705158253 96.56234125758056,119.91513481395668 90.22906125092413,113.64388473751023 96.41969981591683,120.29837339613005 106.0622612676816,133.15398699542857 107.34603424195666,133.92042801127536 109.59976901905611,136.98617144793388 105.91961982601788,145.73032653558766 109.74241046071984,137.61325126703014 109.62829730741214,136.9513336396776 96.8476241407916,120.22869369227556 90.68551386403851,113.6090440734697 90.22906125092413,113.7135660527274 96.22000179777388,120.08933423348935 106.23343099758495,133.43269305798458 107.46014739526436,134.02494253549958 109.62829730741214,137.0210092519119 105.94814811437391,145.7651632699417 109.68535388400778,136.98617144793388 96.5052846808685,119.8106151111715 90.68551386403851,113.6090440734697 90.22906125092413,113.74840670390404 96.30558666284196,120.19385383400368 106.09078955592122,133.18882526812376 107.37456253031269,133.95526619028533 109.5712407308165,136.9513336396776 105.94814811437391,145.73032653558766 109.7994670374319,137.36938705699868 106.80399676389061,133.43269305798458" stroke="#4DD2FF" stroke-linecap="round" stroke-linejoin="round" stroke-width="0.5"><title>2025-02-04 12.0km</title><desc>1738622138000</desc></polyline><polyline fill="none" points="123.12144096009433,113.39999999999418 123.12144096009433,114.5115305633226 132.31391066359356,124.12615641212324 148.5600081095472,145.79999999998836 149.1516026945319,145.74442736443598 148.9240663156379,145.02198248365312 132.8599979726132,123.95943053014344 123.25796278729104,113.7890360065212 122.8028900299687,114.23364817767288 132.4959397665225,124.29288223281037 148.60551538551226,145.79999999998836 148.96957359160297,145.13312792472425 132.76898342114873,123.79270458704559 123.43999189068563,113.9001890902291 122.93941185739823,114.23364817767288 132.4504324910231,124.23730696606799 148.5600081095472,145.6888547220733 149.1516026945319,145.74442736443598 148.9240663156379,144.96640975298942 133.54260710906237,124.73748412207351 123.48549916618504,113.95576562173665 122.84839730570093,114.23364817767288 133.26956345443614,125.29323587191175 148.46899355808273,145.57770941709168 149.24261724599637,145.46656408481067 148.51450083381496,144.41068207187345 132.76898342114873,123.95943053014344 123.34897733922116,113.7890360065212 122.89390458143316,114.17807168001309 133.2240561787039,125.12651041831123 148.51450083381496,145.74442736443598 149.0150808673352,145.13312792472425 133.04202707577497,124.12615641212324 123.34897733922116,113.84461255176575 122.75738275400363,114.23364817767288 132.76898342114873,124.6819089097844 148.46899355808273,145.6888547220733 148.7875444884412,144.85526427111472 134.86231810622849,126.4603123330744 123.34897733922116,113.7890360065212 122.84839730570093,114.23364817767288 132.17738883639686,123.95943053014344 148.46899355808273,145.63328207298764 149.0150808673352,145.1887006351899 143.235656845849,137.29730770734022 128.8553577058483,119.68011195128202" stroke="#4DD2FF" stroke-linecap="round" stroke-linejoin="round" stroke-width="0.5"><title>2025-01-23 11.4km</title><desc>1737585341000</desc></polyline><polyline fill="none" points="162.3196584340185,113.39999999996508 162.43438840820454,114.03052146869595 168.40034706215374,120.26560345015605 178.29580732958857,133.47091862710658 179.47178956412245,134.10139589520986 181.65165907226037,137.04360478991293 178.1523948617978,145.72994990079314 181.82375403353944,137.218735318369 169.08872690680437,120.47577238717349 162.6064833694836,113.54011600182275 162.17624596646056,113.61017397721298 168.22825210099109,120.09046255151043 178.20975984900724,133.3658389475022 179.52915455121547,134.10139589520986 181.7090240593534,137.14868311982718 178.00898239423987,145.79999999998836 181.82375403353944,137.18370922128088 168.8879494521534,120.23057527895435 162.26229344704188,113.5751449916279 168.37166456854902,120.23057527895435 178.32448982296046,133.5059451785055 179.44310707075056,133.99631644692272 181.73770655295812,137.14868311982718 178.06634738121647,145.72994990079314 181.82375403353944,137.218735318369 168.77321947796736,120.12549073985429 162.20492845994886,113.54011600182275 169.00267942610662,120.96616597342654 178.35317231656518,133.5059451785055 179.50047205772717,134.03134293406038 181.65165907226037,137.04360478991293 178.06634738121647,145.6598997846013 181.79507153993472,137.14868311982718 168.48639454273507,119.77520866392297 162.5778008758789,113.50508700782666 162.20492845994886,113.5751449916279 168.17088711389806,119.95034975543967 178.09502987470478,133.19070606242167 179.50047205772717,134.06636941674515 181.65165907226037,137.11365701418254 178.06634738121647,145.62487471997156 181.82375403353944,137.28878749976866 168.77321947796736,120.12549073985429 162.66384835646022,113.64520295834518 162.23361095343716,113.82034780012327 168.42902955552563,120.30063161707949 178.4105373035418,133.61102480671252 178.72604473226238,133.26075922930613 171.44069137610495,123.5932601680106" stroke="#4DD2FF" stroke-linecap="round" stroke-linejoin="round" stroke-width="0.5"><title>2025-01-18 14.0km</title><desc>1737153490000</desc></polyline><polyline fill="none" points="29.892022917571012,168.7453388299764 25.85094755399041,171.891870770698 24.987042750115506,173.1208109214349 24.094579109718325,174.131838005982 23.009343323035864,175.02083273929748 21.759894226503093,175.7877996843963 20.953107095643645,177.08639536820556 19.60370207138476,178.42854324432847 17.797355663293274,179.7270908550563 11.799999999988358,184.65961333810992 16.076685764681315,181.26963011822227 17.80449537243112,179.75323586619197 19.4466284707014,178.6028463105613 21.010224768600892,177.07768003974343 21.802732481242856,175.77908419726737 23.07360070516006,175.00340157651226 23.994623182050418,174.26257322050515 24.97990304097766,173.18182158285344 25.87236668134574,171.90058673285967 31.14147201407468,167.7691012564028 31.83402379899053,167.38557569602563 31.784045835171128,167.1676625268883 32.52657558393548,166.8800161239633 35.83226090788958,164.16910969375022 36.40343763772398,163.43688577719877 38.038431026856415,162.28623300162144 38.723843102692626,161.21401711080398 40.20890260025044,160.29869810484524 40.88003525781096,159.36593236211047 42.422212428355124,158.37213113397593 42.70780079328688,157.50036426472798 43.8358748347091,156.73320060153492 44.19999999998254,156.1403866618857 43.75733803433832,156.7419184168175 42.72921992064221,157.4393401846537 42.40793301013764,158.33726066384406 40.90145438516629,159.32234487939422 40.23032172763487,160.24639380673034 38.64530630232184,161.248886173933 38.05271044513211,162.25136444581585 36.41057734680362,163.40201778410847 35.817981489613885,164.16039278660173 33.89026002641185,165.72941890915536" stroke="#4DD2FF" stroke-linecap="round" stroke-linejoin="round" stroke-width="0.5"><title>2025-01-16 10.5km</title><desc>1736984045000</desc></polyline><polyline fill="none" points="51.009557493031025,154.20000000001164 51.23866582638584,155.31920925705344 60.63210749812424,165.0002550224599 76.66969083994627,186.3761736760207 77.26537250680849,186.5440434292832 77.1279075066559,185.81660738695064 62.190044165588915,166.23135598233785 51.46777415997349,154.5357630647486 50.917914159595966,154.20000000001164 50.78044915944338,154.87152588297613 60.54046416468918,164.94429580916767 76.66969083994627,186.5440434292832 77.17372917337343,185.98447734548245 62.05257916543633,166.06347877392545 51.23866582638584,154.31192104882211 50.78044915944338,154.8155654303264 60.63210749812424,165.0002550224599 76.62386917299591,186.5440434292832 77.03626417322084,185.7606507204182 62.3275091657415,166.45519216472167 51.3303091598209,154.4238420703914 50.73462749272585,154.8155654303264 60.494642497971654,164.94429580916767 76.62386917299591,186.48808685175027 77.21955084032379,186.5440434292832 77.0820858401712,185.87256404661457 63.15229916595854,167.40649471673532 51.28448749287054,154.31192104882211 50.78044915944338,154.8155654303264 60.448820831254125,164.88833658897784 76.62386917299591,186.60000000000582 77.26537250680849,186.60000000000582 77.1279075066559,185.87256404661457 61.09032416483387,164.77641812819638 51.37613082653843,154.5357630647486 50.68880582624115,154.75960497080814 60.58628583140671,165.11217342835153 76.53222583979368,186.5440434292832 77.31119417352602,186.43213026737794 76.85297750658356,185.48086728478665 61.22778916498646,164.94429580916767 51.46777415997349,154.5357630647486 50.78044915944338,154.36788156311377 50.82627082616091,154.98344676746638 60.448820831254125,164.88833658897784 65.44338250067085,171.77126929577207 66.22235083440319,171.49147730288678 63.381407499313354,167.91012467854307" stroke="#4DD2FF" stroke-linecap="round" stroke-linejoin="round" stroke-width="0.5"><title>2025-01-14 10.6km</title><desc>1736807801000</desc></polyline><polyline fill="none" points="94.66230496918433,173.59929144874332 92.23241117084399,175.4921955206446 91.22137144356384,176.78865643734025 90.50344827587833,177.38501515922326 89.8067654385668,177.79986845803796 89.39045496264589,178.5102953138121 88.43888816048275,179.45405566437694 87.43634456535801,180.15926947961634 86.18316507145937,181.2481795625281 83.80000000000291,183.12000256602187 85.94952143701084,181.455587839715 87.46183296185336,180.15408412668694 88.36242297102581,179.53183717478896 89.3649665661651,178.56215082298513 89.84924609940208,177.7843115325195 90.61389799397148,177.31760111514086 91.25960403827776,176.77309914112266 92.28338796382013,175.47145182402528 95.75405795201368,172.8058024322563 95.77529828243132,172.68651848660738 95.97070932213683,172.68651848660738 96.27657007997914,172.4635084712827 98.17545561819861,170.90240554182674 98.50680477253627,170.4719251950919 99.50085223549104,169.7717369874881 99.87043398452806,169.15971116291257 100.80500852236582,168.57361035943904 101.19158253572823,168.02899615993738 102.09642061099294,167.44287973359678 102.26209518816904,166.93974678391896 102.98851448802452,166.41067270877465 103.65121279665618,165.3888148818951 108.31134128753911,162.1104042878069 109.95959092698467,161.31670032727925 110.49909531929006,160.74605431320379 116.20000000001164,157.67999743398104 112.35550019667426,159.67218144549406 110.50334338535322,160.72011567556183 109.98507932346547,161.2803867188086 108.27310869279609,162.11559184650469 103.66395699490386,165.34731759718852 102.96302609152917,166.41067270877465 102.25784712207678,166.91381193403868 102.07093221451214,167.44287973359678 101.18733446965052,168.0082488140688 100.75403172938968,168.58398389536524 99.85768978628039,169.14415106922024 99.49235610332107,169.75099049394703 98.48556444211863,170.46155212078884 98.16271141995094,170.89203257276313 96.18311262621137,172.51018508309426 96.00044578472443,172.62428325141082 95.89424413269444,172.54130279579476 95.8730038022768,172.66058714970495 95.7073292251298,172.82136118304697 92.27913989772787,175.44552218900935 91.17889078275766,176.8249567729763 90.57566539925756,177.32278681463504 89.80251737248909,177.7946828168242 89.16105939427507,178.75920118006616 88.39640749969112,179.4747974144302 87.7294611249672,179.9362987312088 88.37941523535119,179.52665174519643 89.2375245837029,178.70734591163637 89.81950963681447,177.79986845803796 90.65213058869995,177.29167260811664 91.48050347450771,176.52418162612958" stroke="yellow" stroke-linecap="round" stroke-linejoin="round" stroke-width="0.5"><title>2025-01-01 21.1km</title><desc>1735687361000</desc></polyline><polyline fill="none" points="149.57256304990733,154.1999999999971 150.87552910274826,155.4048351743986 150.1783279692172,157.4222049045493 149.972596487205,157.660364237061 149.45826778217452,157.4081955164511 149.21824771980755,157.63234551800997 148.95536860387074,158.89318101043318 149.73257642483804,160.71436305135285 150.40691850479925,161.34476539610478 151.13840821862686,162.63357704738155 150.15546891570557,164.9029706102301 150.07546222826932,166.12170023810177 150.21261654957198,167.11628596370429 150.81838146882365,168.1668952026157 150.68122714746278,169.77781044250878 151.33271017385414,171.26263376431598 151.37842828105204,171.9490077782175 150.86409957596334,173.47582485280873 150.25833465671167,174.06413419639284 148.5667646934162,174.73648399064405 146.62374514102703,174.8905635898409 145.5265105701983,175.43684411628783 145.1721952400403,175.81503678372246 145.14933618652867,176.68347442683444 146.52087940002093,178.85453940902516 146.74946993560297,179.55487407621695 146.80661756946938,180.40927650749654 146.41801365895662,181.12360802080366 145.34363814175595,181.86594776227867 143.8235110801761,182.13206837197504 142.74913556291722,182.63629518138623 139.5831566452398,183.14051974678296 136.31431198643986,186.59999999999854 130.01664273126516,181.9359795622804 130.71384386479622,180.75943957679556 138.16589532460785,171.136564615721 130.47382380237104,165.28119844986213 130.05093131167814,165.56136640563636 120.96445752232103,177.15971159824403 120.62157171900617,176.99162811932183 129.90234746347414,165.01503824997053 129.62803882081062,164.5387500153738 125.93630167120136,161.59692535151407 126.0048788319109,161.28872977420542 126.35919416206889,161.24670303961466 126.75922759930836,161.4848543295011 134.75989634450525,167.83070130644046 135.4113793708966,167.69062022181606 136.18858719186392,166.69603953952173" stroke="#4DD2FF" stroke-linecap="round" stroke-linejoin="round" stroke-width="0.5"><title>2024-12-28 10.1km</title><desc>1735347410000</desc></polyline><polyline fill="none" points="173.29613679545582,169.52476257855596 169.3564281190629,172.5892084497682 168.5219759341271,173.78321963016788 167.70120329322526,174.71002511359984 166.63419886000338,175.57837199752248 165.48511716275243,176.271371689254 164.76694110195967,177.46531852840417 163.3169094363402,178.8930177811344 161.69588347052922,180.04517437713366 160.12957568079582,181.4227274193181 155.79999999998836,184.8372694905338 159.5550348321558,181.91530025249085 161.81215959467227,179.96168542153464 163.18011399620445,179.03495116450358 164.732742241933,177.53211214100884 165.4714376187476,176.29641973928665 166.59999999997672,175.60342030159518 167.73540215325193,174.68497648202174 168.6040531982144,173.72477201612492 169.36326789105078,172.60590805074025 175.0471184293856,168.23882336903625 175.0471184293856,168.03841507834295 175.3001899936644,168.0634661468357 175.7789740341832,167.76285271867528 178.93210892970092,165.16583163596806 179.55452818240155,164.3975621021964 181.0866371120792,163.33700191798562 181.68169727677014,162.35158478392987 183.19328689042595,161.39955811837717 183.82938568713143,160.51432843572547 185.26573780871695,159.58733033778844 185.5598480050976,158.73548315449443 186.68157061430975,157.9504381072402 187.59126029131585,156.43878339617368 188.19999999998254,155.9627305094691 187.7554148195195,156.24669227985578 186.73628879035823,157.83351573236723 185.51196960100788,158.7438346490526 185.26573780871695,159.5539247660272 183.77466751108295,160.53103098876454 183.18644711840898,161.36615343300218 181.62013932867558,162.3766379380104 181.0866371120792,163.31194911611965 179.47245091831428,164.44766690039978 178.9115896136791,165.15748092663125 175.7242558581347,167.77120310953615 174.73248891704134,168.40582982885098" stroke="#4DD2FF" stroke-linecap="round" stroke-linejoin="round" stroke-width="0.5"><title>2024-12-24 11.5km</title><desc>1734996352000</desc></polyline><polyline fill="none" points="33.820255863509374,205.8563401301726 28.967164179077372,209.64094758823194 27.015565031964798,212.1709546764978 25.78070362471044,213.23564380966855 24.03635394453886,214.3319436415186 23.095095948781818,215.88149752659956 21.160767590627074,217.77887254353845 19.3559701492195,219.00160322288139 16.497654584178235,221.47863381800562 11.825906183366897,225.1360766396101 16.229957356059458,221.7210627792374 19.209168443485396,219.15971368340252 21.22985074625467,217.74724996853183 23.12963752663927,215.88149752659956 24.13997867802391,214.25815466704807 25.478464818705106,213.4991786950486 26.894669509580126,212.33961917749548 29.06215351811261,209.58823831817426 34.98603411510703,204.93915399362595 36.19498933898285,204.16955350311036 36.160447761183605,203.93761776208703 36.54904051168705,203.9059901126966 37.049893390154466,203.56862779776566 41.00490405113669,200.33199102782237 41.72164179102401,199.40420303936844 43.80277185497107,197.9386994045417 44.19999999998254,197.25338340337476 43.69914712148602,197.99141579444404 41.73891257995274,199.3514875130786 41.03081023451523,200.26873307293135 37.10170575688244,203.52645741560264 36.59221748399432,203.8743624517374 36.46268656713073,203.75839426229504 36.289978677988984,204.06412824358267 35.02921108735609,204.86535698395892 29.11396588484058,209.50390341908496 26.842857142852154,212.33961917749548 25.564818763319636,213.3832234446745 24.001812366681406,214.3530261940832 23.103731343289837,215.86041534756077 21.972494669491425,217.00938659423264 21.022601279313676,217.86319935362553 19.27825159911299,219.06484744184127 15.720469083142234,222.10051543811278 11.799999999988358,225.1466165966267 15.798187633277848,222.04781377973268 19.330063965870067,219.05430674190575 21.48891257989453,217.50480984162277 23.0778251599113,215.913120785488 24.07089552236721,214.3319436415186 25.4698294242844,213.4886373151021 26.721961620467482,212.49774184766284 27.965458422142547,211.1273357437385 28.898081023449777,209.74636603175168 31.410980810178444,207.78556189509982" stroke="#4DD2FF" stroke-linecap="round" stroke-linejoin="round" stroke-width="0.5"><title>2024-12-21 15.0km</title><desc>1734737288000</desc></polyline><polyline fill="none" points="67.06445936555974,208.30274496116908 62.7209539244941,211.64545717765577 61.895762908039615,212.83597620281944 60.81551285015303,214.06310678789305 59.870294049498625,214.84150010182202 58.48997453111224,215.67482986530376 57.6047696225578,217.08505912586406 56.11942579297465,218.54104720991018 54.28900208376581,219.85049661236553 51.655892567679984,222.10306233956362 47.79999999998836,225.14300307357917 52.293540171318455,221.5902891005826 54.22148645517882,219.90543804527988 56.389488307439024,218.30296304251533 57.6047696225578,217.08505912586406 58.444964112044545,215.71145953239466 59.67524890016648,214.96970528393285 60.7855059041176,214.0814220175671 61.81324380642036,212.94586931317463 62.750960870529525,211.6179834384311 68.21972678857855,207.33195675921888 69.78758971981006,206.3062046156192 73.20087983328267,203.5127905307163 73.8310257003759,202.7068025161061 75.57142857139115,201.48864508352563 76.17906922893599,200.4536536558444 77.82194952532882,199.4094885222803 78.60963185920264,198.37446836852178 80.07247047923738,197.44019010852207 80.19999999998254,197.2569969264223 78.54211623055744,198.392787433615 77.87446168088354,199.34537264507526 76.14156054635532,200.44449437585718 75.50391294277506,201.50696338707348 73.77101180824684,202.71596151953418 73.163371150702,203.5036316246842 69.42750636715209,206.5534854348516 69.32248205598444,206.77328992234106 68.90238481128472,206.8740334302929" stroke="#4DD2FF" stroke-linecap="round" stroke-linejoin="round" stroke-width="0.5"><title>2024-12-17 10.2km</title><desc>1734391788000</desc></polyline><polyline fill="none" points="99.5436188315507,211.59800264291698 96.0150879183202,214.32018439403691 94.60000000000582,216.13739766521758 93.66885989790899,216.9375526525946 92.51106069199159,217.65543981232986 91.73306863303878,218.88928869371375 90.41599546227371,220.13059034660182 89.09892229156685,221.04285623458782 87.43879750426277,222.4860031908138 83.79999999998836,225.3273329893782 90.95507657399867,219.65949690036723 91.83720930234995,218.76964383068116 92.52331253545708,217.64796186448075 93.6566080544435,216.94503068723498 94.40397050484899,216.33930691995192 95.14520703346352,215.53914411041478 96.10697674416588,214.2454007988199 100.29098128189798,210.96231089071807 101.8469653998909,209.92275367653565 104.56074872377212,207.68652397844926 105.0753261486243,207.03583309576788 106.48428814520594,206.04108538069704 106.98048780491808,205.18843160801407 108.34656834942871,204.32828637502098 108.95303460012656,203.50552744361266 110.19659671012778,202.7126765488174 110.47838910945575,201.94225498579908 111.47078842882183,201.23914334288565 112.38355076574953,199.79549516785846 116.20000000001164,197.07266701061963 112.45706182645517,199.6907732493528 111.47691435055458,201.18678364188236 110.46613726601936,201.91233550606194 110.20272263188963,202.6677978889893 108.91015314805554,203.51300712011653 108.30981281906134,204.32080679822684 106.99886557005811,205.143554764476 106.49041406693868,206.0111679056572 105.01406693135505,207.06575006974163 104.60975609754678,207.60425309961283 104.0400453772163,208.07543936257935" stroke="#4DD2FF" stroke-linecap="round" stroke-linejoin="round" stroke-width="0.5"><title>2024-12-14 12.1km</title><desc>1734132056000</desc></polyline><polyline fill="none" points="141.87206823023735,205.78782230566867 136.94989339014865,209.6462236308289 135.98272921104217,211.04827753523568 134.92057569295866,212.25001988784788 133.65117270784685,213.3147074598528 132.12270788906608,214.23180404236336 131.02601279315422,215.950016223891 129.22121535177575,217.6892759123366 127.30415778249153,219.02795494519523 125.05895522388164,220.99904295898887 119.79999999998836,225.17296306451317 125.83614072494674,220.3560726730866 127.23507462683483,219.0806584191887 129.61844349675812,217.34142677960335 131.1555437100178,215.79189996811328 132.03635394453886,214.31613427313277 133.53027718546218,213.39903858709295 134.78240938164527,212.38705961906817 135.97409381662146,211.06936087865324 137.10533049039077,209.49863768364594 143.19328358207713,204.73358427178027 145.2053304903675,203.39468339417363 148.90991471213056,200.33727275950514 150.02388059697114,201.92924837358441 149.02217484006542,200.2740148433004 149.7130063965742,199.37785604556848 151.77686567162164,197.91235276908264 152.19999999998254,197.2270369354883 151.70778251596494,197.93343932372227 149.73027718547382,199.32514053217892 149.0739872068225,200.1791278819801 144.62675906182267,203.85855691741017 142.8910447761009,204.9233480688199 137.04488272918388,209.5091795453991 135.95682302769274,211.02719418663037 134.76513859271654,212.3448935710985 133.52164179101237,213.35687303378654 131.9845415778109,214.30559299879678 131.02601279315422,215.87622867391474 129.59253731340868,217.30980406163872 127.39914712152677,218.92254790068546 124.26449893391691,221.59984692871512 119.81727078891709,225.09918340134027 124.4026652451721,221.526064210404 127.16599147120724,219.1439025454747 129.3248400852608,217.6154898498644 131.19008528781706,215.77081777874992 132.09680170574575,214.2739691680399 133.43528784645605,213.4728282558208 134.90330490402994,212.27110293759324 137.1312366737402,209.48809582063404 143.13283582087024,204.786296479484 144.98944562897668,203.5633649640149 149.0135394455865,200.2634718527479 149.73891257995274,199.346226741407 151.64733475475805,198.00724222449207" stroke="#4DD2FF" stroke-linecap="round" stroke-linejoin="round" stroke-width="0.5"><title>2024-12-07 17.1km</title><desc>1733527336000</desc></polyline><polyline fill="none" points="158.08554854028625,227.39169429026515 158.34397921257187,227.2588027964739 158.2079630692606,227.40000000000146 158.31677598389797,227.16743974360725 157.74550818200805,225.78867328682827 157.8135162536928,225.66408457663056 165.98128565892694,222.71541834496747 166.92659785487922,222.18381418311037 167.65428422152763,221.3864001325419 180.95666303639882,205.78510270813422 181.41231711642467,204.97918744933122 183.63618105940986,199.2378026882434 184.27545693295542,197.90001514944743 185.69682563043898,195.63153248653543 185.96205710989307,195.39886330733862 186.25449181799195,195.4570306769674 185.86004500239505,195.00000000000728 185.73763047342072,195.00830967615184 184.8807287706295,196.16334475556505 184.11903836816782,197.44300093658967 183.22133182236576,199.2211843713594 181.14028482986032,204.73824185289413 180.68463074980536,205.5773935057805 175.48201326851267,211.75854721703217 169.10965695485356,219.10208926850464 168.87162870407337,219.6171042497299 167.39585354930023,221.31164208492555 166.70217121840687,222.0093806601726 166.20571229537018,222.33332827450067 157.8883251325169,225.34015285984788" stroke="#4DD2FF" stroke-linecap="round" stroke-linejoin="round" stroke-width="0.5"><title>2024-11-30 11.9km</title><desc>1732919585000</desc></polyline><polyline fill="none" points="14.665418485179543,236.30714799443376 24.354906782973558,246.39364209634368 40.64247520780191,268.1436541523144 41.24230067408644,267.9182706930151 39.95036890078336,265.94616071874043 24.354906782973558,245.54841364055756 15.17296311026439,235.80000000001746 14.665418485179543,236.30714799443376 24.44718762417324,246.56268760137027 40.64247520780191,268.20000000001164 41.33458151482046,268.03096243637265 41.057738991919905,267.35481156178867 25.139293930958956,246.44999060494592 15.17296311026439,235.85634980464238 14.757699326146394,236.4198474730947 24.44718762417324,246.44999060494592 40.68861562828533,268.1436541523144 41.19616025337018,267.6365412136074 25.69297897676006,247.069823743921 15.311384371714666,236.02539917759714 14.711558905662969,236.36349773721304 24.53946846514009,246.56268760137027 40.68861562828533,268.20000000001164 41.38072193530388,268.03096243637265 40.68861562828533,266.8476977546816 24.72403014684096,245.94285377961933 15.17296311026439,235.85634980464238 14.665418485179543,236.30714799443376 24.170345101272687,246.28094505850459 40.68861562828533,268.20000000001164 41.150019832886755,267.52384937371244 25.09315351047553,246.44999060494592 15.126822689780965,235.85634980464238 14.711558905662969,236.36349773721304 24.44718762417324,246.56268760137027 40.59633478731848,268.1436541523144 41.19616025337018,267.7492330259993 25.277715192409232,246.61903608922148 15.17296311026439,235.9126996025734 14.619278064696118,236.2507982449024 24.493328044423833,246.67538457014598 40.50405394635163,267.9746165681572 41.28844109433703,267.7492330259993 35.52088853600435,260.2551674506394" stroke="#4DD2FF" stroke-linecap="round" stroke-linejoin="round" stroke-width="0.5"><title>2024-11-26 10.9km</title><desc>1732619882000</desc></polyline><polyline fill="none" points="50.7346250587143,236.0793201699853 59.928902173181996,245.7995556363021 76.6249775304459,268.0882798121893 76.89943356369622,267.08279689209303 62.993661211337894,248.64855095368694 51.14630910847336,235.79999999998836 51.19205178064294,236.97314356509014 60.43207156751305,246.46990907509462 76.6249775304459,267.97655959712574 76.9451762358658,267.1945173260465 61.5756383726839,246.9168108207523 52.56433194712736,237.19659914067597 51.19205178064294,235.96759212235338 50.963338419795036,236.5820960450219 60.43207156751305,246.35818357032258 76.6249775304459,267.97655959712574 77.21963226911612,267.9206994793494 76.9451762358658,267.250377532735 61.438410356175154,246.80508542529424 51.329279797384515,235.79999999998836 51.14630910847336,236.97314356509014 60.52355691185221,246.58163455245085 76.6249775304459,268.0882798121893 76.99091890803538,267.250377532735 61.80435173376463,247.1402615295665 51.283537124982104,235.79999999998836 50.871853075223044,236.35864016893902 60.38632889534347,246.4140463260701 76.53349218587391,267.9206994793494 77.12814692477696,267.3620979254192 61.20969699509442,246.46990907509462 51.329279797384515,235.91172808845295 50.78036773088388,236.41450414829887 60.52355691185221,246.58163455245085 76.85369089152664,268.20000000001164 76.6249775304459,266.7476354269893 61.39266768400557,246.74922271742253 51.329279797384515,235.8558640475385 51.283537124982104,236.97314356509014 60.294843550771475,246.30232080764836 76.48774951370433,267.9206994793494 76.9451762358658,267.1945173260465 61.66712371725589,246.9726735081058 51.283537124982104,235.91172808845295 50.917595747392625,236.30277618273976 60.52355691185221,246.58163455245085 76.48774951370433,267.8089792232495 77.2653749412857,267.75311908480944 76.9451762358658,267.13865711260587 60.34058622317389,245.4643785477965 51.329279797384515,235.96759212235338 51.23779445281252,236.80555181196542 60.47781423991546,246.46990907509462 76.57923485804349,267.97655959712574 77.17388959717937,267.8089792232495 76.89943356369622,267.13865711260587 61.438410356175154,246.74922271742253 51.329279797384515,236.0793201699853" stroke="#4DD2FF" stroke-linecap="round" stroke-linejoin="round" stroke-width="0.5"><title>2024-11-16 14.9km</title><desc>1731755814000</desc></polyline><polyline fill="none" points="86.61967789498158,236.30539017761475 96.55146337510087,246.6938427546993 112.73659526836127,268.14384946553037 113.05845868657343,267.30159062327584 96.68940483988263,245.85154454910662 87.49330717348494,236.13692684698617 86.84958033682778,235.91230897631613 86.89556082501076,236.58616225799778 96.41352191008627,246.4692300510942 112.64463429152966,268.14384946553037 113.19640015158802,267.5823437424842 110.20766840991564,263.4271800429851 97.33313167677261,246.6938427546993 87.44732668506913,236.08077238954138 86.80359984841198,236.47385344657232 96.78136581694707,246.91845534849563 112.46071233833209,267.9753978206427 113.24238064000383,267.63849434576696 97.19519021175802,246.52538323725457 87.35536570870318,235.91230897631613 86.84958033682778,236.3615446073818 96.78136581694707,246.8623022104439 112.64463429152966,268.031548375875 113.15041966340505,267.30159062327584 97.79293655999936,247.19922093607602 87.30938522005454,235.96846345430822 86.84958033682778,236.53000785576296 96.50548288691789,246.52538323725457 112.64463429152966,268.20000000001164 113.38032210501842,267.7507955316396 97.79293655999936,247.19922093607602 89.51644866005518,238.21463693710393 87.12546326662414,235.96846345430822 86.89556082501076,236.41769903039676 96.55146337510087,246.58153641669196 112.55267331493087,268.031548375875 113.28836112841964,267.7507955316396 99.03440974513069,248.8838108551281 87.17144375503995,235.85615449163015 86.84958033682778,236.47385344657232 96.50548288691789,246.58153641669196 112.78257575654425,268.20000000001164 113.33434161660261,267.69464494203567 97.01126825832762,246.24461723744753 87.12546326662414,235.80000000001746 87.12546326662414,236.64231665345142 96.45950239826925,246.52538323725457 112.59865380334668,268.14384946553037 113.28836112841964,268.031548375875 112.96649770997465,267.30159062327584 96.96528776991181,246.30077045108192 86.89556082501076,236.3615446073818 96.82734630489722,247.08691472164355 112.64463429152966,268.14384946553037 113.05845868657343,267.41389189168694 105.83952201833017,257.9804895738489" stroke="#4DD2FF" stroke-linecap="round" stroke-linejoin="round" stroke-width="0.5"><title>2024-11-10 14.3km</title><desc>1731237417000</desc></polyline><polyline fill="none" points="122.7346323619131,236.35960497098858 133.64018503180705,248.05519216498942 148.5322212399915,267.9761736759974 149.21954598813318,267.9202170779463 148.34893464064226,266.52129990031244 134.23586647980846,247.77539692015853 123.42195711005479,236.13576306478353 122.87209731154144,236.47152588301105 132.44882213510573,246.54429580946453 148.66968618961982,268.20000000001164 149.3111892878078,267.9761736759974 148.34893464064226,266.5772566696396 132.8612169837579,246.09662185661728 123.330313810613,236.13576306478353 122.68881071219221,236.30364450480556 132.35717883519828,246.4883365892165 148.62386453989893,268.20000000001164 149.3111892878078,267.69639061702765 133.0903252332937,246.43237736233277 123.330313810613,236.07980257101008 122.68881071219221,236.35960497098858 132.08224893617444,246.20854038593825 148.76132948952727,268.088086851727 149.12790268845856,267.41660738689825 133.18196853273548,246.4883365892165 123.19284886075184,235.85596052798792 122.96374061144888,236.52748632870498 132.5404654345475,246.4883365892165 148.71550783957355,268.03213026718004 149.2653676380869,267.69639061702765 148.66968618961982,266.74512693626457 133.68600668152794,247.0479284825269 123.330313810613,235.91192104911897 122.78045401186682,236.13576306478353 134.60243967873976,249.11841253421153 148.62386453989893,267.9761736759974 149.17372433841228,267.7523472424364 148.1198263913393,266.07364549997146 133.86929328111,247.32772417229717 123.28449216042645,235.80000000001746 122.82627566182055,236.52748632870498 133.31943348236382,247.495601504168 148.5322212399915,267.9761736759974 149.2653676380869,267.86426047288114 148.5780428899452,266.74512693626457 134.23586647980846,247.6075196910242 123.37613546010107,236.07980257101008 122.87209731154144,236.30364450480556 132.7237520343624,246.76813262153883 148.66968618961982,267.86426047288114 148.99043773883022,267.1927806795575 135.42722937674262,249.34224808670115" stroke="#4DD2FF" stroke-linecap="round" stroke-linejoin="round" stroke-width="0.5"><title>2024-10-26 12.9km</title><desc>1729940418000</desc></polyline><polyline fill="none" points="162.10477451386396,236.0462678404001 168.2694855883019,242.44915765646147 177.66058750532102,254.9027218062838 179.53304647642653,256.3802275250782 181.77999724203255,259.475929177308 178.1791146050673,268.1648228265112 181.86641842511017,259.5111074137385 168.38471383275464,242.06217385880882 162.27761688048486,235.87036226163036 168.35590677161235,242.55469860180165 178.46718521602452,255.95808380865492 179.56185353756882,256.45058475088445 181.77999724203255,259.6166420969821 178.150307543925,268.20000000001164 181.89522548625246,259.65182031618315 168.64397738256957,242.2380756495404 162.2200027584331,235.97590562188998 168.2982926494442,242.55469860180165 178.35195697145537,255.8525477827352 179.4754323543748,256.3450489057577 181.72238311963156,259.4407509366865 178.12150048278272,268.12964564861613 181.808804302942,259.475929177308 169.01846917672083,242.73060009122128 162.27761688048486,235.79999999998836 168.55755619925912,242.8713212053699 177.8334298718255,255.2193308135902 179.5906605985947,256.41540614012047 181.72238311963156,259.4055726916704 178.150307543925,268.12964564861613 181.86641842511017,259.6166420969821 168.2982926494442,241.95663273264654 162.65210867475253,235.9407245060429 162.2200027584331,235.87036226163036 162.42165218596347,236.3277165426116 167.6357302442193,241.8159111709101 167.6357302442193,241.1474828120554 164.66860295145307,238.15712639156845" stroke="#4DD2FF" stroke-linecap="round" stroke-linejoin="round" stroke-width="0.5"><title>2024-10-19 10.6km</title><desc>1729335763000</desc></polyline></svg>