<?xml version="1.0" encoding="utf-8" ?>
<svg baseProfile="full" height="300mm" version="1.1" viewBox="0,0,200,300" width="200mm" xmlns="http://www.w3.org/2000/svg" xmlns:ev="http://www.w3.org/2001/xml-events" xmlns:xlink="http://www.w3.org/1999/xlink"><defs /><rect fill="#222222" height="300" width="200" x="0" y="0" /><text fill="#FFFFFF" style="font-size:12px; font-family:Arial; font-weight:bold;" x="10" y="20">Over 10km Runs</text><text fill="#FFFFFF" style="font-size:4px; font-family:Arial" x="10" y="280">Runner</text><text fill="#FFFFFF" style="font-size:9px; font-family:Arial" x="10" y="290">unsung</text><text fill="#FFFFFF" style="font-size:4px; font-family:Arial" x="65" y="280">SPECIAL TRACKS</text><rect fill="yellow" height="2.6" width="2.6" x="65" y="283" /><text fill="#FFFFFF" style="font-size:3px; font-family:Arial" x="70" y="285.5">Over 20.0 km</text><rect fill="red" height="2.6" width="2.6" x="65" y="287" /><text fill="#FFFFFF" style="font-size:3px; font-family:Arial" x="70" y="289.5">Over 40.0 km</text><text fill="#FFFFFF" style="font-size:4px; font-family:Arial" x="120" y="280">STATISTICS</text><text fill="#FFFFFF" style="font-size:3px; font-family:Arial" x="120" y="285">Number: 34</text><text fill="#FFFFFF" style="font-size:3px; font-family:Arial" x="120" y="290">Weekly: 1.7</text><text fill="#FFFFFF" style="font-size:3px; font-family:Arial" x="141" y="285">Total: 411.2 km</text><text fill="#FFFFFF" style="font-size:3px; font-family:Arial" x="141" y="290">Avg: 12.1 km</text><text fill="#FFFFFF" style="font-size:3px; font-family:Arial" x="167" y="285">Min: 10.0 km</text><text fill="#FFFFFF" style="font-size:3px; font-family:Arial" x="167" y="290">Max: 21.1 km</text><polyline fill="none" points="20.19244438991882,32.54831948247738 24.51029193215072,37.20270790666109 32.22073397191707,47.45277664922469 33.01380801014602,47.74870329648547 34.77619476208929,50.25061267163255 32.000435627880506,56.65321887010941 32.06652513099834,57.54096047775238 28.93828864628449,61.495402288943296 27.418230072711594,62.54452797854901 29.04843781841919,61.41470010555349 32.088554965448566,57.62166408255871 32.000435627880506,56.733922800660366 34.820254430989735,50.196808468477684 24.972918454441242,37.337226338437176 19.950116211432032,31.956424876101664 19.795907370746136,32.144755150948185 24.53232176648453,37.25651528919116 32.28682347503491,47.506581523804925 33.1019273478305,47.31826440522855 32.485091984737664,47.29136194648163 24.46623226336669,36.71844087072532 20.038235549116507,32.03713787079323 19.70778803306166,32.35998955332616 20.456802402622998,32.7635534897272 24.46623226336669,37.095093101932434 32.28682347503491,47.47967908812279 33.05786767904647,47.29136194648163 32.661330659873784,47.47967908812279 24.55435160093475,36.8529595987784 20.170414555585012,32.198563771293266 19.46545985469129,32.090946517448174 20.06026538356673,32.35998955332616 24.444202429032885,37.095093101932434 32.37494281260297,47.31826440522855 33.190046685398556,47.31826440522855 32.57321132218931,47.398971761460416 24.422172594466247,36.71844087072532 19.906056542648003,31.714285714289872 19.861996873980388,32.198563771293266 24.4882620977005,37.20270790666109 34.77619476208929,50.25061267163255 32.02246546221431,56.62631755335315 32.088554965448566,57.54096047775238 29.004378149518743,61.441600836697035 27.37417040404398,62.57142857143481 28.916258811950684,61.54920372807828 31.449689767789096,58.50940178114979 33.190046685398556,54.23208718159003" stroke="#4DD2FF" stroke-linecap="round" stroke-linejoin="round" stroke-width="0.5"><title>2025-06-25 10.5km</title><desc>1750804247000</desc></polyline><polyline fill="none" points="58.602082261350006,31.714285714289872 59.2676197134424,31.95812547073001 58.735189751838334,31.79556566287647 58.64645142480731,32.174871695562615 63.06118319137022,36.80777151613438 68.42985197284725,43.87885279020702 68.03052950149868,44.5019640695682 63.30521359050181,47.15694030521263 53.52181304234546,33.36697213954176 65.39056427415926,50.81425340408168 63.371767335687764,47.40076305749244 68.58514404506423,44.393597016474814 70.98107887327205,47.319488836539676 71.9128313063411,47.78004236097331 73.55449035519268,50.1098866884131 70.80360221932642,56.47619677624607 70.89234054612461,57.397264784172876 67.76431452063844,61.379485325465794 66.1448400533991,62.54433902334131 67.65339161187876,61.51493374463462 70.89234054612461,57.45144513595733 70.73704847402405,56.74709952912235 73.62104410049506,50.13697775741457 63.28302900888957,36.64521526855242 58.57989767950494,31.768472350013326 58.46897477086168,32.039405329938745 63.172106100129895,36.970327644390636 68.4076673911186,43.824669117762824 68.23019073717296,44.36650524487777 63.14992151840124,47.15694030521263 53.56618220580276,33.28569276766211 65.45711801946163,50.787162418011576 63.39395191753283,47.373671653840574 68.58514404506423,44.36650524487777 70.98107887327205,47.292397422963404 71.97938505152706,47.834225065555074 73.55449035519268,50.05570454064582 70.78141763748135,56.63873846772185 70.87015596451238,57.42435496172402 67.71994535718113,61.433664703014074 66.1448400533991,62.57142857143481 67.69776077545248,61.460754386906046 70.82578680093866,57.58689595742908 70.78141763748135,56.66582873807056 73.62104410049506,50.46207032626262 71.58006258017849,47.373671653840574" stroke="#4DD2FF" stroke-linecap="round" stroke-linejoin="round" stroke-width="0.5"><title>2025-06-23 10.0km</title><desc>1750631203000</desc></polyline><polyline fill="none" points="94.9508012215374,31.714285714289872 100.00000000011642,37.41883417511417 104.82676711422391,43.85664853602066 104.58209228364285,44.42707878051442 99.68859567015897,47.19771912226861 89.94608877587598,33.37133632422774 101.77945331402589,50.837527421463165 99.79981150222011,47.41502278498956 104.98246927920263,44.42707878051442 107.38473125302698,47.33353393639845 108.25221474363934,47.65948915135232 110.00942489132285,50.21278844750486 107.18454275536351,56.595908241171855 107.16229958890472,57.709540129988454 104.13722895504907,61.512143511194154 102.5357209724607,62.57142857143481 104.0704994557891,61.5664659448812 107.34024492022581,57.519408251639106 107.27351542096585,56.514422761742026 110.05391122412402,50.13130062560958 100.08897266560234,37.147192333985004 95.10650338651612,31.768615438515553 94.86182855593506,31.985934202806675 99.57737983798143,36.95704284743988 104.78228078130633,43.82948515446333 104.64882178290281,44.37275215363479 99.73308200296015,47.14339317336271 89.94608877587598,33.31700699220528 101.80169648036826,50.86468994565075 99.84429783502128,47.360696889300016 104.96022611286025,44.42707878051442 107.38473125302698,47.33353393639845 108.25221474363934,47.68665206435253 109.92045222548768,49.99548752277042 107.18454275536351,56.623070060959435 107.25127225450706,57.519408251639106 104.11498578870669,61.457821064163 102.5357209724607,62.57142857143481 104.33741745282896,61.26769239506393 107.31800175376702,57.519408251639106 107.18454275536351,56.758879110362614 110.03166805766523,50.07697539450601 100.11121583217755,37.09286392586364 95.10650338651612,31.768615438515553 94.88407172227744,31.985934202806675 99.4216776730027,36.73972894906183 104.73779444850516,43.77515838148247 104.62657861644402,44.34558883527643 99.75532516930252,47.14339317336271 89.96833194233477,33.28984232114453 101.84618281328585,50.86468994565075 99.79981150222011,47.360696889300016 104.98246927920263,44.399915468733525 107.38473125302698,47.33353393639845 108.22997157729696,47.68665206435253 109.94269539206289,50.07697539450601 107.16229958890472,56.623070060959435 107.27351542096585,57.492246541471104 104.13722895504907,61.43065983573615 102.5357209724607,62.57142857143481 104.09274262213148,61.484982289301115 106.73967942676973,58.279934788297396 107.34024492022581,57.41076139091456 107.18454275536351,56.78604091019952 107.65164925018325,55.78105210130161" stroke="#4DD2FF" stroke-linecap="round" stroke-linejoin="round" stroke-width="0.5"><title>2025-06-21 15.0km</title><desc>1750457084000</desc></polyline><polyline fill="none" points="131.71286633063573,31.714285714289872 131.35946454352234,32.11890906166809 135.75489927164745,36.67761412622349 141.2326269731857,43.93358338555845 141.10010130295996,44.4460777616041 136.24082672898658,47.22431601466087 134.62843107501976,45.41711647040211 126.4118395227706,33.467648189733154 138.11827372352127,50.59591735941649 136.2187391173793,47.38615405721066 141.3872402551351,44.473051116787246 143.8168775420636,47.35918105831661 144.7445572334109,47.763775694416836 146.3790404991014,50.19132792016899 143.6180890366668,56.556782389161526 143.6401766485069,57.60868302016752 140.52582339872606,61.46560907042294 138.97969057993032,62.57142857143481 140.6804366807919,61.30378136120271 143.70643948356155,57.581711271748645 143.6180890366668,56.63769800036971 146.42321572254878,50.16435526452551 136.43961523438338,37.10920262048603 131.6245158839738,31.957059811771614 131.38155215524603,32.17285878522671 135.8653373301495,36.78551132895518 141.25471458490938,44.0145036294125 140.94548802112695,44.553971162677044 136.17456389393192,47.251289030056796 126.45601474621799,33.440673488003085 138.11827372352127,50.56894475319132 136.24082672898658,47.413127052699565 141.4093278667424,44.4460777616041 143.83896515367087,47.27826204201847 144.7224696216872,47.763775694416836 146.3790404991014,50.1104099432705 143.66226426011417,56.50283863169898 143.70643948356155,57.500796006876044 140.6583490689518,61.35772394419473 139.04595341498498,62.54445743012184 140.63626145734452,61.38469523069216 143.72852709516883,57.52776776510291 143.66226426011417,56.610726133265416 146.44530333427247,50.54197214372107 143.70643948356155,46.54998955888732" stroke="#4DD2FF" stroke-linecap="round" stroke-linejoin="round" stroke-width="0.5"><title>2025-06-20 10.0km</title><desc>1750370921000</desc></polyline><polyline fill="none" points="167.98081640747841,31.714285714289872 167.86999080632813,32.20153719978407 172.32517997175455,36.857441719083 177.64480882615317,43.868182860838715 177.46748786442913,44.409543593777926 172.56899629428517,47.19753039232455 162.8606736351503,33.47379990808258 174.63035247544758,50.8245674342179 172.67982189543545,47.414071586041246 177.82212978799362,44.463679594235145 180.2381278927205,47.33286866324488 181.12473270168994,47.71181538148085 182.78711671882775,50.12081862715422 180.06080693088006,56.56274340880918 180.0829720509937,57.510069471012685 177.04635058005806,61.38053096256044 175.40613168326672,62.57142857143481 176.95769009913784,61.51586055904045 180.17163253203034,57.510069471012685 179.9943115701899,56.77927543775877 182.87577719963156,50.14788593038975 172.96796845842618,37.23640637945209 167.9364861669019,31.79549436972593 167.89215592644177,32.17446770094102 172.72415213589557,37.317613007864566 177.6226437059231,43.868182860838715 177.35666226316243,44.490747589530656 172.67982189543545,47.14339506078977 170.92877739749383,45.19451430377376 162.83850851480383,33.31138379953336 174.6081873551011,50.77043299005891 172.67982189543545,47.38700394844636 177.75563442730345,44.463679594235145 180.26029301283415,47.30580101571104 181.14689782192,47.7388829793199 182.8092818389414,50.06668401088973 180.03864181065,56.61687643590267 180.10513717134017,57.510069471012685 177.00202033959795,61.46172873038449 175.40613168326672,62.51729700091528 177.00202033959795,61.43466281102155 180.03864181065,57.6724678172759 180.03864181065,56.67100944973936 182.87577719963156,50.44562604706152 180.32678837352432,46.845650500501506" stroke="#4DD2FF" stroke-linecap="round" stroke-linejoin="round" stroke-width="0.5"><title>2025-06-17 10.0km</title><desc>1750111475000</desc></polyline><polyline fill="none" points="22.0026132108178,66.27117110783001 22.313470295164734,66.18981981032994 22.20244990789797,66.56945894322416 26.598857245058753,71.07084480699268 31.905631758039817,78.0939088291052 31.394937976496294,78.88026121746225 26.687673554872163,81.37487791660533 17.117716169566847,67.59990474025835 28.930285378359258,85.08963553306239 26.998530639335513,81.64603021387302 32.21648884250317,78.69045227571041 34.481304743443616,81.48333887533227 35.3916719192639,81.97141253283189 37.10138588375412,84.38464982286678 34.348080278607085,90.89212504959141 34.481304743443616,91.67843203623488 31.30612166656647,95.7183791265561 29.685224012006074,96.83002950286027 31.195101279299706,95.82683306728723 34.41469251096714,91.86822985656909 34.32587620115373,91.054809482579 37.16799811611418,84.35753494311939 26.820898019592278,70.85391264541249 22.246858062804677,66.0 22.11363359808456,66.35252237554232 26.732081709778868,71.20642730023246 31.994448067853227,78.28371828176023 26.843102097162046,81.42910840263357 17.117716169566847,67.59990474025835 29.019101688172668,85.11675032327184 26.998530639335513,81.64603021387302 32.12767253257334,78.66333669929008 34.50350882078055,81.4562236405909 35.36946784181055,81.9171821794298 37.12358996109106,84.27619028381014 34.39248843351379,90.78366869466845 34.348080278607085,91.86822985656909 31.283917589113116,95.74549261675566 29.72963216691278,96.85714285714494 31.261713511659764,95.79971958707029 34.43689658853691,91.81400192443107 34.348080278607085,91.0005813515163 37.145794038660824,84.38464982286678 27.331591801252216,71.47759203777241" stroke="#4DD2FF" stroke-linecap="round" stroke-linejoin="round" stroke-width="0.5"><title>2025-06-15 10.5km</title><desc>1749940293000</desc></polyline><polyline fill="none" points="58.63535913382657,66.0 63.1388292274205,71.20185656726244 68.37439051852562,78.19165890708973 68.24128302803729,78.62512775576033 63.316305881366134,81.44265459092276 53.53290533320978,67.67977954253729 65.33510281983763,85.0728767037217 63.40504420839716,81.68647734320257 68.6184209176572,78.70640307046415 70.99217116413638,81.632294532581 71.81300068856217,81.95739119764767 73.56558264605701,84.50396523004747 70.77032534661703,90.92445275343198 70.85906367364805,91.71006924743415 67.73103764804546,95.7193789887242 66.13374776265118,96.85714285714494 67.75322222977411,95.7193789887242 70.8812482553767,91.81842992443126 70.77032534661703,91.03281381483248 73.60995180963073,84.34141882635595 63.95965875184629,71.77080221552751 58.590989970369264,66.0 58.8128357877722,66.65023875392217 63.20538297272287,71.25604193010076 68.37439051852562,78.13747524133942 68.19691386457998,78.6522195305879 63.1388292274205,81.38847172056558 53.599459078512155,67.57140705337224 65.4460257285973,85.0728767037217 63.42722879012581,81.632294532581 68.68497466295958,78.67931130218494 70.96998658229131,81.57811170867353 71.85736985190306,81.9844825649343 73.5212134825997,84.28723666518636 70.77032534661703,90.87027220283926 70.8812482553767,91.76424959253927 67.73103764804546,95.69228930158715 66.11156318080612,96.80296375780017 67.7088530663168,95.74646867261617 70.92561741883401,91.73715942166746 70.79250992834568,90.92445275343198 73.60995180963073,84.74778461197275 71.2140169814229,81.28010594016814" stroke="#4DD2FF" stroke-linecap="round" stroke-linejoin="round" stroke-width="0.5"><title>2025-06-13 10.0km</title><desc>1749765414000</desc></polyline><polyline fill="none" points="92.39283522148617,66.02716486385907 97.06390131346416,71.21559290729056 104.91574098251294,81.59208526558359 105.71649516979232,81.86371467783465 107.49594891921151,84.38985229705577 104.6933092639083,90.8816225266055 104.80452512321062,91.72363739657158 101.82394009304699,95.52624542890408 100.088972687372,96.85714285714494 101.64599471818656,95.77069657489483 104.80452512321062,91.85944594760076 104.78228195128031,90.90878434640763 107.60716477851383,84.38985229705577 97.2196035166271,70.8896219401795 92.37059204955585,66.05432972431299 97.46427840716206,71.56872758163081 104.87125463888515,81.51059637704748 105.78322468535043,81.94520343677141 107.49594891921151,84.308364435361 104.76003877958283,90.85446070341277 104.82676829514094,91.75079911337525 101.66823789000046,95.68921288948331 100.11121585930232,96.80282066922518 101.69048106181435,95.68921288948331 104.82676829514094,91.80512253710185 104.73779560765252,90.90878434640763 107.62940795032773,84.44417752159643 97.19736034469679,70.80812912363035 92.39283522148617,66.0 96.88595593860373,70.86245767127548 104.87125463888515,81.48343340761494 105.78322468535043,81.94520343677141 107.51819209102541,84.36268967976503 104.73779560765252,90.85446070341277 104.80452512321062,91.72363739657158 101.66823789000046,95.71637412127166 100.088972687372,96.80282066922518 101.71272423374467,95.66205165440624 104.82676829514094,91.80512253710185 104.73779560765252,90.90878434640763 107.56267843476962,84.38985229705577 97.46427840716206,71.13410021038726 92.61526693997439,66.0 92.54853742441628,66.3259781464003 97.15287400095258,71.16126444604015 99.24373215646483,73.93199902183551" stroke="#4DD2FF" stroke-linecap="round" stroke-linejoin="round" stroke-width="0.5"><title>2025-06-09 10.0km</title><desc>1749421393000</desc></polyline><polyline fill="none" points="128.87460730329622,66.29672386070888 129.00713298970368,66.0 128.9187825320987,66.64739699945494 133.51300632755738,71.28701986174565 140.73565623688046,80.91662312796689 142.1271759441588,82.02251702724607 143.87209748197347,84.45006954995915 141.0669704528991,90.97735601027671 141.24367136799265,91.7325667659461 138.04096727981232,95.7782946293155 136.5169218861265,96.85714285714494 138.1293177375337,95.67040951631498 141.2657589825103,91.78651029235334 141.13323329610284,91.00432786757301 143.91627271065954,84.5309875071398 134.6836498909397,72.31203965107852 128.87460730329622,66.2697489807615 133.53509394207504,71.34096839051927 141.2657589825103,81.61792234164022 142.14926355856005,82.02251702724607 143.8941850962583,84.50401485801558 141.13323329610284,90.95038414970622 141.13323329610284,91.89439730570302 138.1293177375337,95.69738079948002 136.49483427184168,96.85714285714494 138.15140535193495,95.69738079948002 141.2657589825103,91.81348205065296 141.1111456817016,91.03129972147872 144.00462316826452,84.50401485801558 133.6676196284825,71.04425131881726 128.87460730329622,66.24277409756905 133.49091871315613,71.28701986174565 141.19949613930658,81.53700331546133 142.21552640176378,82.07646292925347 143.8941850962583,84.45006954995915 141.1111456817016,90.95038414970622 141.22158375370782,91.75953853080864 138.06305489432998,95.75132335606031 136.49483427184168,96.8301717156719 138.1293177375337,95.69738079948002 141.17740852478892,91.92136905074585 141.1111456817016,91.13918710427242 143.91627271065954,84.45006954995915 133.84432054369245,71.20609704378876 128.85251968889497,66.215799210986 133.49091871315613,71.26004559238208 140.77983146568295,80.9705693005235 142.1713511729613,82.04948997995234 143.8941850962583,84.45006954995915 141.13323329610284,90.89644041872816 141.08905806730036,91.97531253093621 138.04096727981232,95.75132335606031 136.47274665732402,96.8301717156719 138.0188796655275,95.83223716613429 141.2657589825103,91.81348205065296 141.13323329610284,91.00432786757301 143.91627271065954,84.88163164485013 143.78374702425208,84.18034281174187 141.1111456817016,80.78175763881882" stroke="#4DD2FF" stroke-linecap="round" stroke-linejoin="round" stroke-width="0.5"><title>2025-06-07 12.0km</title><desc>1749247836000</desc></polyline><polyline fill="none" points="165.6093255665619,66.0 165.41105700854678,66.67260812442692 169.83905480615795,71.30009624926606 177.65964793111198,81.63088114584389 178.69505040138029,82.19583194874576 180.3032287058886,84.53632695693523 177.50543905270752,91.01963708616677 177.61558825161774,91.79977355497249 174.48735100158956,95.75421585008735 172.92323237657547,96.83024226412817 174.48735100158956,95.78111657453701 177.65964793111198,91.88047716973233 177.54949873231817,91.04653838975355 180.41337790491525,84.64393532389659 170.1695024028886,71.19248135243834 165.30090780952014,66.34975648141699 170.01529352436773,71.46151849583839 177.63761809153948,81.5770762317552 178.58490120235365,82.06131998445198 180.3032287058886,84.4825227537076 177.52746889251284,90.9389331555285 177.61558825161774,91.79977355497249 174.5093808413949,95.72731512223254 172.92323237657547,96.83024226412817 174.48735100158956,95.83491801377386 177.70370761083905,91.79977355497249 177.5935584118124,90.9389331555285 180.43540774460416,84.61703323712572 170.2576217619935,71.30009624926606 165.36699732893612,66.24213916182634 169.99326368467882,71.43461479635153 177.63761809153948,81.5770762317552 178.56287136254832,82.00751517571916 180.3032287058886,84.50942485700944 177.50543905270752,90.96583446898148 177.61558825161774,91.79977355497249 174.42126148229,95.75421585008735 172.96729205618612,96.85714285714494 174.42126148229,95.86181872838642 177.68167777103372,91.79977355497249 177.54949873231817,91.0734396900225 180.39134806510992,84.64393532389659 170.34574112121481,71.43461479635153 165.56526588706765,66.29594782815548 165.2788779697148,66.45737374843156 169.99326368467882,71.40771109353227 172.48263558081817,74.6899385421566" stroke="#4DD2FF" stroke-linecap="round" stroke-linejoin="round" stroke-width="0.5"><title>2025-06-05 10.1km</title><desc>1749073951000</desc></polyline><polyline fill="none" points="19.724759325152263,100.28571428571013 19.613543465849943,100.61169243211043 24.12890735489782,105.3654860148672 34.64992764801718,118.6755665827659 31.802801649086177,125.24882226189948 31.980747023946606,125.95502823861898 28.82221661892254,130.00208840698178 27.24295141629409,131.14285714285506 28.844459790736437,130.00208840698178 31.958503852016293,126.14516023331089 31.891774336458184,125.24882226189948 34.738900335505605,118.70272919665149 24.48479810473509,105.31115752033656 19.546813950291835,100.34004401002312 24.28460955794435,105.50130719300068 34.64992764801718,118.78421701854677 31.825044820900075,125.19449863211776 31.958503852016293,126.0093516822817 28.82221661892254,129.97492717519344 27.220708244363777,131.11569605047407 28.799973446992226,130.05641086060496 31.980747023946606,126.09083682281198 31.93626068031881,125.16733681231563 34.694413991761394,118.64840396547515 24.529284448479302,105.3654860148672 19.546813950291835,100.39437372110842 24.195636870572343,105.44697873175028 34.64992764801718,118.6755665827659 31.825044820900075,125.19449863211776 31.958503852016293,125.98218996211654 28.755487103248015,130.05641086060496 27.220708244363777,131.11569605047407 28.755487103248015,130.083572082498 31.980747023946606,126.1179985297349 31.891774336458184,125.19449863211776 34.738900335505605,118.83854221644287 24.862932026502676,105.77294930005155 19.88046152831521,100.36720886721741 19.591300294036046,100.53019794043212 23.1057214490138,104.11592727738025 26.3754677134566,108.24487720085017" stroke="#4DD2FF" stroke-linecap="round" stroke-linejoin="round" stroke-width="0.5"><title>2025-06-03 10.0km</title><desc>1748953280000</desc></polyline><polyline fill="none" points="55.95084634423256,100.44899085754878 60.67471602896694,105.37444442520791 71.14744599047117,118.68078741105273 68.36214546882547,125.07516804061015 68.38442787295207,126.05471649715037 65.39858571370132,129.8912397552922 63.70512299647089,131.14285714285506 65.33173850120511,129.91844890378707 68.47355748957489,126.00029725159402 68.38442787295207,125.18400697095785 71.16972839471418,118.7079979308619 60.85297526232898,105.12953494641988 56.01769355672877,100.28571428571013 60.67471602896694,105.34723227424547 71.14744599047117,118.65357688798395 68.33986306458246,125.15679724339861 68.36214546882547,126.05471649715037 65.2648912887089,130.00007632935012 63.70512299647089,131.11564814398298 65.35402090533171,129.91844890378707 68.42899268132169,126.10913572937716 68.38442787295207,125.15679724339861 71.14744599047117,118.65357688798395 61.20949372916948,105.56492938892916 56.01769355672877,100.31292705603119 60.652433624723926,105.32002011989243 71.14744599047117,118.65357688798395 68.36214546882547,125.15679724339861 68.42899268132169,126.02750687599473 65.33173850120511,129.9456580490223 63.70512299647089,131.11564814398298 65.35402090533171,129.9456580490223 68.47355748957489,126.05471649715037 68.40671027707867,125.04795829975046 71.19201079872437,118.84405047977634 61.36547055840492,105.75541418949433 56.30736481107306,100.28571428571013 56.129105577711016,100.58505457582942 60.74156324157957,105.42886871722294 63.25947491300758,108.69430186614045" stroke="#4DD2FF" stroke-linecap="round" stroke-linejoin="round" stroke-width="0.5"><title>2025-05-31 10.0km</title><desc>1748691698000</desc></polyline><polyline fill="none" points="92.60064917546697,100.28571428571013 92.49021110346075,100.74428735670517 97.0181720557157,105.4108884818852 104.96971324027982,115.9845556239161 105.76486735872459,116.28125835699029 107.48770128202159,118.76275649138552 104.63839902426116,125.31701400718885 104.83718755375594,126.01828105165623 101.74492153769825,129.92915251545492 100.1104380718898,131.11588600138202 101.65657108009327,130.010066365081 104.8592751682736,126.04525281651877 104.72674948186614,125.31701400718885 107.57605173962656,118.76275649138552 97.15069774212316,105.24904269751278 92.42394826025702,100.52848838327918 97.12861012783833,105.54575987809221 104.96971324027982,115.95758262833988 105.80904258752707,116.3082313129562 107.50978889642283,118.76275649138552 104.74883709626738,125.1012390833348 104.77092471055221,126.12616809130122 101.67865869449452,130.010066365081 100.1546133008087,131.11588600138202 101.70074630877934,129.98309508519014 104.74883709626738,126.12616809130122 104.74883709626738,125.15518283403071 107.57605173962656,118.87064708111575 97.70288810227066,105.89642512210412 92.44603587465826,100.47453860692622 97.15069774212316,105.5997084134724 104.90345039707609,115.90363662735035 105.85321781632956,116.3621772149636 107.48770128202159,118.73578383566928 104.63839902426116,125.26307029598684 104.79301232506987,126.04525281651877 101.65657108009327,130.06400891502562 100.1104380718898,131.11588600138202 101.59030823688954,130.09098018509394 104.81509993947111,126.20708333645598 104.77092471055221,125.23609843541635 107.55396412522532,118.81670179284993 97.65871287335176,105.84247665930889 92.44603587465826,100.52848838327918 96.95190921262838,105.30299130550702 104.68257425306365,115.63390642455488 105.7206921299221,116.28125835699029 107.4435260532191,118.68183851447247 104.6604866386624,125.20912657161534 104.79301232506987,126.01828105165623 101.65657108009327,130.03703764177044 100.08835045760497,131.14285714285506 101.81118438090198,129.87520993259386 104.83718755375594,126.0991963363631 104.72674948186614,125.29004215328314 107.55396412522532,118.81670179284993 97.54827480134554,105.76155394042144 92.42394826025702,100.55546326647163 97.12861012783833,105.5997084134724 104.81509993947111,115.82271760117146 105.78695497312583,116.38915016099054 107.50978889642283,118.87064708111575 104.68257425306365,125.20912657161534 104.81509993947111,126.04525281651877 101.74492153769825,129.92915251545492 100.06626284308732,131.14285714285506 101.65657108009327,130.06400891502562 104.74883709626738,126.23405507819552 104.70466186746489,125.31701400718885 107.55396412522532,118.81670179284993" stroke="#4DD2FF" stroke-linecap="round" stroke-linejoin="round" stroke-width="0.5"><title>2025-03-01 15.0km</title><desc>1740782421000</desc></polyline><polyline fill="none" points="127.0545569290407,100.31875379750272 127.4603584225988,100.28571428573923 127.35214469092898,100.88042487995699 132.97925873391796,106.76138134807115 142.42090681567788,119.31580368362484 143.5571509974543,119.84439813546487 145.66731876356062,122.8177226492553 142.20447935245465,131.14285714286962 145.74847906222567,122.88379615545273 133.27684649568982,106.59618768995279 127.35214469092898,100.58306974652805 133.060419032583,106.82745878299465 142.50206711434294,119.41491522212164 143.5030441316776,119.81136101257289 145.66731876356062,122.75164912673063 142.15037248667795,131.10982140206033 145.80258592800237,122.94986964555574 133.57443425769452,106.95961360429646 127.54151872114744,100.51699078353704 127.21687752648722,100.64914869333734 133.33095336158294,107.12480704000336 142.44796024844982,119.31580368362484 143.6112578631146,119.91047236917075 145.6132118976675,122.75164912673063 142.1774259195663,131.10982140206033 145.80258592800237,122.9829063845973 133.7097014222527,107.09176836098777 127.67678588570561,100.61610922191176 127.18982409348246,100.61610922191176 133.08747246558778,106.89353620170732 142.5291205472313,119.41491522212164 143.5571509974543,119.81136101257289 145.66731876356062,122.78468589001568 142.15037248667795,131.0767856571474 145.77553249511402,122.94986964555574 133.03336559969466,106.29883885080926" stroke="#4DD2FF" stroke-linecap="round" stroke-linejoin="round" stroke-width="0.5"><title>2025-02-25 10.0km</title><desc>1740436543000</desc></polyline><polyline fill="none" points="163.97410557698458,100.28571428573923 163.7574461310869,100.88106226114905 169.3635092927143,106.73524751226068 178.92360734113026,119.43541694566375 179.92565727827605,119.86536015727324 182.01100444467738,122.70958264233195 178.5173708802322,131.1097859919537 182.09225173690356,122.77572699525626 169.74266332294792,106.73524751226068 163.5678691159701,100.55031354777748 169.28226200048812,106.63602508956683 178.8965249103494,119.40234436251922 180.11523429339286,120.06379525511875 181.98392201389652,122.77572699525626 178.49028844945133,131.07671483693412 182.0651693061227,122.80879916570848 169.33642686193343,106.23913503487711 163.622033977299,100.55031354777748 169.2280971389264,106.60295094063622 178.08405198855326,118.41016498929821 179.92565727827605,119.93150520618656 181.98392201389652,122.74265482075862 178.5173708802322,131.07671483693412 182.0651693061227,122.80879916570848 170.148899783846,107.16521092268522 163.59495154663455,100.55031354777748 169.3635092927143,106.70217337540817 178.8423600490205,119.36927177547477 179.9527397089405,119.89843268369441 182.0651693061227,122.80879916570848 178.5715357416775,131.01057251478778 182.119334167568,122.94108780677198 169.93224033806473,106.93369224818889 164.00118800753262,100.58338843728416 163.622033977299,100.64953820433584 169.52600387705024,106.93369224818889 178.73403032601345,119.17083616781747 179.97982213972136,119.89843268369441 182.03808687545825,122.77572699525626 178.54445331089664,131.14285714286962 182.14641659823246,123.1725927729567 179.87149241683073,119.79921509235282" stroke="#4DD2FF" stroke-linecap="round" stroke-linejoin="round" stroke-width="0.5"><title>2025-02-22 12.0km</title><desc>1740177306000</desc></polyline><polyline fill="none" points="18.064322000253014,134.57142857142026 17.901478320593014,135.06861770054093 23.492444656440057,140.90223531442462 32.85595623846166,153.39768669143086 34.240127515862696,154.25942071553436 36.248532898607664,157.010322529095 32.7473937853938,165.36228702578228 36.357095351675525,157.10975219216198 24.03525692212861,141.0016708894691 18.254306293092668,134.8365962204698 17.820056480704807,134.8365962204698 24.00811630883254,141.53199333965313 33.10022175789345,153.6628359137976 34.13156506267842,154.12684642864042 36.3028141251998,157.10975219216198 32.801675011985935,165.39542922921828 36.32995473861229,157.04346575419186 23.60100710950792,140.47134740112233 18.22716568002943,134.73715838245698 17.847197094000876,134.869742158422 23.411022816668265,140.80279970297124 33.01879991812166,153.5965486326022 34.158705676090904,154.1599900064757 36.3028141251998,157.0766089752433 32.828815625282004,165.42857142857974 36.32995473861229,157.04346575419186 23.953835082240403,140.83594491091208 17.847197094000876,134.7703043325455 23.682428949396126,141.13425159928738 33.154502984602004,153.69597954841447 34.26726812904235,154.29256427718792 36.27567351190373,157.010322529095 32.774534398689866,165.36228702578228 36.38423596508801,157.0766089752433 24.143819375196472,141.10110642793006 17.847197094000876,134.7703043325455 23.519585269736126,140.93538051020005 33.04594053141773,153.56340498581994 34.13156506267842,154.12684642864042 36.3028141251998,157.10975219216198 32.801675011985935,165.36228702578228 36.357095351675525,156.9771793000109 23.818132015760057,140.70336405502167 17.901478320593014,134.73715838245698 23.329600976896472,140.70336405502167 33.07308114483021,153.53026133510866 34.18584628915414,154.12684642864042 36.248532898607664,157.04346575419186 32.828815625282004,165.42857142857974 36.46565780497622,157.2423250194406 26.15222475794144,143.7195624730375" stroke="#4DD2FF" stroke-linecap="round" stroke-linejoin="round" stroke-width="0.5"><title>2025-02-05 15.0km</title><desc>1738709514000</desc></polyline><polyline fill="none" points="54.51030080544297,134.57142857144936 54.45596120879054,135.20187845046166 59.998600082006305,141.04176555620506 69.45368992467411,153.61700458583073 70.62199125578627,154.18105177630787 72.71406573243439,157.1008067158109 69.26350133598316,165.42857142857974 72.84991472447291,157.16716441733297 60.460486654774286,141.0085847347218 54.72765919275116,134.80369975001668 54.23860282159876,134.77051816522726 60.134449074044824,141.10812718697707 69.37218052952085,153.45110813016072 70.59482145751826,154.14787256217096 72.71406573243439,157.13398556856555 69.26350133598316,165.39539359044284 72.82274492608849,157.1008067158109 60.29746786435135,140.77631887045573 54.26577261998318,134.80369975001668 60.16161887231283,141.14130799632403 69.34501073113643,153.3847495194641 70.56765165901743,154.11469334407593 72.71406573243439,157.0344489980489 69.20916173909791,165.36221574817318 72.84991472447291,157.6316678733565 72.74123553093523,157.00127013304154 60.56916584842838,141.07494637361378 54.70048939436674,134.77051816522726 54.26577261998318,134.870062907401 59.971430283621885,140.9422230795317 69.50802952155937,153.65018386475276 70.67633085255511,154.21423098619562 72.74123553093523,157.06762785898172 69.23633153759874,165.39539359044284 72.79557512770407,157.0344489980489 60.243128267582506,140.67677629637183 54.70048939436674,134.77051816522726 54.26577261998318,134.9032444799377 60.05293967889156,141.04176555620506 69.37218052952085,153.41792882679147 70.59482145751826,154.14787256217096 72.68689593404997,157.00127013304154 69.23633153759874,165.36221574817318 72.90425432135817,157.39941624479252 70.05142548948061,153.65018386475276" stroke="#4DD2FF" stroke-linecap="round" stroke-linejoin="round" stroke-width="0.5"><title>2025-02-04 12.0km</title><desc>1738622138000</desc></polyline><polyline fill="none" points="87.73470567632467,134.57142857144936 87.73470567632467,135.63002910793875 96.48943872726522,144.78681563062128 111.96191248530522,165.42857142857974 112.5253358995542,165.37564510901575 112.30863458616659,164.68760236541857 97.00952187855728,144.6280290763534 87.8647264642641,134.94193905388238 87.43132383795455,135.36537921684794 96.66279977769591,144.94560212650686 112.0052527480293,165.42857142857974 112.35197484889068,164.79345516642206 96.92284135357477,144.4692424638779 88.03808751469478,135.04779913357925 87.56134462589398,135.36537921684794 96.61945951520465,144.89267330104485 111.96191248530522,165.3227187829616 112.5253358995542,165.37564510901575 112.30863458616659,164.63467595525435 97.65962581825443,145.36903249722673 88.08142777741887,135.10072916356148 87.47466410067864,135.36537921684794 97.39958424237557,145.89831987803336 111.87523196008988,165.21686611152836 112.61201642476954,165.1110134141345 111.91857222281396,164.10541149703204 96.92284135357477,144.6280290763534 87.95140698971227,134.94193905388238 87.5180043631699,135.31244921908365 97.35624397988431,145.739533731743 111.91857222281396,165.37564510901575 112.3953151118476,164.79345516642206 97.1828829292208,144.78681563062128 87.95140698971227,134.99486909693223 87.38798357523046,135.36537921684794 96.92284135357477,145.31610372362775 111.87523196008988,165.3227187829616 112.17861379845999,164.52882311536814 98.91649343445897,147.00982126963208 87.95140698971227,134.94193905388238 87.47466410067864,135.36537921684794 96.3594179393258,144.6280290763534 111.87523196008988,165.2697924505046 112.3953151118476,164.84638155734865 106.89110175776295,157.33076924510533 93.19557876745239,140.55248757268419" stroke="#4DD2FF" stroke-linecap="round" stroke-linejoin="round" stroke-width="0.5"><title>2025-01-23 11.4km</title><desc>1737585341000</desc></polyline><polyline fill="none" points="127.20919850864448,134.57142857144936 127.31846515077632,135.1719252082985 133.00033053546213,141.11009852399002 142.4245784090599,153.6865891687048 143.54456148960162,154.28704370974447 145.62062768789474,157.08914741899935 142.28799510654062,165.36185704841046 145.78452765091788,157.25593839847716 133.65593038743827,141.31025941637927 127.48236511379946,134.70487238271744 127.07261520612519,134.77159426402068 132.83643057232257,140.94329766812734 142.34262842754833,153.58651328334236 143.59919481060933,154.28704370974447 145.67526100890245,157.18922201890382 142.15141180402134,165.42857142857974 145.78452765091788,157.2225802107714 133.46471376391128,141.0767383609491 127.15456518763676,134.73823332539177 132.97301387484185,141.0767383609491 142.45189506944735,153.7199477890681 143.51724482921418,154.186968044698 145.70257766952273,157.18922201890382 142.20604512502905,165.36185704841046 145.78452765091788,157.25593839847716 133.35544712189585,140.97665784749552 127.09993186662905,134.70487238271744 133.5739804058103,141.77730092708953 142.47921173006762,153.7199477890681 143.5718781502219,154.22032660388504 145.62062768789474,157.08914741899935 142.20604512502905,165.29514265203034 145.75721099041402,157.18922201890382 133.0822805169737,140.64305587043054 127.45504845317919,134.67151143605588 127.09993186662905,134.73823332539177 132.78179725131486,140.8098569099675 142.2333617854165,153.41972005949356 143.5718781502219,154.25368515882292 145.62062768789474,157.155863823049 142.20604512502905,165.2617854476266 145.78452765091788,157.32265476172324 133.35544712189585,140.97665784749552 127.53699843469076,134.80495519845863 127.1272485271329,134.97175980967586 133.02764719573315,141.1434586829855 142.53384505095892,153.8200236254488 142.83432831650134,153.48643736127997 135.89589654875454,144.27929539815523" stroke="#4DD2FF" stroke-linecap="round" stroke-linejoin="round" stroke-width="0.5"><title>2025-01-18 14.0km</title><desc>1737153490000</desc></polyline><polyline fill="none" points="174.65906944533344,148.42413221903553 170.81042624192196,151.42082930543256 169.9876597620314,152.59124849661748 169.13769439022872,153.55413143427722 168.1041364981793,154.40079308504937 166.9141849776497,155.13123779466696 166.1458162815834,156.36799558877829 164.8606686394487,157.64623166127421 163.1403387269529,158.882943671495 157.42857142857974,163.58058413153776 161.50160549019347,160.35202868402848 163.1471384499455,158.90784368210007 164.71107473401935,157.81223458149907 166.20021406537853,156.35969527595444 166.9549833155179,155.12293733073602 168.1653340049379,154.3841919776387 169.0424982686236,153.67864116239798 169.98086003903882,152.64935388843878 170.8308254108124,151.42913022177527 175.8490209658048,147.4943821489651 176.50859409430996,147.12911971051653 176.4609960335074,146.92158335894783 177.1681672228151,146.6476344037801 180.31643895991147,144.0658187559602 180.86041679786285,143.36846264496126 182.41755335894413,142.27260285869852 183.0703267644858,141.25144486744102 184.4846691431303,140.37971248081158 185.1238431027159,139.49136415439716 186.59258326512645,138.54488679426868 186.86457218410214,137.71463263308397 187.93892841401976,136.98400057289837 188.28571428573923,136.4194158684695 187.86413146130508,136.99230325411918 186.88497135302168,137.6565144615888 186.5789838191995,138.51167682272353 185.14424227163545,139.44985226610152 184.50506831204984,140.32989886356518 182.99552981177112,141.28465349899489 182.4311528049002,142.2393947103119 180.86721652079723,143.33525503249257 180.3028395139554,144.05751693963248 178.46691431090585,145.55182753253757" stroke="#4DD2FF" stroke-linecap="round" stroke-linejoin="round" stroke-width="0.5"><title>2025-01-16 10.5km</title><desc>1736984045000</desc></polyline><polyline fill="none" points="14.771007136208937,168.8571428571595 14.989205549005419,169.92305643527652 23.935340474592522,179.1431000213779 39.209229371510446,199.5011177866836 39.776545244734734,199.66099374217447 39.64562619687058,198.96819751136354 25.419089681701735,180.3155771260208 15.207403961801901,169.17691720451694 14.683727771043777,168.8571428571595 14.552808723412454,169.4966913171229 23.848061109427363,179.08980553253787 39.209229371510446,199.66099374217447 39.689265879569575,199.12807366237394 25.28817063383758,180.15569407038856 14.989205549005419,168.96373433218105 14.552808723412454,169.4433956479188 23.935340474592522,179.1431000213779 39.16558968881145,199.66099374217447 39.55834683193825,198.91490544800763 25.550008729333058,180.52875444258098 15.076484914170578,169.0703257813293 14.50916904094629,169.4433956479188 23.804421426728368,179.08980553253787 39.16558968881145,199.6077017635689 39.73290556226857,199.66099374217447 39.60198651463725,199.0214895681711 26.335523015120998,181.4347568730591 15.032845231471583,168.96373433218105 14.552808723412454,169.4433956479188 23.760781744029373,179.03651103712036 39.16558968881145,199.71428571428987 39.776545244734734,199.71428571428987 39.64562619687058,199.0214895681711 24.371737299952656,178.929922026844 15.120124596869573,169.17691720451694 14.465529358480126,169.39009997219546 23.891700791893527,179.2496889793547 39.07831032364629,199.66099374217447 39.8201849272009,199.5544097784441 39.383788101607934,198.64844503311906 24.50265634758398,179.08980553253787 15.207403961801901,169.17691720451694 14.552808723412454,169.01703006008756 14.596448406111449,169.60328263568226 23.760781744029373,179.03651103712036 28.517507143551484,185.59168504358968 29.25938174710609,185.3252164789301 26.55372142815031,181.914404455747" stroke="#4DD2FF" stroke-linecap="round" stroke-linejoin="round" stroke-width="0.5"><title>2025-01-14 10.6km</title><desc>1736807801000</desc></polyline><polyline fill="none" points="58.487909494462656,187.33265852260956 56.173724924607086,189.13542430537564 55.210829946241574,190.3701489879386 54.52709359607252,190.93810967545141 53.86358613196353,191.33320805527546 53.467099964414956,192.0098050607703 52.5608458671195,192.9086244422615 51.606042443192564,193.5802566472521 50.412538163291174,194.61731386907195 48.142857142855064,196.40000244382827 50.190020416193875,194.81484556162832 51.63031710652285,193.57531821589146 52.488021877157735,192.9827020712255 53.44282530109922,192.05919125998116 53.90404390418553,191.31839193572887 54.632283803774044,190.87390582394073 55.2472419412079,190.35533251535162 56.22227425125311,189.1156684038324 59.52767424000194,186.5769546973861 59.54790312612022,186.46335093962261 59.734008878222085,186.46335093962261 60.02530483806913,186.25096044883685 61.833767255418934,184.76419575412 62.14933787859627,184.35421447151384 63.096049748084624,183.6873685595092 63.44803236621374,183.1044868218196 64.33810335463204,182.5462955804178 64.70626908163831,182.02761539041603 65.56801962951431,181.469409270092 65.72580494110298,180.9902350322991 66.41763284572517,180.4863549607362 67.04877409205073,179.5131570303747 71.48699170240434,176.3908612264786 73.05675326377968,175.6349526926424 73.57056697075313,175.0914802982843 79.0,172.17142612759926 75.33857161588094,174.06874423380214 73.5746127479506,175.06677683386442 73.08102792710997,175.60036830362515 71.45057970742346,176.3958017585719 67.06091142370133,179.47363580684396 66.39335818240943,180.4863549607362 65.72175916387641,180.96553517527354 65.54374496619857,181.469409270092 64.7022233044263,182.0078560133952 64.28955402797146,182.55617513844118 63.435895034548594,183.08966768496975 63.087958193646045,183.66760999423423 62.12910899249255,184.34433535313292 61.82162992375379,184.75431673596177 59.936297739244765,186.29541436484942 59.76232931877894,186.40407928705463 59.661184888274875,186.32505028170635 59.6409560021566,186.43865442828974 59.483170690597035,186.59177255528266 56.218228474026546,189.09097351333912 55.17037217404868,190.40472073616547 54.595871808807715,190.87884458536428 53.859540354751516,191.32826934935656 53.24862799454422,192.24685826672794 52.5203880949266,192.92837848993076 51.88520107138902,193.36790355352787 52.50420498603489,192.97776356685063 53.32145198447688,192.19747229679342 53.875723463628674,191.33320805527546 54.668695798754925,190.84921200772806 55.45762235666916,190.11826821535942" stroke="yellow" stroke-linecap="round" stroke-linejoin="round" stroke-width="0.5"><title>2025-01-01 21.1km</title><desc>1735687361000</desc></polyline><polyline fill="none" points="112.92625052371295,168.85714285713766 114.16717057401547,170.00460492799903 113.50316949450644,171.9259094329027 113.30723474972183,172.1527278448193 112.81739788776031,171.91256715852796 112.58880735217826,172.12604335048673 112.33844628941733,173.32683905755403 113.07864421413979,175.06129814414453 113.72087476646993,175.66168132962048 114.4175316367764,176.8891209975045 113.48139896732755,179.05044820022158 113.40520212211413,180.2111430839068 113.53582528530387,181.1583675844813 114.11274425603915,182.15894781201496 113.98212109284941,183.69315280239243 114.60258111800067,185.10727025172673 114.64612217241665,185.76095978878584 114.15628531045513,187.21507128839585 113.57936633971985,187.77536590132513 111.968347327027,188.41569903871277 110.11785251524998,188.56244151413557 109.07286720967386,189.08270868218096 108.73542403813917,189.44289217497862 108.71365351096028,190.26997564460908 110.01988514285767,192.33765658002812 110.23759041482117,193.00464197734982 110.29201673279749,193.8183585785664 109.92191777046537,194.49867430552695 108.89870299212635,195.20566453550418 107.45096293353708,195.4591127352178 106.42774815513985,195.93932874417806 103.41253013827372,196.41954261598585 100.29934474895708,199.7142857142826 94.30156450596405,195.27236148788506 94.96556558547309,194.15184721599508 102.06275745196035,184.9872043959258 94.73697504989104,179.41066519034212 94.3342202968197,179.6774918148949 85.6804357355577,190.723534855475 85.35387782764155,190.5634553517375 94.1927118699532,179.15717928568483 93.93146554357372,178.70357144321315 90.41552540118573,175.90183366811107 90.4808369827806,175.608314070676 90.81828015431529,175.56828860915994 91.19926438026596,175.79509936142858 98.81894889951218,181.83876314898953 99.43940892466344,181.70535259220924 100.17960684938589,180.75813289478538" stroke="#4DD2FF" stroke-linecap="round" stroke-linejoin="round" stroke-width="0.5"><title>2024-12-28 10.1km</title><desc>1735347410000</desc></polyline><polyline fill="none" points="137.66298742426443,183.45215483671927 133.91088392294478,186.37067471406044 133.11616755631985,187.50782821920438 132.33447932687704,188.39050010818755 131.31828462859266,189.21749714049656 130.2239211073902,189.8774968469079 129.5399439066241,191.01458907467168 128.158961367968,192.37430264869909 126.61512711481191,193.47159464489232 125.12340541029698,194.78354992315872 121.0,198.03549475289037 124.57622364969575,195.2526669071376 126.72586628064164,193.3920813538425 128.02867999637965,192.50947729952895 129.50737356374157,191.0782020390543 130.21089297023718,189.90135213265603 131.28571428571013,189.24135266818485 132.36704966978868,188.36664426859352 133.19433637926704,187.45216382487706 133.91739799149218,186.38657909594622 139.33058898037416,182.22745082765323 139.33058898037416,182.03658578889736 139.57160951779224,182.06044394936907 140.02759431826416,181.77414544636122 143.03057993305265,179.30079203425703 143.62336017374764,178.56910676400003 145.08251153532183,177.5590494456992 145.6492355016817,176.62055693707225 147.08884465755546,175.7138648746477 147.69465303537436,174.87078898640175 149.06260743690655,173.9879336550366 149.34271238581277,173.17665062333253 150.4110196326801,172.4289886735569 151.2773907536175,170.98931752016506 151.85714285713038,170.53593381853716 151.433728399541,170.80637359986576 150.46313218129217,172.31763403082732 149.29711390571902,173.1846044276681 149.06260743690655,173.9561188247826 147.6425404867332,174.88669617977575 147.08233058897895,175.68205088857212 145.59060888446402,176.6444170838222 145.08251153532183,177.5351896344 143.54519135077135,178.6168256194287 143.01103772732313,179.2928389777444 139.9754817696521,181.78209819955373 139.0309418257675,182.38650459890778" stroke="#4DD2FF" stroke-linecap="round" stroke-linejoin="round" stroke-width="0.5"><title>2024-12-24 11.5km</title><desc>1734996352000</desc></polyline><polyline fill="none" points="178.4002436795563,179.19651440969028 173.7782515991421,182.80090246498003 171.91958574476303,185.21043302523321 170.7435272616567,186.2244226758703 169.08224185198196,187.26851775382966 168.18580566553283,188.74428335866833 166.3435881815676,190.55130718432338 164.62473347547348,191.7158125932183 161.90252817544388,194.07488935047877 157.45324398417142,197.55816822820634 161.64757843434927,194.30577407546662 164.48492232713033,191.86639398419356 166.40938166310661,190.5211904462194 168.21870240636053,188.74428335866833 169.18093207434868,187.19824254004925 170.4556807797635,186.47540828100318 171.80444715201156,185.37106588332972 173.86871763633098,182.75070316017081 179.5105086810654,178.3230038034526 180.66189460858004,177.5900509553394 180.62899786781054,177.36915977342142 180.9990862016275,177.3390382025682 181.4760889430181,177.017740759773 185.24276576301781,173.93522955031221 185.92537313431967,173.05162194225704 187.90740176668623,171.6559041947985 188.28571428571013,171.00322228892765 187.80871154429042,171.70611028042913 185.94182150473353,173.00141667912249 185.2674383186095,173.87498387898813 181.52543405420147,176.97757849105255 181.04020712763304,177.30891662069916 180.91684434967465,177.19847072599077 180.75236064573983,177.48964594626887 179.55162960704183,178.252720937111 173.91806274748524,182.6703842086572 171.7551020408282,185.37106588332972 170.53792263174546,186.36497470921313 169.04934511115425,187.2885963753215 168.19402985076886,188.7242050929126 167.11666159002925,189.81846342307836 166.2120012184023,190.63161843202397 164.55071580869844,191.77604518270527 161.16235150778084,194.66715756010672 157.42857142857974,197.5682062824999 161.23636917455588,194.6169655045087 164.6000609198818,191.76600642086123 166.6561072189943,190.29029508725944 168.16935729517718,188.77440074808692 169.11513859275146,187.26851775382966 170.44745659455657,186.46536887152615 171.63996344807674,185.52165890253673 172.82424611633178,184.2165102321378 173.712458117574,182.90130098262307 176.10569600973395,181.03386847152433" stroke="#4DD2FF" stroke-linecap="round" stroke-linejoin="round" stroke-width="0.5"><title>2024-12-21 15.0km</title><desc>1734737288000</desc></polyline><polyline fill="none" points="30.061389871989377,215.81213805825973 25.924718023336027,218.99567350253346 25.138821817206917,220.12950114555133 24.110012238263153,221.29819694085018 23.20980385670555,222.03952390649647 21.895213839190546,222.83317130029172 21.052161545318086,224.17624678654101 19.637548374274047,225.56290210467705 17.894287698843982,226.80999677368527 15.386564350192202,228.95529746625107 11.714285714289872,231.85047911769652 15.99384778222884,228.46694200055936 17.829987100180006,226.86232194789045 19.894750769017264,225.33615527859365 21.052161545318086,224.17624678654101 21.85234677340486,222.86805669752357 23.02404657160514,222.16162407994125 24.081434194435133,221.31564001673541 25.06023219661438,220.2341612506425 25.95329606719315,218.96950803660002 31.16164456057595,214.8875778659276 32.65484735221253,213.9106710624983 35.905599841236835,211.25027669592237 36.50573876226554,210.4826690629634 38.16326530612423,209.32251912717038 38.74197069427464,208.33681300556782 40.30661859558313,207.34237002122245 41.056792246876284,206.356636541459 42.44997188501293,205.46684772241133 42.57142857144936,205.29237802516582 40.992491648183204,206.37408327011508 40.35663017228944,207.28130728103133 38.70624813940958,208.32808988177567 38.09896470743115,209.33996513054444 36.44858267455129,210.49139192337316 35.86987728640088,211.2415539282738 32.31191082589794,214.14617660462682 32.21188767239801,214.35551421175478 31.81179505836917,214.45146040980762" stroke="#4DD2FF" stroke-linecap="round" stroke-linejoin="round" stroke-width="0.5"><title>2024-12-17 10.2km</title><desc>1734391788000</desc></polyline><polyline fill="none" points="63.13677983955131,218.95047870754206 59.77627420792123,221.54303275622806 58.428571428579744,223.2737120621132 57.54177133133635,224.03576443104248 56.43910542095546,224.71946648793528 55.698160602885764,225.89456066068306 54.44380520217237,227.07675271105109 53.18944980148808,227.94557736627394 51.60837857550359,229.3200030388689 48.142857142869616,232.0260314184561 54.95721578478697,226.6280922860642 55.79734219270176,225.78061317207903 56.45077384330216,224.71234463284054 57.53010290898965,224.04288636879937 58.241876671265345,223.4660065904318 58.947816222324036,222.70394677182412 59.86378737541963,221.4718102845909 63.8485536017979,218.34505799116232 65.3304432379955,217.35500350146322 67.91499878454488,215.22526093186025 68.40507252249517,214.60555532930448 69.74694109067786,213.65817655304636 70.21951219515176,212.8461253409696 71.52054128516465,212.02693940478275 72.09812819061335,211.2433594701106 73.28247305727564,210.48826337982973 73.55084677092964,209.75452855790718 74.49598897981923,209.08489842179551 75.36528644355712,207.70999539795957 79.0,205.11682572439895 75.43529697755002,207.61026023747763 74.50182319097803,209.0350320398902 73.53917834861204,209.72603381529916 73.28830726846354,210.44552179903621 72.05728871241445,211.2504829715399 71.48553601815365,212.0198159983156 70.23701482862816,212.80338548998043 69.75277530183666,213.62968371967509 68.34673041081987,214.63404768547116 67.96167247384437,215.14690771391906 67.41909083543578,215.59565653579193" stroke="#4DD2FF" stroke-linecap="round" stroke-linejoin="round" stroke-width="0.5"><title>2024-12-14 12.1km</title><desc>1734132056000</desc></polyline><polyline fill="none" points="105.59244593355106,213.41697362444393 100.90466037156875,217.0916415531683 99.98355162958615,218.42693098593736 98.97197685044375,219.57144751223677 97.76302162650973,220.58543567604647 96.30734084674623,221.45886099273048 95.26286932683433,223.09525354656216 93.5440146207402,224.75169134508178 91.71824550713063,226.02662375732325 89.57995735606528,227.90385043713468 84.57142857142026,231.87901244239038 90.32013402375742,227.2914977838882 91.65245202556252,226.0768175420817 93.9223271397932,224.42040645676025 95.38623210479273,222.9446666363001 96.22509899482247,221.53917549821927 97.64788303378737,220.66575103532523 98.84038988727843,219.70196154197038 99.97532744440832,218.4470103606218 101.05269570511882,216.95108350823284 106.85074626866844,212.41293740169203 108.7669814194087,211.13779370873817 112.29515686869854,208.2259740566733 113.35607675902429,209.74214130817563 112.40207127624308,208.16572842218739 113.06000609198236,207.31224385291716 115.02558635393507,205.91652644674468 115.42857142855064,205.2638447004647 114.95979287236696,205.93660887973965 113.076454462338,207.2620386020717 112.45141638745554,208.07535988760355 108.21596101124305,211.57957801657903 106.56289978677523,212.59366482744372 100.99512640875764,216.96112337656814 99.95887907399447,218.40685160631256 98.82394151689368,219.6618034010462 97.63965884858044,220.62559336551203 96.17575388363912,221.52913618933235 95.26286932683433,223.02497968944226 93.89765458420152,224.39028958250856 91.80871154431952,225.92623609588918 88.82333231801749,228.47604469401267 84.58787694183411,231.80874609651073 88.9549192811246,228.40577543848485 91.58665854402352,226.13705004331132 93.64270484310691,224.68141890463448 95.41912884553312,222.92458836071455 96.28266829118365,221.49901825527922 97.55741699662758,220.73602691030828 98.9555284800299,219.59152660722611 101.0773682607105,216.941043638697 106.79317697224906,212.46313950426702 108.56137678952655,211.29844282287377 112.39384709103615,208.15568747880752 113.08467864757404,207.2821207060988 114.90222357594757,206.00689735665947" stroke="#4DD2FF" stroke-linecap="round" stroke-linejoin="round" stroke-width="0.5"><title>2024-12-07 17.1km</title><desc>1733527336000</desc></polyline><polyline fill="none" points="123.17671289548161,233.9920898002456 123.42283734527882,233.86552647282952 123.29329816118116,234.0 123.39692950848257,233.7785140415217 122.85286493523745,232.4654031303071 122.91763452731539,232.34674721583724 130.69646253230167,229.53849366187205 131.59675986180082,229.0322039839084 132.28979449666804,228.27276203098882 144.95872670132667,213.41438353154808 145.39268296802766,212.64684518983267 147.5106486279983,207.1788597030827 148.11948279329226,205.90477633279806 149.47316726707504,203.744316653836 149.72576867608586,203.52272695935972 150.00427792189294,203.57812445425225 149.62861428799806,203.14285714285506 149.51202902229852,203.15077112014114 148.69593216251815,204.25080452910333 147.97051273158286,205.46952470150427 147.1155541165208,207.16303273462836 145.13360459986143,212.4173731932242 144.69964833313134,213.21656524359423 139.74477454141015,219.1033783019302 133.6758637665189,226.09722787475766 133.44917019436252,226.587718333074 132.04367004692904,228.20156389039767 131.38302020801348,228.86607681920577 130.9102021860599,229.17459835666523 122.98888107857783,232.03824081889616" stroke="#4DD2FF" stroke-linecap="round" stroke-linejoin="round" stroke-width="0.5"><title>2024-11-30 11.9km</title><desc>1732919585000</desc></polyline><polyline fill="none" points="160.1575414147228,203.62585523276357 169.3856255079154,213.23204009170877 184.89759543631226,233.9463372878963 185.46885778498836,233.73168637428898 184.23844657256268,231.85348639875883 169.3856255079154,212.42706061003264 160.6409172480926,203.1428571428405 160.1575414147228,203.62585523276357 169.4735120232217,213.39303581079002 184.89759543631226,234.0 185.55674430006184,233.83901184413116 185.29308475460857,233.19505863025552 170.13266088697128,213.2857053379994 160.6409172480926,203.1965236234537 160.24542792979628,203.73318806957104 169.4735120232217,213.2857053379994 184.941538693849,233.9463372878963 185.4249145272188,233.46337258434505 170.65997997811064,213.876022613229 160.77274702093564,203.35752302623587 160.20148467225954,203.6795216544415 169.561398538528,213.39303581079002 184.941538693849,234.0 185.60068755759858,233.83901184413116 184.941538693849,232.7120930996607 169.73717156867497,212.80271788532264 160.6409172480926,203.1965236234537 160.1575414147228,203.62585523276357 169.20985247776844,213.12470957951155 184.941538693849,234.0 185.38097126968205,233.35604702256387 170.08871762943454,213.2857053379994 160.59697399055585,203.1965236234537 160.20148467225954,203.6795216544415 169.4735120232217,213.39303581079002 184.85365217877552,233.9463372878963 185.4249145272188,233.570698119991 170.26449065981433,213.44670103731914 160.6409172480926,203.25019009766402 160.11359815695323,203.5721888046537 169.51745528075844,213.5003662572417 184.7657656634692,233.7853491124988 185.5128010425251,233.570698119991 180.01989384414628,226.43349281011615" stroke="#4DD2FF" stroke-linecap="round" stroke-linejoin="round" stroke-width="0.5"><title>2024-11-26 10.9km</title><desc>1732619882000</desc></polyline><polyline fill="none" points="14.50916672241874,237.69459063807153 23.265621117316186,246.9519577488536 39.16664526704699,268.1793141068192 39.42803196539171,267.2217113257793 26.18443924887106,249.66528662256314 14.901246769819409,237.42857142857974 14.944811219815165,238.54585101437988 23.744830064242706,247.5903895953088 39.16664526704699,268.0729139020259 39.471596415154636,267.3281117390725 24.83394130715169,248.0160103054659 16.251744711538777,238.75866584826144 14.944811219815165,237.58818297367543 14.726988971233368,238.17342480475781 23.744830064242706,247.48398435270065 39.16664526704699,268.0729139020259 39.73298311349936,268.0197137898649 39.471596415154636,267.3813119359547 24.703247958328575,247.90960516696214 15.07550456887111,237.42857142857974 14.901246769819409,238.54585101437988 23.831958963768557,247.69679481183994 39.16664526704699,268.1793141068192 39.51516086468473,267.3813119359547 25.051763555966318,248.22882050435874 15.031940119108185,237.42857142857974 14.639860071707517,237.96060968469828 23.70126561447978,247.5371869771916 39.07951636752114,268.0197137898649 39.64585421397351,267.4877123099286 24.485425709513947,247.5903895953088 15.07550456887111,237.53497913182946 14.552731172181666,238.0138134745648 23.831958963768557,247.69679481183994 39.384467515628785,268.2857142857101 39.16664526704699,266.9025099304563 24.65968350856565,247.85640258801868 15.07550456887111,237.48177528334782 15.031940119108185,238.54585101437988 23.61413671495393,247.43078172154492 39.03595191775821,268.0197137898649 39.471596415154636,267.3281117390725 24.921070206910372,248.06921286485158 15.031940119108185,237.53497913182946 14.683424521237612,237.9074058883125 23.831958963768557,247.69679481183994 39.03595191775821,267.91331354595604 39.776547563262284,267.86011341412086 39.471596415154636,267.2749115358165 23.657701164949685,246.63274147408083 15.07550456887111,237.58818297367543 14.98837566934526,238.38623982091667 23.78839451400563,247.5903895953088 39.12308081728406,268.0729139020259 39.68941866373643,267.91331354595604 39.42803196539171,267.2749115358165 24.703247958328575,247.85640258801868 15.07550456887111,237.69459063807153" stroke="#4DD2FF" stroke-linecap="round" stroke-linejoin="round" stroke-width="0.5"><title>2024-11-16 14.9km</title><desc>1731755814000</desc></polyline><polyline fill="none" points="50.82826466183178,237.90989540723967 60.28710797615349,247.8036597663595 75.70151930302382,268.2322375861986 76.00805589184165,267.4300863078679 60.41848079976626,247.00147099912283 51.660292545799166,237.74945413996466 51.047219368163496,237.53553235836443 51.09101030929014,238.1772973885527 60.1557351523079,247.58974290578044 75.61393742030486,268.2322375861986 76.13942871545441,267.6974702309235 73.29301753290929,263.7401714694861 61.03155397763476,247.8036597663595 51.61650160467252,237.6959737043071 51.00342842703685,238.07033661578316 60.50606268248521,248.01757652236847 75.43877365533262,268.07180744822836 76.18321965681389,267.75094699594774 60.90018115378916,247.64322213071864 51.5289197221864,237.53553235836443 51.047219368163496,237.96337581652915 60.50606268248521,247.9640973432688 75.61393742030486,268.1252841675014 76.09563777432777,267.4300863078679 61.46946339029819,248.28497232004884 51.485128780826926,237.58901281363796 51.047219368163496,238.12381700548576 60.24331703479402,247.64322213071864 75.61393742030486,268.2857142857101 76.31459248065948,267.85790050632204 61.46946339029819,248.28497232004884 53.587093961657956,239.72822565436945 51.309965015621856,237.58901281363796 51.09101030929014,238.01685621941579 60.28710797615349,247.6967013491958 75.52635553781874,268.1252841675014 76.22701059817336,267.85790050632204 62.65181880467571,249.8893436715298 51.35375595698133,237.48205189677537 51.047219368163496,238.07033661578316 60.24331703479402,247.6967013491958 75.74531024415046,268.2857142857101 76.27080153953284,267.8044237543072 60.72501738881692,247.3758259403985 51.309965015621856,237.42857142857974 51.309965015621856,238.23077776515856 60.19952609343454,247.64322213071864 75.57014647917822,268.2322375861986 76.22701059817336,268.1252841675014 75.9204740091227,267.4300863078679 60.68122644745745,247.42930519150104 51.09101030929014,237.96337581652915 60.54985362361185,248.17801402058103 75.61393742030486,268.2322375861986 76.00805589184165,267.53703989682253 69.13287811237387,258.55284721317" stroke="#4DD2FF" stroke-linecap="round" stroke-linejoin="round" stroke-width="0.5"><title>2024-11-10 14.3km</title><desc>1731237417000</desc></polyline><polyline fill="none" points="87.36631653504446,237.96152854379034 97.75255717313848,249.10018301426317 111.9354487999808,268.07254635807476 112.59004379832186,268.01925435994053 111.76089013391174,266.68695228599245 98.31987283797935,248.83371135251946 88.02091153338552,237.7483457759663 87.49723553471267,238.06811988857226 96.61792584275827,247.66123410422006 112.06636779964902,268.2857142857101 112.67732313135639,268.07254635807476 111.76089013391174,266.74024444728275 97.01068284153007,247.23487795869005 87.93363220035098,237.7483457759663 87.32267686864361,237.90823286169325 96.53064650972374,247.60793960874435 112.02272813324817,268.2857142857101 112.67732313135639,267.80608630192 97.22888117446564,247.5546451069531 87.93363220035098,237.69505006761756 87.32267686864361,237.96152854379034 96.26880851062015,247.3414670342172 112.15364713291638,268.17913033496006 112.5027644650545,267.5396260827547 97.31616050750017,247.60793960874435 87.80271320068277,237.48186716949567 87.58451486798003,238.12141555114067 96.7052051757928,247.60793960874435 112.11000746604986,268.12583834968973 112.63368346472271,267.80608630192 112.06636779964902,266.90012089165975 97.79619683953933,248.140884269058 87.93363220035098,237.53516290392145 87.40995620191097,237.7483457759663 98.6689901703503,250.11277384209097 112.02272813324817,268.07254635807476 112.54640413168818,267.85937832613126 111.542691801209,266.26061476187897 97.9707555056084,248.40735635455349 87.8899925337173,237.42857142857974 87.45359586831182,238.12141555114067 97.44707950716838,248.5672395277652 111.9354487999808,268.07254635807476 112.63368346472271,267.9659623551124 111.97908846661448,266.90012089165975 98.31987283797935,248.67382827715483 87.97727186675183,237.69505006761756 87.49723553471267,237.90823286169325 96.87976384209469,247.87441202052287 112.06636779964902,267.9659623551124 112.37184546538629,267.3264577900409 99.45450416812673,250.325950558763" stroke="#4DD2FF" stroke-linecap="round" stroke-linejoin="round" stroke-width="0.5"><title>2024-10-26 12.9km</title><desc>1729940418000</desc></polyline><polyline fill="none" points="127.00454715604428,237.66311222894 132.87570056016557,243.76110252997023 141.81960714783054,255.6216398155084 143.6029014060041,257.02878811911796 145.7428545160219,259.9770754069614 142.3134424808668,268.25221221573884 145.82516040478367,260.0105784892803 132.98544174537528,243.39254653218086 127.16915893368423,237.495583106298 132.95800644904375,243.86161771600018 142.58779544360004,256.6267464844277 143.63033670233563,257.0957950008451 145.7428545160219,260.1110877114115 142.28600718465168,268.2857142857101 145.8525957009988,260.1445907773159 133.232359411777,243.56007204717025 127.114288341254,237.59610059225815 132.9031358564971,243.86161771600018 142.47805425839033,256.5262359835324 143.54803081357386,256.99528467215714 145.68798392335884,259.9435723206552 142.25857188820373,268.2187101415475 145.77028981223702,259.9770754069614 133.58901826350484,244.0291429440258 127.16915893368423,237.42857142857974 133.15005352289882,244.1631630527263 141.9842189254705,255.92317220341647 143.65777199855074,257.06229156200425 145.68798392335884,259.9100692301581 142.28600718465168,268.2187101415475 145.82516040478367,260.1110877114115 132.9031358564971,243.29203117394354 127.52581778541207,237.5625947676599 127.114288341254,237.495583106298 127.30633541510906,237.9311586120166 132.272124042036,243.15801063895924 132.272124042036,242.52141220195335 129.44628852501046,239.67345370625844" stroke="#4DD2FF" stroke-linecap="round" stroke-linejoin="round" stroke-width="0.5"><title>2024-10-19 10.6km</title><desc>1729335763000</desc></polyline></svg>