<?xml version="1.0" encoding="utf-8" ?>
<svg baseProfile="full" height="300mm" version="1.1" viewBox="0,0,200,300" width="200mm" xmlns="http://www.w3.org/2000/svg" xmlns:ev="http://www.w3.org/2001/xml-events" xmlns:xlink="http://www.w3.org/1999/xlink"><defs /><rect fill="#222222" height="300" width="200" x="0" y="0" /><text fill="#FFFFFF" style="font-size:12px; font-family:Arial; font-weight:bold;" x="10" y="20">Over 10km Runs</text><text fill="#FFFFFF" style="font-size:4px; font-family:Arial" x="10" y="280">Runner</text><text fill="#FFFFFF" style="font-size:9px; font-family:Arial" x="10" y="290">unsung</text><text fill="#FFFFFF" style="font-size:4px; font-family:Arial" x="65" y="280">SPECIAL TRACKS</text><rect fill="yellow" height="2.6" width="2.6" x="65" y="283" /><text fill="#FFFFFF" style="font-size:3px; font-family:Arial" x="70" y="285.5">Over 20.0 km</text><rect fill="red" height="2.6" width="2.6" x="65" y="287" /><text fill="#FFFFFF" style="font-size:3px; font-family:Arial" x="70" y="289.5">Over 40.0 km</text><text fill="#FFFFFF" style="font-size:4px; font-family:Arial" x="120" y="280">STATISTICS</text><text fill="#FFFFFF" style="font-size:3px; font-family:Arial" x="120" y="285">Number: 35</text><text fill="#FFFFFF" style="font-size:3px; font-family:Arial" x="120" y="290">Weekly: 1.8</text><text fill="#FFFFFF" style="font-size:3px; font-family:Arial" x="141" y="285">Total: 421.2 km</text><text fill="#FFFFFF" style="font-size:3px; font-family:Arial" x="141" y="290">Avg: 12.0 km</text><text fill="#FFFFFF" style="font-size:3px; font-family:Arial" x="167" y="285">Min: 10.0 km</text><text fill="#FFFFFF" style="font-size:3px; font-family:Arial" x="167" y="290">Max: 21.1 km</text><polyline fill="none" points="22.195696019683965,31.714285714289872 22.10695770359598,32.17487169559172 26.499504351057112,36.699400697863894 31.956910791923292,43.85176095586212 31.75724958081264,44.4206887849723 26.787903878372163,47.184031735683675 17.11542742222082,33.39406525695813 28.91762346518226,50.81425340438727 26.943195931613445,47.373671654146165 32.045649108011276,44.36650524518336 34.53032195917331,47.346580247118254 35.41770512040239,47.78004236120614 37.12591770547442,50.1369777576474 34.30847616889514,56.530377353628865 34.397214484983124,57.39726478436205 31.24700426310301,61.487844067567494 29.671899152104743,62.57142857143481 31.180450526066124,61.54202341866039 34.41939906415064,57.6139861119882 34.33066074794624,56.61164819430269 37.170286863460205,50.24534200031485 27.453441249323077,37.430902693173266 22.217880598735064,31.79556566296378 21.996034808340482,31.985218760484713 26.72135014133528,36.94323496478319 31.934726212988608,43.90594462167064 31.66851126460824,44.44778054994822 26.810088457539678,47.156940305416356 17.11542742222082,33.285692767749424 28.91762346518226,50.81425340438727 26.921011352562346,47.346580247118254 32.134387424215674,44.39359701669309 34.375029905932024,47.129848871947615 35.37333596230019,47.698768279427895 37.05936396843754,50.08279561648669 34.41939906415064,56.25947433557303 34.286291589960456,57.5868959576037 31.24700426310301,61.43366470315959 29.649714573053643,62.54433902350138 31.269188842154108,61.4065750160662 34.375029905932024,57.50562547464506 34.44158364308532,56.28656465225504 37.10373312642332,50.46207032659731 35.12930559285451,47.45494585517736" stroke="#4DD2FF" stroke-linecap="round" stroke-linejoin="round" stroke-width="0.5"><title>2025-06-26 10.0km</title><desc>1750889907000</desc></polyline><polyline fill="none" points="56.62101581855677,32.54831948247738 60.93886336078867,37.20270790666109 68.64930540055502,47.45277664922469 69.44237943878397,47.74870329648547 71.20476619072724,50.25061267163255 68.42900705651846,56.65321887010941 68.4950965596363,57.54096047775238 65.36686007492244,61.495402288943296 63.846801501349546,62.54452797854901 65.47700924705714,61.41470010555349 68.51712639408652,57.62166408255871 68.42900705651846,56.733922800660366 71.24882585962769,50.196808468477684 61.40148988307919,37.337226338437176 56.378687640069984,31.956424876101664 56.22447879938409,32.144755150948185 60.96089319512248,37.25651528919116 68.71539490367286,47.506581523804925 69.53049877646845,47.31826440522855 68.91366341337562,47.29136194648163 60.89480369200464,36.71844087072532 56.46680697775446,32.03713787079323 56.13635946169961,32.35998955332616 56.88537383126095,32.7635534897272 60.89480369200464,37.095093101932434 68.71539490367286,47.47967908812279 69.48643910768442,47.29136194648163 69.08990208851174,47.47967908812279 60.9829230295727,36.8529595987784 56.59898598422296,32.198563771293266 55.89403128332924,32.090946517448174 56.48883681220468,32.35998955332616 60.872773857670836,37.095093101932434 68.80351424124092,47.31826440522855 69.61861811403651,47.31826440522855 69.00178275082726,47.398971761460416 60.8507440231042,36.71844087072532 56.334627971285954,31.714285714289872 56.29056830261834,32.198563771293266 60.91683352633845,37.20270790666109 71.20476619072724,50.25061267163255 68.45103689085227,56.62631755335315 68.51712639408652,57.54096047775238 65.4329495781567,61.441600836697035 63.80274183268193,62.57142857143481 65.34483024058864,61.54920372807828 67.87826119642705,58.50940178114979 69.61861811403651,54.23208718159003" stroke="#4DD2FF" stroke-linecap="round" stroke-linejoin="round" stroke-width="0.5"><title>2025-06-25 10.5km</title><desc>1750804247000</desc></polyline><polyline fill="none" points="95.03065368998796,31.714285714289872 95.69619114208035,31.95812547073001 95.16376118047629,31.79556566287647 95.07502285344526,32.174871695562615 99.48975462000817,36.80777151613438 104.8584234014852,43.87885279020702 104.45910093013663,44.5019640695682 99.73378501913976,47.15694030521263 89.95038447098341,33.36697213954176 101.81913570279721,50.81425340408168 99.80033876432572,47.40076305749244 105.01371547370218,44.393597016474814 107.40965030191,47.319488836539676 108.34140273497906,47.78004236097331 109.98306178383064,50.1098866884131 107.23217364796437,56.47619677624607 107.32091197476257,57.397264784172876 104.19288594927639,61.379485325465794 102.57341148203705,62.54433902334131 104.08196304051671,61.51493374463462 107.32091197476257,57.45144513595733 107.165619902662,56.74709952912235 110.049615529133,50.13697775741457 99.71160043752752,36.64521526855242 95.00846910814289,31.768472350013326 94.89754619949963,32.039405329938745 99.60067752876785,36.970327644390636 104.83623881975655,43.824669117762824 104.65876216581091,44.36650524487777 99.5784929470392,47.15694030521263 89.99475363444071,33.28569276766211 101.88568944809958,50.787162418011576 99.82252334617078,47.373671653840574 105.01371547370218,44.36650524487777 107.40965030191,47.292397422963404 108.40795648016501,47.834225065555074 109.98306178383064,50.05570454064582 107.2099890661193,56.63873846772185 107.29872739315033,57.42435496172402 104.14851678581908,61.433664703014074 102.57341148203705,62.57142857143481 104.12633220409043,61.460754386906046 107.25435822957661,57.58689595742908 107.2099890661193,56.66582873807056 110.049615529133,50.46207032626262 108.00863400881644,47.373671653840574" stroke="#4DD2FF" stroke-linecap="round" stroke-linejoin="round" stroke-width="0.5"><title>2025-06-23 10.0km</title><desc>1750631203000</desc></polyline><polyline fill="none" points="131.37937265005894,31.714285714289872 136.42857142863795,37.41883417511417 141.25533854274545,43.85664853602066 141.0106637121644,44.42707878051442 136.1171670986805,47.19771912226861 126.37466020439751,33.37133632422774 138.20802474254742,50.837527421463165 136.22838293074165,47.41502278498956 141.41104070772417,44.42707878051442 143.81330268154852,47.33353393639845 144.68078617216088,47.65948915135232 146.4379963198444,50.21278844750486 143.61311418388505,56.595908241171855 143.59087101742625,57.709540129988454 140.5658003835706,61.512143511194154 138.96429240098223,62.57142857143481 140.49907088431064,61.5664659448812 143.76881634874735,57.519408251639106 143.7020868494874,56.514422761742026 146.48248265264556,50.13130062560958 136.51754409412388,37.147192333985004 131.53507481503766,31.768615438515553 131.2903999844566,31.985934202806675 136.00595126650296,36.95704284743988 141.21085220982786,43.82948515446333 141.07739321142435,44.37275215363479 136.16165343148168,47.14339317336271 126.37466020439751,33.31700699220528 138.2302679088898,50.86468994565075 136.27286926354282,47.360696889300016 141.3887975413818,44.42707878051442 143.81330268154852,47.33353393639845 144.68078617216088,47.68665206435253 146.34902365400922,49.99548752277042 143.61311418388505,56.623070060959435 143.6798436830286,57.519408251639106 140.54355721722823,61.457821064163 138.96429240098223,62.57142857143481 140.7659888813505,61.26769239506393 143.74657318228856,57.519408251639106 143.61311418388505,56.758879110362614 146.46023948618677,50.07697539450601 136.5397872606991,37.09286392586364 131.53507481503766,31.768615438515553 131.31264315079898,31.985934202806675 135.85024910152424,36.73972894906183 141.1663658770267,43.77515838148247 141.05515004496556,44.34558883527643 136.18389659782406,47.14339317336271 126.39690337085631,33.28984232114453 138.2747542418074,50.86468994565075 136.22838293074165,47.360696889300016 141.41104070772417,44.399915468733525 143.81330268154852,47.33353393639845 144.6585430058185,47.68665206435253 146.37126682058442,50.07697539450601 143.59087101742625,56.623070060959435 143.7020868494874,57.492246541471104 140.5658003835706,61.43065983573615 138.96429240098223,62.57142857143481 140.52131405065302,61.484982289301115 143.16825085529126,58.279934788297396 143.76881634874735,57.41076139091456 143.61311418388505,56.78604091019952 144.0802206787048,55.78105210130161" stroke="#4DD2FF" stroke-linecap="round" stroke-linejoin="round" stroke-width="0.5"><title>2025-06-21 15.0km</title><desc>1750457084000</desc></polyline><polyline fill="none" points="168.14143775927369,31.714285714289872 167.7880359721603,32.11890906166809 172.1834707002854,36.67761412622349 177.66119840182364,43.93358338555845 177.5286727315979,44.4460777616041 172.66939815762453,47.22431601466087 171.0570025036577,45.41711647040211 162.84041095140856,33.467648189733154 174.54684515215922,50.59591735941649 172.64731054601725,47.38615405721066 177.81581168377306,44.473051116787246 180.24544897070155,47.35918105831661 181.17312866204884,47.763775694416836 182.80761192773934,50.19132792016899 180.04666046530474,56.556782389161526 180.06874807714485,57.60868302016752 176.954394827364,61.46560907042294 175.40826200856827,62.57142857143481 177.10900810942985,61.30378136120271 180.1350109121995,57.581711271748645 180.04666046530474,56.63769800036971 182.85178715118673,50.16435526452551 172.86818666302133,37.10920262048603 168.05308731261175,31.957059811771614 167.81012358388398,32.17285878522671 172.29390875878744,36.78551132895518 177.68328601354733,44.0145036294125 177.3740594497649,44.553971162677044 172.60313532256987,47.251289030056796 162.88458617485594,33.440673488003085 174.54684515215922,50.56894475319132 172.66939815762453,47.413127052699565 177.83789929538034,44.4460777616041 180.26753658230882,47.27826204201847 181.15104105032515,47.763775694416836 182.80761192773934,50.1104099432705 180.09083568875212,56.50283863169898 180.1350109121995,57.500796006876044 177.08692049758974,61.35772394419473 175.47452484362293,62.54445743012184 177.06483288598247,61.38469523069216 180.15709852380678,57.52776776510291 180.09083568875212,56.610726133265416 182.87387476291042,50.54197214372107 180.1350109121995,46.54998955888732" stroke="#4DD2FF" stroke-linecap="round" stroke-linejoin="round" stroke-width="0.5"><title>2025-06-20 10.0km</title><desc>1750370921000</desc></polyline><polyline fill="none" points="22.26653069315944,66.0 22.155705092009157,66.4872514854942 26.610894257435575,71.14315600479313 31.93052311183419,78.15389714654884 31.753202150110155,78.69525787948805 26.854710579966195,81.48324467803468 17.14638792083133,67.75951419379271 28.916066761128604,85.11028171992803 26.965536181116477,81.69978587175137 32.10784407367464,78.74939387994527 34.52384217840154,81.61858294895501 35.41044698737096,81.99752966719097 37.07283100450877,84.40653291286435 34.34652121656109,90.84845769451931 34.36868633667473,91.79578375672281 31.332064865739085,95.66624524827057 29.691845968947746,96.85714285714494 31.24340438481886,95.80157484475058 34.45734681771137,91.79578375672281 34.28002585587092,91.0649897234689 37.16149148531258,84.43360021609988 27.25368274410721,71.52212066516222 22.22220045258291,66.08120865543606 22.177870212122798,66.46018198665115 27.00986642157659,71.6033272935747 31.908357991604134,78.15389714654884 31.64237654884346,78.77646187524078 26.965536181116477,81.4291093464999 25.214491683174856,79.48022858948389 17.12422280048486,67.59709808524349 28.893901640782133,85.05614727576904 26.965536181116477,81.67271823415649 32.04134871298447,78.74939387994527 34.54600729851518,81.59151530142117 35.43261210760102,82.02459726503002 37.09499612462241,84.35239829659986 34.32435609633103,90.9025907216128 34.3908514570212,91.79578375672281 31.287734625278972,95.74744301609462 29.691845968947746,96.8030112866254 31.287734625278972,95.72037709673168 34.32435609633103,91.95818210298603 34.32435609633103,90.95672373544949 37.16149148531258,84.73134033277165 34.61250265920535,81.13136478621163" stroke="#4DD2FF" stroke-linecap="round" stroke-linejoin="round" stroke-width="0.5"><title>2025-06-17 10.0km</title><desc>1750111475000</desc></polyline><polyline fill="none" points="58.43118463945575,66.27117110783001 58.742041723802686,66.18981981032994 58.63102133653592,66.56945894322416 63.027428673696704,71.07084480699268 68.33420318667777,78.0939088291052 67.82350940513425,78.88026121746225 63.116244983510114,81.37487791660533 53.5462875982048,67.59990474025835 65.35885680699721,85.08963553306239 63.427102067973465,81.64603021387302 68.64506027114112,78.69045227571041 70.90987617208157,81.48333887533227 71.82024334790185,81.97141253283189 73.52995731239207,84.38464982286678 70.77665170724504,90.89212504959141 70.90987617208157,91.67843203623488 67.73469309520442,95.7183791265561 66.11379544064403,96.83002950286027 67.62367270793766,95.82683306728723 70.8432639396051,91.86822985656909 70.75444762979168,91.054809482579 73.59656954475213,84.35753494311939 63.24946944823023,70.85391264541249 58.67542949144263,66.0 58.54220502672251,66.35252237554232 63.16065313841682,71.20642730023246 68.42301949649118,78.28371828176023 63.2716735258,81.42910840263357 53.5462875982048,67.59990474025835 65.44767311681062,85.11675032327184 63.427102067973465,81.64603021387302 68.5562439612113,78.66333669929008 70.9320802494185,81.4562236405909 71.7980392704485,81.9171821794298 73.55216138972901,84.27619028381014 70.82105986215174,90.78366869466845 70.77665170724504,91.86822985656909 67.71248901775107,95.74549261675566 66.15820359555073,96.85714285714494 67.69028494029772,95.79971958707029 70.86546801717486,91.81400192443107 70.77665170724504,91.0005813515163 73.57436546729878,84.38464982286678 63.76016322989017,71.47759203777241" stroke="#4DD2FF" stroke-linecap="round" stroke-linejoin="round" stroke-width="0.5"><title>2025-06-15 10.5km</title><desc>1749940293000</desc></polyline><polyline fill="none" points="95.06393056246452,66.0 99.56740065605845,71.20185656726244 104.80296194716357,78.19165890708973 104.66985445667524,78.62512775576033 99.74487731000409,81.44265459092276 89.96147676184773,67.67977954253729 101.76367424847558,85.0728767037217 99.83361563703511,81.68647734320257 105.04699234629516,78.70640307046415 107.42074259277433,81.632294532581 108.24157211720012,81.95739119764767 109.99415407469496,84.50396523004747 107.19889677525498,90.92445275343198 107.287635102286,91.71006924743415 104.15960907668341,95.7193789887242 102.56231919128913,96.85714285714494 104.18179365841206,95.7193789887242 107.30981968401466,91.81842992443126 107.19889677525498,91.03281381483248 110.03852323826868,84.34141882635595 100.38823018048424,71.77080221552751 95.01956139900722,66.0 95.24140721641015,66.65023875392217 99.63395440136082,71.25604193010076 104.80296194716357,78.13747524133942 104.62548529321793,78.6522195305879 99.56740065605845,81.38847172056558 90.0280305071501,67.57140705337224 101.87459715723526,85.0728767037217 99.85580021876376,81.632294532581 105.11354609159753,78.67931130218494 107.39855801092926,81.57811170867353 108.28594128054101,81.9844825649343 109.94978491123766,84.28723666518636 107.19889677525498,90.87027220283926 107.30981968401466,91.76424959253927 104.15960907668341,95.69228930158715 102.54013460944407,96.80296375780017 104.13742449495476,95.74646867261617 107.35418884747196,91.73715942166746 107.22108135698363,90.92445275343198 110.03852323826868,84.74778461197275 107.64258841006085,81.28010594016814" stroke="#4DD2FF" stroke-linecap="round" stroke-linejoin="round" stroke-width="0.5"><title>2025-06-13 10.0km</title><desc>1749765414000</desc></polyline><polyline fill="none" points="128.82140665012412,66.02716486385907 133.4924727421021,71.21559290729056 141.3443124111509,81.59208526558359 142.14506659843028,81.86371467783465 143.92452034784947,84.38985229705577 141.12188069254626,90.8816225266055 141.23309655184858,91.72363739657158 138.25251152168494,95.52624542890408 136.51754411600996,96.85714285714494 138.0745661468245,95.77069657489483 141.23309655184858,91.85944594760076 141.21085337991826,90.90878434640763 144.03573620715179,84.38985229705577 133.64817494526505,70.8896219401795 128.7991634781938,66.05432972431299 133.8928498358,71.56872758163081 141.2998260675231,81.51059637704748 142.21179611398838,81.94520343677141 143.92452034784947,84.308364435361 141.18861020822078,90.85446070341277 141.2553397237789,91.75079911337525 138.0968093186384,95.68921288948331 136.53978728794027,96.80282066922518 138.1190524904523,95.68921288948331 141.2553397237789,91.80512253710185 141.16636703629047,90.90878434640763 144.05797937896568,84.44417752159643 133.62593177333474,70.80812912363035 128.82140665012412,66.0 133.31452736724168,70.86245767127548 141.2998260675231,81.48343340761494 142.21179611398838,81.94520343677141 143.94676351966336,84.36268967976503 141.16636703629047,90.85446070341277 141.23309655184858,91.72363739657158 138.0968093186384,95.71637412127166 136.51754411600996,96.80282066922518 138.14129566238262,95.66205165440624 141.2553397237789,91.80512253710185 141.16636703629047,90.90878434640763 143.99124986340757,84.38985229705577 133.8928498358,71.13410021038726 129.04383836861234,66.0 128.97710885305423,66.3259781464003 133.58144542959053,71.16126444604015 135.67230358510278,73.93199902183551" stroke="#4DD2FF" stroke-linecap="round" stroke-linejoin="round" stroke-width="0.5"><title>2025-06-09 10.0km</title><desc>1749421393000</desc></polyline><polyline fill="none" points="165.30317873181775,66.29672386070888 165.4357044182252,66.0 165.34735396062024,66.64739699945494 169.9415777560789,71.28701986174565 177.164227665402,80.91662312796689 178.55574737268034,82.02251702724607 180.300668910495,84.45006954995915 177.49554188142065,90.97735601027671 177.67224279651418,91.7325667659461 174.46953870833386,95.7782946293155 172.94549331464805,96.85714285714494 174.55788916605525,95.67040951631498 177.69433041103184,91.78651029235334 177.56180472462438,91.00432786757301 180.34484413918108,84.5309875071398 171.11222131946124,72.31203965107852 165.30317873181775,66.2697489807615 169.96366537059657,71.34096839051927 177.69433041103184,81.61792234164022 178.5778349870816,82.02251702724607 180.32275652477983,84.50401485801558 177.56180472462438,90.95038414970622 177.56180472462438,91.89439730570302 174.55788916605525,95.69738079948002 172.92340570036322,96.85714285714494 174.5799767804565,95.69738079948002 177.69433041103184,91.81348205065296 177.53971711022314,91.03129972147872 180.43319459678605,84.50401485801558 170.09619105700403,71.04425131881726 165.30317873181775,66.24277409756905 169.91949014167767,71.28701986174565 177.6280675678281,81.53700331546133 178.64409783028532,82.07646292925347 180.32275652477983,84.45006954995915 177.53971711022314,90.95038414970622 177.65015518222935,91.75953853080864 174.49162632285152,95.75132335606031 172.92340570036322,96.8301717156719 174.55788916605525,95.69738079948002 177.60597995331045,91.92136905074585 177.53971711022314,91.13918710427242 180.34484413918108,84.45006954995915 170.27289197221398,71.20609704378876 165.2810911174165,66.215799210986 169.91949014167767,71.26004559238208 177.20840289420448,80.9705693005235 178.59992260148283,82.04948997995234 180.32275652477983,84.45006954995915 177.56180472462438,90.89644041872816 177.5176294958219,91.97531253093621 174.46953870833386,95.75132335606031 172.90131808584556,96.8301717156719 174.44745109404903,95.83223716613429 177.69433041103184,91.81348205065296 177.56180472462438,91.00432786757301 180.34484413918108,84.88163164485013 180.21231845277362,84.18034281174187 177.53971711022314,80.78175763881882" stroke="#4DD2FF" stroke-linecap="round" stroke-linejoin="round" stroke-width="0.5"><title>2025-06-07 12.0km</title><desc>1749247836000</desc></polyline><polyline fill="none" points="19.895039852242917,100.28571428571013 19.6967712942278,100.95832241013704 24.12476909183897,105.58581053497619 31.945362216793,115.91659543155401 32.98076468706131,116.48154623445589 34.58894299156964,118.82204124264535 31.79115333838854,125.3053513718769 31.90130253729876,126.08548784068262 28.773065287270583,130.03993013579748 27.208946662256494,131.1159565498383 28.773065287270583,130.06683086024714 31.945362216793,126.16619145544246 31.835213017999195,125.33225267546368 34.699092190596275,118.92964960960671 24.455216688569635,105.47819563814846 19.586622095201164,100.63547076712712 24.30100781004876,105.74723278154852 31.923332377220504,115.86279051746533 32.87061548803467,116.34703427016211 34.58894299156964,118.76823703941773 31.813183178193867,125.22464744123863 31.90130253729876,126.08548784068262 28.79509512707591,130.01302940794267 27.208946662256494,131.1159565498383 28.773065287270583,130.120632299484 31.98942189652007,126.08548784068262 31.879272697493434,125.22464744123863 34.72112203028519,118.90274752283585 24.54333604767453,105.58581053497619 19.652711614617147,100.52785344753647 24.278977970359847,105.72032908206165 31.923332377220504,115.86279051746533 32.848585648229346,116.29322946142929 34.58894299156964,118.79513914271956 31.79115333838854,125.25154875469161 31.90130253729876,126.08548784068262 28.706975767971016,130.03993013579748 27.25300634186715,131.14285714285506 28.706975767971016,130.14753301409655 31.967392056714743,126.08548784068262 31.835213017999195,125.35915397573262 34.67706235079095,118.92964960960671 24.63145540689584,105.72032908206165 19.850980172748677,100.5816621138656 19.564592255395837,100.74308803414169 24.278977970359847,105.6934253792424 26.768349866499193,108.97565282786672" stroke="#4DD2FF" stroke-linecap="round" stroke-linejoin="round" stroke-width="0.5"><title>2025-06-05 10.1km</title><desc>1749073951000</desc></polyline><polyline fill="none" points="56.1533307536738,100.28571428571013 56.04211489437148,100.61169243211043 60.557478783419356,105.3654860148672 71.07849907653872,118.6755665827659 68.23137307760771,125.24882226189948 68.40931845246814,125.95502823861898 65.25078804744408,130.00208840698178 63.67152284481563,131.14285714285506 65.27303121925797,130.00208840698178 68.38707528053783,126.14516023331089 68.32034576497972,125.24882226189948 71.16747176402714,118.70272919665149 60.91336953325663,105.31115752033656 55.97538537881337,100.34004401002312 60.713180986465886,105.50130719300068 71.07849907653872,118.78421701854677 68.25361624942161,125.19449863211776 68.38707528053783,126.0093516822817 65.25078804744408,129.97492717519344 63.649279672885314,131.11569605047407 65.22854487551376,130.05641086060496 68.40931845246814,126.09083682281198 68.36483210884035,125.16733681231563 71.12298542028293,118.64840396547515 60.95785587700084,105.3654860148672 55.97538537881337,100.39437372110842 60.62420829909388,105.44697873175028 71.07849907653872,118.6755665827659 68.25361624942161,125.19449863211776 68.38707528053783,125.98218996211654 65.18405853176955,130.05641086060496 63.649279672885314,131.11569605047407 65.18405853176955,130.083572082498 68.40931845246814,126.1179985297349 68.32034576497972,125.19449863211776 71.16747176402714,118.83854221644287 61.29150345502421,105.77294930005155 56.309032956836745,100.36720886721741 56.01987172255758,100.53019794043212 59.534292877535336,104.11592727738025 62.80403914197814,108.24487720085017" stroke="#4DD2FF" stroke-linecap="round" stroke-linejoin="round" stroke-width="0.5"><title>2025-06-03 10.0km</title><desc>1748953280000</desc></polyline><polyline fill="none" points="92.3794177727541,100.44899085754878 97.10328745748848,105.37444442520791 107.5760174189927,118.68078741105273 104.79071689734701,125.07516804061015 104.81299930147361,126.05471649715037 101.82715714222286,129.8912397552922 100.13369442499243,131.14285714285506 101.76030992972665,129.91844890378707 104.90212891809642,126.00029725159402 104.81299930147361,125.18400697095785 107.59829982323572,118.7079979308619 97.28154669085052,105.12953494641988 92.44626498525031,100.28571428571013 97.10328745748848,105.34723227424547 107.5760174189927,118.65357688798395 104.768434493104,125.15679724339861 104.79071689734701,126.05471649715037 101.69346271723043,130.00007632935012 100.13369442499243,131.11564814398298 101.78259233385324,129.91844890378707 104.85756410984322,126.10913572937716 104.81299930147361,125.15679724339861 107.5760174189927,118.65357688798395 97.63806515769102,105.56492938892916 92.44626498525031,100.31292705603119 97.08100505324546,105.32002011989243 107.5760174189927,118.65357688798395 104.79071689734701,125.15679724339861 104.85756410984322,126.02750687599473 101.76030992972665,129.9456580490223 100.13369442499243,131.11564814398298 101.78259233385324,129.9456580490223 104.90212891809642,126.05471649715037 104.83528170560021,125.04795829975046 107.6205822272459,118.84405047977634 97.79404198692646,105.75541418949433 92.7359362395946,100.28571428571013 92.55767700623255,100.58505457582942 97.1701346701011,105.42886871722294 99.68804634152912,108.69430186614045" stroke="#4DD2FF" stroke-linecap="round" stroke-linejoin="round" stroke-width="0.5"><title>2025-05-31 10.0km</title><desc>1748691698000</desc></polyline><polyline fill="none" points="129.02922060410492,100.28571428571013 128.9187825320987,100.74428735670517 133.44674348435365,105.4108884818852 141.39828466891777,115.9845556239161 142.19343878736254,116.28125835699029 143.91627271065954,118.76275649138552 141.0669704528991,125.31701400718885 141.2657589823939,126.01828105165623 138.1734929663362,129.92915251545492 136.53900950052775,131.11588600138202 138.08514250873122,130.010066365081 141.28784659691155,126.04525281651877 141.1553209105041,125.31701400718885 144.00462316826452,118.76275649138552 133.5792691707611,105.24904269751278 128.85251968889497,100.52848838327918 133.55718155647628,105.54575987809221 141.39828466891777,115.95758262833988 142.23761401616503,116.3082313129562 143.93836032506078,118.76275649138552 141.17740852490533,125.1012390833348 141.19949613919016,126.12616809130122 138.10723012313247,130.010066365081 136.58318472944666,131.11588600138202 138.1293177374173,129.98309508519014 141.17740852490533,126.12616809130122 141.17740852490533,125.15518283403071 144.00462316826452,118.87064708111575 134.13145953090861,105.89642512210412 128.87460730329622,100.47453860692622 133.5792691707611,105.5997084134724 141.33202182571404,115.90363662735035 142.2817892449675,116.3621772149636 143.91627271065954,118.73578383566928 141.0669704528991,125.26307029598684 141.22158375370782,126.04525281651877 138.08514250873122,130.06400891502562 136.53900950052775,131.11588600138202 138.0188796655275,130.09098018509394 141.24367136810906,126.20708333645598 141.19949613919016,125.23609843541635 143.98253555386327,118.81670179284993 134.0872843019897,105.84247665930889 128.87460730329622,100.52848838327918 133.38048064126633,105.30299130550702 141.1111456817016,115.63390642455488 142.14926355856005,116.28125835699029 143.87209748185705,118.68183851447247 141.08905806730036,125.20912657161534 141.22158375370782,126.01828105165623 138.08514250873122,130.03703764177044 136.51692188624293,131.14285714285506 138.23975580953993,129.87520993259386 141.2657589823939,126.0991963363631 141.1553209105041,125.29004215328314 143.98253555386327,118.81670179284993 133.9768462299835,105.76155394042144 128.85251968889497,100.55546326647163 133.55718155647628,105.5997084134724 141.24367136810906,115.82271760117146 142.21552640176378,116.38915016099054 143.93836032506078,118.87064708111575 141.1111456817016,125.20912657161534 141.24367136810906,126.04525281651877 138.1734929663362,129.92915251545492 136.49483427172527,131.14285714285506 138.08514250873122,130.06400891502562 141.17740852490533,126.23405507819552 141.13323329610284,125.31701400718885 143.98253555386327,118.81670179284993" stroke="#4DD2FF" stroke-linecap="round" stroke-linejoin="round" stroke-width="0.5"><title>2025-03-01 15.0km</title><desc>1740782421000</desc></polyline><polyline fill="none" points="163.48312835767865,100.31875379750272 163.88892985123675,100.28571428573923 163.78071611956693,100.88042487995699 169.4078301625559,106.76138134807115 178.84947824431583,119.31580368362484 179.98572242609225,119.84439813546487 182.09589019219857,122.8177226492553 178.6330507810926,131.14285714286962 182.17705049086362,122.88379615545273 169.70541792432778,106.59618768995279 163.78071611956693,100.58306974652805 169.48899046122096,106.82745878299465 178.9306385429809,119.41491522212164 179.93161556031555,119.81136101257289 182.09589019219857,122.75164912673063 178.5789439153159,131.10982140206033 182.23115735664032,122.94986964555574 170.00300568633247,106.95961360429646 163.9700901497854,100.51699078353704 163.64544895512518,100.64914869333734 169.7595247902209,107.12480704000336 178.87653167708777,119.31580368362484 180.03982929175254,119.91047236917075 182.04178332630545,122.75164912673063 178.60599734820426,131.10982140206033 182.23115735664032,122.9829063845973 170.13827285089064,107.09176836098777 164.10535731434356,100.61610922191176 163.6183955221204,100.61610922191176 169.51604389422573,106.89353620170732 178.95769197586924,119.41491522212164 179.98572242609225,119.81136101257289 182.09589019219857,122.78468589001568 178.5789439153159,131.0767856571474 182.20410392375197,122.94986964555574 169.4619370283326,106.29883885080926" stroke="#4DD2FF" stroke-linecap="round" stroke-linejoin="round" stroke-width="0.5"><title>2025-02-25 10.0km</title><desc>1740436543000</desc></polyline><polyline fill="none" points="18.25981986266561,134.57142857144936 18.043160416767932,135.16677654685918 23.649223578395322,141.0209617979708 33.20932162681129,153.72113123137387 34.21137156395707,154.15107444298337 36.29671873035841,156.99529692804208 32.80308516591322,165.3955002776638 36.37796602258459,157.0614412809664 24.028377608628944,141.0209617979708 17.85358340165112,134.8360278334876 23.56797628616914,140.92173937527696 33.18223919603042,153.68805864822934 34.400948579073884,154.34950954082888 36.26963629957754,157.0614412809664 32.77600273513235,165.36242912264424 36.35088359180372,157.0945134514186 23.622141147614457,140.52484932058724 17.90774826298002,134.8360278334876 23.51381142460741,140.88866522634635 32.36976627423428,152.69587927500834 34.21137156395707,154.21721949189669 36.26963629957754,157.02836910646874 32.80308516591322,165.36242912264424 36.35088359180372,157.0945134514186 24.434614069527015,141.45092520839535 17.88066583231557,134.8360278334876 23.649223578395322,140.9878876611183 33.12807433470152,153.6549860611849 34.23845399462152,154.18414696940454 36.35088359180372,157.0945134514186 32.85725002735853,165.2962868004979 36.40504845324904,157.2268020924821 24.217954623745754,141.21940653389902 18.286902293213643,134.86910272299428 17.90774826298002,134.93525249004597 23.811718162731268,141.21940653389902 33.01974461169448,153.4565504535276 34.26553642540239,154.18414696940454 36.32380116113927,157.0614412809664 32.83016759657767,165.42857142857974 36.43213088391349,157.45830705866683 34.15720670251176,154.08492937806295" stroke="#4DD2FF" stroke-linecap="round" stroke-linejoin="round" stroke-width="0.5"><title>2025-02-22 12.0km</title><desc>1740177306000</desc></polyline><polyline fill="none" points="54.492893428890966,134.57142857142026 54.330049749230966,135.06861770054093 59.92101608507801,140.90223531442462 69.28452766709961,153.39768669143086 70.66869894450065,154.25942071553436 72.67710432724562,157.010322529095 69.17596521403175,165.36228702578228 72.78566678031348,157.10975219216198 60.46382835076656,141.0016708894691 54.68287772173062,134.8365962204698 54.24862790934276,134.8365962204698 60.43668773747049,141.53199333965313 69.5287931865314,153.6628359137976 70.56013649131637,154.12684642864042 72.73138555383775,157.10975219216198 69.23024644062389,165.39542922921828 72.75852616725024,157.04346575419186 60.02957853814587,140.47134740112233 54.65573710866738,134.73715838245698 54.27576852263883,134.869742158422 59.839594245306216,140.80279970297124 69.44737134675961,153.5965486326022 70.58727710472886,154.1599900064757 72.73138555383775,157.0766089752433 69.25738705391996,165.42857142857974 72.75852616725024,157.04346575419186 60.382406510878354,140.83594491091208 54.27576852263883,134.7703043325455 60.11100037803408,141.13425159928738 69.58307441323996,153.69597954841447 70.6958395576803,154.29256427718792 72.70424494054168,157.010322529095 69.20310582732782,165.36228702578228 72.81280739372596,157.0766089752433 60.57239080383442,141.10110642793006 54.27576852263883,134.7703043325455 59.94815669837408,140.93538051020005 69.47451196005568,153.56340498581994 70.56013649131637,154.12684642864042 72.73138555383775,157.10975219216198 69.23024644062389,165.36228702578228 72.78566678031348,156.9771793000109 60.24670344439801,140.70336405502167 54.330049749230966,134.73715838245698 59.758172405534424,140.70336405502167 69.50165257346816,153.53026133510866 70.6144177177921,154.12684642864042 72.67710432724562,157.04346575419186 69.25738705391996,165.42857142857974 72.89422923361417,157.2423250194406 62.58079618657939,143.7195624730375" stroke="#4DD2FF" stroke-linecap="round" stroke-linejoin="round" stroke-width="0.5"><title>2025-02-05 15.0km</title><desc>1738709514000</desc></polyline><polyline fill="none" points="90.9388722339645,134.57142857144936 90.88453263731208,135.20187845046166 96.42717151052784,141.04176555620506 105.88226135319564,153.61700458583073 107.0505626843078,154.18105177630787 109.14263716095593,157.1008067158109 105.6920727645047,165.42857142857974 109.27848615299445,157.16716441733297 96.88905808329582,141.0085847347218 91.1562306212727,134.80369975001668 90.6671742501203,134.77051816522726 96.56302050256636,141.10812718697707 105.80075195804238,153.45110813016072 107.0233928860398,154.14787256217096 109.14263716095593,157.13398556856555 105.6920727645047,165.39539359044284 109.25131635461003,157.1008067158109 96.72603929287288,140.77631887045573 90.69434404850472,134.80369975001668 96.59019030083437,141.14130799632403 105.77358215965796,153.3847495194641 106.99622308753897,154.11469334407593 109.14263716095593,157.0344489980489 105.63773316761944,165.36221574817318 109.27848615299445,157.6316678733565 109.16980695945676,157.00127013304154 96.99773727694992,141.07494637361378 91.12906082288828,134.77051816522726 90.69434404850472,134.870062907401 96.40000171214342,140.9422230795317 105.9366009500809,153.65018386475276 107.10490228107665,154.21423098619562 109.16980695945676,157.06762785898172 105.66490296612028,165.39539359044284 109.2241465562256,157.0344489980489 96.67169969610404,140.67677629637183 91.12906082288828,134.77051816522726 90.69434404850472,134.9032444799377 96.4815111074131,141.04176555620506 105.80075195804238,153.41792882679147 107.0233928860398,154.14787256217096 109.11546736257151,157.00127013304154 105.66490296612028,165.36221574817318 109.3328257498797,157.39941624479252 106.47999691800214,153.65018386475276" stroke="#4DD2FF" stroke-linecap="round" stroke-linejoin="round" stroke-width="0.5"><title>2025-02-04 12.0km</title><desc>1738622138000</desc></polyline><polyline fill="none" points="124.16327710496262,134.57142857144936 124.16327710496262,135.63002910793875 132.91801015590318,144.78681563062128 148.39048391394317,165.42857142857974 148.95390732819214,165.37564510901575 148.73720601480454,164.68760236541857 133.43809330719523,144.6280290763534 124.29329789290205,134.94193905388238 123.8598952665925,135.36537921684794 133.09137120633386,144.94560212650686 148.43382417666726,165.42857142857974 148.78054627752863,164.79345516642206 133.35141278221272,144.4692424638779 124.46665894333273,135.04779913357925 123.98991605453193,135.36537921684794 133.0480309438426,144.89267330104485 148.39048391394317,165.3227187829616 148.95390732819214,165.37564510901575 148.73720601480454,164.63467595525435 134.08819724689238,145.36903249722673 124.50999920605682,135.10072916356148 123.90323552931659,135.36537921684794 133.82815567101352,145.89831987803336 148.30380338872783,165.21686611152836 149.0405878534075,165.1110134141345 148.34714365145192,164.10541149703204 133.35141278221272,144.6280290763534 124.37997841835022,134.94193905388238 123.94657579180785,135.31244921908365 133.78481540852226,145.739533731743 148.34714365145192,165.37564510901575 148.82388654048555,164.79345516642206 133.61145435785875,144.78681563062128 124.37997841835022,134.99486909693223 123.81655500386842,135.36537921684794 133.35141278221272,145.31610372362775 148.30380338872783,165.3227187829616 148.60718522709794,164.52882311536814 135.34506486309692,147.00982126963208 124.37997841835022,134.94193905388238 123.90323552931659,135.36537921684794 132.78798936796375,144.6280290763534 148.30380338872783,165.2697924505046 148.82388654048555,164.84638155734865 143.3196731864009,157.33076924510533 129.62415019609034,140.55248757268419" stroke="#4DD2FF" stroke-linecap="round" stroke-linejoin="round" stroke-width="0.5"><title>2025-01-23 11.4km</title><desc>1737585341000</desc></polyline><polyline fill="none" points="163.63776993728243,134.57142857144936 163.74703657941427,135.1719252082985 169.42890196410008,141.11009852399002 178.85314983769786,153.6865891687048 179.97313291823957,154.28704370974447 182.0491991165327,157.08914741899935 178.71656653517857,165.36185704841046 182.21309907955583,157.25593839847716 170.08450181607623,141.31025941637927 163.9109365424374,134.70487238271744 163.50118663476314,134.77159426402068 169.26500200096052,140.94329766812734 178.77119985618629,153.58651328334236 180.02776623924728,154.28704370974447 182.1038324375404,157.18922201890382 178.5799832326593,165.42857142857974 182.21309907955583,157.2225802107714 169.89328519254923,141.0767383609491 163.58313661627471,134.73823332539177 169.4015853034798,141.0767383609491 178.8804664980853,153.7199477890681 179.94581625785213,154.186968044698 182.13114909816068,157.18922201890382 178.634616553667,165.36185704841046 182.21309907955583,157.25593839847716 169.7840185505338,140.97665784749552 163.528503295267,134.70487238271744 170.00255183444824,141.77730092708953 178.90778315870557,153.7199477890681 180.00044957885984,154.22032660388504 182.0491991165327,157.08914741899935 178.634616553667,165.29514265203034 182.18578241905198,157.18922201890382 169.51085194561165,140.64305587043054 163.88361988181714,134.67151143605588 163.528503295267,134.73823332539177 169.2103686799528,140.8098569099675 178.66193321405444,153.41972005949356 180.00044957885984,154.25368515882292 182.0491991165327,157.155863823049 178.634616553667,165.2617854476266 182.21309907955583,157.32265476172324 169.7840185505338,140.97665784749552 163.9655698633287,134.80495519845863 163.55581995577086,134.97175980967586 169.4562186243711,141.1434586829855 178.96241647959687,153.8200236254488 179.2628997451393,153.48643736127997 172.3244679773925,144.27929539815523" stroke="#4DD2FF" stroke-linecap="round" stroke-linejoin="round" stroke-width="0.5"><title>2025-01-18 14.0km</title><desc>1737153490000</desc></polyline><polyline fill="none" points="28.94478373104357,182.70984650474566 25.096140527632087,185.7065435911427 24.273374047741527,186.8769627823276 23.423408675938845,187.83984571998735 22.389850783889415,188.6865073707595 21.19989926335984,189.4169520803771 20.43153056729352,190.6537098744884 19.146382925158832,191.93194594698434 17.426053012663033,193.16865795720514 11.714285714289872,197.8662984172479 15.787319775903597,194.6377429697386 17.432852735655615,193.1935579678102 18.996789019729476,192.0979488672092 20.48592835108866,190.64540956166456 21.24069760122802,189.40865161644615 22.451048290648032,188.66990626334882 23.32821255433373,187.9643554481081 24.266574324748944,186.9350681741489 25.116539696522523,185.7148445074854 30.13473525151494,181.78009643467522 30.794308380020084,181.41483399622666 30.746710319217527,181.20729764465796 31.453881508525228,180.93334868949023 34.602153245621594,178.35153304167034 35.14613108357298,177.65417693067138 36.70326764465426,176.55831714440865 37.35604105019593,175.53715915315115 38.77038342884043,174.6654267665217 39.40955738842604,173.7770784401073 40.87829755083658,172.8306010799788 41.15028646981227,172.0003469187941 42.224642699729884,171.2697148586085 42.57142857144936,170.70513015417964 42.149845747015206,171.2780175398293 41.17068563873181,171.94222874729894 40.86469810490962,172.79739110843366 39.42995655734558,173.73556655181164 38.79078259775997,174.6156131492753 37.28124409748125,175.570367784705 36.71686709061032,176.52510899602203 35.15293080650736,177.6209693182027 34.58855379966553,178.3432312253426 32.75262859661598,179.8375418182477" stroke="#4DD2FF" stroke-linecap="round" stroke-linejoin="round" stroke-width="0.5"><title>2025-01-16 10.5km</title><desc>1736984045000</desc></polyline><polyline fill="none" points="51.19957856461406,168.8571428571595 51.41777697741054,169.92305643527652 60.36391190299764,179.1431000213779 75.63780079991557,199.5011177866836 76.20511667313986,199.66099374217447 76.0741976252757,198.96819751136354 61.847661110106856,180.3155771260208 51.63597539020702,169.17691720451694 51.1122991994489,168.8571428571595 50.981380151817575,169.4966913171229 60.276632537832484,179.08980553253787 75.63780079991557,199.66099374217447 76.1178373079747,199.12807366237394 61.7167420622427,180.15569407038856 51.41777697741054,168.96373433218105 50.981380151817575,169.4433956479188 60.36391190299764,179.1431000213779 75.59416111721657,199.66099374217447 75.98691826034337,198.91490544800763 61.97858015773818,180.52875444258098 51.5050563425757,169.0703257813293 50.93774046935141,169.4433956479188 60.23299285513349,179.08980553253787 75.59416111721657,199.6077017635689 76.16147699067369,199.66099374217447 76.03055794304237,199.0214895681711 62.76409444352612,181.4347568730591 51.461416659876704,168.96373433218105 50.981380151817575,169.4433956479188 60.189353172434494,179.03651103712036 75.59416111721657,199.71428571428987 76.20511667313986,199.71428571428987 76.0741976252757,199.0214895681711 60.80030872835778,178.929922026844 51.548696025274694,169.17691720451694 50.89410078688525,169.39009997219546 60.32027222029865,179.2496889793547 75.50688175205141,199.66099374217447 76.24875635560602,199.5544097784441 75.81235953001305,198.64844503311906 60.9312277759891,179.08980553253787 51.63597539020702,169.17691720451694 50.981380151817575,169.01703006008756 51.02501983451657,169.60328263568226 60.189353172434494,179.03651103712036 64.9460785719566,185.59168504358968 65.68795317551121,185.3252164789301 62.98229285655543,181.914404455747" stroke="#4DD2FF" stroke-linecap="round" stroke-linejoin="round" stroke-width="0.5"><title>2025-01-14 10.6km</title><desc>1736807801000</desc></polyline><polyline fill="none" points="94.9164809230424,187.33265852260956 92.60229635318683,189.13542430537564 91.63940137482132,190.3701489879386 90.95566502465226,190.93810967545141 90.29215756054327,191.33320805527546 89.8956713929947,192.0098050607703 88.98941729569924,192.9086244422615 88.03461387177231,193.5802566472521 86.84110959187092,194.61731386907195 84.57142857143481,196.40000244382827 86.61859184477362,194.81484556162832 88.0588885351026,193.57531821589146 88.91659330573748,192.9827020712255 89.87139672967896,192.05919125998116 90.33261533276527,191.31839193572887 91.06085523235379,190.87390582394073 91.67581336978765,190.35533251535162 92.65084567983286,189.1156684038324 95.95624566858169,186.5769546973861 95.97647455469996,186.46335093962261 96.16258030680183,186.46335093962261 96.45387626664888,186.25096044883685 98.26233868399868,184.76419575412 98.57790930717601,184.35421447151384 99.52462117666437,183.6873685595092 99.87660379479348,183.1044868218196 100.76667478321178,182.5462955804178 101.13484051021805,182.02761539041603 101.99659105809405,181.469409270092 102.15437636968272,180.9902350322991 102.84620427430491,180.4863549607362 103.47734552063048,179.5131570303747 107.91556313098408,176.3908612264786 109.48532469235943,175.6349526926424 109.99913839933288,175.0914802982843 115.42857142857974,172.17142612759926 111.76714304446068,174.06874423380214 110.00318417653034,175.06677683386442 109.50959935568972,175.60036830362515 107.8791511360032,176.3958017585719 103.48948285228107,179.47363580684396 102.82192961098917,180.4863549607362 102.15033059245616,180.96553517527354 101.97231639477832,181.469409270092 101.13079473300604,182.0078560133952 100.7181254565512,182.55617513844118 99.86446646312834,183.08966768496975 99.51652962222579,183.66760999423423 98.55768042107229,184.34433535313292 98.25020135233353,184.75431673596177 96.36486916782451,186.29541436484942 96.19090074735868,186.40407928705463 96.08975631685462,186.32505028170635 96.06952743073634,186.43865442828974 95.91174211917678,186.59177255528266 92.64679990260629,189.09097351333912 91.59894360262842,190.40472073616547 91.02444323738746,190.87884458536428 90.28811178333126,191.32826934935656 89.67719942312397,192.24685826672794 88.94895952350635,192.92837848993076 88.31377249996876,193.36790355352787 88.93277641461464,192.97776356685063 89.75002341305662,192.19747229679342 90.30429489220842,191.33320805527546 91.09726722733467,190.84921200772806 91.8861937852489,190.11826821535942" stroke="yellow" stroke-linecap="round" stroke-linejoin="round" stroke-width="0.5"><title>2025-01-01 21.1km</title><desc>1735687361000</desc></polyline><polyline fill="none" points="149.3548219522345,168.85714285713766 150.595742002537,170.00460492799903 149.93174092302797,171.9259094329027 149.73580617824337,172.1527278448193 149.24596931628184,171.91256715852796 149.0173787806998,172.12604335048673 148.76701771793887,173.32683905755403 149.50721564266132,175.06129814414453 150.14944619499147,175.66168132962048 150.84610306529794,176.8891209975045 149.9099703958491,179.05044820022158 149.83377355063567,180.2111430839068 149.9643967138254,181.1583675844813 150.5413156845607,182.15894781201496 150.41069252137095,183.69315280239243 151.0311525465222,185.10727025172673 151.0746936009382,185.76095978878584 150.58485673897667,187.21507128839585 150.0079377682414,187.77536590132513 148.39691875554854,188.41569903871277 146.54642394377152,188.56244151413557 145.5014386381954,189.08270868218096 145.1639954666607,189.44289217497862 145.14222493948182,190.26997564460908 146.4484565713792,192.33765658002812 146.6661618433427,193.00464197734982 146.72058816131903,193.8183585785664 146.3504891989869,194.49867430552695 145.32727442064788,195.20566453550418 143.87953436205862,195.4591127352178 142.8563195836614,195.93932874417806 139.84110156679526,196.41954261598585 136.72791617747862,199.7142857142826 130.7301359344856,195.27236148788506 131.39413701399462,194.15184721599508 138.4913288804819,184.9872043959258 131.16554647841258,179.41066519034212 130.76279172534123,179.6774918148949 122.10900716407923,190.723534855475 121.78244925616309,190.5634553517375 130.62128329847474,179.15717928568483 130.36003697209526,178.70357144321315 126.84409682970727,175.90183366811107 126.90940841130214,175.608314070676 127.24685158283683,175.56828860915994 127.6278358087875,175.79509936142858 135.24752032803372,181.83876314898953 135.86798035318498,181.70535259220924 136.60817827790743,180.75813289478538" stroke="#4DD2FF" stroke-linecap="round" stroke-linejoin="round" stroke-width="0.5"><title>2024-12-28 10.1km</title><desc>1735347410000</desc></polyline><polyline fill="none" points="174.09155885284417,183.45215483671927 170.33945535152452,186.37067471406044 169.5447389848996,187.50782821920438 168.7630507554568,188.39050010818755 167.7468560571724,189.21749714049656 166.65249253596994,189.8774968469079 165.96851533520385,191.01458907467168 164.58753279654775,192.37430264869909 163.04369854339166,193.47159464489232 161.55197683887673,194.78354992315872 157.42857142857974,198.03549475289037 161.0047950782755,195.2526669071376 163.15443770922138,193.3920813538425 164.4572514249594,192.50947729952895 165.9359449923213,191.0782020390543 166.63946439881693,189.90135213265603 167.71428571428987,189.24135266818485 168.79562109836843,188.36664426859352 169.6229078078468,187.45216382487706 170.34596942007192,186.38657909594622 175.7591604089539,182.22745082765323 175.7591604089539,182.03658578889736 176.00018094637198,182.06044394936907 176.4561657468439,181.77414544636122 179.4591513616324,179.30079203425703 180.0519316023274,178.56910676400003 181.51108296390157,177.5590494456992 182.07780693026143,176.62055693707225 183.5174160861352,175.7138648746477 184.1232244639541,174.87078898640175 185.4911788654863,173.9879336550366 185.77128381439252,173.17665062333253 186.83959106125985,172.4289886735569 187.70596218219725,170.98931752016506 188.28571428571013,170.53593381853716 187.86229982812074,170.80637359986576 186.8917036098719,172.31763403082732 185.72568533429876,173.1846044276681 185.4911788654863,173.9561188247826 184.07111191531294,174.88669617977575 183.5109020175587,175.68205088857212 182.01918031304376,176.6444170838222 181.51108296390157,177.5351896344 179.9737627793511,178.6168256194287 179.43960915590287,179.2928389777444 176.40405319823185,181.78209819955373 175.45951325434726,182.38650459890778" stroke="#4DD2FF" stroke-linecap="round" stroke-linejoin="round" stroke-width="0.5"><title>2024-12-24 11.5km</title><desc>1734996352000</desc></polyline><polyline fill="none" points="32.685957965266425,213.48222869540768 28.063965884852223,217.08661675069743 26.205300030473154,219.49614731095062 25.029241547366837,220.5101369615877 23.36795613769209,221.55423203954706 22.471519951242954,223.02999764438573 20.62930246727774,224.83702147004078 18.910447761183605,226.0015268789357 16.188242461154005,228.36060363619617 11.73895826988155,231.84388251392375 15.933292720059399,228.59148836118402 18.770636612840462,226.15210826991097 20.695095948816743,224.8069047319368 22.504416692070663,223.02999764438573 23.466646360058803,221.48395682576665 24.741395065473625,220.7611225667206 26.09016143772169,219.65678016904712 28.154431922041113,217.03641744588822 33.79622296677553,212.60871808917 34.94760889429017,211.8757652410568 34.91471215352067,211.65487405913882 35.284800487337634,211.6247524882856 35.76180322872824,211.3034550454904 39.52848004872794,208.22094383602962 40.2110874200298,207.33733622797445 42.19311605239636,205.9416184805159 42.571428571420256,205.28893657464505 42.094425830000546,205.99182456614653 40.22753579044365,207.2871309648399 39.55315260431962,208.16069816470554 35.8111483399116,211.26329277676996 35.32592141334317,211.59463090641657 35.202558635384776,211.48418501170818 35.038074931449955,211.77536023198627 33.83734389275196,212.5384352228284 28.203777033195365,216.9560984943746 26.040816326538334,219.65678016904712 24.823636917455588,220.65068899493053 23.33505939686438,221.5743106610389 22.479744136478985,223.00991937863 21.40237587573938,224.10417770879576 20.49771550411242,224.91733271774137 18.83643009440857,226.06175946842268 15.448065793490969,228.95287184582412 11.714285714289872,231.8539205682173 15.522083460266003,228.9026797902261 18.885775205591926,226.05172070657864 20.94182150470442,224.57600937297684 22.455071580887306,223.06011503380432 23.400852878461592,221.55423203954706 24.733170880266698,220.75108315724356 25.92567773378687,219.80737318825413 27.109960402041906,218.5022245178552 27.998172403284116,217.18701526834047 30.391410295444075,215.31958275724173" stroke="#4DD2FF" stroke-linecap="round" stroke-linejoin="round" stroke-width="0.5"><title>2024-12-21 15.0km</title><desc>1734737288000</desc></polyline><polyline fill="none" points="66.48996130056912,215.81213805825973 62.35328945191577,218.99567350253346 61.56739324578666,220.12950114555133 60.5385836668429,221.29819694085018 59.63837528528529,222.03952390649647 58.32378526777029,222.83317130029172 57.48073297389783,224.17624678654101 56.06611980285379,225.56290210467705 54.322859127423726,226.80999677368527 51.815135778771946,228.95529746625107 48.142857142869616,231.85047911769652 52.422419210808584,228.46694200055936 54.25855852875975,226.86232194789045 56.32332219759701,225.33615527859365 57.48073297389783,224.17624678654101 58.280918201984605,222.86805669752357 59.452618000184884,222.16162407994125 60.51000562301488,221.31564001673541 61.48880362519412,220.2341612506425 62.381867495772894,218.96950803660002 67.5902159891557,214.8875778659276 69.08341878079227,213.9106710624983 72.33417126981658,211.25027669592237 72.93431019084528,210.4826690629634 74.59183673470397,209.32251912717038 75.17054212285439,208.33681300556782 76.73519002416288,207.34237002122245 77.48536367545603,206.356636541459 78.87854331359267,205.46684772241133 79.0000000000291,205.29237802516582 77.42106307676295,206.37408327011508 76.78520160086919,207.28130728103133 75.13481956798933,208.32808988177567 74.5275361360109,209.33996513054444 72.87715410313103,210.49139192337316 72.29844871498062,211.2415539282738 68.74048225447768,214.14617660462682 68.64045910097775,214.35551421175478 68.24036648694891,214.45146040980762" stroke="#4DD2FF" stroke-linecap="round" stroke-linejoin="round" stroke-width="0.5"><title>2024-12-17 10.2km</title><desc>1734391788000</desc></polyline><polyline fill="none" points="99.56535126810195,218.95047870754206 96.20484563647187,221.54303275622806 94.85714285713038,223.2737120621132 93.97034275988699,224.03576443104248 92.8676768495061,224.71946648793528 92.1267320314364,225.89456066068306 90.87237663072301,227.07675271105109 89.61802123003872,227.94557736627394 88.03695000405423,229.3200030388689 84.57142857142026,232.0260314184561 91.38578721333761,226.6280922860642 92.2259136212524,225.78061317207903 92.8793452718528,224.71234463284054 93.95867433754029,224.04288636879937 94.67044809981599,223.4660065904318 95.37638765087468,222.70394677182412 96.29235880397027,221.4718102845909 100.27712503034854,218.34505799116232 101.75901466654614,217.35500350146322 104.34357021309552,215.22526093186025 104.83364395104581,214.60555532930448 106.1755125192285,213.65817655304636 106.6480836237024,212.8461253409696 107.9491127137153,212.02693940478275 108.52669961916399,211.2433594701106 109.71104448582628,210.48826337982973 109.97941819948028,209.75452855790718 110.92456040836987,209.08489842179551 111.79385787210776,207.70999539795957 115.42857142855064,205.11682572439895 111.86386840610066,207.61026023747763 110.93039461952867,209.0350320398902 109.96774977716268,209.72603381529916 109.71687869701418,210.44552179903621 108.48586014096509,211.2504829715399 107.91410744670429,212.0198159983156 106.6655862571788,212.80338548998043 106.1813467303873,213.62968371967509 104.77530183937051,214.63404768547116 104.39024390239501,215.14690771391906 103.84766226398642,215.59565653579193" stroke="#4DD2FF" stroke-linecap="round" stroke-linejoin="round" stroke-width="0.5"><title>2024-12-14 12.1km</title><desc>1734132056000</desc></polyline><polyline fill="none" points="142.0210173621308,213.41697362444393 137.3332318001485,217.0916415531683 136.4121230581659,218.42693098593736 135.4005482790235,219.57144751223677 134.19159305508947,220.58543567604647 132.73591227532597,221.45886099273048 131.69144075541408,223.09525354656216 129.97258604931994,224.75169134508178 128.14681693571038,226.02662375732325 126.00852878464502,227.90385043713468 121.0,231.87901244239038 126.74870545233716,227.2914977838882 128.08102345414227,226.0768175420817 130.35089856837294,224.42040645676025 131.81480353337247,222.9446666363001 132.65367042340222,221.53917549821927 134.0764544623671,220.66575103532523 135.26896131585818,219.70196154197038 136.40389887298807,218.4470103606218 137.48126713369857,216.95108350823284 143.2793176972482,212.41293740169203 145.19555284798844,211.13779370873817 148.72372829727829,208.2259740566733 149.78464818760403,209.74214130817563 148.83064270482282,208.16572842218739 149.4885775205621,207.31224385291716 151.4541577825148,205.91652644674468 151.85714285713038,205.2638447004647 151.3883643009467,205.93660887973965 149.50502589091775,207.2620386020717 148.87998781603528,208.07535988760355 144.6445324398228,211.57957801657903 142.99147121535498,212.59366482744372 137.4236978373374,216.96112337656814 136.3874505025742,218.40685160631256 135.25251294547343,219.6618034010462 134.06823027716018,220.62559336551203 132.60432531221886,221.52913618933235 131.69144075541408,223.02497968944226 130.32622601278126,224.39028958250856 128.23728297289927,225.92623609588918 125.25190374659724,228.47604469401267 121.01644837041385,231.80874609651073 125.38349070970435,228.40577543848485 128.01522997260327,226.13705004331132 130.07127627168666,224.68141890463448 131.84770027411287,222.92458836071455 132.7112397197634,221.49901825527922 133.98598842520732,220.73602691030828 135.38409990860964,219.59152660722611 137.50593968929024,216.941043638697 143.2217484008288,212.46313950426702 144.9899482181063,211.29844282287377 148.8224185196159,208.15568747880752 149.51325007615378,207.2821207060988 151.33079500452732,206.00689735665947" stroke="#4DD2FF" stroke-linecap="round" stroke-linejoin="round" stroke-width="0.5"><title>2024-12-07 17.1km</title><desc>1733527336000</desc></polyline><polyline fill="none" points="159.60528432406136,233.9920898002456 159.85140877385857,233.86552647282952 159.7218695897609,234.0 159.82550093706232,233.7785140415217 159.2814363638172,232.4654031303071 159.34620595589513,232.34674721583724 167.1250339608814,229.53849366187205 168.02533129038056,229.0322039839084 168.71836592524778,228.27276203098882 181.3872981299064,213.41438353154808 181.8212543966074,212.64684518983267 183.93922005657805,207.1788597030827 184.548054221872,205.90477633279806 185.90173869565479,203.744316653836 186.1543401046656,203.52272695935972 186.43284935047268,203.57812445425225 186.0571857165778,203.14285714285506 185.94060045087826,203.15077112014114 185.1245035910979,204.25080452910333 184.3990841601626,205.46952470150427 183.54412554510054,207.16303273462836 181.56217602844117,212.4173731932242 181.12821976171108,213.21656524359423 176.1733459699899,219.1033783019302 170.10443519509863,226.09722787475766 169.87774162294227,226.587718333074 168.47224147550878,228.20156389039767 167.81159163659322,228.86607681920577 167.33877361463965,229.17459835666523 159.41745250715758,232.03824081889616" stroke="#4DD2FF" stroke-linecap="round" stroke-linejoin="round" stroke-width="0.5"><title>2024-11-30 11.9km</title><desc>1732919585000</desc></polyline><polyline fill="none" points="14.443255700403824,237.9115695184737 23.671339793596417,247.5177543774189 39.18330972199328,268.23205157360644 39.75457207066938,268.0174006599991 38.524160858243704,266.13920068446896 23.671339793596417,246.71277489574277 14.926631533773616,237.42857142855064 14.443255700403824,237.9115695184737 23.759226308902726,247.67875009650015 39.18330972199328,268.2857142857101 39.84245858574286,268.1247261298413 39.578799040289596,267.48077291596564 24.418375172652304,247.57141962370952 14.926631533773616,237.4822379091638 14.531142215477303,238.01890235528117 23.759226308902726,247.57141962370952 39.22725297953002,268.23205157360644 39.71062881289981,267.7490868700552 24.945694263791665,248.16173689893913 15.058461306616664,237.643237311946 14.487198957940564,237.96523594015162 23.847112824209034,247.67875009650015 39.22725297953002,268.2857142857101 39.8864018432796,268.1247261298413 39.22725297953002,266.99780738537083 24.02288585435599,247.08843217103276 14.926631533773616,237.4822379091638 14.443255700403824,237.9115695184737 23.49556676344946,247.41042386522167 39.22725297953002,268.2857142857101 39.666685555363074,267.641761308274 24.374431915115565,247.57141962370952 14.882688276236877,237.4822379091638 14.487198957940564,237.96523594015162 23.759226308902726,247.67875009650015 39.13936646445654,268.23205157360644 39.71062881289981,267.8564124057011 24.550204945495352,247.73241532302927 14.926631533773616,237.53590438337415 14.399312442634255,237.85790309036383 23.803169566439465,247.78608054295182 39.051479949150234,268.07106339820893 39.79851532820612,267.8564124057011 34.305608129827306,260.7192070958263" stroke="#4DD2FF" stroke-linecap="round" stroke-linejoin="round" stroke-width="0.5"><title>2024-11-26 10.9km</title><desc>1732619882000</desc></polyline><polyline fill="none" points="50.93773815105669,237.69459063807153 59.69419254595414,246.9519577488536 75.59521669568494,268.1793141068192 75.85660339402966,267.2217113257793 62.61301067750901,249.66528662256314 51.32981819845736,237.42857142857974 51.373382648453116,238.54585101437988 60.17340149288066,247.5903895953088 75.59521669568494,268.0729139020259 75.90016784379259,267.3281117390725 61.26251273578964,248.0160103054659 52.68031614017673,238.75866584826144 51.373382648453116,237.58818297367543 51.15556039987132,238.17342480475781 60.17340149288066,247.48398435270065 75.59521669568494,268.0729139020259 76.16155454213731,268.0197137898649 75.90016784379259,267.3813119359547 61.13181938696653,247.90960516696214 51.50407599750906,237.42857142857974 51.32981819845736,238.54585101437988 60.26053039240651,247.69679481183994 75.59521669568494,268.1793141068192 75.94373229332268,267.3813119359547 61.48033498460427,248.22882050435874 51.46051154774614,237.42857142857974 51.06843150034547,237.96060968469828 60.12983704311773,247.5371869771916 75.50808779615909,268.0197137898649 76.07442564261146,267.4877123099286 60.9139971381519,247.5903895953088 51.50407599750906,237.53497913182946 50.98130260081962,238.0138134745648 60.26053039240651,247.69679481183994 75.81303894426674,268.2857142857101 75.59521669568494,266.9025099304563 61.0882549372036,247.85640258801868 51.50407599750906,237.48177528334782 51.46051154774614,238.54585101437988 60.04270814359188,247.43078172154492 75.46452334639616,268.0197137898649 75.90016784379259,267.3281117390725 61.34964163554832,248.06921286485158 51.46051154774614,237.53497913182946 51.11199594987556,237.9074058883125 60.26053039240651,247.69679481183994 75.46452334639616,267.91331354595604 76.20511899190024,267.86011341412086 75.90016784379259,267.2749115358165 60.08627259358764,246.63274147408083 51.50407599750906,237.58818297367543 51.41694709798321,238.38623982091667 60.21696594264358,247.5903895953088 75.55165224592201,268.0729139020259 76.11799009237438,267.91331354595604 75.85660339402966,267.2749115358165 61.13181938696653,247.85640258801868 51.50407599750906,237.69459063807153" stroke="#4DD2FF" stroke-linecap="round" stroke-linejoin="round" stroke-width="0.5"><title>2024-11-16 14.9km</title><desc>1731755814000</desc></polyline><polyline fill="none" points="87.25683609046973,237.90989540723967 96.71567940479144,247.8036597663595 112.13009073166177,268.2322375861986 112.4366273204796,267.4300863078679 96.84705222840421,247.00147099912283 88.08886397443712,237.74945413996466 87.47579079680145,237.53553235836443 87.51958173792809,238.1772973885527 96.58430658094585,247.58974290578044 112.04250884894282,268.2322375861986 112.56800014409237,267.6974702309235 109.72158896154724,263.7401714694861 97.46012540627271,247.8036597663595 88.04507303331047,237.6959737043071 87.4319998556748,238.07033661578316 96.93463411112316,248.01757652236847 111.86734508397058,268.07180744822836 112.61179108545184,267.75094699594774 97.32875258242711,247.64322213071864 87.95749115082435,237.53553235836443 87.47579079680145,237.96337581652915 96.93463411112316,247.9640973432688 112.04250884894282,268.1252841675014 112.52420920296572,267.4300863078679 97.89803481893614,248.28497232004884 87.91370020946488,237.58901281363796 87.47579079680145,238.12381700548576 96.67188846343197,247.64322213071864 112.04250884894282,268.2857142857101 112.74316390929744,267.85790050632204 97.89803481893614,248.28497232004884 90.01566539029591,239.72822565436945 87.73853644425981,237.58901281363796 87.51958173792809,238.01685621941579 96.71567940479144,247.6967013491958 111.9549269664567,268.1252841675014 112.65558202681132,267.85790050632204 99.08039023331366,249.8893436715298 87.78232738561928,237.48205189677537 87.47579079680145,238.07033661578316 96.67188846343197,247.6967013491958 112.17388167278841,268.2857142857101 112.69937296817079,267.8044237543072 97.15358881745487,247.3758259403985 87.73853644425981,237.42857142857974 87.73853644425981,238.23077776515856 96.6280975220725,247.64322213071864 111.99871790781617,268.2322375861986 112.65558202681132,268.1252841675014 112.34904543776065,267.4300863078679 97.1097978760954,247.42930519150104 87.51958173792809,237.96337581652915 96.9784250522498,248.17801402058103 112.04250884894282,268.2322375861986 112.4366273204796,267.53703989682253 105.56144954101183,258.55284721317" stroke="#4DD2FF" stroke-linecap="round" stroke-linejoin="round" stroke-width="0.5"><title>2024-11-10 14.3km</title><desc>1731237417000</desc></polyline><polyline fill="none" points="123.79488796368241,237.96152854379034 134.18112860177644,249.10018301426317 148.36402022861876,268.07254635807476 149.0186152269598,268.01925435994053 148.1894615625497,266.68695228599245 134.7484442666173,248.83371135251946 124.44948296202347,237.7483457759663 123.92580696335062,238.06811988857226 133.04649727139622,247.66123410422006 148.49493922828697,268.2857142857101 149.10589455999434,268.07254635807476 148.1894615625497,266.74024444728275 133.43925427016802,247.23487795869005 124.36220362898894,237.7483457759663 123.75124829728156,237.90823286169325 132.9592179383617,247.60793960874435 148.45129956188612,268.2857142857101 149.10589455999434,267.80608630192 133.6574526031036,247.5546451069531 124.36220362898894,237.69505006761756 123.75124829728156,237.96152854379034 132.6973799392581,247.3414670342172 148.58221856155433,268.17913033496006 148.93133589369245,267.5396260827547 133.74473193613812,247.60793960874435 124.23128462932073,237.48186716949567 124.01308629661798,238.12141555114067 133.13377660443075,247.60793960874435 148.53857889468782,268.12583834968973 149.06225489336066,267.80608630192 148.49493922828697,266.90012089165975 134.2247682681773,248.140884269058 124.36220362898894,237.53516290392145 123.83852763054892,237.7483457759663 135.09756159898825,250.11277384209097 148.45129956188612,268.07254635807476 148.97497556032613,267.85937832613126 147.97126322984695,266.26061476187897 134.39932693424635,248.40735635455349 124.31856396235526,237.42857142857974 123.88216729694977,238.12141555114067 133.87565093580633,248.5672395277652 148.36402022861876,268.07254635807476 149.06225489336066,267.9659623551124 148.40765989525244,266.90012089165975 134.7484442666173,248.67382827715483 124.40584329538979,237.69505006761756 123.92580696335062,237.90823286169325 133.30833527073264,247.87441202052287 148.49493922828697,267.9659623551124 148.80041689402424,267.3264577900409 135.88307559676468,250.325950558763" stroke="#4DD2FF" stroke-linecap="round" stroke-linejoin="round" stroke-width="0.5"><title>2024-10-26 12.9km</title><desc>1729940418000</desc></polyline><polyline fill="none" points="163.43311858456582,237.66311222894 169.3042719886871,243.76110252997023 178.24817857635207,255.6216398155084 180.03147283452563,257.02878811911796 182.17142594454344,259.9770754069614 178.74201390938833,268.25221221573884 182.2537318333052,260.0105784892803 169.41401317389682,243.39254653218086 163.59773036220577,237.495583106298 169.3865778775653,243.86161771600018 179.01636687212158,256.6267464844277 180.05890813085716,257.0957950008451 182.17142594454344,260.1110877114115 178.71457861317322,268.2857142857101 182.28116712952033,260.1445907773159 169.66093084029853,243.56007204717025 163.54285976977553,237.59610059225815 169.33170728501864,243.86161771600018 178.90662568691187,256.5262359835324 179.9766022420954,256.99528467215714 182.11655535188038,259.9435723206552 178.68714331672527,268.2187101415475 182.19886124075856,259.9770754069614 170.01758969202638,244.0291429440258 163.59773036220577,237.42857142857974 169.57862495142035,244.1631630527263 178.41279035399202,255.92317220341647 180.08634342707228,257.06229156200425 182.11655535188038,259.9100692301581 178.71457861317322,268.2187101415475 182.2537318333052,260.1110877114115 169.33170728501864,243.29203117394354 163.9543892139336,237.5625947676599 163.54285976977553,237.495583106298 163.7349068436306,237.9311586120166 168.70069547055755,243.15801063895924 168.70069547055755,242.52141220195335 165.874859953532,239.67345370625844" stroke="#4DD2FF" stroke-linecap="round" stroke-linejoin="round" stroke-width="0.5"><title>2024-10-19 10.6km</title><desc>1729335763000</desc></polyline></svg>