<?xml version="1.0" encoding="utf-8" ?>
<svg baseProfile="full" height="300mm" version="1.1" viewBox="0,0,200,300" width="200mm" xmlns="http://www.w3.org/2000/svg" xmlns:ev="http://www.w3.org/2001/xml-events" xmlns:xlink="http://www.w3.org/1999/xlink"><defs /><rect fill="#222222" height="300" width="200" x="0" y="0" /><text fill="#FFFFFF" style="font-size:12px; font-family:Arial; font-weight:bold;" x="10" y="20">Over 10km Runs</text><text fill="#FFFFFF" style="font-size:4px; font-family:Arial" x="10" y="280">Runner</text><text fill="#FFFFFF" style="font-size:9px; font-family:Arial" x="10" y="290">unsung</text><text fill="#FFFFFF" style="font-size:4px; font-family:Arial" x="65" y="280">SPECIAL TRACKS</text><rect fill="yellow" height="2.6" width="2.6" x="65" y="283" /><text fill="#FFFFFF" style="font-size:3px; font-family:Arial" x="70" y="285.5">Over 20.0 km</text><rect fill="red" height="2.6" width="2.6" x="65" y="287" /><text fill="#FFFFFF" style="font-size:3px; font-family:Arial" x="70" y="289.5">Over 40.0 km</text><text fill="#FFFFFF" style="font-size:4px; font-family:Arial" x="120" y="280">STATISTICS</text><text fill="#FFFFFF" style="font-size:3px; font-family:Arial" x="120" y="285">Number: 24</text><text fill="#FFFFFF" style="font-size:3px; font-family:Arial" x="120" y="290">Weekly: 1.4</text><text fill="#FFFFFF" style="font-size:3px; font-family:Arial" x="141" y="285">Total: 303.0 km</text><text fill="#FFFFFF" style="font-size:3px; font-family:Arial" x="141" y="290">Avg: 12.6 km</text><text fill="#FFFFFF" style="font-size:3px; font-family:Arial" x="167" y="285">Min: 10.0 km</text><text fill="#FFFFFF" style="font-size:3px; font-family:Arial" x="167" y="290">Max: 21.1 km</text><polyline fill="none" points="21.34555254597217,32.0 21.215800710138865,32.38030783747672 26.483725247438997,37.926400350697804 38.758248922764324,53.45482767990325 35.43660192389507,61.12362597222091 35.64420486125164,61.947532945050625 31.959252721979283,66.66910314146662 30.116776652401313,68.0 31.98520308919251,66.66910314146662 35.61825449403841,62.16935360553907 35.54040339263156,61.12362597222091 38.8620503913844,53.48651739608613 26.898931122152135,37.86301710706903 21.1379496086156,32.06338467836031 26.665377817698754,38.08485839184141 38.758248922764324,53.58158652164275 35.462552291108295,61.06024840413011 35.61825449403841,62.010910295997746 31.959252721979283,66.63741503772326 30.090826285188086,67.96831205888884 31.933302354766056,66.73247933737002 35.64420486125164,62.10597629327094 35.592304127058014,61.028559614380356 38.81014965695795,53.42313795973314 26.95083185657859,37.926400350697804 21.1379496086156,32.126769341295585 26.561576348962262,38.02147518703714 38.758248922764324,53.45482767990325 35.462552291108295,61.06024840413011 35.61825449403841,61.97922162245959 31.881401620456018,66.73247933737002 30.090826285188086,67.96831205888884 31.881401620456018,66.76416742958827 35.64420486125164,62.137664951354964 35.54040339263156,61.06024840413011 38.8620503913844,53.64496591917123 27.34008736431133,38.40177418341045 21.52720511634834,32.09507701173425 21.189850343042053,32.28523093048716 25.29000835714396,36.46858182360302 29.104712332366034,41.285690067656105" stroke="#4DD2FF" stroke-linecap="round" stroke-linejoin="round" stroke-width="0.5"><title>2025-06-03 10.0km</title><desc>1748953280000</desc></polyline><polyline fill="none" points="67.77598740160465,32.19048933379236 73.28716870048083,37.936851829406805 85.50535365543328,53.46091864621849 82.25583638029639,60.92102938069729 82.28183251840528,62.063835913315415 78.79834999935701,66.5397797144833 76.82264349597972,68.0 78.72036158468109,66.57152372106793 82.3858170711901,62.00034679353121 82.28183251840528,61.04800813278416 85.53134979377501,53.49266425266978 73.49513780605048,37.65112410415895 67.85397581616417,32.0 73.28716870048083,37.90510431994335 85.50535365543328,53.429173035983695 82.22984024195466,61.016263450612314 82.25583638029639,62.063835913315415 78.64237317012157,66.66675571756787 76.82264349597972,67.96825616795104 78.7463577229064,66.57152372106793 82.3338247948559,62.12732501758728 82.28183251840528,61.016263450612314 85.50535365543328,53.429173035983695 73.91107601730619,38.159084287064616 67.85397581616417,32.031748232024256 73.26117256225552,37.87335680652177 85.50535365543328,53.429173035983695 82.25583638029639,61.016263450612314 82.3338247948559,62.03209135532961 78.72036158468109,66.60326772383996 76.82264349597972,67.96825616795104 78.7463577229064,66.60326772383996 82.3858170711901,62.063835913315415 82.30782865663059,60.889284683042206 85.5573459318839,53.65139222639846 74.09304898476694,38.381316554383375 68.19192561297677,32.0 67.98395650729071,32.34923033847008 73.36515711515676,38.000346836750396 76.30272073193919,41.810018843825674" stroke="#4DD2FF" stroke-linecap="round" stroke-linejoin="round" stroke-width="0.5"><title>2025-05-31 10.0km</title><desc>1748691698000</desc></polyline><polyline fill="none" points="114.70075737137813,32.0 114.57191295397934,32.535001916170586 119.85453406500164,37.97936989553273 129.13133211352397,50.315314894600306 130.05901191849262,50.661468083184445 132.06898482900579,53.556549239961896 128.7447988615604,61.20318300841609 128.97671881271526,62.02132789362804 125.36907512729522,66.58401126804529 123.4621777505381,67.96853366828873 125.26599959342275,66.678410759283 129.0024876962416,62.05279495261493 128.84787439543288,61.20318300841609 132.17206036287826,53.556549239961896 120.00914736581035,37.79054981379886 114.49460630363319,32.28323644716875 119.98337848240044,38.1367198577791 129.13133211352397,50.283846399746835 130.11054968542885,50.69293653179193 132.0947537125321,53.556549239961896 128.8736432789592,60.95144559725304 128.89941216236912,62.14719610652537 125.29176847683266,66.678410759283 123.51371551759075,67.96853366828873 125.31753736024257,66.64694426607457 128.8736432789592,62.14719610652537 128.8736432789592,61.01437997305766 132.17206036287826,53.68242159465444 120.6533694525715,38.54582930912147 114.5203751870431,32.220295041421195 120.00914736581035,38.1996598157275 129.05402546317782,50.22090939860209 130.16208745236509,50.75587341748178 132.06898482900579,53.52508114161901 128.7447988615604,61.140248678653734 128.92518104589544,62.05279495261493 125.26599959342275,66.74134373420384 123.4621777505381,67.96853366828873 125.18869294296019,66.77281021597446 128.95094992942177,62.241597225889564 128.89941216236912,61.108781507995445 132.14629147935193,53.61948542500613 120.60183168551885,38.48288943586522 114.5203751870431,32.28323644716875 119.7772274146555,37.85348985643941 128.79633662861306,49.90622416199767 130.00747415143996,50.661468083184445 132.01744706206955,53.46214493358275 128.77056774508674,61.07731433358276 128.92518104589544,62.02132789362804 125.26599959342275,66.70987724873703 123.4364088671282,68.0 125.44638177764136,66.52107825470739 128.97671881271526,62.115729059121804 128.84787439543288,61.17171584549942 132.14629147935193,53.61948542500613 120.47298726823647,38.38847959716804 114.49460630363319,32.31470714422176 119.98337848240044,38.1996598157275 128.95094992942177,50.126503868057625 130.08478080190253,50.78734185450594 132.0947537125321,53.68242159465444 128.79633662861306,61.07731433358276 128.95094992942177,62.05279495261493 125.36907512729522,66.58401126804529 123.41063998360187,68.0 125.26599959342275,66.74134373420384 128.8736432789592,62.27306425792631 128.82210551202297,61.20318300841609 132.14629147935193,53.61948542500613" stroke="#4DD2FF" stroke-linecap="round" stroke-linejoin="round" stroke-width="0.5"><title>2025-03-01 15.0km</title><desc>1740782421000</desc></polyline><polyline fill="none" points="159.06364975054748,32.0385460970283 159.53708482638467,32.0 159.41083547275048,32.69382902656798 165.97580185625702,39.55494490606361 176.9910579517018,54.20177096416592 178.31667616369668,54.81846449134173 180.7785385575844,58.287343090749346 176.73855924454983,68.0 180.87322557263542,58.36442884799908 166.32298757846002,39.36221897159703 159.41083547275048,32.346914704248775 166.07048887142446,39.63203524678829 177.08574496675283,54.31740109244129 178.253551486996,54.77992118129623 180.7785385575844,58.21025731446571 176.67543456784915,67.96145830236492 180.93635024945252,58.44151458644774 166.670173300663,39.7862158716307 159.6317718414357,32.26982258076896 159.25302378088236,32.42400680886931 166.3861122552771,39.978941546636634 177.02262028993573,54.20177096416592 178.37980084039737,54.895551097317366 180.71541388065089,58.21025731446571 176.7069969061995,67.96145830236492 180.93635024945252,58.480057448672596 166.82798499264754,39.940396421123296 159.78958353342023,32.385460758872796 159.2214614424156,32.385460758872796 166.10205120989121,39.709125568624586 177.11730730510317,54.31740109244129 178.31667616369668,54.77992118129623 180.7785385575844,58.24880020497949 176.67543456784915,67.9229165999568 180.90478791098576,58.44151458644774 166.03892653307412,39.0153119925817" stroke="#4DD2FF" stroke-linecap="round" stroke-linejoin="round" stroke-width="0.5"><title>2025-02-25 10.0km</title><desc>1740436543000</desc></polyline><polyline fill="none" points="19.636456506559625,72.0 19.383687152992934,72.69457263796357 25.924094174872153,79.52445543094655 37.077541898121126,94.34131976991193 38.24660015804693,94.84292018343695 40.67950518545695,98.16117974935332 36.6035993603291,107.96141699058353 40.77429369313177,98.2383481611032 26.36644054343924,79.52445543094655 19.162513968651183,72.30869913907372 25.829305667313747,79.40869593780371 37.04594572877977,94.30273508958635 38.46777334238868,95.07442779763369 40.647909016232006,98.2383481611032 36.57200319110416,107.92283397639403 40.74269752379041,98.27693235996412 25.892498005530797,78.9456575406657 19.225706306984648,72.30869913907372 25.766113328863867,79.3701094307471 36.09806065331213,93.14519248748547 38.24660015804693,94.9200894071837 40.647909016232006,98.19976395752747 36.6035993603291,107.92283397639403 40.74269752379041,98.27693235996412 26.840383081231266,80.02607940978487 19.194110137759708,72.30869913907372 25.924094174872153,79.48586893794709 36.98275339056272,94.26415040469146 38.278196327155456,94.88150479763863 40.74269752379041,98.27693235996412 36.666791698662564,107.84566793389968 40.80588986224029,98.43126910785213 26.58761372778099,79.7559742895246 19.668052675551735,72.34728651013575 19.225706306984648,72.42446123837726 26.113671189988963,79.7559742895246 36.85636871366296,94.03264219575794 38.309792496380396,94.88150479763863 40.7111013547983,98.2383481611032 36.63519552955404,108.0 40.83748603134882,98.701358235121 38.183407819713466,94.76575094106374" stroke="#4DD2FF" stroke-linecap="round" stroke-linejoin="round" stroke-width="0.5"><title>2025-02-22 12.0km</title><desc>1740177306000</desc></polyline><polyline fill="none" points="66.07504233368672,72.0 65.88505804073066,72.58005398398382 72.40785209927708,79.38594120019116 83.33194894494954,93.96396780668874 84.94681543519255,94.96932416816708 87.28995504847262,98.17870961729204 83.2052927496843,107.9226681967557 87.41661124373786,98.29471089085564 73.04113307583611,79.50194937107153 66.29669067543,72.30936225721962 65.79006589425262,72.30936225721962 73.00946902704891,80.12065889628138 83.61692538438365,94.27330856610206 84.8201592399273,94.81465416678111 87.35328314616345,98.29471089085564 83.26862084737513,107.96133410077891 87.38494719506707,98.21737671323353 72.53450829454232,78.88323863467667 66.26502662675921,72.19335144621436 65.82172994303983,72.34803251817357 72.31285995291546,79.26993298681919 83.5219332377892,94.19597340471228 84.85182328883093,94.85332167425076 87.35328314616345,98.2560438044602 83.30028489616234,108.0 87.38494719506707,98.21737671323353 72.94614092935808,79.30860239607864 65.82172994303983,72.23202172134188 72.62950044102035,79.65662686584983 83.68025348207448,94.31197613984114 84.97847948397975,95.00799165671924 87.32161909725983,98.17870961729204 83.23695679847151,107.9226681967557 87.44827529264148,98.2560438044602 73.16778927110136,79.6179574992857 65.82172994303983,72.23202172134188 72.43951614806429,79.42461059524794 83.55359728669282,94.15730581679964 84.8201592399273,94.81465416678111 87.35328314616345,98.29471089085564 83.26862084737513,107.9226681967557 87.41661124373786,98.14004251669394 72.7878206850728,79.15392473089742 65.88505804073066,72.19335144621436 72.21786780643743,79.15392473089742 83.58526133571286,94.11863822431769 84.88348733750172,94.81465416678111 87.28995504847262,98.21737671323353 83.30028489616234,108.0 87.54326743911952,98.44937918934738 75.51092888438143,82.67282288524439" stroke="#4DD2FF" stroke-linecap="round" stroke-linejoin="round" stroke-width="0.5"><title>2025-02-05 15.0km</title><desc>1738709514000</desc></polyline><polyline fill="none" points="112.76201760629192,72.0 112.6986214100616,72.73552485884284 119.16503342892975,79.54872648222954 130.19597157859243,94.21983868346433 131.5589897983009,94.87789373900159 133.99974335439038,98.28427450175514 129.97408489184454,108.0 134.15823384514078,98.3616918202024 119.70390109717846,79.51001552381786 113.01560239144601,72.27098304167157 112.44503662514035,72.23227119274088 119.32352391968016,79.62614838476293 130.10087728430517,94.02629281848203 131.52729170036037,94.83918465586612 133.99974335439038,98.32298316329252 129.97408489184454,107.96129252217361 134.12653574708384,98.28427450175514 119.5137125083711,79.2390386821935 112.4767347231973,72.27098304167157 119.35522201762069,79.66485932903015 130.06917918624822,93.94887443934567 131.49559360207058,94.80047556807403 133.99974335439038,98.20685716436128 129.9106886954978,107.92258503951598 134.15823384514078,98.9036125189159 134.03144145268016,98.16814848850481 119.83069348963909,79.5874374358682 112.98390429327264,72.23227119274088 112.4767347231973,72.34840672527207 119.1333353308728,79.43259359276271 130.25936777505558,94.25854784218245 131.62238599464763,94.91660281721852 134.03144145268016,98.24556583547383 129.9423867937876,107.96129252217361 134.09483764879405,98.20685716436128 119.45031631202437,79.12290567907621 112.98390429327264,72.23227119274088 112.4767347231973,72.38711855991278 119.22842962527648,79.54872648222954 130.10087728430517,93.98758363124216 131.52729170036037,94.83918465586612 133.96804525633343,98.16814848850481 129.9423867937876,107.92258503951598 134.22163004148751,98.63265228556702 130.89332973759156,94.25854784218245" stroke="#4DD2FF" stroke-linecap="round" stroke-linejoin="round" stroke-width="0.5"><title>2025-02-04 12.0km</title><desc>1738622138000</desc></polyline><polyline fill="none" points="155.6904899557121,72.0 155.6904899557121,73.23503395926673 165.90434518177062,83.91795156907756 183.95556456618942,108.0 184.61289188289084,107.9382526272093 184.36007368401624,107.13553609297378 166.51110885851085,83.73270058905473 155.84218087489717,72.43226222950034 155.33654447784647,72.92627575300867 166.10659974068403,84.10320248093922 184.0061282061506,108.0 184.41063732397743,107.25903102749726 166.40998157905415,83.54744954121998 156.0444354340434,72.55576565588126 155.48823539703153,72.92627575300867 166.05603610095568,84.04145218455233 183.95556456618942,107.87650524679339 184.61289188289084,107.9382526272093 184.36007368401624,107.07378861447796 167.26956345466897,84.59720458008815 156.09499907353893,72.6175173575175 155.387108117342,72.92627575300867 166.96618161606602,85.21470652439166 183.85443728696555,107.7530104634352 184.71401916234754,107.62951564980904 183.90500092646107,106.4563134132186 166.40998157905415,83.73270058905473 155.9433081545867,72.43226222950034 155.43767175707035,72.86452408891637 166.9156179765705,85.02945602039108 183.90500092646107,107.9382526272093 184.46120096370578,107.25903102749726 166.7133634176571,83.91795156907756 155.9433081545867,72.4940139464452 155.2859808378853,72.92627575300867 166.40998157905415,84.53545434423722 183.85443728696555,107.87650524679339 184.20838276506402,106.95029363461072 168.7359090067912,86.51145814789925 155.9433081545867,72.43226222950034 155.387108117342,72.92627575300867 165.75265426258557,83.73270058905473 183.85443728696555,107.8147578589269 184.46120096370578,107.32077848358313 178.03961871750653,98.55256411927985 162.06150856195018,78.977902168117" stroke="#4DD2FF" stroke-linecap="round" stroke-linejoin="round" stroke-width="0.5"><title>2025-01-23 11.4km</title><desc>1737585341000</desc></polyline><polyline fill="none" points="19.24406492675189,112.0 19.371542675886303,112.70057940969127 26.000385624705814,119.6284482779738 36.99534147733357,134.30102069681743 38.30198840459343,135.00155099469703 40.7240656359354,138.27067198883742 36.83599429100286,147.92216655646916 40.9152822594624,138.4652614648803 26.765252118813805,119.861969319114 19.5627592994133,112.15568444650853 19.0847177405376,112.23352664135746 25.809169001178816,119.4338472794916 36.89973316551186,134.1842654972279 38.36572727910243,135.00155099469703 40.7878045104444,138.38742568870657 36.67664710478857,148.0 40.9152822594624,138.4263435792236 26.5421660579741,119.58952808775939 19.180326052359305,112.19460554630496 25.968516187393107,119.58952808775939 37.027210914413445,134.33993908725097 38.270118967513554,134.88479605215252 40.81967394775711,138.38742568870657 36.740385979181156,147.92216655646916 40.9152822594624,138.4652614648803 26.414688308839686,119.47276748873992 19.11658717773389,112.15568444650853 26.669643806875683,120.40685108161415 37.05908035172615,134.33993908725097 38.33385784190614,134.92371437119436 40.7240656359354,138.27067198883742 36.740385979181156,147.84433309404994 40.88341282226611,138.38742568870657 26.095993936411105,119.08356518216897 19.530889862100594,112.11676334205549 19.11658717773389,112.19460554630496 25.7454301265534,119.27816639494267 36.77225541637745,133.98967340271338 38.33385784190614,134.96263268528855 40.7240656359354,138.34850779356202 36.740385979181156,147.80541635554982 40.9152822594624,138.54309722199105 26.414688308839686,119.47276748873992 19.626498173805885,112.27244773152051 19.148456614930183,112.46705311126425 26.03225506178569,119.6673684634734 37.122819226118736,134.45669422970968 37.47338303597644,134.06751025482663 29.37854597356636,123.325844631152" stroke="#4DD2FF" stroke-linecap="round" stroke-linejoin="round" stroke-width="0.5"><title>2025-01-18 14.0km</title><desc>1737153490000</desc></polyline><polyline fill="none" points="78.76891435284051,128.16148758886993 74.27883061554166,131.65763418967254 73.31893638902693,133.0231232460501 72.32731012193835,134.14648667331494 71.12149258118006,135.13425859922427 69.7332158072386,135.98644409378176 68.83678566181334,137.42932818690315 67.33744674597983,138.92060360481264 65.3303951814305,140.36343428340479 58.666666666656965,145.84401482012618 63.418539738544496,142.07736679803202 65.33832819160307,140.39248429577856 67.16292052299832,139.11427367840952 68.90024974290282,137.41964448861108 69.78081386807025,135.97676021919324 71.192889672413,135.1148906405797 72.21624798004632,134.29174802279158 73.31100337885437,133.09091286984767 74.30262964594294,131.66731859207357 80.15719112675288,127.07677917378896 80.92669310999918,126.65063966226444 80.87116203908226,126.4085139187664 81.69619509327458,126.08890680440527 85.36917878655368,123.07678854862024 86.00381959747756,122.26320641911298 87.82047891875845,120.98470333513978 88.5820478918904,119.79335234533937 90.23211400030414,118.77633122761472 90.97781695312005,117.73992484679184 92.69134714262327,116.63570125997649 93.00866754809977,115.66707140525978 94.26208314966061,114.81466733504931 94.66666666665697,114.15598517987382 94.17482003816986,114.82435379647359 93.03246657850104,115.59926687184634 92.67548112236545,116.59695629317139 91.00161598355044,117.69149431044934 90.25591303070541,118.71821534082119 88.49478478037054,119.83209574881766 87.83634493904538,120.94596049535903 86.01175260756281,122.22446420456981 85.35331276626675,123.06710309623304 83.2114000293659,124.81046545462596" stroke="#4DD2FF" stroke-linecap="round" stroke-linejoin="round" stroke-width="0.5"><title>2025-01-16 10.5km</title><desc>1736984045000</desc></polyline><polyline fill="none" points="108.89950832584873,112.0 109.15407314081676,113.24356584111229 119.59123055380769,124.00028335826937 137.41076760017313,147.7513040844351 138.07263611909002,147.93782603251748 137.91989722987637,147.12956376327202 121.32227129559033,125.36817331367638 109.4086379557848,112.37307007191703 108.79768239986151,112.0 108.6449435108807,112.74613986996701 119.48940462782048,123.93810645461781 137.41076760017313,147.93782603251748 137.9708101931028,147.316085939412 121.16953240637667,125.18164308211999 109.15407314081676,112.12435672088759 108.6449435108807,112.6839615892386 119.59123055380769,124.00028335826937 137.35985463717952,147.93782603251748 137.818071304122,147.06738968932768 121.47501018457115,125.61688018299174 109.25589906680398,112.2487134115654 108.59403054788709,112.6839615892386 119.43849166482687,123.93810645461781 137.35985463717952,147.87565205746796 138.0217231560964,147.93782603251748 137.8689842671156,147.19173782953294 122.39144351799041,126.67388301854953 109.20498610381037,112.12435672088759 108.6449435108807,112.6839615892386 119.38757870183326,123.87592954328284 137.35985463717952,148.0 138.07263611909002,148.0 137.91989722987637,147.19173782953294 120.10036018351093,123.75157569797011 109.30681203003041,112.37307007191703 108.54311758489348,112.621783300885 119.54031759081408,124.12463714258047 137.2580287111923,147.93782603251748 138.12354908208363,147.81347807485145 137.61441945214756,146.75651920528617 120.25309907249175,123.93810645461781 109.4086379557848,112.37307007191703 108.6449435108807,112.18653507012641 108.69585647410713,112.87049640825717 119.38757870183326,123.87592954328284 124.93709166767076,131.52363255084492 125.80261203856207,131.21275255875662 122.64600833295844,127.23347186500905" stroke="#4DD2FF" stroke-linecap="round" stroke-linejoin="round" stroke-width="0.5"><title>2025-01-14 10.6km</title><desc>1736807801000</desc></polyline><polyline fill="none" points="164.06922774354462,133.55476827637904 161.3693457453919,135.65799502293885 160.24596827063942,137.09850715259745 159.44827586208703,137.7611279546909 158.67418382063624,138.222076064485 158.21161662516533,139.01143923756536 157.15432017832063,140.06006184930447 156.04038285039132,140.84363275512806 154.64796119052335,142.0535328472506 152.0,144.13333618446632 154.38835715223104,142.2839864885682 156.06870329094818,140.83787125187155 157.06935885670828,140.1464857497631 158.18329618460848,139.06905646997984 158.72138455489767,138.2047905916843 159.57099777107942,137.68622346126358 160.2884489314165,137.08122126791204 161.42598662647652,135.6349464711384 165.2822866133647,132.6731138136165 165.3058869804663,132.5405760962276 165.52301035795244,132.5405760962276 165.86285564443097,132.29278719031208 167.97272846466512,130.55822837980668 168.3408941917005,130.079916883431 169.44539137277752,129.30192998609346 169.85603776058997,128.62190129212104 170.8944539137301,127.97067817715288 171.32398059524712,127.3655512888181 172.32935623443336,126.71431081510673 172.5134390979656,126.15527420434955 173.32057165337028,125.5674141208583 174.05690310738282,124.4320165354402 179.23482365283417,120.78933809755836 181.06621214110055,119.9074448080828 181.66566146587138,119.27339368133471 188.0,115.86666381553005 183.72833355187322,118.08020160610249 181.67038153926842,119.24457297284243 181.0945325816283,119.86709635422812 179.19234299199888,120.79510205167026 174.07106332766125,124.38590844131977 173.29225121281343,125.5674141208583 172.50871902453946,126.1264577044858 172.3010357939056,126.71431081510673 171.31926052185008,127.34249868229381 170.8378130326455,127.98220432818198 169.84187754031154,128.604612299132 169.43595122592524,129.27887832660417 168.3172938245698,130.06839124532053 167.9585682443867,130.54670285862085 165.75901402911404,132.34465009232372 165.55605087190634,132.47142583489767 165.43804903631099,132.3792253286556 165.41444866920938,132.51176349967136 165.23036580570624,132.69040131449583 161.42126655305037,135.60613576556352 160.198767536378,137.13884085886093 159.52851711027324,137.69198534958923 158.6694637472101,138.21631424091538 157.95673266029917,139.2880013111826 157.1071194440883,140.08310823825377 156.36606791662052,140.59588747911766 157.08823915038374,140.14072416132694 158.04169398191152,139.23038434625778 158.68834404091467,138.222076064485 159.6134784318856,137.6574140090197 160.53389274945948,136.80464625125387" stroke="yellow" stroke-linecap="round" stroke-linejoin="round" stroke-width="0.5"><title>2025-01-01 21.1km</title><desc>1735687361000</desc></polyline><polyline fill="none" points="45.080625611008145,152.0 46.528365669655614,153.33870574933826 45.753697743522935,155.58022767172952 45.52510720794089,155.84484915228677 44.95363086904399,155.56466168495535 44.686941910826135,155.813717242243 44.394854004262015,157.21464556714636 45.25841824978124,159.23818116816983 46.00768722750945,159.9386282179039 46.820453576219734,161.3706411637686 45.72829879517667,163.89218956693367 45.63940247579012,165.24633359789732 45.79179616615875,166.35142884856032 46.46486829867354,167.51877244735078 46.3124746082467,169.30867826945905 47.03634463757044,170.95848196034785 47.08714253443759,171.72111975357984 46.51566619548248,173.41758316979394 45.84259406296769,174.0712602182175 43.9630718815024,174.81831554516975 41.80416126776254,174.98951509983453 40.5850117445807,175.59649346255173 40.191328044456895,176.0167075374775 40.16592909611063,176.98163825203665 41.689865999971516,179.39393267669948 41.943855483899824,180.17208230691904 42.0073528548819,181.1214183416596 41.57557073212229,181.91512002311356 40.381820157461334,182.73994195809064 38.69279008905869,183.03563152442803 37.49903951433953,183.59588353488653 33.98128516128054,184.15613305199076 30.349235540430527,188.0 23.35182525689015,182.8177550692053 24.12649318302283,181.51048841867305 32.40655036061071,170.8184051285789 23.859804224804975,164.3124427220755 23.38992367958417,164.62374045071192 13.293841691454872,177.5107906647172 12.91285746556241,177.3240312436974 23.224830514925998,164.01670916663716 22.920043134188745,163.48750001708686 18.818112968001515,160.21880594613322 18.894309813156724,159.87636641578865 19.287993513338733,159.829670044026 19.73247511027148,160.0942825883394 28.62210704939207,167.14522367382597 29.345977078715805,166.9895780242514 30.209541324235033,165.88448837725446" stroke="#4DD2FF" stroke-linecap="round" stroke-linejoin="round" stroke-width="0.5"><title>2024-12-28 10.1km</title><desc>1735347410000</desc></polyline><polyline fill="none" points="78.10681866161758,169.02751397617976 73.7293645767495,172.43245383307658 72.80219548236346,173.75913292240875 71.8902258813323,174.78891679289518 70.70466540000052,175.75374666391872 69.42790795859764,176.5237463213998 68.62993455771357,177.85035392045393 67.01878826259053,179.43668642348348 65.21764830057509,180.71686041904468 63.47730631197919,182.2474749103567 58.666666666656965,186.04141054503998 62.83892759127775,182.7947780583345 65.34684399404796,180.62409491282597 66.86679332909989,179.594390182785 68.59193582434091,177.92456904557184 69.41270846524276,176.5515774880987 70.66666666665697,175.78157811288838 71.92822461473406,174.76108498003305 72.89339244243456,173.69419112903415 73.73696432338329,172.45100894527422 80.05235381043167,167.598692632273 80.05235381043167,167.37601675371843 80.33354443739518,167.40385127426998 80.86552670464152,167.06983635409415 84.3690099218802,164.18425737330836 85.0605868693383,163.33062455800246 86.76293012453243,162.15222435332544 87.42410808528075,161.0573164265952 89.10365210048622,159.99950902042474 89.81042854124098,159.01592048414022 91.40637534300913,157.98592259754514 91.7331644500955,157.03942572722735 92.97952290478861,156.16715345249395 93.99028921255376,154.48753710686287 94.66666666665697,153.9585894549673 94.17268313278328,154.27410253318521 93.04032087814994,156.03723970263673 91.67996622333885,157.0487051656237 91.40637534300913,157.94880529559305 89.74963056785055,159.03447887641232 89.09605235376512,159.962392703339 87.35571036519832,161.08515326445922 86.76293012453243,162.12438790680608 84.96938990920899,163.38629655601108 84.34621068183333,164.17497880737938 80.80472873125109,167.07911456615693 79.70276546335663,167.78425536539726" stroke="#4DD2FF" stroke-linecap="round" stroke-linejoin="round" stroke-width="0.5"><title>2024-12-24 11.5km</title><desc>1734996352000</desc></polyline><polyline fill="none" points="129.80028429278173,164.0626001446435 124.40796019899426,168.26771954248397 122.23951670218958,171.0788385294436 120.86744847189402,172.26182645519293 118.92928216059227,173.47993737946672 117.88343994313618,175.20166391844396 115.73418621177552,177.3098583817191 113.72885572136147,178.6684480254262 110.55294953798875,181.42070424223493 105.36211798153818,185.4845295995765 110.25550817337353,181.69006975471711 113.56574271497084,178.84412631489977 115.81094527360983,177.27472218726325 117.92181947408244,175.20166391844396 119.04442075337283,173.39794963005988 120.53162757633254,172.5546429945025 122.10518834396498,171.26624353055377 124.51350390899461,168.20915368686838 131.09559346124297,163.0435044373662 132.43887704331428,162.18839278123778 132.40049751242623,161.93068640232377 132.83226723520784,161.89554456967016 133.38877043349203,161.52069755307457 137.78322672349168,157.9244344753679 138.5796019900008,156.89355893263564 140.8919687277521,155.26522156060673 141.33333333331393,154.5037593370871 140.77683013497153,155.32379532716732 138.59879175550304,156.83498612565018 137.81201137165772,157.85414785882313 133.4463397298823,161.47384157289343 132.8802416488761,161.86040272415994 132.7363184079295,161.73154918033106 132.54442075331463,162.0712536039864 131.14356787485303,162.96150775996648 124.57107320538489,168.11544824343582 122.0476190476329,171.26624353055377 120.62757640366908,172.42580382742017 118.890902629646,173.5033624378775 117.8930348258582,175.17823927506834 116.63610518834321,176.45487399359263 115.5806680881069,177.4035548373722 113.64250177680515,178.73871937982767 109.68941009242553,182.11168382012693 105.33333333331393,185.49624066292017 109.77576403698185,182.05312642193167 113.70007107319543,178.72700749101205 116.09879175544484,177.00534426848026 117.86425017769216,175.2368008727717 118.96766169153852,173.47993737946672 120.52203269366873,172.54293035012233 121.91329068940831,171.4419353862977 123.29495380236767,169.91926193749532 124.33120113715995,168.3848511463948 127.12331201130291,166.20617988344748" stroke="#4DD2FF" stroke-linecap="round" stroke-linejoin="round" stroke-width="0.5"><title>2024-12-21 15.0km</title><desc>1734737288000</desc></polyline><polyline fill="none" points="173.40495485064457,166.78082773463393 168.57883769390173,170.49495241961995 167.66195878671715,171.8177513364717 166.46168094463064,173.18122976432642 165.41143783277948,174.0461112242483 163.87774947902653,174.97203318367247 162.89418846950866,176.5389545842918 161.2438064366288,178.15671912211837 159.21000231531798,179.61166290262918 156.28432507519028,182.1145137106214 152.0,185.49222563731018 156.99282241257606,181.5447656673132 159.13498495021486,179.67270893920067 161.5438758971868,177.89218115835683 162.89418846950866,176.5389545842918 163.82773790226202,175.01273281377507 165.19472100018174,174.18856142659206 166.428339893464,173.20158001952223 167.57027089601615,171.93985479241383 168.61217874503927,170.46442604270123 174.68858532066224,165.7021741769131 176.4306552442431,164.5624495729062 180.22319981476176,161.4586561452379 180.9233618893195,160.56311390678457 182.85714285710128,159.20960564835696 183.5322991432913,158.05961517315882 185.35772169483243,156.89943169142498 186.23292428799323,155.74940929836157 187.85830053250538,154.71132234280958 188.0,154.50777436268982 186.157906922861,155.7697638151294 185.41606853433768,156.82819182786625 183.49062282929663,158.04943819539767 182.78212549196905,159.2299593189673 180.8566797869571,160.5732905772602 180.18152350076707,161.44847958298487 176.03056263018516,164.83720603871916 175.91386895111646,165.08143324704724 175.44709423475433,165.19337047810404" stroke="#4DD2FF" stroke-linecap="round" stroke-linejoin="round" stroke-width="0.5"><title>2024-12-17 10.2km</title><desc>1734391788000</desc></polyline><polyline fill="none" points="29.492909812834114,210.44222515879665 25.57231990926084,213.46687154893152 24.0,215.48599740579812 22.965399886568775,216.3750585028829 21.67895632443833,217.17271090258873 20.814520703366725,218.5436541041272 19.35110606919625,219.92287816289172 17.88769143508398,220.936506927319 16.043108338082675,222.54000354534946 12.0,225.69703665486304 19.95008508223691,219.39944100040884 20.930232558166608,218.41071536742675 21.69256948385737,217.1644020716485 22.951786727178842,216.38336743026593 23.78218944981927,215.710341022168 24.60578559275018,214.82127123379178 25.674418604641687,213.3837786653603 30.32331253544544,209.73590098968998 32.052183777675964,208.58083741837618 35.067498581978725,206.09613775383332 35.639251276268624,205.37314788418735 37.20476460579084,204.26787264522136 37.75609756101039,203.3204795644633 39.2739648327115,202.36476263891382 39.947816222382244,201.45058604846417 41.32955190015491,200.56964060979954 41.64265456609428,199.71361665089353 42.74532047647517,198.93238149209355 43.75950085083605,197.32832796428556 48.0,194.30296334513696 43.84117980717565,197.21197027705784 42.75212705615559,198.87420404653676 41.629041406704346,199.68037278451084 41.33635847986443,200.5197754322071 39.900170164502924,201.45889680013352 39.2331253545417,202.35645199803548 37.77651730008074,203.27061640497413 37.21157118550036,204.23463100628578 35.57118547928985,205.4063889663812 35.121951219509356,206.00472566623648 34.48893930800841,206.52826595842635" stroke="#4DD2FF" stroke-linecap="round" stroke-linejoin="round" stroke-width="0.5"><title>2024-12-14 12.1km</title><desc>1734132056000</desc></polyline><polyline fill="none" points="83.19118692254415,203.98646922851913 77.72210376686417,208.27358181203454 76.64747690124204,209.83141948359116 75.46730632556137,211.16668876427866 74.05685856431955,212.34967495538876 72.35856432124274,213.36867115818313 71.14001421467401,215.27779580432252 69.13468372425996,217.2103065692645 67.00461975834332,218.69772771687713 64.50995024881558,220.88782550999167 58.66666666668607,225.52551451612817 65.37348969443701,220.1734140812041 66.92786069656722,218.75628713242622 69.57604832976358,216.8238075328918 71.28393745562062,215.10211107568466 72.2626154939644,213.4623714145855 73.92253020609496,212.443376207877 75.31378820189275,211.31895513229392 76.63788201852003,209.85484542071936 77.89481165603502,208.10959742627165 84.65920398011804,202.81509363531222 86.89481165603502,201.32742599352787 91.01101634686347,197.93030306611763 92.24875621887622,199.6991648595358 91.13574982230784,197.86001649255195 91.90334044065094,196.86428449507366 94.1965174129582,195.2359475211997 94.66666666668607,194.47448548387183 94.11975835112389,195.25937702635565 91.92253020609496,196.80571170242183 91.19331911869813,197.75458653553505 86.2519545131945,201.84284101934463 84.32338308461476,203.02594229868555 77.82764747692272,208.12131060599495 76.6186922530178,209.80799354069313 75.29459843639052,211.27210396788723 73.91293532337295,212.39652559309616 72.20504619757412,213.45065888755198 71.14001421467401,215.19580963768385 69.54726368159754,216.78867117959453 67.11016346840188,218.5806087785386 63.627221037691925,221.55538547634933 58.6858564321883,225.44353711259464 63.78073916136054,221.47340467823233 66.85110163473291,218.82655838385836 69.24982231698232,217.12832205540326 71.32231698650867,215.07868642082758 72.3297796730767,213.41552129782212 73.81698649609461,212.52536472868815 75.44811656005913,211.19011437510198 77.92359630420106,208.09788424515136 84.59203980100574,202.87366275498061 86.65493958781008,201.51484996001818 91.12615493958583,197.84830205861363 91.93212508887518,196.8291408237783 94.0525941720116,195.3413802494324" stroke="#4DD2FF" stroke-linecap="round" stroke-linejoin="round" stroke-width="0.5"><title>2024-12-07 17.1km</title><desc>1733527336000</desc></polyline><polyline fill="none" points="107.87283171140007,227.99077143362229 108.1599769028544,227.84311421829625 108.00884785474045,228.0 108.12975109321997,227.74159971511108 107.49500909112976,226.2096369853607 107.57057361520128,226.07120508514345 116.6458729543665,222.79490927217557 117.69621983874822,222.20423798122647 118.50476024614181,221.31822236948938 133.28518115155748,203.98344745347276 133.79146346269408,203.08798605480115 136.26242339934106,196.70866965359892 136.9727299255028,195.22223905493593 138.55202847826877,192.70170276280987 138.84673012210988,192.44318145258876 139.1716575755563,192.50781186328823 138.73338333598804,192.0 138.59736719267676,192.009232973498 137.6452541895851,193.2926052839539 136.7989315201703,194.7144454850859 135.80147980261245,196.69020485706278 133.4892053664953,202.82026872543065 132.9829230553296,203.75265945085266 127.20223696500761,210.62060801891494 120.121841060929,218.78009918721364 119.85736522675143,219.35233805525058 118.21761505474569,221.23515787212818 117.4468569093442,222.01042295574007 116.8952358837414,222.37036474944034 107.65369459165959,225.71128095537279" stroke="#4DD2FF" stroke-linecap="round" stroke-linejoin="round" stroke-width="0.5"><title>2024-11-30 11.9km</title><desc>1732919585000</desc></polyline><polyline fill="none" points="155.18379831686616,192.5634977715672 165.94989642570727,203.7707134403754 184.04719467530958,227.9373935025651 184.71366741554812,227.68696743668988 183.27818766771816,225.495734131895 165.94989642570727,202.83157071174355 155.74773678928614,192.0 155.18379831686616,192.5634977715672 166.05243069352582,203.95854177925503 184.04719467530958,228.0 184.81620168313384,227.8121804848197 184.508598879911,227.0609017353272 166.82143770111725,203.83332289435202 155.74773678928614,192.06261089403415 155.28633258445188,192.6887194145238 166.05243069352582,203.83332289435202 184.09846180933528,227.9373935025651 184.66240028152242,227.37393468176015 167.43664330756292,204.52202638209565 155.90153819089755,192.2504435306182 155.23506545065902,192.6261085968581 166.15496496134438,203.95854177925503 184.09846180933528,228.0 184.8674688169267,227.8121804848197 184.09846180933528,226.49744194961386 166.36003349651583,203.26983753289096 155.74773678928614,192.06261089403415 155.18379831686616,192.5634977715672 165.744827890303,203.64549450943014 184.09846180933528,228.0 184.61113314749673,227.24872152635362 166.77017056732439,203.83332289435202 155.69646965526044,192.06261089403415 155.23506545065902,192.6261085968581 166.05243069352582,203.95854177925503 183.99592754151672,227.9373935025651 184.66240028152242,227.49914780666586 166.97523910272866,204.02115121023962 155.74773678928614,192.12522178061772 155.1325311830733,192.5008869387675 166.10369782731868,204.0837606334826 183.89339327369817,227.7495739646256 184.76493454934098,227.49914780666586 178.3565428177826,219.17240827844944" stroke="#4DD2FF" stroke-linecap="round" stroke-linejoin="round" stroke-width="0.5"><title>2024-11-26 10.9km</title><desc>1732619882000</desc></polyline><polyline fill="none" points="15.260694509604946,232.31035574444104 25.476557970279828,243.11061737366254 44.02775281178765,267.87586645799456 44.3327039598953,266.75866321346257 28.881845790427178,246.27616772631882 15.718121231766418,232.0 15.768946423195302,233.30349285010016 26.03563507506624,243.85545452788938 44.02775281178765,267.75173288572114 44.38352915109135,266.8827970289276 27.306264858692884,244.3520120230387 17.29370216350071,233.55177682294743 15.768946423195302,232.1862134693074 15.51482046651654,232.86899560556049 26.03563507506624,243.7313150781556 44.02775281178765,267.75173288572114 44.688480299199,267.68966608820483 44.38352915109135,266.9448639252805 27.15378928487189,244.2278726947843 15.921421997249126,232.0 15.718121231766418,233.30349285010016 26.13728545792401,243.97959394718055 44.02775281178765,267.87586645799456 44.43435434252024,266.9448639252805 27.560390815371647,244.60029058839427 15.870596805820242,232.0 15.41317008365877,232.62071129883407 25.984809883870184,243.79338480677688 43.92610242892988,267.68966608820483 44.58682991657406,267.0689976949361 26.899663327960297,243.85545452788938 15.921421997249126,232.1241423204774 15.31151970103383,232.68278238701168 26.13728545792401,243.97959394718055 44.28187876846641,268.0 44.02775281178765,266.3862615855178 27.102964093443006,244.16580301936483 15.921421997249126,232.062071163964 15.870596805820242,233.30349285010016 25.883159501012415,243.6692453418509 43.875277237733826,267.68966608820483 44.38352915109135,266.8827970289276 27.407915241550654,244.41408167569898 15.870596805820242,232.1241423204774 15.463995275087655,232.55864020303125 26.13728545792401,243.97959394718055 43.875277237733826,267.5655324702966 44.739305490627885,267.50346564978827 44.38352915109135,266.8207301251241 25.9339846924413,242.73819838644704 15.921421997249126,232.1862134693074 15.819771614391357,233.11727979109855 26.086460266495124,243.85545452788938 43.976927620125934,267.75173288572114 44.637655108002946,267.5655324702966 44.3327039598953,266.8207301251241 27.15378928487189,244.16580301936483 15.921421997249126,232.31035574444104" stroke="#4DD2FF" stroke-linecap="round" stroke-linejoin="round" stroke-width="0.5"><title>2024-11-16 14.9km</title><desc>1731755814000</desc></polyline><polyline fill="none" points="61.79964210558683,232.56154464179417 72.83495930582285,244.10426972742425 90.81843918701634,267.93761051725596 91.17606520745903,267.0017673592083 72.98822759999894,243.16838283231482 62.77034130389802,232.3743631633115 62.05508926324546,232.12478775146883 62.10617869463749,232.87351361999754 72.6816910111811,243.8547000567778 90.71626032399945,267.93761051725596 91.32933350163512,267.31371526943985 88.0085204555653,262.6968667143956 73.70347964088432,244.10426972742425 62.71925187250599,232.31196932168677 62.003999831853434,232.74872605176643 73.09040646324866,244.35383927612565 90.5119025981985,267.7504420229234 91.38042293325998,267.37610482861055 73.55021134647541,243.917092485819 62.617073009721935,232.12478775146883 62.05508926324546,232.62393845262704 73.09040646324866,244.29144690046087 90.71626032399945,267.81283152877586 91.27824407047592,267.0017673592083 74.21437395573594,244.66580104007153 62.565983578097075,232.18718161591096 62.05508926324546,232.8111198397237 72.78386987443082,243.917092485819 90.71626032399945,268.0 91.53369122790173,267.5008839240181 74.21437395573594,244.66580104007153 65.01827628910542,234.68292993010255 62.36162585183047,232.18718161591096 62.10617869463749,232.68633225600934 72.83495930582285,243.97948490740964 90.61408146098256,267.81283152877586 91.43151236488484,267.5008839240181 75.59378860564902,246.5375676167896 62.41271528345533,232.06239387957612 62.05508926324546,232.74872605176643 72.78386987443082,243.97948490740964 90.8695286186412,268.0 91.4826017965097,267.43849438003963 73.34585362044163,243.60513026383705 62.36162585183047,232.0 62.36162585183047,232.9359073927044 72.73278044280596,243.917092485819 90.66517089260742,267.93761051725596 91.43151236488484,267.81283152877586 91.07388634444214,267.0017673592083 73.29476418881677,243.6675227234373 62.10617869463749,232.62393845262704 73.14149589440785,244.5410163573688 90.71626032399945,267.93761051725596 91.17606520745903,267.12654654629296 83.15502446494065,256.64498841535533" stroke="#4DD2FF" stroke-linecap="round" stroke-linejoin="round" stroke-width="0.5"><title>2024-11-10 14.3km</title><desc>1731237417000</desc></polyline><polyline fill="none" points="108.59403595793992,232.62178330111783 120.7113167019561,245.61688018328277 137.25802360009402,267.7513040844351 138.02171776490286,267.6891300865682 137.05437182309106,266.1347776670009 121.37318497779779,245.30599657795392 109.35773012251593,232.37307007197523 108.74677479080856,232.74613987002522 119.38758015003987,243.93810645496706 137.4107624331955,268.0 138.12354365340434,267.7513040844351 137.05437182309106,266.19695185514865 119.84579664864577,243.4406909517711 109.25590423401445,232.37307007197523 108.54312301357277,232.55960500531364 119.28575426153839,243.87592954357387 137.35984948882833,268.0 138.12354365340434,267.44043401890667 120.10036137024872,243.81375262478832 109.25590423401445,232.31089174555382 108.54312301357277,232.62178330111783 118.98027659580112,243.56504487327766 137.51258832169697,267.87565205746796 137.91989187616855,267.1295637632138 120.2021872587502,243.87592954357387 109.10316540091299,232.06217836443102 108.84860067954287,232.808318143012 119.48940603854135,243.87592954357387 137.4616753773298,267.8134780746186 138.07263070903718,267.44043401890667 137.4107624331955,266.3834743736079 120.76222964632325,244.49769831390586 109.25590423401445,232.12435672123684 108.64494890230708,232.37307007197523 121.78048853203654,246.79823614907218 137.35984948882833,267.7513040844351 137.9708048205357,267.502608047158 136.7998071014881,265.63738388888305 120.96588142355904,244.80858241365058 109.2049912896473,232.0 108.6958618464414,232.808318143012 120.35492609185167,244.99511278240243 137.25802360009402,267.7513040844351 138.07263070903718,267.62695608095964 137.30893654446118,266.3834743736079 121.37318497779779,245.1194663233473 109.30681717814878,232.31089174555382 108.74677479080856,232.55960500531364 119.69305781600997,244.1868140239385 137.4107624331955,267.62695608095964 137.7671530432999,266.88086742174346 122.69692152971402,247.04694231855683" stroke="#4DD2FF" stroke-linecap="round" stroke-linejoin="round" stroke-width="0.5"><title>2024-10-26 12.9km</title><desc>1729940418000</desc></polyline><polyline fill="none" points="159.0053050153656,232.2736309337488 165.85498398682103,239.38795295162708 176.28954167244956,253.22524645144586 178.37005164043512,254.86691947231884 180.86666360206436,258.3065879748028 176.865682894364,267.9609142516856 180.9626871389337,258.34567490415066 165.9830153696239,238.95797095421585 159.19735208933707,232.0781802907004 165.95100752380677,239.50522066865233 177.18576135090552,254.3978708985087 178.40205948601943,254.94509416766232 180.86666360206436,258.46293566332315 176.83367504866328,268.0 180.994694984518,258.50202257354977 166.2710859804647,239.1534173883556 159.13333639805205,232.1954506909824 165.88699183263816,239.50522066865233 177.05772996821906,254.28060864747385 178.3060359491501,254.8278321175021 180.8026479105465,258.2675010407693 176.80166720296256,267.9218284984818 180.89867144753225,258.3065879748028 166.68718797410838,239.7006667680398 159.19735208933707,232.0 166.17506244347896,239.85702356151887 176.48158874630462,253.57703423732892 178.43406733160373,254.90600682233344 180.8026479105465,258.2284141018463 176.83367504866328,267.9218284984818 180.9626871389337,258.46293566332315 165.88699183263816,238.84070303625776 159.61345408298075,232.1563605622796 159.13333639805205,232.0781802907004 159.35739131760783,232.58635171400965 165.15081138233654,238.68434574545245 165.15081138233654,237.94164756895043 161.85400327923708,234.61902932394878" stroke="#4DD2FF" stroke-linecap="round" stroke-linejoin="round" stroke-width="0.5"><title>2024-10-19 10.6km</title><desc>1729335763000</desc></polyline></svg>