<?xml version="1.0" encoding="utf-8" ?>
<svg baseProfile="full" height="300mm" version="1.1" viewBox="0,0,200,300" width="200mm" xmlns="http://www.w3.org/2000/svg" xmlns:ev="http://www.w3.org/2001/xml-events" xmlns:xlink="http://www.w3.org/1999/xlink"><defs /><rect fill="#222222" height="300" width="200" x="0" y="0" /><text fill="#FFFFFF" style="font-size:12px; font-family:Arial; font-weight:bold;" x="10" y="20">Over 10km Runs</text><text fill="#FFFFFF" style="font-size:4px; font-family:Arial" x="10" y="280">Runner</text><text fill="#FFFFFF" style="font-size:9px; font-family:Arial" x="10" y="290">unsung</text><text fill="#FFFFFF" style="font-size:4px; font-family:Arial" x="65" y="280">SPECIAL TRACKS</text><rect fill="yellow" height="2.6" width="2.6" x="65" y="283" /><text fill="#FFFFFF" style="font-size:3px; font-family:Arial" x="70" y="285.5">Over 20.0 km</text><rect fill="red" height="2.6" width="2.6" x="65" y="287" /><text fill="#FFFFFF" style="font-size:3px; font-family:Arial" x="70" y="289.5">Over 40.0 km</text><text fill="#FFFFFF" style="font-size:4px; font-family:Arial" x="120" y="280">STATISTICS</text><text fill="#FFFFFF" style="font-size:3px; font-family:Arial" x="120" y="285">Number: 26</text><text fill="#FFFFFF" style="font-size:3px; font-family:Arial" x="120" y="290">Weekly: 1.5</text><text fill="#FFFFFF" style="font-size:3px; font-family:Arial" x="141" y="285">Total: 325.0 km</text><text fill="#FFFFFF" style="font-size:3px; font-family:Arial" x="141" y="290">Avg: 12.5 km</text><text fill="#FFFFFF" style="font-size:3px; font-family:Arial" x="167" y="285">Min: 10.0 km</text><text fill="#FFFFFF" style="font-size:3px; font-family:Arial" x="167" y="290">Max: 21.1 km</text><polyline fill="none" points="20.068337668548338,32.11156005374505 20.207489639287814,31.79999999998836 20.114721658756025,32.47976684941386 24.93865664396435,37.35137085482711 32.52243904885836,47.462454284352134 33.98353474133182,48.623642878592364 35.815702356165275,51.17257302744838 32.87031897553243,58.02622381078254 33.05585493647959,58.81919510423904 29.693015643861145,63.06720936077181 28.09276798053179,64.19999999999709 29.78578362450935,62.95392999211617 33.07904693169985,58.87583580696082 32.93989496096037,58.05454426094366 35.86208634625655,51.25753688249097 26.167832385515794,38.42764163362153 20.068337668548338,32.08323642979667 24.96184863918461,37.40801681004814 33.07904693169985,48.19881845872442 34.00672673655208,48.623642878592364 35.8388943511527,51.229215600920725 32.93989496096037,57.99790335718717 32.93989496096037,58.98911717098963 29.78578362450935,62.98224983944965 28.06957598554436,64.19999999999709 29.808975619613193,62.98224983944965 33.07904693169985,58.90415615317761 32.91670296585653,58.08286470755411 35.954854326788336,51.229215600920725 25.101000609924085,37.09646388475085 20.068337668548338,32.05491280242859 24.915464648976922,37.35137085482711 33.009470946271904,48.11385348121985 34.07630272198003,48.68028607570159 35.8388943511527,51.17257302744838 32.91670296585653,57.99790335718717 33.03266294149216,58.84751545735344 29.716207639081404,63.038889523857506 28.06957598554436,64.1716803014424 29.78578362450935,62.98224983944965 32.98627895116806,59.017437503280235 32.91670296585653,58.19614645947877 35.86208634625655,51.17257302744838 25.28653657087125,37.26640189597674 20.04514567332808,32.026589171538944 24.915464648976922,37.32304787199246 32.56882303906605,47.51909776554385 34.029918731655926,48.65196447895141 35.8388943511527,51.17257302744838 32.93989496096037,57.94126243965002 32.893510970752686,59.07407815747138 29.693015643861145,63.038889523857506 28.046383990324102,64.1716803014424 29.669823648873717,63.12384902444319 33.07904693169985,58.90415615317761 32.93989496096037,58.05454426094366 35.86208634625655,51.62571322708391 35.72293437551707,50.88935995232896 32.91670296585653,47.32084552074957" stroke="#4DD2FF" stroke-linecap="round" stroke-linejoin="round" stroke-width="0.5"><title>2025-06-07 12.0km</title><desc>1749247836000</desc></polyline><polyline fill="none" points="56.389791844878346,31.79999999998836 56.18160985899158,32.50623853063735 60.831007546395995,37.36510106171772 69.04263032774907,48.21242520313535 70.12980292143766,48.805623546169954 71.81839014124125,51.26314330477908 68.88071100541856,58.0706189404591 68.99636766430922,58.889762232720386 65.71171855169814,63.041926642588805 64.06939399545081,64.17175437732658 65.71171855169814,63.07017240326968 69.04263032774907,58.9745010282204 68.92697366885841,58.09886530923541 71.93404680013191,51.37613209008123 61.177977523067966,37.252105420062435 56.065953199984506,32.16724430548493 61.016058200621046,37.534594420634676 69.01949899608735,48.15593004334369 70.014146262547,48.664385983676766 71.81839014124125,51.2066488913988 68.90384233719669,57.98587981330638 68.99636766430922,58.889762232720386 65.73484988347627,63.01368087834271 64.06939399545081,64.17175437732658 65.71171855169814,63.12666391445964 69.08889299130533,58.889762232720386 68.97323633241467,57.98587981330638 71.95717813191004,51.34788489897619 61.27050285018049,37.36510106171772 56.1353471953189,32.054246119907475 60.992926868842915,37.50634553616692 69.01949899608735,48.15593004334369 69.99101493076887,48.60789093449421 71.81839014124125,51.23489609984972 68.88071100541856,58.0141261924291 68.99636766430922,58.889762232720386 65.64232455636375,63.041926642588805 64.11565665900707,64.19999999999709 65.64232455636375,63.154909664794104 69.06576165964361,58.889762232720386 68.92697366885841,58.127111674519256 71.91091546835378,51.37613209008123 61.36302817740943,37.50634553616692 56.3435291814385,32.11074521957198 56.042821868206374,32.280242435852415 60.992926868842915,37.4780966482067 63.60676735988818,40.9244354692637" stroke="#4DD2FF" stroke-linecap="round" stroke-linejoin="round" stroke-width="0.5"><title>2025-06-05 10.1km</title><desc>1749073951000</desc></polyline><polyline fill="none" points="92.21099729137495,31.80000000000291 92.09422063909005,32.14227705373196 96.8353527225554,37.13376031561347 107.88242403033655,51.1093449119071 104.89294173149392,58.011263374995906 105.07978437514976,58.752779650560115 101.763327449793,63.00219282731996 100.10509898711462,64.19999999999709 101.78668278013356,63.00219282731996 105.05642904457636,58.952418244982255 104.98636305332184,58.011263374995906 107.97584535216447,51.13786565649207 97.20903800986707,37.07671539635339 92.02415464771912,31.857046210527187 96.99884003575426,37.276372552645626 107.88242403033655,51.223427869481384 104.91629706183448,57.95422356373456 105.05642904457636,58.80981926640379 101.763327449793,62.97367353395384 100.08174365654122,64.17148085299414 101.7399721192196,63.05923140363302 105.07978437514976,58.89537866396131 105.0330737142358,57.92570365294523 107.92913469125051,51.080824163756915 97.25574867089745,37.13376031561347 92.02415464771912,31.914092407168937 96.90541871404275,37.21932766833925 107.88242403033655,51.1093449119071 104.91629706183448,57.95422356373456 105.05642904457636,58.78129946022818 101.69326145830564,63.05923140363302 100.08174365654122,64.17148085299414 101.69326145830564,63.08775068662362 105.07978437514976,58.92389845622529 104.98636305332184,57.95422356373456 107.97584535216447,51.280469327262836 97.60607862775214,37.5615967650665 92.37448460469022,31.885569310572464 92.07086530863307,32.056707837444264 95.76100752141792,35.82172364126018 99.19424109905958,40.157121060896316" stroke="#4DD2FF" stroke-linecap="round" stroke-linejoin="round" stroke-width="0.5"><title>2025-06-03 10.0km</title><desc>1748953280000</desc></polyline><polyline fill="none" points="127.9983886614209,31.971440400433494 132.95845183043275,37.143166646477766 143.9548182898434,51.11482678161701 141.0302527421154,57.828926442642114 141.05364926648326,58.85745232201589 137.91851499932818,62.885801743061165 136.14037914632354,64.19999999999709 137.84832542622462,62.91437134897569 141.1472353640711,58.800312114181 141.05364926648326,57.9432073195203 143.97821481432766,51.14339782741445 133.14562402537558,36.88601169374306 128.06857823452447,31.80000000000291 132.95845183043275,37.114593887963565 143.9548182898434,51.08625573239988 141.00685621774755,57.914637105568545 141.0302527421154,58.85745232201589 137.77813585300464,63.00008014582272 136.14037914632354,64.17143055118504 137.87172195059247,62.91437134897569 141.10044231533539,58.91459251585184 141.05364926648326,57.914637105568545 143.9548182898434,51.08625573239988 133.5199684156105,37.343175858375616 128.06857823452447,31.828573408842203 132.93505530594848,37.0860211258987 143.9548182898434,51.08625573239988 141.0302527421154,57.914637105568545 141.10044231533539,58.82888221980829 137.84832542622462,62.94294095148507 136.14037914632354,64.17143055118504 137.87172195059247,62.94294095148507 141.1472353640711,58.85745232201589 141.07704579085112,57.800356214735075 144.0016113385791,51.28625300376734 133.68374408618547,37.54318489896832 128.3727330516558,31.80000000000291 128.18556085648015,32.11430730462598 133.0286414035363,37.200312153087 135.6724486586172,40.62901695945766" stroke="#4DD2FF" stroke-linecap="round" stroke-linejoin="round" stroke-width="0.5"><title>2025-05-31 10.0km</title><desc>1748691698000</desc></polyline><polyline fill="none" points="164.23068163439166,31.79999999998836 164.11472165875603,32.281501724530244 168.86908065865282,37.18143290597072 177.2181989023229,48.28378340511699 178.05311072675977,48.59532127484272 179.86208634625655,51.200894315959886 176.87031897553243,58.08286470755411 177.07904693158343,58.81919510423904 173.83216761471704,62.92561014123203 172.11595997563563,64.1716803014424 173.73939963418525,63.010569683334325 177.1022389268037,58.84751545735344 176.96308695606422,58.08286470755411 179.95485432678834,51.200894315959886 169.0082326293923,37.01149483238987 164.04514567332808,32.05491280242859 168.98504063428845,37.32304787199246 177.2181989023229,48.25546175976342 178.09949471708387,48.623642878592364 179.8852783413604,51.200894315959886 176.98627895128448,57.856301037507365 177.0094709462719,58.93247649585828 173.7625916292891,63.010569683334325 172.16234396595974,64.1716803014424 173.78578362439293,62.98224983944965 176.98627895128448,58.93247649585828 176.98627895128448,57.91294197573734 179.95485432678834,51.314179435168626 169.58803250745405,37.691246378206415 164.06833766843192,31.998265537273255 169.0082326293923,37.3796938341402 177.14862291701138,48.19881845872442 178.14587870729156,48.68028607570159 179.86208634625655,51.17257302744838 176.87031897553243,58.02622381078254 177.03266294137575,58.84751545735344 173.73939963418525,63.06720936077181 172.11595997563563,64.1716803014424 173.66982364887372,63.09552919435373 177.055854936596,59.017437503280235 177.0094709462719,57.99790335718717 179.93166233156808,51.25753688249097 169.54164851712994,37.634600492281606 164.06833766843192,32.05491280242859 168.7995046733413,37.068140870775096 176.91670296585653,47.91560174578626 178.00672673643567,48.59532127484272 179.81570235604886,51.11593044019537 176.89351097063627,57.9695829002012 177.03266294137575,58.81919510423904 173.73939963418525,63.038889523857506 172.0927679806482,64.19999999999709 173.90174360002857,62.86897042921919 177.07904693158343,58.90415615317761 176.96308695606422,58.05454426094366 179.93166233156808,51.25753688249097 169.4256885414943,37.54963163744833 164.04514567332808,32.08323642979667 168.98504063428845,37.3796938341402 177.055854936596,48.11385348121985 178.0763027218636,48.70860766903206 179.8852783413604,51.314179435168626 176.91670296585653,57.9695829002012 177.055854936596,58.84751545735344 173.83216761471704,62.92561014123203 172.06957598542795,64.19999999999709 173.73939963418525,63.06720936077181 176.98627895128448,59.04575783210748 176.93989496096037,58.08286470755411 179.93166233156808,51.25753688249097" stroke="#4DD2FF" stroke-linecap="round" stroke-linejoin="round" stroke-width="0.5"><title>2025-03-01 15.0km</title><desc>1740782421000</desc></polyline><polyline fill="none" points="18.15728477551602,72.63469148732838 18.58337634371128,72.59999999997672 18.469751925440505,73.22444612390245 24.37822167063132,79.39945041545434 34.291952156461775,92.5815938677406 35.485008547315374,93.1366180421901 37.70068470179103,96.25860878167441 34.06470332003664,105.0 37.78590301529039,96.32798596317298 24.690688820555806,79.22599707441987 18.469751925440505,72.91222323381226 24.46343998424709,79.46883172210073 34.377170470077544,92.68566098317388 35.428196338238195,93.10192906315206 37.70068470179103,96.18923158300458 34.00789111107588,104.96531247213716 37.84271522448398,96.39736312779132 25.00315597059671,79.60759428446181 18.668594657210633,72.84284032267169 18.327721402747557,72.98160612795618 24.747501029632986,79.78104739196715 34.32035826088395,92.5815938677406 35.54182075627614,93.2059959875769 37.64387249259744,96.18923158300458 34.03629721561447,104.96531247213716 37.84271522448398,96.43205170379952 25.145186493406072,79.74635677901097 18.810625180019997,72.9469146829797 18.299315298208967,72.9469146829797 24.491846088902093,79.53821301175049 34.40557657449972,92.68566098317388 35.485008547315374,93.10192906315206 37.70068470179103,96.22392018447863 34.00789111107588,104.93062493996695 37.81430911982898,96.39736312779132 24.4350338797085,78.9137807933148" stroke="#4DD2FF" stroke-linecap="round" stroke-linejoin="round" stroke-width="0.5"><title>2025-02-25 10.0km</title><desc>1740436543000</desc></polyline><polyline fill="none" points="54.67281085590366,72.60000000000582 54.445318437647074,73.22511537416722 60.331684757373296,79.3720098878548 70.36978770827409,92.70718779292656 71.4219401422888,93.15862816511071 73.61155466700438,96.14506177441217 69.94323942437768,104.96527529152809 73.69686432380695,96.21451334501035 60.7297964891186,79.3720098878548 54.24626257177442,72.8778292251518 60.24637510057073,79.26782634403207 70.34135115600657,92.67246158063062 71.62099600816146,93.36698501787032 73.58311811462045,96.21451334501035 69.91480287199374,104.93055057874881 73.66842777142301,96.24923912395025 60.30324820498936,78.85109178660787 54.303135676309466,72.8778292251518 60.18950199591927,79.23309848766075 69.48825458798092,91.63067323874566 71.4219401422888,93.22808046644786 73.58311811462045,96.17978756179218 69.94323942437768,104.93055057874881 73.66842777142301,96.24923912395025 61.15634477313142,79.82347146881511 54.274699124041945,72.8778292251518 60.331684757373296,79.33728204414365 70.28447805147152,92.63773536420194 71.45037669443991,93.19335431786021 73.66842777142301,96.24923912395025 70.00011252879631,104.86110114050098 73.72530087607447,96.38814219707274 60.92885235499125,79.58037686059834 54.70124740805477,72.91255785911926 54.303135676309466,72.98201511453954 60.502304070978425,79.58037686059834 70.17073184228502,92.42937797619379 71.47881324670743,93.19335431786021 73.6399912192719,96.21451334501035 69.97167597652879,105.0 73.75373742822558,96.63122241158271 71.36506703775376,93.08917584695155" stroke="#4DD2FF" stroke-linecap="round" stroke-linejoin="round" stroke-width="0.5"><title>2025-02-22 12.0km</title><desc>1740177306000</desc></polyline><polyline fill="none" points="90.46753810031805,72.59999999997672 90.29655223665759,73.12204858555924 96.16706688934937,79.24734708014876 105.99875405046623,92.3675710259995 107.45213389163837,93.27239175132127 109.56095954356715,96.16083865554538 105.88476347469259,104.93040137705975 109.67495011934079,96.26523980175261 96.73701976821758,79.3517544339411 90.66702160786372,72.87842603147146 90.21105930476915,72.87842603147146 96.70852212433238,79.90859300663578 106.25523284589872,92.64597770947148 107.33814331586473,93.13318875007099 109.61795483145397,96.26523980175261 105.94175876257941,104.96520069069811 109.646452475572,96.19563904189272 96.2810574650066,78.79491477119154 90.63852396397851,72.7740163015842 90.23955694865435,72.91322926632711 96.08157395757735,79.14293968811398 106.16973991401028,92.57637606421486 107.36664095986634,93.16798950679367 109.61795483145397,96.2304394239909 105.97025640646461,105.0 109.646452475572,96.19563904189272 96.65152683632914,79.17774215646205 90.23955694865435,72.80881954918732 96.36655039689504,79.49096417924738 106.31222813378554,92.68077852582792 107.48063153552357,93.30719249101821 109.58945718745235,96.16083865554538 105.9132611185778,104.93040137705975 109.70344776334241,96.2304394239909 96.85101034399122,79.45616174931638 90.23955694865435,72.80881954918732 96.19556453323457,79.28214953572024 106.1982375580119,92.54157523508184 107.33814331586473,93.13318875007099 109.61795483145397,96.26523980175261 105.94175876257941,104.93040137705975 109.67495011934079,96.12603826500708 96.50903861655388,79.03853225777857 90.29655223665759,72.7740163015842 95.99608102568891,79.03853225777857 106.22673520201351,92.50677440187428 107.39513860363513,93.13318875007099 109.56095954356715,96.19563904189272 105.97025640646461,105.0 109.78894069523085,96.40444127039518 98.95983599592,82.20554059668211" stroke="#4DD2FF" stroke-linecap="round" stroke-linejoin="round" stroke-width="0.5"><title>2025-02-05 15.0km</title><desc>1738709514000</desc></polyline><polyline fill="none" points="126.48581584566273,72.60000000000582 126.4287592691835,73.2619723729731 132.2485300861299,79.39385383401532 142.1763744208729,92.59785481513245 143.4030908185523,93.19010436511599 145.5997690190561,96.25584705159417 141.97667640272994,105.0 145.74241046071984,96.32552263818798 132.7335109874839,79.35901397143607 126.71404215227813,72.84388473752188 126.20053296268452,72.80904407348135 132.39117152779363,79.46353354630992 142.09078955592122,92.42366353666876 143.3745625303127,93.15526619029697 145.5997690190561,96.29068484698655 141.97667640272994,104.96516326995334 145.7138821723638,96.25584705159417 132.56234125758056,79.11513481396833 126.22906125092413,72.84388473752188 132.41969981591683,79.49837339614169 142.0622612676816,92.35398699544021 143.34603424195666,93.120428011287 145.5997690190561,96.18617144794553 141.91961982601788,104.9303265355993 145.74241046071984,96.81325126704178 145.62829730741214,96.15133363968926 132.8476241407916,79.4286936922872 126.68551386403851,72.80904407348135 126.22906125092413,72.91356605273904 132.22000179777388,79.289334233501 142.23343099758495,92.63269305799622 143.46014739526436,93.22494253551122 145.62829730741214,96.22100925192353 141.9481481143739,104.96516326995334 145.68535388400778,96.18617144794553 132.5052846808685,79.01061511118314 126.68551386403851,72.80904407348135 126.22906125092413,72.94840670391568 132.30558666284196,79.39385383401532 142.09078955592122,92.3888252681354 143.3745625303127,93.15526619029697 145.5712407308165,96.15133363968926 141.9481481143739,104.9303265355993 145.7994670374319,96.56938705701032 142.8039967638906,92.63269305799622" stroke="#4DD2FF" stroke-linecap="round" stroke-linejoin="round" stroke-width="0.5"><title>2025-02-04 12.0km</title><desc>1738622138000</desc></polyline><polyline fill="none" points="159.12144096009433,72.60000000000582 159.12144096009433,73.71153056333424 168.31391066359356,83.32615641213488 184.5600081095472,105.0 185.1516026945319,104.94442736444762 184.9240663156379,104.22198248366476 168.8599979726132,83.15943053015508 159.25796278729104,72.98903600653284 158.8028900299687,73.43364817768452 168.4959397665225,83.49288223282201 184.60551538551226,105.0 184.96957359160297,104.33312792473589 168.76898342114873,82.99270458705723 159.43999189068563,73.10018909024075 158.93941185739823,73.43364817768452 168.4504324910231,83.43730696607963 184.5600081095472,104.88885472208494 185.1516026945319,104.94442736444762 184.9240663156379,104.16640975300106 169.54260710906237,83.93748412208515 159.48549916618504,73.15576562174829 158.84839730570093,73.43364817768452 169.26956345443614,84.49323587192339 184.46899355808273,104.77770941710332 185.24261724599637,104.66656408482231 184.51450083381496,103.6106820718851 168.76898342114873,83.15943053015508 159.34897733922116,72.98903600653284 158.89390458143316,73.37807168002473 169.2240561787039,84.32651041832287 184.51450083381496,104.94442736444762 185.0150808673352,104.33312792473589 169.04202707577497,83.32615641213488 159.34897733922116,73.04461255177739 158.75738275400363,73.43364817768452 168.76898342114873,83.88190890979604 184.46899355808273,104.88885472208494 184.7875444884412,104.05526427112636 170.86231810622849,85.66031233308604 159.34897733922116,72.98903600653284 158.84839730570093,73.43364817768452 168.17738883639686,83.15943053015508 184.46899355808273,104.83328207299928 185.0150808673352,104.38870063520153 179.235656845849,96.49730770735187 164.8553577058483,78.88011195129366" stroke="#4DD2FF" stroke-linecap="round" stroke-linejoin="round" stroke-width="0.5"><title>2025-01-23 11.4km</title><desc>1737585341000</desc></polyline><polyline fill="none" points="18.319658434018493,113.39999999996508 18.43438840820454,114.03052146869595 24.40034706215374,120.26560345015605 34.29580732958857,133.47091862710658 35.471789564122446,134.10139589520986 37.65165907226037,137.04360478991293 34.1523948617978,145.72994990079314 37.823754033539444,137.218735318369 25.088726906804368,120.47577238717349 18.606483369483612,113.54011600182275 18.176245966460556,113.61017397721298 24.228252100991085,120.09046255151043 34.20975984900724,133.3658389475022 35.52915455121547,134.10139589520986 37.709024059353396,137.14868311982718 34.008982394239865,145.79999999998836 37.823754033539444,137.18370922128088 24.887949452153407,120.23057527895435 18.262293447041884,113.5751449916279 24.371664568549022,120.23057527895435 34.32448982296046,133.5059451785055 35.44310707075056,133.99631644692272 37.737706552958116,137.14868311982718 34.066347381216474,145.72994990079314 37.823754033539444,137.218735318369 24.77321947796736,120.12549073985429 18.20492845994886,113.54011600182275 25.002679426106624,120.96616597342654 34.35317231656518,133.5059451785055 35.500472057727166,134.03134293406038 37.65165907226037,137.04360478991293 34.066347381216474,145.6598997846013 37.795071539934725,137.14868311982718 24.48639454273507,119.77520866392297 18.577800875878893,113.50508700782666 18.20492845994886,113.5751449916279 24.17088711389806,119.95034975543967 34.09502987470478,133.19070606242167 35.500472057727166,134.06636941674515 37.65165907226037,137.11365701418254 34.066347381216474,145.62487471997156 37.823754033539444,137.28878749976866 24.77321947796736,120.12549073985429 18.66384835646022,113.64520295834518 18.233610953437164,113.82034780012327 24.42902955552563,120.30063161707949 34.41053730354179,133.61102480671252 34.72604473226238,133.26075922930613 27.44069137610495,123.5932601680106" stroke="#4DD2FF" stroke-linecap="round" stroke-linejoin="round" stroke-width="0.5"><title>2025-01-18 14.0km</title><desc>1737153490000</desc></polyline><polyline fill="none" points="65.89202291757101,127.94533882998076 61.85094755399041,131.09187077070237 60.987042750115506,132.32081092143926 60.094579109718325,133.33183800598636 59.009343323035864,134.22083273930184 57.75989422650309,134.98779968440067 56.953107095643645,136.28639536820992 55.60370207138476,137.62854324433283 53.797355663293274,138.92709085506067 47.79999999998836,143.8596133381143 52.076685764681315,140.46963011822663 53.80449537243112,138.95323586619634 55.4466284707014,137.80284631056566 57.01022476860089,136.2776800397478 57.802732481242856,134.97908419727173 59.07360070516006,134.20340157651663 59.99462318205042,133.4625732205095 60.97990304097766,132.3818215828578 61.87236668134574,131.10058673286403 67.14147201407468,126.96910125640716 67.83402379899053,126.58557569602999 67.78404583517113,126.36766252689267 68.52657558393548,126.08001612396765 71.83226090788958,123.36910969375458 72.40343763772398,122.63688577720313 74.03843102685641,121.4862330016258 74.72384310269263,120.41401711080835 76.20890260025044,119.49869810484961 76.88003525781096,118.56593236211484 78.42221242835512,117.57213113398029 78.70780079328688,116.70036426473234 79.8358748347091,115.93320060153928 80.19999999998254,115.34038666189008 79.75733803433832,115.94191841682186 78.72921992064221,116.63934018465807 78.40793301013764,117.53726066384843 76.90145438516629,118.52234487939859 76.23032172763487,119.4463938067347 74.64530630232184,120.44888617393735 74.0527104451321,121.45136444582022 72.41057734680362,122.60201778411283 71.81798148961389,123.3603927866061 69.89026002641185,124.92941890915972" stroke="#4DD2FF" stroke-linecap="round" stroke-linejoin="round" stroke-width="0.5"><title>2025-01-16 10.5km</title><desc>1736984045000</desc></polyline><polyline fill="none" points="87.00955749303102,113.39999999999418 87.23866582638584,114.51920925703598 96.63210749812424,124.20025502244243 112.66969083994627,145.57617367600324 113.26537250680849,145.74404342926573 113.1279075066559,145.01660738693317 98.19004416558892,125.43135598232038 87.46777415997349,113.73576306473115 86.91791415959597,113.39999999999418 86.78044915944338,114.07152588295867 96.54046416468918,124.14429580915021 112.66969083994627,145.74404342926573 113.17372917337343,145.18447734546498 98.05257916543633,125.26347877390799 87.23866582638584,113.51192104880465 86.78044915944338,114.01556543030892 96.63210749812424,124.20025502244243 112.62386917299591,145.74404342926573 113.03626417322084,144.96065072040074 98.3275091657415,125.6551921647042 87.3303091598209,113.62384207037394 86.73462749272585,114.01556543030892 96.49464249797165,124.14429580915021 112.62386917299591,145.6880868517328 113.21955084032379,145.74404342926573 113.0820858401712,145.0725640465971 99.15229916595854,126.60649471671786 87.28448749287054,113.51192104880465 86.78044915944338,114.01556543030892 96.44882083125412,124.08833658896037 112.62386917299591,145.79999999998836 113.26537250680849,145.79999999998836 113.1279075066559,145.0725640465971 97.09032416483387,123.97641812817892 87.37613082653843,113.73576306473115 86.68880582624115,113.95960497079068 96.58628583140671,124.31217342833406 112.53222583979368,145.74404342926573 113.31119417352602,145.63213026736048 112.85297750658356,144.6808672847692 97.22778916498646,124.14429580915021 87.46777415997349,113.73576306473115 86.78044915944338,113.56788156309631 86.82627082616091,114.18344676744891 96.44882083125412,124.08833658896037 101.44338250067085,130.9712692957546 102.22235083440319,130.69147730286932 99.38140749931335,127.11012467852561" stroke="#4DD2FF" stroke-linecap="round" stroke-linejoin="round" stroke-width="0.5"><title>2025-01-14 10.6km</title><desc>1736807801000</desc></polyline><polyline fill="none" points="130.66230496918433,132.79929144874404 128.232411170844,134.69219552064533 127.22137144356384,135.98865643734098 126.50344827587833,136.58501515922399 125.8067654385668,136.9998684580387 125.39045496264589,137.71029531381282 124.43888816048275,138.65405566437767 123.43634456535801,139.35926947961707 122.18316507145937,140.44817956252882 119.80000000000291,142.3200025660226 121.94952143701084,140.65558783971574 123.46183296185336,139.35408412668767 124.36242297102581,138.7318371747897 125.3649665661651,137.76215082298586 125.84924609940208,136.98431153252022 126.61389799397148,136.5176011151416 127.25960403827776,135.97309914112338 128.28338796382013,134.671451824026 131.75405795201368,132.00580243225704 131.77529828243132,131.8865184866081 131.97070932213683,131.8865184866081 132.27657007997914,131.66350847128342 134.1754556181986,130.10240554182747 134.50680477253627,129.67192519509263 135.50085223549104,128.97173698748884 135.87043398452806,128.3597111629133 136.80500852236582,127.77361035943977 137.19158253572823,127.2289961599381 138.09642061099294,126.64287973359751 138.26209518816904,126.13974678391969 138.98851448802452,125.61067270877538 139.65121279665618,124.58881488189581 144.3113412875391,121.31040428780761 145.95959092698467,120.51670032727998 146.49909531929006,119.94605431320451 152.20000000001164,116.87999743398177 148.35550019667426,118.87218144549479 146.50334338535322,119.92011567556256 145.98507932346547,120.48038671880931 144.2731086927961,121.31559184650541 139.66395699490386,124.54731759718925 138.96302609152917,125.61067270877538 138.25784712207678,126.1138119340394 138.07093221451214,126.64287973359751 137.18733446965052,127.20824881406952 136.75403172938968,127.78398389536596 135.8576897862804,128.34415106922097 135.49235610332107,128.95099049394776 134.48556444211863,129.66155212078957 134.16271141995094,130.09203257276386 132.18311262621137,131.71018508309498 132.00044578472443,131.82428325141154 131.89424413269444,131.7413027957955 131.8730038022768,131.86058714970568 131.7073292251298,132.0213611830477 128.27913989772787,134.64552218901008 127.17889078275766,136.02495677297702 126.57566539925756,136.52278681463577 125.80251737248909,136.99468281682493 125.16105939427507,137.95920118006688 124.39640749969112,138.67479741443094 123.7294611249672,139.13629873120954 124.37941523535119,138.72665174519716 125.2375245837029,137.9073459116371 125.81950963681447,136.9998684580387 126.65213058869995,136.49167260811737 127.48050347450771,135.7241816261303" stroke="yellow" stroke-linecap="round" stroke-linejoin="round" stroke-width="0.5"><title>2025-01-01 21.1km</title><desc>1735687361000</desc></polyline><polyline fill="none" points="185.57256304990733,113.40000000000146 186.87552910274826,114.60483517440298 186.1783279692172,116.62220490455366 185.972596487205,116.86036423706537 185.45826778217452,116.60819551645545 185.21824771980755,116.83234551801434 184.95536860387074,118.09318101043755 185.73257642483804,119.91436305135721 186.40691850479925,120.54476539610914 187.13840821862686,121.83357704738592 186.15546891570557,124.10297061023448 186.07546222826932,125.32170023810613 186.21261654957198,126.31628596370865 186.81838146882365,127.36689520262007 186.68122714746278,128.97781044251315 187.33271017385414,130.46263376432034 187.37842828105204,131.14900777822186 186.86409957596334,132.6758248528131 186.25833465671167,133.2641341963972 184.5667646934162,133.9364839906484 182.62374514102703,134.09056358984526 181.5265105701983,134.6368441162922 181.1721952400403,135.01503678372683 181.14933618652867,135.8834744268388 182.52087940002093,138.05453940902953 182.74946993560297,138.7548740762213 182.80661756946938,139.6092765075009 182.41801365895662,140.32360802080802 181.34363814175595,141.06594776228303 179.8235110801761,141.3320683719794 178.74913556291722,141.8362951813906 175.5831566452398,142.34051974678732 172.31431198643986,145.8000000000029 166.01664273126516,141.13597956228477 166.71384386479622,139.95943957679992 174.16589532460785,130.33656461572537 166.47382380237104,124.4811984498665 166.05093131167814,124.76136640564073 156.96445752232103,136.3597115982484 156.62157171900617,136.1916281193262 165.90234746347414,124.2150382499749 165.62803882081062,123.73875001537817 161.93630167120136,120.79692535151844 162.0048788319109,120.48872977420979 162.3591941620689,120.44670303961902 162.75922759930836,120.68485432950547 170.75989634450525,127.03070130644483 171.4113793708966,126.89062022182043 172.18858719186392,125.8960395395261" stroke="#4DD2FF" stroke-linecap="round" stroke-linejoin="round" stroke-width="0.5"><title>2024-12-28 10.1km</title><desc>1735347410000</desc></polyline><polyline fill="none" points="29.296136795455823,169.52476257855596 25.35642811906291,172.5892084497682 24.521975934127113,173.78321963016788 23.701203293225262,174.71002511359984 22.63419886000338,175.57837199752248 21.48511716275243,176.271371689254 20.766941101959674,177.46531852840417 19.31690943634021,178.8930177811344 17.695883470529225,180.04517437713366 16.129575680795824,181.4227274193181 11.799999999988358,184.8372694905338 15.555034832155798,181.91530025249085 17.812159594672266,179.96168542153464 19.180113996204454,179.03495116450358 20.73274224193301,177.53211214100884 21.471437618747586,176.29641973928665 22.599999999976717,175.60342030159518 23.735402153251925,174.68497648202174 24.604053198214388,173.72477201612492 25.363267891050782,172.60590805074025 31.04711842938559,168.23882336903625 31.04711842938559,168.03841507834295 31.30018999366439,168.0634661468357 31.778974034183193,167.76285271867528 34.93210892970092,165.16583163596806 35.554528182401555,164.3975621021964 37.08663711207919,163.33700191798562 37.68169727677014,162.35158478392987 39.19328689042595,161.39955811837717 39.829385687131435,160.51432843572547 41.26573780871695,159.58733033778844 41.55984800509759,158.73548315449443 42.68157061430975,157.9504381072402 43.59126029131585,156.43878339617368 44.19999999998254,155.9627305094691 43.7554148195195,156.24669227985578 42.73628879035823,157.83351573236723 41.51196960100788,158.7438346490526 41.26573780871695,159.5539247660272 39.77466751108295,160.53103098876454 39.18644711840898,161.36615343300218 37.62013932867558,162.3766379380104 37.08663711207919,163.31194911611965 35.47245091831428,164.44766690039978 34.9115896136791,165.15748092663125 31.72425585813471,167.77120310953615 30.732488917041337,168.40582982885098" stroke="#4DD2FF" stroke-linecap="round" stroke-linejoin="round" stroke-width="0.5"><title>2024-12-24 11.5km</title><desc>1734996352000</desc></polyline><polyline fill="none" points="69.82025586350937,165.0563401301697 64.96716417907737,168.84094758822903 63.0155650319648,171.37095467649488 61.78070362471044,172.43564380966563 60.03635394453886,173.53194364151568 59.09509594878182,175.08149752659665 57.160767590627074,176.97887254353554 55.3559701492195,178.20160322287848 52.497654584178235,180.6786338180027 47.8259061833669,184.3360766396072 52.22995735605946,180.9210627792345 55.209168443485396,178.3597136833996 57.22985074625467,176.94724996852892 59.12963752663927,175.08149752659665 60.13997867802391,173.45815466704516 61.478464818705106,172.6991786950457 62.894669509580126,171.53961917749257 65.06215351811261,168.78823831817135 70.98603411510703,164.13915399362304 72.19498933898285,163.36955350310745 72.1604477611836,163.13761776208412 72.54904051168705,163.1059901126937 73.04989339015447,162.76862779776275 77.00490405113669,159.53199102781946 77.72164179102401,158.60420303936553 79.80277185497107,157.13869940453878 80.19999999998254,156.45338340337184 79.69914712148602,157.19141579444113 77.73891257995274,158.5514875130757 77.03081023451523,159.46873307292844 73.10170575688244,162.72645741559973 72.59221748399432,163.0743624517345 72.46268656713073,162.95839426229213 72.28997867798898,163.26412824357976 71.02921108735609,164.065356983956 65.11396588484058,168.70390341908205 62.842857142852154,171.53961917749257 61.564818763319636,172.5832234446716 60.001812366681406,173.5530261940803 59.10373134328984,175.06041534755786 57.972494669491425,176.20938659422973 57.022601279313676,177.06319935362262 55.27825159911299,178.26484744183836 51.720469083142234,181.30051543810987 47.79999999998836,184.3466165966238 51.79818763327785,181.24781377972977 55.33006396587007,178.25430674190284 57.48891257989453,176.70480984161986 59.0778251599113,175.11312078548508 60.07089552236721,173.53194364151568 61.4698294242844,172.6886373150992 62.72196162046748,171.69774184765993 63.96545842214255,170.3273357437356 64.89808102344978,168.94636603174877 67.41098081017844,166.9855618950969" stroke="#4DD2FF" stroke-linecap="round" stroke-linejoin="round" stroke-width="0.5"><title>2024-12-21 15.0km</title><desc>1734737288000</desc></polyline><polyline fill="none" points="103.06445936555974,167.50274496116617 98.7209539244941,170.84545717765286 97.89576290803961,172.03597620281653 96.81551285015303,173.26310678789014 95.87029404949863,174.0415001018191 94.48997453111224,174.87482986530085 93.6047696225578,176.28505912586115 92.11942579297465,177.74104720990726 90.28900208376581,179.05049661236262 87.65589256767998,181.3030623395607 83.79999999998836,184.34300307357626 88.29354017131845,180.79028910057968 90.22148645517882,179.10543804527697 92.38948830743902,177.50296304251242 93.6047696225578,176.28505912586115 94.44496411204454,174.91145953239175 95.67524890016648,174.16970528392994 96.7855059041176,173.28142201756418 97.81324380642036,172.14586931317172 98.75096087052952,170.8179834384282 104.21972678857855,166.53195675921597 105.78758971981006,165.5062046156163 109.20087983328267,162.7127905307134 109.8310257003759,161.9068025161032 111.57142857139115,160.68864508352272 112.17906922893599,159.65365365584148 113.82194952532882,158.6094885222774 114.60963185920264,157.57446836851886 116.07247047923738,156.64019010851916 116.19999999998254,156.45699692641938 114.54211623055744,157.5927874336121 113.87446168088354,158.54537264507235 112.14156054635532,159.64449437585426 111.50391294277506,160.70696338707057 109.77101180824684,161.91596151953127 109.163371150702,162.7036316246813 105.42750636715209,165.7534854348487 105.32248205598444,165.97328992233815 104.90238481128472,166.07403343029" stroke="#4DD2FF" stroke-linecap="round" stroke-linejoin="round" stroke-width="0.5"><title>2024-12-17 10.2km</title><desc>1734391788000</desc></polyline><polyline fill="none" points="135.5436188315507,170.7980026429177 132.0150879183202,173.52018439403764 130.60000000000582,175.3373976652183 129.668859897909,176.13755265259533 128.5110606919916,176.8554398123306 127.73306863303878,178.08928869371448 126.41599546227371,179.33059034660255 125.09892229156685,180.24285623458854 123.43879750426277,181.68600319081452 119.79999999998836,184.52733298937892 126.95507657399867,178.85949690036796 127.83720930234995,177.9696438306819 128.52331253545708,176.84796186448148 129.6566080544435,176.1450306872357 130.40397050484899,175.53930691995265 131.14520703346352,174.7391441104155 132.10697674416588,173.44540079882063 136.29098128189798,170.1623108907188 137.8469653998909,169.12275367653638 140.56074872377212,166.88652397845 141.0753261486243,166.2358330957686 142.48428814520594,165.24108538069777 142.98048780491808,164.3884316080148 144.3465683494287,163.5282863750217 144.95303460012656,162.7055274436134 146.19659671012778,161.91267654881813 146.47838910945575,161.1422549857998 147.47078842882183,160.43914334288638 148.38355076574953,158.9954951678592 152.20000000001164,156.27266701062035 148.45706182645517,158.89077324935351 147.47691435055458,160.38678364188308 146.46613726601936,161.11233550606266 146.20272263188963,161.86779788899003 144.91015314805554,162.71300712011725 144.30981281906134,163.52080679822757 142.99886557005811,164.34355476447672 142.49041406693868,165.21116790565793 141.01406693135505,166.26575006974235 140.60975609754678,166.80425309961356 140.0400453772163,167.27543936258007" stroke="#4DD2FF" stroke-linecap="round" stroke-linejoin="round" stroke-width="0.5"><title>2024-12-14 12.1km</title><desc>1734132056000</desc></polyline><polyline fill="none" points="177.87206823023735,164.98782230566576 172.94989339014865,168.846223630826 171.98272921104217,170.24827753523277 170.92057569295866,171.45001988784497 169.65117270784685,172.5147074598499 168.12270788906608,173.43180404236045 167.02601279315422,175.1500162238881 165.22121535177575,176.8892759123337 163.30415778249153,178.22795494519232 161.05895522388164,180.19904295898596 155.79999999998836,184.37296306451026 161.83614072494674,179.5560726730837 163.23507462683483,178.28065841918578 165.61844349675812,176.54142677960044 167.1555437100178,174.99189996811037 168.03635394453886,173.51613427312986 169.53027718546218,172.59903858709004 170.78240938164527,171.58705961906526 171.97409381662146,170.26936087865033 173.10533049039077,168.69863768364303 179.19328358207713,163.93358427177736 181.2053304903675,162.59468339417072 184.90991471213056,159.53727275950223 186.02388059697114,161.1292483735815 185.02217484006542,159.47401484329748 185.7130063965742,158.57785604556557 187.77686567162164,157.11235276907973 188.19999999998254,156.42703693548538 187.70778251596494,157.13343932371936 185.73027718547382,158.525140532176 185.0739872068225,159.37912788197718 180.62675906182267,163.05855691740726 178.8910447761009,164.123348068817 173.04488272918388,168.70917954539618 171.95682302769274,170.22719418662746 170.76513859271654,171.5448935710956 169.52164179101237,172.55687303378363 167.9845415778109,173.50559299879387 167.02601279315422,175.07622867391183 165.59253731340868,176.5098040616358 163.39914712152677,178.12254790068255 160.2644989339169,180.7998469287122 155.81727078891709,184.29918340133736 160.4026652451721,180.7260642104011 163.16599147120724,178.3439025454718 165.3248400852608,176.81548984986148 167.19008528781706,174.970817778747 168.09680170574575,173.473969168037 169.43528784645605,172.67282825581788 170.90330490402994,171.47110293759033 173.1312366737402,168.68809582063113 179.13283582087024,163.9862964794811 180.98944562897668,162.763364964012 185.0135394455865,159.463471852745 185.73891257995274,158.5462267414041 187.64733475475805,157.20724222448916" stroke="#4DD2FF" stroke-linecap="round" stroke-linejoin="round" stroke-width="0.5"><title>2024-12-07 17.1km</title><desc>1733527336000</desc></polyline><polyline fill="none" points="14.085548540286254,227.39169429026515 14.343979212571867,227.2588027964739 14.207963069260586,227.40000000000146 14.31677598389797,227.16743974360725 13.745508182008052,225.78867328682827 13.813516253692796,225.66408457663056 21.981285658926936,222.71541834496747 22.92659785487922,222.18381418311037 23.654284221527632,221.3864001325419 36.95666303639882,205.78510270813422 37.412317116424674,204.97918744933122 39.636181059409864,199.2378026882434 40.27545693295542,197.90001514944743 41.69682563043898,195.63153248653543 41.96205710989307,195.39886330733862 42.25449181799195,195.4570306769674 41.860045002395054,195.00000000000728 41.73763047342072,195.00830967615184 40.8807287706295,196.16334475556505 40.11903836816782,197.44300093658967 39.221331822365755,199.2211843713594 37.14028482986032,204.73824185289413 36.684630749805365,205.5773935057805 31.482013268512674,211.75854721703217 25.109656954853563,219.10208926850464 24.871628704073373,219.6171042497299 23.395853549300227,221.31164208492555 22.702171218406875,222.0093806601726 22.205712295370176,222.33332827450067 13.888325132516911,225.34015285984788" stroke="#4DD2FF" stroke-linecap="round" stroke-linejoin="round" stroke-width="0.5"><title>2024-11-30 11.9km</title><desc>1732919585000</desc></polyline><polyline fill="none" points="50.66541848517954,195.5071479944163 60.35490678297356,205.59364209632622 76.64247520780191,227.34365415229695 77.24230067408644,227.1182706929976 75.95036890078336,225.14616071872297 60.35490678297356,204.7484136405401 51.17296311026439,195.0 50.66541848517954,195.5071479944163 60.44718762417324,205.7626876013528 76.64247520780191,227.39999999999418 77.33458151482046,227.23096243635518 77.0577389919199,226.5548115617712 61.13929393095896,205.64999060492846 51.17296311026439,195.05634980462492 50.757699326146394,195.61984747307724 60.44718762417324,205.64999060492846 76.68861562828533,227.34365415229695 77.19616025337018,226.83654121358995 61.69297897676006,206.26982374390354 51.31138437171467,195.22539917757967 50.71155890566297,195.56349773719558 60.53946846514009,205.7626876013528 76.68861562828533,227.39999999999418 77.38072193530388,227.23096243635518 76.68861562828533,226.0476977546641 60.72403014684096,205.14285377960186 51.17296311026439,195.05634980462492 50.66541848517954,195.5071479944163 60.17034510127269,205.48094505848712 76.68861562828533,227.39999999999418 77.15001983288676,226.72384937369497 61.09315351047553,205.64999060492846 51.126822689780965,195.05634980462492 50.71155890566297,195.56349773719558 60.44718762417324,205.7626876013528 76.59633478731848,227.34365415229695 77.19616025337018,226.9492330259818 61.27771519240923,205.81903608920402 51.17296311026439,195.11269960255595 50.61927806469612,195.45079824488494 60.49332804442383,205.87538457012852 76.50405394635163,227.17461656813975 77.28844109433703,226.9492330259818 71.52088853600435,219.45516745062196" stroke="#4DD2FF" stroke-linecap="round" stroke-linejoin="round" stroke-width="0.5"><title>2024-11-26 10.9km</title><desc>1732619882000</desc></polyline><polyline fill="none" points="86.7346250587143,195.27932016996783 95.928902173182,204.99955563628464 112.6249775304459,227.28827981217182 112.89943356369622,226.28279689207557 98.9936612113379,207.84855095366947 87.14630910847336,194.9999999999709 87.19205178064294,196.17314356507268 96.43207156751305,205.66990907507716 112.6249775304459,227.17655959710828 112.9451762358658,226.39451732602902 97.5756383726839,206.11681082073483 88.56433194712736,196.3965991406585 87.19205178064294,195.16759212233592 86.96333841979504,195.78209604500444 96.43207156751305,205.55818357030512 112.6249775304459,227.17655959710828 113.21963226911612,227.12069947933196 112.9451762358658,226.45037753271754 97.43841035617515,206.00508542527677 87.32927979738452,194.9999999999709 87.14630910847336,196.17314356507268 96.52355691185221,205.7816345524334 112.6249775304459,227.28827981217182 112.99091890803538,226.45037753271754 97.80435173376463,206.34026152954902 87.2835371249821,194.9999999999709 86.87185307522304,195.55864016892156 96.38632889534347,205.61404632605263 112.53349218587391,227.12069947933196 113.12814692477696,226.56209792540176 97.20969699509442,205.66990907507716 87.32927979738452,195.11172808843548 86.78036773088388,195.6145041482814 96.52355691185221,205.7816345524334 112.85369089152664,227.39999999999418 112.6249775304459,225.94763542697183 97.39266768400557,205.94922271740506 87.32927979738452,195.05586404752103 87.2835371249821,196.17314356507268 96.29484355077147,205.5023208076309 112.48774951370433,227.12069947933196 112.9451762358658,226.39451732602902 97.66712371725589,206.17267350808834 87.2835371249821,195.11172808843548 86.91759574739262,195.5027761827223 96.52355691185221,205.7816345524334 112.48774951370433,227.00897922323202 113.2653749412857,226.95311908479198 112.9451762358658,226.3386571125884 96.34058622317389,204.66437854777905 87.32927979738452,195.16759212233592 87.23779445281252,196.00555181194795 96.47781423991546,205.66990907507716 112.57923485804349,227.17655959710828 113.17388959717937,227.00897922323202 112.89943356369622,226.3386571125884 97.43841035617515,205.94922271740506 87.32927979738452,195.27932016996783" stroke="#4DD2FF" stroke-linecap="round" stroke-linejoin="round" stroke-width="0.5"><title>2024-11-16 14.9km</title><desc>1731755814000</desc></polyline><polyline fill="none" points="122.61967789498158,195.5053901775973 132.55146337510087,205.89384275468183 148.73659526836127,227.3438494655129 149.05845868657343,226.50159062325838 132.68940483988263,205.05154454908916 123.49330717348494,195.3369268469687 122.84958033682778,195.11230897629866 122.89556082501076,195.78616225798032 132.41352191008627,205.66923005107674 148.64463429152966,227.3438494655129 149.19640015158802,226.78234374246676 146.20766840991564,222.62718004296767 133.3331316767726,205.89384275468183 123.44732668506913,195.28077238952392 122.80359984841198,195.67385344655486 132.78136581694707,206.11845534847816 148.4607123383321,227.17539782062522 149.24238064000383,226.8384943457495 133.19519021175802,205.7253832372371 123.35536570870318,195.11230897629866 122.84958033682778,195.56154460736434 132.78136581694707,206.06230221042642 148.64463429152966,227.23154837585753 149.15041966340505,226.50159062325838 133.79293655999936,206.39922093605855 123.30938522005454,195.16846345429076 122.84958033682778,195.7300078557455 132.5054828869179,205.7253832372371 148.64463429152966,227.39999999999418 149.38032210501842,226.95079553162213 133.79293655999936,206.39922093605855 125.51644866005518,197.41463693708647 123.12546326662414,195.16846345429076 122.89556082501076,195.6176990303793 132.55146337510087,205.7815364166745 148.55267331493087,227.23154837585753 149.28836112841964,226.95079553162213 135.0344097451307,208.08381085511064 123.17144375503995,195.0561544916127 122.84958033682778,195.67385344655486 132.5054828869179,205.7815364166745 148.78257575654425,227.39999999999418 149.33434161660261,226.8946449420182 133.01126825832762,205.44461723743007 123.12546326662414,195.0 123.12546326662414,195.84231665343395 132.45950239826925,205.7253832372371 148.59865380334668,227.3438494655129 149.28836112841964,227.23154837585753 148.96649770997465,226.50159062325838 132.9652877699118,205.50077045106445 122.89556082501076,195.56154460736434 132.82734630489722,206.2869147216261 148.64463429152966,227.3438494655129 149.05845868657343,226.61389189166948 141.83952201833017,217.18048957383144" stroke="#4DD2FF" stroke-linecap="round" stroke-linejoin="round" stroke-width="0.5"><title>2024-11-10 14.3km</title><desc>1731237417000</desc></polyline><polyline fill="none" points="158.7346323619131,195.55960497097112 169.64018503180705,207.25519216497196 184.5322212399915,227.17617367597995 185.21954598813318,227.12021707792883 184.34893464064226,225.72129990029498 170.23586647980846,206.97539692014107 159.4219571100548,195.33576306476607 158.87209731154144,195.6715258829936 168.44882213510573,205.74429580944707 184.66968618961982,227.39999999999418 185.3111892878078,227.17617367597995 184.34893464064226,225.77725666962215 168.8612169837579,205.2966218565998 159.330313810613,195.33576306476607 158.6888107121922,195.5036445047881 168.35717883519828,205.68833658919903 184.62386453989893,227.39999999999418 185.3111892878078,226.89639061701018 169.0903252332937,205.6323773623153 159.330313810613,195.27980257099262 158.6888107121922,195.55960497097112 168.08224893617444,205.4085403859208 184.76132948952727,227.28808685170952 185.12790268845856,226.6166073868808 169.18196853273548,205.68833658919903 159.19284886075184,195.05596052797046 158.96374061144888,195.72748632868752 168.5404654345475,205.68833658919903 184.71550783957355,227.23213026716257 185.2653676380869,226.89639061701018 184.66968618961982,225.9451269362471 169.68600668152794,206.24792848250945 159.330313810613,195.1119210491015 158.78045401186682,195.33576306476607 170.60243967873976,208.31841253419407 184.62386453989893,227.17617367597995 185.17372433841228,226.9523472424189 184.1198263913393,225.273645499954 169.86929328111,206.5277241722797 159.28449216042645,195.0 158.82627566182055,195.72748632868752 169.31943348236382,206.69560150415055 184.5322212399915,227.17617367597995 185.2653676380869,227.06426047286368 184.5780428899452,225.9451269362471 170.23586647980846,206.80751969100675 159.37613546010107,195.27980257099262 158.87209731154144,195.5036445047881 168.7237520343624,205.96813262152136 184.66968618961982,227.06426047286368 184.99043773883022,226.39278067954 171.42722937674262,208.54224808668368" stroke="#4DD2FF" stroke-linecap="round" stroke-linejoin="round" stroke-width="0.5"><title>2024-10-26 12.9km</title><desc>1729940418000</desc></polyline><polyline fill="none" points="18.10477451386396,236.0462678404001 24.269485588301904,242.44915765646147 33.66058750532102,254.9027218062838 35.533046476426534,256.3802275250782 37.77999724203255,259.475929177308 34.1791146050673,268.1648228265112 37.86641842511017,259.5111074137385 24.38471383275464,242.06217385880882 18.277616880484857,235.87036226163036 24.355906771612354,242.55469860180165 34.46718521602452,255.95808380865492 35.56185353756882,256.45058475088445 37.77999724203255,259.6166420969821 34.15030754392501,268.20000000001164 37.89522548625246,259.65182031618315 24.643977382569574,242.2380756495404 18.22000275843311,235.97590562188998 24.298292649444193,242.55469860180165 34.351956971455365,255.8525477827352 35.47543235437479,256.3450489057577 37.72238311963156,259.4407509366865 34.12150048278272,268.12964564861613 37.80880430294201,259.475929177308 25.018469176720828,242.73060009122128 18.277616880484857,235.79999999998836 24.557556199259125,242.8713212053699 33.8334298718255,255.2193308135902 35.590660598594695,256.41540614012047 37.72238311963156,259.4055726916704 34.15030754392501,268.12964564861613 37.86641842511017,259.6166420969821 24.298292649444193,241.95663273264654 18.652108674752526,235.9407245060429 18.22000275843311,235.87036226163036 18.421652185963467,236.3277165426116 23.635730244219303,241.8159111709101 23.635730244219303,241.1474828120554 20.668602951453067,238.15712639156845" stroke="#4DD2FF" stroke-linecap="round" stroke-linejoin="round" stroke-width="0.5"><title>2024-10-19 10.6km</title><desc>1729335763000</desc></polyline></svg>