<?xml version="1.0" encoding="utf-8" ?>
<svg baseProfile="full" height="300mm" version="1.1" viewBox="0,0,200,300" width="200mm" xmlns="http://www.w3.org/2000/svg" xmlns:ev="http://www.w3.org/2001/xml-events" xmlns:xlink="http://www.w3.org/1999/xlink"><defs /><rect fill="#222222" height="300" width="200" x="0" y="0" /><text fill="#FFFFFF" style="font-size:12px; font-family:Arial; font-weight:bold;" x="10" y="20">Over 10km Runs</text><text fill="#FFFFFF" style="font-size:4px; font-family:Arial" x="10" y="280">Runner</text><text fill="#FFFFFF" style="font-size:9px; font-family:Arial" x="10" y="290">unsung</text><text fill="#FFFFFF" style="font-size:4px; font-family:Arial" x="65" y="280">SPECIAL TRACKS</text><rect fill="yellow" height="2.6" width="2.6" x="65" y="283" /><text fill="#FFFFFF" style="font-size:3px; font-family:Arial" x="70" y="285.5">Over 20.0 km</text><rect fill="red" height="2.6" width="2.6" x="65" y="287" /><text fill="#FFFFFF" style="font-size:3px; font-family:Arial" x="70" y="289.5">Over 40.0 km</text><text fill="#FFFFFF" style="font-size:4px; font-family:Arial" x="120" y="280">STATISTICS</text><text fill="#FFFFFF" style="font-size:3px; font-family:Arial" x="120" y="285">Number: 23</text><text fill="#FFFFFF" style="font-size:3px; font-family:Arial" x="120" y="290">Weekly: 1.4</text><text fill="#FFFFFF" style="font-size:3px; font-family:Arial" x="141" y="285">Total: 292.9 km</text><text fill="#FFFFFF" style="font-size:3px; font-family:Arial" x="141" y="290">Avg: 12.7 km</text><text fill="#FFFFFF" style="font-size:3px; font-family:Arial" x="167" y="285">Min: 10.0 km</text><text fill="#FFFFFF" style="font-size:3px; font-family:Arial" x="167" y="290">Max: 21.1 km</text><polyline fill="none" points="21.109320734860376,32.19048933379236 26.620502033736557,37.936851829406805 38.838686988689005,53.46091864621849 35.58916971355211,60.92102938069729 35.615165851661004,62.063835913315415 32.13168333261274,66.5397797144833 30.155976829235442,68.0 32.05369491793681,66.57152372106793 35.71915040444583,62.00034679353121 35.615165851661004,61.04800813278416 38.86468312703073,53.49266425266978 26.828471139306203,37.65112410415895 21.18730914941989,32.0 26.620502033736557,37.90510431994335 38.838686988689005,53.429173035983695 35.563173575210385,61.016263450612314 35.58916971355211,62.063835913315415 31.975706503377296,66.66675571756787 30.155976829235442,67.96825616795104 32.07969105616212,66.57152372106793 35.66715812811162,62.12732501758728 35.615165851661004,61.016263450612314 38.838686988689005,53.429173035983695 27.24440935056191,38.159084287064616 21.18730914941989,32.031748232024256 26.594505895511247,37.87335680652177 38.838686988689005,53.429173035983695 35.58916971355211,61.016263450612314 35.66715812811162,62.03209135532961 32.05369491793681,66.60326772383996 30.155976829235442,67.96825616795104 32.07969105616212,66.60326772383996 35.71915040444583,62.063835913315415 35.641161989886314,60.889284683042206 38.890679265139624,53.65139222639846 27.42638231802266,38.381316554383375 21.525258946232498,32.0 21.317289840546437,32.34923033847008 26.698490448412485,38.000346836750396 29.636054065194912,41.810018843825674" stroke="#4DD2FF" stroke-linecap="round" stroke-linejoin="round" stroke-width="0.5"><title>2025-05-31 10.0km</title><desc>1748691698000</desc></polyline><polyline fill="none" points="68.03409070475027,32.0 67.90524628735147,32.535001916170586 73.18786739837378,37.97936989553273 82.4646654468961,50.315314894600306 83.39234525186475,50.661468083184445 85.40231816237792,53.556549239961896 82.07813219493255,61.20318300841609 82.3100521460874,62.02132789362804 78.70240846066736,66.58401126804529 76.79551108391024,67.96853366828873 78.59933292679489,66.678410759283 82.33582102961373,62.05279495261493 82.18120772880502,61.20318300841609 85.5053936962504,53.556549239961896 73.34248069918249,37.79054981379886 67.82793963700533,32.28323644716875 73.31671181577258,38.1367198577791 82.4646654468961,50.283846399746835 83.44388301880099,50.69293653179193 85.42808704590425,53.556549239961896 82.20697661233135,60.95144559725304 82.23274549574126,62.14719610652537 78.6251018102048,66.678410759283 76.84704885096289,67.96853366828873 78.6508706936147,66.64694426607457 82.20697661233135,62.14719610652537 82.20697661233135,61.01437997305766 85.5053936962504,53.68242159465444 73.98670278594363,38.54582930912147 67.85370852041524,32.220295041421195 73.34248069918249,38.1996598157275 82.38735879654996,50.22090939860209 83.49542078573722,50.75587341748178 85.40231816237792,53.52508114161901 82.07813219493255,61.140248678653734 82.25851437926758,62.05279495261493 78.59933292679489,66.74134373420384 76.79551108391024,67.96853366828873 78.52202627633233,66.77281021597446 82.2842832627939,62.241597225889564 82.23274549574126,61.108781507995445 85.47962481272407,53.61948542500613 73.93516501889098,38.48288943586522 67.85370852041524,32.28323644716875 73.11056074802764,37.85348985643941 82.1296699619852,49.90622416199767 83.3408074848121,50.661468083184445 85.35078039544169,53.46214493358275 82.10390107845888,61.07731433358276 82.25851437926758,62.02132789362804 78.59933292679489,66.70987724873703 76.76974220050033,68.0 78.7797151110135,66.52107825470739 82.3100521460874,62.115729059121804 82.18120772880502,61.17171584549942 85.47962481272407,53.61948542500613 73.8063206016086,38.38847959716804 67.82793963700533,32.31470714422176 73.31671181577258,38.1996598157275 82.2842832627939,50.126503868057625 83.41811413527466,50.78734185450594 85.42808704590425,53.68242159465444 82.1296699619852,61.07731433358276 82.2842832627939,62.05279495261493 78.70240846066736,66.58401126804529 76.743973316974,68.0 78.59933292679489,66.74134373420384 82.20697661233135,62.27306425792631 82.15543884539511,61.20318300841609 85.47962481272407,53.61948542500613" stroke="#4DD2FF" stroke-linecap="round" stroke-linejoin="round" stroke-width="0.5"><title>2025-03-01 15.0km</title><desc>1740782421000</desc></polyline><polyline fill="none" points="112.39698308391962,32.0385460970283 112.87041815975681,32.0 112.74416880612262,32.69382902656798 119.30913518962916,39.55494490606361 130.32439128507394,54.20177096416592 131.65000949706882,54.81846449134173 134.11187189095654,58.287343090749346 130.07189257792197,68.0 134.20655890600756,58.36442884799908 119.65632091183215,39.36221897159703 112.74416880612262,32.346914704248775 119.4038222047966,39.63203524678829 130.41907830012497,54.31740109244129 131.58688482036814,54.77992118129623 134.11187189095654,58.21025731446571 130.0087679012213,67.96145830236492 134.26968358282465,58.44151458644774 120.00350663403515,39.7862158716307 112.96510517480783,32.26982258076896 112.5863571142545,32.42400680886931 119.71944558864925,39.978941546636634 130.35595362330787,54.20177096416592 131.7131341737695,54.895551097317366 134.04874721402302,58.21025731446571 130.04033023957163,67.96145830236492 134.26968358282465,58.480057448672596 120.16131832601968,39.940396421123296 113.12291686679237,32.385460758872796 112.55479477578774,32.385460758872796 119.43538454326335,39.709125568624586 130.4506406384753,54.31740109244129 131.65000949706882,54.77992118129623 134.11187189095654,58.24880020497949 130.0087679012213,67.9229165999568 134.2381212443579,58.44151458644774 119.37225986644626,39.0153119925817" stroke="#4DD2FF" stroke-linecap="round" stroke-linejoin="round" stroke-width="0.5"><title>2025-02-25 10.0km</title><desc>1740436543000</desc></polyline><polyline fill="none" points="159.63645650655963,32.0 159.38368715299293,32.694572637963574 165.92409417487215,39.524455430946546 177.07754189812113,54.341319769911934 178.24660015804693,54.842920183436945 180.67950518545695,58.16117974935332 176.6035993603291,67.96141699058353 180.77429369313177,58.238348161103204 166.36644054343924,39.524455430946546 159.16251396865118,32.308699139073724 165.82930566731375,39.408695937803714 177.04594572877977,54.30273508958635 178.46777334238868,55.07442779763369 180.647909016232,58.238348161103204 176.57200319110416,67.92283397639403 180.7426975237904,58.27693235996412 165.8924980055308,38.94565754066571 159.22570630698465,32.308699139073724 165.76611332886387,39.37010943074711 176.09806065331213,53.145192487485474 178.24660015804693,54.920089407183696 180.647909016232,58.199763957527466 176.6035993603291,67.92283397639403 180.7426975237904,58.27693235996412 166.84038308123127,40.02607940978487 159.1941101377597,32.308699139073724 165.92409417487215,39.48586893794709 176.98275339056272,54.26415040469146 178.27819632715546,54.88150479763863 180.7426975237904,58.27693235996412 176.66679169866256,67.84566793389968 180.8058898622403,58.43126910785213 166.587613727781,39.7559742895246 159.66805267555173,32.347286510135746 159.22570630698465,32.42446123837726 166.11367118998896,39.7559742895246 176.85636871366296,54.032642195757944 178.3097924963804,54.88150479763863 180.7111013547983,58.238348161103204 176.63519552955404,68.0 180.83748603134882,58.701358235121006 178.18340781971347,54.76575094106374" stroke="#4DD2FF" stroke-linecap="round" stroke-linejoin="round" stroke-width="0.5"><title>2025-02-22 12.0km</title><desc>1740177306000</desc></polyline><polyline fill="none" points="19.408375666942447,72.0 19.21839137398638,72.58005398398382 25.741185432532802,79.38594120019116 36.66528227820527,93.96396780668874 38.28014876844827,94.96932416816708 40.623288381728344,98.17870961729204 36.53862608294003,107.9226681967557 40.749944576993585,98.29471089085564 26.374466409091838,79.50194937107153 19.630024008685723,72.30936225721962 19.123399227508344,72.30936225721962 26.34280236030463,80.12065889628138 36.95025871763937,94.27330856610206 38.15349257318303,94.81465416678111 40.68661647941917,98.29471089085564 36.601954180630855,107.96133410077891 40.71828052832279,98.21737671323353 25.867841627798043,78.88323863467667 19.598359960014932,72.19335144621436 19.15506327629555,72.34803251817357 25.646193286171183,79.26993298681919 36.85526657104492,94.19597340471228 38.18515662208665,94.85332167425076 40.68661647941917,98.2560438044602 36.63361822941806,108.0 40.71828052832279,98.21737671323353 26.279474262613803,79.30860239607864 19.15506327629555,72.23202172134188 25.962833774276078,79.65662686584983 37.0135868153302,94.31197613984114 38.31181281723548,95.00799165671924 40.65495243051555,98.17870961729204 36.57029013172723,107.9226681967557 40.781608625897206,98.2560438044602 26.50112260435708,79.6179574992857 19.15506327629555,72.23202172134188 25.77284948132001,79.42461059524794 36.886930619948544,94.15730581679964 38.15349257318303,94.81465416678111 40.68661647941917,98.29471089085564 36.601954180630855,107.9226681967557 40.749944576993585,98.14004251669394 26.121154018328525,79.15392473089742 19.21839137398638,72.19335144621436 25.55120113969315,79.15392473089742 36.91859466896858,94.11863822431769 38.21682067075744,94.81465416678111 40.623288381728344,98.21737671323353 36.63361822941806,108.0 40.87660077237524,98.44937918934738 28.84426221763715,82.67282288524439" stroke="#4DD2FF" stroke-linecap="round" stroke-linejoin="round" stroke-width="0.5"><title>2025-02-05 15.0km</title><desc>1738709514000</desc></polyline><polyline fill="none" points="66.09535093966406,72.0 66.03195474343374,72.73552485884284 72.49836676230188,79.54872648222954 83.52930491196457,94.21983868346433 84.89232313167304,94.87789373900159 87.33307668776251,98.28427450175514 83.30741822521668,108.0 87.49156717851292,98.3616918202024 73.0372344305506,79.51001552381786 66.34893572481815,72.27098304167157 65.77836995851249,72.23227119274088 72.6568572530523,79.62614838476293 83.43421061767731,94.02629281848203 84.8606250337325,94.83918465586612 87.33307668776251,98.32298316329252 83.30741822521668,107.96129252217361 87.45986908045597,98.28427450175514 72.84704584174324,79.2390386821935 65.81006805656943,72.27098304167157 72.68855535099283,79.66485932903015 83.40251251962036,93.94887443934567 84.82892693544272,94.80047556807403 87.33307668776251,98.20685716436128 83.24402202886995,107.92258503951598 87.49156717851292,98.9036125189159 87.3647747860523,98.16814848850481 73.16402682301123,79.5874374358682 66.31723762664478,72.23227119274088 65.81006805656943,72.34840672527207 72.46666866424493,79.43259359276271 83.59270110842772,94.25854784218245 84.95571932801977,94.91660281721852 87.3647747860523,98.24556583547383 83.27572012715973,107.96129252217361 87.4281709821662,98.20685716436128 72.78364964539651,79.12290567907621 66.31723762664478,72.23227119274088 65.81006805656943,72.38711855991278 72.56176295864861,79.54872648222954 83.43421061767731,93.98758363124216 84.8606250337325,94.83918465586612 87.30137858970556,98.16814848850481 83.27572012715973,107.92258503951598 87.55496337485965,98.63265228556702 84.2266630709637,94.25854784218245" stroke="#4DD2FF" stroke-linecap="round" stroke-linejoin="round" stroke-width="0.5"><title>2025-02-04 12.0km</title><desc>1738622138000</desc></polyline><polyline fill="none" points="109.02382328896783,72.0 109.02382328896783,73.23503395926673 119.23767851502635,83.91795156907756 137.28889789944515,108.0 137.94622521614656,107.9382526272093 137.69340701727197,107.13553609297378 119.84444219176657,83.73270058905473 109.17551420815289,72.43226222950034 108.6698778111022,72.92627575300867 119.43993307393976,84.10320248093922 137.33946153940633,108.0 137.74397065723315,107.25903102749726 119.74331491230987,83.54744954121998 109.37776876729913,72.55576565588126 108.82156873028725,72.92627575300867 119.3893694342114,84.04145218455233 137.28889789944515,107.87650524679339 137.94622521614656,107.9382526272093 137.69340701727197,107.07378861447796 120.60289678792469,84.59720458008815 109.42833240679465,72.6175173575175 108.72044145059772,72.92627575300867 120.29951494932175,85.21470652439166 137.18777062022127,107.7530104634352 138.04735249560326,107.62951564980904 137.2383342597168,106.4563134132186 119.74331491230987,83.73270058905473 109.27664148784243,72.43226222950034 108.77100509032607,72.86452408891637 120.24895130982623,85.02945602039108 137.2383342597168,107.9382526272093 137.7945342969615,107.25903102749726 120.04669675091282,83.91795156907756 109.27664148784243,72.4940139464452 108.61931417114101,72.92627575300867 119.74331491230987,84.53545434423722 137.18777062022127,107.87650524679339 137.54171609831974,106.95029363461072 122.06924234004691,86.51145814789925 109.27664148784243,72.43226222950034 108.72044145059772,72.92627575300867 119.08598759584129,83.73270058905473 137.18777062022127,107.8147578589269 137.7945342969615,107.32077848358313 131.37295205076225,98.55256411927985 115.3948418952059,78.977902168117" stroke="#4DD2FF" stroke-linecap="round" stroke-linejoin="round" stroke-width="0.5"><title>2025-01-23 11.4km</title><desc>1737585341000</desc></polyline><polyline fill="none" points="159.2440649267519,72.0 159.3715426758863,72.70057940969127 166.0003856247058,79.6284482779738 176.99534147733357,94.30102069681743 178.30198840459343,95.00155099469703 180.7240656359354,98.27067198883742 176.83599429100286,107.92216655646916 180.9152822594624,98.46526146488031 166.7652521188138,79.861969319114 159.5627592994133,72.15568444650853 159.0847177405376,72.23352664135746 165.80916900117882,79.4338472794916 176.89973316551186,94.1842654972279 178.36572727910243,95.00155099469703 180.7878045104444,98.38742568870657 176.67664710478857,108.0 180.9152822594624,98.42634357922361 166.5421660579741,79.58952808775939 159.1803260523593,72.19460554630496 165.9685161873931,79.58952808775939 177.02721091441344,94.33993908725097 178.27011896751355,94.88479605215252 180.8196739477571,98.38742568870657 176.74038597918116,107.92216655646916 180.9152822594624,98.46526146488031 166.4146883088397,79.47276748873992 159.1165871777339,72.15568444650853 166.66964380687568,80.40685108161415 177.05908035172615,94.33993908725097 178.33385784190614,94.92371437119436 180.7240656359354,98.27067198883742 176.74038597918116,107.84433309404994 180.8834128222661,98.38742568870657 166.0959939364111,79.08356518216897 159.5308898621006,72.11676334205549 159.1165871777339,72.19460554630496 165.7454301265534,79.27816639494267 176.77225541637745,93.98967340271338 178.33385784190614,94.96263268528855 180.7240656359354,98.34850779356202 176.74038597918116,107.80541635554982 180.9152822594624,98.54309722199105 166.4146883088397,79.47276748873992 159.62649817380589,72.27244773152051 159.14845661493018,72.46705311126425 166.0322550617857,79.6673684634734 177.12281922611874,94.45669422970968 177.47338303597644,94.06751025482663 169.37854597356636,83.325844631152" stroke="#4DD2FF" stroke-linecap="round" stroke-linejoin="round" stroke-width="0.5"><title>2025-01-18 14.0km</title><desc>1737153490000</desc></polyline><polyline fill="none" points="32.102247686183546,128.16148758886993 27.6121639488847,131.65763418967254 26.652269722369965,133.0231232460501 25.660643455281388,134.14648667331494 24.4548259145231,135.13425859922427 23.06654914058163,135.98644409378176 22.170118995156372,137.42932818690315 20.670780079322867,138.92060360481264 18.66372851477354,140.36343428340479 12.0,145.84401482012618 16.75187307188753,142.07736679803202 18.671661524946103,140.39248429577856 20.496253856341355,139.11427367840952 22.23358307624585,137.41964448861108 23.11414720141329,135.97676021919324 24.526223005756037,135.1148906405797 25.549581313389353,134.29174802279158 26.6443367121974,133.09091286984767 27.635962979285978,131.66731859207357 33.49052446009591,127.07677917378896 34.26002644334221,126.65063966226444 34.2044953724253,126.4085139187664 35.02952842661762,126.08890680440527 38.70251211989671,123.07678854862024 39.337152930820594,122.26320641911298 41.15381225210149,120.98470333513978 41.91538122523343,119.79335234533937 43.56544733364717,118.77633122761472 44.31115028646309,117.73992484679184 46.024680475966306,116.63570125997649 46.3420008814428,115.66707140525978 47.595416483003646,114.81466733504931 48.0,114.15598517987382 47.50815337151289,114.82435379647359 46.36579991184408,115.59926687184634 46.00881445570849,116.59695629317139 44.33494931689347,117.69149431044934 43.58924636404845,118.71821534082119 41.82811811371357,119.83209574881766 41.16967827238841,120.94596049535903 39.34508594090585,122.22446420456981 38.68664609960979,123.06710309623304 36.54473336270894,124.81046545462596" stroke="#4DD2FF" stroke-linecap="round" stroke-linejoin="round" stroke-width="0.5"><title>2025-01-16 10.5km</title><desc>1736984045000</desc></polyline><polyline fill="none" points="62.23284165910445,112.0 62.487406474072486,113.24356584111229 72.92456388706341,124.00028335826937 90.74410093342885,147.7513040844351 91.40596945234574,147.93782603251748 91.25323056313209,147.12956376327202 74.65560462884605,125.36817331367638 62.74197128904052,112.37307007191703 62.13101573311724,112.0 61.97827684413642,112.74613986996701 72.8227379610762,123.93810645461781 90.74410093342885,147.93782603251748 91.30414352635853,147.316085939412 74.5028657396324,125.18164308211999 62.487406474072486,112.12435672088759 61.97827684413642,112.6839615892386 72.92456388706341,124.00028335826937 90.69318797043525,147.93782603251748 91.15140463737771,147.06738968932768 74.80834351782687,125.61688018299174 62.5892324000597,112.2487134115654 61.92736388114281,112.6839615892386 72.7718249980826,123.93810645461781 90.69318797043525,147.87565205746796 91.35505648935214,147.93782603251748 91.20231760037132,147.19173782953294 75.72477685124613,126.67388301854953 62.53831943706609,112.12435672088759 61.97827684413642,112.6839615892386 72.72091203508899,123.87592954328284 90.69318797043525,148.0 91.40596945234574,148.0 91.25323056313209,147.19173782953294 73.43369351676665,123.75157569797011 62.64014536328614,112.37307007191703 61.8764509181492,112.621783300885 72.8736509240698,124.12463714258047 90.59136204444803,147.93782603251748 91.45688241533935,147.81347807485145 90.94775278540328,146.75651920528617 73.58643240574747,123.93810645461781 62.74197128904052,112.37307007191703 61.97827684413642,112.18653507012641 62.029189807362854,112.87049640825717 72.72091203508899,123.87592954328284 78.27042500092648,131.52363255084492 79.1359453718178,131.21275255875662 75.97934166621417,127.23347186500905" stroke="#4DD2FF" stroke-linecap="round" stroke-linejoin="round" stroke-width="0.5"><title>2025-01-14 10.6km</title><desc>1736807801000</desc></polyline><polyline fill="none" points="117.40256107688765,133.55476827637904 114.70267907873495,135.65799502293885 113.57930160398246,137.09850715259745 112.78160919543006,137.7611279546909 112.00751715397928,138.222076064485 111.54494995850837,139.01143923756536 110.48765351166367,140.06006184930447 109.37371618373436,140.84363275512806 107.98129452386638,142.0535328472506 105.33333333334303,144.13333618446632 107.72169048557407,142.2839864885682 109.40203662429121,140.83787125187155 110.40269219005131,140.1464857497631 111.51662951795151,139.06905646997984 112.0547178882407,138.2047905916843 112.90433110442245,137.68622346126358 113.62178226475953,137.08122126791204 114.75931995981955,135.6349464711384 118.61561994670774,132.6731138136165 118.63922031380935,132.5405760962276 118.85634369129548,132.5405760962276 119.196188977774,132.29278719031208 121.30606179800816,130.55822837980668 121.67422752504353,130.079916883431 122.77872470612056,129.30192998609346 123.189371093933,128.62190129212104 124.22778724707314,127.97067817715288 124.65731392859016,127.3655512888181 125.6626895677764,126.71431081510673 125.84677243130864,126.15527420434955 126.65390498671331,125.5674141208583 127.39023644072586,124.4320165354402 132.5681569861772,120.78933809755836 134.39954547444358,119.9074448080828 134.99899479921442,119.27339368133471 141.33333333334303,115.86666381553005 137.06166688521625,118.08020160610249 135.00371487261145,119.24457297284243 134.42786591497133,119.86709635422812 132.52567632534192,120.79510205167026 127.40439666100428,124.38590844131977 126.62558454615646,125.5674141208583 125.8420523578825,126.1264577044858 125.63436912724865,126.71431081510673 124.65259385519312,127.34249868229381 124.17114636598853,127.98220432818198 123.17521087365458,128.604612299132 122.76928455926827,129.27887832660417 121.65062715791282,130.06839124532053 121.29190157772973,130.54670285862085 119.09234736245708,132.34465009232372 118.88938420524937,132.47142583489767 118.77138236965402,132.3792253286556 118.74778200255241,132.51176349967136 118.56369913904928,132.69040131449583 114.75459988639341,135.60613576556352 113.53210086972103,137.13884085886093 112.86185044361628,137.69198534958923 112.00279708055314,138.21631424091538 111.2900659936422,139.2880013111826 110.44045277743135,140.08310823825377 109.69940124996356,140.59588747911766 110.42157248372678,140.14072416132694 111.37502731525456,139.23038434625778 112.0216773742577,138.222076064485 112.94681176522863,137.6574140090197 113.86722608280252,136.80464625125387" stroke="yellow" stroke-linecap="round" stroke-linejoin="round" stroke-width="0.5"><title>2025-01-01 21.1km</title><desc>1735687361000</desc></polyline><polyline fill="none" points="185.08062561100814,112.0 186.5283656696556,113.33870574933826 185.75369774352293,115.58022767172952 185.5251072079409,115.84484915228677 184.953630869044,115.56466168495535 184.68694191082614,115.813717242243 184.39485400426202,117.21464556714636 185.25841824978124,119.23818116816983 186.00768722750945,119.9386282179039 186.82045357621973,121.3706411637686 185.72829879517667,123.89218956693367 185.63940247579012,125.24633359789732 185.79179616615875,126.35142884856032 186.46486829867354,127.51877244735078 186.3124746082467,129.30867826945905 187.03634463757044,130.95848196034785 187.0871425344376,131.72111975357984 186.51566619548248,133.41758316979394 185.8425940629677,134.0712602182175 183.9630718815024,134.81831554516975 181.80416126776254,134.98951509983453 180.5850117445807,135.59649346255173 180.1913280444569,136.0167075374775 180.16592909611063,136.98163825203665 181.68986599997152,139.39393267669948 181.94385548389982,140.17208230691904 182.0073528548819,141.1214183416596 181.5755707321223,141.91512002311356 180.38182015746133,142.73994195809064 178.6927900890587,143.03563152442803 177.49903951433953,143.59588353488653 173.98128516128054,144.15613305199076 170.34923554043053,148.0 163.35182525689015,142.8177550692053 164.12649318302283,141.51048841867305 172.4065503606107,130.8184051285789 163.85980422480498,124.3124427220755 163.38992367958417,124.62374045071192 153.29384169145487,137.5107906647172 152.9128574655624,137.3240312436974 163.224830514926,124.01670916663716 162.92004313418875,123.48750001708686 158.81811296800151,120.21880594613322 158.89430981315672,119.87636641578865 159.28799351333873,119.82967004402599 159.73247511027148,120.09428258833941 168.62210704939207,127.14522367382597 169.3459770787158,126.98957802425139 170.20954132423503,125.88448837725446" stroke="#4DD2FF" stroke-linecap="round" stroke-linejoin="round" stroke-width="0.5"><title>2024-12-28 10.1km</title><desc>1735347410000</desc></polyline><polyline fill="none" points="31.440151994960615,169.02751397617976 27.062697910092538,172.43245383307658 26.135528815706493,173.75913292240875 25.223559214675333,174.78891679289518 24.037998733343557,175.75374666391872 22.761241291940678,176.5237463213998 21.963267891056603,177.85035392045393 20.352121595933568,179.43668642348348 18.550981633918127,180.71686041904468 16.810639645322226,182.2474749103567 12.0,186.04141054503998 16.172260924620787,182.7947780583345 18.680177327390993,180.62409491282597 20.200126662442926,179.594390182785 21.925269157683942,177.92456904557184 22.746041798585793,176.5515774880987 24.0,175.78157811288838 25.261557948077098,174.76108498003305 26.226725775777595,173.69419112903415 27.070297656726325,172.45100894527422 33.3856871437747,167.598692632273 33.3856871437747,167.37601675371843 33.66687777073821,167.40385127426998 34.19886003798456,167.06983635409415 37.70234325522324,164.18425737330836 38.39392020268133,163.33062455800246 40.096263457875466,162.15222435332544 40.757441418623785,161.0573164265952 42.43698543382925,159.99950902042474 43.143761874584015,159.01592048414022 44.739708676352166,157.98592259754514 45.066497783438535,157.03942572722735 46.312856238131644,156.16715345249395 47.3236225458968,154.48753710686287 48.0,153.9585894549673 47.50601646612631,154.27410253318521 46.373654211492976,156.03723970263673 45.013299556681886,157.0487051656237 44.739708676352166,157.94880529559305 43.08296390119358,159.03447887641232 42.42938568710815,159.962392703339 40.689043698541354,161.08515326445922 40.096263457875466,162.12438790680608 38.30272324255202,163.38629655601108 37.67954401517636,164.17497880737938 34.13806206459412,167.07911456615693 33.03609879669966,167.78425536539726" stroke="#4DD2FF" stroke-linecap="round" stroke-linejoin="round" stroke-width="0.5"><title>2024-12-24 11.5km</title><desc>1734996352000</desc></polyline><polyline fill="none" points="83.13361762615386,164.0626001446435 77.7412935323664,168.26771954248397 75.57285003556171,171.0788385294436 74.20078180526616,172.26182645519293 72.2626154939644,173.47993737946672 71.21677327650832,175.20166391844396 69.06751954514766,177.3098583817191 67.06218905473361,178.6684480254262 63.88628287136089,181.42070424223493 58.695451314910315,185.4845295995765 63.588841506745666,181.69006975471711 66.89907604834298,178.84412631489977 69.14427860698197,177.27472218726325 71.25515280745458,175.20166391844396 72.37775408674497,173.39794963005988 73.86496090970468,172.5546429945025 75.43852167733712,171.26624353055377 77.84683724236675,168.20915368686838 84.42892679461511,163.0435044373662 85.77221037668642,162.18839278123778 85.73383084579837,161.93068640232377 86.16560056857998,161.89554456967016 86.72210376686417,161.52069755307457 91.11656005686382,157.9244344753679 91.91293532337295,156.89355893263564 94.22530206112424,155.26522156060673 94.66666666668607,154.5037593370871 94.11016346834367,155.32379532716732 91.93212508887518,156.83498612565018 91.14534470502986,157.85414785882313 86.77967306325445,161.47384157289343 86.21357498224825,161.86040272415994 86.06965174130164,161.73154918033106 85.87775408668676,162.0712536039864 84.47690120822517,162.96150775996648 77.90440653875703,168.11544824343582 75.38095238100505,171.26624353055377 73.96090973704122,172.42580382742017 72.22423596301815,173.5033624378775 71.22636815923033,175.17823927506834 69.96943852171535,176.45487399359263 68.91400142147904,177.4035548373722 66.97583511017729,178.73871937982767 63.02274342579767,182.11168382012693 58.66666666668607,185.49624066292017 63.10909737035399,182.05312642193167 67.03340440656757,178.72700749101205 69.43212508881697,177.00534426848026 71.1975835110643,175.2368008727717 72.30099502491066,173.47993737946672 73.85536602704087,172.54293035012233 75.24662402278045,171.4419353862977 76.62828713573981,169.91926193749532 77.66453447053209,168.3848511463948 80.45664534467505,166.20617988344748" stroke="#4DD2FF" stroke-linecap="round" stroke-linejoin="round" stroke-width="0.5"><title>2024-12-21 15.0km</title><desc>1734737288000</desc></polyline><polyline fill="none" points="126.7382881839876,166.78082773463393 121.91217102724477,170.49495241961995 120.99529212006018,171.8177513364717 119.79501427797368,173.18122976432642 118.74477116612252,174.0461112242483 117.21108281236957,174.97203318367247 116.2275218028517,176.5389545842918 114.57713976997184,178.15671912211837 112.54333564866101,179.61166290262918 109.61765840853332,182.1145137106214 105.33333333334303,185.49222563731018 110.3261557459191,181.5447656673132 112.46831828355789,179.67270893920067 114.87720923052984,177.89218115835683 116.2275218028517,176.5389545842918 117.16107123560505,175.01273281377507 118.52805433352478,174.18856142659206 119.76167322680703,173.20158001952223 120.90360422935919,171.93985479241383 121.94551207838231,170.46442604270123 128.02191865400528,165.7021741769131 129.76398857758613,164.5624495729062 133.5565331481048,161.4586561452379 134.25669522266253,160.56311390678457 136.19047619044431,159.20960564835696 136.86563247663435,158.05961517315882 138.69105502817547,156.89943169142498 139.56625762133626,155.74940929836157 141.19163386584842,154.71132234280958 141.33333333334303,154.50777436268982 139.49124025620404,155.7697638151294 138.74940186768072,156.82819182786625 136.82395616263966,158.04943819539767 136.1154588253121,159.2299593189673 134.19001312030014,160.5732905772602 133.5148568341101,161.44847958298487 129.3638959635282,164.83720603871916 129.2472022844595,165.08143324704724 128.78042756809737,165.19337047810404" stroke="#4DD2FF" stroke-linecap="round" stroke-linejoin="round" stroke-width="0.5"><title>2024-12-17 10.2km</title><desc>1734391788000</desc></polyline><polyline fill="none" points="169.4929098128341,170.44222515879665 165.57231990926084,173.46687154893152 164.0,175.48599740579812 162.96539988656878,176.3750585028829 161.67895632443833,177.17271090258873 160.81452070336672,178.5436541041272 159.35110606919625,179.92287816289172 157.88769143508398,180.936506927319 156.04310833808267,182.54000354534946 152.0,185.69703665486304 159.9500850822369,179.39944100040884 160.9302325581666,178.41071536742675 161.69256948385737,177.1644020716485 162.95178672717884,176.38336743026593 163.78218944981927,175.710341022168 164.60578559275018,174.82127123379178 165.6744186046417,173.3837786653603 170.32331253544544,169.73590098968998 172.05218377767596,168.58083741837618 175.06749858197873,166.09613775383332 175.63925127626862,165.37314788418735 177.20476460579084,164.26787264522136 177.7560975610104,163.3204795644633 179.2739648327115,162.36476263891382 179.94781622238224,161.45058604846417 181.3295519001549,160.56964060979954 181.64265456609428,159.71361665089353 182.74532047647517,158.93238149209355 183.75950085083605,157.32832796428556 188.0,154.30296334513696 183.84117980717565,157.21197027705784 182.7521270561556,158.87420404653676 181.62904140670435,159.68037278451084 181.33635847986443,160.5197754322071 179.90017016450292,161.45889680013352 179.2331253545417,162.35645199803548 177.77651730008074,163.27061640497413 177.21157118550036,164.23463100628578 175.57118547928985,165.4063889663812 175.12195121950936,166.00472566623648 174.4889393080084,166.52826595842635" stroke="#4DD2FF" stroke-linecap="round" stroke-linejoin="round" stroke-width="0.5"><title>2024-12-14 12.1km</title><desc>1734132056000</desc></polyline><polyline fill="none" points="36.52452025585808,203.98646922851913 31.055437100178096,208.27358181203454 29.980810234555975,209.83141948359116 28.800639658875298,211.16668876427866 27.390191897633485,212.34967495538876 25.69189765455667,213.36867115818313 24.47334754798794,215.27779580432252 22.46801705757389,217.2103065692645 20.337953091657255,218.69772771687713 17.843283582129516,220.88782550999167 12.0,225.52551451612817 18.706823027750943,220.1734140812041 20.261194029881153,218.75628713242622 22.90938166307751,216.8238075328918 24.617270788934547,215.10211107568466 25.595948827278335,213.4623714145855 27.255863539408892,212.443376207877 28.64712153520668,211.31895513229392 29.971215351833962,209.85484542071936 31.228144989348948,208.10959742627165 37.99253731343197,202.81509363531222 40.22814498934895,201.32742599352787 44.3443496801774,197.93030306611763 45.582089552190155,199.6991648595358 44.469083155621774,197.86001649255195 45.23667377396487,196.86428449507366 47.52985074627213,195.2359475211997 48.0,194.47448548387183 47.45309168443782,195.25937702635565 45.25586353940889,196.80571170242183 44.52665245201206,197.75458653553505 39.585287846508436,201.84284101934463 37.65671641792869,203.02594229868555 31.16098081023665,208.12131060599495 29.95202558633173,209.80799354069313 28.627931769704446,211.27210396788723 27.24626865668688,212.39652559309616 25.53837953088805,213.45065888755198 24.47334754798794,215.19580963768385 22.880597014911473,216.78867117959453 20.44349680171581,218.5806087785386 16.960554371005856,221.55538547634933 12.019189765502233,225.44353711259464 17.114072494674474,221.47340467823233 20.184434968046844,218.82655838385836 22.58315565029625,217.12832205540326 24.6556503198226,215.07868642082758 25.66311300639063,213.41552129782212 27.150319829408545,212.52536472868815 28.781449893373065,211.19011437510198 31.256929637514986,208.09788424515136 37.92537313431967,202.87366275498061 39.98827292112401,201.51484996001818 44.45948827289976,197.84830205861363 45.26545842218911,196.8291408237783 47.385927505325526,195.3413802494324" stroke="#4DD2FF" stroke-linecap="round" stroke-linejoin="round" stroke-width="0.5"><title>2024-12-07 17.1km</title><desc>1733527336000</desc></polyline><polyline fill="none" points="61.206165044714,227.99077143362229 61.49331023616833,227.84311421829625 61.34218118805438,228.0 61.4630844265339,227.74159971511108 60.82834242444369,226.2096369853607 60.903906948515214,226.07120508514345 69.97920628768043,222.79490927217557 71.02955317206215,222.20423798122647 71.83809357945574,221.31822236948938 86.61851448487141,203.98344745347276 87.12479679600801,203.08798605480115 89.59575673265499,196.70866965359892 90.30606325881672,195.22223905493593 91.8853618115827,192.70170276280987 92.1800634554238,192.44318145258876 92.50499090887024,192.50781186328823 92.06671666930197,192.0 91.93070052599069,192.009232973498 90.97858752289903,193.2926052839539 90.13226485348423,194.7144454850859 89.13481313592638,196.69020485706278 86.82253869980923,202.82026872543065 86.31625638864352,203.75265945085266 80.53557029832155,210.62060801891494 73.45517439424293,218.78009918721364 73.19069856006536,219.35233805525058 71.55094838805962,221.23515787212818 70.78019024265814,222.01042295574007 70.22856921705534,222.37036474944034 60.98702792497352,225.71128095537279" stroke="#4DD2FF" stroke-linecap="round" stroke-linejoin="round" stroke-width="0.5"><title>2024-11-30 11.9km</title><desc>1732919585000</desc></polyline><polyline fill="none" points="108.51713165012188,192.5634977715672 119.28322975896299,203.7707134403754 137.3805280085653,227.9373935025651 138.04700074880384,227.68696743668988 136.61152100097388,225.495734131895 119.28322975896299,202.83157071174355 109.08107012254186,192.0 108.51713165012188,192.5634977715672 119.38576402678154,203.95854177925503 137.3805280085653,228.0 138.14953501638956,227.8121804848197 137.84193221316673,227.0609017353272 120.15477103437297,203.83332289435202 109.08107012254186,192.06261089403415 108.61966591770761,192.6887194145238 119.38576402678154,203.83332289435202 137.431795142591,227.9373935025651 137.99573361477815,227.37393468176015 120.76997664081864,204.52202638209565 109.23487152415328,192.2504435306182 108.56839878391474,192.6261085968581 119.4882982946001,203.95854177925503 137.431795142591,228.0 138.20080215018243,227.8121804848197 137.431795142591,226.49744194961386 119.69336682977155,203.26983753289096 109.08107012254186,192.06261089403415 108.51713165012188,192.5634977715672 119.07816122355871,203.64549450943014 137.431795142591,228.0 137.94446648075245,227.24872152635362 120.10350390058011,203.83332289435202 109.02980298851617,192.06261089403415 108.56839878391474,192.6261085968581 119.38576402678154,203.95854177925503 137.32926087477244,227.9373935025651 137.99573361477815,227.49914780666586 120.30857243598439,204.02115121023962 109.08107012254186,192.12522178061772 108.46586451632902,192.5008869387675 119.4370311605744,204.0837606334826 137.2267266069539,227.7495739646256 138.0982678825967,227.49914780666586 131.68987615103833,219.17240827844944" stroke="#4DD2FF" stroke-linecap="round" stroke-linejoin="round" stroke-width="0.5"><title>2024-11-26 10.9km</title><desc>1732619882000</desc></polyline><polyline fill="none" points="155.26069450960495,192.31035574444104 165.47655797027983,203.11061737366254 184.02775281178765,227.87586645799456 184.3327039598953,226.75866321346257 168.88184579042718,206.27616772631882 155.71812123176642,192.0 155.7689464231953,193.30349285010016 166.03563507506624,203.85545452788938 184.02775281178765,227.75173288572114 184.38352915109135,226.8827970289276 167.30626485869288,204.3520120230387 157.2937021635007,193.55177682294743 155.7689464231953,192.1862134693074 155.51482046651654,192.86899560556049 166.03563507506624,203.7313150781556 184.02775281178765,227.75173288572114 184.688480299199,227.68966608820483 184.38352915109135,226.94486392528052 167.1537892848719,204.2278726947843 155.92142199724913,192.0 155.71812123176642,193.30349285010016 166.137285457924,203.97959394718055 184.02775281178765,227.87586645799456 184.43435434252024,226.94486392528052 167.56039081537165,204.60029058839427 155.87059680582024,192.0 155.41317008365877,192.62071129883407 165.98480988387018,203.79338480677688 183.92610242892988,227.68966608820483 184.58682991657406,227.06899769493612 166.8996633279603,203.85545452788938 155.92142199724913,192.1241423204774 155.31151970103383,192.68278238701168 166.137285457924,203.97959394718055 184.2818787684664,228.0 184.02775281178765,226.3862615855178 167.102964093443,204.16580301936483 155.92142199724913,192.062071163964 155.87059680582024,193.30349285010016 165.88315950101241,203.6692453418509 183.87527723773383,227.68966608820483 184.38352915109135,226.8827970289276 167.40791524155065,204.41408167569898 155.87059680582024,192.1241423204774 155.46399527508765,192.55864020303125 166.137285457924,203.97959394718055 183.87527723773383,227.5655324702966 184.73930549062788,227.50346564978827 184.38352915109135,226.8207301251241 165.9339846924413,202.73819838644704 155.92142199724913,192.1862134693074 155.81977161439136,193.11727979109855 166.08646026649512,203.85545452788938 183.97692762012593,227.75173288572114 184.63765510800295,227.5655324702966 184.3327039598953,226.8207301251241 167.1537892848719,204.16580301936483 155.92142199724913,192.31035574444104" stroke="#4DD2FF" stroke-linecap="round" stroke-linejoin="round" stroke-width="0.5"><title>2024-11-16 14.9km</title><desc>1731755814000</desc></polyline><polyline fill="none" points="15.13297543884255,232.56154464179417 26.168292639078572,244.10426972742425 44.15177252027206,267.93761051725596 44.509398540714756,267.0017673592083 26.32156093325466,243.16838283231482 16.103674637153745,232.3743631633115 15.388422596501186,232.12478775146883 15.439512027893215,232.87351361999754 26.015024344436824,243.8547000567778 44.04959365725517,267.93761051725596 44.66266683489084,267.31371526943985 41.34185378882103,262.6968667143956 27.036812974140048,244.10426972742425 16.052585205761716,232.31196932168677 15.337333165109158,232.74872605176643 26.42373979650438,244.35383927612565 43.845235931454226,267.7504420229234 44.7137562665157,267.37610482861055 26.88354467973113,243.917092485819 15.950406342977658,232.12478775146883 15.388422596501186,232.62393845262704 26.42373979650438,244.29144690046087 44.04959365725517,267.81283152877586 44.611577403731644,267.0017673592083 27.54770728899166,244.66580104007153 15.899316911352798,232.18718161591096 15.388422596501186,232.8111198397237 26.117203207686543,243.917092485819 44.04959365725517,268.0 44.86702456115745,267.5008839240181 27.54770728899166,244.66580104007153 18.35160962236114,234.68292993010255 15.69495918508619,232.18718161591096 15.439512027893215,232.68633225600934 26.168292639078572,243.97948490740964 43.947414794238284,267.81283152877586 44.76484569814056,267.5008839240181 28.927121938904747,246.5375676167896 15.74604861671105,232.06239387957612 15.388422596501186,232.74872605176643 26.117203207686543,243.97948490740964 44.20286195189692,268.0 44.81593512976542,267.43849438003963 26.679186953697354,243.60513026383705 15.69495918508619,232.0 15.69495918508619,232.9359073927044 26.066113776061684,243.917092485819 43.998504225863144,267.93761051725596 44.76484569814056,267.81283152877586 44.40721967769787,267.0017673592083 26.628097522072494,243.6675227234373 15.439512027893215,232.62393845262704 26.474829227663577,244.5410163573688 44.04959365725517,267.93761051725596 44.509398540714756,267.12654654629296 36.488357798196375,256.64498841535533" stroke="#4DD2FF" stroke-linecap="round" stroke-linejoin="round" stroke-width="0.5"><title>2024-11-10 14.3km</title><desc>1731237417000</desc></polyline><polyline fill="none" points="61.927369291195646,232.62178330111783 74.04465003521182,245.61688018328277 90.59135693334974,267.7513040844351 91.35505109815858,267.6891300865682 90.38770515634678,266.1347776670009 74.70651831105351,245.30599657795392 62.691063455771655,232.37307007197523 62.08010812406428,232.74613987002522 72.72091348329559,243.93810645496706 90.74409576645121,268.0 91.45687698666006,267.7513040844351 90.38770515634678,266.19695185514865 73.1791299819015,243.4406909517711 62.589237567270175,232.37307007197523 61.87645634682849,232.55960500531364 72.61908759479411,243.87592954357387 90.69318282208405,268.0 91.45687698666006,267.44043401890667 73.43369470350444,243.81375262478832 62.589237567270175,232.31089174555382 61.87645634682849,232.62178330111783 72.31360992905684,243.56504487327766 90.84592165495269,267.87565205746796 91.25322520942427,267.1295637632138 73.53552059200592,243.87592954357387 62.43649873416871,232.06217836443102 62.18193401279859,232.808318143012 72.82273937179707,243.87592954357387 90.79500871058553,267.8134780746186 91.40596404229291,267.44043401890667 90.74409576645121,266.3834743736079 74.09556297957897,244.49769831390586 62.589237567270175,232.12435672123684 61.9782822355628,232.37307007197523 75.11382186529227,246.79823614907218 90.69318282208405,267.7513040844351 91.30413815379143,267.502608047158 90.13314043474384,265.63738388888305 74.29921475681476,244.80858241365058 62.53832462290302,232.0 62.029195179697126,232.808318143012 73.68825942510739,244.99511278240243 90.59135693334974,267.7513040844351 91.40596404229291,267.62695608095964 90.6422698777169,266.3834743736079 74.70651831105351,245.1194663233473 62.6401505114045,232.31089174555382 62.08010812406428,232.55960500531364 73.02639114926569,244.1868140239385 90.74409576645121,267.62695608095964 91.10048637655564,266.88086742174346 76.03025486296974,247.04694231855683" stroke="#4DD2FF" stroke-linecap="round" stroke-linejoin="round" stroke-width="0.5"><title>2024-10-26 12.9km</title><desc>1729940418000</desc></polyline><polyline fill="none" points="112.33863834873773,232.2736309337488 119.18831732019316,239.38795295162708 129.6228750058217,253.22524645144586 131.70338497380726,254.86691947231884 134.1999969354365,258.3065879748028 130.19901622773614,267.9609142516856 134.29602047230583,258.34567490415066 119.31634870299604,238.95797095421585 112.53068542270921,232.0781802907004 119.2843408571789,239.50522066865233 130.51909468427766,254.3978708985087 131.73539281939156,254.94509416766232 134.1999969354365,258.46293566332315 130.16700838203542,268.0 134.32802831789013,258.50202257354977 119.60441931383684,239.1534173883556 112.46666973142419,232.1954506909824 119.2203251660103,239.50522066865233 130.3910633015912,254.28060864747385 131.63936928252224,254.8278321175021 134.13598124391865,258.2675010407693 130.1350005363347,267.9218284984818 134.2320047809044,258.3065879748028 120.02052130748052,239.7006667680398 112.53068542270921,232.0 119.5083957768511,239.85702356151887 129.81492207967676,253.57703423732892 131.76740066497587,254.90600682233344 134.13598124391865,258.2284141018463 130.16700838203542,267.9218284984818 134.29602047230583,258.46293566332315 119.2203251660103,238.84070303625776 112.94678741635289,232.1563605622796 112.46666973142419,232.0781802907004 112.69072465097997,232.58635171400965 118.48414471570868,238.68434574545245 118.48414471570868,237.94164756895043 115.18733661260922,234.61902932394878" stroke="#4DD2FF" stroke-linecap="round" stroke-linejoin="round" stroke-width="0.5"><title>2024-10-19 10.6km</title><desc>1729335763000</desc></polyline></svg>