<?xml version="1.0" encoding="utf-8" ?>
<svg baseProfile="full" height="300mm" version="1.1" viewBox="0,0,200,300" width="200mm" xmlns="http://www.w3.org/2000/svg" xmlns:ev="http://www.w3.org/2001/xml-events" xmlns:xlink="http://www.w3.org/1999/xlink"><defs /><rect fill="#222222" height="300" width="200" x="0" y="0" /><text fill="#FFFFFF" style="font-size:12px; font-family:Arial; font-weight:bold;" x="10" y="20">Over 10km Runs</text><text fill="#FFFFFF" style="font-size:4px; font-family:Arial" x="10" y="280">Runner</text><text fill="#FFFFFF" style="font-size:9px; font-family:Arial" x="10" y="290">unsung</text><text fill="#FFFFFF" style="font-size:4px; font-family:Arial" x="65" y="280">SPECIAL TRACKS</text><rect fill="yellow" height="2.6" width="2.6" x="65" y="283" /><text fill="#FFFFFF" style="font-size:3px; font-family:Arial" x="70" y="285.5">Over 20.0 km</text><rect fill="red" height="2.6" width="2.6" x="65" y="287" /><text fill="#FFFFFF" style="font-size:3px; font-family:Arial" x="70" y="289.5">Over 40.0 km</text><text fill="#FFFFFF" style="font-size:4px; font-family:Arial" x="120" y="280">STATISTICS</text><text fill="#FFFFFF" style="font-size:3px; font-family:Arial" x="120" y="285">Number: 29</text><text fill="#FFFFFF" style="font-size:3px; font-family:Arial" x="120" y="290">Weekly: 1.6</text><text fill="#FFFFFF" style="font-size:3px; font-family:Arial" x="141" y="285">Total: 355.6 km</text><text fill="#FFFFFF" style="font-size:3px; font-family:Arial" x="141" y="290">Avg: 12.3 km</text><text fill="#FFFFFF" style="font-size:3px; font-family:Arial" x="167" y="285">Min: 10.0 km</text><text fill="#FFFFFF" style="font-size:3px; font-family:Arial" x="167" y="290">Max: 21.1 km</text><polyline fill="none" points="22.602743871393614,32.084729663212784 22.929143809946254,31.99931080083479 22.812572403345257,32.397931890387554 27.428800107329153,37.12438704734086 33.00091334595345,44.498604270556825 32.46468487533275,45.32427427833318 27.5220572326798,47.94362181243196 17.47360197803937,33.479899977275636 29.87679964734707,51.844117309723515 27.84845717123244,48.22833172457467 33.327313284622505,45.12497488949157 35.70536998054013,48.057505819102516 36.66125551518053,48.56998315946839 38.45645517797675,51.10388231399702 35.565484292572364,57.93673130206298 35.70536998054013,58.76235363804153 32.37142774986569,63.00429808287299 30.669485212652944,64.17153097799746 32.25485634326469,63.118174720642855 35.635427136556245,58.961641349393176 35.542170011322014,58.10754995670868 38.526398021844216,51.07541169026808 27.66194292064756,36.896608277675114 22.859200965962373,31.80000000000291 22.71931527799461,32.17014849431871 27.568685795296915,37.266748665235355 33.09417047118768,44.69790419584024 27.685257202014327,48.000563822773984 17.47360197803937,33.479899977275636 29.9700567725813,51.872587839432526 27.84845717123244,48.22833172457467 33.23405615927186,45.096503534252406 35.72868426190689,48.02903482261172 36.63794123393018,48.513041288388195 38.4797694592271,50.98999979799555 35.61211285518948,57.82285212939314 35.565484292572364,58.961641349393176 32.34811346861534,63.03276724758325 30.71611377527006,64.19999999999709 32.32479918736499,63.08970556642453 35.658741418039426,58.90470202064898 35.565484292572364,58.0506104190863 38.503083740593866,51.10388231399702 28.198171391384676,37.55147163965739" stroke="#4DD2FF" stroke-linecap="round" stroke-linejoin="round" stroke-width="0.5"><title>2025-06-15 10.5km</title><desc>1749940293000</desc></polyline><polyline fill="none" points="58.81712709041312,31.80000000000291 63.54577068879735,37.261949395615375 69.04311004432384,44.601241852433304 68.90334717941005,45.05638414353598 63.732121175387874,48.01478732046962 53.45955059991684,33.56376851965615 65.85185796080623,51.826520538903424 63.825296418741345,48.270801210353966 69.29934196348768,45.141723223990994 71.7917797222035,48.213909259211505 72.65365072293207,48.555260757522774 74.49386177829001,51.22916349154548 71.55884161393624,57.970675391101395 71.65201685728971,58.79557270980149 68.36758953041863,63.00534793814586 66.69043515075464,64.19999999999709 68.39088334119879,63.00534793814586 71.67531066818628,58.909351420647 71.55884161393624,58.084454505558824 74.54044939996675,51.05848976765992 64.4076416894095,37.8593423262937 58.7705394688528,31.80000000000291 59.003477577120066,32.482750691619 63.61565212125424,37.31884402659489 69.04311004432384,44.54434900340857 68.85675955773331,45.0848305071122 63.54577068879735,47.957895306593855 53.529432032373734,33.44997740603867 65.96832701493986,51.826520538903424 63.848590229521506,48.213909259211505 69.36922339606099,45.113276867283275 71.76848591130693,48.157017294099205 72.70023834449239,48.58370669318538 74.44727415672969,51.00159849843476 71.55884161393624,57.913785812983406 71.67531066818628,58.85246207215823 68.36758953041863,62.976903766655596 66.66714133985806,64.1431119456829 68.34429571952205,63.033792106230976 71.7218982897466,58.82401739273337 71.5821354247164,57.970675391101395 74.54044939996675,51.48517384256411 72.02471783047076,47.844111237165635" stroke="#4DD2FF" stroke-linecap="round" stroke-linejoin="round" stroke-width="0.5"><title>2025-06-13 10.0km</title><desc>1749765414000</desc></polyline><polyline fill="none" points="92.01247698254883,31.82852310704766 96.91709637921304,37.276372552645626 105.16152803169098,48.171689528855495 106.00231992837507,48.45690041172202 107.87074636528268,51.1093449119071 104.9279747272376,57.92570365294523 105.0447513795225,58.80981926640379 101.91513709782157,62.80255770035728 100.09342132182792,64.19999999999709 101.72829445416573,63.05923140363302 105.0447513795225,58.952418244982255 105.0213960489491,57.95422356373456 107.98752301756758,51.1093449119071 97.08058369252831,36.934103037187015 91.98912165209185,31.857046210527187 97.33749232755508,37.64716396070435 105.11481737089343,48.086126195892575 106.07238591974601,48.54246360860998 107.87074636528268,51.023782657124684 104.99804071860854,57.89718373857613 105.06810670997947,58.838339069043286 101.7516497845063,62.97367353395384 100.1167766522849,64.14296170267335 101.77500511496328,62.97367353395384 105.06810670997947,58.89537866396131 104.97468538803514,57.95422356373456 108.01087834790815,51.166386397671886 97.05722836195491,36.84853557981842 92.01247698254883,31.80000000000291 96.7302537355572,36.905580554826884 105.11481737089343,48.057605077992775 106.07238591974601,48.54246360860998 107.89410169562325,51.080824163756915 104.97468538803514,57.89718373857613 105.0447513795225,58.80981926640379 101.7516497845063,63.00219282731996 100.09342132182792,64.14296170267335 101.79836044553667,62.94515423712437 105.06810670997947,58.89537866396131 104.97468538803514,57.95422356373456 107.94081235653721,51.1093449119071 97.33749232755508,37.19080522090371 92.24603028711863,31.80000000000291 92.17596429574769,32.14227705373196 97.01051770115737,37.21932766833925 99.2059187644627,40.12859897293674" stroke="#4DD2FF" stroke-linecap="round" stroke-linejoin="round" stroke-width="0.5"><title>2025-06-09 10.0km</title><desc>1749421393000</desc></polyline><polyline fill="none" points="128.06833766854834,32.11156005374505 128.20748963928781,31.79999999998836 128.11472165875603,32.47976684941386 132.93865664396435,37.35137085482711 140.52243904885836,47.462454284352134 141.98353474133182,48.623642878592364 143.81570235616527,51.17257302744838 140.87031897553243,58.02622381078254 141.0558549364796,58.81919510423904 137.69301564386114,63.06720936077181 136.0927679805318,64.19999999999709 137.78578362450935,62.95392999211617 141.07904693169985,58.87583580696082 140.93989496096037,58.05454426094366 143.86208634625655,51.25753688249097 134.1678323855158,38.42764163362153 128.06833766854834,32.08323642979667 132.9618486391846,37.40801681004814 141.07904693169985,48.19881845872442 142.00672673655208,48.623642878592364 143.8388943511527,51.229215600920725 140.93989496096037,57.99790335718717 140.93989496096037,58.98911717098963 137.78578362450935,62.98224983944965 136.06957598554436,64.19999999999709 137.8089756196132,62.98224983944965 141.07904693169985,58.90415615317761 140.91670296585653,58.08286470755411 143.95485432678834,51.229215600920725 133.10100060992409,37.09646388475085 128.06833766854834,32.05491280242859 132.91546464897692,37.35137085482711 141.0094709462719,48.11385348121985 142.07630272198003,48.68028607570159 143.8388943511527,51.17257302744838 140.91670296585653,57.99790335718717 141.03266294149216,58.84751545735344 137.7162076390814,63.038889523857506 136.06957598554436,64.1716803014424 137.78578362450935,62.98224983944965 140.98627895116806,59.017437503280235 140.91670296585653,58.19614645947877 143.86208634625655,51.17257302744838 133.28653657087125,37.26640189597674 128.04514567332808,32.026589171538944 132.91546464897692,37.32304787199246 140.56882303906605,47.51909776554385 142.02991873165593,48.65196447895141 143.8388943511527,51.17257302744838 140.93989496096037,57.94126243965002 140.8935109707527,59.07407815747138 137.69301564386114,63.038889523857506 136.0463839903241,64.1716803014424 137.66982364887372,63.12384902444319 141.07904693169985,58.90415615317761 140.93989496096037,58.05454426094366 143.86208634625655,51.62571322708391 143.72293437551707,50.88935995232896 140.91670296585653,47.32084552074957" stroke="#4DD2FF" stroke-linecap="round" stroke-linejoin="round" stroke-width="0.5"><title>2025-06-07 12.0km</title><desc>1749247836000</desc></polyline><polyline fill="none" points="164.38979184487835,31.79999999998836 164.18160985899158,32.50623853063735 168.831007546396,37.36510106171772 177.04263032774907,48.21242520313535 178.12980292143766,48.805623546169954 179.81839014124125,51.26314330477908 176.88071100541856,58.0706189404591 176.99636766430922,58.889762232720386 173.71171855169814,63.041926642588805 172.0693939954508,64.17175437732658 173.71171855169814,63.07017240326968 177.04263032774907,58.9745010282204 176.9269736688584,58.09886530923541 179.9340468001319,51.37613209008123 169.17797752306797,37.252105420062435 164.0659531999845,32.16724430548493 169.01605820062105,37.534594420634676 177.01949899608735,48.15593004334369 178.014146262547,48.664385983676766 179.81839014124125,51.2066488913988 176.9038423371967,57.98587981330638 176.99636766430922,58.889762232720386 173.73484988347627,63.01368087834271 172.0693939954508,64.17175437732658 173.71171855169814,63.12666391445964 177.08889299130533,58.889762232720386 176.97323633241467,57.98587981330638 179.95717813191004,51.34788489897619 169.2705028501805,37.36510106171772 164.1353471953189,32.054246119907475 168.99292686884291,37.50634553616692 177.01949899608735,48.15593004334369 177.99101493076887,48.60789093449421 179.81839014124125,51.23489609984972 176.88071100541856,58.0141261924291 176.99636766430922,58.889762232720386 173.64232455636375,63.041926642588805 172.11565665900707,64.19999999999709 173.64232455636375,63.154909664794104 177.0657616596436,58.889762232720386 176.9269736688584,58.127111674519256 179.91091546835378,51.37613209008123 169.36302817740943,37.50634553616692 164.3435291814385,32.11074521957198 164.04282186820637,32.280242435852415 168.99292686884291,37.4780966482067 171.60676735988818,40.9244354692637" stroke="#4DD2FF" stroke-linecap="round" stroke-linejoin="round" stroke-width="0.5"><title>2025-06-05 10.1km</title><desc>1749073951000</desc></polyline><polyline fill="none" points="20.21099729137495,72.60000000000582 20.094220639090054,72.94227705373487 24.8353527225554,77.93376031561638 35.88242403033655,91.90934491191001 32.89294173149392,98.81126337499882 33.07978437514976,99.55277965056302 29.763327449792996,103.80219282732287 28.105098987114616,105.0 29.78668278013356,103.80219282732287 33.05642904457636,99.75241824498517 32.98636305332184,98.81126337499882 35.97584535216447,91.93786565649498 25.209038009867072,77.8767153963563 20.024154647719115,72.6570462105301 24.998840035754256,78.07637255264854 35.88242403033655,92.0234278694843 32.916297061834484,98.75422356373747 33.05642904457636,99.6098192664067 29.763327449792996,103.77367353395675 28.08174365654122,104.97148085299705 29.7399721192196,103.85923140363593 33.07978437514976,99.69537866396422 33.0330737142358,98.72570365294814 35.92913469125051,91.88082416375983 25.255748670897447,77.93376031561638 20.024154647719115,72.71409240717185 24.905418714042753,78.01932766834216 35.88242403033655,91.90934491191001 32.916297061834484,98.75422356373747 33.05642904457636,99.5812994602311 29.693261458305642,103.85923140363593 28.08174365654122,104.97148085299705 29.693261458305642,103.88775068662653 33.07978437514976,99.7238984562282 32.98636305332184,98.75422356373747 35.97584535216447,92.08046932726575 25.60607862775214,78.36159676506941 20.374484604690224,72.68556931057537 20.070865308633074,72.85670783744717 23.761007521417923,76.62172364126309 27.19424109905958,80.95712106089923" stroke="#4DD2FF" stroke-linecap="round" stroke-linejoin="round" stroke-width="0.5"><title>2025-06-03 10.0km</title><desc>1748953280000</desc></polyline><polyline fill="none" points="55.998388661420904,72.7714404004364 60.95845183043275,77.94316664648068 71.95481828984339,91.91482678161992 69.03025274211541,98.62892644264502 69.05364926648326,99.6574523220188 65.91851499932818,103.68580174306408 64.14037914632354,105.0 65.84832542622462,103.7143713489786 69.1472353640711,99.60031211418391 69.05364926648326,98.74320731952321 71.97821481432766,91.94339782741736 61.14562402537558,77.68601169374597 56.068578234524466,72.60000000000582 60.95845183043275,77.91459388796648 71.95481828984339,91.88625573240279 69.00685621774755,98.71463710557146 69.03025274211541,99.6574523220188 65.77813585300464,103.80008014582563 64.14037914632354,104.97143055118795 65.87172195059247,103.7143713489786 69.10044231533539,99.71459251585475 69.05364926648326,98.71463710557146 71.95481828984339,91.88625573240279 61.51996841561049,78.14317585837853 56.068578234524466,72.62857340884511 60.93505530594848,77.8860211259016 71.95481828984339,91.88625573240279 69.03025274211541,98.71463710557146 69.10044231533539,99.6288822198112 65.84832542622462,103.74294095148798 64.14037914632354,104.97143055118795 65.87172195059247,103.74294095148798 69.1472353640711,99.6574523220188 69.07704579085112,98.60035621473799 72.0016113385791,92.08625300377025 61.68374408618547,78.34318489897123 56.372733051655814,72.60000000000582 56.18556085648015,72.91430730462889 61.02864140353631,78.00031215308991 63.67244865861721,81.42901695946057" stroke="#4DD2FF" stroke-linecap="round" stroke-linejoin="round" stroke-width="0.5"><title>2025-05-31 10.0km</title><desc>1748691698000</desc></polyline><polyline fill="none" points="92.23068163439166,72.59999999999127 92.11472165875603,73.08150172453315 96.86908065865282,77.98143290597363 105.21819890232291,89.0837834051199 106.05311072675977,89.39532127484563 107.86208634625655,92.0008943159628 104.87031897553243,98.88286470755702 105.07904693158343,99.61919510424195 101.83216761471704,103.72561014123494 100.11595997563563,104.9716803014453 101.73939963418525,103.81056968333723 105.1022389268037,99.64751545735635 104.96308695606422,98.88286470755702 107.95485432678834,92.0008943159628 97.0082326293923,77.81149483239278 92.04514567332808,72.8549128024315 96.98504063428845,78.12304787199537 105.21819890232291,89.05546175976633 106.09949471708387,89.42364287859527 107.88527834136039,92.0008943159628 104.98627895128448,98.65630103751027 105.0094709462719,99.73247649586119 101.76259162928909,103.81056968333723 100.16234396595974,104.9716803014453 101.78578362439293,103.78224983945256 104.98627895128448,99.73247649586119 104.98627895128448,98.71294197574025 107.95485432678834,92.11417943517154 97.58803250745405,78.49124637820933 92.06833766843192,72.79826553727617 97.0082326293923,78.17969383414311 105.14862291701138,88.99881845872733 106.14587870729156,89.4802860757045 107.86208634625655,91.97257302745129 104.87031897553243,98.82622381078545 105.03266294137575,99.64751545735635 101.73939963418525,103.86720936077472 100.11595997563563,104.9716803014453 101.66982364887372,103.89552919435664 105.055854936596,99.81743750328314 105.0094709462719,98.79790335719008 107.93166233156808,92.05753688249388 97.54164851712994,78.43460049228452 92.06833766843192,72.8549128024315 96.79950467334129,77.868140870778 104.91670296585653,88.71560174578917 106.00672673643567,89.39532127484563 107.81570235604886,91.91593044019828 104.89351097063627,98.76958290020411 105.03266294137575,99.61919510424195 101.73939963418525,103.83888952386042 100.0927679806482,105.0 101.90174360002857,103.6689704292221 105.07904693158343,99.70415615318052 104.96308695606422,98.85454426094657 107.93166233156808,92.05753688249388 97.42568854149431,78.34963163745124 92.04514567332808,72.88323642979958 96.98504063428845,78.17969383414311 105.055854936596,88.91385348122276 106.07630272186361,89.50860766903497 107.88527834136039,92.11417943517154 104.91670296585653,98.76958290020411 105.055854936596,99.64751545735635 101.83216761471704,103.72561014123494 100.06957598542795,105.0 101.73939963418525,103.86720936077472 104.98627895128448,99.8457578321104 104.93989496096037,98.88286470755702 107.93166233156808,92.05753688249388" stroke="#4DD2FF" stroke-linecap="round" stroke-linejoin="round" stroke-width="0.5"><title>2025-03-01 15.0km</title><desc>1740782421000</desc></polyline><polyline fill="none" points="126.15728477551602,72.63469148732838 126.58337634371128,72.59999999997672 126.4697519254405,73.22444612390245 132.37822167063132,79.39945041545434 142.29195215646178,92.5815938677406 143.48500854731537,93.1366180421901 145.70068470179103,96.25860878167441 142.06470332003664,105.0 145.7859030152904,96.32798596317298 132.6906888205558,79.22599707441987 126.4697519254405,72.91222323381226 132.4634399842471,79.46883172210073 142.37717047007754,92.68566098317388 143.4281963382382,93.10192906315206 145.70068470179103,96.18923158300458 142.00789111107588,104.96531247213716 145.84271522448398,96.39736312779132 133.0031559705967,79.60759428446181 126.66859465721063,72.84284032267169 126.32772140274756,72.98160612795618 132.74750102963299,79.78104739196715 142.32035826088395,92.5815938677406 143.54182075627614,93.2059959875769 145.64387249259744,96.18923158300458 142.03629721561447,104.96531247213716 145.84271522448398,96.43205170379952 133.14518649340607,79.74635677901097 126.81062518002,72.9469146829797 126.29931529820897,72.9469146829797 132.4918460889021,79.53821301175049 142.40557657449972,92.68566098317388 143.48500854731537,93.10192906315206 145.70068470179103,96.22392018447863 142.00789111107588,104.93062493996695 145.81430911982898,96.39736312779132 132.4350338797085,78.9137807933148" stroke="#4DD2FF" stroke-linecap="round" stroke-linejoin="round" stroke-width="0.5"><title>2025-02-25 10.0km</title><desc>1740436543000</desc></polyline><polyline fill="none" points="162.67281085590366,72.60000000000582 162.44531843764707,73.22511537416722 168.3316847573733,79.3720098878548 178.3697877082741,92.70718779292656 179.4219401422888,93.15862816511071 181.61155466700438,96.14506177441217 177.94323942437768,104.96527529152809 181.69686432380695,96.21451334501035 168.7297964891186,79.3720098878548 162.24626257177442,72.8778292251518 168.24637510057073,79.26782634403207 178.34135115600657,92.67246158063062 179.62099600816146,93.36698501787032 181.58311811462045,96.21451334501035 177.91480287199374,104.93055057874881 181.668427771423,96.24923912395025 168.30324820498936,78.85109178660787 162.30313567630947,72.8778292251518 168.18950199591927,79.23309848766075 177.48825458798092,91.63067323874566 179.4219401422888,93.22808046644786 181.58311811462045,96.17978756179218 177.94323942437768,104.93055057874881 181.668427771423,96.24923912395025 169.15634477313142,79.82347146881511 162.27469912404194,72.8778292251518 168.3316847573733,79.33728204414365 178.28447805147152,92.63773536420194 179.4503766944399,93.19335431786021 181.668427771423,96.24923912395025 178.0001125287963,104.86110114050098 181.72530087607447,96.38814219707274 168.92885235499125,79.58037686059834 162.70124740805477,72.91255785911926 162.30313567630947,72.98201511453954 168.50230407097843,79.58037686059834 178.17073184228502,92.42937797619379 179.47881324670743,93.19335431786021 181.6399912192719,96.21451334501035 177.9716759765288,105.0 181.75373742822558,96.63122241158271 179.36506703775376,93.08917584695155" stroke="#4DD2FF" stroke-linecap="round" stroke-linejoin="round" stroke-width="0.5"><title>2025-02-22 12.0km</title><desc>1740177306000</desc></polyline><polyline fill="none" points="18.467538100318052,113.39999999996508 18.29655223665759,113.9220485855476 24.16706688934937,120.04734708013711 33.99875405046623,133.16757102598785 35.45213389163837,134.07239175130962 37.56095954356715,136.96083865553373 33.88476347469259,145.7304013770481 37.67495011934079,137.06523980174097 24.73701976821758,120.15175443392945 18.667021607863717,113.67842603145982 18.21105930476915,113.67842603145982 24.708522124332376,120.70859300662414 34.25523284589872,133.44597770945984 35.33814331586473,133.93318875005934 37.61795483145397,137.06523980174097 33.94175876257941,145.76520069068647 37.646452475572005,136.99563904188108 24.281057465006597,119.5949147711799 18.638523963978514,113.57401630157256 18.239556948654354,113.71322926631547 24.081573957577348,119.94293968810234 34.16973991401028,133.3763760642032 35.366640959866345,133.96798950678203 37.61795483145397,137.03043942397926 33.970256406464614,145.79999999998836 37.646452475572005,136.99563904188108 24.65152683632914,119.9777421564504 18.239556948654354,113.60881954917568 24.366550396895036,120.29096417923574 34.31222813378554,133.48077852581628 35.48063153552357,134.10719249100657 37.58945718745235,136.96083865553373 33.91326111857779,145.7304013770481 37.70344776334241,137.03043942397926 24.85101034399122,120.25616174930474 18.239556948654354,113.60881954917568 24.195564533234574,120.0821495357086 34.1982375580119,133.3415752350702 35.33814331586473,133.93318875005934 37.61795483145397,137.06523980174097 33.94175876257941,145.7304013770481 37.67495011934079,136.92603826499544 24.50903861655388,119.83853225776693 18.29655223665759,113.57401630157256 23.99608102568891,119.83853225776693 34.226735202013515,133.30677440186264 35.39513860363513,133.93318875005934 37.56095954356715,136.99563904188108 33.970256406464614,145.79999999998836 37.78894069523085,137.20444127038354 26.959835995920002,123.00554059667047" stroke="#4DD2FF" stroke-linecap="round" stroke-linejoin="round" stroke-width="0.5"><title>2025-02-05 15.0km</title><desc>1738709514000</desc></polyline><polyline fill="none" points="54.48581584566273,113.39999999999418 54.4287592691835,114.06197237296146 60.248530086129904,120.19385383400368 70.17637442087289,133.3978548151208 71.4030908185523,133.99010436510434 73.59976901905611,137.05584705158253 69.97667640272994,145.79999999998836 73.74241046071984,137.12552263817634 60.733510987483896,120.15901397142443 54.714042152278125,113.64388473751023 54.20053296268452,113.6090440734697 60.39117152779363,120.26353354629828 70.09078955592122,133.2236635366571 71.37456253031269,133.95526619028533 73.59976901905611,137.0906848469749 69.97667640272994,145.7651632699417 73.71388217236381,137.05584705158253 60.562341257580556,119.91513481395668 54.22906125092413,113.64388473751023 60.41969981591683,120.29837339613005 70.0622612676816,133.15398699542857 71.34603424195666,133.92042801127536 73.59976901905611,136.98617144793388 69.91961982601788,145.73032653558766 73.74241046071984,137.61325126703014 73.62829730741214,136.9513336396776 60.847624140791595,120.22869369227556 54.68551386403851,113.6090440734697 54.22906125092413,113.7135660527274 60.220001797773875,120.08933423348935 70.23343099758495,133.43269305798458 71.46014739526436,134.02494253549958 73.62829730741214,137.0210092519119 69.94814811437391,145.7651632699417 73.68535388400778,136.98617144793388 60.5052846808685,119.8106151111715 54.68551386403851,113.6090440734697 54.22906125092413,113.74840670390404 60.30558666284196,120.19385383400368 70.09078955592122,133.18882526812376 71.37456253031269,133.95526619028533 73.5712407308165,136.9513336396776 69.94814811437391,145.73032653558766 73.7994670374319,137.36938705699868 70.80399676389061,133.43269305798458" stroke="#4DD2FF" stroke-linecap="round" stroke-linejoin="round" stroke-width="0.5"><title>2025-02-04 12.0km</title><desc>1738622138000</desc></polyline><polyline fill="none" points="87.12144096009433,113.39999999999418 87.12144096009433,114.5115305633226 96.31391066359356,124.12615641212324 112.5600081095472,145.79999999998836 113.1516026945319,145.74442736443598 112.9240663156379,145.02198248365312 96.8599979726132,123.95943053014344 87.25796278729104,113.7890360065212 86.8028900299687,114.23364817767288 96.4959397665225,124.29288223281037 112.60551538551226,145.79999999998836 112.96957359160297,145.13312792472425 96.76898342114873,123.79270458704559 87.43999189068563,113.9001890902291 86.93941185739823,114.23364817767288 96.4504324910231,124.23730696606799 112.5600081095472,145.6888547220733 113.1516026945319,145.74442736443598 112.9240663156379,144.96640975298942 97.54260710906237,124.73748412207351 87.48549916618504,113.95576562173665 86.84839730570093,114.23364817767288 97.26956345443614,125.29323587191175 112.46899355808273,145.57770941709168 113.24261724599637,145.46656408481067 112.51450083381496,144.41068207187345 96.76898342114873,123.95943053014344 87.34897733922116,113.7890360065212 86.89390458143316,114.17807168001309 97.2240561787039,125.12651041831123 112.51450083381496,145.74442736443598 113.0150808673352,145.13312792472425 97.04202707577497,124.12615641212324 87.34897733922116,113.84461255176575 86.75738275400363,114.23364817767288 96.76898342114873,124.6819089097844 112.46899355808273,145.6888547220733 112.7875444884412,144.85526427111472 98.86231810622849,126.4603123330744 87.34897733922116,113.7890360065212 86.84839730570093,114.23364817767288 96.17738883639686,123.95943053014344 112.46899355808273,145.63328207298764 113.0150808673352,145.1887006351899 107.23565684584901,137.29730770734022 92.85535770584829,119.68011195128202" stroke="#4DD2FF" stroke-linecap="round" stroke-linejoin="round" stroke-width="0.5"><title>2025-01-23 11.4km</title><desc>1737585341000</desc></polyline><polyline fill="none" points="126.31965843401849,113.39999999996508 126.43438840820454,114.03052146869595 132.40034706215374,120.26560345015605 142.29580732958857,133.47091862710658 143.47178956412245,134.10139589520986 145.65165907226037,137.04360478991293 142.1523948617978,145.72994990079314 145.82375403353944,137.218735318369 133.08872690680437,120.47577238717349 126.60648336948361,113.54011600182275 126.17624596646056,113.61017397721298 132.22825210099109,120.09046255151043 142.20975984900724,133.3658389475022 143.52915455121547,134.10139589520986 145.7090240593534,137.14868311982718 142.00898239423987,145.79999999998836 145.82375403353944,137.18370922128088 132.8879494521534,120.23057527895435 126.26229344704188,113.5751449916279 132.37166456854902,120.23057527895435 142.32448982296046,133.5059451785055 143.44310707075056,133.99631644692272 145.73770655295812,137.14868311982718 142.06634738121647,145.72994990079314 145.82375403353944,137.218735318369 132.77321947796736,120.12549073985429 126.20492845994886,113.54011600182275 133.00267942610662,120.96616597342654 142.35317231656518,133.5059451785055 143.50047205772717,134.03134293406038 145.65165907226037,137.04360478991293 142.06634738121647,145.6598997846013 145.79507153993472,137.14868311982718 132.48639454273507,119.77520866392297 126.57780087587889,113.50508700782666 126.20492845994886,113.5751449916279 132.17088711389806,119.95034975543967 142.09502987470478,133.19070606242167 143.50047205772717,134.06636941674515 145.65165907226037,137.11365701418254 142.06634738121647,145.62487471997156 145.82375403353944,137.28878749976866 132.77321947796736,120.12549073985429 126.66384835646022,113.64520295834518 126.23361095343716,113.82034780012327 132.42902955552563,120.30063161707949 142.4105373035418,133.61102480671252 142.72604473226238,133.26075922930613 135.44069137610495,123.5932601680106" stroke="#4DD2FF" stroke-linecap="round" stroke-linejoin="round" stroke-width="0.5"><title>2025-01-18 14.0km</title><desc>1737153490000</desc></polyline><polyline fill="none" points="173.892022917571,127.94533882998076 169.8509475539904,131.09187077070237 168.9870427501155,132.32081092143926 168.09457910971832,133.33183800598636 167.00934332303586,134.22083273930184 165.7598942265031,134.98779968440067 164.95310709564365,136.28639536820992 163.60370207138476,137.62854324433283 161.79735566329327,138.92709085506067 155.79999999998836,143.8596133381143 160.07668576468132,140.46963011822663 161.80449537243112,138.95323586619634 163.4466284707014,137.80284631056566 165.0102247686009,136.2776800397478 165.80273248124286,134.97908419727173 167.07360070516006,134.20340157651663 167.99462318205042,133.4625732205095 168.97990304097766,132.3818215828578 169.87236668134574,131.10058673286403 175.14147201407468,126.96910125640716 175.83402379899053,126.58557569602999 175.78404583517113,126.36766252689267 176.52657558393548,126.08001612396765 179.83226090788958,123.36910969375458 180.40343763772398,122.63688577720313 182.03843102685641,121.4862330016258 182.72384310269263,120.41401711080835 184.20890260025044,119.49869810484961 184.88003525781096,118.56593236211484 186.42221242835512,117.57213113398029 186.70780079328688,116.70036426473234 187.8358748347091,115.93320060153928 188.19999999998254,115.34038666189008 187.75733803433832,115.94191841682186 186.7292199206422,116.63934018465807 186.40793301013764,117.53726066384843 184.9014543851663,118.52234487939859 184.23032172763487,119.4463938067347 182.64530630232184,120.44888617393735 182.0527104451321,121.45136444582022 180.41057734680362,122.60201778411283 179.81798148961389,123.3603927866061 177.89026002641185,124.92941890915972" stroke="#4DD2FF" stroke-linecap="round" stroke-linejoin="round" stroke-width="0.5"><title>2025-01-16 10.5km</title><desc>1736984045000</desc></polyline><polyline fill="none" points="15.009557493031025,154.20000000001164 15.23866582638584,155.31920925705344 24.632107498124242,165.0002550224599 40.66969083994627,186.3761736760207 41.26537250680849,186.5440434292832 41.1279075066559,185.81660738695064 26.190044165588915,166.23135598233785 15.467774159973487,154.5357630647486 14.917914159595966,154.20000000001164 14.780449159443378,154.87152588297613 24.540464164689183,164.94429580916767 40.66969083994627,186.5440434292832 41.17372917337343,185.98447734548245 26.052579165436327,166.06347877392545 15.23866582638584,154.31192104882211 14.780449159443378,154.8155654303264 24.632107498124242,165.0002550224599 40.62386917299591,186.5440434292832 41.03626417322084,185.7606507204182 26.327509165741503,166.45519216472167 15.3303091598209,154.4238420703914 14.73462749272585,154.8155654303264 24.494642497971654,164.94429580916767 40.62386917299591,186.48808685175027 41.21955084032379,186.5440434292832 41.0820858401712,185.87256404661457 27.15229916595854,167.40649471673532 15.28448749287054,154.31192104882211 14.780449159443378,154.8155654303264 24.448820831254125,164.88833658897784 40.62386917299591,186.60000000000582 41.26537250680849,186.60000000000582 41.1279075066559,185.87256404661457 25.090324164833874,164.77641812819638 15.376130826538429,154.5357630647486 14.68880582624115,154.75960497080814 24.586285831406713,165.11217342835153 40.53222583979368,186.5440434292832 41.31119417352602,186.43213026737794 40.85297750658356,185.48086728478665 25.22778916498646,164.94429580916767 15.467774159973487,154.5357630647486 14.780449159443378,154.36788156311377 14.826270826160908,154.98344676746638 24.448820831254125,164.88833658897784 29.44338250067085,171.77126929577207 30.222350834403187,171.49147730288678 27.381407499313354,167.91012467854307" stroke="#4DD2FF" stroke-linecap="round" stroke-linejoin="round" stroke-width="0.5"><title>2025-01-14 10.6km</title><desc>1736807801000</desc></polyline><polyline fill="none" points="58.66230496918433,173.59929144874332 56.23241117084399,175.4921955206446 55.22137144356384,176.78865643734025 54.50344827587833,177.38501515922326 53.8067654385668,177.79986845803796 53.39045496264589,178.5102953138121 52.43888816048275,179.45405566437694 51.43634456535801,180.15926947961634 50.18316507145937,181.2481795625281 47.80000000000291,183.12000256602187 49.949521437010844,181.455587839715 51.46183296185336,180.15408412668694 52.36242297102581,179.53183717478896 53.364966566165094,178.56215082298513 53.84924609940208,177.7843115325195 54.61389799397148,177.31760111514086 55.25960403827776,176.77309914112266 56.28338796382013,175.47145182402528 59.75405795201368,172.8058024322563 59.77529828243132,172.68651848660738 59.97070932213683,172.68651848660738 60.27657007997914,172.4635084712827 62.17545561819861,170.90240554182674 62.50680477253627,170.4719251950919 63.50085223549104,169.7717369874881 63.87043398452806,169.15971116291257 64.80500852236582,168.57361035943904 65.19158253572823,168.02899615993738 66.09642061099294,167.44287973359678 66.26209518816904,166.93974678391896 66.98851448802452,166.41067270877465 67.65121279665618,165.3888148818951 72.31134128753911,162.1104042878069 73.95959092698467,161.31670032727925 74.49909531929006,160.74605431320379 80.20000000001164,157.67999743398104 76.35550019667426,159.67218144549406 74.50334338535322,160.72011567556183 73.98507932346547,161.2803867188086 72.27310869279609,162.11559184650469 67.66395699490386,165.34731759718852 66.96302609152917,166.41067270877465 66.25784712207678,166.91381193403868 66.07093221451214,167.44287973359678 65.18733446965052,168.0082488140688 64.75403172938968,168.58398389536524 63.85768978628039,169.14415106922024 63.49235610332107,169.75099049394703 62.48556444211863,170.46155212078884 62.16271141995094,170.89203257276313 60.18311262621137,172.51018508309426 60.000445784724434,172.62428325141082 59.89424413269444,172.54130279579476 59.8730038022768,172.66058714970495 59.7073292251298,172.82136118304697 56.27913989772787,175.44552218900935 55.17889078275766,176.8249567729763 54.57566539925756,177.32278681463504 53.80251737248909,177.7946828168242 53.16105939427507,178.75920118006616 52.39640749969112,179.4747974144302 51.7294611249672,179.9362987312088 52.37941523535119,179.52665174519643 53.23752458370291,178.70734591163637 53.81950963681447,177.79986845803796 54.65213058869995,177.29167260811664 55.480503474507714,176.52418162612958" stroke="yellow" stroke-linecap="round" stroke-linejoin="round" stroke-width="0.5"><title>2025-01-01 21.1km</title><desc>1735687361000</desc></polyline><polyline fill="none" points="113.57256304990733,154.1999999999971 114.87552910274826,155.4048351743986 114.17832796921721,157.4222049045493 113.97259648720501,157.660364237061 113.45826778217452,157.4081955164511 113.21824771980755,157.63234551800997 112.95536860387074,158.89318101043318 113.73257642483804,160.71436305135285 114.40691850479925,161.34476539610478 115.13840821862686,162.63357704738155 114.15546891570557,164.9029706102301 114.07546222826932,166.12170023810177 114.21261654957198,167.11628596370429 114.81838146882365,168.1668952026157 114.68122714746278,169.77781044250878 115.33271017385414,171.26263376431598 115.37842828105204,171.9490077782175 114.86409957596334,173.47582485280873 114.25833465671167,174.06413419639284 112.56676469341619,174.73648399064405 110.62374514102703,174.8905635898409 109.5265105701983,175.43684411628783 109.17219524004031,175.81503678372246 109.14933618652867,176.68347442683444 110.52087940002093,178.85453940902516 110.74946993560297,179.55487407621695 110.80661756946938,180.40927650749654 110.41801365895662,181.12360802080366 109.34363814175595,181.86594776227867 107.8235110801761,182.13206837197504 106.74913556291722,182.63629518138623 103.5831566452398,183.14051974678296 100.31431198643986,186.59999999999854 94.01664273126516,181.9359795622804 94.71384386479622,180.75943957679556 102.16589532460785,171.136564615721 94.47382380237104,165.28119844986213 94.05093131167814,165.56136640563636 84.96445752232103,177.15971159824403 84.62157171900617,176.99162811932183 93.90234746347414,165.01503824997053 93.62803882081062,164.5387500153738 89.93630167120136,161.59692535151407 90.0048788319109,161.28872977420542 90.35919416206889,161.24670303961466 90.75922759930836,161.4848543295011 98.75989634450525,167.83070130644046 99.41137937089661,167.69062022181606 100.18858719186392,166.69603953952173" stroke="#4DD2FF" stroke-linecap="round" stroke-linejoin="round" stroke-width="0.5"><title>2024-12-28 10.1km</title><desc>1735347410000</desc></polyline><polyline fill="none" points="137.29613679545582,169.52476257855596 133.3564281190629,172.5892084497682 132.5219759341271,173.78321963016788 131.70120329322526,174.71002511359984 130.63419886000338,175.57837199752248 129.48511716275243,176.271371689254 128.76694110195967,177.46531852840417 127.31690943634021,178.8930177811344 125.69588347052922,180.04517437713366 124.12957568079582,181.4227274193181 119.79999999998836,184.8372694905338 123.5550348321558,181.91530025249085 125.81215959467227,179.96168542153464 127.18011399620445,179.03495116450358 128.732742241933,177.53211214100884 129.4714376187476,176.29641973928665 130.59999999997672,175.60342030159518 131.73540215325193,174.68497648202174 132.6040531982144,173.72477201612492 133.36326789105078,172.60590805074025 139.0471184293856,168.23882336903625 139.0471184293856,168.03841507834295 139.3001899936644,168.0634661468357 139.7789740341832,167.76285271867528 142.93210892970092,165.16583163596806 143.55452818240155,164.3975621021964 145.0866371120792,163.33700191798562 145.68169727677014,162.35158478392987 147.19328689042595,161.39955811837717 147.82938568713143,160.51432843572547 149.26573780871695,159.58733033778844 149.5598480050976,158.73548315449443 150.68157061430975,157.9504381072402 151.59126029131585,156.43878339617368 152.19999999998254,155.9627305094691 151.7554148195195,156.24669227985578 150.73628879035823,157.83351573236723 149.51196960100788,158.7438346490526 149.26573780871695,159.5539247660272 147.77466751108295,160.53103098876454 147.18644711840898,161.36615343300218 145.62013932867558,162.3766379380104 145.0866371120792,163.31194911611965 143.47245091831428,164.44766690039978 142.9115896136791,165.15748092663125 139.7242558581347,167.77120310953615 138.73248891704134,168.40582982885098" stroke="#4DD2FF" stroke-linecap="round" stroke-linejoin="round" stroke-width="0.5"><title>2024-12-24 11.5km</title><desc>1734996352000</desc></polyline><polyline fill="none" points="177.82025586350937,165.0563401301697 172.96716417907737,168.84094758822903 171.0155650319648,171.37095467649488 169.78070362471044,172.43564380966563 168.03635394453886,173.53194364151568 167.09509594878182,175.08149752659665 165.16076759062707,176.97887254353554 163.3559701492195,178.20160322287848 160.49765458417824,180.6786338180027 155.8259061833669,184.3360766396072 160.22995735605946,180.9210627792345 163.2091684434854,178.3597136833996 165.22985074625467,176.94724996852892 167.12963752663927,175.08149752659665 168.1399786780239,173.45815466704516 169.4784648187051,172.6991786950457 170.89466950958013,171.53961917749257 173.0621535181126,168.78823831817135 178.98603411510703,164.13915399362304 180.19498933898285,163.36955350310745 180.1604477611836,163.13761776208412 180.54904051168705,163.1059901126937 181.04989339015447,162.76862779776275 185.0049040511367,159.53199102781946 185.721641791024,158.60420303936553 187.80277185497107,157.13869940453878 188.19999999998254,156.45338340337184 187.69914712148602,157.19141579444113 185.73891257995274,158.5514875130757 185.03081023451523,159.46873307292844 181.10170575688244,162.72645741559973 180.59221748399432,163.0743624517345 180.46268656713073,162.95839426229213 180.28997867798898,163.26412824357976 179.0292110873561,164.065356983956 173.11396588484058,168.70390341908205 170.84285714285215,171.53961917749257 169.56481876331964,172.5832234446716 168.0018123666814,173.5530261940803 167.10373134328984,175.06041534755786 165.97249466949143,176.20938659422973 165.02260127931368,177.06319935362262 163.278251599113,178.26484744183836 159.72046908314223,181.30051543810987 155.79999999998836,184.3466165966238 159.79818763327785,181.24781377972977 163.33006396587007,178.25430674190284 165.48891257989453,176.70480984161986 167.0778251599113,175.11312078548508 168.0708955223672,173.53194364151568 169.4698294242844,172.6886373150992 170.72196162046748,171.69774184765993 171.96545842214255,170.3273357437356 172.89808102344978,168.94636603174877 175.41098081017844,166.9855618950969" stroke="#4DD2FF" stroke-linecap="round" stroke-linejoin="round" stroke-width="0.5"><title>2024-12-21 15.0km</title><desc>1734737288000</desc></polyline><polyline fill="none" points="31.064459365559742,208.30274496116908 26.720953924494097,211.64545717765577 25.895762908039615,212.83597620281944 24.815512850153027,214.06310678789305 23.870294049498625,214.84150010182202 22.48997453111224,215.67482986530376 21.604769622557797,217.08505912586406 20.119425792974653,218.54104720991018 18.28900208376581,219.85049661236553 15.655892567679984,222.10306233956362 11.799999999988358,225.14300307357917 16.293540171318455,221.5902891005826 18.22148645517882,219.90543804527988 20.389488307439024,218.30296304251533 21.604769622557797,217.08505912586406 22.444964112044545,215.71145953239466 23.67524890016648,214.96970528393285 24.7855059041176,214.0814220175671 25.81324380642036,212.94586931317463 26.750960870529525,211.6179834384311 32.219726788578555,207.33195675921888 33.78758971981006,206.3062046156192 37.20087983328267,203.5127905307163 37.8310257003759,202.7068025161061 39.57142857139115,201.48864508352563 40.17906922893599,200.4536536558444 41.82194952532882,199.4094885222803 42.609631859202636,198.37446836852178 44.07247047923738,197.44019010852207 44.19999999998254,197.2569969264223 42.54211623055744,198.392787433615 41.87446168088354,199.34537264507526 40.14156054635532,200.44449437585718 39.50391294277506,201.50696338707348 37.77101180824684,202.71596151953418 37.163371150702005,203.5036316246842 33.42750636715209,206.5534854348516 33.32248205598444,206.77328992234106 32.90238481128472,206.8740334302929" stroke="#4DD2FF" stroke-linecap="round" stroke-linejoin="round" stroke-width="0.5"><title>2024-12-17 10.2km</title><desc>1734391788000</desc></polyline><polyline fill="none" points="63.5436188315507,211.59800264291698 60.015087918320205,214.32018439403691 58.60000000000582,216.13739766521758 57.66885989790899,216.9375526525946 56.51106069199159,217.65543981232986 55.73306863303878,218.88928869371375 54.41599546227371,220.13059034660182 53.09892229156685,221.04285623458782 51.438797504262766,222.4860031908138 47.79999999998836,225.3273329893782 54.95507657399867,219.65949690036723 55.83720930234995,218.76964383068116 56.52331253545708,217.64796186448075 57.656608054443495,216.94503068723498 58.403970504848985,216.33930691995192 59.14520703346352,215.53914411041478 60.10697674416588,214.2454007988199 64.29098128189798,210.96231089071807 65.8469653998909,209.92275367653565 68.56074872377212,207.68652397844926 69.0753261486243,207.03583309576788 70.48428814520594,206.04108538069704 70.98048780491808,205.18843160801407 72.34656834942871,204.32828637502098 72.95303460012656,203.50552744361266 74.19659671012778,202.7126765488174 74.47838910945575,201.94225498579908 75.47078842882183,201.23914334288565 76.38355076574953,199.79549516785846 80.20000000001164,197.07266701061963 76.45706182645517,199.6907732493528 75.47691435055458,201.18678364188236 74.46613726601936,201.91233550606194 74.20272263188963,202.6677978889893 72.91015314805554,203.51300712011653 72.30981281906134,204.32080679822684 70.99886557005811,205.143554764476 70.49041406693868,206.0111679056572 69.01406693135505,207.06575006974163 68.60975609754678,207.60425309961283 68.0400453772163,208.07543936257935" stroke="#4DD2FF" stroke-linecap="round" stroke-linejoin="round" stroke-width="0.5"><title>2024-12-14 12.1km</title><desc>1734132056000</desc></polyline><polyline fill="none" points="105.87206823023735,205.78782230566867 100.94989339014865,209.6462236308289 99.98272921104217,211.04827753523568 98.92057569295866,212.25001988784788 97.65117270784685,213.3147074598528 96.12270788906608,214.23180404236336 95.02601279315422,215.950016223891 93.22121535177575,217.6892759123366 91.30415778249153,219.02795494519523 89.05895522388164,220.99904295898887 83.79999999998836,225.17296306451317 89.83614072494674,220.3560726730866 91.23507462683483,219.0806584191887 93.61844349675812,217.34142677960335 95.15554371001781,215.79189996811328 96.03635394453886,214.31613427313277 97.53027718546218,213.39903858709295 98.78240938164527,212.38705961906817 99.97409381662146,211.06936087865324 101.10533049039077,209.49863768364594 107.19328358207713,204.73358427178027 109.20533049036749,203.39468339417363 112.90991471213056,200.33727275950514 114.02388059697114,201.92924837358441 113.02217484006542,200.2740148433004 113.7130063965742,199.37785604556848 115.77686567162164,197.91235276908264 116.19999999998254,197.2270369354883 115.70778251596494,197.93343932372227 113.73027718547382,199.32514053217892 113.0739872068225,200.1791278819801 108.62675906182267,203.85855691741017 106.8910447761009,204.9233480688199 101.04488272918388,209.5091795453991 99.95682302769274,211.02719418663037 98.76513859271654,212.3448935710985 97.52164179101237,213.35687303378654 95.98454157781089,214.30559299879678 95.02601279315422,215.87622867391474 93.59253731340868,217.30980406163872 91.39914712152677,218.92254790068546 88.26449893391691,221.59984692871512 83.81727078891709,225.09918340134027 88.4026652451721,221.526064210404 91.16599147120724,219.1439025454747 93.3248400852608,217.6154898498644 95.19008528781706,215.77081777874992 96.09680170574575,214.2739691680399 97.43528784645605,213.4728282558208 98.90330490402994,212.27110293759324 101.1312366737402,209.48809582063404 107.13283582087024,204.786296479484 108.98944562897668,203.5633649640149 113.0135394455865,200.2634718527479 113.73891257995274,199.346226741407 115.64733475475805,198.00724222449207" stroke="#4DD2FF" stroke-linecap="round" stroke-linejoin="round" stroke-width="0.5"><title>2024-12-07 17.1km</title><desc>1733527336000</desc></polyline><polyline fill="none" points="122.08554854028625,227.39169429026515 122.34397921257187,227.2588027964739 122.20796306926059,227.40000000000146 122.31677598389797,227.16743974360725 121.74550818200805,225.78867328682827 121.8135162536928,225.66408457663056 129.98128565892694,222.71541834496747 130.92659785487922,222.18381418311037 131.65428422152763,221.3864001325419 144.95666303639882,205.78510270813422 145.41231711642467,204.97918744933122 147.63618105940986,199.2378026882434 148.27545693295542,197.90001514944743 149.69682563043898,195.63153248653543 149.96205710989307,195.39886330733862 150.25449181799195,195.4570306769674 149.86004500239505,195.00000000000728 149.73763047342072,195.00830967615184 148.8807287706295,196.16334475556505 148.11903836816782,197.44300093658967 147.22133182236576,199.2211843713594 145.14028482986032,204.73824185289413 144.68463074980536,205.5773935057805 139.48201326851267,211.75854721703217 133.10965695485356,219.10208926850464 132.87162870407337,219.6171042497299 131.39585354930023,221.31164208492555 130.70217121840687,222.0093806601726 130.20571229537018,222.33332827450067 121.88832513251691,225.34015285984788" stroke="#4DD2FF" stroke-linecap="round" stroke-linejoin="round" stroke-width="0.5"><title>2024-11-30 11.9km</title><desc>1732919585000</desc></polyline><polyline fill="none" points="158.66541848517954,195.5071479944163 168.35490678297356,205.59364209632622 184.6424752078019,227.34365415229695 185.24230067408644,227.1182706929976 183.95036890078336,225.14616071872297 168.35490678297356,204.7484136405401 159.1729631102644,195.0 158.66541848517954,195.5071479944163 168.44718762417324,205.7626876013528 184.6424752078019,227.39999999999418 185.33458151482046,227.23096243635518 185.0577389919199,226.5548115617712 169.13929393095896,205.64999060492846 159.1729631102644,195.05634980462492 158.7576993261464,195.61984747307724 168.44718762417324,205.64999060492846 184.68861562828533,227.34365415229695 185.19616025337018,226.83654121358995 169.69297897676006,206.26982374390354 159.31138437171467,195.22539917757967 158.71155890566297,195.56349773719558 168.5394684651401,205.7626876013528 184.68861562828533,227.39999999999418 185.38072193530388,227.23096243635518 184.68861562828533,226.0476977546641 168.72403014684096,205.14285377960186 159.1729631102644,195.05634980462492 158.66541848517954,195.5071479944163 168.1703451012727,205.48094505848712 184.68861562828533,227.39999999999418 185.15001983288676,226.72384937369497 169.09315351047553,205.64999060492846 159.12682268978097,195.05634980462492 158.71155890566297,195.56349773719558 168.44718762417324,205.7626876013528 184.59633478731848,227.34365415229695 185.19616025337018,226.9492330259818 169.27771519240923,205.81903608920402 159.1729631102644,195.11269960255595 158.61927806469612,195.45079824488494 168.49332804442383,205.87538457012852 184.50405394635163,227.17461656813975 185.28844109433703,226.9492330259818 179.52088853600435,219.45516745062196" stroke="#4DD2FF" stroke-linecap="round" stroke-linejoin="round" stroke-width="0.5"><title>2024-11-26 10.9km</title><desc>1732619882000</desc></polyline><polyline fill="none" points="14.7346250587143,236.0793201699853 23.928902173181996,245.7995556363021 40.6249775304459,268.0882798121893 40.89943356369622,267.08279689209303 26.993661211337894,248.64855095368694 15.14630910847336,235.79999999998836 15.192051780642942,236.97314356509014 24.43207156751305,246.46990907509462 40.6249775304459,267.97655959712574 40.9451762358658,267.1945173260465 25.575638372683898,246.9168108207523 16.564331947127357,237.19659914067597 15.192051780642942,235.96759212235338 14.963338419795036,236.5820960450219 24.43207156751305,246.35818357032258 40.6249775304459,267.97655959712574 41.21963226911612,267.9206994793494 40.9451762358658,267.250377532735 25.438410356175154,246.80508542529424 15.329279797384515,235.79999999998836 15.14630910847336,236.97314356509014 24.52355691185221,246.58163455245085 40.6249775304459,268.0882798121893 40.99091890803538,267.250377532735 25.804351733764634,247.1402615295665 15.283537124982104,235.79999999998836 14.871853075223044,236.35864016893902 24.386328895343468,246.4140463260701 40.53349218587391,267.9206994793494 41.128146924776956,267.3620979254192 25.20969699509442,246.46990907509462 15.329279797384515,235.91172808845295 14.780367730883881,236.41450414829887 24.52355691185221,246.58163455245085 40.85369089152664,268.20000000001164 40.6249775304459,266.7476354269893 25.392667684005573,246.74922271742253 15.329279797384515,235.8558640475385 15.283537124982104,236.97314356509014 24.294843550771475,246.30232080764836 40.48774951370433,267.9206994793494 40.9451762358658,267.1945173260465 25.66712371725589,246.9726735081058 15.283537124982104,235.91172808845295 14.917595747392625,236.30277618273976 24.52355691185221,246.58163455245085 40.48774951370433,267.8089792232495 41.2653749412857,267.75311908480944 40.9451762358658,267.13865711260587 24.340586223173887,245.4643785477965 15.329279797384515,235.96759212235338 15.237794452812523,236.80555181196542 24.47781423991546,246.46990907509462 40.57923485804349,267.97655959712574 41.17388959717937,267.8089792232495 40.89943356369622,267.13865711260587 25.438410356175154,246.74922271742253 15.329279797384515,236.0793201699853" stroke="#4DD2FF" stroke-linecap="round" stroke-linejoin="round" stroke-width="0.5"><title>2024-11-16 14.9km</title><desc>1731755814000</desc></polyline><polyline fill="none" points="50.61967789498158,236.30539017761475 60.551463375100866,246.6938427546993 76.73659526836127,268.14384946553037 77.05845868657343,267.30159062327584 60.68940483988263,245.85154454910662 51.493307173484936,236.13692684698617 50.849580336827785,235.91230897631613 50.89556082501076,236.58616225799778 60.413521910086274,246.4692300510942 76.64463429152966,268.14384946553037 77.19640015158802,267.5823437424842 74.20766840991564,263.4271800429851 61.33313167677261,246.6938427546993 51.44732668506913,236.08077238954138 50.80359984841198,236.47385344657232 60.78136581694707,246.91845534849563 76.46071233833209,267.9753978206427 77.24238064000383,267.63849434576696 61.19519021175802,246.52538323725457 51.355365708703175,235.91230897631613 50.849580336827785,236.3615446073818 60.78136581694707,246.8623022104439 76.64463429152966,268.031548375875 77.15041966340505,267.30159062327584 61.79293655999936,247.19922093607602 51.30938522005454,235.96846345430822 50.849580336827785,236.53000785576296 60.50548288691789,246.52538323725457 76.64463429152966,268.20000000001164 77.38032210501842,267.7507955316396 61.79293655999936,247.19922093607602 53.516448660055175,238.21463693710393 51.12546326662414,235.96846345430822 50.89556082501076,236.41769903039676 60.551463375100866,246.58153641669196 76.55267331493087,268.031548375875 77.28836112841964,267.7507955316396 63.03440974513069,248.8838108551281 51.171443755039945,235.85615449163015 50.849580336827785,236.47385344657232 60.50548288691789,246.58153641669196 76.78257575654425,268.20000000001164 77.33434161660261,267.69464494203567 61.01126825832762,246.24461723744753 51.12546326662414,235.80000000001746 51.12546326662414,236.64231665345142 60.45950239826925,246.52538323725457 76.59865380334668,268.14384946553037 77.28836112841964,268.031548375875 76.96649770997465,267.30159062327584 60.96528776991181,246.30077045108192 50.89556082501076,236.3615446073818 60.82734630489722,247.08691472164355 76.64463429152966,268.14384946553037 77.05845868657343,267.41389189168694 69.83952201833017,257.9804895738489" stroke="#4DD2FF" stroke-linecap="round" stroke-linejoin="round" stroke-width="0.5"><title>2024-11-10 14.3km</title><desc>1731237417000</desc></polyline><polyline fill="none" points="86.7346323619131,236.35960497098858 97.64018503180705,248.05519216498942 112.53222123999149,267.9761736759974 113.21954598813318,267.9202170779463 112.34893464064226,266.52129990031244 98.23586647980846,247.77539692015853 87.42195711005479,236.13576306478353 86.87209731154144,236.47152588301105 96.44882213510573,246.54429580946453 112.66968618961982,268.20000000001164 113.31118928780779,267.9761736759974 112.34893464064226,266.5772566696396 96.86121698375791,246.09662185661728 87.330313810613,236.13576306478353 86.68881071219221,236.30364450480556 96.35717883519828,246.4883365892165 112.62386453989893,268.20000000001164 113.31118928780779,267.69639061702765 97.0903252332937,246.43237736233277 87.330313810613,236.07980257101008 86.68881071219221,236.35960497098858 96.08224893617444,246.20854038593825 112.76132948952727,268.088086851727 113.12790268845856,267.41660738689825 97.18196853273548,246.4883365892165 87.19284886075184,235.85596052798792 86.96374061144888,236.52748632870498 96.54046543454751,246.4883365892165 112.71550783957355,268.03213026718004 113.2653676380869,267.69639061702765 112.66968618961982,266.74512693626457 97.68600668152794,247.0479284825269 87.330313810613,235.91192104911897 86.78045401186682,236.13576306478353 98.60243967873976,249.11841253421153 112.62386453989893,267.9761736759974 113.17372433841228,267.7523472424364 112.1198263913393,266.07364549997146 97.86929328111,247.32772417229717 87.28449216042645,235.80000000001746 86.82627566182055,236.52748632870498 97.31943348236382,247.495601504168 112.53222123999149,267.9761736759974 113.2653676380869,267.86426047288114 112.57804288994521,266.74512693626457 98.23586647980846,247.6075196910242 87.37613546010107,236.07980257101008 86.87209731154144,236.30364450480556 96.7237520343624,246.76813262153883 112.66968618961982,267.86426047288114 112.99043773883022,267.1927806795575 99.42722937674262,249.34224808670115" stroke="#4DD2FF" stroke-linecap="round" stroke-linejoin="round" stroke-width="0.5"><title>2024-10-26 12.9km</title><desc>1729940418000</desc></polyline><polyline fill="none" points="126.10477451386396,236.0462678404001 132.2694855883019,242.44915765646147 141.66058750532102,254.9027218062838 143.53304647642653,256.3802275250782 145.77999724203255,259.475929177308 142.1791146050673,268.1648228265112 145.86641842511017,259.5111074137385 132.38471383275464,242.06217385880882 126.27761688048486,235.87036226163036 132.35590677161235,242.55469860180165 142.46718521602452,255.95808380865492 143.56185353756882,256.45058475088445 145.77999724203255,259.6166420969821 142.150307543925,268.20000000001164 145.89522548625246,259.65182031618315 132.64397738256957,242.2380756495404 126.22000275843311,235.97590562188998 132.2982926494442,242.55469860180165 142.35195697145537,255.8525477827352 143.4754323543748,256.3450489057577 145.72238311963156,259.4407509366865 142.12150048278272,268.12964564861613 145.808804302942,259.475929177308 133.01846917672083,242.73060009122128 126.27761688048486,235.79999999998836 132.55755619925912,242.8713212053699 141.8334298718255,255.2193308135902 143.5906605985947,256.41540614012047 145.72238311963156,259.4055726916704 142.150307543925,268.12964564861613 145.86641842511017,259.6166420969821 132.2982926494442,241.95663273264654 126.65210867475253,235.9407245060429 126.22000275843311,235.87036226163036 126.42165218596347,236.3277165426116 131.6357302442193,241.8159111709101 131.6357302442193,241.1474828120554 128.66860295145307,238.15712639156845" stroke="#4DD2FF" stroke-linecap="round" stroke-linejoin="round" stroke-width="0.5"><title>2024-10-19 10.6km</title><desc>1729335763000</desc></polyline></svg>