<?xml version="1.0" encoding="utf-8" ?>
<svg baseProfile="full" height="300mm" version="1.1" viewBox="0,0,200,300" width="200mm" xmlns="http://www.w3.org/2000/svg" xmlns:ev="http://www.w3.org/2001/xml-events" xmlns:xlink="http://www.w3.org/1999/xlink"><defs /><rect fill="#222222" height="300" width="200" x="0" y="0" /><text fill="#FFFFFF" style="font-size:12px; font-family:Arial; font-weight:bold;" x="10" y="20">Over 10km Runs</text><text fill="#FFFFFF" style="font-size:4px; font-family:Arial" x="10" y="280">Runner</text><text fill="#FFFFFF" style="font-size:9px; font-family:Arial" x="10" y="290">unsung</text><text fill="#FFFFFF" style="font-size:4px; font-family:Arial" x="65" y="280">SPECIAL TRACKS</text><rect fill="yellow" height="2.6" width="2.6" x="65" y="283" /><text fill="#FFFFFF" style="font-size:3px; font-family:Arial" x="70" y="285.5">Over 20.0 km</text><rect fill="red" height="2.6" width="2.6" x="65" y="287" /><text fill="#FFFFFF" style="font-size:3px; font-family:Arial" x="70" y="289.5">Over 40.0 km</text><text fill="#FFFFFF" style="font-size:4px; font-family:Arial" x="120" y="280">STATISTICS</text><text fill="#FFFFFF" style="font-size:3px; font-family:Arial" x="120" y="285">Number: 28</text><text fill="#FFFFFF" style="font-size:3px; font-family:Arial" x="120" y="290">Weekly: 1.6</text><text fill="#FFFFFF" style="font-size:3px; font-family:Arial" x="141" y="285">Total: 345.1 km</text><text fill="#FFFFFF" style="font-size:3px; font-family:Arial" x="141" y="290">Avg: 12.3 km</text><text fill="#FFFFFF" style="font-size:3px; font-family:Arial" x="167" y="285">Min: 10.0 km</text><text fill="#FFFFFF" style="font-size:3px; font-family:Arial" x="167" y="290">Max: 21.1 km</text><polyline fill="none" points="22.817127090413123,31.80000000000291 27.545770688797347,37.261949395615375 33.04311004432384,44.601241852433304 32.90334717941005,45.05638414353598 27.732121175387874,48.01478732046962 17.459550599916838,33.56376851965615 29.851857960806228,51.826520538903424 27.825296418741345,48.270801210353966 33.29934196348768,45.141723223990994 35.7917797222035,48.213909259211505 36.65365072293207,48.555260757522774 38.49386177829001,51.22916349154548 35.55884161393624,57.970675391101395 35.65201685728971,58.79557270980149 32.36758953041863,63.00534793814586 30.690435150754638,64.19999999999709 32.39088334119879,63.00534793814586 35.675310668186285,58.909351420647 35.55884161393624,58.084454505558824 38.54044939996675,51.05848976765992 28.407641689409502,37.8593423262937 22.770539468852803,31.80000000000291 23.003477577120066,32.482750691619 27.615652121254243,37.31884402659489 33.04311004432384,44.54434900340857 32.85675955773331,45.0848305071122 27.545770688797347,47.957895306593855 17.529432032373734,33.44997740603867 29.96832701493986,51.826520538903424 27.848590229521506,48.213909259211505 33.36922339606099,45.113276867283275 35.768485911306925,48.157017294099205 36.70023834449239,48.58370669318538 38.44727415672969,51.00159849843476 35.55884161393624,57.913785812983406 35.675310668186285,58.85246207215823 32.36758953041863,62.976903766655596 30.667141339858063,64.1431119456829 32.34429571952205,63.033792106230976 35.721898289746605,58.82401739273337 35.5821354247164,57.970675391101395 38.54044939996675,51.48517384256411 36.02471783047076,47.844111237165635" stroke="#4DD2FF" stroke-linecap="round" stroke-linejoin="round" stroke-width="0.5"><title>2025-06-13 10.0km</title><desc>1749765414000</desc></polyline><polyline fill="none" points="56.01247698254883,31.82852310704766 60.917096379213035,37.276372552645626 69.16152803169098,48.171689528855495 70.00231992837507,48.45690041172202 71.87074636528268,51.1093449119071 68.9279747272376,57.92570365294523 69.0447513795225,58.80981926640379 65.91513709782157,62.80255770035728 64.09342132182792,64.19999999999709 65.72829445416573,63.05923140363302 69.0447513795225,58.952418244982255 69.0213960489491,57.95422356373456 71.98752301756758,51.1093449119071 61.08058369252831,36.934103037187015 55.98912165209185,31.857046210527187 61.33749232755508,37.64716396070435 69.11481737089343,48.086126195892575 70.07238591974601,48.54246360860998 71.87074636528268,51.023782657124684 68.99804071860854,57.89718373857613 69.06810670997947,58.838339069043286 65.7516497845063,62.97367353395384 64.1167766522849,64.14296170267335 65.77500511496328,62.97367353395384 69.06810670997947,58.89537866396131 68.97468538803514,57.95422356373456 72.01087834790815,51.166386397671886 61.05722836195491,36.84853557981842 56.01247698254883,31.80000000000291 60.7302537355572,36.905580554826884 69.11481737089343,48.057605077992775 70.07238591974601,48.54246360860998 71.89410169562325,51.080824163756915 68.97468538803514,57.89718373857613 69.0447513795225,58.80981926640379 65.7516497845063,63.00219282731996 64.09342132182792,64.14296170267335 65.79836044553667,62.94515423712437 69.06810670997947,58.89537866396131 68.97468538803514,57.95422356373456 71.94081235653721,51.1093449119071 61.33749232755508,37.19080522090371 56.24603028711863,31.80000000000291 56.17596429574769,32.14227705373196 61.01051770115737,37.21932766833925 63.205918764462695,40.12859897293674" stroke="#4DD2FF" stroke-linecap="round" stroke-linejoin="round" stroke-width="0.5"><title>2025-06-09 10.0km</title><desc>1749421393000</desc></polyline><polyline fill="none" points="92.06833766854834,32.11156005374505 92.20748963928781,31.79999999998836 92.11472165875603,32.47976684941386 96.93865664396435,37.35137085482711 104.52243904885836,47.462454284352134 105.98353474133182,48.623642878592364 107.81570235616527,51.17257302744838 104.87031897553243,58.02622381078254 105.05585493647959,58.81919510423904 101.69301564386114,63.06720936077181 100.09276798053179,64.19999999999709 101.78578362450935,62.95392999211617 105.07904693169985,58.87583580696082 104.93989496096037,58.05454426094366 107.86208634625655,51.25753688249097 98.1678323855158,38.42764163362153 92.06833766854834,32.08323642979667 96.96184863918461,37.40801681004814 105.07904693169985,48.19881845872442 106.00672673655208,48.623642878592364 107.8388943511527,51.229215600920725 104.93989496096037,57.99790335718717 104.93989496096037,58.98911717098963 101.78578362450935,62.98224983944965 100.06957598554436,64.19999999999709 101.8089756196132,62.98224983944965 105.07904693169985,58.90415615317761 104.91670296585653,58.08286470755411 107.95485432678834,51.229215600920725 97.10100060992409,37.09646388475085 92.06833766854834,32.05491280242859 96.91546464897692,37.35137085482711 105.0094709462719,48.11385348121985 106.07630272198003,48.68028607570159 107.8388943511527,51.17257302744838 104.91670296585653,57.99790335718717 105.03266294149216,58.84751545735344 101.7162076390814,63.038889523857506 100.06957598554436,64.1716803014424 101.78578362450935,62.98224983944965 104.98627895116806,59.017437503280235 104.91670296585653,58.19614645947877 107.86208634625655,51.17257302744838 97.28653657087125,37.26640189597674 92.04514567332808,32.026589171538944 96.91546464897692,37.32304787199246 104.56882303906605,47.51909776554385 106.02991873165593,48.65196447895141 107.8388943511527,51.17257302744838 104.93989496096037,57.94126243965002 104.89351097075269,59.07407815747138 101.69301564386114,63.038889523857506 100.0463839903241,64.1716803014424 101.66982364887372,63.12384902444319 105.07904693169985,58.90415615317761 104.93989496096037,58.05454426094366 107.86208634625655,51.62571322708391 107.72293437551707,50.88935995232896 104.91670296585653,47.32084552074957" stroke="#4DD2FF" stroke-linecap="round" stroke-linejoin="round" stroke-width="0.5"><title>2025-06-07 12.0km</title><desc>1749247836000</desc></polyline><polyline fill="none" points="128.38979184487835,31.79999999998836 128.18160985899158,32.50623853063735 132.831007546396,37.36510106171772 141.04263032774907,48.21242520313535 142.12980292143766,48.805623546169954 143.81839014124125,51.26314330477908 140.88071100541856,58.0706189404591 140.99636766430922,58.889762232720386 137.71171855169814,63.041926642588805 136.0693939954508,64.17175437732658 137.71171855169814,63.07017240326968 141.04263032774907,58.9745010282204 140.9269736688584,58.09886530923541 143.9340468001319,51.37613209008123 133.17797752306797,37.252105420062435 128.0659531999845,32.16724430548493 133.01605820062105,37.534594420634676 141.01949899608735,48.15593004334369 142.014146262547,48.664385983676766 143.81839014124125,51.2066488913988 140.9038423371967,57.98587981330638 140.99636766430922,58.889762232720386 137.73484988347627,63.01368087834271 136.0693939954508,64.17175437732658 137.71171855169814,63.12666391445964 141.08889299130533,58.889762232720386 140.97323633241467,57.98587981330638 143.95717813191004,51.34788489897619 133.2705028501805,37.36510106171772 128.1353471953189,32.054246119907475 132.99292686884291,37.50634553616692 141.01949899608735,48.15593004334369 141.99101493076887,48.60789093449421 143.81839014124125,51.23489609984972 140.88071100541856,58.0141261924291 140.99636766430922,58.889762232720386 137.64232455636375,63.041926642588805 136.11565665900707,64.19999999999709 137.64232455636375,63.154909664794104 141.0657616596436,58.889762232720386 140.9269736688584,58.127111674519256 143.91091546835378,51.37613209008123 133.36302817740943,37.50634553616692 128.3435291814385,32.11074521957198 128.04282186820637,32.280242435852415 132.99292686884291,37.4780966482067 135.60676735988818,40.9244354692637" stroke="#4DD2FF" stroke-linecap="round" stroke-linejoin="round" stroke-width="0.5"><title>2025-06-05 10.1km</title><desc>1749073951000</desc></polyline><polyline fill="none" points="164.21099729137495,31.80000000000291 164.09422063909005,32.14227705373196 168.8353527225554,37.13376031561347 179.88242403033655,51.1093449119071 176.89294173149392,58.011263374995906 177.07978437514976,58.752779650560115 173.763327449793,63.00219282731996 172.10509898711462,64.19999999999709 173.78668278013356,63.00219282731996 177.05642904457636,58.952418244982255 176.98636305332184,58.011263374995906 179.97584535216447,51.13786565649207 169.20903800986707,37.07671539635339 164.02415464771912,31.857046210527187 168.99884003575426,37.276372552645626 179.88242403033655,51.223427869481384 176.91629706183448,57.95422356373456 177.05642904457636,58.80981926640379 173.763327449793,62.97367353395384 172.08174365654122,64.17148085299414 173.7399721192196,63.05923140363302 177.07978437514976,58.89537866396131 177.0330737142358,57.92570365294523 179.9291346912505,51.080824163756915 169.25574867089745,37.13376031561347 164.02415464771912,31.914092407168937 168.90541871404275,37.21932766833925 179.88242403033655,51.1093449119071 176.91629706183448,57.95422356373456 177.05642904457636,58.78129946022818 173.69326145830564,63.05923140363302 172.08174365654122,64.17148085299414 173.69326145830564,63.08775068662362 177.07978437514976,58.92389845622529 176.98636305332184,57.95422356373456 179.97584535216447,51.280469327262836 169.60607862775214,37.5615967650665 164.37448460469022,31.885569310572464 164.07086530863307,32.056707837444264 167.76100752141792,35.82172364126018 171.19424109905958,40.157121060896316" stroke="#4DD2FF" stroke-linecap="round" stroke-linejoin="round" stroke-width="0.5"><title>2025-06-03 10.0km</title><desc>1748953280000</desc></polyline><polyline fill="none" points="19.998388661420904,72.7714404004364 24.95845183043275,77.94316664648068 35.95481828984339,91.91482678161992 33.03025274211541,98.62892644264502 33.05364926648326,99.6574523220188 29.91851499932818,103.68580174306408 28.14037914632354,105.0 29.84832542622462,103.7143713489786 33.14723536407109,99.60031211418391 33.05364926648326,98.74320731952321 35.97821481432766,91.94339782741736 25.145624025375582,77.68601169374597 20.068578234524466,72.60000000000582 24.95845183043275,77.91459388796648 35.95481828984339,91.88625573240279 33.006856217747554,98.71463710557146 33.03025274211541,99.6574523220188 29.778135853004642,103.80008014582563 28.14037914632354,104.97143055118795 29.871721950592473,103.7143713489786 33.100442315335386,99.71459251585475 33.05364926648326,98.71463710557146 35.95481828984339,91.88625573240279 25.519968415610492,78.14317585837853 20.068578234524466,72.62857340884511 24.93505530594848,77.8860211259016 35.95481828984339,91.88625573240279 33.03025274211541,98.71463710557146 33.100442315335386,99.6288822198112 29.84832542622462,103.74294095148798 28.14037914632354,104.97143055118795 29.871721950592473,103.74294095148798 33.14723536407109,99.6574523220188 33.077045790851116,98.60035621473799 36.001611338579096,92.08625300377025 25.68374408618547,78.34318489897123 20.372733051655814,72.60000000000582 20.18556085648015,72.91430730462889 25.028641403536312,78.00031215308991 27.672448658617213,81.42901695946057" stroke="#4DD2FF" stroke-linecap="round" stroke-linejoin="round" stroke-width="0.5"><title>2025-05-31 10.0km</title><desc>1748691698000</desc></polyline><polyline fill="none" points="56.23068163439166,72.59999999999127 56.114721658756025,73.08150172453315 60.86908065865282,77.98143290597363 69.21819890232291,89.0837834051199 70.05311072675977,89.39532127484563 71.86208634625655,92.0008943159628 68.87031897553243,98.88286470755702 69.07904693158343,99.61919510424195 65.83216761471704,103.72561014123494 64.11595997563563,104.9716803014453 65.73939963418525,103.81056968333723 69.1022389268037,99.64751545735635 68.96308695606422,98.88286470755702 71.95485432678834,92.0008943159628 61.008232629392296,77.81149483239278 56.04514567332808,72.8549128024315 60.98504063428845,78.12304787199537 69.21819890232291,89.05546175976633 70.09949471708387,89.42364287859527 71.88527834136039,92.0008943159628 68.98627895128448,98.65630103751027 69.0094709462719,99.73247649586119 65.76259162928909,103.81056968333723 64.16234396595974,104.9716803014453 65.78578362439293,103.78224983945256 68.98627895128448,99.73247649586119 68.98627895128448,98.71294197574025 71.95485432678834,92.11417943517154 61.588032507454045,78.49124637820933 56.06833766843192,72.79826553727617 61.008232629392296,78.17969383414311 69.14862291701138,88.99881845872733 70.14587870729156,89.4802860757045 71.86208634625655,91.97257302745129 68.87031897553243,98.82622381078545 69.03266294137575,99.64751545735635 65.73939963418525,103.86720936077472 64.11595997563563,104.9716803014453 65.66982364887372,103.89552919435664 69.055854936596,99.81743750328314 69.0094709462719,98.79790335719008 71.93166233156808,92.05753688249388 61.54164851712994,78.43460049228452 56.06833766843192,72.8549128024315 60.79950467334129,77.868140870778 68.91670296585653,88.71560174578917 70.00672673643567,89.39532127484563 71.81570235604886,91.91593044019828 68.89351097063627,98.76958290020411 69.03266294137575,99.61919510424195 65.73939963418525,103.83888952386042 64.0927679806482,105.0 65.90174360002857,103.6689704292221 69.07904693158343,99.70415615318052 68.96308695606422,98.85454426094657 71.93166233156808,92.05753688249388 61.42568854149431,78.34963163745124 56.04514567332808,72.88323642979958 60.98504063428845,78.17969383414311 69.055854936596,88.91385348122276 70.07630272186361,89.50860766903497 71.88527834136039,92.11417943517154 68.91670296585653,98.76958290020411 69.055854936596,99.64751545735635 65.83216761471704,103.72561014123494 64.06957598542795,105.0 65.73939963418525,103.86720936077472 68.98627895128448,99.8457578321104 68.93989496096037,98.88286470755702 71.93166233156808,92.05753688249388" stroke="#4DD2FF" stroke-linecap="round" stroke-linejoin="round" stroke-width="0.5"><title>2025-03-01 15.0km</title><desc>1740782421000</desc></polyline><polyline fill="none" points="90.15728477551602,72.63469148732838 90.58337634371128,72.59999999997672 90.4697519254405,73.22444612390245 96.37822167063132,79.39945041545434 106.29195215646178,92.5815938677406 107.48500854731537,93.1366180421901 109.70068470179103,96.25860878167441 106.06470332003664,105.0 109.78590301529039,96.32798596317298 96.6906888205558,79.22599707441987 90.4697519254405,72.91222323381226 96.46343998424709,79.46883172210073 106.37717047007754,92.68566098317388 107.4281963382382,93.10192906315206 109.70068470179103,96.18923158300458 106.00789111107588,104.96531247213716 109.84271522448398,96.39736312779132 97.00315597059671,79.60759428446181 90.66859465721063,72.84284032267169 90.32772140274756,72.98160612795618 96.74750102963299,79.78104739196715 106.32035826088395,92.5815938677406 107.54182075627614,93.2059959875769 109.64387249259744,96.18923158300458 106.03629721561447,104.96531247213716 109.84271522448398,96.43205170379952 97.14518649340607,79.74635677901097 90.81062518002,72.9469146829797 90.29931529820897,72.9469146829797 96.4918460889021,79.53821301175049 106.40557657449972,92.68566098317388 107.48500854731537,93.10192906315206 109.70068470179103,96.22392018447863 106.00789111107588,104.93062493996695 109.81430911982898,96.39736312779132 96.4350338797085,78.9137807933148" stroke="#4DD2FF" stroke-linecap="round" stroke-linejoin="round" stroke-width="0.5"><title>2025-02-25 10.0km</title><desc>1740436543000</desc></polyline><polyline fill="none" points="126.67281085590366,72.60000000000582 126.44531843764707,73.22511537416722 132.3316847573733,79.3720098878548 142.3697877082741,92.70718779292656 143.4219401422888,93.15862816511071 145.61155466700438,96.14506177441217 141.94323942437768,104.96527529152809 145.69686432380695,96.21451334501035 132.7297964891186,79.3720098878548 126.24626257177442,72.8778292251518 132.24637510057073,79.26782634403207 142.34135115600657,92.67246158063062 143.62099600816146,93.36698501787032 145.58311811462045,96.21451334501035 141.91480287199374,104.93055057874881 145.668427771423,96.24923912395025 132.30324820498936,78.85109178660787 126.30313567630947,72.8778292251518 132.18950199591927,79.23309848766075 141.48825458798092,91.63067323874566 143.4219401422888,93.22808046644786 145.58311811462045,96.17978756179218 141.94323942437768,104.93055057874881 145.668427771423,96.24923912395025 133.15634477313142,79.82347146881511 126.27469912404194,72.8778292251518 132.3316847573733,79.33728204414365 142.28447805147152,92.63773536420194 143.4503766944399,93.19335431786021 145.668427771423,96.24923912395025 142.0001125287963,104.86110114050098 145.72530087607447,96.38814219707274 132.92885235499125,79.58037686059834 126.70124740805477,72.91255785911926 126.30313567630947,72.98201511453954 132.50230407097843,79.58037686059834 142.17073184228502,92.42937797619379 143.47881324670743,93.19335431786021 145.6399912192719,96.21451334501035 141.9716759765288,105.0 145.75373742822558,96.63122241158271 143.36506703775376,93.08917584695155" stroke="#4DD2FF" stroke-linecap="round" stroke-linejoin="round" stroke-width="0.5"><title>2025-02-22 12.0km</title><desc>1740177306000</desc></polyline><polyline fill="none" points="162.46753810031805,72.59999999997672 162.2965522366576,73.12204858555924 168.16706688934937,79.24734708014876 177.99875405046623,92.3675710259995 179.45213389163837,93.27239175132127 181.56095954356715,96.16083865554538 177.8847634746926,104.93040137705975 181.6749501193408,96.26523980175261 168.73701976821758,79.3517544339411 162.66702160786372,72.87842603147146 162.21105930476915,72.87842603147146 168.70852212433238,79.90859300663578 178.25523284589872,92.64597770947148 179.33814331586473,93.13318875007099 181.61795483145397,96.26523980175261 177.9417587625794,104.96520069069811 181.646452475572,96.19563904189272 168.2810574650066,78.79491477119154 162.6385239639785,72.7740163015842 162.23955694865435,72.91322926632711 168.08157395757735,79.14293968811398 178.16973991401028,92.57637606421486 179.36664095986634,93.16798950679367 181.61795483145397,96.2304394239909 177.9702564064646,105.0 181.646452475572,96.19563904189272 168.65152683632914,79.17774215646205 162.23955694865435,72.80881954918732 168.36655039689504,79.49096417924738 178.31222813378554,92.68077852582792 179.48063153552357,93.30719249101821 181.58945718745235,96.16083865554538 177.9132611185778,104.93040137705975 181.7034477633424,96.2304394239909 168.85101034399122,79.45616174931638 162.23955694865435,72.80881954918732 168.19556453323457,79.28214953572024 178.1982375580119,92.54157523508184 179.33814331586473,93.13318875007099 181.61795483145397,96.26523980175261 177.9417587625794,104.93040137705975 181.6749501193408,96.12603826500708 168.50903861655388,79.03853225777857 162.2965522366576,72.7740163015842 167.9960810256889,79.03853225777857 178.22673520201351,92.50677440187428 179.39513860363513,93.13318875007099 181.56095954356715,96.19563904189272 177.9702564064646,105.0 181.78894069523085,96.40444127039518 170.95983599592,82.20554059668211" stroke="#4DD2FF" stroke-linecap="round" stroke-linejoin="round" stroke-width="0.5"><title>2025-02-05 15.0km</title><desc>1738709514000</desc></polyline><polyline fill="none" points="18.485815845662728,113.39999999999418 18.4287592691835,114.06197237296146 24.248530086129904,120.19385383400368 34.17637442087289,133.3978548151208 35.4030908185523,133.99010436510434 37.59976901905611,137.05584705158253 33.976676402729936,145.79999999998836 37.74241046071984,137.12552263817634 24.733510987483896,120.15901397142443 18.714042152278125,113.64388473751023 18.20053296268452,113.6090440734697 24.39117152779363,120.26353354629828 34.09078955592122,133.2236635366571 35.37456253031269,133.95526619028533 37.59976901905611,137.0906848469749 33.976676402729936,145.7651632699417 37.71388217236381,137.05584705158253 24.562341257580556,119.91513481395668 18.229061250924133,113.64388473751023 24.41969981591683,120.29837339613005 34.062261267681606,133.15398699542857 35.34603424195666,133.92042801127536 37.59976901905611,136.98617144793388 33.91961982601788,145.73032653558766 37.74241046071984,137.61325126703014 37.62829730741214,136.9513336396776 24.847624140791595,120.22869369227556 18.685513864038512,113.6090440734697 18.229061250924133,113.7135660527274 24.220001797773875,120.08933423348935 34.23343099758495,133.43269305798458 35.46014739526436,134.02494253549958 37.62829730741214,137.0210092519119 33.94814811437391,145.7651632699417 37.68535388400778,136.98617144793388 24.5052846808685,119.8106151111715 18.685513864038512,113.6090440734697 18.229061250924133,113.74840670390404 24.30558666284196,120.19385383400368 34.09078955592122,133.18882526812376 35.37456253031269,133.95526619028533 37.5712407308165,136.9513336396776 33.94814811437391,145.73032653558766 37.799467037431896,137.36938705699868 34.80399676389061,133.43269305798458" stroke="#4DD2FF" stroke-linecap="round" stroke-linejoin="round" stroke-width="0.5"><title>2025-02-04 12.0km</title><desc>1738622138000</desc></polyline><polyline fill="none" points="51.12144096009433,113.39999999999418 51.12144096009433,114.5115305633226 60.31391066359356,124.12615641212324 76.5600081095472,145.79999999998836 77.1516026945319,145.74442736443598 76.9240663156379,145.02198248365312 60.8599979726132,123.95943053014344 51.257962787291035,113.7890360065212 50.802890029968694,114.23364817767288 60.4959397665225,124.29288223281037 76.60551538551226,145.79999999998836 76.96957359160297,145.13312792472425 60.76898342114873,123.79270458704559 51.43999189068563,113.9001890902291 50.93941185739823,114.23364817767288 60.45043249102309,124.23730696606799 76.5600081095472,145.6888547220733 77.1516026945319,145.74442736443598 76.9240663156379,144.96640975298942 61.542607109062374,124.73748412207351 51.485499166185036,113.95576562173665 50.84839730570093,114.23364817767288 61.26956345443614,125.29323587191175 76.46899355808273,145.57770941709168 77.24261724599637,145.46656408481067 76.51450083381496,144.41068207187345 60.76898342114873,123.95943053014344 51.348977339221165,113.7890360065212 50.89390458143316,114.17807168001309 61.224056178703904,125.12651041831123 76.51450083381496,145.74442736443598 77.0150808673352,145.13312792472425 61.04202707577497,124.12615641212324 51.348977339221165,113.84461255176575 50.75738275400363,114.23364817767288 60.76898342114873,124.6819089097844 76.46899355808273,145.6888547220733 76.7875444884412,144.85526427111472 62.862318106228486,126.4603123330744 51.348977339221165,113.7890360065212 50.84839730570093,114.23364817767288 60.17738883639686,123.95943053014344 76.46899355808273,145.63328207298764 77.0150808673352,145.1887006351899 71.23565684584901,137.29730770734022 56.85535770584829,119.68011195128202" stroke="#4DD2FF" stroke-linecap="round" stroke-linejoin="round" stroke-width="0.5"><title>2025-01-23 11.4km</title><desc>1737585341000</desc></polyline><polyline fill="none" points="90.31965843401849,113.39999999996508 90.43438840820454,114.03052146869595 96.40034706215374,120.26560345015605 106.29580732958857,133.47091862710658 107.47178956412245,134.10139589520986 109.65165907226037,137.04360478991293 106.1523948617978,145.72994990079314 109.82375403353944,137.218735318369 97.08872690680437,120.47577238717349 90.60648336948361,113.54011600182275 90.17624596646056,113.61017397721298 96.22825210099109,120.09046255151043 106.20975984900724,133.3658389475022 107.52915455121547,134.10139589520986 109.7090240593534,137.14868311982718 106.00898239423987,145.79999999998836 109.82375403353944,137.18370922128088 96.8879494521534,120.23057527895435 90.26229344704188,113.5751449916279 96.37166456854902,120.23057527895435 106.32448982296046,133.5059451785055 107.44310707075056,133.99631644692272 109.73770655295812,137.14868311982718 106.06634738121647,145.72994990079314 109.82375403353944,137.218735318369 96.77321947796736,120.12549073985429 90.20492845994886,113.54011600182275 97.00267942610662,120.96616597342654 106.35317231656518,133.5059451785055 107.50047205772717,134.03134293406038 109.65165907226037,137.04360478991293 106.06634738121647,145.6598997846013 109.79507153993472,137.14868311982718 96.48639454273507,119.77520866392297 90.57780087587889,113.50508700782666 90.20492845994886,113.5751449916279 96.17088711389806,119.95034975543967 106.09502987470478,133.19070606242167 107.50047205772717,134.06636941674515 109.65165907226037,137.11365701418254 106.06634738121647,145.62487471997156 109.82375403353944,137.28878749976866 96.77321947796736,120.12549073985429 90.66384835646022,113.64520295834518 90.23361095343716,113.82034780012327 96.42902955552563,120.30063161707949 106.41053730354179,133.61102480671252 106.72604473226238,133.26075922930613 99.44069137610495,123.5932601680106" stroke="#4DD2FF" stroke-linecap="round" stroke-linejoin="round" stroke-width="0.5"><title>2025-01-18 14.0km</title><desc>1737153490000</desc></polyline><polyline fill="none" points="137.892022917571,127.94533882998076 133.8509475539904,131.09187077070237 132.9870427501155,132.32081092143926 132.09457910971832,133.33183800598636 131.00934332303586,134.22083273930184 129.7598942265031,134.98779968440067 128.95310709564365,136.28639536820992 127.60370207138476,137.62854324433283 125.79735566329327,138.92709085506067 119.79999999998836,143.8596133381143 124.07668576468132,140.46963011822663 125.80449537243112,138.95323586619634 127.4466284707014,137.80284631056566 129.0102247686009,136.2776800397478 129.80273248124286,134.97908419727173 131.07360070516006,134.20340157651663 131.99462318205042,133.4625732205095 132.97990304097766,132.3818215828578 133.87236668134574,131.10058673286403 139.14147201407468,126.96910125640716 139.83402379899053,126.58557569602999 139.78404583517113,126.36766252689267 140.52657558393548,126.08001612396765 143.83226090788958,123.36910969375458 144.40343763772398,122.63688577720313 146.03843102685641,121.4862330016258 146.72384310269263,120.41401711080835 148.20890260025044,119.49869810484961 148.88003525781096,118.56593236211484 150.42221242835512,117.57213113398029 150.70780079328688,116.70036426473234 151.8358748347091,115.93320060153928 152.19999999998254,115.34038666189008 151.75733803433832,115.94191841682186 150.7292199206422,116.63934018465807 150.40793301013764,117.53726066384843 148.9014543851663,118.52234487939859 148.23032172763487,119.4463938067347 146.64530630232184,120.44888617393735 146.0527104451321,121.45136444582022 144.41057734680362,122.60201778411283 143.81798148961389,123.3603927866061 141.89026002641185,124.92941890915972" stroke="#4DD2FF" stroke-linecap="round" stroke-linejoin="round" stroke-width="0.5"><title>2025-01-16 10.5km</title><desc>1736984045000</desc></polyline><polyline fill="none" points="159.00955749303102,113.39999999999418 159.23866582638584,114.51920925703598 168.63210749812424,124.20025502244243 184.66969083994627,145.57617367600324 185.2653725068085,145.74404342926573 185.1279075066559,145.01660738693317 170.19004416558892,125.43135598232038 159.4677741599735,113.73576306473115 158.91791415959597,113.39999999999418 158.78044915944338,114.07152588295867 168.54046416468918,124.14429580915021 184.66969083994627,145.74404342926573 185.17372917337343,145.18447734546498 170.05257916543633,125.26347877390799 159.23866582638584,113.51192104880465 158.78044915944338,114.01556543030892 168.63210749812424,124.20025502244243 184.6238691729959,145.74404342926573 185.03626417322084,144.96065072040074 170.3275091657415,125.6551921647042 159.3303091598209,113.62384207037394 158.73462749272585,114.01556543030892 168.49464249797165,124.14429580915021 184.6238691729959,145.6880868517328 185.2195508403238,145.74404342926573 185.0820858401712,145.0725640465971 171.15229916595854,126.60649471671786 159.28448749287054,113.51192104880465 158.78044915944338,114.01556543030892 168.44882083125412,124.08833658896037 184.6238691729959,145.79999999998836 185.2653725068085,145.79999999998836 185.1279075066559,145.0725640465971 169.09032416483387,123.97641812817892 159.37613082653843,113.73576306473115 158.68880582624115,113.95960497079068 168.5862858314067,124.31217342833406 184.53222583979368,145.74404342926573 185.31119417352602,145.63213026736048 184.85297750658356,144.6808672847692 169.22778916498646,124.14429580915021 159.4677741599735,113.73576306473115 158.78044915944338,113.56788156309631 158.8262708261609,114.18344676744891 168.44882083125412,124.08833658896037 173.44338250067085,130.9712692957546 174.2223508344032,130.69147730286932 171.38140749931335,127.11012467852561" stroke="#4DD2FF" stroke-linecap="round" stroke-linejoin="round" stroke-width="0.5"><title>2025-01-14 10.6km</title><desc>1736807801000</desc></polyline><polyline fill="none" points="22.662304969184333,173.59929144874332 20.23241117084399,175.4921955206446 19.22137144356384,176.78865643734025 18.503448275878327,177.38501515922326 17.8067654385668,177.79986845803796 17.39045496264589,178.5102953138121 16.438888160482747,179.45405566437694 15.436344565358013,180.15926947961634 14.18316507145937,181.2481795625281 11.80000000000291,183.12000256602187 13.949521437010844,181.455587839715 15.46183296185336,180.15408412668694 16.362422971025808,179.53183717478896 17.364966566165094,178.56215082298513 17.84924609940208,177.7843115325195 18.613897993971477,177.31760111514086 19.259604038277757,176.77309914112266 20.283387963820132,175.47145182402528 23.75405795201368,172.8058024322563 23.775298282431322,172.68651848660738 23.970709322136827,172.68651848660738 24.276570079979138,172.4635084712827 26.17545561819861,170.90240554182674 26.50680477253627,170.4719251950919 27.50085223549104,169.7717369874881 27.870433984528063,169.15971116291257 28.805008522365824,168.57361035943904 29.19158253572823,168.02899615993738 30.096420610992936,167.44287973359678 30.26209518816904,166.93974678391896 30.98851448802452,166.41067270877465 31.651212796656182,165.3888148818951 36.31134128753911,162.1104042878069 37.959590926984674,161.31670032727925 38.49909531929006,160.74605431320379 44.20000000001164,157.67999743398104 40.35550019667426,159.67218144549406 38.50334338535322,160.72011567556183 37.98507932346547,161.2803867188086 36.273108692796086,162.11559184650469 31.663956994903856,165.34731759718852 30.963026091529173,166.41067270877465 30.257847122076782,166.91381193403868 30.07093221451214,167.44287973359678 29.187334469650523,168.0082488140688 28.75403172938968,168.58398389536524 27.85768978628039,169.14415106922024 27.49235610332107,169.75099049394703 26.48556444211863,170.46155212078884 26.162711419950938,170.89203257276313 24.18311262621137,172.51018508309426 24.000445784724434,172.62428325141082 23.89424413269444,172.54130279579476 23.8730038022768,172.66058714970495 23.707329225129797,172.82136118304697 20.279139897727873,175.44552218900935 19.178890782757662,176.8249567729763 18.57566539925756,177.32278681463504 17.802517372489092,177.7946828168242 17.16105939427507,178.75920118006616 16.396407499691122,179.4747974144302 15.729461124967202,179.9362987312088 16.37941523535119,179.52665174519643 17.237524583702907,178.70734591163637 17.819509636814473,177.79986845803796 18.652130588699947,177.29167260811664 19.480503474507714,176.52418162612958" stroke="yellow" stroke-linecap="round" stroke-linejoin="round" stroke-width="0.5"><title>2025-01-01 21.1km</title><desc>1735687361000</desc></polyline><polyline fill="none" points="77.57256304990733,154.1999999999971 78.87552910274826,155.4048351743986 78.17832796921721,157.4222049045493 77.97259648720501,157.660364237061 77.45826778217452,157.4081955164511 77.21824771980755,157.63234551800997 76.95536860387074,158.89318101043318 77.73257642483804,160.71436305135285 78.40691850479925,161.34476539610478 79.13840821862686,162.63357704738155 78.15546891570557,164.9029706102301 78.07546222826932,166.12170023810177 78.21261654957198,167.11628596370429 78.81838146882365,168.1668952026157 78.68122714746278,169.77781044250878 79.33271017385414,171.26263376431598 79.37842828105204,171.9490077782175 78.86409957596334,173.47582485280873 78.25833465671167,174.06413419639284 76.56676469341619,174.73648399064405 74.62374514102703,174.8905635898409 73.5265105701983,175.43684411628783 73.17219524004031,175.81503678372246 73.14933618652867,176.68347442683444 74.52087940002093,178.85453940902516 74.74946993560297,179.55487407621695 74.80661756946938,180.40927650749654 74.41801365895662,181.12360802080366 73.34363814175595,181.86594776227867 71.8235110801761,182.13206837197504 70.74913556291722,182.63629518138623 67.5831566452398,183.14051974678296 64.31431198643986,186.59999999999854 58.016642731265165,181.9359795622804 58.71384386479622,180.75943957679556 66.16589532460785,171.136564615721 58.473823802371044,165.28119844986213 58.05093131167814,165.56136640563636 48.96445752232103,177.15971159824403 48.62157171900617,176.99162811932183 57.90234746347414,165.01503824997053 57.628038820810616,164.5387500153738 53.93630167120136,161.59692535151407 54.0048788319109,161.28872977420542 54.35919416206889,161.24670303961466 54.75922759930836,161.4848543295011 62.75989634450525,167.83070130644046 63.41137937089661,167.69062022181606 64.18858719186392,166.69603953952173" stroke="#4DD2FF" stroke-linecap="round" stroke-linejoin="round" stroke-width="0.5"><title>2024-12-28 10.1km</title><desc>1735347410000</desc></polyline><polyline fill="none" points="101.29613679545582,169.52476257855596 97.35642811906291,172.5892084497682 96.52197593412711,173.78321963016788 95.70120329322526,174.71002511359984 94.63419886000338,175.57837199752248 93.48511716275243,176.271371689254 92.76694110195967,177.46531852840417 91.31690943634021,178.8930177811344 89.69588347052922,180.04517437713366 88.12957568079582,181.4227274193181 83.79999999998836,184.8372694905338 87.5550348321558,181.91530025249085 89.81215959467227,179.96168542153464 91.18011399620445,179.03495116450358 92.73274224193301,177.53211214100884 93.47143761874759,176.29641973928665 94.59999999997672,175.60342030159518 95.73540215325193,174.68497648202174 96.60405319821439,173.72477201612492 97.36326789105078,172.60590805074025 103.04711842938559,168.23882336903625 103.04711842938559,168.03841507834295 103.30018999366439,168.0634661468357 103.7789740341832,167.76285271867528 106.93210892970092,165.16583163596806 107.55452818240155,164.3975621021964 109.08663711207919,163.33700191798562 109.68169727677014,162.35158478392987 111.19328689042595,161.39955811837717 111.82938568713143,160.51432843572547 113.26573780871695,159.58733033778844 113.55984800509759,158.73548315449443 114.68157061430975,157.9504381072402 115.59126029131585,156.43878339617368 116.19999999998254,155.9627305094691 115.7554148195195,156.24669227985578 114.73628879035823,157.83351573236723 113.51196960100788,158.7438346490526 113.26573780871695,159.5539247660272 111.77466751108295,160.53103098876454 111.18644711840898,161.36615343300218 109.62013932867558,162.3766379380104 109.08663711207919,163.31194911611965 107.47245091831428,164.44766690039978 106.9115896136791,165.15748092663125 103.72425585813471,167.77120310953615 102.73248891704134,168.40582982885098" stroke="#4DD2FF" stroke-linecap="round" stroke-linejoin="round" stroke-width="0.5"><title>2024-12-24 11.5km</title><desc>1734996352000</desc></polyline><polyline fill="none" points="141.82025586350937,165.0563401301697 136.96716417907737,168.84094758822903 135.0155650319648,171.37095467649488 133.78070362471044,172.43564380966563 132.03635394453886,173.53194364151568 131.09509594878182,175.08149752659665 129.16076759062707,176.97887254353554 127.3559701492195,178.20160322287848 124.49765458417824,180.6786338180027 119.8259061833669,184.3360766396072 124.22995735605946,180.9210627792345 127.2091684434854,178.3597136833996 129.22985074625467,176.94724996852892 131.12963752663927,175.08149752659665 132.1399786780239,173.45815466704516 133.4784648187051,172.6991786950457 134.89466950958013,171.53961917749257 137.0621535181126,168.78823831817135 142.98603411510703,164.13915399362304 144.19498933898285,163.36955350310745 144.1604477611836,163.13761776208412 144.54904051168705,163.1059901126937 145.04989339015447,162.76862779776275 149.0049040511367,159.53199102781946 149.721641791024,158.60420303936553 151.80277185497107,157.13869940453878 152.19999999998254,156.45338340337184 151.69914712148602,157.19141579444113 149.73891257995274,158.5514875130757 149.03081023451523,159.46873307292844 145.10170575688244,162.72645741559973 144.59221748399432,163.0743624517345 144.46268656713073,162.95839426229213 144.28997867798898,163.26412824357976 143.0292110873561,164.065356983956 137.11396588484058,168.70390341908205 134.84285714285215,171.53961917749257 133.56481876331964,172.5832234446716 132.0018123666814,173.5530261940803 131.10373134328984,175.06041534755786 129.97249466949143,176.20938659422973 129.02260127931368,177.06319935362262 127.27825159911299,178.26484744183836 123.72046908314223,181.30051543810987 119.79999999998836,184.3466165966238 123.79818763327785,181.24781377972977 127.33006396587007,178.25430674190284 129.48891257989453,176.70480984161986 131.0778251599113,175.11312078548508 132.0708955223672,173.53194364151568 133.4698294242844,172.6886373150992 134.72196162046748,171.69774184765993 135.96545842214255,170.3273357437356 136.89808102344978,168.94636603174877 139.41098081017844,166.9855618950969" stroke="#4DD2FF" stroke-linecap="round" stroke-linejoin="round" stroke-width="0.5"><title>2024-12-21 15.0km</title><desc>1734737288000</desc></polyline><polyline fill="none" points="175.06445936555974,167.50274496116617 170.7209539244941,170.84545717765286 169.89576290803961,172.03597620281653 168.81551285015303,173.26310678789014 167.87029404949863,174.0415001018191 166.48997453111224,174.87482986530085 165.6047696225578,176.28505912586115 164.11942579297465,177.74104720990726 162.2890020837658,179.05049661236262 159.65589256767998,181.3030623395607 155.79999999998836,184.34300307357626 160.29354017131845,180.79028910057968 162.22148645517882,179.10543804527697 164.38948830743902,177.50296304251242 165.6047696225578,176.28505912586115 166.44496411204454,174.91145953239175 167.67524890016648,174.16970528392994 168.7855059041176,173.28142201756418 169.81324380642036,172.14586931317172 170.75096087052952,170.8179834384282 176.21972678857855,166.53195675921597 177.78758971981006,165.5062046156163 181.20087983328267,162.7127905307134 181.8310257003759,161.9068025161032 183.57142857139115,160.68864508352272 184.179069228936,159.65365365584148 185.82194952532882,158.6094885222774 186.60963185920264,157.57446836851886 188.07247047923738,156.64019010851916 188.19999999998254,156.45699692641938 186.54211623055744,157.5927874336121 185.87446168088354,158.54537264507235 184.14156054635532,159.64449437585426 183.50391294277506,160.70696338707057 181.77101180824684,161.91596151953127 181.163371150702,162.7036316246813 177.4275063671521,165.7534854348487 177.32248205598444,165.97328992233815 176.90238481128472,166.07403343029" stroke="#4DD2FF" stroke-linecap="round" stroke-linejoin="round" stroke-width="0.5"><title>2024-12-17 10.2km</title><desc>1734391788000</desc></polyline><polyline fill="none" points="27.543618831550702,211.59800264291698 24.015087918320205,214.32018439403691 22.60000000000582,216.13739766521758 21.668859897908987,216.9375526525946 20.511060691991588,217.65543981232986 19.733068633038783,218.88928869371375 18.415995462273713,220.13059034660182 17.09892229156685,221.04285623458782 15.438797504262766,222.4860031908138 11.799999999988358,225.3273329893782 18.955076573998667,219.65949690036723 19.837209302349947,218.76964383068116 20.52331253545708,217.64796186448075 21.656608054443495,216.94503068723498 22.403970504848985,216.33930691995192 23.14520703346352,215.53914411041478 24.106976744165877,214.2454007988199 28.290981281897984,210.96231089071807 29.846965399890905,209.92275367653565 32.56074872377212,207.68652397844926 33.0753261486243,207.03583309576788 34.48428814520594,206.04108538069704 34.980487804918084,205.18843160801407 36.34656834942871,204.32828637502098 36.95303460012656,203.50552744361266 38.19659671012778,202.7126765488174 38.47838910945575,201.94225498579908 39.470788428821834,201.23914334288565 40.38355076574953,199.79549516785846 44.20000000001164,197.07266701061963 40.457061826455174,199.6907732493528 39.47691435055458,201.18678364188236 38.46613726601936,201.91233550606194 38.20272263188963,202.6677978889893 36.91015314805554,203.51300712011653 36.309812819061335,204.32080679822684 34.998865570058115,205.143554764476 34.49041406693868,206.0111679056572 33.014066931355046,207.06575006974163 32.60975609754678,207.60425309961283 32.0400453772163,208.07543936257935" stroke="#4DD2FF" stroke-linecap="round" stroke-linejoin="round" stroke-width="0.5"><title>2024-12-14 12.1km</title><desc>1734132056000</desc></polyline><polyline fill="none" points="69.87206823023735,205.78782230566867 64.94989339014865,209.6462236308289 63.98272921104217,211.04827753523568 62.920575692958664,212.25001988784788 61.651172707846854,213.3147074598528 60.12270788906608,214.23180404236336 59.02601279315422,215.950016223891 57.221215351775754,217.6892759123366 55.30415778249153,219.02795494519523 53.05895522388164,220.99904295898887 47.79999999998836,225.17296306451317 53.836140724946745,220.3560726730866 55.23507462683483,219.0806584191887 57.61844349675812,217.34142677960335 59.15554371001781,215.79189996811328 60.03635394453886,214.31613427313277 61.53027718546218,213.39903858709295 62.782409381645266,212.38705961906817 63.97409381662146,211.06936087865324 65.10533049039077,209.49863768364594 71.19328358207713,204.73358427178027 73.20533049036749,203.39468339417363 76.90991471213056,200.33727275950514 78.02388059697114,201.92924837358441 77.02217484006542,200.2740148433004 77.7130063965742,199.37785604556848 79.77686567162164,197.91235276908264 80.19999999998254,197.2270369354883 79.70778251596494,197.93343932372227 77.73027718547382,199.32514053217892 77.0739872068225,200.1791278819801 72.62675906182267,203.85855691741017 70.8910447761009,204.9233480688199 65.04488272918388,209.5091795453991 63.956823027692735,211.02719418663037 62.76513859271654,212.3448935710985 61.52164179101237,213.35687303378654 59.98454157781089,214.30559299879678 59.02601279315422,215.87622867391474 57.592537313408684,217.30980406163872 55.39914712152677,218.92254790068546 52.26449893391691,221.59984692871512 47.817270788917085,225.09918340134027 52.4026652451721,221.526064210404 55.165991471207235,219.1439025454747 57.3248400852608,217.6154898498644 59.190085287817055,215.77081777874992 60.09680170574575,214.2739691680399 61.43528784645605,213.4728282558208 62.90330490402994,212.27110293759324 65.1312366737402,209.48809582063404 71.13283582087024,204.786296479484 72.98944562897668,203.5633649640149 77.0135394455865,200.2634718527479 77.73891257995274,199.346226741407 79.64733475475805,198.00724222449207" stroke="#4DD2FF" stroke-linecap="round" stroke-linejoin="round" stroke-width="0.5"><title>2024-12-07 17.1km</title><desc>1733527336000</desc></polyline><polyline fill="none" points="86.08554854028625,227.39169429026515 86.34397921257187,227.2588027964739 86.20796306926059,227.40000000000146 86.31677598389797,227.16743974360725 85.74550818200805,225.78867328682827 85.8135162536928,225.66408457663056 93.98128565892694,222.71541834496747 94.92659785487922,222.18381418311037 95.65428422152763,221.3864001325419 108.95666303639882,205.78510270813422 109.41231711642467,204.97918744933122 111.63618105940986,199.2378026882434 112.27545693295542,197.90001514944743 113.69682563043898,195.63153248653543 113.96205710989307,195.39886330733862 114.25449181799195,195.4570306769674 113.86004500239505,195.00000000000728 113.73763047342072,195.00830967615184 112.8807287706295,196.16334475556505 112.11903836816782,197.44300093658967 111.22133182236576,199.2211843713594 109.14028482986032,204.73824185289413 108.68463074980536,205.5773935057805 103.48201326851267,211.75854721703217 97.10965695485356,219.10208926850464 96.87162870407337,219.6171042497299 95.39585354930023,221.31164208492555 94.70217121840687,222.0093806601726 94.20571229537018,222.33332827450067 85.88832513251691,225.34015285984788" stroke="#4DD2FF" stroke-linecap="round" stroke-linejoin="round" stroke-width="0.5"><title>2024-11-30 11.9km</title><desc>1732919585000</desc></polyline><polyline fill="none" points="122.66541848517954,195.5071479944163 132.35490678297356,205.59364209632622 148.6424752078019,227.34365415229695 149.24230067408644,227.1182706929976 147.95036890078336,225.14616071872297 132.35490678297356,204.7484136405401 123.17296311026439,195.0 122.66541848517954,195.5071479944163 132.44718762417324,205.7626876013528 148.6424752078019,227.39999999999418 149.33458151482046,227.23096243635518 149.0577389919199,226.5548115617712 133.13929393095896,205.64999060492846 123.17296311026439,195.05634980462492 122.7576993261464,195.61984747307724 132.44718762417324,205.64999060492846 148.68861562828533,227.34365415229695 149.19616025337018,226.83654121358995 133.69297897676006,206.26982374390354 123.31138437171467,195.22539917757967 122.71155890566297,195.56349773719558 132.5394684651401,205.7626876013528 148.68861562828533,227.39999999999418 149.38072193530388,227.23096243635518 148.68861562828533,226.0476977546641 132.72403014684096,205.14285377960186 123.17296311026439,195.05634980462492 122.66541848517954,195.5071479944163 132.1703451012727,205.48094505848712 148.68861562828533,227.39999999999418 149.15001983288676,226.72384937369497 133.09315351047553,205.64999060492846 123.12682268978097,195.05634980462492 122.71155890566297,195.56349773719558 132.44718762417324,205.7626876013528 148.59633478731848,227.34365415229695 149.19616025337018,226.9492330259818 133.27771519240923,205.81903608920402 123.17296311026439,195.11269960255595 122.61927806469612,195.45079824488494 132.49332804442383,205.87538457012852 148.50405394635163,227.17461656813975 149.28844109433703,226.9492330259818 143.52088853600435,219.45516745062196" stroke="#4DD2FF" stroke-linecap="round" stroke-linejoin="round" stroke-width="0.5"><title>2024-11-26 10.9km</title><desc>1732619882000</desc></polyline><polyline fill="none" points="158.7346250587143,195.27932016996783 167.928902173182,204.99955563628464 184.6249775304459,227.28827981217182 184.89943356369622,226.28279689207557 170.9936612113379,207.84855095366947 159.14630910847336,194.9999999999709 159.19205178064294,196.17314356507268 168.43207156751305,205.66990907507716 184.6249775304459,227.17655959710828 184.9451762358658,226.39451732602902 169.5756383726839,206.11681082073483 160.56433194712736,196.3965991406585 159.19205178064294,195.16759212233592 158.96333841979504,195.78209604500444 168.43207156751305,205.55818357030512 184.6249775304459,227.17655959710828 185.21963226911612,227.12069947933196 184.9451762358658,226.45037753271754 169.43841035617515,206.00508542527677 159.32927979738452,194.9999999999709 159.14630910847336,196.17314356507268 168.5235569118522,205.7816345524334 184.6249775304459,227.28827981217182 184.99091890803538,226.45037753271754 169.80435173376463,206.34026152954902 159.2835371249821,194.9999999999709 158.87185307522304,195.55864016892156 168.38632889534347,205.61404632605263 184.5334921858739,227.12069947933196 185.12814692477696,226.56209792540176 169.20969699509442,205.66990907507716 159.32927979738452,195.11172808843548 158.78036773088388,195.6145041482814 168.5235569118522,205.7816345524334 184.85369089152664,227.39999999999418 184.6249775304459,225.94763542697183 169.39266768400557,205.94922271740506 159.32927979738452,195.05586404752103 159.2835371249821,196.17314356507268 168.29484355077147,205.5023208076309 184.48774951370433,227.12069947933196 184.9451762358658,226.39451732602902 169.6671237172559,206.17267350808834 159.2835371249821,195.11172808843548 158.91759574739262,195.5027761827223 168.5235569118522,205.7816345524334 184.48774951370433,227.00897922323202 185.2653749412857,226.95311908479198 184.9451762358658,226.3386571125884 168.3405862231739,204.66437854777905 159.32927979738452,195.16759212233592 159.23779445281252,196.00555181194795 168.47781423991546,205.66990907507716 184.5792348580435,227.17655959710828 185.17388959717937,227.00897922323202 184.89943356369622,226.3386571125884 169.43841035617515,205.94922271740506 159.32927979738452,195.27932016996783" stroke="#4DD2FF" stroke-linecap="round" stroke-linejoin="round" stroke-width="0.5"><title>2024-11-16 14.9km</title><desc>1731755814000</desc></polyline><polyline fill="none" points="14.619677894981578,236.30539017761475 24.551463375100866,246.6938427546993 40.73659526836127,268.14384946553037 41.05845868657343,267.30159062327584 24.689404839882627,245.85154454910662 15.493307173484936,236.13692684698617 14.849580336827785,235.91230897631613 14.895560825010762,236.58616225799778 24.413521910086274,246.4692300510942 40.644634291529655,268.14384946553037 41.19640015158802,267.5823437424842 38.20766840991564,263.4271800429851 25.33313167677261,246.6938427546993 15.447326685069129,236.08077238954138 14.803599848411977,236.47385344657232 24.781365816947073,246.91845534849563 40.46071233833209,267.9753978206427 41.24238064000383,267.63849434576696 25.195190211758018,246.52538323725457 15.355365708703175,235.91230897631613 14.849580336827785,236.3615446073818 24.781365816947073,246.8623022104439 40.644634291529655,268.031548375875 41.150419663405046,267.30159062327584 25.79293655999936,247.19922093607602 15.309385220054537,235.96846345430822 14.849580336827785,236.53000785576296 24.50548288691789,246.52538323725457 40.644634291529655,268.20000000001164 41.38032210501842,267.7507955316396 25.79293655999936,247.19922093607602 17.516448660055175,238.21463693710393 15.125463266624138,235.96846345430822 14.895560825010762,236.41769903039676 24.551463375100866,246.58153641669196 40.55267331493087,268.031548375875 41.28836112841964,267.7507955316396 27.034409745130688,248.8838108551281 15.171443755039945,235.85615449163015 14.849580336827785,236.47385344657232 24.50548288691789,246.58153641669196 40.78257575654425,268.20000000001164 41.334341616602615,267.69464494203567 25.01126825832762,246.24461723744753 15.125463266624138,235.80000000001746 15.125463266624138,236.64231665345142 24.45950239826925,246.52538323725457 40.59865380334668,268.14384946553037 41.28836112841964,268.031548375875 40.96649770997465,267.30159062327584 24.96528776991181,246.30077045108192 14.895560825010762,236.3615446073818 24.82734630489722,247.08691472164355 40.644634291529655,268.14384946553037 41.05845868657343,267.41389189168694 33.83952201833017,257.9804895738489" stroke="#4DD2FF" stroke-linecap="round" stroke-linejoin="round" stroke-width="0.5"><title>2024-11-10 14.3km</title><desc>1731237417000</desc></polyline><polyline fill="none" points="50.7346323619131,236.35960497098858 61.64018503180705,248.05519216498942 76.53222123999149,267.9761736759974 77.21954598813318,267.9202170779463 76.34893464064226,266.52129990031244 62.235866479808465,247.77539692015853 51.42195711005479,236.13576306478353 50.87209731154144,236.47152588301105 60.44882213510573,246.54429580946453 76.66968618961982,268.20000000001164 77.31118928780779,267.9761736759974 76.34893464064226,266.5772566696396 60.86121698375791,246.09662185661728 51.330313810613006,236.13576306478353 50.68881071219221,236.30364450480556 60.35717883519828,246.4883365892165 76.62386453989893,268.20000000001164 77.31118928780779,267.69639061702765 61.0903252332937,246.43237736233277 51.330313810613006,236.07980257101008 50.68881071219221,236.35960497098858 60.08224893617444,246.20854038593825 76.76132948952727,268.088086851727 77.12790268845856,267.41660738689825 61.18196853273548,246.4883365892165 51.19284886075184,235.85596052798792 50.963740611448884,236.52748632870498 60.540465434547514,246.4883365892165 76.71550783957355,268.03213026718004 77.2653676380869,267.69639061702765 76.66968618961982,266.74512693626457 61.68600668152794,247.0479284825269 51.330313810613006,235.91192104911897 50.78045401186682,236.13576306478353 62.602439678739756,249.11841253421153 76.62386453989893,267.9761736759974 77.17372433841228,267.7523472424364 76.1198263913393,266.07364549997146 61.869293281110004,247.32772417229717 51.28449216042645,235.80000000001746 50.826275661820546,236.52748632870498 61.31943348236382,247.495601504168 76.53222123999149,267.9761736759974 77.2653676380869,267.86426047288114 76.57804288994521,266.74512693626457 62.235866479808465,247.6075196910242 51.37613546010107,236.07980257101008 50.87209731154144,236.30364450480556 60.723752034362406,246.76813262153883 76.66968618961982,267.86426047288114 76.99043773883022,267.1927806795575 63.427229376742616,249.34224808670115" stroke="#4DD2FF" stroke-linecap="round" stroke-linejoin="round" stroke-width="0.5"><title>2024-10-26 12.9km</title><desc>1729940418000</desc></polyline><polyline fill="none" points="90.10477451386396,236.0462678404001 96.2694855883019,242.44915765646147 105.66058750532102,254.9027218062838 107.53304647642653,256.3802275250782 109.77999724203255,259.475929177308 106.1791146050673,268.1648228265112 109.86641842511017,259.5111074137385 96.38471383275464,242.06217385880882 90.27761688048486,235.87036226163036 96.35590677161235,242.55469860180165 106.46718521602452,255.95808380865492 107.56185353756882,256.45058475088445 109.77999724203255,259.6166420969821 106.15030754392501,268.20000000001164 109.89522548625246,259.65182031618315 96.64397738256957,242.2380756495404 90.22000275843311,235.97590562188998 96.29829264944419,242.55469860180165 106.35195697145537,255.8525477827352 107.47543235437479,256.3450489057577 109.72238311963156,259.4407509366865 106.12150048278272,268.12964564861613 109.80880430294201,259.475929177308 97.01846917672083,242.73060009122128 90.27761688048486,235.79999999998836 96.55755619925912,242.8713212053699 105.8334298718255,255.2193308135902 107.5906605985947,256.41540614012047 109.72238311963156,259.4055726916704 106.15030754392501,268.12964564861613 109.86641842511017,259.6166420969821 96.29829264944419,241.95663273264654 90.65210867475253,235.9407245060429 90.22000275843311,235.87036226163036 90.42165218596347,236.3277165426116 95.6357302442193,241.8159111709101 95.6357302442193,241.1474828120554 92.66860295145307,238.15712639156845" stroke="#4DD2FF" stroke-linecap="round" stroke-linejoin="round" stroke-width="0.5"><title>2024-10-19 10.6km</title><desc>1729335763000</desc></polyline></svg>