<?xml version="1.0" encoding="utf-8" ?>
<svg baseProfile="full" height="300mm" version="1.1" viewBox="0,0,200,300" width="200mm" xmlns="http://www.w3.org/2000/svg" xmlns:ev="http://www.w3.org/2001/xml-events" xmlns:xlink="http://www.w3.org/1999/xlink"><defs /><rect fill="#222222" height="300" width="200" x="0" y="0" /><text fill="#FFFFFF" style="font-size:12px; font-family:Arial; font-weight:bold;" x="10" y="20">Over 10km Runs</text><text fill="#FFFFFF" style="font-size:4px; font-family:Arial" x="10" y="280">Runner</text><text fill="#FFFFFF" style="font-size:9px; font-family:Arial" x="10" y="290">unsung</text><text fill="#FFFFFF" style="font-size:4px; font-family:Arial" x="65" y="280">SPECIAL TRACKS</text><rect fill="yellow" height="2.6" width="2.6" x="65" y="283" /><text fill="#FFFFFF" style="font-size:3px; font-family:Arial" x="70" y="285.5">Over 20.0 km</text><rect fill="red" height="2.6" width="2.6" x="65" y="287" /><text fill="#FFFFFF" style="font-size:3px; font-family:Arial" x="70" y="289.5">Over 40.0 km</text><text fill="#FFFFFF" style="font-size:4px; font-family:Arial" x="120" y="280">STATISTICS</text><text fill="#FFFFFF" style="font-size:3px; font-family:Arial" x="120" y="285">Number: 22</text><text fill="#FFFFFF" style="font-size:3px; font-family:Arial" x="120" y="290">Weekly: 1.5</text><text fill="#FFFFFF" style="font-size:3px; font-family:Arial" x="141" y="285">Total: 282.9 km</text><text fill="#FFFFFF" style="font-size:3px; font-family:Arial" x="141" y="290">Avg: 12.9 km</text><text fill="#FFFFFF" style="font-size:3px; font-family:Arial" x="167" y="285">Min: 10.0 km</text><text fill="#FFFFFF" style="font-size:3px; font-family:Arial" x="167" y="290">Max: 21.1 km</text><polyline fill="none" points="21.367424038122408,32.0 21.238579620723613,32.535001916170586 26.52120073174592,37.97936989553273 35.797998780268244,50.315314894600306 36.72567858523689,50.661468083184445 38.73565149575006,53.556549239961896 35.41146552830469,61.20318300841609 35.64338547945954,62.02132789362804 32.035741794039495,66.58401126804529 30.12884441728238,67.96853366828873 31.932666260167025,66.678410759283 35.669154362985864,62.05279495261493 35.51454106217716,61.20318300841609 38.83872702962253,53.556549239961896 26.675814032554626,37.79054981379886 21.161272970377468,32.28323644716875 26.650045149144717,38.1367198577791 35.797998780268244,50.283846399746835 36.77721635217313,50.69293653179193 38.76142037927639,53.556549239961896 35.540309945703484,60.95144559725304 35.566078829113394,62.14719610652537 31.958435143576935,66.678410759283 30.18038218433503,67.96853366828873 31.984204026986845,66.64694426607457 35.540309945703484,62.14719610652537 35.540309945703484,61.01437997305766 38.83872702962253,53.68242159465444 27.320036119315773,38.54582930912147 21.187041853787377,32.220295041421195 26.675814032554626,38.1996598157275 35.7206921299221,50.22090939860209 36.82875411910936,50.75587341748178 38.73565149575006,53.52508114161901 35.41146552830469,61.140248678653734 35.59184771263972,62.05279495261493 31.932666260167025,66.74134373420384 30.12884441728238,67.96853366828873 31.855359609704465,66.77281021597446 35.617616596166044,62.241597225889564 35.566078829113394,61.108781507995445 38.81295814609621,53.61948542500613 27.268498352263123,38.48288943586522 21.187041853787377,32.28323644716875 26.443894081399776,37.85348985643941 35.46300329535734,49.90622416199767 36.67414081818424,50.661468083184445 38.68411372881383,53.46214493358275 35.437234411831014,61.07731433358276 35.59184771263972,62.02132789362804 31.932666260167025,66.70987724873703 30.10307553387247,68.0 32.11304844438564,66.52107825470739 35.64338547945954,62.115729059121804 35.51454106217716,61.17171584549942 38.81295814609621,53.61948542500613 27.139653934980743,38.38847959716804 21.161272970377468,32.31470714422176 26.650045149144717,38.1996598157275 35.617616596166044,50.126503868057625 36.7514474686468,50.78734185450594 38.76142037927639,53.68242159465444 35.46300329535734,61.07731433358276 35.617616596166044,62.05279495261493 32.035741794039495,66.58401126804529 30.077306650346145,68.0 31.932666260167025,66.74134373420384 35.540309945703484,62.27306425792631 35.48877217876725,61.20318300841609 38.81295814609621,53.61948542500613" stroke="#4DD2FF" stroke-linecap="round" stroke-linejoin="round" stroke-width="0.5"><title>2025-03-01 15.0km</title><desc>1740782421000</desc></polyline><polyline fill="none" points="65.73031641729176,32.0385460970283 66.20375149312895,32.0 66.07750213949475,32.69382902656798 72.6424685230013,39.55494490606361 83.65772461844608,54.20177096416592 84.98334283044096,54.81846449134173 87.44520522432867,58.287343090749346 83.40522591129411,68.0 87.5398922393797,58.36442884799908 72.98965424520429,39.36221897159703 66.07750213949475,32.346914704248775 72.73715553816874,39.63203524678829 83.7524116334971,54.31740109244129 84.92021815374028,54.77992118129623 87.44520522432867,58.21025731446571 83.34210123459343,67.96145830236492 87.6030169161968,58.44151458644774 73.33683996740729,39.7862158716307 66.29843850817997,32.26982258076896 65.91969044762664,32.42400680886931 73.05277892202139,39.978941546636634 83.68928695668001,54.20177096416592 85.04646750714164,54.895551097317366 87.38208054739516,58.21025731446571 83.37366357294377,67.96145830236492 87.6030169161968,58.480057448672596 73.49465165939182,39.940396421123296 66.4562502001645,32.385460758872796 65.88812810915988,32.385460758872796 72.76871787663549,39.709125568624586 83.78397397184744,54.31740109244129 84.98334283044096,54.77992118129623 87.44520522432867,58.24880020497949 83.34210123459343,67.9229165999568 87.57145457773004,58.44151458644774 72.7055931998184,39.0153119925817" stroke="#4DD2FF" stroke-linecap="round" stroke-linejoin="round" stroke-width="0.5"><title>2025-02-25 10.0km</title><desc>1740436543000</desc></polyline><polyline fill="none" points="112.96978983981535,32.0 112.71702048624866,32.694572637963574 119.25742750812788,39.524455430946546 130.41087523137685,54.341319769911934 131.57993349130265,54.842920183436945 134.01283851871267,58.16117974935332 129.93693269358482,67.96141699058353 134.1076270263875,58.238348161103204 119.69977387669496,39.524455430946546 112.4958473019069,32.308699139073724 119.16263900056947,39.408695937803714 130.3792790620355,54.30273508958635 131.8011066756444,55.07442779763369 133.98124234948773,58.238348161103204 129.90533652435988,67.92283397639403 134.07603085704613,58.27693235996412 119.22583133878652,38.94565754066571 112.55903964024037,32.308699139073724 119.09944666211959,39.37010943074711 129.43139398656785,53.145192487485474 131.57993349130265,54.920089407183696 133.98124234948773,58.199763957527466 129.93693269358482,67.92283397639403 134.07603085704613,58.27693235996412 120.17371641448699,40.02607940978487 112.52744347101543,32.308699139073724 119.25742750812788,39.48586893794709 130.31608672381844,54.26415040469146 131.61152966041118,54.88150479763863 134.07603085704613,58.27693235996412 130.0001250319183,67.84566793389968 134.13922319549602,58.43126910785213 119.92094706103671,39.7559742895246 113.00138600880746,32.347286510135746 112.55903964024037,32.42446123837726 119.44700452324469,39.7559742895246 130.18970204691868,54.032642195757944 131.64312582963612,54.88150479763863 134.04443468805403,58.238348161103204 129.96852886280976,68.0 134.17081936460454,58.701358235121006 131.5167411529692,54.76575094106374" stroke="#4DD2FF" stroke-linecap="round" stroke-linejoin="round" stroke-width="0.5"><title>2025-02-22 12.0km</title><desc>1740177306000</desc></polyline><polyline fill="none" points="159.40837566694245,32.0 159.21839137398638,32.58005398398382 165.7411854325328,39.385941200191155 176.66528227820527,53.96396780668874 178.28014876844827,54.96932416816708 180.62328838172834,58.17870961729204 176.53862608294003,67.9226681967557 180.74994457699358,58.29471089085564 166.37446640909184,39.50194937107153 159.63002400868572,32.30936225721962 159.12339922750834,32.30936225721962 166.34280236030463,40.120658896281384 176.95025871763937,54.27330856610206 178.15349257318303,54.81465416678111 180.68661647941917,58.29471089085564 176.60195418063086,67.96133410077891 180.7182805283228,58.217376713233534 165.86784162779804,38.88323863467667 159.59835996001493,32.193351446214365 159.15506327629555,32.34803251817357 165.64619328617118,39.269932986819185 176.85526657104492,54.19597340471228 178.18515662208665,54.853321674250765 180.68661647941917,58.256043804460205 176.63361822941806,68.0 180.7182805283228,58.217376713233534 166.2794742626138,39.30860239607864 159.15506327629555,32.23202172134188 165.96283377427608,39.65662686584983 177.0135868153302,54.311976139841136 178.31181281723548,55.00799165671924 180.65495243051555,58.17870961729204 176.57029013172723,67.9226681967557 180.7816086258972,58.256043804460205 166.50112260435708,39.617957499285694 159.15506327629555,32.23202172134188 165.77284948132,39.42461059524794 176.88693061994854,54.157305816799635 178.15349257318303,54.81465416678111 180.68661647941917,58.29471089085564 176.60195418063086,67.9226681967557 180.74994457699358,58.14004251669394 166.12115401832853,39.153924730897415 159.21839137398638,32.193351446214365 165.55120113969315,39.153924730897415 176.91859466896858,54.11863822431769 178.21682067075744,54.81465416678111 180.62328838172834,58.217376713233534 176.63361822941806,68.0 180.87660077237524,58.44937918934738 168.84426221763715,42.672822885244386" stroke="#4DD2FF" stroke-linecap="round" stroke-linejoin="round" stroke-width="0.5"><title>2025-02-05 15.0km</title><desc>1738709514000</desc></polyline><polyline fill="none" points="19.42868427291978,72.0 19.365288076689467,72.73552485884284 25.831700095557608,79.54872648222954 36.862638245220296,94.21983868346433 38.22565646492876,94.87789373900159 40.66641002101824,98.28427450175514 36.6407515584724,108.0 40.82490051176865,98.3616918202024 26.37056776380632,79.51001552381786 19.68226905807387,72.27098304167157 19.111703291768208,72.23227119274088 25.990190586308017,79.62614838476293 36.76754395093303,94.02629281848203 38.19395836698823,94.83918465586612 40.66641002101824,98.32298316329252 36.6407515584724,107.96129252217361 40.7932024137117,98.28427450175514 26.18037917499896,79.2390386821935 19.143401389825158,72.27098304167157 26.02188868424855,79.66485932903015 36.73584585287608,93.94887443934567 38.16226026869845,94.80047556807403 40.66641002101824,98.20685716436128 36.57735536212567,107.92258503951598 40.82490051176865,98.9036125189159 40.69810811930802,98.16814848850481 26.49736015626695,79.5874374358682 19.650570959900506,72.23227119274088 19.143401389825158,72.34840672527207 25.800001997500658,79.43259359276271 36.92603444168344,94.25854784218245 38.28905266127549,94.91660281721852 40.69810811930802,98.24556583547383 36.60905346041545,107.96129252217361 40.76150431542192,98.20685716436128 26.11698297865223,79.12290567907621 19.650570959900506,72.23227119274088 19.143401389825158,72.38711855991278 25.895096291904338,79.54872648222954 36.76754395093303,93.98758363124216 38.19395836698823,94.83918465586612 40.63471192296129,98.16814848850481 36.60905346041545,107.92258503951598 40.88829670811538,98.63265228556702 37.55999640421942,94.25854784218245" stroke="#4DD2FF" stroke-linecap="round" stroke-linejoin="round" stroke-width="0.5"><title>2025-02-04 12.0km</title><desc>1738622138000</desc></polyline><polyline fill="none" points="62.357156622223556,72.0 62.357156622223556,73.23503395926673 72.57101184828207,83.91795156907756 90.62223123270087,108.0 91.27955854940228,107.9382526272093 91.02674035052769,107.13553609297378 73.1777755250223,83.73270058905473 62.50884754140861,72.43226222950034 62.00321114435792,72.92627575300867 72.77326640719548,84.10320248093922 90.67279487266205,108.0 91.07730399048887,107.25903102749726 73.0766482455656,83.54744954121998 62.711102100554854,72.55576565588126 62.15490206354298,72.92627575300867 72.72270276746713,84.04145218455233 90.62223123270087,107.87650524679339 91.27955854940228,107.9382526272093 91.02674035052769,107.07378861447796 73.93623012118042,84.59720458008815 62.761665740050375,72.6175173575175 62.05377478385344,72.92627575300867 73.63284828257747,85.21470652439166 90.521103953477,107.7530104634352 91.38068582885899,107.62951564980904 90.57166759297252,106.4563134132186 73.0766482455656,83.73270058905473 62.60997482109815,72.43226222950034 62.104338423581794,72.86452408891637 73.58228464308195,85.02945602039108 90.57166759297252,107.9382526272093 91.12786763021722,107.25903102749726 73.38003008416854,83.91795156907756 62.60997482109815,72.4940139464452 61.95264750439674,72.92627575300867 73.0766482455656,84.53545434423722 90.521103953477,107.87650524679339 90.87504943157546,106.95029363461072 75.40257567330264,86.51145814789925 62.60997482109815,72.43226222950034 62.05377478385344,72.92627575300867 72.41932092909701,83.73270058905473 90.521103953477,107.8147578589269 91.12786763021722,107.32077848358313 84.70628538401797,98.55256411927985 68.72817522846162,78.977902168117" stroke="#4DD2FF" stroke-linecap="round" stroke-linejoin="round" stroke-width="0.5"><title>2025-01-23 11.4km</title><desc>1737585341000</desc></polyline><polyline fill="none" points="112.57739826012403,72.0 112.70487600925844,72.70057940969127 119.33371895807795,79.6284482779738 130.3286748107057,94.30102069681743 131.63532173796557,95.00155099469703 134.05739896930754,98.27067198883742 130.169327624375,107.92216655646916 134.24861559283454,98.46526146488031 120.09858545218594,79.861969319114 112.89609263278544,72.15568444650853 112.41805107390974,72.23352664135746 119.14250233455095,79.4338472794916 130.233066498884,94.1842654972279 131.69906061247457,95.00155099469703 134.12113784381654,98.38742568870657 130.0099804381607,108.0 134.24861559283454,98.42634357922361 119.87549939134624,79.58952808775939 112.51365938573144,72.19460554630496 119.30184952076524,79.58952808775939 130.36054424778558,94.33993908725097 131.6034523008857,94.88479605215252 134.15300728112925,98.38742568870657 130.0737193125533,107.92216655646916 134.24861559283454,98.46526146488031 119.74802164221182,79.47276748873992 112.44992051110603,72.15568444650853 120.00297714024782,80.40685108161415 130.3924136850983,94.33993908725097 131.66719117527828,94.92371437119436 134.05739896930754,98.27067198883742 130.0737193125533,107.84433309404994 134.21674615563825,98.38742568870657 119.42932726978324,79.08356518216897 112.86422319547273,72.11676334205549 112.44992051110603,72.19460554630496 119.07876345992554,79.27816639494267 130.1055887497496,93.98967340271338 131.66719117527828,94.96263268528855 134.05739896930754,98.34850779356202 130.0737193125533,107.80541635554982 134.24861559283454,98.54309722199105 119.74802164221182,79.47276748873992 112.95983150717802,72.27244773152051 112.48178994830232,72.46705311126425 119.36558839515783,79.6673684634734 130.45615255949087,94.45669422970968 130.80671636934858,94.06751025482663 122.7118793069385,83.325844631152" stroke="#4DD2FF" stroke-linecap="round" stroke-linejoin="round" stroke-width="0.5"><title>2025-01-18 14.0km</title><desc>1737153490000</desc></polyline><polyline fill="none" points="172.10224768618355,88.16148758886993 167.6121639488847,91.65763418967254 166.65226972236997,93.02312324605009 165.6606434552814,94.14648667331494 164.4548259145231,95.13425859922427 163.06654914058163,95.98644409378176 162.17011899515637,97.42932818690315 160.67078007932287,98.92060360481264 158.66372851477354,100.36343428340479 152.0,105.84401482012618 156.75187307188753,102.07736679803202 158.6716615249461,100.39248429577856 160.49625385634135,99.11427367840952 162.23358307624585,97.41964448861108 163.1141472014133,95.97676021919324 164.52622300575604,95.11489064057969 165.54958131338935,94.29174802279158 166.6443367121974,93.09091286984767 167.63596297928598,91.66731859207357 173.4905244600959,87.07677917378896 174.2600264433422,86.65063966226444 174.2044953724253,86.4085139187664 175.02952842661762,86.08890680440527 178.7025121198967,83.07678854862024 179.3371529308206,82.26320641911298 181.1538122521015,80.98470333513978 181.91538122523343,79.79335234533937 183.56544733364717,78.77633122761472 184.3111502864631,77.73992484679184 186.0246804759663,76.63570125997649 186.3420008814428,75.66707140525978 187.59541648300365,74.81466733504931 188.0,74.15598517987382 187.5081533715129,74.82435379647359 186.36579991184408,75.59926687184634 186.0088144557085,76.59695629317139 184.33494931689347,77.69149431044934 183.58924636404845,78.71821534082119 181.82811811371357,79.83209574881766 181.1696782723884,80.94596049535903 179.34508594090585,82.22446420456981 178.6866460996098,83.06710309623304 176.54473336270894,84.81046545462596" stroke="#4DD2FF" stroke-linecap="round" stroke-linejoin="round" stroke-width="0.5"><title>2025-01-16 10.5km</title><desc>1736984045000</desc></polyline><polyline fill="none" points="15.566174992360175,112.0 15.82073980732821,113.24356584111229 26.257897220319137,124.00028335826937 44.07743426668458,147.7513040844351 44.73930278560147,147.93782603251748 44.586563896387815,147.12956376327202 27.988937962101772,125.36817331367638 16.075304622296244,112.37307007191703 15.46434906637296,112.0 15.31161017739214,112.74613986996701 26.156071294331923,123.93810645461781 44.07743426668458,147.93782603251748 44.63747685961425,147.316085939412 27.83619907288812,125.18164308211999 15.82073980732821,112.12435672088759 15.31161017739214,112.6839615892386 26.257897220319137,124.00028335826937 44.02652130369097,147.93782603251748 44.48473797063343,147.06738968932768 28.141676851082593,125.61688018299174 15.922565733315423,112.2487134115654 15.260697214398533,112.6839615892386 26.105158331338316,123.93810645461781 44.02652130369097,147.87565205746796 44.68838982260786,147.93782603251748 44.53565093362704,147.19173782953294 29.058110184501857,126.67388301854953 15.871652770321816,112.12435672088759 15.31161017739214,112.6839615892386 26.05424536834471,123.87592954328284 44.02652130369097,148.0 44.73930278560147,148.0 44.586563896387815,147.19173782953294 26.767026850022376,123.75157569797011 15.97347869654186,112.37307007191703 15.209784251404926,112.621783300885 26.20698425732553,124.12463714258047 43.924695377703756,147.93782603251748 44.790215748595074,147.81347807485145 44.281086118659005,146.75651920528617 26.919765739003196,123.93810645461781 16.075304622296244,112.37307007191703 15.31161017739214,112.18653507012641 15.362523140618578,112.87049640825717 26.05424536834471,123.87592954328284 31.603758334182203,131.52363255084492 32.46927870507352,131.21275255875662 29.31267499946989,127.23347186500905" stroke="#4DD2FF" stroke-linecap="round" stroke-linejoin="round" stroke-width="0.5"><title>2025-01-14 10.6km</title><desc>1736807801000</desc></polyline><polyline fill="none" points="70.73589441020158,133.55476827637904 68.03601241204888,135.65799502293885 66.91263493729639,137.09850715259745 66.114942528744,137.7611279546909 65.34085048729321,138.222076064485 64.8782832918223,139.01143923756536 63.8209868449776,140.06006184930447 62.70704951704829,140.84363275512806 61.31462785718031,142.0535328472506 58.666666666656965,144.13333618446632 61.055023818888,142.2839864885682 62.735369957605144,140.83787125187155 63.73602552336524,140.1464857497631 64.84996285126545,139.06905646997984 65.38805122155463,138.2047905916843 66.23766443773638,137.68622346126358 66.95511559807346,137.08122126791204 68.09265329313348,135.6349464711384 71.94895328002167,132.6731138136165 71.97255364712328,132.5405760962276 72.18967702460941,132.5405760962276 72.52952231108793,132.29278719031208 74.63939513132209,130.55822837980668 75.00756085835746,130.079916883431 76.11205803943449,129.30192998609346 76.52270442724694,128.62190129212104 77.56112058038707,127.97067817715288 77.99064726190409,127.3655512888181 78.99602290109033,126.71431081510673 79.18010576462257,126.15527420434955 79.98723832002725,125.5674141208583 80.72356977403979,124.4320165354402 85.90149031949113,120.78933809755836 87.73287880775752,119.9074448080828 88.33232813252835,119.27339368133471 94.66666666665697,115.86666381553005 90.39500021853019,118.08020160610249 88.33704820592538,119.24457297284243 87.76119924828527,119.86709635422812 85.85900965865585,120.79510205167026 80.73772999431822,124.38590844131977 79.95891787947039,125.5674141208583 79.17538569119642,126.1264577044858 78.96770246056258,126.71431081510673 77.98592718850705,127.34249868229381 77.50447969930246,127.98220432818198 76.50854420696851,128.604612299132 76.1026178925822,129.27887832660417 74.98396049122675,130.06839124532053 74.62523491104366,130.54670285862085 72.425680695771,132.34465009232372 72.2227175385633,132.47142583489767 72.10471570296795,132.3792253286556 72.08111533586634,132.51176349967136 71.89703247236321,132.69040131449583 68.08793321970734,135.60613576556352 66.86543420303497,137.13884085886093 66.19518377693021,137.69198534958923 65.33613041386707,138.21631424091538 64.62339932695613,139.2880013111826 63.77378611074528,140.08310823825377 63.03273458327749,140.59588747911766 63.75490581704071,140.14072416132694 64.70836064856849,139.23038434625778 65.35501070757164,138.222076064485 66.28014509854256,137.6574140090197 67.20055941611645,136.80464625125387" stroke="yellow" stroke-linecap="round" stroke-linejoin="round" stroke-width="0.5"><title>2025-01-01 21.1km</title><desc>1735687361000</desc></polyline><polyline fill="none" points="138.41395894432208,112.0 139.86169900296954,113.33870574933826 139.08703107683687,115.58022767172952 138.85844054125482,115.84484915228677 138.28696420235792,115.56466168495535 138.02027524414007,115.813717242243 137.72818733757595,117.21464556714636 138.59175158309517,119.23818116816983 139.34102056082338,119.9386282179039 140.15378690953366,121.3706411637686 139.0616321284906,123.89218956693367 138.97273580910405,125.24633359789732 139.12512949947268,126.35142884856032 139.79820163198747,127.51877244735078 139.64580794156063,129.30867826945905 140.36967797088437,130.95848196034785 140.42047586775152,131.72111975357984 139.8489995287964,133.41758316979394 139.17592739628162,134.0712602182175 137.29640521481633,134.81831554516975 135.13749460107647,134.98951509983453 133.91834507789463,135.59649346255173 133.52466137777083,136.0167075374775 133.49926242942456,136.98163825203665 135.02319933328545,139.39393267669948 135.27718881721376,140.17208230691904 135.34068618819583,141.1214183416596 134.90890406543622,141.91512002311356 133.71515349077526,142.73994195809064 132.02612342237262,143.03563152442803 130.83237284765346,143.59588353488653 127.31461849459447,144.15613305199076 123.68256887374446,148.0 116.68515859020408,142.8177550692053 117.45982651633676,141.51048841867305 125.73988369392464,130.8184051285789 117.1931375581189,124.3124427220755 116.7232570128981,124.62374045071192 106.6271750247688,137.5107906647172 106.24619079887634,137.3240312436974 116.55816384823993,124.01670916663716 116.25337646750268,123.48750001708686 112.15144630131545,120.21880594613322 112.22764314647065,119.87636641578865 112.62132684665266,119.82967004402599 113.06580844358541,120.09428258833941 121.955440382706,127.14522367382597 122.67931041202974,126.98957802425139 123.54287465754896,125.88448837725446" stroke="#4DD2FF" stroke-linecap="round" stroke-linejoin="round" stroke-width="0.5"><title>2024-12-28 10.1km</title><desc>1735347410000</desc></polyline><polyline fill="none" points="171.44015199496062,129.02751397617976 167.06269791009254,132.43245383307658 166.1355288157065,133.75913292240875 165.22355921467533,134.78891679289518 164.03799873334356,135.75374666391872 162.76124129194068,136.5237463213998 161.9632678910566,137.85035392045393 160.35212159593357,139.43668642348348 158.55098163391813,140.71686041904468 156.81063964532223,142.2474749103567 152.0,146.04141054503998 156.1722609246208,142.7947780583345 158.680177327391,140.62409491282597 160.20012666244293,139.594390182785 161.92526915768394,137.92456904557184 162.7460417985858,136.5515774880987 164.0,135.78157811288838 165.2615579480771,134.76108498003305 166.2267257757776,133.69419112903415 167.07029765672632,132.45100894527422 173.3856871437747,127.59869263227301 173.3856871437747,127.37601675371843 173.6668777707382,127.40385127426998 174.19886003798456,127.06983635409415 177.70234325522324,124.18425737330836 178.39392020268133,123.33062455800246 180.09626345787547,122.15222435332544 180.75744141862378,121.05731642659521 182.43698543382925,119.99950902042474 183.14376187458402,119.01592048414022 184.73970867635217,117.98592259754514 185.06649778343854,117.03942572722735 186.31285623813164,116.16715345249395 187.3236225458968,114.48753710686287 188.0,113.9585894549673 187.5060164661263,114.27410253318521 186.37365421149298,116.03723970263673 185.0132995566819,117.04870516562369 184.73970867635217,117.94880529559305 183.08296390119358,119.03447887641232 182.42938568710815,119.96239270333899 180.68904369854135,121.08515326445922 180.09626345787547,122.12438790680608 178.30272324255202,123.38629655601108 177.67954401517636,124.17497880737938 174.13806206459412,127.07911456615693 173.03609879669966,127.78425536539726" stroke="#4DD2FF" stroke-linecap="round" stroke-linejoin="round" stroke-width="0.5"><title>2024-12-24 11.5km</title><desc>1734996352000</desc></polyline><polyline fill="none" points="36.466950959467795,164.0626001446435 31.07462686568033,168.26771954248397 28.906183368875645,171.0788385294436 27.53411513858009,172.26182645519293 25.595948827278335,173.47993737946672 24.55010660982225,175.20166391844396 22.400852878461592,177.3098583817191 20.39552238804754,178.6684480254262 17.21961620467482,181.42070424223493 12.028784648224246,185.4845295995765 16.922174840059597,181.69006975471711 20.232409381656907,178.84412631489977 22.4776119402959,177.27472218726325 24.58848614076851,175.20166391844396 25.711087420058902,173.39794963005988 27.19829424301861,172.5546429945025 28.771855010651052,171.26624353055377 31.180170575680677,168.20915368686838 37.76226012792904,163.0435044373662 39.10554371000035,162.18839278123778 39.0671641791123,161.93068640232377 39.498933901893906,161.89554456967016 40.055437100178096,161.52069755307457 44.44989339017775,157.9244344753679 45.24626865668688,156.89355893263564 47.55863539443817,155.26522156060673 48.0,154.5037593370871 47.4434968016576,155.32379532716732 45.26545842218911,156.83498612565018 44.47867803834379,157.85414785882313 40.11300639656838,161.47384157289343 39.54690831556218,161.86040272415994 39.40298507461557,161.73154918033106 39.211087420000695,162.0712536039864 37.8102345415391,162.96150775996648 31.23773987207096,168.11544824343582 28.714285714318976,171.26624353055377 27.29424307035515,172.42580382742017 25.557569296332076,173.5033624378775 24.559701492544264,175.17823927506834 23.302771855029278,176.45487399359263 22.247334754792973,177.4035548373722 20.309168443491217,178.73871937982767 16.356076759111602,182.11168382012693 12.0,185.49624066292017 16.442430703667924,182.05312642193167 20.3667377398815,178.72700749101205 22.765458422130905,177.00534426848026 24.530916844378226,175.2368008727717 25.634328358224593,173.47993737946672 27.188699360354804,172.54293035012233 28.579957356094383,171.4419353862977 29.96162046905374,169.91926193749532 30.99786780384602,168.3848511463948 33.789978677988984,166.20617988344748" stroke="#4DD2FF" stroke-linecap="round" stroke-linejoin="round" stroke-width="0.5"><title>2024-12-21 15.0km</title><desc>1734737288000</desc></polyline><polyline fill="none" points="80.07162151730154,166.78082773463393 75.2455043605587,170.49495241961995 74.32862545337412,171.8177513364717 73.12834761128761,173.18122976432642 72.07810449943645,174.0461112242483 70.5444161456835,174.97203318367247 69.56085513616563,176.5389545842918 67.91047310328577,178.15671912211837 65.87666898197494,179.61166290262918 62.95099174184725,182.1145137106214 58.666666666656965,185.49222563731018 63.659489079233026,181.5447656673132 65.80165161687182,179.67270893920067 68.21054256384377,177.89218115835683 69.56085513616563,176.5389545842918 70.49440456891898,175.01273281377507 71.86138766683871,174.18856142659206 73.09500656012096,173.20158001952223 74.23693756267312,171.93985479241383 75.27884541169624,170.46442604270123 81.3552519873192,165.7021741769131 83.09732191090006,164.5624495729062 86.88986648141872,161.4586561452379 87.59002855597646,160.56311390678457 89.52380952375825,159.20960564835696 90.19896580994828,158.05961517315882 92.0243883614894,156.89943169142498 92.8995909546502,155.74940929836157 94.52496719916235,154.71132234280958 94.66666666665697,154.50777436268982 92.82457358951797,155.7697638151294 92.08273520099465,156.82819182786625 90.15728949595359,158.04943819539767 89.44879215862602,159.2299593189673 87.52334645361407,160.5732905772602 86.84819016742404,161.44847958298487 82.69722929684212,164.83720603871916 82.58053561777342,165.08143324704724 82.1137609014113,165.19337047810404" stroke="#4DD2FF" stroke-linecap="round" stroke-linejoin="round" stroke-width="0.5"><title>2024-12-17 10.2km</title><desc>1734391788000</desc></polyline><polyline fill="none" points="122.82624314617715,170.44222515879665 118.90565324260388,173.46687154893152 117.33333333334303,175.48599740579812 116.29873321991181,176.3750585028829 115.01228965778137,177.17271090258873 114.14785403670976,178.5436541041272 112.68443940253928,179.92287816289172 111.22102476842701,180.936506927319 109.37644167142571,182.54000354534946 105.33333333334303,185.69703665486304 113.28341841557994,179.39944100040884 114.26356589150964,178.41071536742675 115.0259028172004,177.1644020716485 116.28512006052188,176.38336743026593 117.1155227831623,175.710341022168 117.93911892609322,174.82127123379178 119.00775193798472,173.3837786653603 123.65664586878847,169.73590098968998 125.385517111019,168.58083741837618 128.40083191532176,166.09613775383332 128.97258460961166,165.37314788418735 130.53809793913388,164.26787264522136 131.08943089435343,163.3204795644633 132.60729816605453,162.36476263891382 133.28114955572528,161.45058604846417 134.66288523349795,160.56964060979954 134.9759878994373,159.71361665089353 136.0786538098182,158.93238149209355 137.09283418417908,157.32832796428556 141.33333333334303,154.30296334513696 137.17451314051868,157.21197027705784 136.08546038949862,158.87420404653676 134.96237474004738,159.68037278451084 134.66969181320746,160.5197754322071 133.23350349784596,161.45889680013352 132.56645868788473,162.35645199803548 131.10985063342378,163.27061640497413 130.5449045188434,164.23463100628578 128.9045188126329,165.4063889663812 128.4552845528524,166.00472566623648 127.82227264135145,166.52826595842635" stroke="#4DD2FF" stroke-linecap="round" stroke-linejoin="round" stroke-width="0.5"><title>2024-12-14 12.1km</title><desc>1734132056000</desc></polyline><polyline fill="none" points="176.52452025585808,163.98646922851913 171.0554371001781,168.27358181203454 169.98081023455597,169.83141948359116 168.8006396588753,171.16668876427866 167.39019189763349,172.34967495538876 165.69189765455667,173.36867115818313 164.47334754798794,175.27779580432252 162.4680170575739,177.2103065692645 160.33795309165725,178.69772771687713 157.84328358212952,180.88782550999167 152.0,185.52551451612817 158.70682302775094,180.1734140812041 160.26119402988115,178.75628713242622 162.9093816630775,176.8238075328918 164.61727078893455,175.10211107568466 165.59594882727833,173.4623714145855 167.2558635394089,172.443376207877 168.64712153520668,171.31895513229392 169.97121535183396,169.85484542071936 171.22814498934895,168.10959742627165 177.99253731343197,162.81509363531222 180.22814498934895,161.32742599352787 184.3443496801774,157.93030306611763 185.58208955219015,159.6991648595358 184.46908315562177,157.86001649255195 185.23667377396487,156.86428449507366 187.52985074627213,155.2359475211997 188.0,154.47448548387183 187.45309168443782,155.25937702635565 185.2558635394089,156.80571170242183 184.52665245201206,157.75458653553505 179.58528784650844,161.84284101934463 177.6567164179287,163.02594229868555 171.16098081023665,168.12131060599495 169.95202558633173,169.80799354069313 168.62793176970445,171.27210396788723 167.24626865668688,172.39652559309616 165.53837953088805,173.45065888755198 164.47334754798794,175.19580963768385 162.88059701491147,176.78867117959453 160.4434968017158,178.5806087785386 156.96055437100586,181.55538547634933 152.01918976550223,185.44353711259464 157.11407249467447,181.47340467823233 160.18443496804684,178.82655838385836 162.58315565029625,177.12832205540326 164.6556503198226,175.07868642082758 165.66311300639063,173.41552129782212 167.15031982940855,172.52536472868815 168.78144989337306,171.19011437510198 171.256929637515,168.09788424515136 177.92537313431967,162.87366275498061 179.988272921124,161.51484996001818 184.45948827289976,157.84830205861363 185.2654584221891,156.8291408237783 187.38592750532553,155.3413802494324" stroke="#4DD2FF" stroke-linecap="round" stroke-linejoin="round" stroke-width="0.5"><title>2024-12-07 17.1km</title><desc>1733527336000</desc></polyline><polyline fill="none" points="14.539498378057033,227.99077143362229 14.826643569511361,227.84311421829625 14.675514521397417,228.0 14.796417759876931,227.74159971511108 14.161675757786725,226.2096369853607 14.237240281858249,226.07120508514345 23.31253962102346,222.79490927217557 24.362886505405186,222.20423798122647 25.17142691279878,221.31822236948938 39.951847818214446,203.98344745347276 40.45813012935105,203.08798605480115 42.929090065998025,196.70866965359892 43.639396592159756,195.22223905493593 45.21869514492573,192.70170276280987 45.51339678876684,192.44318145258876 45.838324242213275,192.50781186328823 45.400050002645,192.0 45.26403385933372,192.009232973498 44.31192085624207,193.2926052839539 43.465598186827265,194.7144454850859 42.46814646926941,196.69020485706278 40.155872033152264,202.82026872543065 39.64958972198656,203.75265945085266 33.86890363166458,210.62060801891494 26.788507727585966,218.78009918721364 26.52403189340839,219.35233805525058 24.884281721402658,221.23515787212818 24.11352357600117,222.01042295574007 23.561902550398372,222.37036474944034 14.320361258316552,225.71128095537279" stroke="#4DD2FF" stroke-linecap="round" stroke-linejoin="round" stroke-width="0.5"><title>2024-11-30 11.9km</title><desc>1732919585000</desc></polyline><polyline fill="none" points="61.850464983377606,192.5634977715672 72.61656309221871,203.7707134403754 90.71386134182103,227.9373935025651 91.38033408205956,227.68696743668988 89.9448543342296,225.495734131895 72.61656309221871,202.83157071174355 62.41440345579758,192.0 61.850464983377606,192.5634977715672 72.71909736003727,203.95854177925503 90.71386134182103,228.0 91.48286834964529,227.8121804848197 91.17526554642245,227.0609017353272 73.4881043676287,203.83332289435202 62.41440345579758,192.06261089403415 61.95299925096333,192.6887194145238 72.71909736003727,203.83332289435202 90.76512847584672,227.9373935025651 91.32906694803387,227.37393468176015 74.10330997407436,204.52202638209565 62.568204857409,192.2504435306182 61.90173211717047,192.6261085968581 72.82163162785582,203.95854177925503 90.76512847584672,228.0 91.53413548343815,227.8121804848197 90.76512847584672,226.49744194961386 73.02670016302727,203.26983753289096 62.41440345579758,192.06261089403415 61.850464983377606,192.5634977715672 72.41149455681443,203.64549450943014 90.76512847584672,228.0 91.27779981400818,227.24872152635362 73.43683723383583,203.83332289435202 62.36313632177189,192.06261089403415 61.90173211717047,192.6261085968581 72.71909736003727,203.95854177925503 90.66259420802817,227.9373935025651 91.32906694803387,227.49914780666586 73.64190576924011,204.02115121023962 62.41440345579758,192.12522178061772 61.79919784958474,192.5008869387675 72.77036449383013,204.0837606334826 90.56005994020961,227.7495739646256 91.43160121585242,227.49914780666586 85.02320948429406,219.17240827844944" stroke="#4DD2FF" stroke-linecap="round" stroke-linejoin="round" stroke-width="0.5"><title>2024-11-26 10.9km</title><desc>1732619882000</desc></polyline><polyline fill="none" points="108.59402784286067,192.31035574444104 118.80989130353555,203.11061737366254 137.36108614504337,227.87586645799456 137.66603729315102,226.75866321346257 122.2151791236829,206.27616772631882 109.05145456502214,192.0 109.10227975645103,193.30349285010016 119.36896840832196,203.85545452788938 137.36108614504337,227.75173288572114 137.71686248434708,226.8827970289276 120.63959819194861,204.3520120230387 110.62703549675643,193.55177682294743 109.10227975645103,192.1862134693074 108.84815379977226,192.86899560556049 119.36896840832196,203.7313150781556 137.36108614504337,227.75173288572114 138.02181363245472,227.68966608820483 137.71686248434708,226.94486392528052 120.48712261812761,204.2278726947843 109.25475533050485,192.0 109.05145456502214,193.30349285010016 119.47061879117973,203.97959394718055 137.36108614504337,227.87586645799456 137.76768767577596,226.94486392528052 120.89372414862737,204.60029058839427 109.20393013907596,192.0 108.74650341691449,192.62071129883407 119.31814321712591,203.79338480677688 137.2594357621856,227.68966608820483 137.92016324982978,227.06899769493612 120.23299666121602,203.85545452788938 109.25475533050485,192.1241423204774 108.64485303428955,192.68278238701168 119.47061879117973,203.97959394718055 137.61521210172214,228.0 137.36108614504337,226.3862615855178 120.43629742669873,204.16580301936483 109.25475533050485,192.062071163964 109.20393013907596,193.30349285010016 119.21649283426814,203.6692453418509 137.20861057098955,227.68966608820483 137.71686248434708,226.8827970289276 120.74124857480638,204.41408167569898 109.20393013907596,192.1241423204774 108.79732860834338,192.55864020303125 119.47061879117973,203.97959394718055 137.20861057098955,227.5655324702966 138.0726388238836,227.50346564978827 137.71686248434708,226.8207301251241 119.26731802569702,202.73819838644704 109.25475533050485,192.1862134693074 109.15310494764708,193.11727979109855 119.41979359975085,203.85545452788938 137.31026095338166,227.75173288572114 137.97098844125867,227.5655324702966 137.66603729315102,226.8207301251241 120.48712261812761,204.16580301936483 109.25475533050485,192.31035574444104" stroke="#4DD2FF" stroke-linecap="round" stroke-linejoin="round" stroke-width="0.5"><title>2024-11-16 14.9km</title><desc>1731755814000</desc></polyline><polyline fill="none" points="155.13297543884255,192.56154464179417 166.16829263907857,204.10426972742425 184.15177252027206,227.93761051725596 184.50939854071476,227.00176735920832 166.32156093325466,203.16838283231482 156.10367463715374,192.3743631633115 155.3884225965012,192.12478775146883 155.43951202789322,192.87351361999754 166.01502434443682,203.8547000567778 184.04959365725517,227.93761051725596 184.66266683489084,227.31371526943985 181.34185378882103,222.69686671439558 167.03681297414005,204.10426972742425 156.05258520576172,192.31196932168677 155.33733316510916,192.74872605176643 166.42373979650438,204.35383927612565 183.84523593145423,227.75044202292338 184.7137562665157,227.37610482861055 166.88354467973113,203.917092485819 155.95040634297766,192.12478775146883 155.3884225965012,192.62393845262704 166.42373979650438,204.29144690046087 184.04959365725517,227.81283152877586 184.61157740373164,227.00176735920832 167.54770728899166,204.66580104007153 155.8993169113528,192.18718161591096 155.3884225965012,192.8111198397237 166.11720320768654,203.917092485819 184.04959365725517,228.0 184.86702456115745,227.50088392401813 167.54770728899166,204.66580104007153 158.35160962236114,194.68292993010255 155.6949591850862,192.18718161591096 155.43951202789322,192.68633225600934 166.16829263907857,203.97948490740964 183.94741479423828,227.81283152877586 184.76484569814056,227.50088392401813 168.92712193890475,206.5375676167896 155.74604861671105,192.06239387957612 155.3884225965012,192.74872605176643 166.11720320768654,203.97948490740964 184.20286195189692,228.0 184.81593512976542,227.43849438003963 166.67918695369735,203.60513026383705 155.6949591850862,192.0 155.6949591850862,192.9359073927044 166.06611377606168,203.917092485819 183.99850422586314,227.93761051725596 184.76484569814056,227.81283152877586 184.40721967769787,227.00176735920832 166.6280975220725,203.6675227234373 155.43951202789322,192.62393845262704 166.47482922766358,204.5410163573688 184.04959365725517,227.93761051725596 184.50939854071476,227.12654654629296 176.48835779819638,216.64498841535533" stroke="#4DD2FF" stroke-linecap="round" stroke-linejoin="round" stroke-width="0.5"><title>2024-11-10 14.3km</title><desc>1731237417000</desc></polyline><polyline fill="none" points="15.260702624451369,232.62178330111783 27.37798336846754,245.61688018328277 43.92469026660547,267.7513040844351 44.688384431414306,267.6891300865682 43.721038489602506,266.1347776670009 28.039851644309238,245.30599657795392 16.024396789027378,232.37307007197523 15.413441457320005,232.74613987002522 26.054246816551313,243.93810645496706 44.07742909970693,268.0 44.790210319915786,267.7513040844351 43.721038489602506,266.19695185514865 26.51246331515722,243.4406909517711 15.922570900525898,232.37307007197523 15.209789680084214,232.55960500531364 25.952420928049833,243.87592954357387 44.02651615533978,268.0 44.790210319915786,267.44043401890667 26.767028036760166,243.81375262478832 15.922570900525898,232.31089174555382 15.209789680084214,232.62178330111783 25.64694326231256,243.56504487327766 44.17925498820841,267.87565205746796 44.586558542679995,267.1295637632138 26.868853925261647,243.87592954357387 15.769832067424431,232.06217836443102 15.515267346054316,232.808318143012 26.156072705052793,243.87592954357387 44.12834204384126,267.8134780746186 44.73929737554863,267.44043401890667 44.07742909970693,266.3834743736079 27.428896312834695,244.49769831390586 15.922570900525898,232.12435672123684 15.311615568818524,232.37307007197523 28.44715519854799,246.79823614907218 44.02651615533978,267.7513040844351 44.63747148704715,267.502608047158 43.46647376799956,265.63738388888305 27.632548090070486,244.80858241365058 15.871657956158742,232.0 15.36252851295285,232.808318143012 27.021592758363113,244.99511278240243 43.92469026660547,267.7513040844351 44.73929737554863,267.62695608095964 43.97560321097262,266.3834743736079 28.039851644309238,245.1194663233473 15.973483844660223,232.31089174555382 15.413441457320005,232.55960500531364 26.359724482521415,244.1868140239385 44.07742909970693,267.62695608095964 44.43381970981136,266.88086742174346 29.363588196225464,247.04694231855683" stroke="#4DD2FF" stroke-linecap="round" stroke-linejoin="round" stroke-width="0.5"><title>2024-10-26 12.9km</title><desc>1729940418000</desc></polyline><polyline fill="none" points="65.67197168210987,232.2736309337488 72.5216506535653,239.38795295162708 82.95620833919384,253.22524645144586 85.0367183071794,254.86691947231884 87.53333026880864,258.3065879748028 83.53234956110828,267.9609142516856 87.62935380567797,258.34567490415066 72.64968203636818,238.95797095421585 65.86401875608135,232.0781802907004 72.61767419055104,239.50522066865233 83.8524280176498,254.3978708985087 85.0687261527637,254.94509416766232 87.53333026880864,258.46293566332315 83.50034171540756,268.0 87.66136165126227,258.50202257354977 72.93775264720898,239.1534173883556 65.80000306479633,232.1954506909824 72.55365849938244,239.50522066865233 83.72439663496334,254.28060864747385 84.97270261589438,254.8278321175021 87.46931457729079,258.2675010407693 83.46833386970684,267.9218284984818 87.56533811427653,258.3065879748028 73.35385464085266,239.7006667680398 65.86401875608135,232.0 72.84172911022324,239.85702356151887 83.1482554130489,253.57703423732892 85.100733998348,254.90600682233344 87.46931457729079,258.2284141018463 83.50034171540756,267.9218284984818 87.62935380567797,258.46293566332315 72.55365849938244,238.84070303625776 66.28012074972503,232.1563605622796 65.80000306479633,232.0781802907004 66.02405798435211,232.58635171400965 71.81747804908082,238.68434574545245 71.81747804908082,237.94164756895043 68.52066994598135,234.61902932394878" stroke="#4DD2FF" stroke-linecap="round" stroke-linejoin="round" stroke-width="0.5"><title>2024-10-19 10.6km</title><desc>1729335763000</desc></polyline></svg>