<?xml version="1.0" encoding="utf-8" ?>
<svg baseProfile="full" height="300mm" version="1.1" viewBox="0,0,200,300" width="200mm" xmlns="http://www.w3.org/2000/svg" xmlns:ev="http://www.w3.org/2001/xml-events" xmlns:xlink="http://www.w3.org/1999/xlink"><defs /><rect fill="#222222" height="300" width="200" x="0" y="0" /><text fill="#FFFFFF" style="font-size:12px; font-family:Arial; font-weight:bold;" x="10" y="20">Over 10km Runs</text><text fill="#FFFFFF" style="font-size:4px; font-family:Arial" x="10" y="280">Runner</text><text fill="#FFFFFF" style="font-size:9px; font-family:Arial" x="10" y="290">unsung</text><text fill="#FFFFFF" style="font-size:4px; font-family:Arial" x="65" y="280">SPECIAL TRACKS</text><rect fill="yellow" height="2.6" width="2.6" x="65" y="283" /><text fill="#FFFFFF" style="font-size:3px; font-family:Arial" x="70" y="285.5">Over 20.0 km</text><rect fill="red" height="2.6" width="2.6" x="65" y="287" /><text fill="#FFFFFF" style="font-size:3px; font-family:Arial" x="70" y="289.5">Over 40.0 km</text><text fill="#FFFFFF" style="font-size:4px; font-family:Arial" x="120" y="280">STATISTICS</text><text fill="#FFFFFF" style="font-size:3px; font-family:Arial" x="120" y="285">Number: 32</text><text fill="#FFFFFF" style="font-size:3px; font-family:Arial" x="120" y="290">Weekly: 1.7</text><text fill="#FFFFFF" style="font-size:3px; font-family:Arial" x="141" y="285">Total: 390.6 km</text><text fill="#FFFFFF" style="font-size:3px; font-family:Arial" x="141" y="290">Avg: 12.2 km</text><text fill="#FFFFFF" style="font-size:3px; font-family:Arial" x="167" y="285">Min: 10.0 km</text><text fill="#FFFFFF" style="font-size:3px; font-family:Arial" x="167" y="290">Max: 21.1 km</text><polyline fill="none" points="22.093658364377916,31.714285714289872 27.142857142956927,37.41883417511417 31.969624257064424,43.85664853602066 31.724949426483363,44.42707878051442 26.831452812999487,47.19771912226861 17.08894591871649,33.37133632422774 28.9223104568664,50.837527421463165 26.94266864506062,47.41502278498956 32.125326422043145,44.42707878051442 34.5275883958675,47.33353393639845 35.395071886479855,47.65948915135232 37.15228203416336,50.21278844750486 34.32739989820402,56.595908241171855 34.30515673174523,57.709540129988454 31.28008609788958,61.512143511194154 29.678578115301207,62.57142857143481 31.213356598629616,61.5664659448812 34.483102063066326,57.519408251639106 34.41637256380636,56.514422761742026 37.196768366964534,50.13130062560958 27.231829808442853,37.147192333985004 22.249360529356636,31.768615438515553 22.004685698775575,31.985934202806675 26.720236980821937,36.95704284743988 31.92513792414684,43.82948515446333 31.791678925743327,44.37275215363479 26.875939145800658,47.14339317336271 17.08894591871649,33.31700699220528 28.944553623208776,50.86468994565075 26.987154977861792,47.360696889300016 32.10308325570077,44.42707878051442 34.5275883958675,47.33353393639845 35.395071886479855,47.68665206435253 37.06330936832819,49.99548752277042 34.32739989820402,56.623070060959435 34.39412939734757,57.519408251639106 31.257842931547202,61.457821064163 29.678578115301207,62.57142857143481 31.48027459566947,61.26769239506393 34.46085889660753,57.519408251639106 34.32739989820402,56.758879110362614 37.17452520050574,50.07697539450601 27.25407297501806,37.09286392586364 22.249360529356636,31.768615438515553 22.026928865117952,31.985934202806675 26.564534815843217,36.73972894906183 31.880651591345668,43.77515838148247 31.769435759284534,44.34558883527643 26.898182312143035,47.14339317336271 17.111189085175283,33.28984232114453 28.989039956126362,50.86468994565075 26.94266864506062,47.360696889300016 32.125326422043145,44.399915468733525 34.5275883958675,47.33353393639845 35.37282872013748,47.68665206435253 37.0855525349034,50.07697539450601 34.30515673174523,56.623070060959435 34.41637256380636,57.492246541471104 31.28008609788958,61.43065983573615 29.678578115301207,62.57142857143481 31.235599764971994,61.484982289301115 33.88253656961024,58.279934788297396 34.483102063066326,57.41076139091456 34.32739989820402,56.78604091019952 34.79450639302377,55.78105210130161" stroke="#4DD2FF" stroke-linecap="round" stroke-linejoin="round" stroke-width="0.5"><title>2025-06-21 15.0km</title><desc>1750457084000</desc></polyline><polyline fill="none" points="58.85572347359266,31.714285714289872 58.50232168647926,32.11890906166809 62.89775641460437,36.67761412622349 68.37548411614262,43.93358338555845 68.24295844591688,44.4460777616041 63.383683871943504,47.22431601466087 61.77128821797669,45.41711647040211 53.55469666572753,33.467648189733154 65.2611308664782,50.59591735941649 63.36159626033623,47.38615405721066 68.53009739809204,44.473051116787246 70.95973468502052,47.35918105831661 71.88741437636781,47.763775694416836 73.52189764205832,50.19132792016899 70.76094617962372,56.556782389161526 70.78303379146382,57.60868302016752 67.66868054168299,61.46560907042294 66.12254772288725,62.57142857143481 67.82329382374883,61.30378136120271 70.84929662651848,57.581711271748645 70.76094617962372,56.63769800036971 73.5660728655057,50.16435526452551 63.58247237734031,37.10920262048603 58.76737302693073,31.957059811771614 58.524409298202954,32.17285878522671 63.008194473106414,36.78551132895518 68.3975717278663,44.0145036294125 68.08834516408388,44.553971162677044 63.317421036888845,47.251289030056796 53.598871889174916,33.440673488003085 65.2611308664782,50.56894475319132 63.383683871943504,47.413127052699565 68.55218500969931,44.4460777616041 70.9818222966278,47.27826204201847 71.86532676464412,47.763775694416836 73.52189764205832,50.1104099432705 70.8051214030711,56.50283863169898 70.84929662651848,57.500796006876044 67.80120621190872,61.35772394419473 66.1888105579419,62.54445743012184 67.77911860030144,61.38469523069216 70.87138423812576,57.52776776510291 70.8051214030711,56.610726133265416 73.5881604772294,50.54197214372107 70.84929662651848,46.54998955888732" stroke="#4DD2FF" stroke-linecap="round" stroke-linejoin="round" stroke-width="0.5"><title>2025-06-20 10.0km</title><desc>1750370921000</desc></polyline><polyline fill="none" points="95.12367355031893,31.714285714289872 95.01284794916864,32.20153719978407 99.46803711459506,36.857441719083 104.78766596899368,43.868182860838715 104.61034500726964,44.409543593777926 99.71185343712568,47.19753039232455 90.00353077799082,33.47379990808258 101.77320961828809,50.8245674342179 99.82267903827596,47.414071586041246 104.96498693083413,44.463679594235145 107.38098503556103,47.33286866324488 108.26758984453045,47.71181538148085 109.92997386166826,50.12081862715422 107.20366407372057,56.56274340880918 107.22582919383422,57.510069471012685 104.18920772289857,61.38053096256044 102.54898882610723,62.57142857143481 104.10054724197835,61.51586055904045 107.31448967487086,57.510069471012685 107.1371687130304,56.77927543775877 110.01863434247207,50.14788593038975 100.1108256012667,37.23640637945209 95.0793433097424,31.79549436972593 95.03501306928229,32.17446770094102 99.86700927873608,37.317613007864566 104.76550084876362,43.868182860838715 104.49951940600295,44.490747589530656 99.82267903827596,47.14339506078977 98.07163454033434,45.19451430377376 89.98136565764435,33.31138379953336 101.75104449794162,50.77043299005891 99.82267903827596,47.38700394844636 104.89849157014396,44.463679594235145 107.40315015567467,47.30580101571104 108.2897549647605,47.7388829793199 109.9521389817819,50.06668401088973 107.18149895349052,56.61687643590267 107.24799431418069,57.510069471012685 104.14487748243846,61.46172873038449 102.54898882610723,62.51729700091528 104.14487748243846,61.43466281102155 107.18149895349052,57.6724678172759 107.18149895349052,56.67100944973936 110.01863434247207,50.44562604706152 107.46964551636484,46.845650500501506" stroke="#4DD2FF" stroke-linecap="round" stroke-linejoin="round" stroke-width="0.5"><title>2025-06-17 10.0km</title><desc>1750111475000</desc></polyline><polyline fill="none" points="131.28832749649882,31.985456822119886 131.59918458084576,31.90410552461981 131.488164193579,32.283744657514035 135.88457153073978,36.785130521282554 141.19134604372084,43.808194543395075 140.68065226217732,44.59454693175212 135.9733878405532,47.0891636308952 126.40343045524787,33.314190454548225 138.21599966404028,50.803921247352264 136.28424492501654,47.36031592816289 141.5022031281842,44.404737990000285 143.76701902912464,47.19762458962214 144.67738620494492,47.68569824712176 146.38710016943514,50.09893553715665 143.6337945642881,56.606410763881286 143.76701902912464,57.39271775052475 140.5918359522475,61.43266484084597 138.9709382976871,62.54431521715014 140.48081556498073,61.5411187815771 143.70040679664817,57.58251557085896 143.61159048683476,56.769095196868875 146.4537124017952,50.07182065740926 136.1066123052733,36.568198359702365 131.5325723484857,31.714285714289872 131.39934788376559,32.06680808983219 136.0177959954599,36.920713014522335 141.28016235353425,43.9980039960501 136.12881638284307,47.143394116923446 126.40343045524787,33.314190454548225 138.3048159738537,50.83103603756172 136.28424492501654,47.36031592816289 141.41338681825437,44.37762241357996 143.78922310646158,47.17050935488078 144.65518212749157,47.63146789371967 146.40930424677208,49.99047599810001 143.67820271919481,56.49795440895832 143.6337945642881,57.58251557085896 140.56963187479414,61.45977833104553 139.0153464525938,62.57142857143481 140.5474277973408,61.51400530136016 143.72261087421793,57.52828763872094 143.6337945642881,56.714867065806175 146.43150832434185,50.09893553715665 136.61730608693324,37.19187775206228" stroke="#4DD2FF" stroke-linecap="round" stroke-linejoin="round" stroke-width="0.5"><title>2025-06-15 10.5km</title><desc>1749940293000</desc></polyline><polyline fill="none" points="167.921073419624,31.714285714289872 172.42454351321794,36.91614228155231 177.66010480432305,43.905944621379604 177.52699731383473,44.339413470050204 172.60202016716357,47.15694030521263 162.81861961900722,33.39406525682716 174.62081710563507,50.787162418011576 172.6907584941946,47.40076305749244 177.90413520345464,44.42068878475402 180.27788544993382,47.34658024687087 181.0987149743596,47.67167691193754 182.85129693185445,50.21825094433734 180.05603963241447,56.63873846772185 180.1447779594455,57.42435496172402 177.0167519338429,61.433664703014074 175.41946204844862,62.57142857143481 177.03893651557155,61.433664703014074 180.16696254117414,57.53271563872113 180.05603963241447,56.74709952912235 182.89566609542817,50.05570454064582 173.24537303764373,37.48508792981738 167.8767042561667,31.714285714289872 168.09855007356964,32.36452446821204 172.4910972585203,36.970327644390636 177.66010480432305,43.85176095562929 177.48262815037742,44.36650524487777 172.42454351321794,47.10275743485545 162.8851733643096,33.28569276766211 174.73174001439475,50.787162418011576 172.71294307592325,47.34658024687087 177.97068894875702,44.393597016474814 180.25570086808875,47.292397422963404 181.1430841377005,47.69876827922417 182.80692776839714,50.00152237947623 180.05603963241447,56.58455791712913 180.16696254117414,57.478535306829144 177.0167519338429,61.406575015877024 175.39727746660355,62.51724947209004 176.99456735211425,61.460754386906046 180.21133170463145,57.45144513595733 180.07822421414312,56.63873846772185 182.89566609542817,50.46207032626262 180.49973126722034,46.99439165445801" stroke="#4DD2FF" stroke-linecap="round" stroke-linejoin="round" stroke-width="0.5"><title>2025-06-13 10.0km</title><desc>1749765414000</desc></polyline><polyline fill="none" points="19.535692364326678,66.02716486385907 24.20675845630467,71.21559290729056 32.058598125353456,81.59208526558359 32.859352312632836,81.86371467783465 34.638806062052026,84.38985229705577 31.836166406748816,90.8816225266055 31.947382266051136,91.72363739657158 28.966797235887498,95.52624542890408 27.23182983021252,96.85714285714494 28.78885186102707,95.77069657489483 31.947382266051136,91.85944594760076 31.925139094120823,90.90878434640763 34.750021921354346,84.38985229705577 24.362460659467615,70.8896219401795 19.513449192396365,66.05432972431299 24.607135550002567,71.56872758163081 32.01411178172566,81.51059637704748 32.926081828190945,81.94520343677141 34.638806062052026,84.308364435361 31.90289592242334,90.85446070341277 31.96962543798145,91.75079911337525 28.811095032840967,95.68921288948331 27.25407300214283,96.80282066922518 28.833338204654865,95.68921288948331 31.96962543798145,91.80512253710185 31.880652750493027,90.90878434640763 34.772265093168244,84.44417752159643 24.340217487537302,70.80812912363035 19.535692364326678,66.0 24.02881308144424,70.86245767127548 32.01411178172566,81.48343340761494 32.926081828190945,81.94520343677141 34.661049233865924,84.36268967976503 31.880652750493027,90.85446070341277 31.947382266051136,91.72363739657158 28.811095032840967,95.71637412127166 27.23182983021252,96.80282066922518 28.855581376585178,95.66205165440624 31.96962543798145,91.80512253710185 31.880652750493027,90.90878434640763 34.705535577610135,84.38985229705577 24.607135550002567,71.13410021038726 19.758124082814902,66.0 19.691394567256793,66.3259781464003 24.29573114379309,71.16126444604015 26.386589299305342,73.93199902183551" stroke="#4DD2FF" stroke-linecap="round" stroke-linejoin="round" stroke-width="0.5"><title>2025-06-09 10.0km</title><desc>1749421393000</desc></polyline><polyline fill="none" points="56.01746444613673,66.29672386070888 56.14999013254419,66.0 56.061639674939215,66.64739699945494 60.65586347039789,71.28701986174565 67.87851337972097,80.91662312796689 69.27003308699932,82.02251702724607 71.01495462481398,84.45006954995915 68.20982759573963,90.97735601027671 68.38652851083316,91.7325667659461 65.18382442265283,95.7782946293155 63.65977902896702,96.85714285714494 65.27217488037422,95.67040951631498 68.40861612535082,91.78651029235334 68.27609043894336,91.00432786757301 71.05912985350005,84.5309875071398 61.82650703378022,72.31203965107852 56.01746444613673,66.2697489807615 60.67795108491555,71.34096839051927 68.40861612535082,81.61792234164022 69.29212070140056,82.02251702724607 71.03704223909881,84.50401485801558 68.27609043894336,90.95038414970622 68.27609043894336,91.89439730570302 65.27217488037422,95.69738079948002 63.637691414682195,96.85714285714494 65.29426249477547,95.69738079948002 68.40861612535082,91.81348205065296 68.25400282454211,91.03129972147872 71.14748031110503,84.50401485801558 60.81047677132301,71.04425131881726 56.01746444613673,66.24277409756905 60.633775855996646,71.28701986174565 68.34235328214709,81.53700331546133 69.3583835446043,82.07646292925347 71.03704223909881,84.45006954995915 68.25400282454211,90.95038414970622 68.36444089654833,91.75953853080864 65.20591203717049,95.75132335606031 63.637691414682195,96.8301717156719 65.27217488037422,95.69738079948002 68.32026566762943,91.92136905074585 68.25400282454211,91.13918710427242 71.05912985350005,84.45006954995915 60.98717768653296,71.20609704378876 55.995376831735484,66.215799210986 60.633775855996646,71.26004559238208 67.92268860852346,80.9705693005235 69.3142083158018,82.04948997995234 71.03704223909881,84.45006954995915 68.27609043894336,90.89644041872816 68.23191521014087,91.97531253093621 65.18382442265283,95.75132335606031 63.615603800164536,96.8301717156719 65.161736808368,95.83223716613429 68.40861612535082,91.81348205065296 68.27609043894336,91.00432786757301 71.05912985350005,84.88163164485013 70.92660416709259,84.18034281174187 68.25400282454211,80.78175763881882" stroke="#4DD2FF" stroke-linecap="round" stroke-linejoin="round" stroke-width="0.5"><title>2025-06-07 12.0km</title><desc>1749247836000</desc></polyline><polyline fill="none" points="92.7521827094024,66.0 92.55391415138729,66.67260812442692 96.98191194899846,71.30009624926606 104.80250507395249,81.63088114584389 105.8379075442208,82.19583194874576 107.44608584872913,84.53632695693523 104.64829619554803,91.01963708616677 104.75844539445825,91.79977355497249 101.63020814443007,95.75421585008735 100.06608951941598,96.83024226412817 101.63020814443007,95.78111657453701 104.80250507395249,91.88047716973233 104.69235587515868,91.04653838975355 107.55623504775576,84.64393532389659 97.31235954572912,71.19248135243834 92.44376495236065,66.34975648141699 97.15815066720825,71.46151849583839 104.78047523437999,81.5770762317552 105.72775834519416,82.06131998445198 107.44608584872913,84.4825227537076 104.67032603535336,90.9389331555285 104.75844539445825,91.79977355497249 101.6522379842354,95.72731512223254 100.06608951941598,96.83024226412817 101.63020814443007,95.83491801377386 104.84656475367956,91.79977355497249 104.73641555465292,90.9389331555285 107.57826488744467,84.61703323712572 97.40047890483402,71.30009624926606 92.50985447177663,66.24213916182634 97.13612082751933,71.43461479635153 104.78047523437999,81.5770762317552 105.70572850538883,82.00751517571916 107.44608584872913,84.50942485700944 104.64829619554803,90.96583446898148 104.75844539445825,91.79977355497249 101.5641186251305,95.75421585008735 100.11014919902664,96.85714285714494 101.5641186251305,95.86181872838642 104.82453491387423,91.79977355497249 104.69235587515868,91.0734396900225 107.53420520795044,84.64393532389659 97.48859826405533,71.43461479635153 92.70812302990817,66.29594782815548 92.42173511255533,66.45737374843156 97.13612082751933,71.40771109353227 99.62549272365868,74.6899385421566" stroke="#4DD2FF" stroke-linecap="round" stroke-linejoin="round" stroke-width="0.5"><title>2025-06-05 10.1km</title><desc>1749073951000</desc></polyline><polyline fill="none" points="129.0104736108333,66.0 128.89925775153097,66.3259781464003 133.41462164057884,71.07977172915707 143.9356419336982,84.38985229705577 141.0885159347672,90.96310797618935 141.26646130962763,91.66931395290885 138.10793090460356,95.71637412127166 136.52866570197511,96.85714285714494 138.13017407641746,95.71637412127166 141.24421813769732,91.85944594760076 141.1774886221392,90.96310797618935 144.02461462118663,84.41701491094136 133.77051239041612,71.02544323462644 128.83252823597286,66.05432972431299 133.57032384362537,71.21559290729056 143.9356419336982,84.49850273283664 141.1107591065811,90.90878434640763 141.24421813769732,91.72363739657158 138.10793090460356,95.68921288948331 136.5064225300448,96.82998176476394 138.08568773267325,95.77069657489483 141.26646130962763,91.80512253710185 141.22197496599983,90.8816225266055 143.98012827744242,84.36268967976503 133.81499873416033,71.07977172915707 128.83252823597286,66.1086594353983 133.48135115625337,71.16126444604015 143.9356419336982,84.38985229705577 141.1107591065811,90.90878434640763 141.24421813769732,91.69647567640641 138.04120138892904,95.77069657489483 136.5064225300448,96.82998176476394 138.04120138892904,95.79785779678787 141.26646130962763,91.83228424402478 141.1774886221392,90.90878434640763 144.02461462118663,84.55282793073275 134.1486463121837,71.48723501434142 129.16617581399623,66.08149458150729 128.87701457971707,66.24448365472199 132.39143573469482,69.83021299167012 135.66118199913763,73.95916291514004" stroke="#4DD2FF" stroke-linecap="round" stroke-linejoin="round" stroke-width="0.5"><title>2025-06-03 10.0km</title><desc>1748953280000</desc></polyline><polyline fill="none" points="165.23656062991358,66.16327657183865 169.96043031464797,71.08873013949778 180.4331602761522,84.3950731253426 177.6478597545065,90.78945375490002 177.6701421586331,91.76900221144024 174.68429999938235,95.60552546958206 172.99083728215192,96.85714285714494 174.61745278688613,95.63273461807694 177.7592717752559,91.71458296588389 177.6701421586331,90.89829268524772 180.4554426803952,84.42228364515177 170.13868954801,70.84382066070975 165.3034078424098,66.0 169.96043031464797,71.06151798853534 180.4331602761522,84.36786260227382 177.62557735026348,90.87108295768849 177.6478597545065,91.76900221144024 174.55060557438992,95.71436204364 172.99083728215192,96.82993385827285 174.63973519101273,95.63273461807694 177.7147069670027,91.82342144366703 177.6701421586331,90.87108295768849 180.4331602761522,84.36786260227382 170.4952080148505,71.27921510321903 165.3034078424098,66.02721277032106 169.93814791040495,71.0343058341823 180.4331602761522,84.36786260227382 177.6478597545065,90.87108295768849 177.7147069670027,91.7417925902846 174.61745278688613,95.65994376331219 172.99083728215192,96.82993385827285 174.63973519101273,95.65994376331219 177.7592717752559,91.76900221144024 177.6924245627597,90.76224401404033 180.4777250844054,84.55833619406621 170.65118484408595,71.4696999037842 165.59307909675408,66.0 165.41481986339204,66.29934029011929 170.0272775272606,71.14315443151281 172.5451891986886,74.40858758043032" stroke="#4DD2FF" stroke-linecap="round" stroke-linejoin="round" stroke-width="0.5"><title>2025-05-31 10.0km</title><desc>1748691698000</desc></polyline><polyline fill="none" points="19.74350631830748,100.28571428571013 19.633068246301264,100.74428735670517 24.161029198556207,105.4108884818852 32.11257038312033,115.9845556239161 32.9077245015651,116.28125835699029 34.6305584248621,118.76275649138552 31.781256167101674,125.31701400718885 31.98004469659645,126.01828105165623 28.88777868053876,129.92915251545492 27.253295214730315,131.11588600138202 28.799428222933784,130.010066365081 32.00213231111411,126.04525281651877 31.86960662470665,125.31701400718885 34.718908882467076,118.76275649138552 24.29355488496367,105.24904269751278 19.566805403097533,100.52848838327918 24.27146727067884,105.54575987809221 32.11257038312033,115.95758262833988 32.951899730367586,116.3082313129562 34.652646039263345,118.76275649138552 31.891694239107892,125.1012390833348 31.91378185339272,126.12616809130122 28.821515837335028,130.010066365081 27.297470443649217,131.11588600138202 28.843603451619856,129.98309508519014 31.891694239107892,126.12616809130122 31.891694239107892,125.15518283403071 34.718908882467076,118.87064708111575 24.845745245111175,105.89642512210412 19.588893017498776,100.47453860692622 24.29355488496367,105.5997084134724 32.0463075399166,115.90363662735035 32.99607495917007,116.3621772149636 34.6305584248621,118.73578383566928 31.781256167101674,125.26307029598684 31.93586946791038,126.04525281651877 28.799428222933784,130.06400891502562 27.253295214730315,131.11588600138202 28.733165379730053,130.09098018509394 31.957957082311623,126.20708333645598 31.91378185339272,125.23609843541635 34.69682126806583,118.81670179284993 24.801570016192272,105.84247665930889 19.588893017498776,100.52848838327918 24.09476635546889,105.30299130550702 31.82543139590416,115.63390642455488 32.86354927276261,116.28125835699029 34.586383196059614,118.68183851447247 31.803343781502917,125.20912657161534 31.93586946791038,126.01828105165623 28.799428222933784,130.03703764177044 27.231207600445487,131.14285714285506 28.95404152374249,129.87520993259386 31.98004469659645,126.0991963363631 31.86960662470665,125.29004215328314 34.69682126806583,118.81670179284993 24.691131944186054,105.76155394042144 19.566805403097533,100.55546326647163 24.27146727067884,105.5997084134724 31.957957082311623,115.82271760117146 32.92981211596634,116.38915016099054 34.652646039263345,118.87064708111575 31.82543139590416,125.20912657161534 31.957957082311623,126.04525281651877 28.88777868053876,129.92915251545492 27.209119985927828,131.14285714285506 28.799428222933784,130.06400891502562 31.891694239107892,126.23405507819552 31.847519010305405,125.31701400718885 34.69682126806583,118.81670179284993" stroke="#4DD2FF" stroke-linecap="round" stroke-linejoin="round" stroke-width="0.5"><title>2025-03-01 15.0km</title><desc>1740782421000</desc></polyline><polyline fill="none" points="54.19741407188121,100.31875379750272 54.603215565439314,100.28571428573923 54.49500183376949,100.88042487995699 60.12211587675847,106.76138134807115 69.5637639585184,119.31580368362484 70.70000814029481,119.84439813546487 72.81017590640113,122.8177226492553 69.34733649529517,131.14285714286962 72.89133620506618,122.88379615545273 60.419703638530336,106.59618768995279 54.49500183376949,100.58306974652805 60.203276175423525,106.82745878299465 69.64492425718345,119.41491522212164 70.64590127451811,119.81136101257289 72.81017590640113,122.75164912673063 69.29322962951846,131.10982140206033 72.94544307084288,122.94986964555574 60.71729140053503,106.95961360429646 54.68437586398795,100.51699078353704 54.359734669327736,100.64914869333734 60.473810504423454,107.12480704000336 69.59081739129033,119.31580368362484 70.7541150059551,119.91047236917075 72.75606904050801,122.75164912673063 69.32028306240682,131.10982140206033 72.94544307084288,122.9829063845973 60.852558565093204,107.09176836098777 54.819643028546125,100.61610922191176 54.33268123632297,100.61610922191176 60.23032960842829,106.89353620170732 69.6719776900718,119.41491522212164 70.70000814029481,119.81136101257289 72.81017590640113,122.78468589001568 69.29322962951846,131.0767856571474 72.91838963795453,122.94986964555574 60.176222742535174,106.29883885080926" stroke="#4DD2FF" stroke-linecap="round" stroke-linejoin="round" stroke-width="0.5"><title>2025-02-25 10.0km</title><desc>1740436543000</desc></polyline><polyline fill="none" points="91.1169627198251,100.28571428573923 90.90030327392742,100.88106226114905 96.50636643555481,106.73524751226068 106.06646448397078,119.43541694566375 107.06851442111656,119.86536015727324 109.1538615875179,122.70958264233195 105.6602280230727,131.1097859919537 109.23510887974408,122.77572699525626 96.88552046578843,106.73524751226068 90.71072625881061,100.55031354777748 96.42511914332863,106.63602508956683 106.03938205318991,119.40234436251922 107.25809143623337,120.06379525511875 109.12677915673703,122.77572699525626 105.63314559229184,131.07671483693412 109.20802644896321,122.80879916570848 96.47928400477394,106.23913503487711 90.76489112013951,100.55031354777748 96.3709542817669,106.60295094063622 105.22690913139377,118.41016498929821 107.06851442111656,119.93150520618656 109.12677915673703,122.74265482075862 105.6602280230727,131.07671483693412 109.20802644896321,122.80879916570848 97.2917569266865,107.16521092268522 90.73780868947506,100.55031354777748 96.50636643555481,106.70217337540817 105.98521719186101,119.36927177547477 107.09559685178101,119.89843268369441 109.20802644896321,122.80879916570848 105.71439288451802,131.01057251478778 109.26219131040853,122.94108780677198 97.07509748090524,106.93369224818889 91.14404515037313,100.58338843728416 90.76489112013951,100.64953820433584 96.66886101989076,106.93369224818889 105.87688746885397,119.17083616781747 107.12267928256188,119.89843268369441 109.18094401829876,122.77572699525626 105.68731045373715,131.14285714286962 109.28927374107298,123.1725927729567 107.01434955967125,119.79921509235282" stroke="#4DD2FF" stroke-linecap="round" stroke-linejoin="round" stroke-width="0.5"><title>2025-02-22 12.0km</title><desc>1740177306000</desc></polyline><polyline fill="none" points="127.35003628605045,100.28571428571013 127.18719260639045,100.7829034148308 132.7781589422375,106.61652102871449 142.1416705242591,119.11197240572073 143.52584180166014,119.97370642982423 145.5342471844051,122.72460824338486 142.03310807119124,131.07657274007215 145.64280963747296,122.82403790645185 133.32097120792605,106.71595660375897 127.54002057889011,100.55088193475967 127.10577076650225,100.55088193475967 133.29383059462998,107.246279053943 142.3859360436909,119.37712162808748 143.41727934847586,119.84113214293029 145.58852841099724,122.82403790645185 142.08738929778337,131.10971494350815 145.61566902440973,122.75775146848173 132.88672139530536,106.1856331154122 127.51287996582687,100.45144409674685 127.13291137979832,100.58402787271189 132.6967371024657,106.51708541726111 142.3045142039191,119.31083434689208 143.44441996188834,119.87427572076558 145.58852841099724,122.79089468953316 142.11452991107944,131.14285714286962 145.61566902440973,122.75775146848173 133.23954936803784,106.55023062520195 127.13291137979832,100.48459004683536 132.96814323519357,106.84853731357725 142.44021727039944,119.41026526270434 143.5529824148398,120.0068499914778 145.56138779770117,122.72460824338486 142.0602486844873,131.07657274007215 145.66995025088545,122.79089468953316 133.4295336609939,106.81539214221993 127.13291137979832,100.48459004683536 132.80529955553357,106.64966622448992 142.33165481721517,119.27769070010982 143.41727934847586,119.84113214293029 145.58852841099724,122.82403790645185 142.08738929778337,131.07657274007215 145.64280963747296,122.69146501430077 133.1038463015575,106.41764976931154 127.18719260639045,100.45144409674685 132.6153152626939,106.41764976931154 142.35879543062765,119.24454704939853 143.47156057495158,119.84113214293029 145.5342471844051,122.75775146848173 142.11452991107944,131.14285714286962 145.75137209077366,122.95661073373049 135.43793904373888,109.43384818732738" stroke="#4DD2FF" stroke-linecap="round" stroke-linejoin="round" stroke-width="0.5"><title>2025-02-05 15.0km</title><desc>1738709514000</desc></polyline><polyline fill="none" points="163.796015091124,100.28571428573923 163.74167549447156,100.91616416475154 169.28431436768733,106.75605127049494 178.73940421035513,119.3312903001206 179.9077055414673,119.89533749059774 181.99978001811542,122.81509243010078 178.5492156216642,131.14285714286962 182.13562901015393,122.88145013162284 169.7462009404553,106.72287044901168 164.0133734784322,100.51798546430655 163.52431710727978,100.48480387951713 169.42016335972585,106.82241290126694 178.65789481520187,119.16539384445059 179.8805357431993,119.86215827646083 181.99978001811542,122.84827128285542 178.5492156216642,131.1096793047327 182.1084592117695,122.81509243010078 169.58318215003237,106.4906045847456 163.5514869056642,100.51798546430655 169.44733315799385,106.8555937106139 178.63072501681745,119.09903523375397 179.85336594469845,119.8289790583658 181.99978001811542,122.74873471233877 178.49487602477893,131.07650146246306 182.13562901015393,123.34595358764636 182.02694981661625,122.71555584733142 169.8548801341094,106.78923208790366 163.98620368004777,100.48480387951713 163.5514869056642,100.58434862169088 169.2571445693029,106.65650879382156 178.7937438072404,119.36446957904263 179.96204513823614,119.92851670048549 182.02694981661625,122.7819135732716 178.52204582327977,131.1096793047327 182.0812894133851,122.74873471233877 169.52884255326353,106.3910620106617 163.98620368004777,100.48480387951713 163.5514869056642,100.61753019422758 169.3386539645726,106.75605127049494 178.65789481520187,119.13221454108134 179.8805357431993,119.86215827646083 181.972610219731,122.71555584733142 178.52204582327977,131.07650146246306 182.1899686070392,123.11370195908239 179.33713977516163,119.36446957904263" stroke="#4DD2FF" stroke-linecap="round" stroke-linejoin="round" stroke-width="0.5"><title>2025-02-04 12.0km</title><desc>1738622138000</desc></polyline><polyline fill="none" points="14.877562819281593,134.57142857144936 14.877562819281593,135.63002910793875 23.63229587022215,144.78681563062128 39.10476962826215,165.42857142857974 39.66819304251112,165.37564510901575 39.45149172912352,164.68760236541857 24.152379021514207,144.6280290763534 15.007583607221022,134.94193905388238 14.574180980911478,135.36537921684794 23.805656920652837,144.94560212650686 39.148109890986234,165.42857142857974 39.494831991847605,164.79345516642206 24.065698496531695,144.4692424638779 15.180944657651708,135.04779913357925 14.704201768850908,135.36537921684794 23.76231665816158,144.89267330104485 39.10476962826215,165.3227187829616 39.66819304251112,165.37564510901575 39.45149172912352,164.63467595525435 24.802482961211354,145.36903249722673 15.224284920375794,135.10072916356148 14.617521243635565,135.36537921684794 24.542441385332495,145.89831987803336 39.018089103046805,165.21686611152836 39.75487356772646,165.1110134141345 39.06142936577089,164.10541149703204 24.065698496531695,144.6280290763534 15.094264132669196,134.94193905388238 14.660861506126821,135.31244921908365 24.49910112284124,145.739533731743 39.06142936577089,165.37564510901575 39.53817225480452,164.79345516642206 24.325740072177723,144.78681563062128 15.094264132669196,134.99486909693223 14.530840718187392,135.36537921684794 24.065698496531695,145.31610372362775 39.018089103046805,165.3227187829616 39.32147094141692,164.52882311536814 26.0593505774159,147.00982126963208 15.094264132669196,134.94193905388238 14.617521243635565,135.36537921684794 23.502275082282722,144.6280290763534 39.018089103046805,165.2697924505046 39.53817225480452,164.84638155734865 34.03395890071988,157.33076924510533 20.338435910409316,140.55248757268419" stroke="#4DD2FF" stroke-linecap="round" stroke-linejoin="round" stroke-width="0.5"><title>2025-01-23 11.4km</title><desc>1737585341000</desc></polyline><polyline fill="none" points="54.352055651601404,134.57142857144936 54.46132229373325,135.1719252082985 60.143187678419054,141.11009852399002 69.56743555201683,153.6865891687048 70.68741863255855,154.28704370974447 72.76348483085167,157.08914741899935 69.43085224949755,165.36185704841046 72.92738479387481,157.25593839847716 60.7987875303952,141.31025941637927 54.62522225675639,134.70487238271744 54.21547234908212,134.77159426402068 59.9792877152795,140.94329766812734 69.48548557050526,153.58651328334236 70.74205195356626,154.28704370974447 72.81811815185938,157.18922201890382 69.29426894697826,165.42857142857974 72.92738479387481,157.2225802107714 60.607570906868204,141.0767383609491 54.29742233059369,134.73823332539177 60.11587101779878,141.0767383609491 69.59475221240427,153.7199477890681 70.6601019721711,154.186968044698 72.84543481247965,157.18922201890382 69.34890226798598,165.36185704841046 72.92738479387481,157.25593839847716 60.49830426485278,140.97665784749552 54.24278900958598,134.70487238271744 60.71683754876722,141.77730092708953 69.62206887302455,153.7199477890681 70.71473529317882,154.22032660388504 72.76348483085167,157.08914741899935 69.34890226798598,165.29514265203034 72.90006813337095,157.18922201890382 60.225137659930624,140.64305587043054 54.597905596136115,134.67151143605588 54.24278900958598,134.73823332539177 59.92465439427178,140.8098569099675 69.37621892837342,153.41972005949356 70.71473529317882,154.25368515882292 72.76348483085167,157.155863823049 69.34890226798598,165.2617854476266 72.92738479387481,157.32265476172324 60.49830426485278,140.97665784749552 54.679855577647686,134.80495519845863 54.27010567008983,134.97175980967586 60.17050433869008,141.1434586829855 69.67670219391584,153.8200236254488 69.97718545945827,153.48643736127997 63.03875369171146,144.27929539815523" stroke="#4DD2FF" stroke-linecap="round" stroke-linejoin="round" stroke-width="0.5"><title>2025-01-18 14.0km</title><desc>1737153490000</desc></polyline><polyline fill="none" points="101.80192658817396,148.42413221903553 97.95328338476247,151.42082930543256 97.13051690487191,152.59124849661748 96.28055153306923,153.55413143427722 95.2469936410198,154.40079308504937 94.05704212049022,155.13123779466696 93.2886734244239,156.36799558877829 92.00352578228922,157.64623166127421 90.28319586979342,158.882943671495 84.57142857142026,163.58058413153776 88.64446263303398,160.35202868402848 90.289995592786,158.90784368210007 91.85393187685986,157.81223458149907 93.34307120821904,156.35969527595444 94.0978404583584,155.12293733073602 95.30819114777842,154.3841919776387 96.18535541146412,153.67864116239798 97.12371718187933,152.64935388843878 97.9736825536529,151.42913022177527 102.99187810864532,147.4943821489651 103.65145123715047,147.12911971051653 103.60385317634791,146.92158335894783 104.31102436565561,146.6476344037801 107.45929610275198,144.0658187559602 108.00327394070337,143.36846264496126 109.56041050178465,142.27260285869852 110.21318390732631,141.25144486744102 111.62752628597082,140.37971248081158 112.26670024555642,139.49136415439716 113.73544040796696,138.54488679426868 114.00742932694266,137.71463263308397 115.08178555686027,136.98400057289837 115.42857142857974,136.4194158684695 115.00698860414559,136.99230325411918 114.0278284958622,137.6565144615888 113.72184096204,138.51167682272353 112.28709941447596,139.44985226610152 111.64792545489036,140.32989886356518 110.13838695461163,141.28465349899489 109.5740099477407,142.2393947103119 108.01007366363774,143.33525503249257 107.44569665679592,144.05751693963248 105.60977145374636,145.55182753253757" stroke="#4DD2FF" stroke-linecap="round" stroke-linejoin="round" stroke-width="0.5"><title>2025-01-16 10.5km</title><desc>1736984045000</desc></polyline><polyline fill="none" points="124.05672142188996,134.57142857144936 124.27491983468644,135.6373421495664 133.22105476027355,144.85738573566778 148.49494365719147,165.21540350097348 149.06225953041576,165.37527945646434 148.9313404825516,164.6824832256534 134.70480396738276,146.02986284031067 124.49311824748293,134.8912029188068 123.9694420567248,134.57142857144936 123.83852300909348,135.21097703141277 133.1337753951084,144.80409124682774 148.49494365719147,165.37527945646434 148.9749801652506,164.8423593766638 134.5738849195186,145.86997978467843 124.27491983468644,134.67802004647092 123.83852300909348,135.15768136220868 133.22105476027355,144.85738573566778 148.45130397449248,165.37527945646434 148.84406111761928,164.6291911622975 134.83572301501408,146.24304015687085 124.3621991998516,134.78461149561917 123.79488332662731,135.15768136220868 133.0901357124094,144.80409124682774 148.45130397449248,165.32198747785878 149.0186198479496,165.37527945646434 148.88770080031827,164.73577528246096 135.62123730080202,147.14904258734896 124.31855951715261,134.67802004647092 123.83852300909348,135.15768136220868 133.0464960297104,144.75079675141023 148.45130397449248,165.42857142857974 149.06225953041576,165.42857142857974 148.9313404825516,164.73577528246096 133.65745158563368,144.64420774113387 124.4058388825506,134.8912029188068 123.75124364416115,135.10438568648533 133.17741507757455,144.96397469364456 148.36402460932732,165.37527945646434 149.10589921288192,165.26869549273397 148.66950238728896,164.36273074740893 133.788370633265,144.80409124682774 124.49311824748293,134.8912029188068 123.83852300909348,134.73131577437744 123.88216269179247,135.31756834997213 133.0464960297104,144.75079675141023 137.8032214292325,151.30597075787955 138.54509603278711,151.03950219321996 135.83943571383134,147.62869017003686" stroke="#4DD2FF" stroke-linecap="round" stroke-linejoin="round" stroke-width="0.5"><title>2025-01-14 10.6km</title><desc>1736807801000</desc></polyline><polyline fill="none" points="167.77362378017278,153.0469442368958 165.4594392103172,154.84971001966187 164.4965442319517,156.08443470222483 163.81280788178265,156.65239538973765 163.14930041767366,157.0474937695617 162.75281425012508,157.72409077505654 161.84656015282962,158.62291015654773 160.8917567289027,159.29454236153833 159.6982524490013,160.33159958335818 157.4285714285652,162.1142881581145 159.475734701904,160.52913127591455 160.91603139223298,159.2896039301777 161.77373616286786,158.69698778551174 162.72853958680935,157.7734769742674 163.18975818989566,157.0326776500151 163.91799808948417,156.58819153822697 164.53295622691803,156.06961822963785 165.50798853696324,154.82995411811862 168.81338852571207,152.29124041167233 168.83361741183035,152.17763665390885 169.0197231639322,152.17763665390885 169.31101912377926,151.96524616312308 171.11948154112906,150.47848146840624 171.4350521643064,150.06850018580008 172.38176403379475,149.40165427379543 172.73374665192387,148.81877253610583 173.62381764034217,148.26058129470402 173.99198336734844,147.74190110470227 174.85373391522444,147.18369498437823 175.0115192268131,146.70452074658533 175.7033471314353,146.20064067502244 176.33448837776086,145.22744274466095 180.77270598811447,142.10514694076483 182.3424675494898,141.34923840692863 182.85628125646326,140.80576601257053 188.28571428571013,137.8857118418855 184.62428590159107,139.78302994808837 182.86032703366072,140.78106254815066 182.3667422128201,141.31465401791138 180.7362939931336,142.11008747285814 176.34662570941146,145.1879215211302 175.67907246811956,146.20064067502244 175.00747344958654,146.67982088955978 174.8294592519087,147.18369498437823 173.98793759013643,147.72214172768145 173.5752683136816,148.2704608527274 172.72160932025872,148.803953399256 172.37367247935617,149.38189570852046 171.41482327820268,150.05862106741915 171.10734420946392,150.468602450248 169.2220120249549,152.00970007913565 169.04804360448907,152.11836500134086 168.946899173985,152.0393359959926 168.92667028786673,152.15294014257597 168.76888497630716,152.3060582695689 165.50394275973667,154.80525922762536 164.4560864597588,156.1190064504517 163.88158609451784,156.5931302996505 163.14525464046164,157.0425550636428 162.53434228025435,157.96114398101417 161.80610238063673,158.642664204217 161.17091535709915,159.0821892678141 161.78991927174502,158.69204928113686 162.607166270187,157.91175801107966 163.1614377493388,157.0474937695617 163.95441008446505,156.5634977220143 164.7433366423793,155.83255392964566" stroke="yellow" stroke-linecap="round" stroke-linejoin="round" stroke-width="0.5"><title>2025-01-01 21.1km</title><desc>1735687361000</desc></polyline><polyline fill="none" points="40.069107666553464,168.85714285713766 41.310027716855984,170.00460492799903 40.64602663734695,171.9259094329027 40.45009189256234,172.1527278448193 39.96025503060082,171.91256715852796 39.73166449501878,172.12604335048673 39.481303432257846,173.32683905755403 40.2215013569803,175.06129814414453 40.863731909310445,175.66168132962048 41.560388779616915,176.8891209975045 40.62425611016806,179.05044820022158 40.548059264954645,180.2111430839068 40.678682428144384,181.1583675844813 41.25560139887966,182.15894781201496 41.12497823568992,183.69315280239243 41.74543826084118,185.10727025172673 41.788979315257166,185.76095978878584 41.299142453295644,187.21507128839585 40.722223482560366,187.77536590132513 39.111204469867516,188.41569903871277 37.26070965809049,188.56244151413557 36.21572435251437,189.08270868218096 35.878281180979684,189.44289217497862 35.8565106538008,190.26997564460908 37.16274228569819,192.33765658002812 37.38044755766168,193.00464197734982 37.434873875638004,193.8183585785664 37.06477491330588,194.49867430552695 36.04156013496686,195.20566453550418 34.5938200763776,195.4591127352178 33.570605297980364,195.93932874417806 30.555387281114236,196.41954261598585 27.442201891797595,199.7142857142826 21.444421648804564,195.27236148788506 22.1084227283136,194.15184721599508 29.205614594800863,184.9872043959258 21.879832192731556,179.41066519034212 21.477077439660206,179.6774918148949 12.823292878398206,190.723534855475 12.496734970482066,190.5634553517375 21.335569012793712,179.15717928568483 21.074322686414234,178.70357144321315 17.558382544026244,175.90183366811107 17.623694125621114,175.608314070676 17.9611372971558,175.56828860915994 18.34212152310647,175.79509936142858 25.96180604235269,181.83876314898953 26.58226606750395,181.70535259220924 27.322463992226403,180.75813289478538" stroke="#4DD2FF" stroke-linecap="round" stroke-linejoin="round" stroke-width="0.5"><title>2024-12-28 10.1km</title><desc>1735347410000</desc></polyline><polyline fill="none" points="64.80584456713405,183.45215483671927 61.05374106581439,186.37067471406044 60.25902469918947,187.50782821920438 59.47733646974666,188.39050010818755 58.46114177146228,189.21749714049656 57.36677825025981,189.8774968469079 56.68280104949372,191.01458907467168 55.30181851083762,192.37430264869909 53.75798425768153,193.47159464489232 52.2662625531666,194.78354992315872 48.142857142869616,198.03549475289037 51.719080792565364,195.2526669071376 53.868723423511256,193.3920813538425 55.17153713924927,192.50947729952895 56.65023070661118,191.0782020390543 57.3537501131068,189.90135213265603 58.428571428579744,189.24135266818485 59.5099068126583,188.36664426859352 60.33719352213666,187.45216382487706 61.060255134361796,186.38657909594622 66.47344612324378,182.22745082765323 66.47344612324378,182.03658578889736 66.71446666066186,182.06044394936907 67.17045146113378,181.77414544636122 70.17343707592227,179.30079203425703 70.76621731661726,178.56910676400003 72.22536867819144,177.5590494456992 72.7920926445513,176.62055693707225 74.23170180042507,175.7138648746477 74.83751017824397,174.87078898640175 76.20546457977616,173.9879336550366 76.48556952868239,173.17665062333253 77.55387677554972,172.4289886735569 78.42024789648713,170.98931752016506 79.0,170.53593381853716 78.57658554241061,170.80637359986576 77.60598932416178,172.31763403082732 76.43997104858863,173.1846044276681 76.20546457977616,173.9561188247826 74.78539762960281,174.88669617977575 74.22518773184856,175.68205088857212 72.73346602733363,176.6444170838222 72.22536867819144,177.5351896344 70.68804849364096,178.6168256194287 70.15389487019274,179.2928389777444 67.11833891252172,181.78209819955373 66.17379896863713,182.38650459890778" stroke="#4DD2FF" stroke-linecap="round" stroke-linejoin="round" stroke-width="0.5"><title>2024-12-24 11.5km</title><desc>1734996352000</desc></polyline><polyline fill="none" points="105.54310082239681,179.19651440969028 100.92110874198261,182.80090246498003 99.06244288760354,185.21043302523321 97.88638440449722,186.2244226758703 96.22509899482247,187.26851775382966 95.32866280837334,188.74428335866833 93.48644532440812,190.55130718432338 91.76759061831399,191.7158125932183 89.04538531828439,194.07488935047877 84.59610112701193,197.55816822820634 88.79043557718978,194.30577407546662 91.62777946997085,191.86639398419356 93.55223880594713,190.5211904462194 95.36155954920105,188.74428335866833 96.32378921718919,187.19824254004925 97.59853792260401,186.47540828100318 98.94730429485207,185.37106588332972 101.0115747791715,182.75070316017081 106.65336582390592,178.3230038034526 107.80475175142055,177.5900509553394 107.77185501065105,177.36915977342142 108.14194334446802,177.3390382025682 108.61894608585862,177.017740759773 112.38562290585833,173.93522955031221 113.06823027716018,173.05162194225704 115.05025890952675,171.6559041947985 115.42857142855064,171.00322228892765 114.95156868713093,171.70611028042913 113.08467864757404,173.00141667912249 112.41029546145,173.87498387898813 108.66829119704198,176.97757849105255 108.18306427047355,177.30891662069916 108.05970149251516,177.19847072599077 107.89521778858034,177.48964594626887 106.69448674988234,178.252720937111 101.06091989032575,182.6703842086572 98.89795918366872,185.37106588332972 97.68077977458597,186.36497470921313 96.19220225399476,187.2885963753215 95.33688699360937,188.7242050929126 94.25951873286976,189.81846342307836 93.3548583612428,190.63161843202397 91.69357295153895,191.77604518270527 88.30520865062135,194.66715756010672 84.57142857142026,197.5682062824999 88.37922631739639,194.6169655045087 91.74291806272231,191.76600642086123 93.7989643618348,190.29029508725944 95.31221443801769,188.77440074808692 96.25799573559198,187.26851775382966 97.59031373739708,186.46536887152615 98.78282059091725,185.52165890253673 99.96710325917229,184.2165102321378 100.8553152604145,182.90130098262307 103.24855315257446,181.03386847152433" stroke="#4DD2FF" stroke-linecap="round" stroke-linejoin="round" stroke-width="0.5"><title>2024-12-21 15.0km</title><desc>1734737288000</desc></polyline><polyline fill="none" points="139.3471041576995,181.52642377254233 135.21043230904615,184.70995921681606 134.42453610291705,185.84378685983393 133.39572652397328,187.01248265513277 132.49551814241568,187.75380962077907 131.18092812490067,188.54745701457432 130.3378758310282,189.8905325008236 128.92326265998418,191.27718781895965 127.18000198455411,192.52428248796787 124.67227863590233,194.66958318053366 121.0,197.56476483197912 125.27956206793897,194.18122771484195 127.11570138589013,192.57660766217305 129.1804650547274,191.05044099287625 130.3378758310282,189.8905325008236 131.138061059115,188.58234241180617 132.30976085731527,187.87590979422384 133.36714848014526,187.029925731018 134.3459464823245,185.9484469649251 135.23901035290328,184.68379375088261 140.44735884628608,180.6018635802102 141.94056163792266,179.6249567767809 145.19131412694696,176.96456241020496 145.79145304797566,176.196954777246 147.44897959183436,175.03680484145298 148.02768497998477,174.05109871985042 149.59233288129326,173.05665573550505 150.3425065325864,172.0709222557416 151.73568617072306,171.18113343669393 151.8571428571595,171.0066637394484 150.27820593389333,172.08836898439768 149.64234445799957,172.99559299531393 147.9919624251197,174.04237559605826 147.38467899314128,175.05425084482704 145.73429696026142,176.20567763765575 145.155591572111,176.95583964255638 141.59762511160807,179.8604623189094 141.49760195810813,180.06979992603738 141.0975093440793,180.16574612409022" stroke="#4DD2FF" stroke-linecap="round" stroke-linejoin="round" stroke-width="0.5"><title>2024-12-17 10.2km</title><desc>1734391788000</desc></polyline><polyline fill="none" points="172.42249412526144,184.6647644218283 169.06198849363136,187.2573184705143 167.71428571428987,188.98799777639942 166.82748561704648,189.75005014532871 165.72481970666558,190.4337522022215 164.9838748885959,191.6088463749693 163.7295194878825,192.79103842533732 162.4751640871982,193.65986308056017 160.89409286121372,195.03428875315512 157.42857142857974,197.74031713274235 164.2429300704971,192.34237800035044 165.0830564784119,191.49489888636526 165.7364881290123,190.42663034712677 166.81581719469978,189.7571720830856 167.52759095697547,189.18029230471802 168.23353050803416,188.41823248611036 169.14950166112976,187.18609599887714 173.13426788750803,184.05934370544855 174.61615752370562,183.06928921574945 177.200713070255,180.93954664614648 177.6907868082053,180.3198410435907 179.032655376388,179.3724622673326 179.5052264808619,178.56041105525583 180.80625557087478,177.741225119069 181.38384247632348,176.95764518439682 182.56818734298577,176.20254909411597 182.83656105663977,175.4688142721934 183.78170326552936,174.79918413608175 184.65100072926725,173.4242811122458 188.28571428571013,170.83111143868518 184.72101126326015,173.32454595176387 183.78753747668816,174.74931775417645 182.82489263432217,175.4403195295854 182.57402155417367,176.15980751332245 181.34300299812458,176.96476868582613 180.77125030386378,177.73410171260184 179.5227291143383,178.51767120426666 179.0384895875468,179.34396943396132 177.63244469653,180.3483333997574 177.2473867595545,180.8611934282053 176.7048051211459,181.30994225007817" stroke="#4DD2FF" stroke-linecap="round" stroke-linejoin="round" stroke-width="0.5"><title>2024-12-14 12.1km</title><desc>1734132056000</desc></polyline><polyline fill="none" points="32.73530307642068,213.41697362444393 28.04751751443837,217.0916415531683 27.12640877245576,218.42693098593736 26.11483399331337,219.57144751223677 24.905878769379342,220.58543567604647 23.450197989615845,221.45886099273048 22.40572646970395,223.09525354656216 20.686871763609815,224.75169134508178 18.861102650000248,226.02662375732325 16.722814498934895,227.90385043713468 11.714285714289872,231.87901244239038 17.462991166627035,227.2914977838882 18.79530916843214,226.0768175420817 21.065184282662813,224.42040645676025 22.52908924766234,222.9446666363001 23.36795613769209,221.53917549821927 24.790740176656982,220.66575103532523 25.98324703014805,219.70196154197038 27.118184587277938,218.4470103606218 28.195552847988438,216.95108350823284 33.99360341153806,212.41293740169203 35.90983856227831,211.13779370873817 39.43801401156816,208.2259740566733 40.498933901893906,209.74214130817563 39.54492841911269,208.16572842218739 40.202863234851975,207.31224385291716 42.168443496804684,205.91652644674468 42.571428571420256,205.2638447004647 42.10265001523658,205.93660887973965 40.21931160520762,207.2620386020717 39.594273530325154,208.07535988760355 35.35881815411267,211.57957801657903 33.70575692964485,212.59366482744372 28.137983551627258,216.96112337656814 27.101736216864083,218.40685160631256 25.9667986597633,219.6618034010462 24.782515991450055,220.62559336551203 23.318611026508734,221.52913618933235 22.40572646970395,223.02497968944226 21.040511727071134,224.39028958250856 18.951568687189138,225.92623609588918 15.966189460887108,228.47604469401267 11.730734084703727,231.80874609651073 16.09777642399422,228.40577543848485 18.729515686893137,226.13705004331132 20.78556198597653,224.68141890463448 22.56198598840274,222.92458836071455 23.42552543405327,221.49901825527922 24.700274139497196,220.73602691030828 26.098385622899514,219.59152660722611 28.220225403580116,216.941043638697 33.93603411511867,212.46313950426702 35.704233932396164,211.29844282287377 39.536704233905766,208.15568747880752 40.22753579044365,207.2821207060988 42.04508071881719,206.00689735665947" stroke="#4DD2FF" stroke-linecap="round" stroke-linejoin="round" stroke-width="0.5"><title>2024-12-07 17.1km</title><desc>1733527336000</desc></polyline><polyline fill="none" points="50.31957003835123,233.9920898002456 50.56569448814844,233.86552647282952 50.43615530405077,234.0 50.53978665135219,233.7785140415217 49.995722078107065,232.4654031303071 50.060491670185,232.34674721583724 57.83931967517128,229.53849366187205 58.739617004670436,229.0322039839084 59.43265163953765,228.27276203098882 72.10158384419628,213.41438353154808 72.53554011089727,212.64684518983267 74.65350577086792,207.1788597030827 75.26233993616188,205.90477633279806 76.61602440994466,203.744316653836 76.86862581895548,203.52272695935972 77.14713506476255,203.57812445425225 76.77147143086768,203.14285714285506 76.65488616516814,203.15077112014114 75.83878930538776,204.25080452910333 75.11336987445247,205.46952470150427 74.25841125939041,207.16303273462836 72.27646174273104,212.4173731932242 71.84250547600095,213.21656524359423 66.88763168427977,219.1033783019302 60.8187209093885,226.09722787475766 60.59202733723214,226.587718333074 59.18652718979865,228.20156389039767 58.52587735088309,228.86607681920577 58.05305932892952,229.17459835666523 50.13173822144745,232.03824081889616" stroke="#4DD2FF" stroke-linecap="round" stroke-linejoin="round" stroke-width="0.5"><title>2024-11-30 11.9km</title><desc>1732919585000</desc></polyline><polyline fill="none" points="87.3003985574469,203.62585523276357 96.52848265063949,213.23204009170877 112.04045257903636,233.9463372878963 112.61171492771246,233.73168637428898 111.38130371528678,231.85348639875883 96.52848265063949,212.42706061003264 87.78377439081669,203.1428571428405 87.3003985574469,203.62585523276357 96.6163691659458,213.39303581079002 112.04045257903636,234.0 112.69960144278593,233.83901184413116 112.43594189733267,233.19505863025552 97.27551802969538,213.2857053379994 87.78377439081669,203.1965236234537 87.38828507252038,203.73318806957104 96.6163691659458,213.2857053379994 112.0843958365731,233.9463372878963 112.56777166994289,233.46337258434505 97.80283712083474,213.876022613229 87.91560416365974,203.35752302623587 87.34434181498364,203.6795216544415 96.7042556812521,213.39303581079002 112.0843958365731,234.0 112.74354470032267,233.83901184413116 112.0843958365731,232.7120930996607 96.88002871139906,212.80271788532264 87.78377439081669,203.1965236234537 87.3003985574469,203.62585523276357 96.35270962049253,213.12470957951155 112.0843958365731,234.0 112.52382841240615,233.35604702256387 97.23157477215864,213.2857053379994 87.73983113327995,203.1965236234537 87.34434181498364,203.6795216544415 96.6163691659458,213.39303581079002 111.99650932149962,233.9463372878963 112.56777166994289,233.570698119991 97.40734780253842,213.44670103731914 87.78377439081669,203.25019009766402 87.25645529967733,203.5721888046537 96.66031242348254,213.5003662572417 111.9086228061933,233.7853491124988 112.6556581852492,233.570698119991 107.16275098687038,226.43349281011615" stroke="#4DD2FF" stroke-linecap="round" stroke-linejoin="round" stroke-width="0.5"><title>2024-11-26 10.9km</title><desc>1732619882000</desc></polyline><polyline fill="none" points="123.79488100809976,203.4088763523614 132.5513354029972,212.66624346314347 148.452359552728,233.8935998211091 148.71374625107273,232.9359970400692 135.47015353455208,215.37957233685302 124.18696105550043,203.14285714286962 124.23052550549619,204.26013672866975 133.03054434992373,213.30467530959868 148.452359552728,233.78719961631577 148.75731070083566,233.04239745336236 134.11965559283271,213.73029601975577 125.5374589972198,204.47295156255132 124.23052550549619,203.3024686879653 124.01270325691439,203.8877105190477 133.03054434992373,213.19827006699052 148.452359552728,233.78719961631577 149.01869739918038,233.73399950415478 148.75731070083566,233.0955976502446 133.9889622440096,213.623890881252 124.36121885455213,203.14285714286962 124.18696105550043,204.26013672866975 133.11767324944958,213.4110805261298 148.452359552728,233.8935998211091 148.80087515036575,233.0955976502446 134.33747784164734,213.9431062186486 124.31765440478921,203.14285714286962 123.92557435738854,203.67489539898816 132.9869799001608,213.25147269148147 148.36523065320216,233.73399950415478 148.93156849965453,233.20199802421848 133.77113999519497,213.30467530959868 124.36121885455213,203.24926484611933 123.83844545786269,203.72809918885469 133.11767324944958,213.4110805261298 148.6701818013098,234.0 148.452359552728,232.61679564474616 133.94539779424667,213.57068830230855 124.36121885455213,203.1960609976377 124.31765440478921,204.26013672866975 132.89985100063495,213.1450674358348 148.32166620343924,233.73399950415478 148.75731070083566,233.04239745336236 134.2067844925914,213.78349857914145 124.31765440478921,203.24926484611933 123.96913880691864,203.62169160260237 133.11767324944958,213.4110805261298 148.32166620343924,233.62759926024592 149.0622618489433,233.57439912841073 148.75731070083566,232.98919725010637 132.9434154506307,212.3470271883707 124.36121885455213,203.3024686879653 124.27408995502628,204.10052553520654 133.07410879968666,213.30467530959868 148.4087951029651,233.78719961631577 148.97513294941746,233.62759926024592 148.71374625107273,232.98919725010637 133.9889622440096,213.57068830230855 124.36121885455213,203.4088763523614" stroke="#4DD2FF" stroke-linecap="round" stroke-linejoin="round" stroke-width="0.5"><title>2024-11-16 14.9km</title><desc>1731755814000</desc></polyline><polyline fill="none" points="160.11397894774564,203.62418112152955 169.57282226206735,213.51794548064936 184.98723358893767,233.94652330048848 185.2937701777555,233.14437202215777 169.7041950856801,212.7157567134127 160.94600683171302,203.46373985425453 160.33293365407735,203.2498180726543 160.376724595204,203.89158310284256 169.44144943822175,213.3040286200703 184.89965170621872,233.94652330048848 185.42514300136827,233.41175594521337 182.57873181882314,229.45445718377596 170.3172682635486,213.51794548064936 160.90221589058638,203.41025941859698 160.2891427129507,203.78462233007303 169.79177696839906,213.73186223665834 184.72448794124648,233.78609316251823 185.46893394272774,233.46523271023761 170.18589543970302,213.3575078450085 160.81463400810026,203.2498180726543 160.33293365407735,203.67766153081902 169.79177696839906,213.67838305755868 184.89965170621872,233.83956988179125 185.38135206024162,233.14437202215777 170.75517767621204,213.9992580343387 160.77084306674078,203.30329852792784 160.33293365407735,203.83810271977563 169.52903132070787,213.3575078450085 184.89965170621872,234.0 185.60030676657334,233.5721862206119 170.75517767621204,213.9992580343387 162.8728082475718,205.44251136865932 160.5956793015357,203.30329852792784 160.376724595204,203.73114193370566 169.57282226206735,213.41098706348566 184.8120698237326,233.83956988179125 185.51272488408722,233.5721862206119 171.93753309058957,215.60362938581966 160.6394702428952,203.19633761106525 160.33293365407735,203.78462233007303 169.52903132070787,213.41098706348566 185.03102453006431,234.0 185.5565158254467,233.51870946859708 170.01073167473078,213.09011165468837 160.5956793015357,203.14285714286962 160.5956793015357,203.94506347944844 169.4852403793484,213.3575078450085 184.85586076509207,233.94652330048848 185.51272488408722,233.83956988179125 185.20618829503655,233.14437202215777 169.9669407333713,213.14359090579092 160.376724595204,203.67766153081902 169.8355679095257,213.8922997348709 184.89965170621872,233.94652330048848 185.2937701777555,233.2513256111124 178.41859239828773,224.2671329274599" stroke="#4DD2FF" stroke-linecap="round" stroke-linejoin="round" stroke-width="0.5"><title>2024-11-10 14.3km</title><desc>1731237417000</desc></polyline><polyline fill="none" points="14.509173678001389,237.96152854379034 24.895414316095412,249.10018301426317 39.07830594293773,268.07254635807476 39.732900941278785,268.01925435994053 38.90374727686867,266.68695228599245 25.462729980936274,248.83371135251946 15.163768676342443,237.7483457759663 14.6400926776696,238.06811988857226 23.760782985715196,247.66123410422006 39.20922494260594,268.2857142857101 39.820180274313316,268.07254635807476 38.90374727686867,266.74024444728275 24.153539984486997,247.23487795869005 15.076489343307912,237.7483457759663 14.465534011600539,237.90823286169325 23.673503652680665,247.60793960874435 39.16558527620509,268.2857142857101 39.820180274313316,267.80608630192 24.37173831742257,247.5546451069531 15.076489343307912,237.69505006761756 14.465534011600539,237.96152854379034 23.411665653577074,247.3414670342172 39.2965042758733,268.17913033496006 39.645621608011425,267.5396260827547 24.4590176504571,247.60793960874435 14.945570343639702,237.48186716949567 14.72737201093696,238.12141555114067 23.848062318749726,247.60793960874435 39.25286460900679,268.12583834968973 39.776540607679635,267.80608630192 39.20922494260594,266.90012089165975 24.93905398249626,248.140884269058 15.076489343307912,237.53516290392145 14.5528133448679,237.7483457759663 25.811847313307226,250.11277384209097 39.16558527620509,268.07254635807476 39.689261274645105,267.85937832613126 38.68554894416593,266.26061476187897 25.113612648565322,248.40735635455349 15.032849676674232,237.42857142857974 14.59645301126875,238.12141555114067 24.58993665012531,248.5672395277652 39.07830594293773,268.07254635807476 39.776540607679635,267.9659623551124 39.12194560957141,266.90012089165975 25.462729980936274,248.67382827715483 15.120129009708762,237.69505006761756 14.6400926776696,237.90823286169325 24.022620985051617,247.87441202052287 39.20922494260594,267.9659623551124 39.514702608343214,267.3264577900409 26.59736131108366,250.325950558763" stroke="#4DD2FF" stroke-linecap="round" stroke-linejoin="round" stroke-width="0.5"><title>2024-10-26 12.9km</title><desc>1729940418000</desc></polyline><polyline fill="none" points="54.147404298884794,237.66311222894 60.01855770300608,243.76110252997023 68.96246429067105,255.6216398155084 70.7457585488446,257.02878811911796 72.88571165886242,259.9770754069614 69.45629962370731,268.25221221573884 72.96801754762419,260.0105784892803 60.128298888215795,243.39254653218086 54.31201607652474,237.495583106298 60.10086359188426,243.86161771600018 69.73065258644056,256.6267464844277 70.77319384517614,257.0957950008451 72.88571165886242,260.1110877114115 69.42886432749219,268.2857142857101 72.9954528438393,260.1445907773159 60.37521655461751,243.56007204717025 54.25714548409451,237.59610059225815 60.045992999337614,243.86161771600018 69.62091140123084,256.5262359835324 70.69088795641437,256.99528467215714 72.83084106619935,259.9435723206552 69.40142903104424,268.2187101415475 72.91314695507754,259.9770754069614 60.73187540634535,244.0291429440258 54.31201607652474,237.42857142857974 60.29291066573933,244.1631630527263 69.127076068311,255.92317220341647 70.80062914139125,257.06229156200425 72.83084106619935,259.9100692301581 69.42886432749219,268.2187101415475 72.96801754762419,260.1110877114115 60.045992999337614,243.29203117394354 54.668674928252585,237.5625947676599 54.25714548409451,237.495583106298 54.44919255794957,237.9311586120166 59.414981184876524,243.15801063895924 59.414981184876524,242.52141220195335 56.58914566785097,239.67345370625844" stroke="#4DD2FF" stroke-linecap="round" stroke-linejoin="round" stroke-width="0.5"><title>2024-10-19 10.6km</title><desc>1729335763000</desc></polyline></svg>