<?xml version="1.0" encoding="utf-8" ?>
<svg baseProfile="full" height="300mm" version="1.1" viewBox="0,0,200,300" width="200mm" xmlns="http://www.w3.org/2000/svg" xmlns:ev="http://www.w3.org/2001/xml-events" xmlns:xlink="http://www.w3.org/1999/xlink"><defs /><rect fill="#222222" height="300" width="200" x="0" y="0" /><text fill="#FFFFFF" style="font-size:12px; font-family:Arial; font-weight:bold;" x="10" y="20">Over 10km Runs</text><text fill="#FFFFFF" style="font-size:4px; font-family:Arial" x="10" y="280">Runner</text><text fill="#FFFFFF" style="font-size:9px; font-family:Arial" x="10" y="290">unsung</text><text fill="#FFFFFF" style="font-size:4px; font-family:Arial" x="65" y="280">SPECIAL TRACKS</text><rect fill="yellow" height="2.6" width="2.6" x="65" y="283" /><text fill="#FFFFFF" style="font-size:3px; font-family:Arial" x="70" y="285.5">Over 20.0 km</text><rect fill="red" height="2.6" width="2.6" x="65" y="287" /><text fill="#FFFFFF" style="font-size:3px; font-family:Arial" x="70" y="289.5">Over 40.0 km</text><text fill="#FFFFFF" style="font-size:4px; font-family:Arial" x="120" y="280">STATISTICS</text><text fill="#FFFFFF" style="font-size:3px; font-family:Arial" x="120" y="285">Number: 31</text><text fill="#FFFFFF" style="font-size:3px; font-family:Arial" x="120" y="290">Weekly: 1.6</text><text fill="#FFFFFF" style="font-size:3px; font-family:Arial" x="141" y="285">Total: 375.6 km</text><text fill="#FFFFFF" style="font-size:3px; font-family:Arial" x="141" y="290">Avg: 12.1 km</text><text fill="#FFFFFF" style="font-size:3px; font-family:Arial" x="167" y="285">Min: 10.0 km</text><text fill="#FFFFFF" style="font-size:3px; font-family:Arial" x="167" y="290">Max: 21.1 km</text><polyline fill="none" points="22.42715204495471,31.714285714289872 22.07375025784131,32.11890906166809 26.46918498596642,36.67761412622349 31.946912687504664,43.93358338555845 31.814387017278932,44.4460777616041 26.955112443305552,47.22431601466087 25.342716789338738,45.41711647040211 17.126125237089582,33.467648189733154 28.832559437840246,50.59591735941649 26.933024831698276,47.38615405721066 32.10152596945409,44.473051116787246 34.53116325638257,47.35918105831661 35.45884294772986,47.763775694416836 37.09332621342037,50.19132792016899 34.332374750985764,56.556782389161526 34.35446236282587,57.60868302016752 31.240109113045037,61.46560907042294 29.693976294249296,62.57142857143481 31.394722395110875,61.30378136120271 34.42072519788053,57.581711271748645 34.332374750985764,56.63769800036971 37.13750143686775,50.16435526452551 27.153900948702358,37.10920262048603 22.338801598292775,31.957059811771614 22.095837869565003,32.17285878522671 26.579623044468462,36.78551132895518 31.969000299228355,44.0145036294125 31.659773735445924,44.553971162677044 26.888849608250894,47.251289030056796 17.170300460536964,33.440673488003085 28.832559437840246,50.56894475319132 26.955112443305552,47.413127052699565 32.12361358106136,44.4460777616041 34.553250867989846,47.27826204201847 35.43675533600617,47.763775694416836 37.09332621342037,50.1104099432705 34.376549974433146,56.50283863169898 34.42072519788053,57.500796006876044 31.37263478327077,61.35772394419473 29.760239129303955,62.54445743012184 31.350547171663493,61.38469523069216 34.442812809487805,57.52776776510291 34.376549974433146,56.610726133265416 37.15958904859144,50.54197214372107 34.42072519788053,46.54998955888732" stroke="#4DD2FF" stroke-linecap="round" stroke-linejoin="round" stroke-width="0.5"><title>2025-06-20 10.0km</title><desc>1750370921000</desc></polyline><polyline fill="none" points="58.695102121680975,31.714285714289872 58.58427652053069,32.20153719978407 63.03946568595711,36.857441719083 68.35909454035573,43.868182860838715 68.18177357863169,44.409543593777926 63.28328200848773,47.19753039232455 53.574959349352866,33.47379990808258 65.34463818965014,50.8245674342179 63.39410760963801,47.414071586041246 68.53641550219618,44.463679594235145 70.95241360692307,47.33286866324488 71.8390184158925,47.71181538148085 73.50140243303031,50.12081862715422 70.77509264508262,56.56274340880918 70.79725776519626,57.510069471012685 67.76063629426062,61.38053096256044 66.12041739746928,62.57142857143481 67.6719758133404,61.51586055904045 70.8859182462329,57.510069471012685 70.70859728439245,56.77927543775877 73.59006291383412,50.14788593038975 63.682254172628745,37.23640637945209 58.65077188110445,31.79549436972593 58.606441640644334,32.17446770094102 63.438437850098126,37.317613007864566 68.33692942012567,43.868182860838715 68.070947977365,44.490747589530656 63.39410760963801,47.14339506078977 61.64306311169639,45.19451430377376 53.552794229006395,33.31138379953336 65.32247306930367,50.77043299005891 63.39410760963801,47.38700394844636 68.46992014150601,44.463679594235145 70.97457872703671,47.30580101571104 71.86118353612255,47.7388829793199 73.52356755314395,50.06668401088973 70.75292752485257,56.61687643590267 70.81942288554274,57.510069471012685 67.71630605380051,61.46172873038449 66.12041739746928,62.51729700091528 67.71630605380051,61.43466281102155 70.75292752485257,57.6724678172759 70.75292752485257,56.67100944973936 73.59006291383412,50.44562604706152 71.04107408772688,46.845650500501506" stroke="#4DD2FF" stroke-linecap="round" stroke-linejoin="round" stroke-width="0.5"><title>2025-06-17 10.0km</title><desc>1750111475000</desc></polyline><polyline fill="none" points="94.85975606797729,31.985456822119886 95.17061315232422,31.90410552461981 95.05959276505746,32.283744657514035 99.45600010221824,36.785130521282554 104.7627746151993,43.808194543395075 104.25208083365578,44.59454693175212 99.54481641203165,47.0891636308952 89.97485902672634,33.314190454548225 101.78742823551875,50.803921247352264 99.855673496495,47.36031592816289 105.07363169966266,44.404737990000285 107.3384476006031,47.19762458962214 108.24881477642339,47.68569824712176 109.95852874091361,50.09893553715665 107.20522313576657,56.606410763881286 107.3384476006031,57.39271775052475 104.16326452372596,61.43266484084597 102.54236686916556,62.54431521715014 104.0522441364592,61.5411187815771 107.27183536812663,57.58251557085896 107.18301905831322,56.769095196868875 110.02514097327366,50.07182065740926 99.67804087675177,36.568198359702365 95.10400091996416,31.714285714289872 94.97077645524405,32.06680808983219 99.58922456693836,36.920713014522335 104.85159092501272,43.9980039960501 99.70024495432153,47.143394116923446 89.97485902672634,33.314190454548225 101.87624454533216,50.83103603756172 99.855673496495,47.36031592816289 104.98481538973283,44.37762241357996 107.36065167794004,47.17050935488078 108.22661069897003,47.63146789371967 109.98073281825054,49.99047599810001 107.24963129067328,56.49795440895832 107.20522313576657,57.58251557085896 104.1410604462726,61.45977833104553 102.58677502407227,62.57142857143481 104.11885636881925,61.51400530136016 107.2940394456964,57.52828763872094 107.20522313576657,56.714867065806175 110.00293689582031,50.09893553715665 100.1887346584117,37.19187775206228" stroke="#4DD2FF" stroke-linecap="round" stroke-linejoin="round" stroke-width="0.5"><title>2025-06-15 10.5km</title><desc>1749940293000</desc></polyline><polyline fill="none" points="131.49250199098606,31.714285714289872 135.99597208458,36.91614228155231 141.2315333756851,43.905944621379604 141.09842588519678,44.339413470050204 136.17344873852562,47.15694030521263 126.39004819036927,33.39406525682716 138.19224567699712,50.787162418011576 136.26218706555665,47.40076305749244 141.4755637748167,44.42068878475402 143.84931402129587,47.34658024687087 144.67014354572166,47.67167691193754 146.4227255032165,50.21825094433734 143.62746820377652,56.63873846772185 143.71620653080754,57.42435496172402 140.58818050520495,61.433664703014074 138.99089061981067,62.57142857143481 140.6103650869336,61.433664703014074 143.7383911125362,57.53271563872113 143.62746820377652,56.74709952912235 146.46709466679022,50.05570454064582 136.81680160900578,37.48508792981738 131.44813282752875,31.714285714289872 131.6699786449317,32.36452446821204 136.06252582988236,36.970327644390636 141.2315333756851,43.85176095562929 141.05405672173947,44.36650524487777 135.99597208458,47.10275743485545 126.45660193567164,33.28569276766211 138.3031685857568,50.787162418011576 136.2843716472853,47.34658024687087 141.54211752011906,44.393597016474814 143.8271294394508,47.292397422963404 144.71451270906255,47.69876827922417 146.3783563397592,50.00152237947623 143.62746820377652,56.58455791712913 143.7383911125362,57.478535306829144 140.58818050520495,61.406575015877024 138.9687060379656,62.51724947209004 140.5659959234763,61.460754386906046 143.7827602759935,57.45144513595733 143.64965278550517,56.63873846772185 146.46709466679022,50.46207032626262 144.0711598385824,46.99439165445801" stroke="#4DD2FF" stroke-linecap="round" stroke-linejoin="round" stroke-width="0.5"><title>2025-06-13 10.0km</title><desc>1749765414000</desc></polyline><polyline fill="none" points="165.24997807864565,31.741450578148942 169.92104417062365,36.92987862158043 177.77288383967243,47.30637097987346 178.5736380269518,47.57800039212452 180.353091776371,50.10413801134564 177.5504521210678,56.59590824089537 177.6616679803701,57.43792311086145 174.68108295020647,61.24053114319395 172.9461155445315,62.57142857143481 174.50313757534605,61.4849822891847 177.6616679803701,57.57373166189063 177.6394248084398,56.6230700606975 180.46430763567332,50.10413801134564 170.0767463737866,36.60390765446937 165.22773490671534,31.768615438602865 170.32142126432154,37.28301329592068 177.72839749604464,47.22488209133735 178.64036754250992,47.65948915106128 180.353091776371,50.02265014965087 177.61718163674232,56.56874641770264 177.68391115230042,57.46508482766512 174.52538074715994,61.40349860377319 172.9683587164618,62.517106383515056 174.54762391897384,61.40349860377319 177.68391115230042,57.519408251391724 177.594938464812,56.6230700606975 180.48655080748722,50.1584632358863 170.05450320185628,36.52241483792022 165.24997807864565,31.714285714289872 169.74309879576322,36.57674338556535 177.72839749604464,47.19771912190481 178.64036754250992,47.65948915106128 180.3753349481849,50.0769753940549 177.594938464812,56.56874641770264 177.6616679803701,57.43792311086145 174.52538074715994,61.43065983556153 172.9461155445315,62.517106383515056 174.56986709090415,61.37633736869611 177.68391115230042,57.519408251391724 177.594938464812,56.6230700606975 180.4198212919291,50.10413801134564 170.32142126432154,36.84838592467713 165.47240979713388,31.714285714289872 165.40568028157577,32.040263860690175 170.01001685811207,36.87555016033002 172.10087501362432,39.64628473612538" stroke="#4DD2FF" stroke-linecap="round" stroke-linejoin="round" stroke-width="0.5"><title>2025-06-09 10.0km</title><desc>1749421393000</desc></polyline><polyline fill="none" points="19.588893017498776,66.29672386070888 19.721418703906238,66.0 19.633068246301264,66.64739699945494 24.227292041759938,71.28701986174565 31.44994195108302,80.91662312796689 32.84146165836137,82.02251702724607 34.58638319617603,84.45006954995915 31.781256167101674,90.97735601027671 31.957957082195207,91.7325667659461 28.75525299401488,95.7782946293155 27.23120760032907,96.85714285714494 28.84360345173627,95.67040951631498 31.980044696712866,91.78651029235334 31.847519010305405,91.00432786757301 34.6305584248621,84.5309875071398 25.397935605142266,72.31203965107852 19.588893017498776,66.2697489807615 24.249379656277597,71.34096839051927 31.980044696712866,81.61792234164022 32.86354927276261,82.02251702724607 34.60847081046086,84.50401485801558 31.847519010305405,90.95038414970622 31.847519010305405,91.89439730570302 28.84360345173627,95.69738079948002 27.209119986044243,96.85714285714494 28.865691066137515,95.69738079948002 31.980044696712866,91.81348205065296 31.82543139590416,91.03129972147872 34.718908882467076,84.50401485801558 24.38190534268506,71.04425131881726 19.588893017498776,66.24277409756905 24.205204427358694,71.28701986174565 31.913781853509136,81.53700331546133 32.92981211596634,82.07646292925347 34.60847081046086,84.45006954995915 31.82543139590416,90.95038414970622 31.93586946791038,91.75953853080864 28.77734060853254,95.75132335606031 27.209119986044243,96.8301717156719 28.84360345173627,95.69738079948002 31.891694238991477,91.92136905074585 31.82543139590416,91.13918710427242 34.6305584248621,84.45006954995915 24.558606257895008,71.20609704378876 19.566805403097533,66.215799210986 24.205204427358694,71.26004559238208 31.494117179885507,80.9705693005235 32.885636887163855,82.04948997995234 34.60847081046086,84.45006954995915 31.847519010305405,90.89644041872816 31.803343781502917,91.97531253093621 28.75525299401488,95.75132335606031 27.187032371526584,96.8301717156719 28.733165379730053,95.83223716613429 31.980044696712866,91.81348205065296 31.847519010305405,91.00432786757301 34.6305584248621,84.88163164485013 34.49803273845464,84.18034281174187 31.82543139590416,80.78175763881882" stroke="#4DD2FF" stroke-linecap="round" stroke-linejoin="round" stroke-width="0.5"><title>2025-06-07 12.0km</title><desc>1749247836000</desc></polyline><polyline fill="none" points="56.32361128088087,66.0 56.12534272286575,66.67260812442692 60.55334052047692,71.30009624926606 68.37393364543095,81.63088114584389 69.40933611569926,82.19583194874576 71.01751442020759,84.53632695693523 68.21972476702649,91.01963708616677 68.32987396593671,91.79977355497249 65.20163671590853,95.75421585008735 63.637518090894446,96.83024226412817 65.20163671590853,95.78111657453701 68.37393364543095,91.88047716973233 68.26378444663715,91.04653838975355 71.12766361923423,84.64393532389659 60.88378811720759,71.19248135243834 56.015193523839116,66.34975648141699 60.72957923868671,71.46151849583839 68.35190380585846,81.5770762317552 69.29918691667262,82.06131998445198 71.01751442020759,84.4825227537076 68.24175460683182,90.9389331555285 68.32987396593671,91.79977355497249 65.22366655571386,95.72731512223254 63.637518090894446,96.83024226412817 65.20163671590853,95.83491801377386 68.41799332515802,91.79977355497249 68.30784412613139,90.9389331555285 71.14969345892314,84.61703323712572 60.97190747631248,71.30009624926606 56.0812830432551,66.24213916182634 60.7075493989978,71.43461479635153 68.35190380585846,81.5770762317552 69.2771570768673,82.00751517571916 71.01751442020759,84.50942485700944 68.21972476702649,90.96583446898148 68.32987396593671,91.79977355497249 65.13554719660897,95.75421585008735 63.6815777705051,96.85714285714494 65.13554719660897,95.86181872838642 68.3959634853527,91.79977355497249 68.26378444663715,91.0734396900225 71.1056337794289,84.64393532389659 61.06002683553379,71.43461479635153 56.27955160138663,66.29594782815548 55.99316368403379,66.45737374843156 60.7075493989978,71.40771109353227 63.196921295137145,74.6899385421566" stroke="#4DD2FF" stroke-linecap="round" stroke-linejoin="round" stroke-width="0.5"><title>2025-06-05 10.1km</title><desc>1749073951000</desc></polyline><polyline fill="none" points="92.58190218219534,66.0 92.47068632289302,66.3259781464003 96.98605021194089,71.07977172915707 107.50707050506026,84.38985229705577 104.65994450612925,90.96310797618935 104.83788988098968,91.66931395290885 101.67935947596561,95.71637412127166 100.10009427333716,96.85714285714494 101.70160264777951,95.71637412127166 104.81564670905937,91.85944594760076 104.74891719350126,90.96310797618935 107.59604319254868,84.41701491094136 97.34194096177816,71.02544323462644 92.40395680733491,66.05432972431299 97.14175241498742,71.21559290729056 107.50707050506026,84.49850273283664 104.68218767794315,90.90878434640763 104.81564670905937,91.72363739657158 101.67935947596561,95.68921288948331 100.07785110140685,96.82998176476394 101.6571163040353,95.77069657489483 104.83788988098968,91.80512253710185 104.79340353736188,90.8816225266055 107.55155684880447,84.36268967976503 97.38642730552237,71.07977172915707 92.40395680733491,66.1086594353983 97.05277972761542,71.16126444604015 107.50707050506026,84.38985229705577 104.68218767794315,90.90878434640763 104.81564670905937,91.69647567640641 101.61262996029109,95.77069657489483 100.07785110140685,96.82998176476394 101.61262996029109,95.79785779678787 104.83788988098968,91.83228424402478 104.74891719350126,90.90878434640763 107.59604319254868,84.55282793073275 97.72007488354575,71.48723501434142 92.73760438535828,66.08149458150729 92.44844315107912,66.24448365472199 95.96286430605687,69.83021299167012 99.23261057049967,73.95916291514004" stroke="#4DD2FF" stroke-linecap="round" stroke-linejoin="round" stroke-width="0.5"><title>2025-06-03 10.0km</title><desc>1748953280000</desc></polyline><polyline fill="none" points="128.80798920127563,66.16327657183865 133.53185888601,71.08873013949778 144.00458884751424,84.3950731253426 141.21928832586855,90.78945375490002 141.24157072999515,91.76900221144024 138.2557285707444,95.60552546958206 136.56226585351396,96.85714285714494 138.18888135824818,95.63273461807694 141.33070034661796,91.71458296588389 141.24157072999515,90.89829268524772 144.02687125175726,84.42228364515177 133.71011811937205,70.84382066070975 128.87483641377185,66.0 133.53185888601,71.06151798853534 144.00458884751424,84.36786260227382 141.19700592162553,90.87108295768849 141.21928832586855,91.76900221144024 138.12203414575197,95.71436204364 136.56226585351396,96.82993385827285 138.21116376237478,95.63273461807694 141.28613553836476,91.82342144366703 141.24157072999515,90.87108295768849 144.00458884751424,84.36786260227382 134.06663658621255,71.27921510321903 128.87483641377185,66.02721277032106 133.509576481767,71.0343058341823 144.00458884751424,84.36786260227382 141.21928832586855,90.87108295768849 141.28613553836476,91.7417925902846 138.18888135824818,95.65994376331219 136.56226585351396,96.82993385827285 138.21116376237478,95.65994376331219 141.33070034661796,91.76900221144024 141.26385313412175,90.76224401404033 144.04915365576744,84.55833619406621 134.222613415448,71.4696999037842 129.16450766811613,66.0 128.9862484347541,66.29934029011929 133.59870609862264,71.14315443151281 136.11661777005065,74.40858758043032" stroke="#4DD2FF" stroke-linecap="round" stroke-linejoin="round" stroke-width="0.5"><title>2025-05-31 10.0km</title><desc>1748691698000</desc></polyline><polyline fill="none" points="165.45779203262646,66.0 165.34735396062024,66.45857307099504 169.87531491287518,71.12517419617507 177.8268560974393,81.69884133820597 178.62201021588407,81.99554407128016 180.34484413918108,84.47704220567539 177.49554188142065,91.03129972147872 177.69433041091543,91.7325667659461 174.60206439485773,95.64343822974479 172.9675809290493,96.8301717156719 174.51371393725276,95.72435207937087 177.7164180254331,91.75953853080864 177.58389233902562,91.03129972147872 180.43319459678605,84.47704220567539 170.00784059928264,70.96332841180265 165.2810911174165,66.24277409756905 169.98575298499782,71.26004559238208 177.8268560974393,81.67186834262975 178.66618544468656,82.02251702724607 180.36693175358232,84.47704220567539 177.60597995342687,90.81552479762468 177.6280675677117,91.8404538055911 174.535801551654,95.72435207937087 173.0117561579682,96.8301717156719 174.55788916593883,95.69738079948002 177.60597995342687,91.8404538055911 177.60597995342687,90.86946854832058 180.43319459678605,84.58493279540562 170.56003095943015,71.61071083639399 165.30317873181775,66.18882432121609 170.00784059928264,71.31399412776227 177.76059325423557,81.61792234164022 178.71036067348905,82.07646292925347 180.34484413918108,84.45006954995915 177.49554188142065,90.97735601027671 177.65015518222935,91.75953853080864 174.51371393725276,95.7782946293155 172.9675809290493,96.8301717156719 174.44745109404903,95.80526589938381 177.6722427966306,91.92136905074585 177.6280675677117,90.95038414970622 180.4111069823848,84.5309875071398 170.51585573051125,71.55676237359876 165.30317873181775,66.24277409756905 169.80905206978787,71.0172770197969 177.53971711022314,81.34819213884475 178.5778349870816,81.99554407128016 180.3006689103786,84.39612422876235 177.5176294958219,90.92341228590521 177.65015518222935,91.7325667659461 174.51371393725276,95.75132335606031 172.94549331476446,96.85714285714494 174.66832723806147,95.58949564688373 177.69433041091543,91.81348205065296 177.58389233902562,91.00432786757301 180.4111069823848,84.5309875071398 170.40541765850503,71.47583965471131 165.2810911174165,66.2697489807615 169.98575298499782,71.31399412776227 177.6722427966306,81.53700331546133 178.64409783028532,82.10343587528041 180.36693175358232,84.58493279540562 177.53971711022314,90.92341228590521 177.6722427966306,91.75953853080864 174.60206439485773,95.64343822974479 172.9234057002468,96.85714285714494 174.51371393725276,95.7782946293155 177.60597995342687,91.9483407924854 177.56180472462438,91.03129972147872 180.4111069823848,84.5309875071398" stroke="#4DD2FF" stroke-linecap="round" stroke-linejoin="round" stroke-width="0.5"><title>2025-03-01 15.0km</title><desc>1740782421000</desc></polyline><polyline fill="none" points="17.768842643359676,100.31875379750272 18.174644136917777,100.28571428573923 18.066430405247957,100.88042487995699 23.693544448236935,106.76138134807115 33.13519252999686,119.31580368362484 34.271436711773276,119.84439813546487 36.38160447787959,122.8177226492553 32.91876506677363,131.14285714286962 36.462764776544645,122.88379615545273 23.9911322100088,106.59618768995279 18.066430405247957,100.58306974652805 23.77470474690199,106.82745878299465 33.21635282866191,119.41491522212164 34.217329845996574,119.81136101257289 36.38160447787959,122.75164912673063 32.86465820099693,131.10982140206033 36.51687164232135,122.94986964555574 24.288719972013496,106.95961360429646 18.255804435466416,100.51699078353704 17.9311632408062,100.64914869333734 24.045239075901918,107.12480704000336 33.16224596276879,119.31580368362484 34.325543577433564,119.91047236917075 36.32749761198647,122.75164912673063 32.89171163388528,131.10982140206033 36.51687164232135,122.9829063845973 24.423987136571668,107.09176836098777 18.39107160002459,100.61610922191176 17.904109807801433,100.61610922191176 23.801758179906756,106.89353620170732 33.24340626155026,119.41491522212164 34.271436711773276,119.81136101257289 36.38160447787959,122.78468589001568 32.86465820099693,131.0767856571474 36.489818209433,122.94986964555574 23.747651314013638,106.29883885080926" stroke="#4DD2FF" stroke-linecap="round" stroke-linejoin="round" stroke-width="0.5"><title>2025-02-25 10.0km</title><desc>1740436543000</desc></polyline><polyline fill="none" points="54.68839129130356,100.28571428573923 54.471731845405884,100.88106226114905 60.077795007033274,106.73524751226068 69.63789305544924,119.43541694566375 70.63994299259502,119.86536015727324 72.72529015899636,122.70958264233195 69.23165659455117,131.1097859919537 72.80653745122254,122.77572699525626 60.456949037266895,106.73524751226068 54.28215483028907,100.55031354777748 59.99654771480709,106.63602508956683 69.61081062466837,119.40234436251922 70.82952000771184,120.06379525511875 72.6982077282155,122.77572699525626 69.2045741637703,131.07671483693412 72.77945502044167,122.80879916570848 60.05071257625241,106.23913503487711 54.33631969161797,100.55031354777748 59.94238285324536,106.60295094063622 68.79833770287223,118.41016498929821 70.63994299259502,119.93150520618656 72.6982077282155,122.74265482075862 69.23165659455117,131.07671483693412 72.77945502044167,122.80879916570848 60.86318549816497,107.16521092268522 54.30923726095352,100.55031354777748 60.077795007033274,106.70217337540817 69.55664576333947,119.36927177547477 70.66702542325947,119.89843268369441 72.77945502044167,122.80879916570848 69.28582145599648,131.01057251478778 72.83361988188699,122.94108780677198 60.646526052383706,106.93369224818889 54.715473721851595,100.58338843728416 54.33631969161797,100.64953820433584 60.24028959136922,106.93369224818889 69.44831604033243,119.17083616781747 70.69410785404034,119.89843268369441 72.75237258977722,122.77572699525626 69.25873902521562,131.14285714286962 72.86070231255144,123.1725927729567 70.58577813114971,119.79921509235282" stroke="#4DD2FF" stroke-linecap="round" stroke-linejoin="round" stroke-width="0.5"><title>2025-02-22 12.0km</title><desc>1740177306000</desc></polyline><polyline fill="none" points="90.9214648574125,100.28571428571013 90.7586211777525,100.7829034148308 96.34958751359954,106.61652102871449 105.71309909562115,119.11197240572073 107.09727037302218,119.97370642982423 109.10567575576715,122.72460824338486 105.60453664255328,131.07657274007215 109.21423820883501,122.82403790645185 96.8923997792881,106.71595660375897 91.11144915025216,100.55088193475967 90.6771993378643,100.55088193475967 96.86525916599203,107.246279053943 105.95736461505294,119.37712162808748 106.9887079198379,119.84113214293029 109.15995698235929,122.82403790645185 105.65881786914542,131.10971494350815 109.18709759577177,122.75775146848173 96.4581499666674,106.1856331154122 91.08430853718892,100.45144409674685 90.70433995116036,100.58402787271189 96.26816567382775,106.51708541726111 105.87594277528115,119.31083434689208 107.01584853325039,119.87427572076558 109.15995698235929,122.79089468953316 105.68595848244149,131.14285714286962 109.18709759577177,122.75775146848173 96.81097793939989,106.55023062520195 90.70433995116036,100.48459004683536 96.53957180655561,106.84853731357725 106.01164584176149,119.41026526270434 107.12441098620184,120.0068499914778 109.13281636906322,122.72460824338486 105.63167725584935,131.07657274007215 109.2413788222475,122.79089468953316 97.00096223235596,106.81539214221993 90.70433995116036,100.48459004683536 96.37672812689561,106.64966622448992 105.90308338857722,119.27769070010982 106.9887079198379,119.84113214293029 109.15995698235929,122.82403790645185 105.65881786914542,131.07657274007215 109.21423820883501,122.69146501430077 96.67527487291954,106.41764976931154 90.7586211777525,100.45144409674685 96.18674383405596,106.41764976931154 105.9302240019897,119.24454704939853 107.04298914631363,119.84113214293029 109.10567575576715,122.75775146848173 105.68595848244149,131.14285714286962 109.3228006621357,122.95661073373049 99.00936761510093,109.43384818732738" stroke="#4DD2FF" stroke-linecap="round" stroke-linejoin="round" stroke-width="0.5"><title>2025-02-05 15.0km</title><desc>1738709514000</desc></polyline><polyline fill="none" points="127.36744366248604,100.28571428573923 127.31310406583361,100.91616416475154 132.85574293904938,106.75605127049494 142.31083278171718,119.3312903001206 143.47913411282934,119.89533749059774 145.57120858947746,122.81509243010078 142.12064419302624,131.14285714286962 145.70705758151598,122.88145013162284 133.31762951181736,106.72287044901168 127.58480204979423,100.51798546430655 127.09574567864183,100.48480387951713 132.9915919310879,106.82241290126694 142.22932338656392,119.16539384445059 143.45196431456134,119.86215827646083 145.57120858947746,122.84827128285542 142.12064419302624,131.1096793047327 145.67988778313156,122.81509243010078 133.15461072139442,106.4906045847456 127.12291547702625,100.51798546430655 133.0187617293559,106.8555937106139 142.2021535881795,119.09903523375397 143.4247945160605,119.8289790583658 145.57120858947746,122.74873471233877 142.06630459614098,131.07650146246306 145.70705758151598,123.34595358764636 145.5983783879783,122.71555584733142 133.42630870547146,106.78923208790366 127.55763225140981,100.48480387951713 127.12291547702625,100.58434862169088 132.82857314066496,106.65650879382156 142.36517237860244,119.36446957904263 143.53347370959818,119.92851670048549 145.5983783879783,122.7819135732716 142.09347439464182,131.1096793047327 145.65271798474714,122.74873471233877 133.10027112462558,106.3910620106617 127.55763225140981,100.48480387951713 127.12291547702625,100.61753019422758 132.91008253593463,106.75605127049494 142.22932338656392,119.13221454108134 143.45196431456134,119.86215827646083 145.54403879109304,122.71555584733142 142.09347439464182,131.07650146246306 145.76139717840124,123.11370195908239 142.90856834652368,119.36446957904263" stroke="#4DD2FF" stroke-linecap="round" stroke-linejoin="round" stroke-width="0.5"><title>2025-02-04 12.0km</title><desc>1738622138000</desc></polyline><polyline fill="none" points="160.59184853336774,100.28571428573923 160.59184853336774,101.34431482222863 169.3465815843083,110.50110134491115 184.8190553423483,131.14285714286962 185.38247875659727,131.08993082330562 185.16577744320966,130.40188807970844 169.86666473560035,110.34231479064329 160.72186932130717,100.65622476817225 160.28846669499762,101.07966493113781 169.51994263473898,110.65988784079673 184.86239560507238,131.14285714286962 185.20911770593375,130.50774088071194 169.77998421061784,110.18352817816776 160.89523037173785,100.76208484786912 160.41848748293705,101.07966493113781 169.47660237224773,110.60695901533472 184.8190553423483,131.03700449725147 185.38247875659727,131.08993082330562 185.16577744320966,130.34896166954422 170.5167686752975,111.0833182115166 160.93857063446194,100.81501487785135 160.3318069577217,101.07966493113781 170.25672709941864,111.61260559232323 184.73237481713295,130.93115182581823 185.4691592818126,130.82529912842438 184.77571507985704,129.8196972113219 169.77998421061784,110.34231479064329 160.80854984675534,100.65622476817225 160.37514722021297,101.02673493337352 170.21338683692738,111.45381944603287 184.77571507985704,131.08993082330562 185.25245796889067,130.50774088071194 170.04002578626387,110.50110134491115 160.80854984675534,100.7091548112221 160.24512643227354,101.07966493113781 169.77998421061784,111.03038943791762 184.73237481713295,131.03700449725147 185.03575665550306,130.243108829658 171.77363629150204,112.72410698392196 160.80854984675534,100.65622476817225 160.3318069577217,101.07966493113781 169.21656079636887,110.34231479064329 184.73237481713295,130.98407816479448 185.25245796889067,130.56066727163852 179.74824461480603,123.0450549593952 166.05272162449546,106.26677328697406" stroke="#4DD2FF" stroke-linecap="round" stroke-linejoin="round" stroke-width="0.5"><title>2025-01-23 11.4km</title><desc>1737585341000</desc></polyline><polyline fill="none" points="17.923484222963452,134.57142857144936 18.032750865095295,135.1719252082985 23.714616249781102,141.11009852399002 33.13886412337888,153.6865891687048 34.258847203920595,154.28704370974447 36.334913402213715,157.08914741899935 33.002280820859596,165.36185704841046 36.498813365236856,157.25593839847716 24.37021610175725,141.31025941637927 18.196650828118436,134.70487238271744 17.786900920444168,134.77159426402068 23.550716286641546,140.94329766812734 33.05691414186731,153.58651328334236 34.31348052492831,154.28704370974447 36.38954672322143,157.18922201890382 32.86569751834031,165.42857142857974 36.498813365236856,157.2225802107714 24.178999478230253,141.0767383609491 17.86885090195574,134.73823332539177 23.68729958916083,141.0767383609491 33.16618078376632,153.7199477890681 34.231530543533154,154.186968044698 36.4168633838417,157.18922201890382 32.920330839348026,165.36185704841046 36.498813365236856,157.25593839847716 24.069732836214826,140.97665784749552 17.814217580948025,134.70487238271744 24.288266120129265,141.77730092708953 33.193497444386594,153.7199477890681 34.28616386454087,154.22032660388504 36.334913402213715,157.08914741899935 32.920330839348026,165.29514265203034 36.471496704733,157.18922201890382 23.796566231292672,140.64305587043054 18.169334167498164,134.67151143605588 17.814217580948025,134.73823332539177 23.496082965633832,140.8098569099675 32.94764749973547,153.41972005949356 34.28616386454087,154.25368515882292 36.334913402213715,157.155863823049 32.920330839348026,165.2617854476266 36.498813365236856,157.32265476172324 24.069732836214826,140.97665784749552 18.251284149009734,134.80495519845863 17.841534241451882,134.97175980967586 23.741932910052128,141.1434586829855 33.24813076527789,153.8200236254488 33.54861403082032,153.48643736127997 26.61018226307351,144.27929539815523" stroke="#4DD2FF" stroke-linecap="round" stroke-linejoin="round" stroke-width="0.5"><title>2025-01-18 14.0km</title><desc>1737153490000</desc></polyline><polyline fill="none" points="65.37335515962332,148.42413221903553 61.52471195621183,151.42082930543256 60.70194547632127,152.59124849661748 59.85198010451859,153.55413143427722 58.81842221246916,154.40079308504937 57.62847069193958,155.13123779466696 56.860101995873265,156.36799558877829 55.574954353738576,157.64623166127421 53.85462444124278,158.882943671495 48.142857142869616,163.58058413153776 52.21589120448334,160.35202868402848 53.86142416423536,158.90784368210007 55.42536044830922,157.81223458149907 56.914499779668404,156.35969527595444 57.669269029807765,155.12293733073602 58.879619719227776,154.3841919776387 59.756783982913475,153.67864116239798 60.69514575332869,152.64935388843878 61.54511112510227,151.42913022177527 66.56330668009468,147.4943821489651 67.22287980859983,147.12911971051653 67.17528174779727,146.92158335894783 67.88245293710497,146.6476344037801 71.03072467420134,144.0658187559602 71.57470251215273,143.36846264496126 73.131839073234,142.27260285869852 73.78461247877567,141.25144486744102 75.19895485742018,140.37971248081158 75.83812881700578,139.49136415439716 77.30686897941632,138.54488679426868 77.57885789839202,137.71463263308397 78.65321412830963,136.98400057289837 79.0000000000291,136.4194158684695 78.57841717559495,136.99230325411918 77.59925706731156,137.6565144615888 77.29326953348937,138.51167682272353 75.85852798592532,139.44985226610152 75.21935402633972,140.32989886356518 73.70981552606099,141.28465349899489 73.14543851919007,142.2393947103119 71.5815022350871,143.33525503249257 71.01712522824528,144.05751693963248 69.18120002519572,145.55182753253757" stroke="#4DD2FF" stroke-linecap="round" stroke-linejoin="round" stroke-width="0.5"><title>2025-01-16 10.5km</title><desc>1736984045000</desc></polyline><polyline fill="none" points="87.62814999325201,134.57142857144936 87.84634840604849,135.6373421495664 96.7924833316356,144.85738573566778 112.06637222855352,165.21540350097348 112.6336881017778,165.37527945646434 112.50276905391365,164.6824832256534 98.27623253874481,146.02986284031067 88.06454681884497,134.8912029188068 87.54087062808685,134.57142857144936 87.40995158045553,135.21097703141277 96.70520396647044,144.80409124682774 112.06637222855352,165.37527945646434 112.54640873661265,164.8423593766638 98.14531349088065,145.86997978467843 87.84634840604849,134.67802004647092 87.40995158045553,135.15768136220868 96.7924833316356,144.85738573566778 112.02273254585452,165.37527945646434 112.41548968898132,164.6291911622975 98.40715158637613,146.24304015687085 87.93362777121365,134.78461149561917 87.36631189798936,135.15768136220868 96.66156428377144,144.80409124682774 112.02273254585452,165.32198747785878 112.59004841931164,165.37527945646434 112.45912937168032,164.73577528246096 99.19266587216407,147.14904258734896 87.88998808851466,134.67802004647092 87.40995158045553,135.15768136220868 96.61792460107245,144.75079675141023 112.02273254585452,165.42857142857974 112.6336881017778,165.42857142857974 112.50276905391365,164.73577528246096 97.22888015699573,144.64420774113387 87.97726745391265,134.8912029188068 87.3226722155232,135.10438568648533 96.7488436489366,144.96397469364456 111.93545318068936,165.37527945646434 112.67732778424397,165.26869549273397 112.240930958651,164.36273074740893 97.35979920462705,144.80409124682774 88.06454681884497,134.8912029188068 87.40995158045553,134.73131577437744 87.45359126315452,135.31756834997213 96.61792460107245,144.75079675141023 101.37465000059456,151.30597075787955 102.11652460414916,151.03950219321996 99.41086428519338,147.62869017003686" stroke="#4DD2FF" stroke-linecap="round" stroke-linejoin="round" stroke-width="0.5"><title>2025-01-14 10.6km</title><desc>1736807801000</desc></polyline><polyline fill="none" points="131.3450523516076,153.0469442368958 129.03086778175202,154.84971001966187 128.0679728033865,156.08443470222483 127.38423645321745,156.65239538973765 126.72072898910847,157.0474937695617 126.32424282155989,157.72409077505654 125.41798872426443,158.62291015654773 124.4631853003375,159.29454236153833 123.26968102043611,160.33159958335818 121.0,162.1142881581145 123.04716327333881,160.52913127591455 124.48745996366779,159.2896039301777 125.34516473430267,158.69698778551174 126.29996815824416,157.7734769742674 126.76118676133046,157.0326776500151 127.48942666091898,156.58819153822697 128.10438479835284,156.06961822963785 129.07941710839805,154.82995411811862 132.38481709714688,152.29124041167233 132.40504598326515,152.17763665390885 132.59115173536702,152.17763665390885 132.88244769521407,151.96524616312308 134.69091011256387,150.47848146840624 135.0064807357412,150.06850018580008 135.95319260522956,149.40165427379543 136.30517522335867,148.81877253610583 137.19524621177698,148.26058129470402 137.56341193878325,147.74190110470227 138.42516248665925,147.18369498437823 138.58294779824791,146.70452074658533 139.2747757028701,146.20064067502244 139.90591694919567,145.22744274466095 144.34413455954927,142.10514694076483 145.91389612092462,141.34923840692863 146.42770982789807,140.80576601257053 151.85714285714494,137.8857118418855 148.19571447302587,139.78302994808837 146.43175560509553,140.78106254815066 145.9381707842549,141.31465401791138 144.3077225645684,142.11008747285814 139.91805428084626,145.1879215211302 139.25050103955436,146.20064067502244 138.57890202102135,146.67982088955978 138.4008878233435,147.18369498437823 137.55936616157123,147.72214172768145 137.1466968851164,148.2704608527274 136.29303789169353,148.803953399256 135.94510105079098,149.38189570852046 134.98625184963748,150.05862106741915 134.67877278089873,150.468602450248 132.7934405963897,152.00970007913565 132.61947217592387,152.11836500134086 132.5183277454198,152.0393359959926 132.49809885930154,152.15294014257597 132.34031354774197,152.3060582695689 129.07537133117148,154.80525922762536 128.02751503119362,156.1190064504517 127.45301466595265,156.5931302996505 126.71668321189645,157.0425550636428 126.10577085168916,157.96114398101417 125.37753095207154,158.642664204217 124.74234392853396,159.0821892678141 125.36134784317983,158.69204928113686 126.17859484162182,157.91175801107966 126.73286632077361,157.0474937695617 127.52583865589986,156.5634977220143 128.3147652138141,155.83255392964566" stroke="yellow" stroke-linecap="round" stroke-linejoin="round" stroke-width="0.5"><title>2025-01-01 21.1km</title><desc>1735687361000</desc></polyline><polyline fill="none" points="185.78339338081423,134.57142857142753 187.02431343111675,135.7188906422889 186.36031235160772,137.64019514719257 186.1643776068231,137.86701355910918 185.6745407448616,137.62685287281784 185.44595020927954,137.8403290647766 185.1955891465186,139.0411247718439 185.93578707124107,140.7755838584344 186.5780176235712,141.37596704391035 187.27467449387768,142.60340671179438 186.33854182442883,144.76473391451145 186.2623449792154,145.92542879819666 186.39296814240515,146.87265329877118 186.96988711314043,147.87323352630483 186.8392639499507,149.4074385166823 187.45972397510195,150.8215559660166 187.50326502951793,151.4752455030757 187.0134281675564,152.92935700268572 186.43650919682113,153.489651615615 184.82549018412828,154.12998475300265 182.97499537235126,154.27672722842544 181.93001006677514,154.79699439647084 181.59256689524045,155.1571778892685 181.57079636806156,155.98426135889895 182.87702799995895,158.051942294318 183.09473327192245,158.7189276916397 183.14915958989877,159.53264429285628 182.77906062756665,160.21296001981682 181.75584584922763,160.91995024979406 180.30810579063836,161.17339844950766 179.28489101224113,161.65361445846793 176.269672995375,162.13382833027572 173.15648760605836,165.42857142857247 167.15870736306533,160.98664720217494 167.82270844257437,159.86613293028495 174.91990030906163,150.70149011021567 167.59411790699232,145.124950904632 167.19136315392097,145.39177752918476 158.53757859265897,156.43782056976488 158.21102068474283,156.27774106602737 167.04985472705448,144.8714649999747 166.788608400675,144.41785715750302 163.272668258287,141.61611938240094 163.33797983988188,141.32259978496586 163.67542301141657,141.2825743234498 164.05640723736724,141.50938507571846 171.67609175661346,147.5530488632794 172.29655178176472,147.4196383064991 173.03674970648717,146.47241860907525" stroke="#4DD2FF" stroke-linecap="round" stroke-linejoin="round" stroke-width="0.5"><title>2024-12-28 10.1km</title><desc>1735347410000</desc></polyline><polyline fill="none" points="28.3772731385543,183.45215483671927 24.62516963723465,186.37067471406044 23.830453270609723,187.50782821920438 23.048765041166916,188.39050010818755 22.032570342882536,189.21749714049656 20.93820682168007,189.8774968469079 20.254229620913975,191.01458907467168 18.873247082257876,192.37430264869909 17.329412829101784,193.47159464489232 15.837691124586854,194.78354992315872 11.714285714289872,198.03549475289037 15.29050936398562,195.2526669071376 17.44015199493151,193.3920813538425 18.742965710669523,192.50947729952895 20.22165927803144,191.0782020390543 20.925178684527054,189.90135213265603 22.0,189.24135266818485 23.081335384078557,188.36664426859352 23.908622093556914,187.45216382487706 24.631683705782052,186.38657909594622 30.04487469466403,182.22745082765323 30.04487469466403,182.03658578889736 30.28589523208211,182.06044394936907 30.741880032554036,181.77414544636122 33.74486564734252,179.30079203425703 34.337645888037514,178.56910676400003 35.7967972496117,177.5590494456992 36.36352121597156,176.62055693707225 37.80313037184533,175.7138648746477 38.40893874966423,174.87078898640175 39.77689315119642,173.9879336550366 40.056998100102646,173.17665062333253 41.12530534696998,172.4289886735569 41.99167646790738,170.98931752016506 42.571428571420256,170.53593381853716 42.14801411383087,170.80637359986576 41.17741789558204,172.31763403082732 40.01139962000889,173.1846044276681 39.77689315119642,173.9561188247826 38.35682620102307,174.88669617977575 37.79661630326882,175.68205088857212 36.30489459875389,176.6444170838222 35.7967972496117,177.5351896344 34.25947706506122,178.6168256194287 33.725323441613,179.2928389777444 30.689767483941978,181.78209819955373 29.745227540057385,182.38650459890778" stroke="#4DD2FF" stroke-linecap="round" stroke-linejoin="round" stroke-width="0.5"><title>2024-12-24 11.5km</title><desc>1734996352000</desc></polyline><polyline fill="none" points="69.11452939384617,179.19651440969028 64.49253731343197,182.80090246498003 62.6338714590529,185.21043302523321 61.45781297594658,186.2244226758703 59.796527566271834,187.26851775382966 58.9000913798227,188.74428335866833 57.05787389585748,190.55130718432338 55.33901918976335,191.7158125932183 52.61681388973375,194.07488935047877 48.167529698461294,197.55816822820634 52.36186414863914,194.30577407546662 55.199208041420206,191.86639398419356 57.12366737739649,190.5211904462194 58.93298812065041,188.74428335866833 59.89521778863855,187.19824254004925 61.16996649405337,186.47540828100318 62.518732866301434,185.37106588332972 64.58300335062086,182.75070316017081 70.22479439535527,178.3230038034526 71.37618032286991,177.5900509553394 71.34328358210041,177.36915977342142 71.71337191591738,177.3390382025682 72.19037465730798,177.017740759773 75.95705147730769,173.93522955031221 76.63965884860954,173.05162194225704 78.6216874809761,171.6559041947985 79.0,171.00322228892765 78.52299725858029,171.70611028042913 76.6561072190234,173.00141667912249 75.98172403289936,173.87498387898813 72.23971976849134,176.97757849105255 71.75449284192291,177.30891662069916 71.63113006396452,177.19847072599077 71.4666463600297,177.48964594626887 70.2659153213317,178.252720937111 64.63234846177511,182.6703842086572 62.46938775511808,185.37106588332972 61.25220834603533,186.36497470921313 59.763630825444125,187.2885963753215 58.90831556505873,188.7242050929126 57.830947304319125,189.81846342307836 56.926286932692165,190.63161843202397 55.265001522988314,191.77604518270527 51.87663722207071,194.66715756010672 48.142857142869616,197.5682062824999 51.95065488884575,194.6169655045087 55.31434663417167,191.76600642086123 57.370392933284165,190.29029508725944 58.88364300946705,188.77440074808692 59.829424307041336,187.26851775382966 61.16174230884644,186.46536887152615 62.354249162366614,185.52165890253673 63.53853183062165,184.2165102321378 64.42674383186386,182.90130098262307 66.81998172402382,181.03386847152433" stroke="#4DD2FF" stroke-linecap="round" stroke-linejoin="round" stroke-width="0.5"><title>2024-12-21 15.0km</title><desc>1734737288000</desc></polyline><polyline fill="none" points="102.91853272911976,181.52642377254233 98.78186088046641,184.70995921681606 97.9959646743373,185.84378685983393 96.96715509539354,187.01248265513277 96.06694671383593,187.75380962077907 94.75235669632093,188.54745701457432 93.90930440244847,189.8905325008236 92.49469123140443,191.27718781895965 90.75143055597437,192.52428248796787 88.24370720732259,194.66958318053366 84.57142857142026,197.56476483197912 88.85099063935922,194.18122771484195 90.68712995731039,192.57660766217305 92.75189362614765,191.05044099287625 93.90930440244847,189.8905325008236 94.70948963053524,188.58234241180617 95.88118942873552,187.87590979422384 96.93857705156552,187.029925731018 97.91737505374476,185.9484469649251 98.81043892432353,184.68379375088261 104.01878741770633,180.6018635802102 105.51199020934291,179.6249567767809 108.76274269836722,176.96456241020496 109.36288161939592,176.196954777246 111.02040816325461,175.03680484145298 111.59911355140503,174.05109871985042 113.16376145271352,173.05665573550505 113.91393510400667,172.0709222557416 115.30711474214331,171.18113343669393 115.42857142857974,171.0066637394484 113.84963450531359,172.08836898439768 113.21377302941983,172.99559299531393 111.56339099653997,174.04237559605826 110.95610756456153,175.05425084482704 109.30572553168167,176.20567763765575 108.72702014353126,176.95583964255638 105.16905368302832,179.8604623189094 105.06903052952839,180.06979992603738 104.66893791549955,180.16574612409022" stroke="#4DD2FF" stroke-linecap="round" stroke-linejoin="round" stroke-width="0.5"><title>2024-12-17 10.2km</title><desc>1734391788000</desc></polyline><polyline fill="none" points="135.9939226966817,184.6647644218283 132.63341706505162,187.2573184705143 131.28571428571013,188.98799777639942 130.39891418846673,189.75005014532871 129.29624827808584,190.4337522022215 128.55530346001615,191.6088463749693 127.30094805930275,192.79103842533732 126.04659265861847,193.65986308056017 124.46552143263398,195.03428875315512 121.0,197.74031713274235 127.81435864191735,192.34237800035044 128.65448504983215,191.49489888636526 129.30791670043254,190.42663034712677 130.38724576612003,189.7571720830856 131.09901952839573,189.18029230471802 131.80495907945442,188.41823248611036 132.72093023255002,187.18609599887714 136.7056964589283,184.05934370544855 138.18758609512588,183.06928921574945 140.77214164167526,180.93954664614648 141.26221537962556,180.3198410435907 142.60408394780825,179.3724622673326 143.07665505228215,178.56041105525583 144.37768414229504,177.741225119069 144.95527104774374,176.95764518439682 146.13961591440602,176.20254909411597 146.40798962806002,175.4688142721934 147.35313183694961,174.79918413608175 148.2224293006875,173.4242811122458 151.85714285713038,170.83111143868518 148.2924398346804,173.32454595176387 147.3589660481084,174.74931775417645 146.39632120574242,175.4403195295854 146.14545012559392,176.15980751332245 144.91443156954483,176.96476868582613 144.34267887528404,177.73410171260184 143.09415768575855,178.51767120426666 142.60991815896705,179.34396943396132 141.20387326795026,180.3483333997574 140.81881533097476,180.8611934282053 140.27623369256617,181.30994225007817" stroke="#4DD2FF" stroke-linecap="round" stroke-linejoin="round" stroke-width="0.5"><title>2024-12-14 12.1km</title><desc>1734132056000</desc></polyline><polyline fill="none" points="178.44958879071055,179.1312593387338 173.76180322872824,182.80592726745817 172.84069448674563,184.14121670022723 171.82911970760324,185.28573322652665 170.6201644836692,186.29972139033634 169.16448370390572,187.17314670702035 168.12001218399382,188.80953926085203 166.4011574778997,190.46597705937165 164.57538836429012,191.74090947161312 162.43710021322477,193.61813615142455 157.42857142857974,197.59329815668025 163.1772768809169,193.00578349817806 164.509594882722,191.79110325637157 166.77946999695268,190.13469217105012 168.2433749619522,188.65895235058997 169.08224185198196,187.25346121250914 170.50502589094685,186.3800367496151 171.69753274443792,185.41624725626025 172.8324703015678,184.16129607491166 173.9098385622783,182.6653692225227 179.70788912582793,178.1272231159819 181.62412427656818,176.85207942302804 185.15229972585803,173.94025977096317 186.21321961618378,175.4564270224655 185.25921413340257,173.88001413647726 185.91714894914185,173.02652956720704 187.88272921109456,171.63081216103456 188.28571428571013,170.97813041475456 187.81693572952645,171.65089459402952 185.9335973194975,172.97632431636157 185.30855924461503,173.78964560189343 181.07310386840254,177.2938637308689 179.42004264393472,178.3079505417336 173.85226926591713,182.675409090858 172.81602193115395,184.12113732060243 171.68108437405317,185.37608911533607 170.49680170573993,186.3398790798019 169.0328967407986,187.24342190362222 168.12001218399382,188.73926540373213 166.754797441361,190.10457529679843 164.665854401479,191.64052181017905 161.68047517517698,194.19033040830254 157.4450197989936,197.5230318108006 161.8120621382841,194.12006115277472 164.443801401183,191.8513357576012 166.4998477002664,190.39570461892436 168.2762717026926,188.63887407500442 169.13981114834314,187.2133039695691 170.41455985378707,186.45031262459815 171.81267133718939,185.305812321516 173.93451111787,182.65532935298688 179.65031982940855,178.1774252185569 181.41851964668604,177.01272853716364 185.25098994819564,173.8699731930974 185.94182150473353,172.99640642038867 187.75936643310706,171.72118307094934" stroke="#4DD2FF" stroke-linecap="round" stroke-linejoin="round" stroke-width="0.5"><title>2024-12-07 17.1km</title><desc>1733527336000</desc></polyline><polyline fill="none" points="13.890998609771486,233.9920898002456 14.137123059568694,233.86552647282952 14.007583875471028,234.0 14.111215222772444,233.7785140415217 13.56715064952732,232.4654031303071 13.631920241605258,232.34674721583724 21.410748246591538,229.53849366187205 22.31104557609069,229.0322039839084 23.00408021095791,228.27276203098882 35.67301241561654,213.41438353154808 36.10696868231753,212.64684518983267 38.22493434228818,207.1788597030827 38.833768507582135,205.90477633279806 40.18745298136491,203.744316653836 40.440054390375735,203.52272695935972 40.71856363618281,203.57812445425225 40.342900002287934,203.14285714285506 40.22631473658839,203.15077112014114 39.41021787680802,204.25080452910333 38.68479844587273,205.46952470150427 37.82983983081067,207.16303273462836 35.8478903141513,212.4173731932242 35.41393404742121,213.21656524359423 30.459060255700024,219.1033783019302 24.39014948080876,226.09722787475766 24.163455908652395,226.587718333074 22.75795576121891,228.20156389039767 22.09730592230335,228.86607681920577 21.624487900349777,229.17459835666523 13.703166792867705,232.03824081889616" stroke="#4DD2FF" stroke-linecap="round" stroke-linejoin="round" stroke-width="0.5"><title>2024-11-30 11.9km</title><desc>1732919585000</desc></polyline><polyline fill="none" points="50.871827128808945,203.62585523276357 60.09991122200154,213.23204009170877 75.6118811503984,233.9463372878963 76.1831434990745,233.73168637428898 74.95273228664882,231.85348639875883 60.09991122200154,212.42706061003264 51.35520296217874,203.1428571428405 50.871827128808945,203.62585523276357 60.18779773730785,213.39303581079002 75.6118811503984,234.0 76.27103001414798,233.83901184413116 76.00737046869472,233.19505863025552 60.846946601057425,213.2857053379994 51.35520296217874,203.1965236234537 50.959713643882424,203.73318806957104 60.18779773730785,213.2857053379994 75.65582440793514,233.9463372878963 76.13920024130493,233.46337258434505 61.374265692196786,213.876022613229 51.487032735021785,203.35752302623587 50.915770386345685,203.6795216544415 60.275684252614155,213.39303581079002 75.65582440793514,234.0 76.31497327168472,233.83901184413116 75.65582440793514,232.7120930996607 60.45145728276111,212.80271788532264 51.35520296217874,203.1965236234537 50.871827128808945,203.62585523276357 59.92413819185458,213.12470957951155 75.65582440793514,234.0 76.0952569837682,233.35604702256387 60.803003343520686,213.2857053379994 51.311259704642,203.1965236234537 50.915770386345685,203.6795216544415 60.18779773730785,213.39303581079002 75.56793789286166,233.9463372878963 76.13920024130493,233.570698119991 60.97877637390047,213.44670103731914 51.35520296217874,203.25019009766402 50.827883871039376,203.5721888046537 60.231740994844586,213.5003662572417 75.48005137755536,233.7853491124988 76.22708675661124,233.570698119991 70.73417955823243,226.43349281011615" stroke="#4DD2FF" stroke-linecap="round" stroke-linejoin="round" stroke-width="0.5"><title>2024-11-26 10.9km</title><desc>1732619882000</desc></polyline><polyline fill="none" points="87.36630957969464,203.4088763523614 96.12276397459209,212.66624346314347 112.02378812432289,233.8935998211091 112.28517482266761,232.9359970400692 99.04158210614696,215.37957233685302 87.75838962709531,203.14285714286962 87.80195407709107,204.26013672866975 96.60197292151861,213.30467530959868 112.02378812432289,233.78719961631577 112.32873927243054,233.04239745336236 97.6910841644276,213.73029601975577 89.10888756881468,204.47295156255132 87.80195407709107,203.3024686879653 87.58413182850927,203.8877105190477 96.60197292151861,213.19827006699052 112.02378812432289,233.78719961631577 112.59012597077526,233.73399950415478 112.32873927243054,233.0955976502446 97.56039081560448,213.623890881252 87.93264742614701,203.14285714286962 87.75838962709531,204.26013672866975 96.68910182104446,213.4110805261298 112.02378812432289,233.8935998211091 112.37230372196063,233.0955976502446 97.90890641324222,213.9431062186486 87.88908297638409,203.14285714286962 87.49700292898342,203.67489539898816 96.55840847175568,213.25147269148147 111.93665922479704,233.73399950415478 112.50299707124941,233.20199802421848 97.34256856678985,213.30467530959868 87.93264742614701,203.24926484611933 87.40987402945757,203.72809918885469 96.68910182104446,213.4110805261298 112.24161037290469,234.0 112.02378812432289,232.61679564474616 97.51682636584155,213.57068830230855 87.93264742614701,203.1960609976377 87.88908297638409,204.26013672866975 96.47127957222983,213.1450674358348 111.89309477503411,233.73399950415478 112.32873927243054,233.04239745336236 97.77821306418628,213.78349857914145 87.88908297638409,203.24926484611933 87.54056737851351,203.62169160260237 96.68910182104446,213.4110805261298 111.89309477503411,233.62759926024592 112.63369042053819,233.57439912841073 112.32873927243054,232.98919725010637 96.51484402222559,212.3470271883707 87.93264742614701,203.3024686879653 87.84551852662116,204.10052553520654 96.64553737128153,213.30467530959868 111.98022367455997,233.78719961631577 112.54656152101234,233.62759926024592 112.28517482266761,232.98919725010637 97.56039081560448,213.57068830230855 87.93264742614701,203.4088763523614" stroke="#4DD2FF" stroke-linecap="round" stroke-linejoin="round" stroke-width="0.5"><title>2024-11-16 14.9km</title><desc>1731755814000</desc></polyline><polyline fill="none" points="123.68540751910768,203.62418112152955 133.1442508334294,213.51794548064936 148.55866216029972,233.94652330048848 148.86519874911755,233.14437202215777 133.27562365704216,212.7157567134127 124.51743540307507,203.46373985425453 123.9043622254394,203.2498180726543 123.94815316656604,203.89158310284256 133.0128780095838,213.3040286200703 148.47108027758077,233.94652330048848 148.99657157273032,233.41175594521337 146.1501603901852,229.45445718377596 133.88869683491066,213.51794548064936 124.47364446194842,203.41025941859698 123.86057128431275,203.78462233007303 133.3632055397611,213.73186223665834 148.29591651260853,233.78609316251823 149.0403625140898,233.46523271023761 133.75732401106507,213.3575078450085 124.3860625794623,203.2498180726543 123.9043622254394,203.67766153081902 133.3632055397611,213.67838305755868 148.47108027758077,233.83956988179125 148.95278063160367,233.14437202215777 134.3266062475741,213.9992580343387 124.34227163810283,203.30329852792784 123.9043622254394,203.83810271977563 133.10045989206992,213.3575078450085 148.47108027758077,234.0 149.1717353379354,233.5721862206119 134.3266062475741,213.9992580343387 126.44423681893386,205.44251136865932 124.16710787289776,203.30329852792784 123.94815316656604,203.73114193370566 133.1442508334294,213.41098706348566 148.38349839509465,233.83956988179125 149.08415345544927,233.5721862206119 135.50896166195162,215.60362938581966 124.21089881425723,203.19633761106525 123.9043622254394,203.78462233007303 133.10045989206992,213.41098706348566 148.60245310142636,234.0 149.12794439680874,233.51870946859708 133.58216024609283,213.09011165468837 124.16710787289776,203.14285714286962 124.16710787289776,203.94506347944844 133.05666895071045,213.3575078450085 148.42728933645412,233.94652330048848 149.08415345544927,233.83956988179125 148.7776168663986,233.14437202215777 133.53836930473335,213.14359090579092 123.94815316656604,203.67766153081902 133.40699648088776,213.8922997348709 148.47108027758077,233.94652330048848 148.86519874911755,233.2513256111124 141.99002096964978,224.2671329274599" stroke="#4DD2FF" stroke-linecap="round" stroke-linejoin="round" stroke-width="0.5"><title>2024-11-10 14.3km</title><desc>1731237417000</desc></polyline><polyline fill="none" points="160.22345939232036,203.6758142580802 170.6097000304144,214.81446872855304 184.7925916572567,233.78683207236463 185.44718665559776,233.7335400742304 184.61803299118765,232.40123800028232 171.17701569525525,214.54799706680933 160.87805439066142,203.46263149025617 160.35437839198858,203.78240560286213 169.47506870003417,213.37551981850993 184.92351065692492,234.0 185.5344659886323,233.78683207236463 184.61803299118765,232.45453016157262 169.86782569880597,212.94916367297992 160.7907750576269,203.46263149025617 160.17981972591951,203.62251857598312 169.38778936699964,213.32222532303422 184.87987099052407,234.0 185.5344659886323,233.52037201620988 170.08602403174154,213.26893082124298 160.7907750576269,203.40933578190743 160.17981972591951,203.6758142580802 169.12595136789605,213.05575274850708 185.01078999019228,233.89341604924994 185.3599073223304,233.25391179704457 170.17330336477607,213.32222532303422 160.65985605795868,203.19615288378554 160.44165772525594,203.83570126543054 169.5623480330687,213.32222532303422 184.96715032332577,233.8401240639796 185.4908263219986,233.52037201620988 184.92351065692492,232.61440660594963 170.65333969681524,213.85516998334788 160.7907750576269,203.24944861821132 160.26709905918688,203.46263149025617 171.5261330276262,215.82705955638085 184.87987099052407,233.78683207236463 185.40354698896408,233.57366404042114 184.3998346584849,231.97490047616884 170.8278983628843,214.12164206884336 160.7471353909932,203.14285714286962 160.31073872558773,203.83570126543054 170.30422236444429,214.28152524205507 184.7925916572567,233.78683207236463 185.4908263219986,233.6802480694023 184.8362313238904,232.61440660594963 171.17701569525525,214.3881139914447 160.83441472402774,203.40933578190743 160.35437839198858,203.62251857598312 169.7369066993706,213.58869773481274 184.92351065692492,233.6802480694023 185.2289883226622,233.04074350433075 172.31164702540264,216.04023627305287" stroke="#4DD2FF" stroke-linecap="round" stroke-linejoin="round" stroke-width="0.5"><title>2024-10-26 12.9km</title><desc>1729940418000</desc></polyline><polyline fill="none" points="17.718832870363258,237.66311222894 23.589986274484545,243.76110252997023 32.533892862149514,255.6216398155084 34.31718712032307,257.02878811911796 36.45714023034088,259.9770754069614 33.02772819518577,268.25221221573884 36.53944611910265,260.0105784892803 23.69972745969426,243.39254653218086 17.883444648003206,237.495583106298 23.672292163362727,243.86161771600018 33.30208115791902,256.6267464844277 34.3446224166546,257.0957950008451 36.45714023034088,260.1110877114115 33.000292898970656,268.2857142857101 36.566881415317766,260.1445907773159 23.946645126095973,243.56007204717025 17.82857405557297,237.59610059225815 23.617421570816077,243.86161771600018 33.192339972709306,256.5262359835324 34.262316527892835,256.99528467215714 36.40226963767782,259.9435723206552 32.97285760252271,268.2187101415475 36.484575526556,259.9770754069614 24.303303977823816,244.0291429440258 17.883444648003206,237.42857142857974 23.86433923721779,244.1631630527263 32.69850463978946,255.92317220341647 34.37205771286972,257.06229156200425 36.40226963767782,259.9100692301581 33.000292898970656,268.2187101415475 36.53944611910265,260.1110877114115 23.617421570816077,243.29203117394354 18.24010349973105,237.5625947676599 17.82857405557297,237.495583106298 18.020621129428037,237.9311586120166 22.986409756354988,243.15801063895924 22.986409756354988,242.52141220195335 20.160574239329435,239.67345370625844" stroke="#4DD2FF" stroke-linecap="round" stroke-linejoin="round" stroke-width="0.5"><title>2024-10-19 10.6km</title><desc>1729335763000</desc></polyline></svg>