<?xml version="1.0" encoding="utf-8" ?>
<svg baseProfile="full" height="300mm" version="1.1" viewBox="0,0,200,300" width="200mm" xmlns="http://www.w3.org/2000/svg" xmlns:ev="http://www.w3.org/2001/xml-events" xmlns:xlink="http://www.w3.org/1999/xlink"><defs /><rect fill="#222222" height="300" width="200" x="0" y="0" /><text fill="#FFFFFF" style="font-size:12px; font-family:Arial; font-weight:bold;" x="10" y="20">Over 10km Runs</text><text fill="#FFFFFF" style="font-size:4px; font-family:Arial" x="10" y="280">Runner</text><text fill="#FFFFFF" style="font-size:9px; font-family:Arial" x="10" y="290">unsung</text><text fill="#FFFFFF" style="font-size:4px; font-family:Arial" x="65" y="280">SPECIAL TRACKS</text><rect fill="yellow" height="2.6" width="2.6" x="65" y="283" /><text fill="#FFFFFF" style="font-size:3px; font-family:Arial" x="70" y="285.5">Over 20.0 km</text><rect fill="red" height="2.6" width="2.6" x="65" y="287" /><text fill="#FFFFFF" style="font-size:3px; font-family:Arial" x="70" y="289.5">Over 40.0 km</text><text fill="#FFFFFF" style="font-size:4px; font-family:Arial" x="120" y="280">STATISTICS</text><text fill="#FFFFFF" style="font-size:3px; font-family:Arial" x="120" y="285">Number: 27</text><text fill="#FFFFFF" style="font-size:3px; font-family:Arial" x="120" y="290">Weekly: 1.5</text><text fill="#FFFFFF" style="font-size:3px; font-family:Arial" x="141" y="285">Total: 335.1 km</text><text fill="#FFFFFF" style="font-size:3px; font-family:Arial" x="141" y="290">Avg: 12.4 km</text><text fill="#FFFFFF" style="font-size:3px; font-family:Arial" x="167" y="285">Min: 10.0 km</text><text fill="#FFFFFF" style="font-size:3px; font-family:Arial" x="167" y="290">Max: 21.1 km</text><polyline fill="none" points="20.012476982548833,31.82852310704766 24.917096379213035,37.276372552645626 33.16152803169098,48.171689528855495 34.00231992837507,48.45690041172202 35.870746365282685,51.1093449119071 32.9279747272376,57.92570365294523 33.044751379522495,58.80981926640379 29.91513709782157,62.80255770035728 28.09342132182792,64.19999999999709 29.728294454165734,63.05923140363302 33.044751379522495,58.952418244982255 33.0213960489491,57.95422356373456 35.98752301756758,51.1093449119071 25.080583692528307,36.934103037187015 19.989121652091853,31.857046210527187 25.337492327555083,37.64716396070435 33.114817370893434,48.086126195892575 34.07238591974601,48.54246360860998 35.870746365282685,51.023782657124684 32.998040718608536,57.89718373857613 33.068106709979475,58.838339069043286 29.7516497845063,62.97367353395384 28.116776652284898,64.14296170267335 29.775005114963278,62.97367353395384 33.068106709979475,58.89537866396131 32.97468538803514,57.95422356373456 36.01087834790815,51.166386397671886 25.057228361954913,36.84853557981842 20.012476982548833,31.80000000000291 24.7302537355572,36.905580554826884 33.114817370893434,48.057605077992775 34.07238591974601,48.54246360860998 35.89410169562325,51.080824163756915 32.97468538803514,57.89718373857613 33.044751379522495,58.80981926640379 29.7516497845063,63.00219282731996 28.09342132182792,64.14296170267335 29.798360445536673,62.94515423712437 33.068106709979475,58.89537866396131 32.97468538803514,57.95422356373456 35.94081235653721,51.1093449119071 25.337492327555083,37.19080522090371 20.24603028711863,31.80000000000291 20.17596429574769,32.14227705373196 25.01051770115737,37.21932766833925 27.205918764462695,40.12859897293674" stroke="#4DD2FF" stroke-linecap="round" stroke-linejoin="round" stroke-width="0.5"><title>2025-06-09 10.0km</title><desc>1749421393000</desc></polyline><polyline fill="none" points="56.06833766854834,32.11156005374505 56.207489639287814,31.79999999998836 56.114721658756025,32.47976684941386 60.93865664396435,37.35137085482711 68.52243904885836,47.462454284352134 69.98353474133182,48.623642878592364 71.81570235616527,51.17257302744838 68.87031897553243,58.02622381078254 69.05585493647959,58.81919510423904 65.69301564386114,63.06720936077181 64.09276798053179,64.19999999999709 65.78578362450935,62.95392999211617 69.07904693169985,58.87583580696082 68.93989496096037,58.05454426094366 71.86208634625655,51.25753688249097 62.167832385515794,38.42764163362153 56.06833766854834,32.08323642979667 60.96184863918461,37.40801681004814 69.07904693169985,48.19881845872442 70.00672673655208,48.623642878592364 71.8388943511527,51.229215600920725 68.93989496096037,57.99790335718717 68.93989496096037,58.98911717098963 65.78578362450935,62.98224983944965 64.06957598554436,64.19999999999709 65.8089756196132,62.98224983944965 69.07904693169985,58.90415615317761 68.91670296585653,58.08286470755411 71.95485432678834,51.229215600920725 61.101000609924085,37.09646388475085 56.06833766854834,32.05491280242859 60.91546464897692,37.35137085482711 69.0094709462719,48.11385348121985 70.07630272198003,48.68028607570159 71.8388943511527,51.17257302744838 68.91670296585653,57.99790335718717 69.03266294149216,58.84751545735344 65.7162076390814,63.038889523857506 64.06957598554436,64.1716803014424 65.78578362450935,62.98224983944965 68.98627895116806,59.017437503280235 68.91670296585653,58.19614645947877 71.86208634625655,51.17257302744838 61.28653657087125,37.26640189597674 56.04514567332808,32.026589171538944 60.91546464897692,37.32304787199246 68.56882303906605,47.51909776554385 70.02991873165593,48.65196447895141 71.8388943511527,51.17257302744838 68.93989496096037,57.94126243965002 68.89351097075269,59.07407815747138 65.69301564386114,63.038889523857506 64.0463839903241,64.1716803014424 65.66982364887372,63.12384902444319 69.07904693169985,58.90415615317761 68.93989496096037,58.05454426094366 71.86208634625655,51.62571322708391 71.72293437551707,50.88935995232896 68.91670296585653,47.32084552074957" stroke="#4DD2FF" stroke-linecap="round" stroke-linejoin="round" stroke-width="0.5"><title>2025-06-07 12.0km</title><desc>1749247836000</desc></polyline><polyline fill="none" points="92.38979184487835,31.79999999998836 92.18160985899158,32.50623853063735 96.831007546396,37.36510106171772 105.04263032774907,48.21242520313535 106.12980292143766,48.805623546169954 107.81839014124125,51.26314330477908 104.88071100541856,58.0706189404591 104.99636766430922,58.889762232720386 101.71171855169814,63.041926642588805 100.06939399545081,64.17175437732658 101.71171855169814,63.07017240326968 105.04263032774907,58.9745010282204 104.92697366885841,58.09886530923541 107.93404680013191,51.37613209008123 97.17797752306797,37.252105420062435 92.0659531999845,32.16724430548493 97.01605820062105,37.534594420634676 105.01949899608735,48.15593004334369 106.014146262547,48.664385983676766 107.81839014124125,51.2066488913988 104.90384233719669,57.98587981330638 104.99636766430922,58.889762232720386 101.73484988347627,63.01368087834271 100.06939399545081,64.17175437732658 101.71171855169814,63.12666391445964 105.08889299130533,58.889762232720386 104.97323633241467,57.98587981330638 107.95717813191004,51.34788489897619 97.27050285018049,37.36510106171772 92.1353471953189,32.054246119907475 96.99292686884291,37.50634553616692 105.01949899608735,48.15593004334369 105.99101493076887,48.60789093449421 107.81839014124125,51.23489609984972 104.88071100541856,58.0141261924291 104.99636766430922,58.889762232720386 101.64232455636375,63.041926642588805 100.11565665900707,64.19999999999709 101.64232455636375,63.154909664794104 105.06576165964361,58.889762232720386 104.92697366885841,58.127111674519256 107.91091546835378,51.37613209008123 97.36302817740943,37.50634553616692 92.3435291814385,32.11074521957198 92.04282186820637,32.280242435852415 96.99292686884291,37.4780966482067 99.60676735988818,40.9244354692637" stroke="#4DD2FF" stroke-linecap="round" stroke-linejoin="round" stroke-width="0.5"><title>2025-06-05 10.1km</title><desc>1749073951000</desc></polyline><polyline fill="none" points="128.21099729137495,31.80000000000291 128.09422063909005,32.14227705373196 132.8353527225554,37.13376031561347 143.88242403033655,51.1093449119071 140.89294173149392,58.011263374995906 141.07978437514976,58.752779650560115 137.763327449793,63.00219282731996 136.10509898711462,64.19999999999709 137.78668278013356,63.00219282731996 141.05642904457636,58.952418244982255 140.98636305332184,58.011263374995906 143.97584535216447,51.13786565649207 133.20903800986707,37.07671539635339 128.02415464771912,31.857046210527187 132.99884003575426,37.276372552645626 143.88242403033655,51.223427869481384 140.91629706183448,57.95422356373456 141.05642904457636,58.80981926640379 137.763327449793,62.97367353395384 136.08174365654122,64.17148085299414 137.7399721192196,63.05923140363302 141.07978437514976,58.89537866396131 141.0330737142358,57.92570365294523 143.9291346912505,51.080824163756915 133.25574867089745,37.13376031561347 128.02415464771912,31.914092407168937 132.90541871404275,37.21932766833925 143.88242403033655,51.1093449119071 140.91629706183448,57.95422356373456 141.05642904457636,58.78129946022818 137.69326145830564,63.05923140363302 136.08174365654122,64.17148085299414 137.69326145830564,63.08775068662362 141.07978437514976,58.92389845622529 140.98636305332184,57.95422356373456 143.97584535216447,51.280469327262836 133.60607862775214,37.5615967650665 128.37448460469022,31.885569310572464 128.07086530863307,32.056707837444264 131.76100752141792,35.82172364126018 135.19424109905958,40.157121060896316" stroke="#4DD2FF" stroke-linecap="round" stroke-linejoin="round" stroke-width="0.5"><title>2025-06-03 10.0km</title><desc>1748953280000</desc></polyline><polyline fill="none" points="163.9983886614209,31.971440400433494 168.95845183043275,37.143166646477766 179.9548182898434,51.11482678161701 177.0302527421154,57.828926442642114 177.05364926648326,58.85745232201589 173.91851499932818,62.885801743061165 172.14037914632354,64.19999999999709 173.84832542622462,62.91437134897569 177.1472353640711,58.800312114181 177.05364926648326,57.9432073195203 179.97821481432766,51.14339782741445 169.14562402537558,36.88601169374306 164.06857823452447,31.80000000000291 168.95845183043275,37.114593887963565 179.9548182898434,51.08625573239988 177.00685621774755,57.914637105568545 177.0302527421154,58.85745232201589 173.77813585300464,63.00008014582272 172.14037914632354,64.17143055118504 173.87172195059247,62.91437134897569 177.10044231533539,58.91459251585184 177.05364926648326,57.914637105568545 179.9548182898434,51.08625573239988 169.5199684156105,37.343175858375616 164.06857823452447,31.828573408842203 168.93505530594848,37.0860211258987 179.9548182898434,51.08625573239988 177.0302527421154,57.914637105568545 177.10044231533539,58.82888221980829 173.84832542622462,62.94294095148507 172.14037914632354,64.17143055118504 173.87172195059247,62.94294095148507 177.1472353640711,58.85745232201589 177.07704579085112,57.800356214735075 180.0016113385791,51.28625300376734 169.68374408618547,37.54318489896832 164.3727330516558,31.80000000000291 164.18556085648015,32.11430730462598 169.0286414035363,37.200312153087 171.6724486586172,40.62901695945766" stroke="#4DD2FF" stroke-linecap="round" stroke-linejoin="round" stroke-width="0.5"><title>2025-05-31 10.0km</title><desc>1748691698000</desc></polyline><polyline fill="none" points="20.230681634391658,72.59999999999127 20.114721658756025,73.08150172453315 24.86908065865282,77.98143290597363 33.21819890232291,89.0837834051199 34.05311072675977,89.39532127484563 35.86208634625655,92.0008943159628 32.87031897553243,98.88286470755702 33.079046931583434,99.61919510424195 29.832167614717036,103.72561014123494 28.115959975635633,104.9716803014453 29.739399634185247,103.81056968333723 33.10223892680369,99.64751545735635 32.96308695606422,98.88286470755702 35.954854326788336,92.0008943159628 25.008232629392296,77.81149483239278 20.04514567332808,72.8549128024315 24.985040634288453,78.12304787199537 33.21819890232291,89.05546175976633 34.09949471708387,89.42364287859527 35.88527834136039,92.0008943159628 32.986278951284476,98.65630103751027 33.009470946271904,99.73247649586119 29.76259162928909,103.81056968333723 28.162343965959735,104.9716803014453 29.785783624392934,103.78224983945256 32.986278951284476,99.73247649586119 32.986278951284476,98.71294197574025 35.954854326788336,92.11417943517154 25.588032507454045,78.49124637820933 20.068337668431923,72.79826553727617 25.008232629392296,78.17969383414311 33.14862291701138,88.99881845872733 34.14587870729156,89.4802860757045 35.86208634625655,91.97257302745129 32.87031897553243,98.82622381078545 33.03266294137575,99.64751545735635 29.739399634185247,103.86720936077472 28.115959975635633,104.9716803014453 29.669823648873717,103.89552919435664 33.055854936596006,99.81743750328314 33.009470946271904,98.79790335719008 35.93166233156808,92.05753688249388 25.541648517129943,78.43460049228452 20.068337668431923,72.8549128024315 24.79950467334129,77.868140870778 32.91670296585653,88.71560174578917 34.00672673643567,89.39532127484563 35.81570235604886,91.91593044019828 32.89351097063627,98.76958290020411 33.03266294137575,99.61919510424195 29.739399634185247,103.83888952386042 28.092767980648205,105.0 29.901743600028567,103.6689704292221 33.079046931583434,99.70415615318052 32.96308695606422,98.85454426094657 35.93166233156808,92.05753688249388 25.42568854149431,78.34963163745124 20.04514567332808,72.88323642979958 24.985040634288453,78.17969383414311 33.055854936596006,88.91385348122276 34.07630272186361,89.50860766903497 35.88527834136039,92.11417943517154 32.91670296585653,98.76958290020411 33.055854936596006,99.64751545735635 29.832167614717036,103.72561014123494 28.069575985427946,105.0 29.739399634185247,103.86720936077472 32.986278951284476,99.8457578321104 32.93989496096037,98.88286470755702 35.93166233156808,92.05753688249388" stroke="#4DD2FF" stroke-linecap="round" stroke-linejoin="round" stroke-width="0.5"><title>2025-03-01 15.0km</title><desc>1740782421000</desc></polyline><polyline fill="none" points="54.15728477551602,72.63469148732838 54.58337634371128,72.59999999997672 54.469751925440505,73.22444612390245 60.37822167063132,79.39945041545434 70.29195215646178,92.5815938677406 71.48500854731537,93.1366180421901 73.70068470179103,96.25860878167441 70.06470332003664,105.0 73.78590301529039,96.32798596317298 60.690688820555806,79.22599707441987 54.469751925440505,72.91222323381226 60.46343998424709,79.46883172210073 70.37717047007754,92.68566098317388 71.4281963382382,93.10192906315206 73.70068470179103,96.18923158300458 70.00789111107588,104.96531247213716 73.84271522448398,96.39736312779132 61.00315597059671,79.60759428446181 54.66859465721063,72.84284032267169 54.32772140274756,72.98160612795618 60.747501029632986,79.78104739196715 70.32035826088395,92.5815938677406 71.54182075627614,93.2059959875769 73.64387249259744,96.18923158300458 70.03629721561447,104.96531247213716 73.84271522448398,96.43205170379952 61.14518649340607,79.74635677901097 54.81062518002,72.9469146829797 54.29931529820897,72.9469146829797 60.49184608890209,79.53821301175049 70.40557657449972,92.68566098317388 71.48500854731537,93.10192906315206 73.70068470179103,96.22392018447863 70.00789111107588,104.93062493996695 73.81430911982898,96.39736312779132 60.4350338797085,78.9137807933148" stroke="#4DD2FF" stroke-linecap="round" stroke-linejoin="round" stroke-width="0.5"><title>2025-02-25 10.0km</title><desc>1740436543000</desc></polyline><polyline fill="none" points="90.67281085590366,72.60000000000582 90.44531843764707,73.22511537416722 96.3316847573733,79.3720098878548 106.36978770827409,92.70718779292656 107.4219401422888,93.15862816511071 109.61155466700438,96.14506177441217 105.94323942437768,104.96527529152809 109.69686432380695,96.21451334501035 96.7297964891186,79.3720098878548 90.24626257177442,72.8778292251518 96.24637510057073,79.26782634403207 106.34135115600657,92.67246158063062 107.62099600816146,93.36698501787032 109.58311811462045,96.21451334501035 105.91480287199374,104.93055057874881 109.66842777142301,96.24923912395025 96.30324820498936,78.85109178660787 90.30313567630947,72.8778292251518 96.18950199591927,79.23309848766075 105.48825458798092,91.63067323874566 107.4219401422888,93.22808046644786 109.58311811462045,96.17978756179218 105.94323942437768,104.93055057874881 109.66842777142301,96.24923912395025 97.15634477313142,79.82347146881511 90.27469912404194,72.8778292251518 96.3316847573733,79.33728204414365 106.28447805147152,92.63773536420194 107.45037669443991,93.19335431786021 109.66842777142301,96.24923912395025 106.00011252879631,104.86110114050098 109.72530087607447,96.38814219707274 96.92885235499125,79.58037686059834 90.70124740805477,72.91255785911926 90.30313567630947,72.98201511453954 96.50230407097843,79.58037686059834 106.17073184228502,92.42937797619379 107.47881324670743,93.19335431786021 109.6399912192719,96.21451334501035 105.97167597652879,105.0 109.75373742822558,96.63122241158271 107.36506703775376,93.08917584695155" stroke="#4DD2FF" stroke-linecap="round" stroke-linejoin="round" stroke-width="0.5"><title>2025-02-22 12.0km</title><desc>1740177306000</desc></polyline><polyline fill="none" points="126.46753810031805,72.59999999997672 126.29655223665759,73.12204858555924 132.16706688934937,79.24734708014876 141.99875405046623,92.3675710259995 143.45213389163837,93.27239175132127 145.56095954356715,96.16083865554538 141.8847634746926,104.93040137705975 145.6749501193408,96.26523980175261 132.73701976821758,79.3517544339411 126.66702160786372,72.87842603147146 126.21105930476915,72.87842603147146 132.70852212433238,79.90859300663578 142.25523284589872,92.64597770947148 143.33814331586473,93.13318875007099 145.61795483145397,96.26523980175261 141.9417587625794,104.96520069069811 145.646452475572,96.19563904189272 132.2810574650066,78.79491477119154 126.63852396397851,72.7740163015842 126.23955694865435,72.91322926632711 132.08157395757735,79.14293968811398 142.16973991401028,92.57637606421486 143.36664095986634,93.16798950679367 145.61795483145397,96.2304394239909 141.9702564064646,105.0 145.646452475572,96.19563904189272 132.65152683632914,79.17774215646205 126.23955694865435,72.80881954918732 132.36655039689504,79.49096417924738 142.31222813378554,92.68077852582792 143.48063153552357,93.30719249101821 145.58945718745235,96.16083865554538 141.9132611185778,104.93040137705975 145.7034477633424,96.2304394239909 132.85101034399122,79.45616174931638 126.23955694865435,72.80881954918732 132.19556453323457,79.28214953572024 142.1982375580119,92.54157523508184 143.33814331586473,93.13318875007099 145.61795483145397,96.26523980175261 141.9417587625794,104.93040137705975 145.6749501193408,96.12603826500708 132.50903861655388,79.03853225777857 126.29655223665759,72.7740163015842 131.9960810256889,79.03853225777857 142.22673520201351,92.50677440187428 143.39513860363513,93.13318875007099 145.56095954356715,96.19563904189272 141.9702564064646,105.0 145.78894069523085,96.40444127039518 134.95983599592,82.20554059668211" stroke="#4DD2FF" stroke-linecap="round" stroke-linejoin="round" stroke-width="0.5"><title>2025-02-05 15.0km</title><desc>1738709514000</desc></polyline><polyline fill="none" points="162.48581584566273,72.60000000000582 162.4287592691835,73.2619723729731 168.2485300861299,79.39385383401532 178.1763744208729,92.59785481513245 179.4030908185523,93.19010436511599 181.5997690190561,96.25584705159417 177.97667640272994,105.0 181.74241046071984,96.32552263818798 168.7335109874839,79.35901397143607 162.71404215227813,72.84388473752188 162.20053296268452,72.80904407348135 168.39117152779363,79.46353354630992 178.09078955592122,92.42366353666876 179.3745625303127,93.15526619029697 181.5997690190561,96.29068484698655 177.97667640272994,104.96516326995334 181.7138821723638,96.25584705159417 168.56234125758056,79.11513481396833 162.22906125092413,72.84388473752188 168.41969981591683,79.49837339614169 178.0622612676816,92.35398699544021 179.34603424195666,93.120428011287 181.5997690190561,96.18617144794553 177.91961982601788,104.9303265355993 181.74241046071984,96.81325126704178 181.62829730741214,96.15133363968926 168.8476241407916,79.4286936922872 162.6855138640385,72.80904407348135 162.22906125092413,72.91356605273904 168.22000179777388,79.289334233501 178.23343099758495,92.63269305799622 179.46014739526436,93.22494253551122 181.62829730741214,96.22100925192353 177.9481481143739,104.96516326995334 181.68535388400778,96.18617144794553 168.5052846808685,79.01061511118314 162.6855138640385,72.80904407348135 162.22906125092413,72.94840670391568 168.30558666284196,79.39385383401532 178.09078955592122,92.3888252681354 179.3745625303127,93.15526619029697 181.5712407308165,96.15133363968926 177.9481481143739,104.9303265355993 181.7994670374319,96.56938705701032 178.8039967638906,92.63269305799622" stroke="#4DD2FF" stroke-linecap="round" stroke-linejoin="round" stroke-width="0.5"><title>2025-02-04 12.0km</title><desc>1738622138000</desc></polyline><polyline fill="none" points="15.121440960094333,113.39999999999418 15.121440960094333,114.5115305633226 24.31391066359356,124.12615641212324 40.5600081095472,145.79999999998836 41.1516026945319,145.74442736443598 40.9240663156379,145.02198248365312 24.8599979726132,123.95943053014344 15.257962787291035,113.7890360065212 14.802890029968694,114.23364817767288 24.495939766522497,124.29288223281037 40.60551538551226,145.79999999998836 40.969573591602966,145.13312792472425 24.768983421148732,123.79270458704559 15.439991890685633,113.9001890902291 14.939411857398227,114.23364817767288 24.450432491023093,124.23730696606799 40.5600081095472,145.6888547220733 41.1516026945319,145.74442736443598 40.9240663156379,144.96640975298942 25.542607109062374,124.73748412207351 15.485499166185036,113.95576562173665 14.848397305700928,114.23364817767288 25.26956345443614,125.29323587191175 40.46899355808273,145.57770941709168 41.24261724599637,145.46656408481067 40.514500833814964,144.41068207187345 24.768983421148732,123.95943053014344 15.348977339221165,113.7890360065212 14.893904581433162,114.17807168001309 25.224056178703904,125.12651041831123 40.514500833814964,145.74442736443598 41.0150808673352,145.13312792472425 25.042027075774968,124.12615641212324 15.348977339221165,113.84461255176575 14.757382754003629,114.23364817767288 24.768983421148732,124.6819089097844 40.46899355808273,145.6888547220733 40.7875444884412,144.85526427111472 26.862318106228486,126.4603123330744 15.348977339221165,113.7890360065212 14.848397305700928,114.23364817767288 24.177388836396858,123.95943053014344 40.46899355808273,145.63328207298764 41.0150808673352,145.1887006351899 35.23565684584901,137.29730770734022 20.85535770584829,119.68011195128202" stroke="#4DD2FF" stroke-linecap="round" stroke-linejoin="round" stroke-width="0.5"><title>2025-01-23 11.4km</title><desc>1737585341000</desc></polyline><polyline fill="none" points="54.31965843401849,113.39999999996508 54.43438840820454,114.03052146869595 60.40034706215374,120.26560345015605 70.29580732958857,133.47091862710658 71.47178956412245,134.10139589520986 73.65165907226037,137.04360478991293 70.1523948617978,145.72994990079314 73.82375403353944,137.218735318369 61.08872690680437,120.47577238717349 54.60648336948361,113.54011600182275 54.176245966460556,113.61017397721298 60.228252100991085,120.09046255151043 70.20975984900724,133.3658389475022 71.52915455121547,134.10139589520986 73.7090240593534,137.14868311982718 70.00898239423987,145.79999999998836 73.82375403353944,137.18370922128088 60.88794945215341,120.23057527895435 54.262293447041884,113.5751449916279 60.37166456854902,120.23057527895435 70.32448982296046,133.5059451785055 71.44310707075056,133.99631644692272 73.73770655295812,137.14868311982718 70.06634738121647,145.72994990079314 73.82375403353944,137.218735318369 60.77321947796736,120.12549073985429 54.20492845994886,113.54011600182275 61.002679426106624,120.96616597342654 70.35317231656518,133.5059451785055 71.50047205772717,134.03134293406038 73.65165907226037,137.04360478991293 70.06634738121647,145.6598997846013 73.79507153993472,137.14868311982718 60.48639454273507,119.77520866392297 54.57780087587889,113.50508700782666 54.20492845994886,113.5751449916279 60.17088711389806,119.95034975543967 70.09502987470478,133.19070606242167 71.50047205772717,134.06636941674515 73.65165907226037,137.11365701418254 70.06634738121647,145.62487471997156 73.82375403353944,137.28878749976866 60.77321947796736,120.12549073985429 54.66384835646022,113.64520295834518 54.233610953437164,113.82034780012327 60.42902955552563,120.30063161707949 70.41053730354179,133.61102480671252 70.72604473226238,133.26075922930613 63.44069137610495,123.5932601680106" stroke="#4DD2FF" stroke-linecap="round" stroke-linejoin="round" stroke-width="0.5"><title>2025-01-18 14.0km</title><desc>1737153490000</desc></polyline><polyline fill="none" points="101.89202291757101,127.94533882998076 97.85094755399041,131.09187077070237 96.9870427501155,132.32081092143926 96.09457910971832,133.33183800598636 95.00934332303586,134.22083273930184 93.75989422650309,134.98779968440067 92.95310709564365,136.28639536820992 91.60370207138476,137.62854324433283 89.79735566329327,138.92709085506067 83.79999999998836,143.8596133381143 88.07668576468132,140.46963011822663 89.80449537243112,138.95323586619634 91.4466284707014,137.80284631056566 93.01022476860089,136.2776800397478 93.80273248124286,134.97908419727173 95.07360070516006,134.20340157651663 95.99462318205042,133.4625732205095 96.97990304097766,132.3818215828578 97.87236668134574,131.10058673286403 103.14147201407468,126.96910125640716 103.83402379899053,126.58557569602999 103.78404583517113,126.36766252689267 104.52657558393548,126.08001612396765 107.83226090788958,123.36910969375458 108.40343763772398,122.63688577720313 110.03843102685641,121.4862330016258 110.72384310269263,120.41401711080835 112.20890260025044,119.49869810484961 112.88003525781096,118.56593236211484 114.42221242835512,117.57213113398029 114.70780079328688,116.70036426473234 115.8358748347091,115.93320060153928 116.19999999998254,115.34038666189008 115.75733803433832,115.94191841682186 114.72921992064221,116.63934018465807 114.40793301013764,117.53726066384843 112.90145438516629,118.52234487939859 112.23032172763487,119.4463938067347 110.64530630232184,120.44888617393735 110.0527104451321,121.45136444582022 108.41057734680362,122.60201778411283 107.81798148961389,123.3603927866061 105.89026002641185,124.92941890915972" stroke="#4DD2FF" stroke-linecap="round" stroke-linejoin="round" stroke-width="0.5"><title>2025-01-16 10.5km</title><desc>1736984045000</desc></polyline><polyline fill="none" points="123.00955749303102,113.39999999999418 123.23866582638584,114.51920925703598 132.63210749812424,124.20025502244243 148.66969083994627,145.57617367600324 149.2653725068085,145.74404342926573 149.1279075066559,145.01660738693317 134.19004416558892,125.43135598232038 123.46777415997349,113.73576306473115 122.91791415959597,113.39999999999418 122.78044915944338,114.07152588295867 132.54046416468918,124.14429580915021 148.66969083994627,145.74404342926573 149.17372917337343,145.18447734546498 134.05257916543633,125.26347877390799 123.23866582638584,113.51192104880465 122.78044915944338,114.01556543030892 132.63210749812424,124.20025502244243 148.6238691729959,145.74404342926573 149.03626417322084,144.96065072040074 134.3275091657415,125.6551921647042 123.3303091598209,113.62384207037394 122.73462749272585,114.01556543030892 132.49464249797165,124.14429580915021 148.6238691729959,145.6880868517328 149.2195508403238,145.74404342926573 149.0820858401712,145.0725640465971 135.15229916595854,126.60649471671786 123.28448749287054,113.51192104880465 122.78044915944338,114.01556543030892 132.44882083125412,124.08833658896037 148.6238691729959,145.79999999998836 149.2653725068085,145.79999999998836 149.1279075066559,145.0725640465971 133.09032416483387,123.97641812817892 123.37613082653843,113.73576306473115 122.68880582624115,113.95960497079068 132.5862858314067,124.31217342833406 148.53222583979368,145.74404342926573 149.31119417352602,145.63213026736048 148.85297750658356,144.6808672847692 133.22778916498646,124.14429580915021 123.46777415997349,113.73576306473115 122.78044915944338,113.56788156309631 122.82627082616091,114.18344676744891 132.44882083125412,124.08833658896037 137.44338250067085,130.9712692957546 138.2223508344032,130.69147730286932 135.38140749931335,127.11012467852561" stroke="#4DD2FF" stroke-linecap="round" stroke-linejoin="round" stroke-width="0.5"><title>2025-01-14 10.6km</title><desc>1736807801000</desc></polyline><polyline fill="none" points="166.66230496918433,132.79929144874404 164.232411170844,134.69219552064533 163.22137144356384,135.98865643734098 162.50344827587833,136.58501515922399 161.8067654385668,136.9998684580387 161.3904549626459,137.71029531381282 160.43888816048275,138.65405566437767 159.436344565358,139.35926947961707 158.18316507145937,140.44817956252882 155.8000000000029,142.3200025660226 157.94952143701084,140.65558783971574 159.46183296185336,139.35408412668767 160.3624229710258,138.7318371747897 161.3649665661651,137.76215082298586 161.84924609940208,136.98431153252022 162.61389799397148,136.5176011151416 163.25960403827776,135.97309914112338 164.28338796382013,134.671451824026 167.75405795201368,132.00580243225704 167.77529828243132,131.8865184866081 167.97070932213683,131.8865184866081 168.27657007997914,131.66350847128342 170.1754556181986,130.10240554182747 170.50680477253627,129.67192519509263 171.50085223549104,128.97173698748884 171.87043398452806,128.3597111629133 172.80500852236582,127.77361035943977 173.19158253572823,127.2289961599381 174.09642061099294,126.64287973359751 174.26209518816904,126.13974678391969 174.98851448802452,125.61067270877538 175.65121279665618,124.58881488189581 180.3113412875391,121.31040428780761 181.95959092698467,120.51670032727998 182.49909531929006,119.94605431320451 188.20000000001164,116.87999743398177 184.35550019667426,118.87218144549479 182.50334338535322,119.92011567556256 181.98507932346547,120.48038671880931 180.2731086927961,121.31559184650541 175.66395699490386,124.54731759718925 174.96302609152917,125.61067270877538 174.25784712207678,126.1138119340394 174.07093221451214,126.64287973359751 173.18733446965052,127.20824881406952 172.75403172938968,127.78398389536596 171.8576897862804,128.34415106922097 171.49235610332107,128.95099049394776 170.48556444211863,129.66155212078957 170.16271141995094,130.09203257276386 168.18311262621137,131.71018508309498 168.00044578472443,131.82428325141154 167.89424413269444,131.7413027957955 167.8730038022768,131.86058714970568 167.7073292251298,132.0213611830477 164.27913989772787,134.64552218901008 163.17889078275766,136.02495677297702 162.57566539925756,136.52278681463577 161.8025173724891,136.99468281682493 161.16105939427507,137.95920118006688 160.39640749969112,138.67479741443094 159.7294611249672,139.13629873120954 160.3794152353512,138.72665174519716 161.2375245837029,137.9073459116371 161.81950963681447,136.9998684580387 162.65213058869995,136.49167260811737 163.4805034745077,135.7241816261303" stroke="yellow" stroke-linecap="round" stroke-linejoin="round" stroke-width="0.5"><title>2025-01-01 21.1km</title><desc>1735687361000</desc></polyline><polyline fill="none" points="41.57256304990733,154.1999999999971 42.87552910274826,155.4048351743986 42.17832796921721,157.4222049045493 41.97259648720501,157.660364237061 41.45826778217452,157.4081955164511 41.21824771980755,157.63234551800997 40.95536860387074,158.89318101043318 41.732576424838044,160.71436305135285 42.40691850479925,161.34476539610478 43.138408218626864,162.63357704738155 42.15546891570557,164.9029706102301 42.075462228269316,166.12170023810177 42.212616549571976,167.11628596370429 42.818381468823645,168.1668952026157 42.68122714746278,169.77781044250878 43.33271017385414,171.26263376431598 43.37842828105204,171.9490077782175 42.86409957596334,173.47582485280873 42.25833465671167,174.06413419639284 40.56676469341619,174.73648399064405 38.62374514102703,174.8905635898409 37.5265105701983,175.43684411628783 37.17219524004031,175.81503678372246 37.14933618652867,176.68347442683444 38.52087940002093,178.85453940902516 38.749469935602974,179.55487407621695 38.80661756946938,180.40927650749654 38.418013658956625,181.12360802080366 37.343638141755946,181.86594776227867 35.823511080176104,182.13206837197504 34.74913556291722,182.63629518138623 31.583156645239796,183.14051974678296 28.31431198643986,186.59999999999854 22.016642731265165,181.9359795622804 22.713843864796218,180.75943957679556 30.165895324607845,171.136564615721 22.473823802371044,165.28119844986213 22.05093131167814,165.56136640563636 12.964457522321027,177.15971159824403 12.62157171900617,176.99162811932183 21.902347463474143,165.01503824997053 21.628038820810616,164.5387500153738 17.936301671201363,161.59692535151407 18.0048788319109,161.28872977420542 18.35919416206889,161.24670303961466 18.75922759930836,161.4848543295011 26.75989634450525,167.83070130644046 27.41137937089661,167.69062022181606 28.188587191863917,166.69603953952173" stroke="#4DD2FF" stroke-linecap="round" stroke-linejoin="round" stroke-width="0.5"><title>2024-12-28 10.1km</title><desc>1735347410000</desc></polyline><polyline fill="none" points="65.29613679545582,169.52476257855596 61.35642811906291,172.5892084497682 60.52197593412711,173.78321963016788 59.70120329322526,174.71002511359984 58.63419886000338,175.57837199752248 57.48511716275243,176.271371689254 56.766941101959674,177.46531852840417 55.31690943634021,178.8930177811344 53.695883470529225,180.04517437713366 52.129575680795824,181.4227274193181 47.79999999998836,184.8372694905338 51.5550348321558,181.91530025249085 53.812159594672266,179.96168542153464 55.180113996204454,179.03495116450358 56.73274224193301,177.53211214100884 57.471437618747586,176.29641973928665 58.59999999997672,175.60342030159518 59.735402153251925,174.68497648202174 60.60405319821439,173.72477201612492 61.36326789105078,172.60590805074025 67.04711842938559,168.23882336903625 67.04711842938559,168.03841507834295 67.30018999366439,168.0634661468357 67.7789740341832,167.76285271867528 70.93210892970092,165.16583163596806 71.55452818240155,164.3975621021964 73.08663711207919,163.33700191798562 73.68169727677014,162.35158478392987 75.19328689042595,161.39955811837717 75.82938568713143,160.51432843572547 77.26573780871695,159.58733033778844 77.55984800509759,158.73548315449443 78.68157061430975,157.9504381072402 79.59126029131585,156.43878339617368 80.19999999998254,155.9627305094691 79.7554148195195,156.24669227985578 78.73628879035823,157.83351573236723 77.51196960100788,158.7438346490526 77.26573780871695,159.5539247660272 75.77466751108295,160.53103098876454 75.18644711840898,161.36615343300218 73.62013932867558,162.3766379380104 73.08663711207919,163.31194911611965 71.47245091831428,164.44766690039978 70.9115896136791,165.15748092663125 67.72425585813471,167.77120310953615 66.73248891704134,168.40582982885098" stroke="#4DD2FF" stroke-linecap="round" stroke-linejoin="round" stroke-width="0.5"><title>2024-12-24 11.5km</title><desc>1734996352000</desc></polyline><polyline fill="none" points="105.82025586350937,165.0563401301697 100.96716417907737,168.84094758822903 99.0155650319648,171.37095467649488 97.78070362471044,172.43564380966563 96.03635394453886,173.53194364151568 95.09509594878182,175.08149752659665 93.16076759062707,176.97887254353554 91.3559701492195,178.20160322287848 88.49765458417824,180.6786338180027 83.8259061833669,184.3360766396072 88.22995735605946,180.9210627792345 91.2091684434854,178.3597136833996 93.22985074625467,176.94724996852892 95.12963752663927,175.08149752659665 96.13997867802391,173.45815466704516 97.4784648187051,172.6991786950457 98.89466950958013,171.53961917749257 101.06215351811261,168.78823831817135 106.98603411510703,164.13915399362304 108.19498933898285,163.36955350310745 108.1604477611836,163.13761776208412 108.54904051168705,163.1059901126937 109.04989339015447,162.76862779776275 113.00490405113669,159.53199102781946 113.72164179102401,158.60420303936553 115.80277185497107,157.13869940453878 116.19999999998254,156.45338340337184 115.69914712148602,157.19141579444113 113.73891257995274,158.5514875130757 113.03081023451523,159.46873307292844 109.10170575688244,162.72645741559973 108.59221748399432,163.0743624517345 108.46268656713073,162.95839426229213 108.28997867798898,163.26412824357976 107.02921108735609,164.065356983956 101.11396588484058,168.70390341908205 98.84285714285215,171.53961917749257 97.56481876331964,172.5832234446716 96.0018123666814,173.5530261940803 95.10373134328984,175.06041534755786 93.97249466949143,176.20938659422973 93.02260127931368,177.06319935362262 91.27825159911299,178.26484744183836 87.72046908314223,181.30051543810987 83.79999999998836,184.3466165966238 87.79818763327785,181.24781377972977 91.33006396587007,178.25430674190284 93.48891257989453,176.70480984161986 95.0778251599113,175.11312078548508 96.07089552236721,173.53194364151568 97.4698294242844,172.6886373150992 98.72196162046748,171.69774184765993 99.96545842214255,170.3273357437356 100.89808102344978,168.94636603174877 103.41098081017844,166.9855618950969" stroke="#4DD2FF" stroke-linecap="round" stroke-linejoin="round" stroke-width="0.5"><title>2024-12-21 15.0km</title><desc>1734737288000</desc></polyline><polyline fill="none" points="139.06445936555974,167.50274496116617 134.7209539244941,170.84545717765286 133.89576290803961,172.03597620281653 132.81551285015303,173.26310678789014 131.87029404949863,174.0415001018191 130.48997453111224,174.87482986530085 129.6047696225578,176.28505912586115 128.11942579297465,177.74104720990726 126.28900208376581,179.05049661236262 123.65589256767998,181.3030623395607 119.79999999998836,184.34300307357626 124.29354017131845,180.79028910057968 126.22148645517882,179.10543804527697 128.38948830743902,177.50296304251242 129.6047696225578,176.28505912586115 130.44496411204454,174.91145953239175 131.67524890016648,174.16970528392994 132.7855059041176,173.28142201756418 133.81324380642036,172.14586931317172 134.75096087052952,170.8179834384282 140.21972678857855,166.53195675921597 141.78758971981006,165.5062046156163 145.20087983328267,162.7127905307134 145.8310257003759,161.9068025161032 147.57142857139115,160.68864508352272 148.179069228936,159.65365365584148 149.82194952532882,158.6094885222774 150.60963185920264,157.57446836851886 152.07247047923738,156.64019010851916 152.19999999998254,156.45699692641938 150.54211623055744,157.5927874336121 149.87446168088354,158.54537264507235 148.14156054635532,159.64449437585426 147.50391294277506,160.70696338707057 145.77101180824684,161.91596151953127 145.163371150702,162.7036316246813 141.4275063671521,165.7534854348487 141.32248205598444,165.97328992233815 140.90238481128472,166.07403343029" stroke="#4DD2FF" stroke-linecap="round" stroke-linejoin="round" stroke-width="0.5"><title>2024-12-17 10.2km</title><desc>1734391788000</desc></polyline><polyline fill="none" points="171.5436188315507,170.7980026429177 168.0150879183202,173.52018439403764 166.60000000000582,175.3373976652183 165.668859897909,176.13755265259533 164.5110606919916,176.8554398123306 163.73306863303878,178.08928869371448 162.4159954622737,179.33059034660255 161.09892229156685,180.24285623458854 159.43879750426277,181.68600319081452 155.79999999998836,184.52733298937892 162.95507657399867,178.85949690036796 163.83720930234995,177.9696438306819 164.52331253545708,176.84796186448148 165.6566080544435,176.1450306872357 166.40397050484899,175.53930691995265 167.14520703346352,174.7391441104155 168.10697674416588,173.44540079882063 172.29098128189798,170.1623108907188 173.8469653998909,169.12275367653638 176.56074872377212,166.88652397845 177.0753261486243,166.2358330957686 178.48428814520594,165.24108538069777 178.98048780491808,164.3884316080148 180.3465683494287,163.5282863750217 180.95303460012656,162.7055274436134 182.19659671012778,161.91267654881813 182.47838910945575,161.1422549857998 183.47078842882183,160.43914334288638 184.38355076574953,158.9954951678592 188.20000000001164,156.27266701062035 184.45706182645517,158.89077324935351 183.47691435055458,160.38678364188308 182.46613726601936,161.11233550606266 182.20272263188963,161.86779788899003 180.91015314805554,162.71300712011725 180.30981281906134,163.52080679822757 178.99886557005811,164.34355476447672 178.49041406693868,165.21116790565793 177.01406693135505,166.26575006974235 176.60975609754678,166.80425309961356 176.0400453772163,167.27543936258007" stroke="#4DD2FF" stroke-linecap="round" stroke-linejoin="round" stroke-width="0.5"><title>2024-12-14 12.1km</title><desc>1734132056000</desc></polyline><polyline fill="none" points="33.872068230237346,205.78782230566867 28.949893390148645,209.6462236308289 27.98272921104217,211.04827753523568 26.920575692958664,212.25001988784788 25.651172707846854,213.3147074598528 24.122707889066078,214.23180404236336 23.026012793154223,215.950016223891 21.221215351775754,217.6892759123366 19.30415778249153,219.02795494519523 17.05895522388164,220.99904295898887 11.799999999988358,225.17296306451317 17.836140724946745,220.3560726730866 19.23507462683483,219.0806584191887 21.61844349675812,217.34142677960335 23.15554371001781,215.79189996811328 24.03635394453886,214.31613427313277 25.530277185462182,213.39903858709295 26.782409381645266,212.38705961906817 27.974093816621462,211.06936087865324 29.10533049039077,209.49863768364594 35.19328358207713,204.73358427178027 37.20533049036749,203.39468339417363 40.90991471213056,200.33727275950514 42.02388059697114,201.92924837358441 41.02217484006542,200.2740148433004 41.7130063965742,199.37785604556848 43.776865671621636,197.91235276908264 44.19999999998254,197.2270369354883 43.70778251596494,197.93343932372227 41.730277185473824,199.32514053217892 41.073987206822494,200.1791278819801 36.62675906182267,203.85855691741017 34.8910447761009,204.9233480688199 29.044882729183882,209.5091795453991 27.956823027692735,211.02719418663037 26.76513859271654,212.3448935710985 25.52164179101237,213.35687303378654 23.984541577810887,214.30559299879678 23.026012793154223,215.87622867391474 21.592537313408684,217.30980406163872 19.399147121526767,218.92254790068546 16.26449893391691,221.59984692871512 11.817270788917085,225.09918340134027 16.402665245172102,221.526064210404 19.165991471207235,219.1439025454747 21.324840085260803,217.6154898498644 23.190085287817055,215.77081777874992 24.096801705745747,214.2739691680399 25.43528784645605,213.4728282558208 26.903304904029937,212.27110293759324 29.131236673740204,209.48809582063404 35.13283582087024,204.786296479484 36.98944562897668,203.5633649640149 41.0135394455865,200.2634718527479 41.73891257995274,199.346226741407 43.64733475475805,198.00724222449207" stroke="#4DD2FF" stroke-linecap="round" stroke-linejoin="round" stroke-width="0.5"><title>2024-12-07 17.1km</title><desc>1733527336000</desc></polyline><polyline fill="none" points="50.085548540286254,227.39169429026515 50.34397921257187,227.2588027964739 50.207963069260586,227.40000000000146 50.31677598389797,227.16743974360725 49.74550818200805,225.78867328682827 49.8135162536928,225.66408457663056 57.981285658926936,222.71541834496747 58.92659785487922,222.18381418311037 59.65428422152763,221.3864001325419 72.95666303639882,205.78510270813422 73.41231711642467,204.97918744933122 75.63618105940986,199.2378026882434 76.27545693295542,197.90001514944743 77.69682563043898,195.63153248653543 77.96205710989307,195.39886330733862 78.25449181799195,195.4570306769674 77.86004500239505,195.00000000000728 77.73763047342072,195.00830967615184 76.8807287706295,196.16334475556505 76.11903836816782,197.44300093658967 75.22133182236576,199.2211843713594 73.14028482986032,204.73824185289413 72.68463074980536,205.5773935057805 67.48201326851267,211.75854721703217 61.10965695485356,219.10208926850464 60.87162870407337,219.6171042497299 59.39585354930023,221.31164208492555 58.702171218406875,222.0093806601726 58.205712295370176,222.33332827450067 49.88832513251691,225.34015285984788" stroke="#4DD2FF" stroke-linecap="round" stroke-linejoin="round" stroke-width="0.5"><title>2024-11-30 11.9km</title><desc>1732919585000</desc></polyline><polyline fill="none" points="86.66541848517954,195.5071479944163 96.35490678297356,205.59364209632622 112.64247520780191,227.34365415229695 113.24230067408644,227.1182706929976 111.95036890078336,225.14616071872297 96.35490678297356,204.7484136405401 87.17296311026439,195.0 86.66541848517954,195.5071479944163 96.44718762417324,205.7626876013528 112.64247520780191,227.39999999999418 113.33458151482046,227.23096243635518 113.0577389919199,226.5548115617712 97.13929393095896,205.64999060492846 87.17296311026439,195.05634980462492 86.7576993261464,195.61984747307724 96.44718762417324,205.64999060492846 112.68861562828533,227.34365415229695 113.19616025337018,226.83654121358995 97.69297897676006,206.26982374390354 87.31138437171467,195.22539917757967 86.71155890566297,195.56349773719558 96.53946846514009,205.7626876013528 112.68861562828533,227.39999999999418 113.38072193530388,227.23096243635518 112.68861562828533,226.0476977546641 96.72403014684096,205.14285377960186 87.17296311026439,195.05634980462492 86.66541848517954,195.5071479944163 96.17034510127269,205.48094505848712 112.68861562828533,227.39999999999418 113.15001983288676,226.72384937369497 97.09315351047553,205.64999060492846 87.12682268978097,195.05634980462492 86.71155890566297,195.56349773719558 96.44718762417324,205.7626876013528 112.59633478731848,227.34365415229695 113.19616025337018,226.9492330259818 97.27771519240923,205.81903608920402 87.17296311026439,195.11269960255595 86.61927806469612,195.45079824488494 96.49332804442383,205.87538457012852 112.50405394635163,227.17461656813975 113.28844109433703,226.9492330259818 107.52088853600435,219.45516745062196" stroke="#4DD2FF" stroke-linecap="round" stroke-linejoin="round" stroke-width="0.5"><title>2024-11-26 10.9km</title><desc>1732619882000</desc></polyline><polyline fill="none" points="122.7346250587143,195.27932016996783 131.928902173182,204.99955563628464 148.6249775304459,227.28827981217182 148.89943356369622,226.28279689207557 134.9936612113379,207.84855095366947 123.14630910847336,194.9999999999709 123.19205178064294,196.17314356507268 132.43207156751305,205.66990907507716 148.6249775304459,227.17655959710828 148.9451762358658,226.39451732602902 133.5756383726839,206.11681082073483 124.56433194712736,196.3965991406585 123.19205178064294,195.16759212233592 122.96333841979504,195.78209604500444 132.43207156751305,205.55818357030512 148.6249775304459,227.17655959710828 149.21963226911612,227.12069947933196 148.9451762358658,226.45037753271754 133.43841035617515,206.00508542527677 123.32927979738452,194.9999999999709 123.14630910847336,196.17314356507268 132.5235569118522,205.7816345524334 148.6249775304459,227.28827981217182 148.99091890803538,226.45037753271754 133.80435173376463,206.34026152954902 123.2835371249821,194.9999999999709 122.87185307522304,195.55864016892156 132.38632889534347,205.61404632605263 148.5334921858739,227.12069947933196 149.12814692477696,226.56209792540176 133.20969699509442,205.66990907507716 123.32927979738452,195.11172808843548 122.78036773088388,195.6145041482814 132.5235569118522,205.7816345524334 148.85369089152664,227.39999999999418 148.6249775304459,225.94763542697183 133.39266768400557,205.94922271740506 123.32927979738452,195.05586404752103 123.2835371249821,196.17314356507268 132.29484355077147,205.5023208076309 148.48774951370433,227.12069947933196 148.9451762358658,226.39451732602902 133.6671237172559,206.17267350808834 123.2835371249821,195.11172808843548 122.91759574739262,195.5027761827223 132.5235569118522,205.7816345524334 148.48774951370433,227.00897922323202 149.2653749412857,226.95311908479198 148.9451762358658,226.3386571125884 132.3405862231739,204.66437854777905 123.32927979738452,195.16759212233592 123.23779445281252,196.00555181194795 132.47781423991546,205.66990907507716 148.5792348580435,227.17655959710828 149.17388959717937,227.00897922323202 148.89943356369622,226.3386571125884 133.43841035617515,205.94922271740506 123.32927979738452,195.27932016996783" stroke="#4DD2FF" stroke-linecap="round" stroke-linejoin="round" stroke-width="0.5"><title>2024-11-16 14.9km</title><desc>1731755814000</desc></polyline><polyline fill="none" points="158.61967789498158,195.5053901775973 168.55146337510087,205.89384275468183 184.73659526836127,227.3438494655129 185.05845868657343,226.50159062325838 168.68940483988263,205.05154454908916 159.49330717348494,195.3369268469687 158.84958033682778,195.11230897629866 158.89556082501076,195.78616225798032 168.41352191008627,205.66923005107674 184.64463429152966,227.3438494655129 185.19640015158802,226.78234374246676 182.20766840991564,222.62718004296767 169.3331316767726,205.89384275468183 159.44732668506913,195.28077238952392 158.80359984841198,195.67385344655486 168.78136581694707,206.11845534847816 184.4607123383321,227.17539782062522 185.24238064000383,226.8384943457495 169.19519021175802,205.7253832372371 159.35536570870318,195.11230897629866 158.84958033682778,195.56154460736434 168.78136581694707,206.06230221042642 184.64463429152966,227.23154837585753 185.15041966340505,226.50159062325838 169.79293655999936,206.39922093605855 159.30938522005454,195.16846345429076 158.84958033682778,195.7300078557455 168.5054828869179,205.7253832372371 184.64463429152966,227.39999999999418 185.38032210501842,226.95079553162213 169.79293655999936,206.39922093605855 161.51644866005518,197.41463693708647 159.12546326662414,195.16846345429076 158.89556082501076,195.6176990303793 168.55146337510087,205.7815364166745 184.55267331493087,227.23154837585753 185.28836112841964,226.95079553162213 171.0344097451307,208.08381085511064 159.17144375503995,195.0561544916127 158.84958033682778,195.67385344655486 168.5054828869179,205.7815364166745 184.78257575654425,227.39999999999418 185.33434161660261,226.8946449420182 169.01126825832762,205.44461723743007 159.12546326662414,195.0 159.12546326662414,195.84231665343395 168.45950239826925,205.7253832372371 184.59865380334668,227.3438494655129 185.28836112841964,227.23154837585753 184.96649770997465,226.50159062325838 168.9652877699118,205.50077045106445 158.89556082501076,195.56154460736434 168.82734630489722,206.2869147216261 184.64463429152966,227.3438494655129 185.05845868657343,226.61389189166948 177.83952201833017,217.18048957383144" stroke="#4DD2FF" stroke-linecap="round" stroke-linejoin="round" stroke-width="0.5"><title>2024-11-10 14.3km</title><desc>1731237417000</desc></polyline><polyline fill="none" points="14.7346323619131,236.35960497098858 25.64018503180705,248.05519216498942 40.532221239991486,267.9761736759974 41.21954598813318,267.9202170779463 40.348934640642256,266.52129990031244 26.235866479808465,247.77539692015853 15.421957110054791,236.13576306478353 14.872097311541438,236.47152588301105 24.44882213510573,246.54429580946453 40.669686189619824,268.20000000001164 41.31118928780779,267.9761736759974 40.348934640642256,266.5772566696396 24.861216983757913,246.09662185661728 15.330313810613006,236.13576306478353 14.688810712192208,236.30364450480556 24.357178835198283,246.4883365892165 40.62386453989893,268.20000000001164 41.31118928780779,267.69639061702765 25.090325233293697,246.43237736233277 15.330313810613006,236.07980257101008 14.688810712192208,236.35960497098858 24.082248936174437,246.20854038593825 40.76132948952727,268.088086851727 41.12790268845856,267.41660738689825 25.181968532735482,246.4883365892165 15.192848860751837,235.85596052798792 14.963740611448884,236.52748632870498 24.540465434547514,246.4883365892165 40.71550783957355,268.03213026718004 41.2653676380869,267.69639061702765 40.669686189619824,266.74512693626457 25.686006681527942,247.0479284825269 15.330313810613006,235.91192104911897 14.780454011866823,236.13576306478353 26.602439678739756,249.11841253421153 40.62386453989893,267.9761736759974 41.173724338412285,267.7523472424364 40.1198263913393,266.07364549997146 25.869293281110004,247.32772417229717 15.284492160426453,235.80000000001746 14.826275661820546,236.52748632870498 25.31943348236382,247.495601504168 40.532221239991486,267.9761736759974 41.2653676380869,267.86426047288114 40.57804288994521,266.74512693626457 26.235866479808465,247.6075196910242 15.376135460101068,236.07980257101008 14.872097311541438,236.30364450480556 24.723752034362406,246.76813262153883 40.669686189619824,267.86426047288114 40.990437738830224,267.1927806795575 27.427229376742616,249.34224808670115" stroke="#4DD2FF" stroke-linecap="round" stroke-linejoin="round" stroke-width="0.5"><title>2024-10-26 12.9km</title><desc>1729940418000</desc></polyline><polyline fill="none" points="54.10477451386396,236.0462678404001 60.269485588301904,242.44915765646147 69.66058750532102,254.9027218062838 71.53304647642653,256.3802275250782 73.77999724203255,259.475929177308 70.1791146050673,268.1648228265112 73.86641842511017,259.5111074137385 60.38471383275464,242.06217385880882 54.27761688048486,235.87036226163036 60.355906771612354,242.55469860180165 70.46718521602452,255.95808380865492 71.56185353756882,256.45058475088445 73.77999724203255,259.6166420969821 70.15030754392501,268.20000000001164 73.89522548625246,259.65182031618315 60.643977382569574,242.2380756495404 54.22000275843311,235.97590562188998 60.29829264944419,242.55469860180165 70.35195697145537,255.8525477827352 71.47543235437479,256.3450489057577 73.72238311963156,259.4407509366865 70.12150048278272,268.12964564861613 73.80880430294201,259.475929177308 61.01846917672083,242.73060009122128 54.27761688048486,235.79999999998836 60.557556199259125,242.8713212053699 69.8334298718255,255.2193308135902 71.5906605985947,256.41540614012047 73.72238311963156,259.4055726916704 70.15030754392501,268.12964564861613 73.86641842511017,259.6166420969821 60.29829264944419,241.95663273264654 54.652108674752526,235.9407245060429 54.22000275843311,235.87036226163036 54.42165218596347,236.3277165426116 59.6357302442193,241.8159111709101 59.6357302442193,241.1474828120554 56.66860295145307,238.15712639156845" stroke="#4DD2FF" stroke-linecap="round" stroke-linejoin="round" stroke-width="0.5"><title>2024-10-19 10.6km</title><desc>1729335763000</desc></polyline></svg>