<?xml version="1.0" encoding="utf-8" ?>
<svg baseProfile="full" height="300mm" version="1.1" viewBox="0,0,200,300" width="200mm" xmlns="http://www.w3.org/2000/svg" xmlns:ev="http://www.w3.org/2001/xml-events" xmlns:xlink="http://www.w3.org/1999/xlink"><defs /><rect fill="#222222" height="300" width="200" x="0" y="0" /><text fill="#FFFFFF" style="font-size:12px; font-family:Arial; font-weight:bold;" x="10" y="20">Over 10km Runs</text><text fill="#FFFFFF" style="font-size:4px; font-family:Arial" x="10" y="280">Runner</text><text fill="#FFFFFF" style="font-size:9px; font-family:Arial" x="10" y="290">unsung</text><text fill="#FFFFFF" style="font-size:4px; font-family:Arial" x="65" y="280">SPECIAL TRACKS</text><rect fill="yellow" height="2.6" width="2.6" x="65" y="283" /><text fill="#FFFFFF" style="font-size:3px; font-family:Arial" x="70" y="285.5">Over 20.0 km</text><rect fill="red" height="2.6" width="2.6" x="65" y="287" /><text fill="#FFFFFF" style="font-size:3px; font-family:Arial" x="70" y="289.5">Over 40.0 km</text><text fill="#FFFFFF" style="font-size:4px; font-family:Arial" x="120" y="280">STATISTICS</text><text fill="#FFFFFF" style="font-size:3px; font-family:Arial" x="120" y="285">Number: 33</text><text fill="#FFFFFF" style="font-size:3px; font-family:Arial" x="120" y="290">Weekly: 1.6</text><text fill="#FFFFFF" style="font-size:3px; font-family:Arial" x="141" y="285">Total: 400.7 km</text><text fill="#FFFFFF" style="font-size:3px; font-family:Arial" x="141" y="290">Avg: 12.1 km</text><text fill="#FFFFFF" style="font-size:3px; font-family:Arial" x="167" y="285">Min: 10.0 km</text><text fill="#FFFFFF" style="font-size:3px; font-family:Arial" x="167" y="290">Max: 21.1 km</text><polyline fill="none" points="22.17351083282847,31.714285714289872 22.839048284920864,31.95812547073001 22.306618323316798,31.79556566287647 22.217879996285774,32.174871695562615 26.632611762848683,36.80777151613438 32.00128054432571,43.87885279020702 31.60195807297714,44.5019640695682 26.87664216198027,47.15694030521263 17.09324161382392,33.36697213954176 28.961992845637724,50.81425340408168 26.943195907166228,47.40076305749244 32.15657261654269,44.393597016474814 34.55250744475052,47.319488836539676 35.48425987781957,47.78004236097331 37.12591892667115,50.1098866884131 34.375030790804885,56.47619677624607 34.46376911760308,57.397264784172876 31.3357430921169,61.379485325465794 29.716268624877557,62.54433902334131 31.224820183357224,61.51493374463462 34.46376911760308,57.45144513595733 34.308477045502514,56.74709952912235 37.19247267197352,50.13697775741457 26.854457580368035,36.64521526855242 22.151326250983402,31.768472350013326 22.04040334234014,32.039405329938745 26.74353467160836,36.970327644390636 31.979095962597057,43.824669117762824 31.801619308651425,44.36650524487777 26.721350089879707,47.15694030521263 17.137610777281225,33.28569276766211 29.028546590940095,50.787162418011576 26.965380489011295,47.373671653840574 32.15657261654269,44.36650524487777 34.55250744475052,47.292397422963404 35.550813623005524,47.834225065555074 37.12591892667115,50.05570454064582 34.35284620895982,56.63873846772185 34.44158453599084,57.42435496172402 31.291373928659596,61.433664703014074 29.716268624877557,62.57142857143481 31.269189346930943,61.460754386906046 34.39721537241712,57.58689595742908 34.35284620895982,56.66582873807056 37.19247267197352,50.46207032626262 35.151491151656955,47.373671653840574" stroke="#4DD2FF" stroke-linecap="round" stroke-linejoin="round" stroke-width="0.5"><title>2025-06-23 10.0km</title><desc>1750631203000</desc></polyline><polyline fill="none" points="58.52222979301587,31.714285714289872 63.57142857159488,37.41883417511417 68.39819568570238,43.85664853602066 68.15352085512131,44.42707878051442 63.26002424163744,47.19771912226861 53.51751734735444,33.37133632422774 65.35088188550435,50.837527421463165 63.37124007369857,47.41502278498956 68.5538978506811,44.42707878051442 70.95615982450545,47.33353393639845 71.8236433151178,47.65948915135232 73.58085346280131,50.21278844750486 70.75597132684197,56.595908241171855 70.73372816038318,57.709540129988454 67.70865752652753,61.512143511194154 66.10714954393916,62.57142857143481 67.64192802726757,61.5664659448812 70.91167349170428,57.519408251639106 70.84494399244431,56.514422761742026 73.62533979560249,50.13130062560958 63.660401237080805,37.147192333985004 58.67793195799459,31.768615438515553 58.433257127413526,31.985934202806675 63.14880840945989,36.95704284743988 68.35370935278479,43.82948515446333 68.22025035438128,44.37275215363479 63.30451057443861,47.14339317336271 53.51751734735444,33.31700699220528 65.37312505184673,50.86468994565075 63.41572640649974,47.360696889300016 68.53165468433872,44.42707878051442 70.95615982450545,47.33353393639845 71.8236433151178,47.68665206435253 73.49188079696614,49.99548752277042 70.75597132684197,56.623070060959435 70.82270082598552,57.519408251639106 67.68641436018515,61.457821064163 66.10714954393916,62.57142857143481 67.90884602430742,61.26769239506393 70.88943032524548,57.519408251639106 70.75597132684197,56.758879110362614 73.60309662914369,50.07697539450601 63.68264440365601,37.09286392586364 58.67793195799459,31.768615438515553 58.455500293755904,31.985934202806675 62.99310624448117,36.73972894906183 68.30922301998362,43.77515838148247 68.19800718792249,44.34558883527643 63.32675374078099,47.14339317336271 53.539760513813235,33.28984232114453 65.41761138476431,50.86468994565075 63.37124007369857,47.360696889300016 68.5538978506811,44.399915468733525 70.95615982450545,47.33353393639845 71.80140014877543,47.68665206435253 73.51412396354135,50.07697539450601 70.73372816038318,56.623070060959435 70.84494399244431,57.492246541471104 67.70865752652753,61.43065983573615 66.10714954393916,62.57142857143481 67.66417119360995,61.484982289301115 70.31110799824819,58.279934788297396 70.91167349170428,57.41076139091456 70.75597132684197,56.78604091019952 71.22307782166172,55.78105210130161" stroke="#4DD2FF" stroke-linecap="round" stroke-linejoin="round" stroke-width="0.5"><title>2025-06-21 15.0km</title><desc>1750457084000</desc></polyline><polyline fill="none" points="95.2842949021142,31.714285714289872 94.9308931150008,32.11890906166809 99.32632784312591,36.67761412622349 104.80405554466415,43.93358338555845 104.67152987443842,44.4460777616041 99.81225530046504,47.22431601466087 98.19985964649823,45.41711647040211 89.98326809424907,33.467648189733154 101.68970229499973,50.59591735941649 99.79016768885776,47.38615405721066 104.95866882661358,44.473051116787246 107.38830611354206,47.35918105831661 108.31598580488935,47.763775694416836 109.95046907057986,50.19132792016899 107.18951760814525,56.556782389161526 107.21160521998536,57.60868302016752 104.09725197020452,61.46560907042294 102.55111915140878,62.57142857143481 104.25186525227036,61.30378136120271 107.27786805504002,57.581711271748645 107.18951760814525,56.63769800036971 109.99464429402724,50.16435526452551 100.01104380586185,37.10920262048603 95.19594445545226,31.957059811771614 94.95298072672449,32.17285878522671 99.43676590162795,36.78551132895518 104.82614315638784,44.0145036294125 104.51691659260541,44.553971162677044 99.74599246541038,47.251289030056796 90.02744331769645,33.440673488003085 101.68970229499973,50.56894475319132 99.81225530046504,47.413127052699565 104.98075643822085,44.4460777616041 107.41039372514933,47.27826204201847 108.29389819316566,47.763775694416836 109.95046907057986,50.1104099432705 107.23369283159263,56.50283863169898 107.27786805504002,57.500796006876044 104.22977764043026,61.35772394419473 102.61738198646344,62.54445743012184 104.20769002882298,61.38469523069216 107.29995566664729,57.52776776510291 107.23369283159263,56.610726133265416 110.01673190575093,50.54197214372107 107.27786805504002,46.54998955888732" stroke="#4DD2FF" stroke-linecap="round" stroke-linejoin="round" stroke-width="0.5"><title>2025-06-20 10.0km</title><desc>1750370921000</desc></polyline><polyline fill="none" points="131.55224497884046,31.714285714289872 131.44141937769018,32.20153719978407 135.8966085431166,36.857441719083 141.21623739751521,43.868182860838715 141.03891643579118,44.409543593777926 136.14042486564722,47.19753039232455 126.43210220651235,33.47379990808258 138.20178104680963,50.8245674342179 136.2512504667975,47.414071586041246 141.39355835935567,44.463679594235145 143.80955646408256,47.33286866324488 144.69616127305198,47.71181538148085 146.3585452901898,50.12081862715422 143.6322355022421,56.56274340880918 143.65440062235575,57.510069471012685 140.6177791514201,61.38053096256044 138.97756025462877,62.57142857143481 140.52911867049988,61.51586055904045 143.7430611033924,57.510069471012685 143.56574014155194,56.77927543775877 146.4472057709936,50.14788593038975 136.53939702978823,37.23640637945209 131.50791473826393,31.79549436972593 131.46358449780382,32.17446770094102 136.2955807072576,37.317613007864566 141.19407227728516,43.868182860838715 140.92809083452448,44.490747589530656 136.2512504667975,47.14339506078977 134.50020596885588,45.19451430377376 126.40993708616588,33.31138379953336 138.17961592646316,50.77043299005891 136.2512504667975,47.38700394844636 141.3270629986655,44.463679594235145 143.8317215841962,47.30580101571104 144.71832639328204,47.7388829793199 146.38071041030344,50.06668401088973 143.61007038201205,56.61687643590267 143.67656574270222,57.510069471012685 140.57344891096,61.46172873038449 138.97756025462877,62.51729700091528 140.57344891096,61.43466281102155 143.61007038201205,57.6724678172759 143.61007038201205,56.67100944973936 146.4472057709936,50.44562604706152 143.89821694488637,46.845650500501506" stroke="#4DD2FF" stroke-linecap="round" stroke-linejoin="round" stroke-width="0.5"><title>2025-06-17 10.0km</title><desc>1750111475000</desc></polyline><polyline fill="none" points="167.71689892513677,31.985456822119886 168.0277560094837,31.90410552461981 167.91673562221695,32.283744657514035 172.31314295937773,36.785130521282554 177.6199174723588,43.808194543395075 177.10922369081527,44.59454693175212 172.40195926919114,47.0891636308952 162.83200188388582,33.314190454548225 174.64457109267823,50.803921247352264 172.7128163536545,47.36031592816289 177.93077455682214,44.404737990000285 180.1955904577626,47.19762458962214 181.10595763358288,47.68569824712176 182.8156715980731,50.09893553715665 180.06236599292606,56.606410763881286 180.1955904577626,57.39271775052475 177.02040738088544,61.43266484084597 175.39950972632505,62.54431521715014 176.90938699361868,61.5411187815771 180.12897822528612,57.58251557085896 180.0401619154727,56.769095196868875 182.88228383043315,50.07182065740926 172.53518373391125,36.568198359702365 167.96114377712365,31.714285714289872 167.82791931240354,32.06680808983219 172.44636742409784,36.920713014522335 177.7087337821722,43.9980039960501 172.55738781148102,47.143394116923446 162.83200188388582,33.314190454548225 174.73338740249164,50.83103603756172 172.7128163536545,47.36031592816289 177.84195824689232,44.37762241357996 180.21779453509953,47.17050935488078 181.08375355612952,47.63146789371967 182.83787567541003,49.99047599810001 180.10677414783277,56.49795440895832 180.06236599292606,57.58251557085896 176.9982033034321,61.45977833104553 175.44391788123176,62.57142857143481 176.97599922597874,61.51400530136016 180.1511823028559,57.52828763872094 180.06236599292606,56.714867065806175 182.8600797529798,50.09893553715665 173.0458775155712,37.19187775206228" stroke="#4DD2FF" stroke-linecap="round" stroke-linejoin="round" stroke-width="0.5"><title>2025-06-15 10.5km</title><desc>1749940293000</desc></polyline><polyline fill="none" points="22.206787705305032,66.0 26.710257798898965,71.20185656726244 31.94581909000408,78.19165890708973 31.81271159951575,78.62512775576033 26.887734452844597,81.44265459092276 17.104333904688247,67.67977954253729 28.906531391316094,85.0728767037217 26.97647277987562,81.68647734320257 32.18984948913567,78.70640307046415 34.563599735614844,81.632294532581 35.38442926004063,81.95739119764767 37.13701121753547,84.50396523004747 34.34175391809549,90.92445275343198 34.430492245126516,91.71006924743415 31.30246621952392,95.7193789887242 29.705176334129646,96.85714285714494 31.324650801252574,95.7193789887242 34.45267682685517,91.81842992443126 34.34175391809549,91.03281381483248 37.18138038110919,84.34141882635595 27.531087323324755,71.77080221552751 22.162418541847728,66.0 22.384264359250665,66.65023875392217 26.776811544201337,71.25604193010076 31.94581909000408,78.13747524133942 31.768342436058447,78.6522195305879 26.710257798898965,81.38847172056558 17.17088764999062,67.57140705337224 29.01745430007577,85.0728767037217 26.998657361604273,81.632294532581 32.25640323443804,78.67931130218494 34.541415153769776,81.57811170867353 35.42879842338152,81.9844825649343 37.09264205407817,84.28723666518636 34.34175391809549,90.87027220283926 34.45267682685517,91.76424959253927 31.30246621952392,95.69228930158715 29.68299175228458,96.80296375780017 31.28028163779527,95.74646867261617 34.49704599031247,91.73715942166746 34.363938499824144,90.92445275343198 37.18138038110919,84.74778461197275 34.785445552901365,81.28010594016814" stroke="#4DD2FF" stroke-linecap="round" stroke-linejoin="round" stroke-width="0.5"><title>2025-06-13 10.0km</title><desc>1749765414000</desc></polyline><polyline fill="none" points="55.96426379296463,66.02716486385907 60.63532988494262,71.21559290729056 68.48716955399141,81.59208526558359 69.28792374127079,81.86371467783465 71.06737749068998,84.38985229705577 68.26473783538677,90.8816225266055 68.37595369468909,91.72363739657158 65.39536866452545,95.52624542890408 63.66040125885047,96.85714285714494 65.21742328966502,95.77069657489483 68.37595369468909,91.85944594760076 68.35371052275877,90.90878434640763 71.1785933499923,84.38985229705577 60.79103208810557,70.8896219401795 55.94202062103432,66.05432972431299 61.03570697864052,71.56872758163081 68.44268321036361,81.51059637704748 69.3546532568289,81.94520343677141 71.06737749068998,84.308364435361 68.33146735106129,90.85446070341277 68.3981968666194,91.75079911337525 65.23966646147892,95.68921288948331 63.68264443078078,96.80282066922518 65.26190963329282,95.68921288948331 68.3981968666194,91.80512253710185 68.30922417913098,90.90878434640763 71.2008365218062,84.44417752159643 60.768788916175254,70.80812912363035 55.96426379296463,66.0 60.45738451008219,70.86245767127548 68.44268321036361,81.48343340761494 69.3546532568289,81.94520343677141 71.08962066250388,84.36268967976503 68.30922417913098,90.85446070341277 68.37595369468909,91.72363739657158 65.23966646147892,95.71637412127166 63.66040125885047,96.80282066922518 65.28415280522313,95.66205165440624 68.3981968666194,91.80512253710185 68.30922417913098,90.90878434640763 71.13410700624809,84.38985229705577 61.03570697864052,71.13410021038726 56.186695511452854,66.0 56.119965995894745,66.3259781464003 60.72430257243104,71.16126444604015 62.815160727943294,73.93199902183551" stroke="#4DD2FF" stroke-linecap="round" stroke-linejoin="round" stroke-width="0.5"><title>2025-06-09 10.0km</title><desc>1749421393000</desc></polyline><polyline fill="none" points="92.44603587465826,66.29672386070888 92.57856156106573,66.0 92.49021110346075,66.64739699945494 97.08443489891943,71.28701986174565 104.30708480824251,80.91662312796689 105.69860451552086,82.02251702724607 107.44352605333552,84.45006954995915 104.63839902426116,90.97735601027671 104.8150999393547,91.7325667659461 101.61239585117437,95.7782946293155 100.08835045748856,96.85714285714494 101.70074630889576,95.67040951631498 104.83718755387235,91.78651029235334 104.70466186746489,91.00432786757301 107.48770128202159,84.5309875071398 98.25507846230175,72.31203965107852 92.44603587465826,66.2697489807615 97.10652251343708,71.34096839051927 104.83718755387235,81.61792234164022 105.7206921299221,82.02251702724607 107.46561366762035,84.50401485801558 104.70466186746489,90.95038414970622 104.70466186746489,91.89439730570302 101.70074630889576,95.69738079948002 100.06626284320373,96.85714285714494 101.722833923297,95.69738079948002 104.83718755387235,91.81348205065296 104.68257425306365,91.03129972147872 107.57605173962656,84.50401485801558 97.23904819984455,71.04425131881726 92.44603587465826,66.24277409756905 97.06234728451818,71.28701986174565 104.77092471066862,81.53700331546133 105.78695497312583,82.07646292925347 107.46561366762035,84.45006954995915 104.68257425306365,90.95038414970622 104.79301232506987,91.75953853080864 101.63448346569203,95.75132335606031 100.06626284320373,96.8301717156719 101.70074630889576,95.69738079948002 104.74883709615096,91.92136905074585 104.68257425306365,91.13918710427242 107.48770128202159,84.45006954995915 97.4157491150545,71.20609704378876 92.42394826025702,66.215799210986 97.06234728451818,71.26004559238208 104.351260037045,80.9705693005235 105.74277974432334,82.04948997995234 107.46561366762035,84.45006954995915 104.70466186746489,90.89644041872816 104.6604866386624,91.97531253093621 101.61239585117437,95.75132335606031 100.04417522868607,96.8301717156719 101.59030823688954,95.83223716613429 104.83718755387235,91.81348205065296 104.70466186746489,91.00432786757301 107.48770128202159,84.88163164485013 107.35517559561413,84.18034281174187 104.68257425306365,80.78175763881882" stroke="#4DD2FF" stroke-linecap="round" stroke-linejoin="round" stroke-width="0.5"><title>2025-06-07 12.0km</title><desc>1749247836000</desc></polyline><polyline fill="none" points="129.18075413792394,66.0 128.98248557990883,66.67260812442692 133.41048337752,71.30009624926606 141.23107650247402,81.63088114584389 142.26647897274233,82.19583194874576 143.87465727725066,84.53632695693523 141.07686762406956,91.01963708616677 141.18701682297979,91.79977355497249 138.0587795729516,95.75421585008735 136.49466094793752,96.83024226412817 138.0587795729516,95.78111657453701 141.23107650247402,91.88047716973233 141.12092730368022,91.04653838975355 143.9848064762773,84.64393532389659 133.74093097425066,71.19248135243834 128.8723363808822,66.34975648141699 133.58672209572978,71.46151849583839 141.20904666290153,81.5770762317552 142.1563297737157,82.06131998445198 143.87465727725066,84.4825227537076 141.0988974638749,90.9389331555285 141.18701682297979,91.79977355497249 138.08080941275693,95.72731512223254 136.49466094793752,96.83024226412817 138.0587795729516,95.83491801377386 141.2751361822011,91.79977355497249 141.16498698317446,90.9389331555285 144.0068363159662,84.61703323712572 133.82905033335555,71.30009624926606 128.93842590029817,66.24213916182634 133.56469225604087,71.43461479635153 141.20904666290153,81.5770762317552 142.13429993391037,82.00751517571916 143.87465727725066,84.50942485700944 141.07686762406956,90.96583446898148 141.18701682297979,91.79977355497249 137.99269005365204,95.75421585008735 136.53872062754817,96.85714285714494 137.99269005365204,95.86181872838642 141.25310634239577,91.79977355497249 141.12092730368022,91.0734396900225 143.96277663647197,84.64393532389659 133.91716969257686,71.43461479635153 129.1366944584297,66.29594782815548 128.85030654107686,66.45737374843156 133.56469225604087,71.40771109353227 136.05406415218022,74.6899385421566" stroke="#4DD2FF" stroke-linecap="round" stroke-linejoin="round" stroke-width="0.5"><title>2025-06-05 10.1km</title><desc>1749073951000</desc></polyline><polyline fill="none" points="165.43904503935482,66.0 165.3278291800525,66.3259781464003 169.84319306910038,71.07977172915707 180.36421336221974,84.38985229705577 177.51708736328874,90.96310797618935 177.69503273814917,91.66931395290885 174.5365023331251,95.71637412127166 172.95723713049665,96.85714285714494 174.558745504939,95.71637412127166 177.67278956621885,91.85944594760076 177.60606005066074,90.96310797618935 180.45318604970817,84.41701491094136 170.19908381893765,71.02544323462644 165.2610996644944,66.05432972431299 169.9988952721469,71.21559290729056 180.36421336221974,84.49850273283664 177.53933053510264,90.90878434640763 177.67278956621885,91.72363739657158 174.5365023331251,95.68921288948331 172.93499395856634,96.82998176476394 174.5142591611948,95.77069657489483 177.69503273814917,91.80512253710185 177.65054639452137,90.8816225266055 180.40869970596395,84.36268967976503 170.24357016268186,71.07977172915707 165.2610996644944,66.1086594353983 169.9099225847749,71.16126444604015 180.36421336221974,84.38985229705577 177.53933053510264,90.90878434640763 177.67278956621885,91.69647567640641 174.46977281745058,95.77069657489483 172.93499395856634,96.82998176476394 174.46977281745058,95.79785779678787 177.69503273814917,91.83228424402478 177.60606005066074,90.90878434640763 180.45318604970817,84.55282793073275 170.57721774070524,71.48723501434142 165.59474724251777,66.08149458150729 165.3055860082386,66.24448365472199 168.82000716321636,69.83021299167012 172.08975342765916,73.95916291514004" stroke="#4DD2FF" stroke-linecap="round" stroke-linejoin="round" stroke-width="0.5"><title>2025-06-03 10.0km</title><desc>1748953280000</desc></polyline><polyline fill="none" points="19.522274915594608,100.44899085754878 24.24614460032899,105.37444442520791 34.71887456183322,118.68078741105273 31.933574040187523,125.07516804061015 31.955856444314122,126.05471649715037 28.97001428506337,129.8912397552922 27.27655156783294,131.14285714285506 28.903167072567157,129.91844890378707 32.044986060936935,126.00029725159402 31.955856444314122,125.18400697095785 34.74115696607623,118.7079979308619 24.42440383369103,105.12953494641988 19.58912212809082,100.28571428571013 24.24614460032899,105.34723227424547 34.71887456183322,118.65357688798395 31.911291635944508,125.15679724339861 31.933574040187523,126.05471649715037 28.836319860070944,130.00007632935012 27.27655156783294,131.11564814398298 28.925449476693757,129.91844890378707 32.000421252683736,126.10913572937716 31.955856444314122,125.15679724339861 34.71887456183322,118.65357688798395 24.78092230053153,105.56492938892916 19.58912212809082,100.31292705603119 24.223862196085975,105.32002011989243 34.71887456183322,118.65357688798395 31.933574040187523,125.15679724339861 32.000421252683736,126.02750687599473 28.903167072567157,129.9456580490223 27.27655156783294,131.11564814398298 28.925449476693757,129.9456580490223 32.044986060936935,126.05471649715037 31.97813884844072,125.04795829975046 34.76343937008642,118.84405047977634 24.93689912976697,105.75541418949433 19.878793382435106,100.28571428571013 19.700534149073064,100.58505457582942 24.31299181294162,105.42886871722294 26.830903484369628,108.69430186614045" stroke="#4DD2FF" stroke-linecap="round" stroke-linejoin="round" stroke-width="0.5"><title>2025-05-31 10.0km</title><desc>1748691698000</desc></polyline><polyline fill="none" points="56.17207774694543,100.28571428571013 56.061639674939215,100.74428735670517 60.58960062719416,105.4108884818852 68.54114181175828,115.9845556239161 69.33629593020305,116.28125835699029 71.05912985350005,118.76275649138552 68.20982759573963,125.31701400718885 68.4086161252344,126.01828105165623 65.31635010917671,129.92915251545492 63.68186664336827,131.11588600138202 65.22799965157174,130.010066365081 68.43070373975206,126.04525281651877 68.2981780533446,125.31701400718885 71.14748031110503,118.76275649138552 60.72212631360162,105.24904269751278 55.995376831735484,100.52848838327918 60.70003869931679,105.54575987809221 68.54114181175828,115.95758262833988 69.38047115900554,116.3082313129562 71.0812174679013,118.76275649138552 68.32026566774584,125.1012390833348 68.34235328203067,126.12616809130122 65.25008726597298,130.010066365081 63.72604187228717,131.11588600138202 65.27217488025781,129.98309508519014 68.32026566774584,126.12616809130122 68.32026566774584,125.15518283403071 71.14748031110503,118.87064708111575 61.27431667374913,105.89642512210412 56.01746444613673,100.47453860692622 60.72212631360162,105.5997084134724 68.47487896855455,115.90363662735035 69.42464638780802,116.3621772149636 71.05912985350005,118.73578383566928 68.20982759573963,125.26307029598684 68.36444089654833,126.04525281651877 65.22799965157174,130.06400891502562 63.68186664336827,131.11588600138202 65.161736808368,130.09098018509394 68.38652851094957,126.20708333645598 68.34235328203067,125.23609843541635 71.12539269670378,118.81670179284993 61.230141444830224,105.84247665930889 56.01746444613673,100.52848838327918 60.52333778410684,105.30299130550702 68.25400282454211,115.63390642455488 69.29212070140056,116.28125835699029 71.01495462469757,118.68183851447247 68.23191521014087,125.20912657161534 68.36444089654833,126.01828105165623 65.22799965157174,130.03703764177044 63.65977902908344,131.14285714285506 65.38261295238044,129.87520993259386 68.4086161252344,126.0991963363631 68.2981780533446,125.29004215328314 71.12539269670378,118.81670179284993 61.119703372824006,105.76155394042144 55.995376831735484,100.55546326647163 60.70003869931679,105.5997084134724 68.38652851094957,115.82271760117146 69.3583835446043,116.38915016099054 71.0812174679013,118.87064708111575 68.25400282454211,125.20912657161534 68.38652851094957,126.04525281651877 65.31635010917671,129.92915251545492 63.63769141456578,131.14285714285506 65.22799965157174,130.06400891502562 68.32026566774584,126.23405507819552 68.27609043894336,125.31701400718885 71.12539269670378,118.81670179284993" stroke="#4DD2FF" stroke-linecap="round" stroke-linejoin="round" stroke-width="0.5"><title>2025-03-01 15.0km</title><desc>1740782421000</desc></polyline><polyline fill="none" points="90.62598550051916,100.31875379750272 91.03178699407727,100.28571428573923 90.92357326240744,100.88042487995699 96.55068730539642,106.76138134807115 105.99233538715634,119.31580368362484 107.12857956893276,119.84439813546487 109.23874733503908,122.8177226492553 105.77590792393312,131.14285714286962 109.31990763370413,122.88379615545273 96.84827506716829,106.59618768995279 90.92357326240744,100.58306974652805 96.63184760406148,106.82745878299465 106.0734956858214,119.41491522212164 107.07447270315606,119.81136101257289 109.23874733503908,122.75164912673063 105.72180105815642,131.10982140206033 109.37401449948084,122.94986964555574 97.14586282917298,106.95961360429646 91.1129472926259,100.51699078353704 90.78830609796569,100.64914869333734 96.9023819330614,107.12480704000336 106.01938881992828,119.31580368362484 107.18268643459305,119.91047236917075 109.18464046914596,122.75164912673063 105.74885449104477,131.10982140206033 109.37401449948084,122.9829063845973 97.28112999373116,107.09176836098777 91.24821445718408,100.61610922191176 90.76125266496092,100.61610922191176 96.65890103706624,106.89353620170732 106.10054911870975,119.41491522212164 107.12857956893276,119.81136101257289 109.23874733503908,122.78468589001568 105.72180105815642,131.0767856571474 109.34696106659248,122.94986964555574 96.60479417117313,106.29883885080926" stroke="#4DD2FF" stroke-linecap="round" stroke-linejoin="round" stroke-width="0.5"><title>2025-02-25 10.0km</title><desc>1740436543000</desc></polyline><polyline fill="none" points="127.54553414846305,100.28571428573923 127.32887470256537,100.88106226114905 132.93493786419276,106.73524751226068 142.49503591260873,119.43541694566375 143.4970858497545,119.86536015727324 145.58243301615585,122.70958264233195 142.08879945171066,131.1097859919537 145.66368030838203,122.77572699525626 133.31409189442638,106.73524751226068 127.13929768744856,100.55031354777748 132.85369057196658,106.63602508956683 142.46795348182786,119.40234436251922 143.68666286487132,120.06379525511875 145.55535058537498,122.77572699525626 142.0617170209298,131.07671483693412 145.63659787760116,122.80879916570848 132.9078554334119,106.23913503487711 127.19346254877746,100.55031354777748 132.79952571040485,106.60295094063622 141.65548056003172,118.41016498929821 143.4970858497545,119.93150520618656 145.55535058537498,122.74265482075862 142.08879945171066,131.07671483693412 145.63659787760116,122.80879916570848 133.72032835532445,107.16521092268522 127.16638011811301,100.55031354777748 132.93493786419276,106.70217337540817 142.41378862049896,119.36927177547477 143.52416828041896,119.89843268369441 145.63659787760116,122.80879916570848 142.14296431315597,131.01057251478778 145.69076273904648,122.94108780677198 133.5036689095432,106.93369224818889 127.57261657901108,100.58338843728416 127.19346254877746,100.64953820433584 133.0974324485287,106.93369224818889 142.30545889749192,119.17083616781747 143.55125071119983,119.89843268369441 145.6095154469367,122.77572699525626 142.1158818823751,131.14285714286962 145.71784516971093,123.1725927729567 143.4429209883092,119.79921509235282" stroke="#4DD2FF" stroke-linecap="round" stroke-linejoin="round" stroke-width="0.5"><title>2025-02-22 12.0km</title><desc>1740177306000</desc></polyline><polyline fill="none" points="163.778607714572,100.28571428571013 163.615764034912,100.7829034148308 169.20673037075903,106.61652102871449 178.57024195278063,119.11197240572073 179.95441323018167,119.97370642982423 181.96281861292664,122.72460824338486 178.46167949971277,131.07657274007215 182.0713810659945,122.82403790645185 169.7495426364476,106.71595660375897 163.96859200741164,100.55088193475967 163.53434219502378,100.55088193475967 169.72240202315152,107.246279053943 178.81450747221243,119.37712162808748 179.8458507769974,119.84113214293029 182.01709983951878,122.82403790645185 178.5159607263049,131.10971494350815 182.04424045293126,122.75775146848173 169.3152928238269,106.1856331154122 163.9414513943484,100.45144409674685 163.56148280831985,100.58402787271189 169.12530853098724,106.51708541726111 178.73308563244063,119.31083434689208 179.87299139040988,119.87427572076558 182.01709983951878,122.79089468953316 178.54310133960098,131.14285714286962 182.04424045293126,122.75775146848173 169.66812079655938,106.55023062520195 163.56148280831985,100.48459004683536 169.3967146637151,106.84853731357725 178.86878869892098,119.41026526270434 179.98155384336133,120.0068499914778 181.9899592262227,122.72460824338486 178.48882011300884,131.07657274007215 182.09852167940699,122.79089468953316 169.85810508951545,106.81539214221993 163.56148280831985,100.48459004683536 169.2338709840551,106.64966622448992 178.7602262457367,119.27769070010982 179.8458507769974,119.84113214293029 182.01709983951878,122.82403790645185 178.5159607263049,131.07657274007215 182.0713810659945,122.69146501430077 169.53241773007903,106.41764976931154 163.615764034912,100.45144409674685 169.04388669121545,106.41764976931154 178.7873668591492,119.24454704939853 179.90013200347312,119.84113214293029 181.96281861292664,122.75775146848173 178.54310133960098,131.14285714286962 182.1799435192952,122.95661073373049 171.86651047226042,109.43384818732738" stroke="#4DD2FF" stroke-linecap="round" stroke-linejoin="round" stroke-width="0.5"><title>2025-02-05 15.0km</title><desc>1738709514000</desc></polyline><polyline fill="none" points="18.081729376805015,134.57142857144936 18.02738978015259,135.20187845046166 23.570028653368354,141.04176555620506 33.02511849603616,153.61700458583073 34.19341982714832,154.18105177630787 36.28549430379644,157.1008067158109 32.83492990734521,165.42857142857974 36.42134329583496,157.16716441733297 24.031915226136334,141.0085847347218 18.29908776411321,134.80369975001668 17.81003139296081,134.77051816522726 23.705877645406872,141.10812718697707 32.943609100882895,153.45110813016072 34.16625002888031,154.14787256217096 36.28549430379644,157.13398556856555 32.83492990734521,165.39539359044284 36.39417349745054,157.1008067158109 23.868896435713395,140.77631887045573 17.83720119134523,134.80369975001668 23.733047443674877,141.14130799632403 32.916439302498475,153.3847495194641 34.13908023037948,154.11469334407593 36.28549430379644,157.0344489980489 32.78059031045996,165.36221574817318 36.42134329583496,157.6316678733565 36.312664102297276,157.00127013304154 24.140594419790432,141.07494637361378 18.27191796572879,134.77051816522726 17.83720119134523,134.870062907401 23.542858854983933,140.9422230795317 33.07945809292141,153.65018386475276 34.24775942391716,154.21423098619562 36.312664102297276,157.06762785898172 32.80776010896079,165.39539359044284 36.36700369906612,157.0344489980489 23.814556838944554,140.67677629637183 18.27191796572879,134.77051816522726 17.83720119134523,134.9032444799377 23.62436825025361,141.04176555620506 32.943609100882895,153.41792882679147 34.16625002888031,154.14787256217096 36.25832450541202,157.00127013304154 32.80776010896079,165.36221574817318 36.475682892720215,157.39941624479252 33.622854060842656,153.65018386475276" stroke="#4DD2FF" stroke-linecap="round" stroke-linejoin="round" stroke-width="0.5"><title>2025-02-04 12.0km</title><desc>1738622138000</desc></polyline><polyline fill="none" points="51.306134247686714,134.57142857144936 51.306134247686714,135.63002910793875 60.06086729862727,144.78681563062128 75.53334105666727,165.42857142857974 76.09676447091624,165.37564510901575 75.88006315752864,164.68760236541857 60.58095044991933,144.6280290763534 51.43615503562614,134.94193905388238 51.0027524093166,135.36537921684794 60.23422834905796,144.94560212650686 75.57668131939135,165.42857142857974 75.92340342025273,164.79345516642206 60.494269924936816,144.4692424638779 51.60951608605683,135.04779913357925 51.13277319725603,135.36537921684794 60.1908880865667,144.89267330104485 75.53334105666727,165.3227187829616 76.09676447091624,165.37564510901575 75.88006315752864,164.63467595525435 61.231054389616475,145.36903249722673 51.652856348780915,135.10072916356148 51.046092672040686,135.36537921684794 60.971012813737616,145.89831987803336 75.44666053145193,165.21686611152836 76.18344499613158,165.1110134141345 75.49000079417601,164.10541149703204 60.494269924936816,144.6280290763534 51.52283556107432,134.94193905388238 51.08943293453194,135.31244921908365 60.92767255124636,145.739533731743 75.49000079417601,165.37564510901575 75.96674368320964,164.79345516642206 60.754311500582844,144.78681563062128 51.52283556107432,134.99486909693223 50.95941214659251,135.36537921684794 60.494269924936816,145.31610372362775 75.44666053145193,165.3227187829616 75.75004236982204,164.52882311536814 62.48792200582102,147.00982126963208 51.52283556107432,134.94193905388238 51.046092672040686,135.36537921684794 59.93084651068784,144.6280290763534 75.44666053145193,165.2697924505046 75.96674368320964,164.84638155734865 70.462530329125,157.33076924510533 56.76700733881444,140.55248757268419" stroke="#4DD2FF" stroke-linecap="round" stroke-linejoin="round" stroke-width="0.5"><title>2025-01-23 11.4km</title><desc>1737585341000</desc></polyline><polyline fill="none" points="90.78062708012294,134.57142857144936 90.88989372225478,135.1719252082985 96.57175910694059,141.11009852399002 105.99600698053837,153.6865891687048 107.11599006108008,154.28704370974447 109.1920562593732,157.08914741899935 105.85942367801908,165.36185704841046 109.35595622239634,157.25593839847716 97.22735895891674,141.31025941637927 91.05379368527792,134.70487238271744 90.64404377760366,134.77159426402068 96.40785914380103,140.94329766812734 105.9140569990268,153.58651328334236 107.1706233820878,154.28704370974447 109.24668958038092,157.18922201890382 105.7228403754998,165.42857142857974 109.35595622239634,157.2225802107714 97.03614233538974,141.0767383609491 90.72599375911523,134.73823332539177 96.54444244632032,141.0767383609491 106.02332364092581,153.7199477890681 107.08867340069264,154.186968044698 109.27400624100119,157.18922201890382 105.77747369650751,165.36185704841046 109.35595622239634,157.25593839847716 96.92687569337431,140.97665784749552 90.67136043810751,134.70487238271744 97.14540897728875,141.77730092708953 106.05064030154608,153.7199477890681 107.14330672170036,154.22032660388504 109.1920562593732,157.08914741899935 105.77747369650751,165.29514265203034 109.32863956189249,157.18922201890382 96.65370908845216,140.64305587043054 91.02647702465765,134.67151143605588 90.67136043810751,134.73823332539177 96.35322582279332,140.8098569099675 105.80479035689496,153.41972005949356 107.14330672170036,154.25368515882292 109.1920562593732,157.155863823049 105.77747369650751,165.2617854476266 109.35595622239634,157.32265476172324 96.92687569337431,140.97665784749552 91.10842700616922,134.80495519845863 90.69867709861137,134.97175980967586 96.59907576721162,141.1434586829855 106.10527362243738,153.8200236254488 106.4057568879798,153.48643736127997 99.467325120233,144.27929539815523" stroke="#4DD2FF" stroke-linecap="round" stroke-linejoin="round" stroke-width="0.5"><title>2025-01-18 14.0km</title><desc>1737153490000</desc></polyline><polyline fill="none" points="138.2304980167537,148.42413221903553 134.38185481334222,151.42082930543256 133.55908833345165,152.59124849661748 132.70912296164897,153.55413143427722 131.67556506959954,154.40079308504937 130.48561354906997,155.13123779466696 129.71724485300365,156.36799558877829 128.43209721086896,157.64623166127421 126.71176729837316,158.882943671495 121.0,163.58058413153776 125.07303406161373,160.35202868402848 126.71856702136574,158.90784368210007 128.2825033054396,157.81223458149907 129.7716426367988,156.35969527595444 130.52641188693815,155.12293733073602 131.73676257635816,154.3841919776387 132.61392684004386,153.67864116239798 133.55228861045907,152.64935388843878 134.40225398223265,151.42913022177527 139.42044953722507,147.4943821489651 140.0800226657302,147.12911971051653 140.03242460492766,146.92158335894783 140.73959579423536,146.6476344037801 143.88786753133172,144.0658187559602 144.4318453692831,143.36846264496126 145.9889819303644,142.27260285869852 146.64175533590605,141.25144486744102 148.05609771455056,140.37971248081158 148.69527167413617,139.49136415439716 150.1640118365467,138.54488679426868 150.4360007555224,137.71463263308397 151.51035698544,136.98400057289837 151.8571428571595,136.4194158684695 151.43556003272533,136.99230325411918 150.45639992444194,137.6565144615888 150.15041239061975,138.51167682272353 148.7156708430557,139.44985226610152 148.0764968834701,140.32989886356518 146.56695838319138,141.28465349899489 146.00258137632045,142.2393947103119 144.43864509221748,143.33525503249257 143.87426808537566,144.05751693963248 142.0383428823261,145.55182753253757" stroke="#4DD2FF" stroke-linecap="round" stroke-linejoin="round" stroke-width="0.5"><title>2025-01-16 10.5km</title><desc>1736984045000</desc></polyline><polyline fill="none" points="160.4852928505279,134.57142857144936 160.7034912633244,135.6373421495664 169.6496261889115,144.85738573566778 184.92351508582942,165.21540350097348 185.4908309590537,165.37527945646434 185.35991191118956,164.6824832256534 171.1333753960207,146.02986284031067 160.92168967612088,134.8912029188068 160.39801348536275,134.57142857144936 160.26709443773143,135.21097703141277 169.56234682374634,144.80409124682774 184.92351508582942,165.37527945646434 185.40355159388855,164.8423593766638 171.00245634815656,145.86997978467843 160.7034912633244,134.67802004647092 160.26709443773143,135.15768136220868 169.6496261889115,144.85738573566778 184.87987540313043,165.37527945646434 185.27263254625723,164.6291911622975 171.26429444365203,146.24304015687085 160.79077062848955,134.78461149561917 160.22345475526527,135.15768136220868 169.51870714104734,144.80409124682774 184.87987540313043,165.32198747785878 185.44719127658755,165.37527945646434 185.31627222895622,164.73577528246096 172.04980872943997,147.14904258734896 160.74713094579056,134.67802004647092 160.26709443773143,135.15768136220868 169.47506745834835,144.75079675141023 184.87987540313043,165.42857142857974 185.4908309590537,165.42857142857974 185.35991191118956,164.73577528246096 170.08602301427163,144.64420774113387 160.83441031118855,134.8912029188068 160.1798150727991,135.10438568648533 169.6059865062125,144.96397469364456 184.79259603796527,165.37527945646434 185.53447064151987,165.26869549273397 185.0980738159269,164.36273074740893 170.21694206190296,144.80409124682774 160.92168967612088,134.8912029188068 160.26709443773143,134.73131577437744 160.31073412043042,135.31756834997213 169.47506745834835,144.75079675141023 174.23179285787046,151.30597075787955 174.97366746142507,151.03950219321996 172.2680071424693,147.62869017003686" stroke="#4DD2FF" stroke-linecap="round" stroke-linejoin="round" stroke-width="0.5"><title>2025-01-14 10.6km</title><desc>1736807801000</desc></polyline><polyline fill="none" points="22.059338065897464,187.33265852260956 19.745153496041894,189.13542430537564 18.782258517676382,190.3701489879386 18.098522167507326,190.93810967545141 17.435014703398338,191.33320805527546 17.038528535849764,192.0098050607703 16.132274438554305,192.9086244422615 15.177471014627372,193.5802566472521 13.983966734725982,194.61731386907195 11.714285714289872,196.40000244382827 13.761448987628683,194.81484556162832 15.20174567795766,193.57531821589146 16.059450448592543,192.9827020712255 17.014253872534027,192.05919125998116 17.475472475620336,191.31839193572887 18.203712375208852,190.87390582394073 18.81867051264271,190.35533251535162 19.79370282268792,189.1156684038324 23.09910281143675,186.5769546973861 23.119331697555026,186.46335093962261 23.305437449656893,186.46335093962261 23.59673340950394,186.25096044883685 25.405195826853742,184.76419575412 25.72076645003108,184.35421447151384 26.667478319519432,183.6873685595092 27.019460937648546,183.1044868218196 27.909531926066848,182.5462955804178 28.27769765307312,182.02761539041603 29.13944820094912,181.469409270092 29.297233512537787,180.9902350322991 29.989061417159974,180.4863549607362 30.620202663485543,179.5131570303747 35.05842027383915,176.3908612264786 36.62818183521449,175.6349526926424 37.14199554218794,175.0914802982843 42.57142857143481,172.17142612759926 38.910000187315745,174.06874423380214 37.146041319385404,175.06677683386442 36.65245649854478,175.60036830362515 35.022008278858266,176.3958017585719 30.632339995136135,179.47363580684396 29.964786753844237,180.4863549607362 29.29318773531122,180.96553517527354 29.115173537633382,181.469409270092 28.273651875861106,182.0078560133952 27.86098259940627,182.55617513844118 27.0073236059834,183.08966768496975 26.659386765080853,183.66760999423423 25.700537563927355,184.34433535313292 25.393058495188598,184.75431673596177 23.507726310679573,186.29541436484942 23.333757890213747,186.40407928705463 23.232613459709683,186.32505028170635 23.212384573591407,186.43865442828974 23.054599262031843,186.59177255528266 19.789657045461354,189.09097351333912 18.741800745483488,190.40472073616547 18.167300380242523,190.87884458536428 17.430968926186324,191.32826934935656 16.82005656597903,192.24685826672794 16.09181666636141,192.92837848993076 15.456629642823827,193.36790355352787 16.0756335574697,192.97776356685063 16.892880555911688,192.19747229679342 17.447152035063482,191.33320805527546 18.240124370189733,190.84921200772806 19.02905092810397,190.11826821535942" stroke="yellow" stroke-linecap="round" stroke-linejoin="round" stroke-width="0.5"><title>2025-01-01 21.1km</title><desc>1735687361000</desc></polyline><polyline fill="none" points="76.49767909513321,168.85714285713766 77.73859914543573,170.00460492799903 77.0745980659267,171.9259094329027 76.87866332114208,172.1527278448193 76.38882645918056,171.91256715852796 76.16023592359852,172.12604335048673 75.90987486083759,173.32683905755403 76.65007278556004,175.06129814414453 77.29230333789019,175.66168132962048 77.98896020819666,176.8891209975045 77.0528275387478,179.05044820022158 76.97663069353439,180.2111430839068 77.10725385672413,181.1583675844813 77.6841728274594,182.15894781201496 77.55354966426967,183.69315280239243 78.17400968942093,185.10727025172673 78.21755074383691,185.76095978878584 77.72771388187539,187.21507128839585 77.15079491114011,187.77536590132513 75.53977589844726,188.41569903871277 73.68928108667023,188.56244151413557 72.64429578109412,189.08270868218096 72.30685260955943,189.44289217497862 72.28508208238054,190.26997564460908 73.59131371427793,192.33765658002812 73.80901898624143,193.00464197734982 73.86344530421775,193.8183585785664 73.49334634188563,194.49867430552695 72.4701315635466,195.20566453550418 71.02239150495734,195.4591127352178 69.99917672656011,195.93932874417806 66.98395870969398,196.41954261598585 63.87077332037734,199.7142857142826 57.87299307738431,195.27236148788506 58.53699415689334,194.15184721599508 65.63418602338061,184.9872043959258 58.3084036213113,179.41066519034212 57.90564886823995,179.6774918148949 49.25186430697795,190.723534855475 48.92530639906181,190.5634553517375 57.764140441373456,179.15717928568483 57.50289411499398,178.70357144321315 53.98695397260599,175.90183366811107 54.05226555420086,175.608314070676 54.389708725735545,175.56828860915994 54.770692951686215,175.79509936142858 62.390377470932435,181.83876314898953 63.010837496083695,181.70535259220924 63.75103542080615,180.75813289478538" stroke="#4DD2FF" stroke-linecap="round" stroke-linejoin="round" stroke-width="0.5"><title>2024-12-28 10.1km</title><desc>1735347410000</desc></polyline><polyline fill="none" points="101.23441599568469,183.45215483671927 97.48231249436503,186.37067471406044 96.68759612774011,187.50782821920438 95.9059078982973,188.39050010818755 94.88971320001292,189.21749714049656 93.79534967881045,189.8774968469079 93.11137247804436,191.01458907467168 91.73038993938826,192.37430264869909 90.18655568623217,193.47159464489232 88.69483398171724,194.78354992315872 84.57142857142026,198.03549475289037 88.147652221116,195.2526669071376 90.2972948520619,193.3920813538425 91.60010856779991,192.50947729952895 93.07880213516182,191.0782020390543 93.78232154165744,189.90135213265603 94.85714285713038,189.24135266818485 95.93847824120894,188.36664426859352 96.7657649506873,187.45216382487706 97.48882656291244,186.38657909594622 102.90201755179442,182.22745082765323 102.90201755179442,182.03658578889736 103.1430380892125,182.06044394936907 103.59902288968442,181.77414544636122 106.6020085044729,179.30079203425703 107.1947887451679,178.56910676400003 108.65394010674208,177.5590494456992 109.22066407310194,176.62055693707225 110.66027322897571,175.7138648746477 111.26608160679461,174.87078898640175 112.6340360083268,173.9879336550366 112.91414095723303,173.17665062333253 113.98244820410036,172.4289886735569 114.84881932503777,170.98931752016506 115.42857142855064,170.53593381853716 115.00515697096125,170.80637359986576 114.03456075271242,172.31763403082732 112.86854247713927,173.1846044276681 112.6340360083268,173.9561188247826 111.21396905815345,174.88669617977575 110.6537591603992,175.68205088857212 109.16203745588427,176.6444170838222 108.65394010674208,177.5351896344 107.1166199221916,178.6168256194287 106.58246629874338,179.2928389777444 103.54691034107236,181.78209819955373 102.60237039718777,182.38650459890778" stroke="#4DD2FF" stroke-linecap="round" stroke-linejoin="round" stroke-width="0.5"><title>2024-12-24 11.5km</title><desc>1734996352000</desc></polyline><polyline fill="none" points="141.97167225097655,179.19651440969028 137.34968017056235,182.80090246498003 135.49101431618328,185.21043302523321 134.31495583307697,186.2244226758703 132.65367042340222,187.26851775382966 131.75723423695308,188.74428335866833 129.91501675298787,190.55130718432338 128.19616204689373,191.7158125932183 125.47395674686413,194.07488935047877 121.02467255559168,197.55816822820634 125.21900700576953,194.30577407546662 128.0563508985506,191.86639398419356 129.98081023452687,190.5211904462194 131.7901309777808,188.74428335866833 132.75236064576893,187.19824254004925 134.02710935118375,186.47540828100318 135.37587572343182,185.37106588332972 137.44014620775124,182.75070316017081 143.08193725248566,178.3230038034526 144.2333231800003,177.5900509553394 144.2004264392308,177.36915977342142 144.57051477304776,177.3390382025682 145.04751751443837,177.017740759773 148.81419433443807,173.93522955031221 149.49680170573993,173.05162194225704 151.4788303381065,171.6559041947985 151.85714285713038,171.00322228892765 151.38014011571067,171.70611028042913 149.51325007615378,173.00141667912249 148.83886689002975,173.87498387898813 145.09686262562172,176.97757849105255 144.6116356990533,177.30891662069916 144.4882729210949,177.19847072599077 144.32378921716008,177.48964594626887 143.1230581784621,178.252720937111 137.4894913189055,182.6703842086572 135.32653061224846,185.37106588332972 134.10935120316572,186.36497470921313 132.6207736825745,187.2885963753215 131.7654584221891,188.7242050929126 130.6880901614495,189.81846342307836 129.78342978982255,190.63161843202397 128.1221443801187,191.77604518270527 124.7337800792011,194.66715756010672 121.0,197.5682062824999 124.80779774597613,194.6169655045087 128.17148949130205,191.76600642086123 130.22753579041455,190.29029508725944 131.74078586659743,188.77440074808692 132.68656716417172,187.26851775382966 134.01888516597683,186.46536887152615 135.211392019497,185.52165890253673 136.39567468775203,184.2165102321378 137.28388668899424,182.90130098262307 139.6771245811542,181.03386847152433" stroke="#4DD2FF" stroke-linecap="round" stroke-linejoin="round" stroke-width="0.5"><title>2024-12-21 15.0km</title><desc>1734737288000</desc></polyline><polyline fill="none" points="175.77567558627925,181.52642377254233 171.6390037376259,184.70995921681606 170.8531075314968,185.84378685983393 169.82429795255302,187.01248265513277 168.92408957099542,187.75380962077907 167.60949955348042,188.54745701457432 166.76644725960796,189.8905325008236 165.35183408856392,191.27718781895965 163.60857341313385,192.52428248796787 161.10085006448207,194.66958318053366 157.42857142857974,197.56476483197912 161.7081334965187,194.18122771484195 163.54427281446988,192.57660766217305 165.60903648330714,191.05044099287625 166.76644725960796,189.8905325008236 167.56663248769473,188.58234241180617 168.738332285895,187.87590979422384 169.795719908725,187.029925731018 170.77451791090425,185.9484469649251 171.66758178148302,184.68379375088261 176.87593027486582,180.6018635802102 178.3691330665024,179.6249567767809 181.6198855555267,176.96456241020496 182.2200244765554,176.196954777246 183.8775510204141,175.03680484145298 184.4562564085645,174.05109871985042 186.020904309873,173.05665573550505 186.77107796116616,172.0709222557416 188.1642575993028,171.18113343669393 188.28571428573923,171.0066637394484 186.70677736247308,172.08836898439768 186.07091588657931,172.99559299531393 184.42053385369945,174.04237559605826 183.81325042172102,175.05425084482704 182.16286838884116,176.20567763765575 181.58416300069075,176.95583964255638 178.0261965401878,179.8604623189094 177.92617338668788,180.06979992603738 177.52608077265904,180.16574612409022" stroke="#4DD2FF" stroke-linecap="round" stroke-linejoin="round" stroke-width="0.5"><title>2024-12-17 10.2km</title><desc>1734391788000</desc></polyline><polyline fill="none" points="26.708208410971565,218.95047870754206 23.34770277934149,221.54303275622806 22.0,223.2737120621132 21.113199902756605,224.03576443104248 20.010533992375713,224.71946648793528 19.26958917430602,225.89456066068306 18.015233773592627,227.07675271105109 16.760878372908337,227.94557736627394 15.17980714692385,229.3200030388689 11.714285714289872,232.0260314184561 18.528644356207224,226.6280922860642 19.36877076412202,225.78061317207903 20.022202414722415,224.71234463284054 21.101531480409903,224.04288636879937 21.8133052426856,223.4660065904318 22.519244793744292,222.70394677182412 23.43521594683989,221.4718102845909 27.41998217321816,218.34505799116232 28.901871809415752,217.35500350146322 31.486427355965134,215.22526093186025 31.97650109391543,214.60555532930448 33.31836966209812,213.65817655304636 33.79094076657202,212.8461253409696 35.09196985658491,212.02693940478275 35.66955676203361,211.2433594701106 36.853901628695894,210.48826337982973 37.122275342349894,209.75452855790718 38.06741755123949,209.08489842179551 38.93671501497738,207.70999539795957 42.571428571420256,205.11682572439895 39.00672554897028,207.61026023747763 38.073251762398286,209.0350320398902 37.110606920032296,209.72603381529916 36.8597358398838,210.44552179903621 35.6287172838347,211.2504829715399 35.05696458957391,212.0198159983156 33.80844340004842,212.80338548998043 33.32420387325692,213.62968371967509 31.91815898224013,214.63404768547116 31.53310104526463,215.14690771391906 30.990519406856038,215.59565653579193" stroke="#4DD2FF" stroke-linecap="round" stroke-linejoin="round" stroke-width="0.5"><title>2024-12-14 12.1km</title><desc>1734132056000</desc></polyline><polyline fill="none" points="69.16387450500042,213.41697362444393 64.47608894301811,217.0916415531683 63.554980201035505,218.42693098593736 62.54340542189311,219.57144751223677 61.334450197959086,220.58543567604647 59.87876941819559,221.45886099273048 58.834297898283694,223.09525354656216 57.11544319218956,224.75169134508178 55.28967407857999,226.02662375732325 53.15138592751464,227.90385043713468 48.142857142869616,231.87901244239038 53.89156259520678,227.2914977838882 55.223880597011885,226.0768175420817 57.49375571124256,224.42040645676025 58.957660676242085,222.9446666363001 59.796527566271834,221.53917549821927 61.219311605236726,220.66575103532523 62.411818458727794,219.70196154197038 63.54675601585768,218.4470103606218 64.62412427656818,216.95108350823284 70.4221748401178,212.41293740169203 72.33840999085805,211.13779370873817 75.8665854401479,208.2259740566733 76.92750533047365,209.74214130817563 75.97349984769244,208.16572842218739 76.63143466343172,207.31224385291716 78.59701492538443,205.91652644674468 79.0,205.2638447004647 78.53122144381632,205.93660887973965 76.64788303378737,207.2620386020717 76.0228449589049,208.07535988760355 71.78738958269241,211.57957801657903 70.1343283582246,212.59366482744372 64.566554980207,216.96112337656814 63.53030764544383,218.40685160631256 62.39537008834304,219.6618034010462 61.2110874200298,220.62559336551203 59.74718245508848,221.52913618933235 58.834297898283694,223.02497968944226 57.46908315565088,224.39028958250856 55.38014011576888,225.92623609588918 52.39476088946685,228.47604469401267 48.15930551328347,231.80874609651073 52.52634785257396,228.40577543848485 55.15808711547288,226.13705004331132 57.21413341455627,224.68141890463448 58.99055741698248,222.92458836071455 59.854096862633014,221.49901825527922 61.12884556807694,220.73602691030828 62.52695705147926,219.59152660722611 64.64879683215986,216.941043638697 70.36460554369842,212.46313950426702 72.13280536097591,211.29844282287377 75.96527566248551,208.15568747880752 76.6561072190234,207.2821207060988 78.47365214739693,206.00689735665947" stroke="#4DD2FF" stroke-linecap="round" stroke-linejoin="round" stroke-width="0.5"><title>2024-12-07 17.1km</title><desc>1733527336000</desc></polyline><polyline fill="none" points="86.74814146693097,233.9920898002456 86.99426591672818,233.86552647282952 86.86472673263052,234.0 86.96835807993193,233.7785140415217 86.42429350668681,232.4654031303071 86.48906309876475,232.34674721583724 94.26789110375103,229.53849366187205 95.16818843325018,229.0322039839084 95.8612230681174,228.27276203098882 108.53015527277603,213.41438353154808 108.96411153947702,212.64684518983267 111.08207719944767,207.1788597030827 111.69091136474162,205.90477633279806 113.0445958385244,203.744316653836 113.29719724753522,203.52272695935972 113.5757064933423,203.57812445425225 113.20004285944742,203.14285714285506 113.08345759374788,203.15077112014114 112.26736073396751,204.25080452910333 111.54194130303222,205.46952470150427 110.68698268797016,207.16303273462836 108.70503317131079,212.4173731932242 108.2710769045807,213.21656524359423 103.31620311285951,219.1033783019302 97.24729233796825,226.09722787475766 97.02059876581188,226.587718333074 95.6150986183784,228.20156389039767 94.95444877946284,228.86607681920577 94.48163075750927,229.17459835666523 86.5603096500272,232.03824081889616" stroke="#4DD2FF" stroke-linecap="round" stroke-linejoin="round" stroke-width="0.5"><title>2024-11-30 11.9km</title><desc>1732919585000</desc></polyline><polyline fill="none" points="123.72896998608485,203.62585523276357 132.95705407927744,213.23204009170877 148.4690240076743,233.9463372878963 149.0402863563504,233.73168637428898 147.80987514392473,231.85348639875883 132.95705407927744,212.42706061003264 124.21234581945464,203.1428571428405 123.72896998608485,203.62585523276357 133.04494059458375,213.39303581079002 148.4690240076743,234.0 149.12817287142389,233.83901184413116 148.86451332597062,233.19505863025552 133.70408945833333,213.2857053379994 124.21234581945464,203.1965236234537 123.81685650115833,203.73318806957104 133.04494059458375,213.2857053379994 148.51296726521105,233.9463372878963 148.99634309858084,233.46337258434505 134.2314085494727,213.876022613229 124.34417559229769,203.35752302623587 123.77291324362159,203.6795216544415 133.13282710989006,213.39303581079002 148.51296726521105,234.0 149.17211612896062,233.83901184413116 148.51296726521105,232.7120930996607 133.30860014003702,212.80271788532264 124.21234581945464,203.1965236234537 123.72896998608485,203.62585523276357 132.78128104913048,213.12470957951155 148.51296726521105,234.0 148.9523998410441,233.35604702256387 133.6601462007966,213.2857053379994 124.1684025619179,203.1965236234537 123.77291324362159,203.6795216544415 133.04494059458375,213.39303581079002 148.42508075013757,233.9463372878963 148.99634309858084,233.570698119991 133.83591923117638,213.44670103731914 124.21234581945464,203.25019009766402 123.68502672831528,203.5721888046537 133.0888838521205,213.5003662572417 148.33719423483126,233.7853491124988 149.08422961388715,233.570698119991 143.59132241550833,226.43349281011615" stroke="#4DD2FF" stroke-linecap="round" stroke-linejoin="round" stroke-width="0.5"><title>2024-11-26 10.9km</title><desc>1732619882000</desc></polyline><polyline fill="none" points="160.22345243673772,203.4088763523614 168.97990683163516,212.66624346314347 184.88093098136596,233.8935998211091 185.1423176797107,232.9359970400692 171.89872496319003,215.37957233685302 160.61553248413838,203.14285714286962 160.65909693413414,204.26013672866975 169.45911577856168,213.30467530959868 184.88093098136596,233.78719961631577 185.1858821294736,233.04239745336236 170.54822702147067,213.73029601975577 161.96603042585775,204.47295156255132 160.65909693413414,203.3024686879653 160.44127468555234,203.8877105190477 169.45911577856168,213.19827006699052 184.88093098136596,233.78719961631577 185.44726882781833,233.73399950415478 185.1858821294736,233.0955976502446 170.41753367264755,213.623890881252 160.7897902831901,203.14285714286962 160.61553248413838,204.26013672866975 169.54624467808753,213.4110805261298 184.88093098136596,233.8935998211091 185.2294465790037,233.0955976502446 170.7660492702853,213.9431062186486 160.74622583342716,203.14285714286962 160.3541457860265,203.67489539898816 169.41555132879876,213.25147269148147 184.7938020818401,233.73399950415478 185.36013992829248,233.20199802421848 170.19971142383292,213.30467530959868 160.7897902831901,203.24926484611933 160.26701688650064,203.72809918885469 169.54624467808753,213.4110805261298 185.09875322994776,234.0 184.88093098136596,232.61679564474616 170.37396922288463,213.57068830230855 160.7897902831901,203.1960609976377 160.74622583342716,204.26013672866975 169.3284224292729,213.1450674358348 184.7502376320772,233.73399950415478 185.1858821294736,233.04239745336236 170.63535592122935,213.78349857914145 160.74622583342716,203.24926484611933 160.3977102355566,203.62169160260237 169.54624467808753,213.4110805261298 184.7502376320772,233.62759926024592 185.49083327758126,233.57439912841073 185.1858821294736,232.98919725010637 169.37198687926866,212.3470271883707 160.7897902831901,203.3024686879653 160.70266138366424,204.10052553520654 169.5026802283246,213.30467530959868 184.83736653160304,233.78719961631577 185.4037043780554,233.62759926024592 185.1423176797107,232.98919725010637 170.41753367264755,213.57068830230855 160.7897902831901,203.4088763523614" stroke="#4DD2FF" stroke-linecap="round" stroke-linejoin="round" stroke-width="0.5"><title>2024-11-16 14.9km</title><desc>1731755814000</desc></polyline><polyline fill="none" points="14.39969323342666,237.90989540723967 23.858536547748372,247.8036597663595 39.272947874618694,268.2322375861986 39.57948446343653,267.4300863078679 23.989909371361136,247.00147099912283 15.231721117394045,237.74945413996466 14.618647939758375,237.53553235836443 14.66243888088502,238.1772973885527 23.727163723902777,247.58974290578044 39.185365991899744,268.2322375861986 39.71085728704929,267.6974702309235 36.86444610450417,263.7401714694861 24.602982549229637,247.8036597663595 15.1879301762674,237.6959737043071 14.57485699863173,238.07033661578316 24.077491254080087,248.01757652236847 39.010202226927504,268.07180744822836 39.75464822840877,267.75094699594774 24.47160972538404,247.64322213071864 15.10034829378128,237.53553235836443 14.618647939758375,237.96337581652915 24.077491254080087,247.9640973432688 39.185365991899744,268.1252841675014 39.66706634592265,267.4300863078679 25.040891961893067,248.28497232004884 15.056557352421805,237.58901281363796 14.618647939758375,238.12381700548576 23.814745606388897,247.64322213071864 39.185365991899744,268.2857142857101 39.886021052254364,267.85790050632204 25.040891961893067,248.28497232004884 17.158522533252835,239.72822565436945 14.881393587216735,237.58901281363796 14.66243888088502,238.01685621941579 23.858536547748372,247.6967013491958 39.097784109413624,268.1252841675014 39.798439169768244,267.85790050632204 26.223247376270592,249.8893436715298 14.92518452857621,237.48205189677537 14.618647939758375,238.07033661578316 23.814745606388897,247.6967013491958 39.31673881574534,268.2857142857101 39.84223011112772,267.8044237543072 24.296445960411802,247.3758259403985 14.881393587216735,237.42857142857974 14.881393587216735,238.23077776515856 23.77095466502942,247.64322213071864 39.1415750507731,268.2322375861986 39.798439169768244,268.1252841675014 39.49190258071758,267.4300863078679 24.252655019052327,247.42930519150104 14.66243888088502,237.96337581652915 24.12128219520673,248.17801402058103 39.185365991899744,268.2322375861986 39.57948446343653,267.53703989682253 32.70430668396875,258.55284721317" stroke="#4DD2FF" stroke-linecap="round" stroke-linejoin="round" stroke-width="0.5"><title>2024-11-10 14.3km</title><desc>1731237417000</desc></polyline><polyline fill="none" points="50.93774510663934,237.96152854379034 61.32398574473336,249.10018301426317 75.50687737157568,268.07254635807476 76.16147236991674,268.01925435994053 75.33231870550662,266.68695228599245 61.891301409574226,248.83371135251946 51.592340104980394,237.7483457759663 51.06866410630755,238.06811988857226 60.18935441435315,247.66123410422006 75.6377963712439,268.2857142857101 76.24875170295127,268.07254635807476 75.33231870550662,266.74024444728275 60.58211141312495,247.23487795869005 51.505060771945864,237.7483457759663 50.89410544023849,237.90823286169325 60.10207508131862,247.60793960874435 75.59415670484304,268.2857142857101 76.24875170295127,267.80608630192 60.80030974606052,247.5546451069531 51.505060771945864,237.69505006761756 50.89410544023849,237.96152854379034 59.840237082215026,247.3414670342172 75.72507570451126,268.17913033496006 76.07419303664938,267.5396260827547 60.88758907909505,247.60793960874435 51.37414177227765,237.48186716949567 51.15594343957491,238.12141555114067 60.27663374738768,247.60793960874435 75.68143603764474,268.12583834968973 76.20511203631759,267.80608630192 75.6377963712439,266.90012089165975 61.36762541113421,248.140884269058 51.505060771945864,237.53516290392145 50.98138477350585,237.7483457759663 62.24041874194518,250.11277384209097 75.59415670484304,268.07254635807476 76.11783270328306,267.85937832613126 75.11412037280388,266.26061476187897 61.542184077203274,248.40735635455349 51.46142110531218,237.42857142857974 51.0250244399067,238.12141555114067 61.01850807876326,248.5672395277652 75.50687737157568,268.07254635807476 76.20511203631759,267.9659623551124 75.55051703820936,266.90012089165975 61.891301409574226,248.67382827715483 51.548700438346714,237.69505006761756 51.06866410630755,237.90823286169325 60.45119241368957,247.87441202052287 75.6377963712439,267.9659623551124 75.94327403698117,267.3264577900409 63.02593273972161,250.325950558763" stroke="#4DD2FF" stroke-linecap="round" stroke-linejoin="round" stroke-width="0.5"><title>2024-10-26 12.9km</title><desc>1729940418000</desc></polyline><polyline fill="none" points="90.57597572752275,237.66311222894 96.44712913164403,243.76110252997023 105.391035719309,255.6216398155084 107.17432997748256,257.02878811911796 109.31428308750037,259.9770754069614 105.88487105234526,268.25221221573884 109.39658897626214,260.0105784892803 96.55687031685375,243.39254653218086 90.7405875051627,237.495583106298 96.52943502052221,243.86161771600018 106.15922401507851,256.6267464844277 107.20176527381409,257.0957950008451 109.31428308750037,260.1110877114115 105.85743575613014,268.2857142857101 109.42402427247725,260.1445907773159 96.80378798325546,243.56007204717025 90.68571691273246,237.59610059225815 96.47456442797557,243.86161771600018 106.0494828298688,256.5262359835324 107.11945938505232,256.99528467215714 109.2594124948373,259.9435723206552 105.8300004596822,268.2187101415475 109.34171838371549,259.9770754069614 97.1604468349833,244.0291429440258 90.7405875051627,237.42857142857974 96.72148209437728,244.1631630527263 105.55564749694895,255.92317220341647 107.2292005700292,257.06229156200425 109.2594124948373,259.9100692301581 105.85743575613014,268.2187101415475 109.39658897626214,260.1110877114115 96.47456442797557,243.29203117394354 91.09724635689054,237.5625947676599 90.68571691273246,237.495583106298 90.87776398658752,237.9311586120166 95.84355261351448,243.15801063895924 95.84355261351448,242.52141220195335 93.01771709648892,239.67345370625844" stroke="#4DD2FF" stroke-linecap="round" stroke-linejoin="round" stroke-width="0.5"><title>2024-10-19 10.6km</title><desc>1729335763000</desc></polyline></svg>