<?xml version="1.0" encoding="utf-8" ?>
<svg baseProfile="full" height="300mm" version="1.1" viewBox="0,0,200,300" width="200mm" xmlns="http://www.w3.org/2000/svg" xmlns:ev="http://www.w3.org/2001/xml-events" xmlns:xlink="http://www.w3.org/1999/xlink"><defs /><rect fill="#222222" height="300" width="200" x="0" y="0" /><text fill="#FFFFFF" style="font-size:12px; font-family:Arial; font-weight:bold;" x="10" y="20">Over 10km Runs</text><text fill="#FFFFFF" style="font-size:4px; font-family:Arial" x="10" y="280">Runner</text><text fill="#FFFFFF" style="font-size:9px; font-family:Arial" x="10" y="290">unsung</text><text fill="#FFFFFF" style="font-size:4px; font-family:Arial" x="65" y="280">SPECIAL TRACKS</text><rect fill="yellow" height="2.6" width="2.6" x="65" y="283" /><text fill="#FFFFFF" style="font-size:3px; font-family:Arial" x="70" y="285.5">Over 20.0 km</text><rect fill="red" height="2.6" width="2.6" x="65" y="287" /><text fill="#FFFFFF" style="font-size:3px; font-family:Arial" x="70" y="289.5">Over 40.0 km</text><text fill="#FFFFFF" style="font-size:4px; font-family:Arial" x="120" y="280">STATISTICS</text><text fill="#FFFFFF" style="font-size:3px; font-family:Arial" x="120" y="285">Number: 25</text><text fill="#FFFFFF" style="font-size:3px; font-family:Arial" x="120" y="290">Weekly: 1.5</text><text fill="#FFFFFF" style="font-size:3px; font-family:Arial" x="141" y="285">Total: 313.0 km</text><text fill="#FFFFFF" style="font-size:3px; font-family:Arial" x="141" y="290">Avg: 12.5 km</text><text fill="#FFFFFF" style="font-size:3px; font-family:Arial" x="167" y="285">Min: 10.0 km</text><text fill="#FFFFFF" style="font-size:3px; font-family:Arial" x="167" y="290">Max: 21.1 km</text><polyline fill="none" points="20.389791844878346,31.79999999998836 20.181609858991578,32.50623853063735 24.831007546395995,37.36510106171772 33.042630327749066,48.21242520313535 34.12980292143766,48.805623546169954 35.81839014124125,51.26314330477908 32.88071100541856,58.0706189404591 32.99636766430922,58.889762232720386 29.71171855169814,63.041926642588805 28.06939399545081,64.17175437732658 29.71171855169814,63.07017240326968 33.042630327749066,58.9745010282204 32.92697366885841,58.09886530923541 35.93404680013191,51.37613209008123 25.177977523067966,37.252105420062435 20.065953199984506,32.16724430548493 25.016058200621046,37.534594420634676 33.01949899608735,48.15593004334369 34.014146262547,48.664385983676766 35.81839014124125,51.2066488913988 32.90384233719669,57.98587981330638 32.99636766430922,58.889762232720386 29.734849883476272,63.01368087834271 28.06939399545081,64.17175437732658 29.71171855169814,63.12666391445964 33.08889299130533,58.889762232720386 32.97323633241467,57.98587981330638 35.95717813191004,51.34788489897619 25.270502850180492,37.36510106171772 20.1353471953189,32.054246119907475 24.992926868842915,37.50634553616692 33.01949899608735,48.15593004334369 33.99101493076887,48.60789093449421 35.81839014124125,51.23489609984972 32.88071100541856,58.0141261924291 32.99636766430922,58.889762232720386 29.642324556363747,63.041926642588805 28.115656659007072,64.19999999999709 29.642324556363747,63.154909664794104 33.06576165964361,58.889762232720386 32.92697366885841,58.127111674519256 35.91091546835378,51.37613209008123 25.363028177409433,37.50634553616692 20.343529181438498,32.11074521957198 20.042821868206374,32.280242435852415 24.992926868842915,37.4780966482067 27.60676735988818,40.9244354692637" stroke="#4DD2FF" stroke-linecap="round" stroke-linejoin="round" stroke-width="0.5"><title>2025-06-05 10.1km</title><desc>1749073951000</desc></polyline><polyline fill="none" points="56.21099729137495,31.80000000000291 56.094220639090054,32.14227705373196 60.8353527225554,37.13376031561347 71.88242403033655,51.1093449119071 68.89294173149392,58.011263374995906 69.07978437514976,58.752779650560115 65.763327449793,63.00219282731996 64.10509898711462,64.19999999999709 65.78668278013356,63.00219282731996 69.05642904457636,58.952418244982255 68.98636305332184,58.011263374995906 71.97584535216447,51.13786565649207 61.20903800986707,37.07671539635339 56.024154647719115,31.857046210527187 60.998840035754256,37.276372552645626 71.88242403033655,51.223427869481384 68.91629706183448,57.95422356373456 69.05642904457636,58.80981926640379 65.763327449793,62.97367353395384 64.08174365654122,64.17148085299414 65.7399721192196,63.05923140363302 69.07978437514976,58.89537866396131 69.0330737142358,57.92570365294523 71.92913469125051,51.080824163756915 61.25574867089745,37.13376031561347 56.024154647719115,31.914092407168937 60.90541871404275,37.21932766833925 71.88242403033655,51.1093449119071 68.91629706183448,57.95422356373456 69.05642904457636,58.78129946022818 65.69326145830564,63.05923140363302 64.08174365654122,64.17148085299414 65.69326145830564,63.08775068662362 69.07978437514976,58.92389845622529 68.98636305332184,57.95422356373456 71.97584535216447,51.280469327262836 61.60607862775214,37.5615967650665 56.374484604690224,31.885569310572464 56.070865308633074,32.056707837444264 59.76100752141792,35.82172364126018 63.19424109905958,40.157121060896316" stroke="#4DD2FF" stroke-linecap="round" stroke-linejoin="round" stroke-width="0.5"><title>2025-06-03 10.0km</title><desc>1748953280000</desc></polyline><polyline fill="none" points="91.9983886614209,31.971440400433494 96.95845183043275,37.143166646477766 107.95481828984339,51.11482678161701 105.03025274211541,57.828926442642114 105.05364926648326,58.85745232201589 101.91851499932818,62.885801743061165 100.14037914632354,64.19999999999709 101.84832542622462,62.91437134897569 105.1472353640711,58.800312114181 105.05364926648326,57.9432073195203 107.97821481432766,51.14339782741445 97.14562402537558,36.88601169374306 92.06857823452447,31.80000000000291 96.95845183043275,37.114593887963565 107.95481828984339,51.08625573239988 105.00685621774755,57.914637105568545 105.03025274211541,58.85745232201589 101.77813585300464,63.00008014582272 100.14037914632354,64.17143055118504 101.87172195059247,62.91437134897569 105.10044231533539,58.91459251585184 105.05364926648326,57.914637105568545 107.95481828984339,51.08625573239988 97.51996841561049,37.343175858375616 92.06857823452447,31.828573408842203 96.93505530594848,37.0860211258987 107.95481828984339,51.08625573239988 105.03025274211541,57.914637105568545 105.10044231533539,58.82888221980829 101.84832542622462,62.94294095148507 100.14037914632354,64.17143055118504 101.87172195059247,62.94294095148507 105.1472353640711,58.85745232201589 105.07704579085112,57.800356214735075 108.0016113385791,51.28625300376734 97.68374408618547,37.54318489896832 92.37273305165581,31.80000000000291 92.18556085648015,32.11430730462598 97.02864140353631,37.200312153087 99.67244865861721,40.62901695945766" stroke="#4DD2FF" stroke-linecap="round" stroke-linejoin="round" stroke-width="0.5"><title>2025-05-31 10.0km</title><desc>1748691698000</desc></polyline><polyline fill="none" points="128.23068163439166,31.79999999998836 128.11472165875603,32.281501724530244 132.86908065865282,37.18143290597072 141.2181989023229,48.28378340511699 142.05311072675977,48.59532127484272 143.86208634625655,51.200894315959886 140.87031897553243,58.08286470755411 141.07904693158343,58.81919510423904 137.83216761471704,62.92561014123203 136.11595997563563,64.1716803014424 137.73939963418525,63.010569683334325 141.1022389268037,58.84751545735344 140.96308695606422,58.08286470755411 143.95485432678834,51.200894315959886 133.0082326293923,37.01149483238987 128.04514567332808,32.05491280242859 132.98504063428845,37.32304787199246 141.2181989023229,48.25546175976342 142.09949471708387,48.623642878592364 143.8852783413604,51.200894315959886 140.98627895128448,57.856301037507365 141.0094709462719,58.93247649585828 137.7625916292891,63.010569683334325 136.16234396595974,64.1716803014424 137.78578362439293,62.98224983944965 140.98627895128448,58.93247649585828 140.98627895128448,57.91294197573734 143.95485432678834,51.314179435168626 133.58803250745405,37.691246378206415 128.06833766843192,31.998265537273255 133.0082326293923,37.3796938341402 141.14862291701138,48.19881845872442 142.14587870729156,48.68028607570159 143.86208634625655,51.17257302744838 140.87031897553243,58.02622381078254 141.03266294137575,58.84751545735344 137.73939963418525,63.06720936077181 136.11595997563563,64.1716803014424 137.66982364887372,63.09552919435373 141.055854936596,59.017437503280235 141.0094709462719,57.99790335718717 143.93166233156808,51.25753688249097 133.54164851712994,37.634600492281606 128.06833766843192,32.05491280242859 132.7995046733413,37.068140870775096 140.91670296585653,47.91560174578626 142.00672673643567,48.59532127484272 143.81570235604886,51.11593044019537 140.89351097063627,57.9695829002012 141.03266294137575,58.81919510423904 137.73939963418525,63.038889523857506 136.0927679806482,64.19999999999709 137.90174360002857,62.86897042921919 141.07904693158343,58.90415615317761 140.96308695606422,58.05454426094366 143.93166233156808,51.25753688249097 133.4256885414943,37.54963163744833 128.04514567332808,32.08323642979667 132.98504063428845,37.3796938341402 141.055854936596,48.11385348121985 142.0763027218636,48.70860766903206 143.8852783413604,51.314179435168626 140.91670296585653,57.9695829002012 141.055854936596,58.84751545735344 137.83216761471704,62.92561014123203 136.06957598542795,64.19999999999709 137.73939963418525,63.06720936077181 140.98627895128448,59.04575783210748 140.93989496096037,58.08286470755411 143.93166233156808,51.25753688249097" stroke="#4DD2FF" stroke-linecap="round" stroke-linejoin="round" stroke-width="0.5"><title>2025-03-01 15.0km</title><desc>1740782421000</desc></polyline><polyline fill="none" points="162.15728477551602,31.834691487340024 162.58337634371128,31.79999999998836 162.4697519254405,32.424446123914095 168.37822167063132,38.59945041546598 178.29195215646178,51.781593867752235 179.48500854731537,52.336618042201735 181.70068470179103,55.45860878168605 178.06470332003664,64.20000000001164 181.7859030152904,55.52798596318462 168.6906888205558,38.42599707443151 162.4697519254405,32.1122232338239 168.4634399842471,38.66883172211237 178.37717047007754,51.88566098318552 179.4281963382382,52.3019290631637 181.70068470179103,55.389231583016226 178.00789111107588,64.1653124721488 181.84271522448398,55.597363127802964 169.0031559705967,38.80759428447345 162.66859465721063,32.04284032268333 162.32772140274756,32.181606127967825 168.74750102963299,38.98104739197879 178.32035826088395,51.781593867752235 179.54182075627614,52.40599598758854 181.64387249259744,55.389231583016226 178.03629721561447,64.1653124721488 181.84271522448398,55.63205170381116 169.14518649340607,38.94635677902261 162.81062518002,32.14691468299134 162.29931529820897,32.14691468299134 168.4918460889021,38.73821301176213 178.40557657449972,51.88566098318552 179.48500854731537,52.3019290631637 181.70068470179103,55.42392018449027 178.00789111107588,64.13062493997859 181.81430911982898,55.597363127802964 168.4350338797085,38.11378079332644" stroke="#4DD2FF" stroke-linecap="round" stroke-linejoin="round" stroke-width="0.5"><title>2025-02-25 10.0km</title><desc>1740436543000</desc></polyline><polyline fill="none" points="18.672810855903663,82.80000000001746 18.445318437647074,83.42511537417886 24.331684757373296,89.57200988786644 34.36978770827409,102.9071877929382 35.421940142288804,103.35862816512235 37.611554667004384,106.34506177442381 33.94323942437768,115.16527529153973 37.69686432380695,106.41451334502199 24.7297964891186,89.57200988786644 18.246262571774423,83.07782922516344 24.24637510057073,89.46782634404371 34.34135115600657,102.87246158064227 35.620996008161455,103.56698501788196 37.58311811462045,106.41451334502199 33.91480287199374,115.13055057876045 37.66842777142301,106.44923912396189 24.30324820498936,89.05109178661951 18.303135676309466,83.07782922516344 24.189501995919272,89.4330984876724 33.48825458798092,101.8306732387573 35.421940142288804,103.4280804664595 37.58311811462045,106.37978756180382 33.94323942437768,115.13055057876045 37.66842777142301,106.44923912396189 25.156344773131423,90.02347146882676 18.274699124041945,83.07782922516344 24.331684757373296,89.53728204415529 34.284478051471524,102.83773536421359 35.45037669443991,103.39335431787185 37.66842777142301,106.44923912396189 34.00011252879631,115.06110114051262 37.72530087607447,106.58814219708438 24.92885235499125,89.78037686060998 18.70124740805477,83.1125578591309 18.303135676309466,83.18201511455118 24.502304070978425,89.78037686060998 34.17073184228502,102.62937797620543 35.47881324670743,103.39335431787185 37.639991219271906,106.41451334502199 33.971675976528786,115.20000000001164 37.75373742822558,106.83122241159435 35.36506703775376,103.28917584696319" stroke="#4DD2FF" stroke-linecap="round" stroke-linejoin="round" stroke-width="0.5"><title>2025-02-22 12.0km</title><desc>1740177306000</desc></polyline><polyline fill="none" points="54.46753810031805,82.79999999998836 54.29655223665759,83.32204858557088 60.16706688934937,89.4473470801604 69.99875405046623,102.56757102601114 71.45213389163837,103.4723917513329 73.56095954356715,106.36083865555702 69.88476347469259,115.1304013770714 73.67495011934079,106.46523980176426 60.73701976821758,89.55175443395274 54.66702160786372,83.0784260314831 54.21105930476915,83.0784260314831 60.708522124332376,90.10859300664742 70.25523284589872,102.84597770948312 71.33814331586473,103.33318875008263 73.61795483145397,106.46523980176426 69.94175876257941,115.16520069070975 73.646452475572,106.39563904190436 60.2810574650066,88.99491477120318 54.638523963978514,82.97401630159584 54.239556948654354,83.11322926633875 60.08157395757735,89.34293968812563 70.16973991401028,102.7763760642265 71.36664095986634,103.36798950680532 73.61795483145397,106.43043942400254 69.97025640646461,115.20000000001164 73.646452475572,106.39563904190436 60.65152683632914,89.37774215647369 54.239556948654354,83.00881954919896 60.366550396895036,89.69096417925903 70.31222813378554,102.88077852583956 71.48063153552357,103.50719249102985 73.58945718745235,106.36083865555702 69.9132611185778,115.1304013770714 73.70344776334241,106.43043942400254 60.85101034399122,89.65616174932802 54.239556948654354,83.00881954919896 60.195564533234574,89.48214953573188 70.1982375580119,102.74157523509348 71.33814331586473,103.33318875008263 73.61795483145397,106.46523980176426 69.94175876257941,115.1304013770714 73.67495011934079,106.32603826501872 60.50903861655388,89.23853225779021 54.29655223665759,82.97401630159584 59.99608102568891,89.23853225779021 70.22673520201351,102.70677440188592 71.39513860363513,103.33318875008263 73.56095954356715,106.39563904190436 69.97025640646461,115.20000000001164 73.78894069523085,106.60444127040682 62.95983599592,92.40554059669375" stroke="#4DD2FF" stroke-linecap="round" stroke-linejoin="round" stroke-width="0.5"><title>2025-02-05 15.0km</title><desc>1738709514000</desc></polyline><polyline fill="none" points="90.48581584566273,82.80000000001746 90.4287592691835,83.46197237298475 96.2485300861299,89.59385383402696 106.17637442087289,102.79785481514409 107.4030908185523,103.39010436512763 109.59976901905611,106.45584705160582 105.97667640272994,115.20000000001164 109.74241046071984,106.52552263819962 96.7335109874839,89.55901397144771 90.71404215227813,83.04388473753352 90.20053296268452,83.00904407349299 96.39117152779363,89.66353354632156 106.09078955592122,102.6236635366804 107.37456253031269,103.35526619030861 109.59976901905611,106.49068484699819 105.97667640272994,115.16516326996498 109.71388217236381,106.45584705160582 96.56234125758056,89.31513481397997 90.22906125092413,83.04388473753352 96.41969981591683,89.69837339615333 106.0622612676816,102.55398699545185 107.34603424195666,103.32042801129865 109.59976901905611,106.38617144795717 105.91961982601788,115.13032653561095 109.74241046071984,107.01325126705342 109.62829730741214,106.3513336397009 96.8476241407916,89.62869369229884 90.68551386403851,83.00904407349299 90.22906125092413,83.11356605275068 96.22000179777388,89.48933423351264 106.23343099758495,102.83269305800786 107.46014739526436,103.42494253552286 109.62829730741214,106.42100925193517 105.94814811437391,115.16516326996498 109.68535388400778,106.38617144795717 96.5052846808685,89.21061511119478 90.68551386403851,83.00904407349299 90.22906125092413,83.14840670392732 96.30558666284196,89.59385383402696 106.09078955592122,102.58882526814705 107.37456253031269,103.35526619030861 109.5712407308165,106.3513336397009 105.94814811437391,115.13032653561095 109.7994670374319,106.76938705702196 106.80399676389061,102.83269305800786" stroke="#4DD2FF" stroke-linecap="round" stroke-linejoin="round" stroke-width="0.5"><title>2025-02-04 12.0km</title><desc>1738622138000</desc></polyline><polyline fill="none" points="123.12144096009433,82.80000000001746 123.12144096009433,83.91153056334588 132.31391066359356,93.52615641214652 148.5600081095472,115.20000000001164 149.1516026945319,115.14442736445926 148.9240663156379,114.4219824836764 132.8599979726132,93.35943053016672 123.25796278729104,83.18903600654448 122.8028900299687,83.63364817769616 132.4959397665225,93.69288223283365 148.60551538551226,115.20000000001164 148.96957359160297,114.53312792474753 132.76898342114873,93.19270458706887 123.43999189068563,83.30018909025239 122.93941185739823,83.63364817769616 132.4504324910231,93.63730696609127 148.5600081095472,115.08885472209658 149.1516026945319,115.14442736445926 148.9240663156379,114.3664097530127 133.54260710906237,94.1374841220968 123.48549916618504,83.35576562175993 122.84839730570093,83.63364817769616 133.26956345443614,94.69323587193503 148.46899355808273,114.97770941711497 149.24261724599637,114.86656408483395 148.51450083381496,113.81068207189674 132.76898342114873,93.35943053016672 123.34897733922116,83.18903600654448 122.89390458143316,83.57807168003637 133.2240561787039,94.52651041833451 148.51450083381496,115.14442736445926 149.0150808673352,114.53312792474753 133.04202707577497,93.52615641214652 123.34897733922116,83.24461255178903 122.75738275400363,83.63364817769616 132.76898342114873,94.08190890980768 148.46899355808273,115.08885472209658 148.7875444884412,114.255264271138 134.86231810622849,95.86031233309768 123.34897733922116,83.18903600654448 122.84839730570093,83.63364817769616 132.17738883639686,93.35943053016672 148.46899355808273,115.03328207301092 149.0150808673352,114.58870063521317 143.235656845849,106.6973077073635 128.8553577058483,89.0801119513053" stroke="#4DD2FF" stroke-linecap="round" stroke-linejoin="round" stroke-width="0.5"><title>2025-01-23 11.4km</title><desc>1737585341000</desc></polyline><polyline fill="none" points="162.3196584340185,82.79999999998836 162.43438840820454,83.43052146871923 168.40034706215374,89.66560345017933 178.29580732958857,102.87091862712987 179.47178956412245,103.50139589523314 181.65165907226037,106.44360478993622 178.1523948617978,115.12994990081643 181.82375403353944,106.61873531839228 169.08872690680437,89.87577238719678 162.6064833694836,82.94011600184604 162.17624596646056,83.01017397723626 168.22825210099109,89.49046255153371 178.20975984900724,102.76583894752548 179.52915455121547,103.50139589523314 181.7090240593534,106.54868311985047 178.00898239423987,115.20000000001164 181.82375403353944,106.58370922130416 168.8879494521534,89.63057527897763 162.26229344704188,82.97514499165118 168.37166456854902,89.63057527897763 178.32448982296046,102.90594517852878 179.44310707075056,103.396316446946 181.73770655295812,106.54868311985047 178.06634738121647,115.12994990081643 181.82375403353944,106.61873531839228 168.77321947796736,89.52549073987757 162.20492845994886,82.94011600184604 169.00267942610662,90.36616597344982 178.35317231656518,102.90594517852878 179.50047205772717,103.43134293408366 181.65165907226037,106.44360478993622 178.06634738121647,115.05989978462458 181.79507153993472,106.54868311985047 168.48639454273507,89.17520866394625 162.5778008758789,82.90508700784994 162.20492845994886,82.97514499165118 168.17088711389806,89.35034975546296 178.09502987470478,102.59070606244495 179.50047205772717,103.46636941676843 181.65165907226037,106.51365701420582 178.06634738121647,115.02487471999484 181.82375403353944,106.68878749979194 168.77321947796736,89.52549073987757 162.66384835646022,83.04520295836846 162.23361095343716,83.22034780014656 168.42902955552563,89.70063161710277 178.4105373035418,103.0110248067358 178.72604473226238,102.66075922932941 171.44069137610495,92.99326016803388" stroke="#4DD2FF" stroke-linecap="round" stroke-linejoin="round" stroke-width="0.5"><title>2025-01-18 14.0km</title><desc>1737153490000</desc></polyline><polyline fill="none" points="29.892022917571012,148.3453388299822 25.85094755399041,151.49187077070383 24.987042750115506,152.72081092144072 24.094579109718325,153.7318380059878 23.009343323035864,154.6208327393033 21.759894226503093,155.38779968440213 20.953107095643645,156.68639536821138 19.60370207138476,158.0285432443343 17.797355663293274,159.32709085506212 11.799999999988358,164.25961333811574 16.076685764681315,160.8696301182281 17.80449537243112,159.3532358661978 19.4466284707014,158.2028463105671 21.010224768600892,156.67768003974925 21.802732481242856,155.3790841972732 23.07360070516006,154.60340157651808 23.994623182050418,153.86257322051097 24.97990304097766,152.78182158285927 25.87236668134574,151.5005867328655 31.14147201407468,147.3691012564086 31.83402379899053,146.98557569603145 31.784045835171128,146.76766252689413 32.52657558393548,146.4800161239691 35.83226090788958,143.76910969375604 36.40343763772398,143.0368857772046 38.038431026856415,141.88623300162726 38.723843102692626,140.8140171108098 40.20890260025044,139.89869810485106 40.88003525781096,138.9659323621163 42.422212428355124,137.97213113398175 42.70780079328688,137.1003642647338 43.8358748347091,136.33320060154074 44.19999999998254,135.74038666189153 43.75733803433832,136.34191841682332 42.72921992064221,137.03934018465952 42.40793301013764,137.93726066384988 40.90145438516629,138.92234487940004 40.23032172763487,139.84639380673616 38.64530630232184,140.8488861739388 38.05271044513211,141.85136444582167 36.41057734680362,143.0020177841143 35.817981489613885,143.76039278660755 33.89026002641185,145.32941890916118" stroke="#4DD2FF" stroke-linecap="round" stroke-linejoin="round" stroke-width="0.5"><title>2025-01-16 10.5km</title><desc>1736984045000</desc></polyline><polyline fill="none" points="51.009557493031025,133.80000000001746 51.23866582638584,134.91920925705926 60.63210749812424,144.60025502246572 76.66969083994627,165.97617367602652 77.26537250680849,166.144043429289 77.1279075066559,165.41660738695646 62.190044165588915,145.83135598234367 51.46777415997349,134.13576306475443 50.917914159595966,133.80000000001746 50.78044915944338,134.47152588298195 60.54046416468918,144.5442958091735 76.66969083994627,166.144043429289 77.17372917337343,165.58447734548827 62.05257916543633,145.66347877393127 51.23866582638584,133.91192104882794 50.78044915944338,134.4155654303322 60.63210749812424,144.60025502246572 76.62386917299591,166.144043429289 77.03626417322084,165.36065072042402 62.3275091657415,146.0551921647275 51.3303091598209,134.02384207039722 50.73462749272585,134.4155654303322 60.494642497971654,144.5442958091735 76.62386917299591,166.0880868517561 77.21955084032379,166.144043429289 77.0820858401712,165.4725640466204 63.15229916595854,147.00649471674114 51.28448749287054,133.91192104882794 50.78044915944338,134.4155654303322 60.448820831254125,144.48833658898366 76.62386917299591,166.20000000001164 77.26537250680849,166.20000000001164 77.1279075066559,165.4725640466204 61.09032416483387,144.3764181282022 51.37613082653843,134.13576306475443 50.68880582624115,134.35960497081396 60.58628583140671,144.71217342835735 76.53222583979368,166.144043429289 77.31119417352602,166.03213026738376 76.85297750658356,165.08086728479248 61.22778916498646,144.5442958091735 51.46777415997349,134.13576306475443 50.78044915944338,133.9678815631196 50.82627082616091,134.5834467674722 60.448820831254125,144.48833658898366 65.44338250067085,151.3712692957779 66.22235083440319,151.0914773028926 63.381407499313354,147.5101246785489" stroke="#4DD2FF" stroke-linecap="round" stroke-linejoin="round" stroke-width="0.5"><title>2025-01-14 10.6km</title><desc>1736807801000</desc></polyline><polyline fill="none" points="94.66230496918433,153.19929144874186 92.23241117084399,155.09219552064314 91.22137144356384,156.3886564373388 90.50344827587833,156.9850151592218 89.8067654385668,157.3998684580365 89.39045496264589,158.11029531381064 88.43888816048275,159.05405566437548 87.43634456535801,159.7592694796149 86.18316507145937,160.84817956252664 83.80000000000291,162.7200025660204 85.94952143701084,161.05558783971355 87.46183296185336,159.75408412668548 88.36242297102581,159.1318371747875 89.3649665661651,158.16215082298368 89.84924609940208,157.38431153251804 90.61389799397148,156.9176011151394 91.25960403827776,156.3730991411212 92.28338796382013,155.07145182402382 95.75405795201368,152.40580243225486 95.77529828243132,152.28651848660593 95.97070932213683,152.28651848660593 96.27657007997914,152.06350847128124 98.17545561819861,150.50240554182528 98.50680477253627,150.07192519509044 99.50085223549104,149.37173698748666 99.87043398452806,148.75971116291112 100.80500852236582,148.1736103594376 101.19158253572823,147.62899615993592 102.09642061099294,147.04287973359533 102.26209518816904,146.5397467839175 102.98851448802452,146.0106727087732 103.65121279665618,144.98881488189363 108.31134128753911,141.71040428780543 109.95959092698467,140.9167003272778 110.49909531929006,140.34605431320233 116.20000000001164,137.2799974339796 112.35550019667426,139.2721814454926 110.50334338535322,140.32011567556037 109.98507932346547,140.88038671880713 108.27310869279609,141.71559184650323 103.66395699490386,144.94731759718707 102.96302609152917,146.0106727087732 102.25784712207678,146.51381193403722 102.07093221451214,147.04287973359533 101.18733446965052,147.60824881406734 100.75403172938968,148.18398389536378 99.85768978628039,148.7441510692188 99.49235610332107,149.35099049394557 98.48556444211863,150.06155212078738 98.16271141995094,150.49203257276167 96.18311262621137,152.1101850830928 96.00044578472443,152.22428325140936 95.89424413269444,152.1413027957933 95.8730038022768,152.2605871497035 95.7073292251298,152.42136118304552 92.27913989772787,155.0455221890079 91.17889078275766,156.42495677297484 90.57566539925756,156.92278681463358 89.80251737248909,157.39468281682275 89.16105939427507,158.3592011800647 88.39640749969112,159.07479741442876 87.7294611249672,159.53629873120735 88.37941523535119,159.12665174519498 89.2375245837029,158.3073459116349 89.81950963681447,157.3998684580365 90.65213058869995,156.8916726081152 91.48050347450771,156.12418162612812" stroke="yellow" stroke-linecap="round" stroke-linejoin="round" stroke-width="0.5"><title>2025-01-01 21.1km</title><desc>1735687361000</desc></polyline><polyline fill="none" points="149.57256304990733,133.79999999999563 150.87552910274826,135.00483517439716 150.1783279692172,137.02220490454783 149.972596487205,137.26036423705955 149.45826778217452,137.00819551644963 149.21824771980755,137.23234551800851 148.95536860387074,138.49318101043173 149.73257642483804,140.3143630513514 150.40691850479925,140.94476539610332 151.13840821862686,142.2335770473801 150.15546891570557,144.50297061022866 150.07546222826932,145.7217002381003 150.21261654957198,146.71628596370283 150.81838146882365,147.76689520261425 150.68122714746278,149.37781044250733 151.33271017385414,150.86263376431452 151.37842828105204,151.54900777821604 150.86409957596334,153.07582485280727 150.25833465671167,153.6641341963914 148.5667646934162,154.3364839906426 146.62374514102703,154.49056358983944 145.5265105701983,155.03684411628637 145.1721952400403,155.415036783721 145.14933618652867,156.28347442683298 146.52087940002093,158.4545394090237 146.74946993560297,159.1548740762155 146.80661756946938,160.0092765074951 146.41801365895662,160.7236080208022 145.34363814175595,161.4659477622772 143.8235110801761,161.73206837197358 142.74913556291722,162.23629518138478 139.5831566452398,162.7405197467815 136.31431198643986,166.1999999999971 130.01664273126516,161.53597956227895 130.71384386479622,160.3594395767941 138.16589532460785,150.73656461571954 130.47382380237104,144.88119844986068 130.05093131167814,145.1613664056349 120.96445752232103,156.75971159824257 120.62157171900617,156.59162811932038 129.90234746347414,144.61503824996907 129.62803882081062,144.13875001537235 125.93630167120136,141.19692535151262 126.0048788319109,140.88872977420397 126.35919416206889,140.8467030396132 126.75922759930836,141.08485432949965 134.75989634450525,147.430701306439 135.4113793708966,147.2906202218146 136.18858719186392,146.29603953952028" stroke="#4DD2FF" stroke-linecap="round" stroke-linejoin="round" stroke-width="0.5"><title>2024-12-28 10.1km</title><desc>1735347410000</desc></polyline><polyline fill="none" points="173.29613679545582,149.1247625785545 169.3564281190629,152.18920844976674 168.5219759341271,153.38321963016642 167.70120329322526,154.31002511359839 166.63419886000338,155.17837199752103 165.48511716275243,155.87137168925256 164.76694110195967,157.0653185284027 163.3169094363402,158.49301778113295 161.69588347052922,159.6451743771322 160.12957568079582,161.02272741931665 155.79999999998836,164.43726949053234 159.5550348321558,161.5153002524894 161.81215959467227,159.56168542153318 163.18011399620445,158.63495116450213 164.732742241933,157.13211214100738 165.4714376187476,155.8964197392852 166.59999999997672,155.20342030159372 167.73540215325193,154.28497648202028 168.6040531982144,153.32477201612346 169.36326789105078,152.2059080507388 175.0471184293856,147.8388233690348 175.0471184293856,147.6384150783415 175.3001899936644,147.66346614683425 175.7789740341832,147.36285271867382 178.93210892970092,144.7658316359666 179.55452818240155,143.99756210219493 181.0866371120792,142.93700191798416 181.68169727677014,141.9515847839284 183.19328689042595,140.99955811837572 183.82938568713143,140.11432843572402 185.26573780871695,139.187330337787 185.5598480050976,138.33548315449298 186.68157061430975,137.55043810723873 187.59126029131585,136.03878339617222 188.19999999998254,135.56273050946766 187.7554148195195,135.84669227985432 186.73628879035823,137.43351573236578 185.51196960100788,138.34383464905113 185.26573780871695,139.15392476602574 183.77466751108295,140.1310309887631 183.18644711840898,140.96615343300073 181.62013932867558,141.97663793800893 181.0866371120792,142.9119491161182 179.47245091831428,144.04766690039833 178.9115896136791,144.7574809266298 175.7242558581347,147.3712031095347 174.73248891704134,148.00582982884953" stroke="#4DD2FF" stroke-linecap="round" stroke-linejoin="round" stroke-width="0.5"><title>2024-12-24 11.5km</title><desc>1734996352000</desc></polyline><polyline fill="none" points="33.820255863509374,195.65634013016825 28.967164179077372,199.44094758822757 27.015565031964798,201.97095467649342 25.78070362471044,203.03564380966418 24.03635394453886,204.13194364151423 23.095095948781818,205.6814975265952 21.160767590627074,207.5788725435341 19.3559701492195,208.80160322287702 16.497654584178235,211.27863381800125 11.825906183366897,214.93607663960574 16.229957356059458,211.52106277923303 19.209168443485396,208.95971368339815 21.22985074625467,207.54724996852747 23.12963752663927,205.6814975265952 24.13997867802391,204.0581546670437 25.478464818705106,203.29917869504425 26.894669509580126,202.1396191774911 29.06215351811261,199.3882383181699 34.98603411510703,194.73915399362158 36.19498933898285,193.969553503106 36.160447761183605,193.73761776208266 36.54904051168705,193.70599011269223 37.049893390154466,193.3686277977613 41.00490405113669,190.131991027818 41.72164179102401,189.20420303936407 43.80277185497107,187.73869940453733 44.19999999998254,187.0533834033704 43.69914712148602,187.79141579443967 41.73891257995274,189.15148751307424 41.03081023451523,190.068733072927 37.10170575688244,193.32645741559827 36.59221748399432,193.67436245173303 36.46268656713073,193.55839426229068 36.289978677988984,193.8641282435783 35.02921108735609,194.66535698395455 29.11396588484058,199.3039034190806 26.842857142852154,202.1396191774911 25.564818763319636,203.18322344467015 24.001812366681406,204.15302619407885 23.103731343289837,205.6604153475564 21.972494669491425,206.80938659422827 21.022601279313676,207.66319935362117 19.27825159911299,208.8648474418369 15.720469083142234,211.9005154381084 11.799999999988358,214.94661659662233 15.798187633277848,211.8478137797283 19.330063965870067,208.85430674190138 21.48891257989453,207.3048098416184 23.0778251599113,205.71312078548362 24.07089552236721,204.13194364151423 25.4698294242844,203.28863731509773 26.721961620467482,202.29774184765847 27.965458422142547,200.92733574373415 28.898081023449777,199.5463660317473 31.410980810178444,197.58556189509545" stroke="#4DD2FF" stroke-linecap="round" stroke-linejoin="round" stroke-width="0.5"><title>2024-12-21 15.0km</title><desc>1734737288000</desc></polyline><polyline fill="none" points="67.06445936555974,198.102744961172 62.7209539244941,201.44545717765868 61.895762908039615,202.63597620282235 60.81551285015303,203.86310678789596 59.870294049498625,204.64150010182493 58.48997453111224,205.47482986530667 57.6047696225578,206.88505912586697 56.11942579297465,208.34104720991309 54.28900208376581,209.65049661236844 51.655892567679984,211.90306233956653 47.79999999998836,214.94300307358208 52.293540171318455,211.3902891005855 54.22148645517882,209.7054380452828 56.389488307439024,208.10296304251824 57.6047696225578,206.88505912586697 58.444964112044545,205.51145953239757 59.67524890016648,204.76970528393576 60.7855059041176,203.88142201757 61.81324380642036,202.74586931317754 62.750960870529525,201.41798343843402 68.21972678857855,197.1319567592218 69.78758971981006,196.10620461562212 73.20087983328267,193.3127905307192 73.8310257003759,192.50680251610902 75.57142857139115,191.28864508352854 76.17906922893599,190.2536536558473 77.82194952532882,189.2094885222832 78.60963185920264,188.17446836852469 80.07247047923738,187.24019010852498 80.19999999998254,187.0569969264252 78.54211623055744,188.19278743361792 77.87446168088354,189.14537264507817 76.14156054635532,190.24449437586009 75.50391294277506,191.3069633870764 73.77101180824684,192.5159615195371 73.163371150702,193.3036316246871 69.42750636715209,196.35348543485452 69.32248205598444,196.57328992234397 68.90238481128472,196.67403343029582" stroke="#4DD2FF" stroke-linecap="round" stroke-linejoin="round" stroke-width="0.5"><title>2024-12-17 10.2km</title><desc>1734391788000</desc></polyline><polyline fill="none" points="99.5436188315507,201.3980026429199 96.0150879183202,204.12018439403982 94.60000000000582,205.9373976652205 93.66885989790899,206.73755265259751 92.51106069199159,207.45543981233277 91.73306863303878,208.68928869371666 90.41599546227371,209.93059034660473 89.09892229156685,210.84285623459073 87.43879750426277,212.2860031908167 83.79999999998836,215.1273329893811 90.95507657399867,209.45949690037014 91.83720930234995,208.56964383068407 92.52331253545708,207.44796186448366 93.6566080544435,206.7450306872379 94.40397050484899,206.13930691995483 95.14520703346352,205.3391441104177 96.10697674416588,204.0454007988228 100.29098128189798,200.76231089072098 101.8469653998909,199.72275367653856 104.56074872377212,197.48652397845217 105.0753261486243,196.8358330957708 106.48428814520594,195.84108538069995 106.98048780491808,194.98843160801698 108.34656834942871,194.1282863750239 108.95303460012656,193.30552744361557 110.19659671012778,192.5126765488203 110.47838910945575,191.742254985802 111.47078842882183,191.03914334288856 112.38355076574953,189.59549516786137 116.20000000001164,186.87266701062254 112.45706182645517,189.4907732493557 111.47691435055458,190.98678364188527 110.46613726601936,191.71233550606485 110.20272263188963,192.4677978889922 108.91015314805554,193.31300712011944 108.30981281906134,194.12080679822975 106.99886557005811,194.9435547644789 106.49041406693868,195.8111679056601 105.01406693135505,196.86575006974454 104.60975609754678,197.40425309961574 104.0400453772163,197.87543936258226" stroke="#4DD2FF" stroke-linecap="round" stroke-linejoin="round" stroke-width="0.5"><title>2024-12-14 12.1km</title><desc>1734132056000</desc></polyline><polyline fill="none" points="141.87206823023735,195.58782230567158 136.94989339014865,199.4462236308318 135.98272921104217,200.8482775352386 134.92057569295866,202.0500198878508 133.65117270784685,203.1147074598557 132.12270788906608,204.03180404236628 131.02601279315422,205.7500162238939 129.22121535177575,207.4892759123395 127.30415778249153,208.82795494519814 125.05895522388164,210.79904295899178 119.79999999998836,214.97296306451608 125.83614072494674,210.1560726730895 127.23507462683483,208.8806584191916 129.61844349675812,207.14142677960626 131.1555437100178,205.5918999681162 132.03635394453886,204.11613427313569 133.53027718546218,203.19903858709586 134.78240938164527,202.18705961907108 135.97409381662146,200.86936087865615 137.10533049039077,199.29863768364885 143.19328358207713,194.53358427178318 145.2053304903675,193.19468339417654 148.90991471213056,190.13727275950805 150.02388059697114,191.72924837358732 149.02217484006542,190.0740148433033 149.7130063965742,189.1778560455714 151.77686567162164,187.71235276908556 152.19999999998254,187.0270369354912 151.70778251596494,187.73343932372518 149.73027718547382,189.12514053218183 149.0739872068225,189.979127881983 144.62675906182267,193.65855691741308 142.8910447761009,194.72334806882282 137.04488272918388,199.309179545402 135.95682302769274,200.82719418663328 134.76513859271654,202.14489357110142 133.52164179101237,203.15687303378945 131.9845415778109,204.1055929987997 131.02601279315422,205.67622867391765 129.59253731340868,207.10980406164163 127.39914712152677,208.72254790068837 124.26449893391691,211.39984692871803 119.81727078891709,214.89918340134318 124.4026652451721,211.3260642104069 127.16599147120724,208.9439025454776 129.3248400852608,207.4154898498673 131.19008528781706,205.57081777875283 132.09680170574575,204.07396916804282 133.43528784645605,203.2728282558237 134.90330490402994,202.07110293759615 137.1312366737402,199.28809582063695 143.13283582087024,194.58629647948692 144.98944562897668,193.36336496401782 149.0135394455865,190.0634718527508 149.73891257995274,189.14622674140992 151.64733475475805,187.80724222449498" stroke="#4DD2FF" stroke-linecap="round" stroke-linejoin="round" stroke-width="0.5"><title>2024-12-07 17.1km</title><desc>1733527336000</desc></polyline><polyline fill="none" points="158.08554854028625,217.19169429026078 158.34397921257187,217.05880279646954 158.2079630692606,217.1999999999971 158.31677598389797,216.96743974360288 157.74550818200805,215.5886732868239 157.8135162536928,215.4640845766262 165.98128565892694,212.5154183449631 166.92659785487922,211.983814183106 167.65428422152763,211.18640013253753 180.95666303639882,195.58510270812985 181.41231711642467,194.77918744932686 183.63618105940986,189.03780268823903 184.27545693295542,187.70001514944306 185.69682563043898,185.43153248653107 185.96205710989307,185.19886330733425 186.25449181799195,185.25703067696304 185.86004500239505,184.8000000000029 185.73763047342072,184.80830967614747 184.8807287706295,185.96334475556068 184.11903836816782,187.2430009365853 183.22133182236576,189.02118437135505 181.14028482986032,194.53824185288977 180.68463074980536,195.37739350577613 175.48201326851267,201.5585472170278 169.10965695485356,208.90208926850028 168.87162870407337,209.41710424972553 167.39585354930023,211.1116420849212 166.70217121840687,211.80938066016824 166.20571229537018,212.1333282744963 157.8883251325169,215.1401528598435" stroke="#4DD2FF" stroke-linecap="round" stroke-linejoin="round" stroke-width="0.5"><title>2024-11-30 11.9km</title><desc>1732919585000</desc></polyline><polyline fill="none" points="14.665418485179543,236.30714799443376 24.354906782973558,246.39364209634368 40.64247520780191,268.1436541523144 41.24230067408644,267.9182706930151 39.95036890078336,265.94616071874043 24.354906782973558,245.54841364055756 15.17296311026439,235.80000000001746 14.665418485179543,236.30714799443376 24.44718762417324,246.56268760137027 40.64247520780191,268.20000000001164 41.33458151482046,268.03096243637265 41.057738991919905,267.35481156178867 25.139293930958956,246.44999060494592 15.17296311026439,235.85634980464238 14.757699326146394,236.4198474730947 24.44718762417324,246.44999060494592 40.68861562828533,268.1436541523144 41.19616025337018,267.6365412136074 25.69297897676006,247.069823743921 15.311384371714666,236.02539917759714 14.711558905662969,236.36349773721304 24.53946846514009,246.56268760137027 40.68861562828533,268.20000000001164 41.38072193530388,268.03096243637265 40.68861562828533,266.8476977546816 24.72403014684096,245.94285377961933 15.17296311026439,235.85634980464238 14.665418485179543,236.30714799443376 24.170345101272687,246.28094505850459 40.68861562828533,268.20000000001164 41.150019832886755,267.52384937371244 25.09315351047553,246.44999060494592 15.126822689780965,235.85634980464238 14.711558905662969,236.36349773721304 24.44718762417324,246.56268760137027 40.59633478731848,268.1436541523144 41.19616025337018,267.7492330259993 25.277715192409232,246.61903608922148 15.17296311026439,235.9126996025734 14.619278064696118,236.2507982449024 24.493328044423833,246.67538457014598 40.50405394635163,267.9746165681572 41.28844109433703,267.7492330259993 35.52088853600435,260.2551674506394" stroke="#4DD2FF" stroke-linecap="round" stroke-linejoin="round" stroke-width="0.5"><title>2024-11-26 10.9km</title><desc>1732619882000</desc></polyline><polyline fill="none" points="50.7346250587143,236.0793201699853 59.928902173181996,245.7995556363021 76.6249775304459,268.0882798121893 76.89943356369622,267.08279689209303 62.993661211337894,248.64855095368694 51.14630910847336,235.79999999998836 51.19205178064294,236.97314356509014 60.43207156751305,246.46990907509462 76.6249775304459,267.97655959712574 76.9451762358658,267.1945173260465 61.5756383726839,246.9168108207523 52.56433194712736,237.19659914067597 51.19205178064294,235.96759212235338 50.963338419795036,236.5820960450219 60.43207156751305,246.35818357032258 76.6249775304459,267.97655959712574 77.21963226911612,267.9206994793494 76.9451762358658,267.250377532735 61.438410356175154,246.80508542529424 51.329279797384515,235.79999999998836 51.14630910847336,236.97314356509014 60.52355691185221,246.58163455245085 76.6249775304459,268.0882798121893 76.99091890803538,267.250377532735 61.80435173376463,247.1402615295665 51.283537124982104,235.79999999998836 50.871853075223044,236.35864016893902 60.38632889534347,246.4140463260701 76.53349218587391,267.9206994793494 77.12814692477696,267.3620979254192 61.20969699509442,246.46990907509462 51.329279797384515,235.91172808845295 50.78036773088388,236.41450414829887 60.52355691185221,246.58163455245085 76.85369089152664,268.20000000001164 76.6249775304459,266.7476354269893 61.39266768400557,246.74922271742253 51.329279797384515,235.8558640475385 51.283537124982104,236.97314356509014 60.294843550771475,246.30232080764836 76.48774951370433,267.9206994793494 76.9451762358658,267.1945173260465 61.66712371725589,246.9726735081058 51.283537124982104,235.91172808845295 50.917595747392625,236.30277618273976 60.52355691185221,246.58163455245085 76.48774951370433,267.8089792232495 77.2653749412857,267.75311908480944 76.9451762358658,267.13865711260587 60.34058622317389,245.4643785477965 51.329279797384515,235.96759212235338 51.23779445281252,236.80555181196542 60.47781423991546,246.46990907509462 76.57923485804349,267.97655959712574 77.17388959717937,267.8089792232495 76.89943356369622,267.13865711260587 61.438410356175154,246.74922271742253 51.329279797384515,236.0793201699853" stroke="#4DD2FF" stroke-linecap="round" stroke-linejoin="round" stroke-width="0.5"><title>2024-11-16 14.9km</title><desc>1731755814000</desc></polyline><polyline fill="none" points="86.61967789498158,236.30539017761475 96.55146337510087,246.6938427546993 112.73659526836127,268.14384946553037 113.05845868657343,267.30159062327584 96.68940483988263,245.85154454910662 87.49330717348494,236.13692684698617 86.84958033682778,235.91230897631613 86.89556082501076,236.58616225799778 96.41352191008627,246.4692300510942 112.64463429152966,268.14384946553037 113.19640015158802,267.5823437424842 110.20766840991564,263.4271800429851 97.33313167677261,246.6938427546993 87.44732668506913,236.08077238954138 86.80359984841198,236.47385344657232 96.78136581694707,246.91845534849563 112.46071233833209,267.9753978206427 113.24238064000383,267.63849434576696 97.19519021175802,246.52538323725457 87.35536570870318,235.91230897631613 86.84958033682778,236.3615446073818 96.78136581694707,246.8623022104439 112.64463429152966,268.031548375875 113.15041966340505,267.30159062327584 97.79293655999936,247.19922093607602 87.30938522005454,235.96846345430822 86.84958033682778,236.53000785576296 96.50548288691789,246.52538323725457 112.64463429152966,268.20000000001164 113.38032210501842,267.7507955316396 97.79293655999936,247.19922093607602 89.51644866005518,238.21463693710393 87.12546326662414,235.96846345430822 86.89556082501076,236.41769903039676 96.55146337510087,246.58153641669196 112.55267331493087,268.031548375875 113.28836112841964,267.7507955316396 99.03440974513069,248.8838108551281 87.17144375503995,235.85615449163015 86.84958033682778,236.47385344657232 96.50548288691789,246.58153641669196 112.78257575654425,268.20000000001164 113.33434161660261,267.69464494203567 97.01126825832762,246.24461723744753 87.12546326662414,235.80000000001746 87.12546326662414,236.64231665345142 96.45950239826925,246.52538323725457 112.59865380334668,268.14384946553037 113.28836112841964,268.031548375875 112.96649770997465,267.30159062327584 96.96528776991181,246.30077045108192 86.89556082501076,236.3615446073818 96.82734630489722,247.08691472164355 112.64463429152966,268.14384946553037 113.05845868657343,267.41389189168694 105.83952201833017,257.9804895738489" stroke="#4DD2FF" stroke-linecap="round" stroke-linejoin="round" stroke-width="0.5"><title>2024-11-10 14.3km</title><desc>1731237417000</desc></polyline><polyline fill="none" points="122.7346323619131,236.35960497098858 133.64018503180705,248.05519216498942 148.5322212399915,267.9761736759974 149.21954598813318,267.9202170779463 148.34893464064226,266.52129990031244 134.23586647980846,247.77539692015853 123.42195711005479,236.13576306478353 122.87209731154144,236.47152588301105 132.44882213510573,246.54429580946453 148.66968618961982,268.20000000001164 149.3111892878078,267.9761736759974 148.34893464064226,266.5772566696396 132.8612169837579,246.09662185661728 123.330313810613,236.13576306478353 122.68881071219221,236.30364450480556 132.35717883519828,246.4883365892165 148.62386453989893,268.20000000001164 149.3111892878078,267.69639061702765 133.0903252332937,246.43237736233277 123.330313810613,236.07980257101008 122.68881071219221,236.35960497098858 132.08224893617444,246.20854038593825 148.76132948952727,268.088086851727 149.12790268845856,267.41660738689825 133.18196853273548,246.4883365892165 123.19284886075184,235.85596052798792 122.96374061144888,236.52748632870498 132.5404654345475,246.4883365892165 148.71550783957355,268.03213026718004 149.2653676380869,267.69639061702765 148.66968618961982,266.74512693626457 133.68600668152794,247.0479284825269 123.330313810613,235.91192104911897 122.78045401186682,236.13576306478353 134.60243967873976,249.11841253421153 148.62386453989893,267.9761736759974 149.17372433841228,267.7523472424364 148.1198263913393,266.07364549997146 133.86929328111,247.32772417229717 123.28449216042645,235.80000000001746 122.82627566182055,236.52748632870498 133.31943348236382,247.495601504168 148.5322212399915,267.9761736759974 149.2653676380869,267.86426047288114 148.5780428899452,266.74512693626457 134.23586647980846,247.6075196910242 123.37613546010107,236.07980257101008 122.87209731154144,236.30364450480556 132.7237520343624,246.76813262153883 148.66968618961982,267.86426047288114 148.99043773883022,267.1927806795575 135.42722937674262,249.34224808670115" stroke="#4DD2FF" stroke-linecap="round" stroke-linejoin="round" stroke-width="0.5"><title>2024-10-26 12.9km</title><desc>1729940418000</desc></polyline><polyline fill="none" points="162.10477451386396,236.0462678404001 168.2694855883019,242.44915765646147 177.66058750532102,254.9027218062838 179.53304647642653,256.3802275250782 181.77999724203255,259.475929177308 178.1791146050673,268.1648228265112 181.86641842511017,259.5111074137385 168.38471383275464,242.06217385880882 162.27761688048486,235.87036226163036 168.35590677161235,242.55469860180165 178.46718521602452,255.95808380865492 179.56185353756882,256.45058475088445 181.77999724203255,259.6166420969821 178.150307543925,268.20000000001164 181.89522548625246,259.65182031618315 168.64397738256957,242.2380756495404 162.2200027584331,235.97590562188998 168.2982926494442,242.55469860180165 178.35195697145537,255.8525477827352 179.4754323543748,256.3450489057577 181.72238311963156,259.4407509366865 178.12150048278272,268.12964564861613 181.808804302942,259.475929177308 169.01846917672083,242.73060009122128 162.27761688048486,235.79999999998836 168.55755619925912,242.8713212053699 177.8334298718255,255.2193308135902 179.5906605985947,256.41540614012047 181.72238311963156,259.4055726916704 178.150307543925,268.12964564861613 181.86641842511017,259.6166420969821 168.2982926494442,241.95663273264654 162.65210867475253,235.9407245060429 162.2200027584331,235.87036226163036 162.42165218596347,236.3277165426116 167.6357302442193,241.8159111709101 167.6357302442193,241.1474828120554 164.66860295145307,238.15712639156845" stroke="#4DD2FF" stroke-linecap="round" stroke-linejoin="round" stroke-width="0.5"><title>2024-10-19 10.6km</title><desc>1729335763000</desc></polyline></svg>