<?xml version="1.0" encoding="utf-8" ?>
<svg baseProfile="full" height="200mm" version="1.1" viewBox="0,0,200,200" width="200mm" xmlns="http://www.w3.org/2000/svg" xmlns:ev="http://www.w3.org/2001/xml-events" xmlns:xlink="http://www.w3.org/1999/xlink"><defs /><rect fill="#1a1a1a" height="200" width="200" x="0" y="0" /><text alignment-baseline="middle" fill="#e1ed5e" style="dominant-baseline: central; font-size:9.0px; font-family:Arial;" text-anchor="middle" x="100.0" y="100.0">2025</text><line stroke="#e1ed5e" stroke-width="0.3" x1="100.0" x2="100.0" y1="15.0" y2="10.0" /><path d="M 100.0 14.0 a86.0,86.0 0 0,1 42.46469731375804,11.215312516191453" fill="none" id="id13" stroke="none" /><text fill="#e1ed5e" style="font-size:6.75px; font-family:Arial;" text-anchor="middle"><textPath startOffset="22.20632615414155" xlink:href="#id13">January</textPath></text><path d="M 100.0 79.0 l 0.0 -63.0 a84.0,84.0 0 0,0 1.4459219170901134,0.012445506434235476 l -1.084441437817585 62.990665870174325" fill="#4dd2ff" stroke="none" /><path d="M 102.16513564639614 79.11191278185805 l 2.623393913521824 -25.309121377405297 a46.444720877261304,46.444720877261304 0 0,0 0.7944995326337744,0.08927127973974917 l -3.0586601496653234 25.260214144194947" fill="#ffbb11" stroke="none" /><path d="M 102.52436894288641 79.15227682838746 l 3.5768829474869466 -29.540002746668613 a50.75577009410464,50.75577009410464 0 0,0 0.8664379058084976,0.11248850710834253 l -4.08483558180329 29.474055916396132" fill="#feff18" stroke="none" /><path d="M 102.88285421437855 79.19881850522331 l 2.4987701979687618 -18.029830347453668 a39.20216017016162,39.20216017016162 0 0,0 0.6676146910025733,0.09838905113203263 l -2.808753869399991 17.984146812160667" fill="#ff3d05" stroke="none" /><path d="M 103.59715602781102 79.31037775812273 l 4.094696628153863 -23.55130713725119 a44.90461479191316,44.90461479191316 0 0,0 0.7603952430951983,0.13895737035157063 l -4.4994869923519625 23.47733428554888" fill="#ffa10e" stroke="none" /><path d="M 103.95276090670814 79.375362276772 l 4.47861928366674 -23.36845116767141 a44.793750033651165,44.793750033651165 0 0,0 0.756019507517098,0.15165040094566734 l -4.8802052006509635 23.287896810648533" fill="#ff9f0e" stroke="none" /><path d="M 104.66035177308747 79.52364482259891 l 6.995845506463895 -30.73789798096671 a52.523962736918534,52.523962736918534 0 0,0 0.8798421884624288,0.2082302194480551 l -7.523911381888847 30.612921849377784" fill="#e3ff1b" stroke="none" /><path d="M 105.01212808612495 79.60689891045804 l 4.253197497836174 -17.305201510566047 a38.820204495933744,38.820204495933744 0 0,0 0.6475415511597723,0.16507275950470138 l -4.550447937680971 17.22942575489248" fill="#ff3605" stroke="none" /><path d="M 105.36241919743992 79.69619591428918 l 8.032688522344397 -30.414282814197264 a52.45715632410181,52.45715632410181 0 0,0 0.8710438635969555,0.23808919179361956 l -8.555030275165064 30.27150708157735" fill="#e4ff1b" stroke="none" /><path d="M 106.0581310904928 79.89281104454417 l 12.021986695421415 -39.90147365483161 a62.673201987993565,62.673201987993565 0 0,0 1.0302717173957654,0.3201104377006063 l -12.707043785527897 39.68862308224849" fill="#53ff2b" stroke="none" /><path d="M 106.40334571778207 80.00007090966166 l 4.858933687230202 -15.1761803098334 a36.93504582276046,36.93504582276046 0 0,0 0.6038302710579575,0.19907334671393861 l -5.119446780530577 15.090293238860225" fill="#ff1402" stroke="none" /><path d="M 107.08798089147638 80.2323363322302 l 6.399125103094235 -17.8465143660399 a39.959084289657014,39.959084289657014 0 0,0 0.6454679827140491,0.2377313053619703 l -6.705375411580861 17.733719792871607" fill="#ff4b07" stroke="none" /><path d="M 107.4271985657038 80.35727306442388 l 10.524204523859895 -27.83338480149353 a50.756615909206545,50.756615909206545 0 0,0 0.8145635261451589,0.31603799314066205 l -11.001751215004722 27.64810410446232" fill="#feff18" stroke="none" /><path d="M 107.76421540070413 80.48803036053334 l 12.636718369609964 -31.756881081372253 a55.1787382325512,55.1787382325512 0 0,0 0.8794863686759445,0.3587645723705139 l -13.181488607874297 31.53465562281816" fill="#bbff1f" stroke="none" /><line stroke="#e1ed5e" stroke-width="0.3" x1="143.23703022742887" x2="145.7803849466894" y1="26.81831364943548" y2="22.513508569990506" /><path d="M 143.74570117128098 25.957352633546492 a86.0,86.0 0 0,1 28.547481713284135,27.462654790039103" fill="none" id="id14" stroke="none" /><text fill="#e1ed5e" style="font-size:6.75px; font-family:Arial;" text-anchor="middle"><textPath startOffset="19.985693538727396" xlink:href="#id14">February</textPath></text><path d="M 111.2981086023043 82.29822771554956 l 16.034989611760842 -25.12347373196846 a50.80452690800824,50.80452690800824 0 0,0 0.7331165186931574,0.47683937672069676 l -16.46507315623828 24.843735431088234" fill="#fdff18" stroke="none" /><path d="M 111.60114157652 82.49532879139004 l 19.747954725729105 -29.797192994872262 a56.74708975879171,56.74708975879171 0 0,0 0.8095791284678382,0.5466314414248427 l -20.257938548603487 29.45284964114875" fill="#a4ff21" stroke="none" /><path d="M 111.90073688211348 82.69761687909136 l 25.304615761089725 -36.790171983703466 a65.65243927723176,65.65243927723176 0 0,0 0.9256020419220744,0.6484433816961046 l -25.93414894259545 36.349143759243425" fill="#30ff32" stroke="none" /><path d="M 112.19680574252982 82.90503203632743 l 8.883875206909439 -12.451584887165845 a36.29592118488576,36.29592118488576 0 0,0 0.5054720070368374,0.3672469098284852 l -9.096892530300064 12.296818742520685" fill="#ff0801" stroke="none" /><path d="M 113.06298171725822 83.55741782278167 l 18.531880412114766 -23.326371663829853 a50.791780856606195,50.791780856606195 0 0,0 0.679876046649959,0.5497458141810996 l -18.930659857329214 23.003919752384625" fill="#fdff18" stroke="none" /><path d="M 113.6212207817346 84.01681056812373 l 19.30934512124653 -22.657654979956718 a50.76944974637866,50.76944974637866 0 0,0 0.6602595983346419,0.5725706173696791 l -19.696498518227934 22.321919369167368" fill="#feff18" stroke="none" /><path d="M 113.89432698308785 84.25364557470407 l 19.718435131043236 -22.346779996148484 a50.80260492328518,50.80260492328518 0 0,0 0.6507305964697893,0.5842323545750068 l -20.100176715109015 22.004048632804178" fill="#fdff18" stroke="none" /><path d="M 114.16331599549186 84.49514656593476 l 20.099140255692156 -22.002914000818713 a50.801068161148336,50.801068161148336 0 0,0 0.6405582068510809,0.5953290427127715 l -20.474906346338084 21.653680372031303" fill="#fdff18" stroke="none" /><path d="M 114.68862486808459 84.99185889309783 l 20.828924271003093 -21.28200817786681 a50.77864937115133,50.77864937115133 0 0,0 0.619412956416432,0.6167530003327905 l -21.192173027586847 20.920319326883902" fill="#fdff18" stroke="none" /><path d="M 115.4437574822437 85.77008943001954 l 21.89650194207473 -20.1754828635045 a50.77426583603442,50.77426583603442 0 0,0 0.5866999284840815,0.6478487147238278 l -22.240545511174847 19.795581361511122" fill="#feff18" stroke="none" /><path d="M 115.68641384162765 86.03803664274999 l 22.258175838942453 -19.811273539006425 a50.797868227687324,50.797868227687324 0 0,0 0.5757288548138045,0.6581576058479169 l -22.595896557334104 19.42520037695556" fill="#fdff18" stroke="none" /><path d="M 115.9244219780498 86.31012108654704 l 22.615339689460484 -19.441915214384213 a50.82350845344979,50.82350845344979 0 0,0 0.5645992908351245,0.6683074765652194 l -22.946649593782727 19.049748788189888" fill="#fdff18" stroke="none" /><path d="M 116.38621287248628 86.86637796730983 l 27.849793519855268 -22.321732582419756 a56.69132590111542,56.69132590111542 0 0,0 0.6037516049286751,0.7667032263239952 l -28.229899205377908 21.83903696214272" fill="#a5ff21" stroke="none" /><path d="M 117.04232023915458 87.72973835380427 l 24.251661204394768 -17.46089876008456 a50.88354156860711,50.88354156860711 0 0,0 0.5056549040501352,0.7152130019199257 l -24.548628728248787 17.040859257832842" fill="#fcff18" stroke="none" /><path d="M 117.2510076193507 88.02491185347247 l 24.522480658536857 -17.022708118689486 a50.851710995224565,50.851710995224565 0 0,0 0.4929602017862851,0.7233582680274042 l -24.811865325991874 16.598071827391678" fill="#fcff18" stroke="none" /><path d="M 117.45458315368197 88.32363383020206 l 24.732170482179296 -16.54475940107892 a50.75582834335435,50.75582834335435 0 0,0 0.47952986278652876,0.730356879676746 l -25.013296980323748 16.1165844574245" fill="#feff18" stroke="none" /><line stroke="#e1ed5e" stroke-width="0.3" x1="172.23445277983987" x2="176.4835382374775" y1="55.19839476539836" y2="52.563006222186495" /><path d="M 173.08426987136738 54.67131705675599 a86.0,86.0 0 0,1 12.851231095245387,41.99856678651699" fill="none" id="id15" stroke="none" /><text fill="#e1ed5e" style="font-size:6.75px; font-family:Arial;" text-anchor="middle"><textPath startOffset="22.20632615414155" xlink:href="#id15">March</textPath></text><path d="M 117.84615892207809 88.93136811851018 l 37.990357038661415 -23.56256486022281 a65.7041574209511,65.7041574209511 0 0,0 0.5878463412529369,0.9662648212316569 l -38.39031917820058 22.905132265784072" fill="#30ff33" stroke="none" /><path d="M 118.3937258080291 89.86733742301442 l 26.087657104482663 -14.371064874112506 a50.78411252357564,50.78411252357564 0 0,0 0.4152009908893365,0.769304378015888 l -26.331166194590462 13.91987951276416" fill="#fdff18" stroke="none" /><path d="M 118.56541770881063 90.18545643968196 l 26.338314031776633 -13.923658192055195 a50.79219769479364,50.79219769479364 0 0,0 0.40196114885434225,0.7764609979225711 l -26.57408461379109 13.46822447187228" fill="#fdff18" stroke="none" /><path d="M 118.73160827565052 90.50648371742162 l 26.57452419363171 -13.468447258848869 a50.79269050761127,50.79269050761127 0 0,0 0.38853986405734403,0.7832726569157293 l -26.802424070642463 13.00901501343419" fill="#fdff18" stroke="none" /><path d="M 119.34039704204932 91.81776055985345 l 17.52396686727111 -7.41377193743556 a40.02770162435607,40.02770162435607 0 0,0 0.2629978451405365,0.6368701428097614 l -17.648986399297844 7.111027224172495" fill="#ff4c07" stroke="none" /><path d="M 119.7369772167798 92.82701384747503 l 28.010053928532773 -10.179660580954131 a50.802493362514916,50.802493362514916 0 0,0 0.2916230505729177,0.824457634351964 l -28.1811300599155 9.696005320175553" fill="#fdff18" stroke="none" /><path d="M 120.18372546131832 94.20196356495316 l 28.653772948843972 -8.23116722813895 a50.812594958196634,50.812594958196634 0 0,0 0.23425387684792154,0.8427358318043353 l -28.79121359625826 7.736720092915664" fill="#fdff18" stroke="none" /><path d="M 120.37134235888165 94.90015583598534 l 28.876213783755706 -7.228988043574876 a50.767330928709605,50.767330928709605 0 0,0 0.20492402290757172,0.8495423732182263 l -28.996370606924096 6.730860438697244" fill="#feff18" stroke="none" /><path d="M 120.73433829027371 96.67025291283417 l 29.4270948860292 -4.725725128468265 a50.80413379753222,50.80413379753222 0 0,0 0.13122975463987635,0.864640119685211 l -29.504080534108372 4.218485896390972" fill="#fdff18" stroke="none" /><path d="M 120.83666639777658 97.38593545837742 l 29.607283785953754 -3.7143825812212166 a50.83936814246709,50.83936814246709 0 0,0 0.10145999868435158,0.8692473081505147 l -29.666834137641697 3.204191534745849" fill="#fcff18" stroke="none" /><path d="M 120.94382443527127 98.46500227214037 l 29.756036936019434 -2.1808552314817744 a50.83584863345493,50.83584863345493 0 0,0 0.05645056885338859,0.8732653145487425 l -29.78916809587724 1.6683308526799967" fill="#fdff18" stroke="none" /><line stroke="#e1ed5e" stroke-width="0.3" x1="184.98032266829074" x2="189.97916517819016" y1="98.17113171792111" y2="98.06355123074" /><path d="M 185.9800911702706 98.14961562048488 a86.0,86.0 0 0,1 -9.607161424134198,41.387399972396054" fill="none" id="id16" stroke="none" /><text fill="#e1ed5e" style="font-size:6.75px; font-family:Arial;" text-anchor="middle"><textPath startOffset="21.466115282336823" xlink:href="#id16">April</textPath></text><path d="M 120.76222939487914 103.15116336523771 l 29.503965082683784 4.477930193793946 a50.841846699236214,50.841846699236214 0 0,0 -0.13876978370631135,0.8641195756053036 l -29.422513544616184 -4.9851289990924545" fill="#fcff18" stroke="none" /><path d="M 120.5718875245553 104.21870165774334 l 29.19905130398438 5.9878844852528665 a50.80669987874276,50.80669987874276 0 0,0 -0.1830637040744663,0.8552126803907508 l -29.09165356118547 -6.489610985059786" fill="#fdff18" stroke="none" /><path d="M 118.64920377521936 109.65438752849418 l 19.065545833066732 9.869920996802914 a42.46882340501918,42.46882340501918 0 0,0 -0.34166672347228316,0.6463046803429847 l -18.892826601369556 -10.196640692232034" fill="#ff770b" stroke="none" /><line stroke="#e1ed5e" stroke-width="0.3" x1="174.80103733775053" x2="179.2010983576182" y1="140.37084112569926" y2="142.7455964860345" /><path d="M 175.68104954172406 140.8457921977663 a86.0,86.0 0 0,1 -30.038265399797805,32.042727171017184" fill="none" id="id17" stroke="none" /><text fill="#e1ed5e" style="font-size:6.75px; font-family:Arial;" text-anchor="middle"><textPath startOffset="22.206326154141568" xlink:href="#id17">May</textPath></text><path d="M 118.30583269289576 110.29060199501025 l 25.970513460722994 14.599293138632984 a50.792732831368966,50.792732831368966 0 0,0 -0.434998648080343,0.7584568090732428 l -25.715362816490273 -15.044169793564542" fill="#fdff18" stroke="none" /><path d="M 118.12598468904814 110.60418214915192 l 25.742753348732236 15.060193981934926 a50.82446634471728,50.82446634471728 0 0,0 -0.4482696737844504,0.7513257576862001 l -25.47970279924956 -15.50108183350723" fill="#fdff18" stroke="none" /><path d="M 117.75023020441432 111.22182372390056 l 25.199862979324035 15.931535363980498 a50.81353573849414,50.81353573849414 0 0,0 -0.4737639605815998,0.7352921877403653 l -24.921894155365386 -16.362949151642315" fill="#fdff18" stroke="none" /><path d="M 117.35343817320211 111.8261652097733 l 24.596933483089177 16.762522568813907 a50.76560598478568,50.76560598478568 0 0,0 -0.49832266500324524,0.7178709655977639 l -24.304749910923796 -17.183434796598693" fill="#feff18" stroke="none" /><path d="M 116.93607887273984 112.41649034213515 l 20.60328315626323 15.105058747558406 a46.54717355372901,46.54717355372901 0 0,0 -0.4793000880086701,0.6421007939885678 l -20.34022180155947 -15.45747242105629" fill="#ffbd11" stroke="none" /><path d="M 115.07121518719521 114.62390073753431 l 10.684704366087729 10.36758178546354 a35.8879031253219,35.8879031253219 0 0,0 -0.4340033069416305,0.4396430585757177 l -10.504660434090562 -10.549965338019923" fill="#ff0000" stroke="none" /><path d="M 113.48314897796784 116.09983520530334 l 9.656375856119526 11.530396958309508 a36.03980214932501,36.03980214932501 0 0,0 -0.479037397200755,0.3942151651962623 l -9.45646833037408 -11.694907242362948" fill="#ff0300" stroke="none" /><path d="M 113.20401910651253 116.32954008644616 l 11.98584605465058 14.823013511306863 a40.06258731657822,40.06258731657822 0 0,0 -0.5399721505863975,0.4289865335574679 l -11.72891641134683 -15.027133958869458" fill="#ff4d07" stroke="none" /><path d="M 112.34349029814194 116.9893568818739 l 12.630040560641842 17.38375948248503 a42.48750842485806,42.48750842485806 0 0,0 -0.5953767922488576,0.424785533035287 l -12.3289364405441 -17.598589277364535" fill="#ff780b" stroke="none" /><path d="M 111.7513745106137 117.40417183066458 l 13.332451418297714 19.745798689205674 a44.82542395626792,44.82542395626792 0 0,0 -0.6431921132252981,0.4262726604517774 l -12.990584606332451 -19.972369370748773" fill="#ffa00e" stroke="none" /><path d="M 111.1453310114006 117.79835938074945 l 15.873225147028114 25.34849484590165 a50.9082842624071,50.9082842624071 0 0,0 -0.7467052594561948,0.4586873579250856 l -15.434540687639611 -25.617970670655115" fill="#fbff18" stroke="none" /><line stroke="#e1ed5e" stroke-width="0.3" x1="143.8653032363475" x2="146.44561519142675" y1="172.8068346515853" y2="177.08958963109032" /><path d="M 144.38136562736335 173.6633856474863 a86.0,86.0 0 0,1 -40.68145358897372,12.25698825130547" fill="none" id="id18" stroke="none" /><text fill="#e1ed5e" style="font-size:6.75px; font-family:Arial;" text-anchor="middle"><textPath startOffset="21.466115282336833" xlink:href="#id18">June</textPath></text><path d="M 110.8373102113329 117.98757091392108 l 9.27585320315677 15.395892894569362 a38.97428637436171,38.97428637436171 0 0,0 -0.5776214344496244,0.3412689248738046 l -9.009463897678762 -15.553280391736916" fill="#ff3905" stroke="none" /><path d="M 110.21172684928248 118.3499491758327 l 14.545208564242062 26.13699346300884 a50.911628499007996,50.911628499007996 0 0,0 -0.7694375950572918,0.4195587259946199 l -14.09314815731612 -26.38349284076323" fill="#fbff18" stroke="none" /><line stroke="#e1ed5e" stroke-width="0.3" x1="102.19456741930631" x2="102.32365962044197" y1="184.97166512339345" y2="189.96999836594603" /><path d="M 102.22038585953345 185.97133177190398 a86.0,86.0 0 0,1 -42.740103519485714,-10.115201625700543" fill="none" id="id19" stroke="none" /><text fill="#e1ed5e" style="font-size:6.75px; font-family:Arial;" text-anchor="middle"><textPath startOffset="22.20632615414155" xlink:href="#id19">July</textPath></text><line stroke="#e1ed5e" stroke-width="0.3" x1="58.666819895761336" x2="56.23545636021788" y1="174.27360380694188" y2="178.64263932499728" /><path d="M 58.180547188652646 175.14741091055294 a86.0,86.0 0 0,1 -31.652253787137756,-30.449443065178592" fill="none" id="id20" stroke="none" /><text fill="#e1ed5e" style="font-size:6.75px; font-family:Arial;" text-anchor="middle"><textPath startOffset="22.20632615414155" xlink:href="#id20">August</textPath></text><line stroke="#e1ed5e" stroke-width="0.3" x1="26.63291911575756" x2="22.317208475507996" y1="142.92168965132927" y2="145.44649492493687" /><path d="M 25.769776987707644 143.4266507060508 a86.0,86.0 0 0,1 -11.730757126820373,-40.83630448921669" fill="none" id="id21" stroke="none" /><text fill="#e1ed5e" style="font-size:6.75px; font-family:Arial;" text-anchor="middle"><textPath startOffset="21.46611528233685" xlink:href="#id21">September</textPath></text><line stroke="#e1ed5e" stroke-width="0.3" x1="15.007084014347285" x2="10.007500721073583" y1="101.09737516637583" y2="101.16192664675087" /><path d="M 14.007167355692545 101.11028546245083 a86.0,86.0 0 0,1 10.666146001902534,-42.60595125391555" fill="none" id="id22" stroke="none" /><text fill="#e1ed5e" style="font-size:6.75px; font-family:Arial;" text-anchor="middle"><textPath startOffset="22.20632615414155" xlink:href="#id22">October</textPath></text><line stroke="#e1ed5e" stroke-width="0.3" x1="26.266209847984243" x2="21.928928074336255" y1="57.711370442889674" y2="55.22380399835377" /><path d="M 25.398753493254645 57.213857153982495 a86.0,86.0 0 0,1 29.58750427330803,-30.492523968695096" fill="none" id="id23" stroke="none" /><text fill="#e1ed5e" style="font-size:6.75px; font-family:Arial;" text-anchor="middle"><textPath startOffset="21.46611528233685" xlink:href="#id23">November</textPath></text><line stroke="#e1ed5e" stroke-width="0.3" x1="56.762969772571076" x2="54.21961505331055" y1="26.818313649435495" y2="22.513508569990535" /><path d="M 56.25429882871897 25.957352633546506 a86.0,86.0 0 0,1 42.265352541879196,-11.944610805530505" fill="none" id="id24" stroke="none" /><text fill="#e1ed5e" style="font-size:6.75px; font-family:Arial;" text-anchor="middle"><textPath startOffset="22.20632615414155" xlink:href="#id24">December</textPath></text></svg>