<?xml version="1.0" encoding="utf-8" ?>
<svg baseProfile="full" height="200mm" version="1.1" viewBox="0,0,200,200" width="200mm" xmlns="http://www.w3.org/2000/svg" xmlns:ev="http://www.w3.org/2001/xml-events" xmlns:xlink="http://www.w3.org/1999/xlink"><defs /><rect fill="#1a1a1a" height="200" width="200" x="0" y="0" /><rect fill="#1a1a1a" height="200" width="180" x="10" y="0" /><text alignment-baseline="middle" fill="#e1ed5e" style="dominant-baseline: central; font-size:9.0px; font-family:Arial;" text-anchor="middle" x="100.0" y="100.0">2024</text><line stroke="#e1ed5e" stroke-width="0.3" x1="100.0" x2="100.0" y1="15.0" y2="10.0" /><path d="M 100.0 14.0 a86.0,86.0 0 0,1 42.35913384403234,11.155469271406648" fill="none" id="id1" stroke="none" /><text fill="#e1ed5e" style="font-size:6.75px; font-family:Arial;" text-anchor="middle"><textPath startOffset="22.145653131862478" xlink:href="#id1">January</textPath></text><line stroke="#e1ed5e" stroke-width="0.3" x1="143.13028292997686" x2="145.6673583964461" y1="26.7553504044142" y2="22.446841604673864" /><path d="M 143.63769802327073 25.89364864446614 a86.0,86.0 0 0,1 29.32050498858742,28.57503671076993" fill="none" id="id2" stroke="none" /><text fill="#e1ed5e" style="font-size:6.75px; font-family:Arial;" text-anchor="middle"><textPath startOffset="20.669276256404974" xlink:href="#id2">February</textPath></text><line stroke="#e1ed5e" stroke-width="0.3" x1="172.87174338648825" x2="177.1583165268699" y1="56.24261187166439" y2="53.66864786411523" /><path d="M 173.72905801456457 55.72781907015455 a86.0,86.0 0 0,1 12.242430191666344,42.057860355516425" fill="none" id="id3" stroke="none" /><text fill="#e1ed5e" style="font-size:6.75px; font-family:Arial;" text-anchor="middle"><textPath startOffset="22.145653131862474" xlink:href="#id3">March</textPath></text><line stroke="#e1ed5e" stroke-width="0.3" x1="184.99686870605535" x2="189.99668451229388" y1="99.2704041080226" y2="99.22748670261217" /><path d="M 185.99683186730306 99.26182062694052 a86.0,86.0 0 0,1 -10.086455211305974,41.156179273409016" fill="none" id="id4" stroke="none" /><text fill="#e1ed5e" style="font-size:6.75px; font-family:Arial;" text-anchor="middle"><textPath startOffset="21.40746469413373" xlink:href="#id4">April</textPath></text><line stroke="#e1ed5e" stroke-width="0.3" x1="174.33088141563837" x2="178.70328620479359" y1="141.23008692659167" y2="143.65538615756765" /><path d="M 175.20536237346943 141.71514677278685 a86.0,86.0 0 0,1 -30.301960400862466,31.631185727798858" fill="none" id="id5" stroke="none" /><text fill="#e1ed5e" style="font-size:6.75px; font-family:Arial;" text-anchor="middle"><textPath startOffset="22.145653131862474" xlink:href="#id5">May</textPath></text><line stroke="#e1ed5e" stroke-width="0.3" x1="143.1302829299769" x2="145.66735839644613" y1="173.24464959558577" y2="177.55315839532614" /><path d="M 143.63769802327073 174.10635135553383 a86.0,86.0 0 0,1 -40.68552437913181,11.842963189579606" fill="none" id="id6" stroke="none" /><text fill="#e1ed5e" style="font-size:6.75px; font-family:Arial;" text-anchor="middle"><textPath startOffset="21.407464694133747" xlink:href="#id6">June</textPath></text><line stroke="#e1ed5e" stroke-width="0.3" x1="101.45913802915013" x2="101.54496967792366" y1="184.9874750549273" y2="189.98673829345242" /><path d="M 101.47630435890484 185.9873277026323 a86.0,86.0 0 0,1 -42.54439059252881,-10.42667462771756" fill="none" id="id7" stroke="none" /><text fill="#e1ed5e" style="font-size:6.75px; font-family:Arial;" text-anchor="middle"><textPath startOffset="22.145653131862474" xlink:href="#id7">July</textPath></text><line stroke="#e1ed5e" stroke-width="0.3" x1="58.13341422392154" x2="55.67067388415222" y1="173.97424548756322" y2="178.32567169271397" /><path d="M 57.64086615596768 174.84453072859336 a86.0,86.0 0 0,1 -31.369924170532247,-30.572349798747897" fill="none" id="id8" stroke="none" /><text fill="#e1ed5e" style="font-size:6.75px; font-family:Arial;" text-anchor="middle"><textPath startOffset="22.145653131862474" xlink:href="#id8">August</textPath></text><path d="M 86.68645165197938 116.24036423190432 l -9.412817968807467 11.482107419152058 a35.847219702653135,35.847219702653135 0 0,0 -0.4725443077443749,-0.394213268141052 l 9.608536610713735 -11.318831967099134" fill="red" stroke="none" /><path d="M 86.13680546590413 115.77377054828092 l -12.188160408704592 13.867889195359009 a39.462654329295916,39.462654329295916 0 0,0 -0.5049997786981868,-0.4515739160950812 l 12.42442521422615 -13.656619749380544" fill="red" stroke="none" /><path d="M 85.34317274990678 115.03919595460226 l -14.30703014389373 14.680273308198464 a41.49881791571622,41.49881791571622 0 0,0 -0.5059063186418485,-0.5015823589947531 l 14.556928382665541 -14.432510938975051" fill="red" stroke="none" /><path d="M 84.83555147118756 114.52719865689866 l -14.917065598087435 14.290211405292396 a41.657419685565586,41.657419685565586 0 0,0 -0.49025658366133856,-0.5206355025311047 l 15.160178015485027 -14.032034442816801" fill="red" stroke="none" /><path d="M 84.3458050057657 113.99807769240083 l -16.61468335360108 14.856952306011728 a43.288488839836944,43.288488839836944 0 0,0 -0.4905800667539588,-0.5581900614252572 l 16.86727448431363 -14.56954996677517" fill="red" stroke="none" /><path d="M 84.1078160697243 113.72728997021213 l -17.08344254350406 14.75627078776642 a43.57413424030018,43.57413424030018 0 0,0 -0.4840991623206154,-0.5702675959636544 l 17.33423626933179 -14.460836409353211" fill="red" stroke="none" /><path d="M 83.64595745247003 113.17365903436017 l -20.991582699001828 16.909333106143272 a47.9550012113438,47.9550012113438 0 0,0 -0.5109115995048659,-0.6455201158092488 l 21.278760729148253 -16.546493046419343" fill="red" stroke="none" /><path d="M 82.98947788004972 112.3143062007846 l -15.174165836749768 10.984925867505808 a39.732963063962465,39.732963063962465 0 0,0 -0.39521981308231013,-0.5559261618334426 l 15.360500748362039 -10.722822478962861" fill="red" stroke="none" /><path d="M 82.78059297857968 112.02048342749411 l -15.343692931325435 10.711089317310458 a39.71246502025343,39.71246502025343 0 0,0 -0.3854194260709548,-0.5623384610366188 l 15.525302094211714 -10.446116121203788" fill="red" stroke="none" /><path d="M 82.18462484594161 111.11811171558189 l -15.950211466217604 9.95411162745933 a39.801425055271224,39.801425055271224 0 0,0 -0.3567572978918743,-0.5827362347545716 l 16.118736728564883 -9.678838276580203" fill="red" stroke="none" /><path d="M 81.99639281039703 110.81064883170644 l -16.019555200163303 9.619282618491827 a39.685736456064504,39.685736456064504 0 0,0 -0.3456935490797909,-0.5870632221660076 l 16.182322459372863 -9.34286822803226" fill="red" stroke="none" /><line stroke="#e1ed5e" stroke-width="0.3" x1="26.387840678322732" x2="22.057713659400548" y1="142.50000000000003" y2="145.00000000000006" /><path d="M 25.521815274538298 143.00000000000003 a86.0,86.0 0 0,1 -11.493303480769221,-40.785679425670985" fill="none" id="id9" stroke="none" /><text fill="#e1ed5e" style="font-size:6.75px; font-family:Arial;" text-anchor="middle"><textPath startOffset="21.40746469413373" xlink:href="#id9">September</textPath></text><path d="M 81.81346652052679 110.50000000000001 l -15.996949968144587 9.235843370321264 a39.47168674064251,39.47168674064251 0 0,0 -0.3337549805460081,-0.5897130708402314 l 16.153138313711974 -8.95987352938191" fill="red" stroke="none" /><path d="M 81.4637452351635 109.86951160357371 l -16.55259913913636 8.813326712735847 a39.75268690098464,39.75268690098464 0 0,0 -0.3155453401409224,-0.6050997959328647 l 16.70145254825223 -8.52788067369848" fill="red" stroke="none" /><path d="M 81.29705330413844 109.54985784667822 l -19.24279806091924 9.825509800269947 a42.60615467982487,42.60615467982487 0 0,0 -0.3270125575718253,-0.6542441721715793 l 19.408630531702805 -9.493733771934615" fill="red" stroke="none" /><path d="M 80.9802524753101 108.90220220490708 l -19.619997625639037 9.18314956055565 a42.66274550193523,42.66274550193523 0 0,0 -0.30476545701073154,-0.6659675249764329 l 19.774747547504827 -8.84499305336453" fill="red" stroke="none" /><path d="M 80.83023694016515 108.57439118712176 l -27.015883499081554 12.083861060973852 a50.59523034843397,50.59523034843397 0 0,0 -0.3478208092314619,-0.79588207964361 l 27.219338190329985 -11.618316911554393" fill="red" stroke="none" /><path d="M 80.41425534168474 107.57618678355246 l -19.58428906221614 7.575623727711555 a41.998439297631265,41.998439297631265 0 0,0 -0.2543291812543185,-0.6746383694015126 l 19.71144892728489 -7.238317078115897" fill="red" stroke="none" /><path d="M 80.28708602549918 107.23885506374661 l -22.905505645729818 8.41121894742436 a45.40104081935996,45.40104081935996 0 0,0 -0.2623744092221675,-0.7339079191474093 l 23.04652022499593 -8.016776071896029" fill="red" stroke="none" /><path d="M 80.05021161711548 106.5578916946017 l -23.284516821164313 7.654083168387396 a45.51027769617625,45.51027769617625 0 0,0 -0.23759677287030206,-0.7442685069605197 l 23.412478309811867 -7.253245627735485" fill="red" stroke="none" /><path d="M 79.94057633289273 106.21446072829308 l -23.885566518247124 7.399809564024458 a46.00554877385089,46.00554877385089 0 0,0 -0.2272316580512532,-0.7563802865611243 l 24.009074496302006 -6.9886916738726095" fill="red" stroke="none" /><path d="M 79.83685265289637 105.86919833188381 l -23.407488357181172 6.813578716384869 a45.37899436227723,45.37899436227723 0 0,0 -0.2112964998515631,-0.7498167364267063 l 23.52100334910731 -6.4107540560551675" fill="red" stroke="none" /><path d="M 79.64726062577567 105.17358676015961 l -23.30894044901872 5.925041513237961 a45.050214589260825,45.050214589260825 0 0,0 -0.18408906404172526,-0.7511462018373759 l 23.40721703957674 -5.524039486792485" fill="red" stroke="none" /><path d="M 79.56144815229197 104.8234425847677 l -18.446014131309322 4.353209109096525 a39.95272716207312,39.95272716207312 0 0,0 -0.15179969898492543,-0.6688574826517425 l 18.518024691851913 -4.035917292505756" fill="red" stroke="none" /><path d="M 79.22317932658666 103.0534771498775 l -30.36930615103754 4.463242179708946 a51.69552551839078,51.69552551839078 0 0,0 -0.12149798351869162,-0.8790988845884846 l 30.441448651111443 -3.941254986920375" fill="red" stroke="none" /><path d="M 79.17382384314188 102.69636545807758 l -23.45243642395866 3.0363874292160316 a44.648180116874194,44.648180116874194 0 0,0 -0.09188577128353206,-0.7609459989377255 l 23.501104281501853 -2.6333477533549066" fill="red" stroke="none" /><path d="M 79.13060592940153 102.33845913500099 l -24.819218711610684 2.781045224572202 a45.974543639391726,45.974543639391726 0 0,0 -0.08115077806949944,-0.7850601637710426 l 24.86330188216185 -2.354580538518228" fill="red" stroke="none" /><path d="M 79.06263194458094 101.62068470465958 l -27.44257826504121 2.1242291167090728 a48.52466986492639,48.52466986492639 0 0,0 -0.057157529439579365,-0.8310579336981118 l 27.474999755645857 -1.6528277588566176" fill="red" stroke="none" /><path d="M 79.03789590574601 101.26102812881392 l -25.02206535125395 1.5052653162618637 a46.0673009738736,46.0673009738736 0 0,0 -0.04071123257622742,-0.7897870358856236 l 25.04421817328675 -1.0755064869995095" fill="red" stroke="none" /><path d="M 79.00696218219943 100.54070618675478 l -24.01084090419954 0.6184340893758922 a45.01880391796569,45.01880391796569 0 0,0 -0.013266759399646309,-0.7727222243626305 l 24.017919095197854 -0.20616494904420923" fill="red" stroke="none" /><line stroke="#e1ed5e" stroke-width="0.3" x1="15.003131293944662" x2="10.003315487706104" y1="100.72959589197737" y2="100.7725132973878" /><path d="M 14.003168132696942 100.73817937305945 a86.0,86.0 0 0,1 10.791469493833604,-42.45332614584628" fill="none" id="id10" stroke="none" /><text fill="#e1ed5e" style="font-size:6.75px; font-family:Arial;" text-anchor="middle"><textPath startOffset="22.145653131862435" xlink:href="#id10">October</textPath></text><path d="M 79.00077361379809 100.18025310272382 l -27.667984819958047 0.23749637335164053 a48.66900411154663,48.66900411154663 0 0,0 0.0,-0.835498952150906 l 27.667984819958047 0.23749637335163035" fill="red" stroke="none" /><path d="M 79.00077361379809 99.81974689727619 l -30.682782061039138 -0.26337478176505325 a51.683912418088,51.683912418088 0 0,0 0.015230925107042468,-0.8871250298040576 l 30.67373970433343 0.7900467275381633" fill="red" stroke="none" /><path d="M 79.00696218219943 99.45929381324524 l -24.00369108027746 -0.618249935273822 a45.01165172285859,45.01165172285859 0 0,0 0.026525394231387146,-0.7722579113031786 l 23.989540999049222 1.0302141111411391" fill="red" stroke="none" /><path d="M 79.01933749520258 99.09900007780938 l -24.362107165753574 -1.0462137053929759 a45.38456127702555,45.38456127702555 0 0,0 0.04010787240535621,-0.7780820097596299 l 24.34055770389165 1.4642675085293178" fill="red" stroke="none" /><path d="M 79.03789590574601 98.7389718711861 l -36.86069849241469 -2.2174480881146326 a57.927336342771675,57.927336342771675 0 0,0 0.06823299244662924,-0.9920927350905708 l 36.817201538803 2.8498842473595287" fill="red" stroke="none" /><path d="M 79.06263194458094 98.37931529534042 l -27.598722129671646 -2.1363156393543004 a48.68128081758099,48.68128081758099 0 0,0 0.0716458110716799,-0.8326329264985289 l 27.557982695902226 2.6097696132285098" fill="red" stroke="none" /><path d="M 79.13060592940154 97.66154086499901 l -18.59385112618659 -2.083479801751265 a39.71021613416306,39.71021613416306 0 0,0 0.0817234616902946,-0.6767874973882828 l 18.555345578236626 2.402360976062984" fill="red" stroke="none" /><path d="M 79.17382384314186 97.30363454192245 l -24.33642822975131 -3.1508378666083687 a45.53955008233626,45.53955008233626 0 0,0 0.10702983381771568,-0.7744145606528992 l 24.278753879378385 3.568140735461335" fill="red" stroke="none" /><path d="M 79.22317932658666 96.9465228501225 l -22.84969288061608 -3.3581179810614947 a44.09513847356637,44.09513847356637 0 0,0 0.11649202316523495,-0.7479623544596926 l 22.788679365312575 3.7498685174526374" fill="red" stroke="none" /><path d="M 79.407916724674 95.88100663000787 l -32.590215780484684 -6.518955898322248 a54.235808258906886,54.235808258906886 0 0,0 0.19045107887154794,-0.9113773564670086 l 32.47350699078876 7.077449706074665" fill="red" stroke="none" /><path d="M 79.48165901384962 95.52812308129327 l -23.637277800549953 -5.151634680829526 a45.19215248185033,45.19215248185033 0 0,0 0.17170680528007698,-0.7565718660957912 l 23.54536013371221 5.556640880864325" fill="red" stroke="none" /><path d="M 79.56144815229197 95.17655741523228 l -21.487171556386254 -5.070913980772342 a43.07742535020709,43.07742535020709 0 0,0 0.1760276390767043,-0.7182528370120776 l 21.39695639079325 5.439022642392537" fill="red" stroke="none" /><path d="M 79.64726062577567 94.8264132398404 l -21.713494425436963 -5.519485372986613 a43.404029971103306,43.404029971103306 0 0,0 0.18975935841972594,-0.7205471922245036 l 21.615545586212512 5.8914130695839" fill="red" stroke="none" /><path d="M 79.94057633289273 93.78553927170692 l -37.53550305117715 -11.628594794114727 a60.29552399689615,60.29552399689615 0 0,0 0.3147865195599486,-0.9860642890637108 l 37.33035181583995 12.27122811686983" fill="red" stroke="none" /><path d="M 80.05021161711548 93.44210830539832 l -26.157475193740925 -8.598481649657513 a48.534476482959846,48.534476482959846 0 0,0 0.26697331381595585,-0.7892591642478081 l 26.006016458352605 9.046242488379482" fill="red" stroke="none" /><path d="M 80.16572619554312 93.10060997987247 l -25.181815926031675 -8.759542759246923 a47.661834945922564,47.661834945922564 0 0,0 0.2754396278300384,-0.7704536608991869 l 25.02773612815769 9.19053137652703" fill="red" stroke="none" /><path d="M 80.28708602549916 92.7611449362534 l -25.64772795981459 -9.418200964893137 a48.32230698377736,48.32230698377736 0 0,0 0.29262451122075583,-0.7762212818963856 l 25.4822727647794 9.857090526983667" fill="red" stroke="none" /><path d="M 80.41425534168474 92.42381321644754 l -23.030579017001326 -8.908722716962796 a45.69358034603469,45.69358034603469 0 0,0 0.2892650055592089,-0.7291367758964595 l 22.874255336475986 9.302760510072838" fill="red" stroke="none" /><path d="M 80.5471966667186 92.08871423366112 l -17.108375607855802 -6.957827420176635 a39.469106051686346,39.469106051686346 0 0,0 0.26063547374370327,-0.6254302559722044 l 16.98641428957562 7.250490185590103" fill="red" stroke="none" /><path d="M 80.83023694016515 91.42560881287825 l -43.828215071527765 -19.603803129104584 a69.01272262099687,69.01272262099687 0 0,0 0.4929990721809079,-1.0772919448821694 l 43.48523153449181 20.353284056201424" fill="red" stroke="none" /><path d="M 81.1358732173502 90.77261029715801 l -26.52418234221121 -12.974306727302618 a50.52735822888663,50.52735822888663 0 0,0 0.3878097135482499,-0.7758792105246343 l 26.297552715451214 13.427717793991022" fill="red" stroke="none" /><path d="M 81.29705330413844 90.45014215332179 l -16.450762319835686 -8.399876456830386 a39.47120746983637,39.47120746983637 0 0,0 0.3133110377637048,-0.6008152265207357 l 16.30414321309704 8.681037926455609" fill="red" stroke="none" /><path d="M 81.46374523516351 90.13048839642627 l -24.926653993815485 -13.272039252337034 a49.23977877468187,49.23977877468187 0 0,0 0.4036598523796589,-0.7426886632218809 l 24.695148791820476 13.697982749033535" fill="red" stroke="none" /><path d="M 81.63589988554816 89.8137432299009 l -16.149720929210176 -8.957977963805542 a39.467778840223176,39.467778840223176 0 0,0 0.3337219370828212,-0.5896546862069433 l 15.993565627105987 9.23388942011159" fill="red" stroke="none" /><line stroke="#e1ed5e" stroke-width="0.3" x1="26.387840678322718" x2="22.05771365940052" y1="57.49999999999999" y2="54.99999999999999" /><path d="M 25.521815274538284 56.99999999999999 a86.0,86.0 0 0,1 29.574782752854787,-30.34633250058573" fill="none" id="id11" stroke="none" /><text fill="#e1ed5e" style="font-size:6.75px; font-family:Arial;" text-anchor="middle"><textPath startOffset="21.40746469413373" xlink:href="#id11">November</textPath></text><path d="M 81.81346652052679 89.5 l -24.31109457343183 -14.036016996265321 a49.072033992530635,49.072033992530635 0 0,0 0.4274554816494752,-0.7259128585351298 l 24.066565381652573 14.451281023094023" fill="red" stroke="none" /><path d="M 81.99639281039701 89.18935116829357 l -31.628477380252278 -18.991991906873942 a57.89249704186334,57.89249704186334 0 0,0 0.5189153600452416,-0.847609242630603 l 31.29779405575164 19.532138265629087" fill="red" stroke="none" /><path d="M 82.37810715431573 88.57770195909679 l -23.229335922882424 -15.056974896337788 a48.68238682713364,48.68238682713364 0 0,0 0.4605714532170898,-0.6973638822896778 l 22.967440030744605 15.453518656966526" fill="red" stroke="none" /><path d="M 82.576782715395 88.27688183743585 l -22.05871034596025 -14.842084769726329 a47.587105567148825,47.587105567148825 0 0,0 0.4618447861827652,-0.6738453454393065 l 21.800675822962173 15.218564850235671" fill="red" stroke="none" /><path d="M 82.78059297857968 87.97951657250589 l -24.238474350778098 -16.92033755162593 a50.56013297863002,50.56013297863002 0 0,0 0.5029165902644109,-0.7074151661769769 l 23.944442661983715 17.333929944512427" fill="red" stroke="none" /><path d="M 82.98947788004972 87.6856937992154 l -23.933602329625725 -17.326082379867838 a50.546750263043016,50.546750263043016 0 0,0 0.5148498951364752,-0.6984927625379764 l 23.63265041490543 17.734381451674675" fill="red" stroke="none" /><path d="M 83.2033758604659 87.39550010848427 l -23.6197643068261 -17.724711475937966 a50.53063939055948,50.53063939055948 0 0,0 0.5265966911260248,-0.6893319726648418 l 23.31201563834577 18.12756436184369" fill="red" stroke="none" /><path d="M 83.42222388311158 87.10902102172516 l -11.676074653690318 -9.079386272815764 a35.790739481498036,35.790739481498036 0 0,0 0.38131380448445423,-0.48177753542689705 l 11.518494418564302 9.278483752157344" fill="red" stroke="none" /><path d="M 83.64595745247003 86.82634096563983 l -40.2257847838331 -32.40304478795715 a72.65337426543996,72.65337426543996 0 0,0 0.7907218943529798,-0.9645521415290523 l 39.66361607024149 33.0887992111847" fill="red" stroke="none" /><path d="M 84.58840730492382 85.73525988315684 l -27.08089722957863 -25.065674181377503 a57.900718379538006,57.900718379538006 0 0,0 0.681420227141993,-0.723644667336074 l 26.646621168700364 25.526860308658087" fill="red" stroke="none" /><path d="M 85.08716467003674 85.21462403516908 l -37.75508336067145 -37.43239227951933 a74.16606353059316,74.16606353059316 0 0,0 0.904148167427873,-0.8964204517483197 l 37.1069432731136 38.07499274149632" fill="red" stroke="none" /><path d="M 85.34317274990677 84.96080404539775 l -16.981005717754158 -17.424007811370057 a45.330035006080124,45.330035006080124 0 0,0 0.5619359680367499,-0.5383219458733489 l 16.679397263852106 17.712941887548975" fill="red" stroke="none" /><path d="M 85.60350026404147 84.71141617570332 l -17.714269472679398 -18.811940310934677 a46.83959057750084,46.83959057750084 0 0,0 0.5901124376500094,-0.546199262421696 l 17.388727263715435 19.11325731948874" fill="red" stroke="none" /><path d="M 85.86807049272753 84.46653392183569 l -12.431024568262021 -13.663873595502652 a39.47246094732937,39.47246094732937 0 0,0 0.5051252730426318,-0.45168613391172063 l 12.194634268395998 13.875255259297774" fill="red" stroke="none" /><path d="M 86.40962598614128 83.9905735841838 l -23.89596320344303 -28.149384568111095 a57.924313249994434,57.924313249994434 0 0,0 0.7635684087449459,-0.63699592382656 l 23.409220460536176 28.555442675849537" fill="red" stroke="none" /><path d="M 86.68645165197937 83.75963576809568 l -6.766517616093583 -8.254051271259664 a31.67310278398405,31.67310278398405 0 0,0 0.4234380574791738,-0.34109172549785904 l 6.623828788259163 8.368991290550923" fill="red" stroke="none" /><path d="M 86.96720088162412 83.53348406188908 l -13.801902708923826 -17.438253200136206 a43.23927141474422,43.23927141474422 0 0,0 0.5859746021835115,-0.4556573948935948 l 13.50051816210507 17.672611646650605" fill="red" stroke="none" /><path d="M 87.83215693770416 82.88440491214696 l -19.68757842002418 -27.693044590756617 a54.97801440270217,54.97801440270217 0 0,0 0.7738938540456279,-0.5402380137494288 l 19.209289474804788 28.02692742031117" fill="red" stroke="none" /><path d="M 88.12776184653039 82.6780497279521 l -12.966444430816335 -18.918429931447555 a43.93546756114945,43.93546756114945 0 0,0 0.6257743538921008,-0.42104891272069617 l 12.639773788827245 19.13822851822536" fill="red" stroke="none" /><path d="M 88.72937992617638 82.28071324371311 l -18.55286845239662 -29.168190756709286 a55.56866037079995,55.56866037079995 0 0,0 0.8092804598329978,-0.5050508610598118 l 18.049423863773924 29.48237741461063" fill="red" stroke="none" /><path d="M 89.03521579738668 82.08984904055464 l -23.120673291857457 -37.76588223619477 a65.2812307252965,65.2812307252965 0 0,0 0.9607757156574055,-0.5769182119237685 l 22.46896481964262 38.157214448654464" fill="red" stroke="none" /><line stroke="#e1ed5e" stroke-width="0.3" x1="56.869717070023135" x2="54.33264160355391" y1="26.7553504044142" y2="22.446841604673864" /><path d="M 56.362301976729285 25.89364864446614 a86.0,86.0 0 0,1 42.16139366436587,-11.88097634709845" fill="none" id="id12" stroke="none" /><text fill="#e1ed5e" style="font-size:6.75px; font-family:Arial;" text-anchor="middle"><textPath startOffset="22.145653131862474" xlink:href="#id12">December</textPath></text><path d="M 89.97174638481275 81.54914285379989 l -16.537740108030658 -30.42757911428827 a55.63140797942003,55.63140797942003 0 0,0 0.8429779148853409,-0.44883825875655803 l 16.012973377358755 30.706987840767404" fill="red" stroke="none" /><path d="M 90.28995756902619 81.37971332152246 l -11.69307542396624 -22.42301391524153 a46.28872408631322,46.28872408631322 0 0,0 0.7077166307488575,-0.3613651543410104 l 11.3064315715038 22.620437021255373" fill="red" stroke="none" /><path d="M 90.93487009805054 81.0573650232925 l -12.021286371813067 -25.119865038310508 a48.848140792090106,48.848140792090106 0 0,0 0.7594985369052516,-0.35548366460094744 l 11.588299121036293 25.322524934481997" fill="red" stroke="none" /><path d="M 91.26138138417902 80.90454125486306 l -26.215855847462933 -57.286376235410835 a84.0,84.0 0 0,0 1.3163463885775248,-0.5887849963606175 l 25.22859605602979 57.7279649826813" fill="red" stroke="none" /><path d="M 92.25597844496254 80.48000691201159 l -8.106423669538335 -20.433483155113493 a42.98275093250065,42.98275093250065 0 0,0 0.6881901475161349,-0.2662067330674179 l 7.754461259528671 20.56962977631895" fill="red" stroke="none" /><path d="M 92.592206182469 80.34994680014964 l -7.776387530900737 -20.627791816131104 a43.04490866935932,43.04490866935932 0 0,0 0.6936601933223101,-0.25472163118278046 l 7.4211381859243 20.75824429632261" fill="red" stroke="none" /><path d="M 92.93061703081487 80.22567764915836 l -8.576583827774652 -23.990231399075036 a46.4772249810691,46.4772249810691 0 0,0 0.753582230353322,-0.2621350179343002 l 8.163495825376327 24.13392484957792" fill="red" stroke="none" /><path d="M 93.61358852112211 79.99465700312896 l -13.601075773953916 -42.60517614380038 a65.72348707841432,65.72348707841432 0 0,0 1.0777380197996795,-0.33388599346530057 l 12.86769712128262 42.83237872507232" fill="red" stroke="none" /><path d="M 94.6519064749342 79.69241777938228 l -9.600405079235605 -36.454301815040544 a58.69726645935327,58.69726645935327 0 0,0 0.9765959144303612,-0.2482468624995835 l 8.973203871579866 36.61373390937539" fill="red" stroke="none" /><path d="M 95.00130118170881 79.60360301121753 l -5.330631800962985 -21.75079683049149 a43.394481421965466,43.394481421965466 0 0,0 0.7250346779094613,-0.17110620981955602 l 4.956464969313618 21.839099183957277" fill="red" stroke="none" /><path d="M 95.35216902796891 79.52079915486377 l -4.946298112748748 -21.79430213802153 a43.34854515854559,43.34854515854559 0 0,0 0.727094609034434,-0.15846688589744726 l 4.571441087095196 21.87600048205269" fill="red" stroke="none" /><path d="M 96.05791012581881 79.37332000966035 l -10.392345348084346 -54.377142248324674 a76.36130815766899,76.36130815766899 0 0,0 1.289652557339568,-0.2350176565342945 l 9.457358057193739 54.54752807879033" fill="red" stroke="none" /><path d="M 96.41257539226777 79.30868818359171 l -2.3077490366086177 -13.310483182716949 a34.509058744907385,34.509058744907385 0 0,0 0.5845546925726974,-0.09618825221368942 l 2.0789168409828473 13.348137433426306" fill="red" stroke="none" /><path d="M 97.12497278360702 79.19773525538626 l -5.809336813408225 -42.03346726392526 a63.433015028855735,63.433015028855735 0 0,0 1.0799385570071667,-0.13981966732771933 l 5.086920434510265 42.126998527453374" fill="red" stroke="none" /><path d="M 97.48249496171623 79.15144685158666 l -3.0109716541247944 -24.935164619245846 a46.11629719705579,46.11629719705579 0 0,0 0.7867530303244181,-0.08815731805763412 l 2.5824827221995768 24.98317769781045" fill="red" stroke="none" /><path d="M 97.84075906011542 79.11130261209362 l -2.5064223233243403 -24.24736233512415 a45.37656114126141,45.37656114126141 0 0,0 0.7755079812231075,-0.07344141211443683 l 2.089814778716217 24.28681550274377" fill="red" stroke="none" /><path d="M 98.5590905019552 79.04949213459386 l -2.5585497697989434 -37.20075212838861 a58.288632796635866,58.288632796635866 0 0,0 0.998833034206912,-0.060087315016658926 l 1.9195723834595475 37.23919142122996" fill="red" stroke="none" /><path d="M 98.9189461498227 79.02784411241856 l -1.3285767601935374 -25.774034215619512 a46.808253640175884,46.808253640175884 0 0,0 0.8028155786882973,-0.034476355251708585 l 0.88593542090442 25.79304313929705" fill="red" stroke="none" /><path d="M 99.63950707515114 79.00309439819443 l -0.38020347567691803 -22.144946372009027 a43.14820996157641,43.14820996157641 0 0,0 0.7406964005257648,-0.00635798776181907 l 5.424746887257615e-15 22.148209961576413" fill="red" stroke="none" /></svg>