<?xml version="1.0" encoding="utf-8" ?>
<svg baseProfile="full" height="200mm" version="1.1" viewBox="0,0,200,200" width="200mm" xmlns="http://www.w3.org/2000/svg" xmlns:ev="http://www.w3.org/2001/xml-events" xmlns:xlink="http://www.w3.org/1999/xlink"><defs /><rect fill="#1a1a1a" height="200" width="200" x="0" y="0" /><text alignment-baseline="middle" fill="#e1ed5e" style="dominant-baseline: central; font-size:9.0px; font-family:Arial;" text-anchor="middle" x="100.0" y="100.0">2025</text><line stroke="#e1ed5e" stroke-width="0.3" x1="100.0" x2="100.0" y1="15.0" y2="10.0" /><path d="M 100.0 14.0 a86.0,86.0 0 0,1 42.46469731375804,11.215312516191453" fill="none" id="id13" stroke="none" /><text fill="#e1ed5e" style="font-size:6.75px; font-family:Arial;" text-anchor="middle"><textPath startOffset="22.20632615414155" xlink:href="#id13">January</textPath></text><path d="M 100.0 79.0 l 0.0 -63.0 a84.0,84.0 0 0,0 1.4459219170901134,0.012445506434235476 l -1.084441437817585 62.990665870174325" fill="#4dd2ff" stroke="none" /><path d="M 102.16513564639614 79.11191278185805 l 2.645334100900871 -25.52078873797863 a46.65752229491238,46.65752229491238 0 0,0 0.7981397876223745,0.08968030480277728 l -3.0842405920329705 25.471472479705252" fill="#ebff1a" stroke="none" /><path d="M 102.52436894288641 79.15227682838746 l 3.59147608467477 -29.660521454979623 a50.87716910030295,50.87716910030295 0 0,0 0.8685102751273489,0.11275756012332713 l -4.1015010883099645 29.59430557169216" fill="#b5ff20" stroke="none" /><path d="M 102.88285421437855 79.19881850522331 l 2.507670410251936 -18.094049665281453 a39.26699329873762,39.26699329873762 0 0,0 0.6687188023299369,0.09855176844084483 l -2.8187581930105288 18.04820341267964" fill="#ffad10" stroke="none" /><path d="M 103.59715602781102 79.31037775812273 l 4.100631517246717 -23.585442607725433 a44.93926234959105,44.93926234959105 0 0,0 0.7609819497881567,0.13906458724957396 l -4.5060085881377745 23.511362539125123" fill="#fffc17" stroke="none" /><path d="M 103.95276090670814 79.375362276772 l 4.502121812548442 -23.491082198286538 a44.91861291257666,44.91861291257666 0 0,0 0.7581269169695664,0.1520731274563537 l -4.905815138985133 23.410105114752973" fill="#fffc17" stroke="none" /><path d="M 104.66035177308747 79.52364482259891 l 7.028399954529794 -30.880933630131878 a52.670656257637674,52.670656257637674 0 0,0 0.8822994887417176,0.20881178303197492 l -7.558923130234035 30.755375934959034" fill="#9fff22" stroke="none" /><path d="M 105.01212808612495 79.60689891045804 l 4.2787421617022465 -17.409136386843706 a38.927232475261036,38.927232475261036 0 0,0 0.649326834484551,0.16552786797517888 l -4.577777884871822 17.332905522699658" fill="#ffa80f" stroke="none" /><path d="M 105.36241919743992 79.69619591428918 l 8.066373899953234 -30.54182623859973 a52.589073077294714,52.589073077294714 0 0,0 0.8732343231343422,0.23868792713027576 l -8.590906112311288 30.39845177064316" fill="#a0ff22" stroke="none" /><path d="M 106.0581310904928 79.89281104454417 l 12.055426750666044 -40.01246258845503 a62.789119116501936,62.789119116501936 0 0,0 1.0321772549345491,0.32070249748958796 l -12.74238937831131 39.79901995608292" fill="#30ff35" stroke="none" /><path d="M 106.40334571778207 80.00007090966166 l 4.8780849056482865 -15.235996385247166 a36.99785292462643,36.99785292462643 0 0,0 0.6048570690082318,0.19941186585442813 l -5.139624796898936 15.149770795133502" fill="#ff8c0c" stroke="none" /><path d="M 107.08798089147638 80.2323363322302 l 6.433951018354465 -17.943640330447387 a40.06226518583357,40.06226518583357 0 0,0 0.6471346866962259,0.2383451665044995 l -6.741868030823267 17.830231896136564" fill="#ffb911" stroke="none" /><path d="M 107.4271985657038 80.35727306442388 l 10.56576482387793 -27.943299410264657 a50.87412539715922,50.87412539715922 0 0,0 0.8164493678457456,0.316769670422181 l -11.04519735672334 27.757287035951933" fill="#b5ff20" stroke="none" /><path d="M 107.76421540070413 80.48803036053334 l 12.696665835661825 -31.90753289577977 a55.340879121503725,55.340879121503725 0 0,0 0.8820707101488822,0.3598187901462751 l -13.244020415399095 31.684253219449918" fill="#7fff26" stroke="none" /><line stroke="#e1ed5e" stroke-width="0.3" x1="143.23703022742887" x2="145.7803849466894" y1="26.81831364943548" y2="22.513508569990506" /><path d="M 143.74570117128098 25.957352633546492 a86.0,86.0 0 0,1 28.547481713284135,27.462654790039103" fill="none" id="id14" stroke="none" /><text fill="#e1ed5e" style="font-size:6.75px; font-family:Arial;" text-anchor="middle"><textPath startOffset="19.985693538727396" xlink:href="#id14">February</textPath></text><path d="M 111.2981086023043 82.29822771554956 l 16.07639934536408 -25.18835412039514 a50.88149593320337,50.88149593320337 0 0,0 0.7342271926277938,0.4775617899431897 l -16.507593563776155 24.90789340629242" fill="#b5ff20" stroke="none" /><path d="M 111.60114157652 82.49532879139004 l 19.801354531961007 -29.877766621573343 a56.843752309065174,56.843752309065174 0 0,0 0.8109581592434868,0.5475625691604213 l -20.312717385611037 29.53249214011425" fill="#6dff28" stroke="none" /><path d="M 111.90073688211348 82.69761687909136 l 25.381253514261104 -36.90159498044998 a65.78767399694209,65.78767399694209 0 0,0 0.9275086509389011,0.6497790831557471 l -26.012693304783653 36.45923105453029" fill="#34ff5c" stroke="none" /><path d="M 112.19680574252982 82.90503203632743 l 8.911258569629366 -12.489965240048114 a36.34306882577286,36.34306882577286 0 0,0 0.5061286045797089,0.3677239558671651 l -9.124932490562863 12.334722049364276" fill="#ff820c" stroke="none" /><path d="M 113.06298171725822 83.55741782278167 l 18.58497732944529 -23.39320559542839 a50.87713926007605,50.87713926007605 0 0,0 0.6810186160365942,0.5506696924980503 l -18.984899344046376 23.06982980566621" fill="#b5ff20" stroke="none" /><path d="M 113.6212207817346 84.01681056812373 l 19.380918340785605 -22.741639253060665 a50.879795040270096,50.879795040270096 0 0,0 0.6616946451942559,0.5738150758651498 l -19.769506784626625 22.40465918377584" fill="#b5ff20" stroke="none" /><path d="M 113.89432698308785 84.25364557470407 l 19.759181024536147 -22.392957064033506 a50.86418860160171,50.86418860160171 0 0,0 0.6515194218417212,0.5849405697824865 l -20.14171143397386 22.049517485481726" fill="#b5ff20" stroke="none" /><path d="M 114.16331599549186 84.49514656593476 l 20.138471220324547 -22.045970361507113 a50.859384325070906,50.859384325070906 0 0,0 0.6412935240155582,0.5960124398793936 l -20.514972628134952 21.696053335553078" fill="#b5ff1f" stroke="none" /><path d="M 114.68862486808459 84.99185889309783 l 20.897834715937066 -21.352417606291635 a50.87716910030295,50.87716910030295 0 0,0 0.6206147291586156,0.6179496122808971 l -21.262285245263005 20.98953214336062" fill="#b5ff20" stroke="none" /><path d="M 115.4437574822437 85.77008943001954 l 21.978937817672293 -20.25143945236314 a50.88635989018796,50.88635989018796 0 0,0 0.5879951825359618,0.6492789665987848 l -22.32427664082429 19.870107698494806" fill="#b5ff20" stroke="none" /><path d="M 115.68641384162765 86.03803664274999 l 22.322627194397054 -19.868639580235953 a50.884151713397415,50.884151713397415 0 0,0 0.576706767748941,0.6592755293821217 l -22.661325825723843 19.481448494650884" fill="#b5ff20" stroke="none" /><path d="M 115.9244219780498 86.31012108654704 l 22.666869689982953 -19.486214434069243 a50.89146256898776,50.89146256898776 0 0,0 0.5653541943553568,0.669201044224347 l -22.998934497825427 19.09315444021579" fill="#b5ff20" stroke="none" /><path d="M 116.38621287248628 86.86637796730983 l 27.973411338826253 -22.42081281062773 a56.849750194671955,56.849750194671955 0 0,0 0.6054387928709943,0.7688457836741225 l -28.35520421229121 21.93597463300057" fill="#6dff28" stroke="none" /><path d="M 117.04232023915458 87.72973835380427 l 24.27073042363182 -17.47462836416099 a50.90703916742925,50.90703916742925 0 0,0 0.5058884113043777,0.7155432813712652 l -24.56793145474008 17.05425858245793" fill="#b5ff20" stroke="none" /><path d="M 117.2510076193507 88.02491185347247 l 24.58457581347864 -17.065812554691593 a50.927300681493946,50.927300681493946 0 0,0 0.4936929737278195,0.7244335204322976 l -24.874693252875193 16.64010101098889" fill="#b4ff20" stroke="none" /><path d="M 117.45458315368197 88.32363383020206 l 24.83853147019436 -16.615910332115817 a50.88379363067462,50.88379363067462 0 0,0 0.48073885057518256,0.7321982510227504 l -25.12086695612747 16.185894017115395" fill="#b5ff20" stroke="none" /><line stroke="#e1ed5e" stroke-width="0.3" x1="172.23445277983987" x2="176.4835382374775" y1="55.19839476539836" y2="52.563006222186495" /><path d="M 173.08426987136738 54.67131705675599 a86.0,86.0 0 0,1 12.851231095245387,41.99856678651699" fill="none" id="id15" stroke="none" /><text fill="#e1ed5e" style="font-size:6.75px; font-family:Arial;" text-anchor="middle"><textPath startOffset="22.20632615414155" xlink:href="#id15">March</textPath></text><path d="M 117.84615892207809 88.93136811851018 l 38.06117869995541 -23.606490217019278 a65.7874949555807,65.7874949555807 0 0,0 0.5885919510703976,0.9674904077266611 l -38.46188644931203 22.947832036085536" fill="#34ff5c" stroke="none" /><path d="M 118.3937258080291 89.86733742301442 l 26.177711324108436 -14.420673584747053 a50.88692685449905,50.88692685449905 0 0,0 0.41604158078951853,0.7708618634374447 l -26.422061004116422 13.96793073797715" fill="#b5ff20" stroke="none" /><path d="M 118.56541770881063 90.18545643968196 l 26.418077507077665 -13.965824876109538 a50.88242098023724,50.88242098023724 0 0,0 0.40267516118529595,0.7778402424804133 l -26.65456210142308 13.50901191136878" fill="#b5ff20" stroke="none" /><path d="M 118.73160827565052 90.50648371742162 l 26.668243201268034 -13.515945739058873 a50.89775885686354,50.89775885686354 0 0,0 0.38934358683176745,0.7848929129851385 l -26.896946801053208 13.054893237574785" fill="#b5ff20" stroke="none" /><path d="M 119.34039704204932 91.81776055985345 l 17.551291868273413 -7.425332181023992 a40.057371388622066,40.057371388622066 0 0,0 0.263192787236913,0.6373422105588054 l -17.676506342396525 7.122115400011884" fill="#ffb811" stroke="none" /><path d="M 119.7369772167798 92.82701384747503 l 28.085819431160473 -10.207195947450149 a50.88310730545594,50.88310730545594 0 0,0 0.2920858011665041,0.8257658925946977 l -28.257358313136788 9.722232428428837" fill="#b5ff20" stroke="none" /><path d="M 120.18372546131832 94.20196356495316 l 28.733188680242826 -8.253980425090568 a50.89522243757709,50.89522243757709 0 0,0 0.23463480223453026,0.8441062230945828 l -28.871010253043718 7.758162898577034" fill="#b5ff20" stroke="none" /><path d="M 120.37134235888165 94.90015583598534 l 28.97216925578274 -7.253009924185458 a50.86624757725777,50.86624757725777 0 0,0 0.20532330325542947,0.8511976480341586 l -29.092725359298992 6.753227044491894" fill="#b5ff20" stroke="none" /><path d="M 120.73433829027371 96.67025291283417 l 29.495552872802595 -4.736718861610879 a50.873468912167425,50.873468912167425 0 0,0 0.13140885089447973,0.8658201402334501 l -29.572717617136373 4.228299608985347" fill="#b5ff20" stroke="none" /><path d="M 120.83666639777658 97.38593545837742 l 29.65811439699441 -3.720759536892233 a50.890597202407676,50.890597202407676 0 0,0 0.10156223638997387,0.8701232183767719 l -29.71776698638797 3.209692580190609" fill="#b5ff20" stroke="none" /><path d="M 120.94382443527127 98.46500227214037 l 29.803645356257803 -2.184344509054681 a50.883584749086324,50.883584749086324 0 0,0 0.056503577329782353,0.8740853322164469 l -29.836829524592 1.6710001125851985" fill="#b5ff20" stroke="none" /><line stroke="#e1ed5e" stroke-width="0.3" x1="184.98032266829074" x2="189.97916517819016" y1="98.17113171792111" y2="98.06355123074" /><path d="M 185.9800911702706 98.14961562048488 a86.0,86.0 0 0,1 -9.607161424134198,41.387399972396054" fill="none" id="id16" stroke="none" /><text fill="#e1ed5e" style="font-size:6.75px; font-family:Arial;" text-anchor="middle"><textPath startOffset="21.466115282336823" xlink:href="#id16">April</textPath></text><path d="M 120.76222939487914 103.15116336523771 l 29.551809584318494 4.485191737721235 a50.89023911968489,50.89023911968489 0 0,0 -0.13890186792737466,0.864942064175949 l -29.47022596202983 -4.993213031590388" fill="#b5ff20" stroke="none" /><path d="M 120.5718875245553 104.21870165774334 l 29.25735581286082 5.99984106084455 a50.866217737030865,50.866217737030865 0 0,0 -0.18327815531067732,0.8562145251718362 l -29.1497436188257 -6.5025694054325545" fill="#b5ff20" stroke="none" /><path d="M 118.64920377521936 109.65438752849418 l 19.105265884058785 9.890483417030117 a42.513550304938704,42.513550304938704 0 0,0 -0.34202655668924886,0.6469853491827955 l -18.93218681914464 -10.217883781299047" fill="#ffdb14" stroke="none" /><line stroke="#e1ed5e" stroke-width="0.3" x1="174.80103733775053" x2="179.2010983576182" y1="140.37084112569926" y2="142.7455964860345" /><path d="M 175.68104954172406 140.8457921977663 a86.0,86.0 0 0,1 -30.038265399797805,32.042727171017184" fill="none" id="id17" stroke="none" /><text fill="#e1ed5e" style="font-size:6.75px; font-family:Arial;" text-anchor="middle"><textPath startOffset="22.206326154141568" xlink:href="#id17">May</textPath></text><path d="M 118.30583269289576 110.29060199501025 l 26.05499007007508 14.646781563733015 a50.8896423151469,50.8896423151469 0 0,0 -0.4358285993761223,0.759903899114237 l -25.799009474546576 -15.093105308705567" fill="#b5ff20" stroke="none" /><path d="M 118.12598468904814 110.60418214915192 l 25.82234473394096 15.106757054823682 a50.91667756071776,50.91667756071776 0 0,0 -0.44908297286437465,0.752688893725029 l -25.55848088537836 -15.549008042434815" fill="#b4ff20" stroke="none" /><path d="M 117.75023020441432 111.22182372390056 l 25.266159340543467 15.973448402322699 a50.89196985284505,50.89196985284505 0 0,0 -0.4744952471594682,0.7364271607489621 l -24.987459230006948 -16.405997162993113" fill="#b5ff20" stroke="none" /><path d="M 117.35343817320211 111.8261652097733 l 24.685918514437002 16.823164827219006 a50.87328987080603,50.87328987080603 0 0,0 -0.49937970588788766,0.7193937118299258 l -24.392677901386982 -17.245599801235954" fill="#b5ff20" stroke="none" /><path d="M 116.93607887273984 112.41649034213515 l 20.65795973654685 15.145144250001671 a46.61497013135384,46.61497013135384 0 0,0 -0.4799981949642892,0.6430360223386278 l -20.39420027488747 -15.498493151849614" fill="#ecff1a" stroke="none" /><path d="M 115.07121518719521 114.62390073753431 l 10.72503914839986 10.406719429341376 a35.94410499212786,35.94410499212786 0 0,0 -0.4346829731780474,0.44033155688485426 l -10.544315550166278 -10.589791480206895" fill="#ff7d0b" stroke="none" /><path d="M 113.48314897796784 116.09983520530334 l 9.59778774498815 11.460438602457586 a35.94855118593587,35.94855118593587 0 0,0 -0.47782449864451765,0.39321703225819227 l -9.399093117798941 -11.623950753572956" fill="#ff7d0b" stroke="none" /><path d="M 113.20401910651253 116.32954008644616 l 12.009678177310372 14.852486931420762 a40.1004905164917,40.1004905164917 0 0,0 -0.5404830180500902,0.42939239756752634 l -11.75223766654293 -15.057013242993415" fill="#ffb911" stroke="none" /><path d="M 112.34349029814194 116.9893568818739 l 12.670639762212804 17.439639489512867 a42.55657991212764,42.55657991212764 0 0,0 -0.5963446899216324,0.4254761023255347 l -12.368567744442288 -17.655159853682623" fill="#ffdc14" stroke="none" /><path d="M 111.7513745106137 117.40417183066458 l 13.389291171650877 19.82998023182246 a44.92699801633539,44.92699801633539 0 0,0 -0.6446495815229188,0.42723859096612327 l -13.045966891387993 -20.057516843879903" fill="#fffc17" stroke="none" /><path d="M 111.1453310114006 117.79835938074945 l 15.863109585990044 25.332340961327983 a50.88922455197031,50.88922455197031 0 0,0 -0.7464256981582044,0.4585156285425354 l -15.42470468789953 -25.601645056698896" fill="#b5ff20" stroke="none" /><line stroke="#e1ed5e" stroke-width="0.3" x1="143.8653032363475" x2="146.44561519142675" y1="172.8068346515853" y2="177.08958963109032" /><path d="M 144.38136562736335 173.6633856474863 a86.0,86.0 0 0,1 -40.68145358897372,12.25698825130547" fill="none" id="id18" stroke="none" /><text fill="#e1ed5e" style="font-size:6.75px; font-family:Arial;" text-anchor="middle"><textPath startOffset="21.466115282336833" xlink:href="#id18">June</textPath></text><path d="M 110.8373102113329 117.98757091392108 l 9.269941962158953 15.386081523983485 a38.96283186595202,38.96283186595202 0 0,0 -0.5774516720192115,0.34116862623761185 l -9.003722419111359 -15.543368722514845" fill="#ffa90f" stroke="none" /><path d="M 110.21172684928248 118.3499491758327 l 14.535939310912617 26.120337090389043 a50.89256665738304,50.89256665738304 0 0,0 -0.7691495096432188,0.41940163885710213 l -14.08416698940075 -26.366679381005916" fill="#b5ff20" stroke="none" /><path d="M 109.57404056367764 118.69057910512821 l 13.696515108328533 26.73853295211688 a51.04236459641804,51.04236459641804 0 0,0 -0.7854352696173477,0.3938335495548673 l -13.234225931028424 -26.97033434258105" fill="#b3ff20" stroke="none" /><path d="M 108.92500713936063 119.00905698771935 l 15.238540256595636 32.4560278355176 a56.855360157329045,56.855360157329045 0 0,0 -0.889466924945358,0.4083106396446731 l -14.677605335882857 -32.713525545496346" fill="#6dff28" stroke="none" /><path d="M 108.2653958097858 119.30500536409082 l 11.765294387596494 27.479515378289427 a50.892238414887146,50.892238414887146 0 0,0 -0.8082863810202168,0.33786377282041713 l -11.290536547078815 -27.677964194129817" fill="#b5ff20" stroke="none" /><path d="M 107.59598834532513 119.57807347666477 l 6.07333240047695 15.65354534251292 a37.79043919130143,37.79043919130143 0 0,0 -0.6084796600536673,0.2300749418974688 l -5.802982519663008 -15.75576853451702" fill="#ff980e" stroke="none" /><path d="M 106.91757812671514 119.82793768551818 l 9.846756886541778 28.22387812243025 a50.892238414887146,50.892238414887146 0 0,0 -0.8296168365709825,0.2814510742654093 l -9.359470317033567 -28.38919218359378" fill="#b5ff20" stroke="none" /><path d="M 106.2309692047433 120.05430185196036 l 9.310400409305354 29.965415336780943 a52.37849059606564,52.37849059606564 0 0,0 -0.8633098283973601,0.26010816945761567 l -8.793215606467747 -30.121238875344282" fill="#a2ff22" stroke="none" /><path d="M 105.53697534728816 120.25689768951611 l 7.889647775838566 28.864095968885806 a50.92294400836663,50.92294400836663 0 0,0 -0.8475264576713871,0.22383944051911744 l -7.391630875355681 -28.995626758708507" fill="#b4ff20" stroke="none" /><path d="M 104.48393922423573 120.51570834832081 l 6.381133548463831 29.19608591133016 a50.88528564201959,50.88528564201959 0 0,0 -0.8573165975119812,0.17965902854177893 l -5.8776254895224715 -29.30160092059848" fill="#b5ff20" stroke="none" /><path d="M 104.13013068566511 120.58985236759428 l 8.81265288172533 43.933530343570304 a65.80868151667927,65.80868151667927 0 0,0 -1.1125815800360777,0.21322890778039236 l -8.055103687117548 -44.078716449699165" fill="#34ff5c" stroke="none" /><path d="M 103.41894727170886 120.7198165907248 l 4.863707403665771 29.475483927114084 a50.87406571670542,50.87406571670542 0 0,0 -0.8652567498300303,0.13513530941963833 l -4.355614790227223 -29.55483754388083" fill="#b5ff20" stroke="none" /><path d="M 102.70371172650421 120.8252237178851 l 4.037921858670988 31.10192008927208 a52.36294383785105,52.36294383785105 0 0,0 -0.8948392662716882,0.10835257327895054 l -3.5019551693479203 -31.16681819127638" fill="#a3ff22" stroke="none" /><path d="M 102.34483914955558 120.86867818915974 l 3.335398647115552 29.684492862721672 a50.871290575603766,50.871290575603766 0 0,0 -0.8710313266472249,0.09028595843920847 l -2.8239347238627244 -29.73750818961664" fill="#b5ff20" stroke="none" /><path d="M 101.62511606390274 120.93702456842531 l 3.4688030659316937 44.68998653550189 a65.82440731625525,65.82440731625525 0 0,0 -1.1304158346617843,0.07796009434236281 l -2.699024470490979 -44.74307497436053" fill="#34ff5c" stroke="none" /><path d="M 100.90346689309514 120.98055641714683 l 0.7706700412552016 17.89671143805476 a38.91329708929901,38.91329708929901 0 0,0 -0.6694562994096058,0.02305742855178312 l -0.46249339017094343 -17.907325665032634" fill="#ffa80f" stroke="none" /><line stroke="#e1ed5e" stroke-width="0.3" x1="102.19456741930631" x2="102.32365962044197" y1="184.97166512339345" y2="189.96999836594603" /><path d="M 102.22038585953345 185.97133177190398 a86.0,86.0 0 0,1 -42.740103519485714,-10.115201625700543" fill="none" id="id19" stroke="none" /><text fill="#e1ed5e" style="font-size:6.75px; font-family:Arial;" text-anchor="middle"><textPath startOffset="22.20632615414155" xlink:href="#id19">July</textPath></text><path d="M 100.18074693466247 120.99922214144158 l 0.059574615804948446 6.921393126889689 a27.921649510904473,27.921649510904473 0 0,0 -0.480643100934803,0.0 l 0.05957461580494368 -6.921393126889689" fill="#ff0000" stroke="none" /><path d="M 99.09653310690486 120.98055641714683 l -1.056098349791247 24.52500603972622 a45.54773441629674,45.54773441629674 0 0,0 -0.7830131229055569,-0.04047283455961926 l 1.4780995411102928 -24.503193398404402" fill="#faff18" stroke="none" /><path d="M 98.37488393609728 120.93702456842531 l -2.637955931594068 33.98584838154335 a55.08807271921199,55.08807271921199 0 0,0 -0.9447753530710171,-0.08151919287032745 l 3.2225756024066268 -33.935404936394356" fill="#82ff25" stroke="none" /><path d="M 97.65516085044442 120.86867818915974 l -1.6712561589479273 14.87390167438381 a35.967499730016996,35.967499730016996 0 0,0 -0.6146547292623646,-0.0744261278018598 l 1.9270383112616813 -14.8429300178566" fill="#ff7d0b" stroke="none" /><path d="M 97.2962882734958 120.8252237178851 l -3.2980689717806726 25.40323493109694 a46.61643230247191,46.61643230247191 0 0,0 -0.7948576946852302,-0.11016003372355888 l 3.7348552576527334 -25.342700331880774" fill="#ecff1a" stroke="none" /><path d="M 96.58105272829116 120.7198165907248 l -7.294239675586349 44.20521764039877 a65.8029820333415,65.8029820333415 0 0,0 -1.1159904633990854,-0.19402924690767603 l 8.054079110457485 -44.07310981497009" fill="#34ff5c" stroke="none" /><path d="M 96.22490169976321 120.6578951692458 l -5.375395850522043 29.41495959623566 a50.90208568976395,50.90208568976395 0 0,0 -0.86056613836728,-0.16492954858275655 l 5.880929603461018 -29.318072849304436" fill="#b5ff20" stroke="none" /><path d="M 95.86986931433489 120.58985236759428 l -2.9698878483218767 14.805718510917377 a36.10064682244212,36.10064682244212 0 0,0 -0.6082246235096238,-0.12745938351368946 l 3.224303933260887 -14.752403146677146" fill="#ff7f0b" stroke="none" /><path d="M 94.81253420990036 120.34920634021253 l -7.3769990474949125 28.9382295446698 a50.86371115797132,50.86371115797132 0 0,0 -0.8465406268469938,-0.22357907363831866 l 7.874030117153396 -28.8069591217279" fill="#b5ff20" stroke="none" /><line stroke="#e1ed5e" stroke-width="0.3" x1="58.666819895761336" x2="56.23545636021788" y1="174.27360380694188" y2="178.64263932499728" /><path d="M 58.180547188652646 175.14741091055294 a86.0,86.0 0 0,1 -31.652253787137756,-30.449443065178592" fill="none" id="id20" stroke="none" /><text fill="#e1ed5e" style="font-size:6.75px; font-family:Arial;" text-anchor="middle"><textPath startOffset="22.20632615414155" xlink:href="#id20">August</textPath></text><line stroke="#e1ed5e" stroke-width="0.3" x1="26.63291911575756" x2="22.317208475507996" y1="142.92168965132927" y2="145.44649492493687" /><path d="M 25.769776987707644 143.4266507060508 a86.0,86.0 0 0,1 -11.730757126820373,-40.83630448921669" fill="none" id="id21" stroke="none" /><text fill="#e1ed5e" style="font-size:6.75px; font-family:Arial;" text-anchor="middle"><textPath startOffset="21.46611528233685" xlink:href="#id21">September</textPath></text><line stroke="#e1ed5e" stroke-width="0.3" x1="15.007084014347285" x2="10.007500721073583" y1="101.09737516637583" y2="101.16192664675087" /><path d="M 14.007167355692545 101.11028546245083 a86.0,86.0 0 0,1 10.666146001902534,-42.60595125391555" fill="none" id="id22" stroke="none" /><text fill="#e1ed5e" style="font-size:6.75px; font-family:Arial;" text-anchor="middle"><textPath startOffset="22.20632615414155" xlink:href="#id22">October</textPath></text><line stroke="#e1ed5e" stroke-width="0.3" x1="26.266209847984243" x2="21.928928074336255" y1="57.711370442889674" y2="55.22380399835377" /><path d="M 25.398753493254645 57.213857153982495 a86.0,86.0 0 0,1 29.58750427330803,-30.492523968695096" fill="none" id="id23" stroke="none" /><text fill="#e1ed5e" style="font-size:6.75px; font-family:Arial;" text-anchor="middle"><textPath startOffset="21.46611528233685" xlink:href="#id23">November</textPath></text><line stroke="#e1ed5e" stroke-width="0.3" x1="56.762969772571076" x2="54.21961505331055" y1="26.818313649435495" y2="22.513508569990535" /><path d="M 56.25429882871897 25.957352633546506 a86.0,86.0 0 0,1 42.265352541879196,-11.944610805530505" fill="none" id="id24" stroke="none" /><text fill="#e1ed5e" style="font-size:6.75px; font-family:Arial;" text-anchor="middle"><textPath startOffset="22.20632615414155" xlink:href="#id24">December</textPath></text></svg>