<?xml version="1.0" encoding="utf-8" ?>
<svg baseProfile="full" height="200mm" version="1.1" viewBox="0,0,200,200" width="200mm" xmlns="http://www.w3.org/2000/svg" xmlns:ev="http://www.w3.org/2001/xml-events" xmlns:xlink="http://www.w3.org/1999/xlink"><defs /><rect fill="#1a1a1a" height="200" width="200" x="0" y="0" /><rect fill="#1a1a1a" height="200" width="180" x="10" y="0" /><text alignment-baseline="middle" fill="#e1ed5e" style="dominant-baseline: central; font-size:9.0px; font-family:Arial;" text-anchor="middle" x="100.0" y="100.0">2025</text><line stroke="#e1ed5e" stroke-width="0.3" x1="100.0" x2="100.0" y1="15.0" y2="10.0" /><path d="M 100.0 14.0 a86.0,86.0 0 0,1 42.46469731375804,11.215312516191453" fill="none" id="id13" stroke="none" /><text fill="#e1ed5e" style="font-size:6.75px; font-family:Arial;" text-anchor="middle"><textPath startOffset="22.20632615414155" xlink:href="#id13">January</textPath></text><path d="M 100.0 79.0 l 0.0 -61.415795240621634 a82.41579524062163,82.41579524062163 0 0,0 1.4186524363431654,0.012210789404164167 l -1.0571719570706368 61.40669582782603" fill="#4be2ff" stroke="none" /><path d="M 102.16513564639614 79.11191278185805 l 2.578814245777171 -24.879040246204095 a46.01233548644481,46.01233548644481 0 0,0 0.7871029979053342,0.08844019288100873 l -3.0066839471922306 24.830964099852487" fill="#f2ff19" stroke="none" /><path d="M 102.52436894288641 79.15227682838746 l 3.5011644417138905 -28.914674800144333 a50.12587460053386,50.12587460053386 0 0,0 0.8556851316644782,0.11109248841776453 l -3.9983643018862147 28.850123988562434" fill="#bdff1f" stroke="none" /><path d="M 102.88285421437855 79.19881850522331 l 2.4446122610634693 -17.639054751056573 a38.80764952535043,38.80764952535043 0 0,0 0.660896155567546,0.09739891365399632 l -2.747877397059671 17.59436135324161" fill="#ffa90f" stroke="none" /><path d="M 103.59715602781102 79.31037775812273 l 3.997516597150222 -22.992360537388862 a44.33728309006359,44.33728309006359 0 0,0 0.7507882944699269,0.1372017618963725 l -4.39270001272305 22.920143294141752" fill="#fff617" stroke="none" /><path d="M 103.95276090670814 79.375362276772 l 4.388910974409706 -22.900372924929812 a44.31715290600789,44.31715290600789 0 0,0 0.7479756012700379,0.15003686902564817 l -4.782452985146869 22.821432099826954" fill="#fff517" stroke="none" /><path d="M 104.66035177308747 79.52364482259891 l 6.851663055184068 -30.104398359800097 a51.874262537383935,51.874262537383935 0 0,0 0.8689588960447148,0.20565449575785755 l -7.368845638191306 29.981997951901374" fill="#a7ff21" stroke="none" /><path d="M 105.01212808612495 79.60689891045804 l 4.171148452230473 -16.971364375403937 a38.476432363994505,38.476432363994505 0 0,0 0.6418072501056716,0.1636109584864721 l -4.46266459102117 16.8970504207486" fill="#ffa40f" stroke="none" /><path d="M 105.36241919743992 79.69619591428918 l 7.86353599640988 -29.77381819911883 a51.794730856447075,51.794730856447075 0 0,0 0.8600443798444233,0.23508261737614658 l -8.374878265478014 29.634049040916388" fill="#a8ff21" stroke="none" /><path d="M 106.0581310904928 79.89281104454417 l 11.752279696146323 -39.0063049111998 a61.738285443571904,61.738285443571904 0 0,0 1.0149028189943792,0.3153352461553317 l -12.42196788785142 38.79822953016195" fill="#36ff2f" stroke="none" /><path d="M 106.40334571778207 80.00007090966166 l 4.755420059232734 -14.85287038544748 a36.59556919854661,36.59556919854661 0 0,0 0.5982803588417781,0.19724362791413805 l -5.010383240316929 14.768813033274105" fill="#ff880c" stroke="none" /><path d="M 107.08798089147638 80.2323363322302 l 6.272162195737251 -17.49242762549392 a39.582923420247376,39.582923420247376 0 0,0 0.6393917724637395,0.23549338584753352 l -6.572336293973567 17.381870971840062" fill="#ffb410" stroke="none" /><path d="M 107.4271985657038 80.35727306442388 l 10.300076967997612 -27.240634205209485 a50.12290743467595,50.12290743467595 0 0,0 0.8043935059356737,0.31209218330012556 l -10.767453638932952 27.059299318018812" fill="#bdff1f" stroke="none" /><path d="M 107.76421540070413 80.48803036053334 l 12.377394114311157 -31.105182650168405 a54.4773396906224,54.4773396906224 0 0,0 0.8683068731601944,0.35420417544922406 l -12.910984857059738 30.8875175885356" fill="#88ff25" stroke="none" /><line stroke="#e1ed5e" stroke-width="0.3" x1="143.23703022742887" x2="145.7803849466894" y1="26.81831364943548" y2="22.513508569990506" /><path d="M 143.74570117128098 25.957352633546492 a86.0,86.0 0 0,1 28.547481713284135,27.462654790039103" fill="none" id="id14" stroke="none" /><text fill="#e1ed5e" style="font-size:6.75px; font-family:Arial;" text-anchor="middle"><textPath startOffset="19.985693538727396" xlink:href="#id14">February</textPath></text><path d="M 111.2981086023043 82.29822771554956 l 15.67214048256102 -24.554965065181847 a50.13009263042994,50.13009263042994 0 0,0 0.7233843365480345,0.4705092947352504 l -16.092491844893335 24.281556846287067" fill="#bdff1f" stroke="none" /><path d="M 111.60114157652 82.49532879139004 l 19.30342754637893 -29.12645709647029 a55.94242146776359,55.94242146776359 0 0,0 0.7980993740606032,0.5388802600045581 l -19.801931614846076 28.789864924167063" fill="#77ff27" stroke="none" /><path d="M 111.90073688211348 82.69761687909136 l 24.74301379019314 -35.97366351383597 a64.6614383412684,64.6614383412684 0 0,0 0.9116303982181597,0.6386553524125842 l -25.358575327994952 35.54242331865945" fill="#33ff4e" stroke="none" /><path d="M 112.19680574252982 82.90503203632743 l 8.687175105533209 -12.175891234052015 a35.957250370895736,35.957250370895736 0 0,0 0.5007555372384727,0.36382019393792037 l -8.89547595912547 12.02455180529742" fill="#ff7f0b" stroke="none" /><path d="M 113.06298171725822 83.55741782278167 l 18.11763749550488 -22.804957537628486 a50.12584551067252,50.12584551067252 0 0,0 0.6709621341491144,0.5425380501931458 l -18.507503028218483 22.489713390171207" fill="#bdff1f" stroke="none" /><path d="M 113.6212207817346 84.01681056812373 l 18.893563688776144 -22.169775552413608 a50.12843450833286,50.12843450833286 0 0,0 0.6519231584931071,0.5653413388877424 l -19.272380645916016 21.841269220106195" fill="#bdff1f" stroke="none" /><path d="M 113.89432698308785 84.25364557470407 l 19.262314538496643 -21.82986136312244 a50.11322051084567,50.11322051084567 0 0,0 0.6419002711236549,0.5763044012920002 l -19.635225797216286 21.495057953061142" fill="#bdff1f" stroke="none" /><path d="M 114.16331599549186 84.49514656593476 l 19.632067062327053 -21.491600025446576 a50.10853704316797,50.10853704316797 0 0,0 0.6318259792192741,0.5872133888015538 l -19.999100925341175 21.150482050570382" fill="#bdff1f" stroke="none" /><path d="M 114.68862486808459 84.99185889309783 l 20.372335522005475 -20.81548742222621 a50.12587460053386,50.12587460053386 0 0,0 0.6114502170456614,0.6088244554954282 l -20.72762153921846 20.46172711608066" fill="#bdff1f" stroke="none" /><path d="M 115.4437574822437 85.77008943001954 l 21.426253089151064 -19.742194583082245 a50.134834277830336,50.134834277830336 0 0,0 0.5793112554369854,0.639689957402272 l -21.762907985204084 19.370451838410425" fill="#bdff1f" stroke="none" /><path d="M 115.68641384162765 86.03803664274999 l 21.761300015933678 -19.369020637610824 a50.13268162809028,50.13268162809028 0 0,0 0.5681898156260388,0.649539180801602 l -22.091481695137563 18.991565900606272" fill="#bdff1f" stroke="none" /><path d="M 115.9244219780498 86.31012108654704 l 22.0968861527912 -18.996211995200674 a50.13980864412156,50.13980864412156 0 0,0 0.5570040570695455,0.6593171154468251 l -22.420600823347865 18.61303593012474" fill="#bdff1f" stroke="none" /><path d="M 116.38621287248628 86.86637796730983 l 27.26998893598471 -21.857016646124116 a55.94826852989537,55.94826852989537 0 0,0 0.5958381883116304,0.7566539908403879 l -27.642181204890303 21.384370261330687" fill="#77ff27" stroke="none" /><path d="M 117.04232023915458 87.72973835380427 l 23.66041603235076 -17.035209484432862 a50.154993551747395,50.154993551747395 0 0,0 0.4984149622889195,0.7049726177383632 l -23.95014361444356 16.625410366362704" fill="#bdff1f" stroke="none" /><path d="M 117.2510076193507 88.02491185347247 l 23.966369432351474 -16.636673801170932 a50.17474556760553,50.17474556760553 0 0,0 0.4863976494695546,0.7137285322790254 l -24.24919154748976 16.2216672456215" fill="#bcff1f" stroke="none" /><path d="M 117.45458315368197 88.32363383020206 l 24.21393909287609 -16.198084868154833 a50.132332549754054,50.132332549754054 0 0,0 0.47363921215364874,0.7213850146285596 l -24.489174940387663 15.7788817895486" fill="#bdff1f" stroke="none" /><line stroke="#e1ed5e" stroke-width="0.3" x1="172.23445277983987" x2="176.4835382374775" y1="55.19839476539836" y2="52.563006222186495" /><path d="M 173.08426987136738 54.67131705675599 a86.0,86.0 0 0,1 12.851231095245387,41.99856678651699" fill="none" id="id15" stroke="none" /><text fill="#e1ed5e" style="font-size:6.75px; font-family:Arial;" text-anchor="middle"><textPath startOffset="22.20632615414155" xlink:href="#id15">March</textPath></text><path d="M 117.84615892207809 88.93136811851018 l 37.104088216717 -23.01287888124117 a64.6612638021003,64.6612638021003 0 0,0 0.5785157110124522,0.9509277184403321 l -37.49471972601568 22.370783389593758" fill="#33ff4e" stroke="none" /><path d="M 118.3937258080291 89.86733742301442 l 25.519443786500737 -14.058049779566135 a50.135386985196035,50.135386985196035 0 0,0 0.40989713751934037,0.75947714323701 l -25.757649023238542 13.616691652996666" fill="#bdff1f" stroke="none" /><path d="M 118.56541770881063 90.18545643968196 l 25.753765695643718 -13.614638745357517 a50.130994416131855,50.130994416131855 0 0,0 0.3967284942030474,0.7663531746567935 l -25.98430362300688 13.169312848440379" fill="#bdff1f" stroke="none" /><path d="M 118.73160827565052 90.50648371742162 l 25.997640696447267 -13.176072317355434 a50.14594660486688,50.14594660486688 0 0,0 0.38359258157356685,0.7732992373157037 l -26.22059329097424 12.72661349154078" fill="#bdff1f" stroke="none" /><path d="M 119.34039704204932 91.81776055985345 l 17.109945199845516 -7.238613981323301 a39.57815268298562,39.57815268298562 0 0,0 0.26004413063613696,0.6297174888508249 l -17.23201101736785 6.943021922019173" fill="#ffb410" stroke="none" /><path d="M 119.7369772167798 92.82701384747503 l 27.379570402368632 -9.950524703007957 a50.131663482942955,50.131663482942955 0 0,0 0.287772266035626,0.8135709479128176 l -27.546795749214066 9.477756128668524" fill="#bdff1f" stroke="none" /><path d="M 120.18372546131832 94.20196356495316 l 28.0106608348562 -8.046424947737483 a50.14347396665194,50.14347396665194 0 0,0 0.2311691261777654,0.8316383423757582 l -28.14501673160033 7.563075301942773" fill="#bdff1f" stroke="none" /><path d="M 120.37134235888165 94.90015583598534 l 28.243631979202963 -7.070624958443982 a50.115227711278976,50.115227711278976 0 0,0 0.20229178654173818,0.8386300541188196 l -28.361156566005523 6.583409672665757" fill="#bdff1f" stroke="none" /><path d="M 120.73433829027371 96.67025291283417 l 28.753854535634495 -4.6176088209060975 a50.122267457726196,50.122267457726196 0 0,0 0.12946845795432435,0.8530353751577523 l -28.829078887028118 4.121974333356263" fill="#bdff1f" stroke="none" /><path d="M 120.83666639777658 97.38593545837742 l 28.91232827029748 -3.6271969183708506 a50.138965038142345,50.138965038142345 0 0,0 0.10006220597685442,0.8572718738502999 l -28.970480829277925 3.1289813061956977" fill="#bdff1f" stroke="none" /><path d="M 120.94382443527127 98.46500227214037 l 29.05419969244497 -2.129416747667912 a50.13212892072459,50.13212892072459 0 0,0 0.05566912467246411,0.8611767189452221 l -29.08654940812185 1.628980964469655" fill="#bdff1f" stroke="none" /><line stroke="#e1ed5e" stroke-width="0.3" x1="184.98032266829074" x2="189.97916517819016" y1="98.17113171792111" y2="98.06355123074" /><path d="M 185.9800911702706 98.14961562048488 a86.0,86.0 0 0,1 -9.607161424134198,41.387399972396054" fill="none" id="id16" stroke="none" /><text fill="#e1ed5e" style="font-size:6.75px; font-family:Arial;" text-anchor="middle"><textPath startOffset="21.466115282336823" xlink:href="#id16">April</textPath></text><path d="M 120.76222939487914 103.15116336523771 l 28.808696609846734 4.3724066250605595 a50.138615959806124,50.138615959806124 0 0,0 -0.13685035740805676,0.8521673062138367 l -28.72916449807739 -4.867653160967601" fill="#bdff1f" stroke="none" /><path d="M 120.5718875245553 104.21870165774334 l 28.521647204518597 5.848968413795286 a50.11519862141762,50.11519862141762 0 0,0 -0.1805721275335728,0.8435728642802374 l -28.416741038260582 -6.339055097491692" fill="#bdff1f" stroke="none" /><path d="M 118.64920377521936 109.65438752849418 l 18.624842818301396 9.641776259858498 a41.97256826074489,41.97256826074489 0 0,0 -0.3376742919529672,0.6387525044955407 l -18.456116018123538 -9.960943779440171" fill="#ffd513" stroke="none" /><line stroke="#e1ed5e" stroke-width="0.3" x1="174.80103733775053" x2="179.2010983576182" y1="140.37084112569926" y2="142.7455964860345" /><path d="M 175.68104954172406 140.8457921977663 a86.0,86.0 0 0,1 -30.038265399797805,32.042727171017184" fill="none" id="id17" stroke="none" /><text fill="#e1ed5e" style="font-size:6.75px; font-family:Arial;" text-anchor="middle"><textPath startOffset="22.206326154141568" xlink:href="#id17">May</textPath></text><path d="M 118.30583269289576 110.29060199501025 l 25.399808494288266 14.278472023052993 a50.138034162579075,50.138034162579075 0 0,0 -0.42939168385636417,0.7486805943363147 l -25.15026481427952 -14.713572463247624" fill="#bdff1f" stroke="none" /><path d="M 118.12598468904814 110.60418214915192 l 25.173013282737497 14.726880921093136 a50.164389576964155,50.164389576964155 0 0,0 -0.44244782421801326,0.7415680029406903 l -24.915784582821257 -15.15801101791993" fill="#bdff1f" stroke="none" /><path d="M 117.75023020441432 111.22182372390056 l 24.630813786916473 15.571778354979143 a50.14030317176456,50.14030317176456 0 0,0 -0.4674870242777028,0.7255502432042434 l -24.35912189926172 -15.993450198104838" fill="#bdff1f" stroke="none" /><path d="M 117.35343817320211 111.8261652097733 l 24.06516375887831 16.400127719487468 a50.12209291855809,50.12209291855809 0 0,0 -0.492005845969842,0.7087711166495207 l -23.779297005746333 -16.81194009832401" fill="#bdff1f" stroke="none" /><path d="M 116.93607887273984 112.41649034213515 l 20.138492464583607 14.764302827742549 a45.97085334415661,45.97085334415661 0 0,0 -0.47336567124219603,0.6341506729413479 l -19.881365526646317 -15.108766380193211" fill="#f3ff19" stroke="none" /><path d="M 115.07121518719521 114.62390073753431 l 10.4553461632663 10.145030946016332 a35.56831892461709,35.56831892461709 0 0,0 -0.43013847818672,0.4357280074516747 l -10.279167060024045 -10.323499447448672" fill="#ff790b" stroke="none" /><path d="M 113.48314897796784 116.09983520530334 l 9.356440744589523 11.17225318375002 a35.57265331395856,35.57265331395856 0 0,0 -0.4728281022309295,0.3891053381627453 l -9.162742513813903 -11.331653640769943" fill="#ff790b" stroke="none" /><path d="M 113.20401910651253 116.32954008644616 l 11.707681521324695 14.479004701494384 a39.62018753263952,39.62018753263952 0 0,0 -0.534009391345097,0.42424935699274063 l -11.456714637262248 -14.678387972492251" fill="#ffb410" stroke="none" /><path d="M 112.34349029814194 116.9893568818739 l 12.352022495297467 17.001100443780658 a42.01451584081474,42.01451584081474 0 0,0 -0.5887487545529486,0.42005660412457146 l -12.057546412895633 -17.21120130974945" fill="#ffd614" stroke="none" /><path d="M 111.7513745106137 117.40417183066458 l 13.052602619288466 19.33133342132037 a44.32532715704785,44.32532715704785 0 0,0 -0.6360163123355759,0.4215169309065324 l -12.717911608212926 -19.55314837331822" fill="#fff517" stroke="none" /><path d="M 111.1453310114006 117.79835938074945 l 15.464214130360423 24.69533119756399 a50.13762690452015,50.13762690452015 0 0,0 -0.7354015215536047,0.4517436788662388 l -15.036833408874509 -24.95786334325861" fill="#bdff1f" stroke="none" /><line stroke="#e1ed5e" stroke-width="0.3" x1="143.8653032363475" x2="146.44561519142675" y1="172.8068346515853" y2="177.08958963109032" /><path d="M 144.38136562736335 173.6633856474863 a86.0,86.0 0 0,1 -40.68145358897372,12.25698825130547" fill="none" id="id18" stroke="none" /><text fill="#e1ed5e" style="font-size:6.75px; font-family:Arial;" text-anchor="middle"><textPath startOffset="21.466115282336833" xlink:href="#id18">June</textPath></text><path d="M 110.8373102113329 117.98757091392108 l 9.036839006990483 14.999181467182241 a38.51113656858766,38.51113656858766 0 0,0 -0.570757286826584,0.3372134654677281 l -8.777313849135517 -15.15251350494372" fill="#ffa40f" stroke="none" /><path d="M 110.21172684928248 118.3499491758327 l 14.17041702141448 25.46351229141823 a50.1408849689916,50.1408849689916 0 0,0 -0.757789194375052,0.4132070891867622 l -13.730005015170779 -25.703660032364763" fill="#bdff1f" stroke="none" /><path d="M 109.57404056367764 118.69057910512821 l 13.352101069891837 26.066162933679756 a50.28691607297954,50.28691607297954 0 0,0 -0.7738104963651581,0.3880046469198854 l -12.901436665843919 -26.29213542150894" fill="#bbff1f" stroke="none" /><path d="M 108.92500713936063 119.00905698771935 l 14.855350288334087 31.639885077302623 a55.95373742382959,55.95373742382959 0 0,0 -0.875361595245442,0.40183557460217534 l -14.308520697321226 -31.89090772223887" fill="#76ff27" stroke="none" /><path d="M 108.2653958097858 119.30500536409082 l 11.46944303260732 26.788512536262488 a50.140564980516714,50.140564980516714 0 0,0 -0.7963480694249739,0.33287355760537984 l -11.006623503684885 -26.98197113688784" fill="#bdff1f" stroke="none" /><path d="M 107.59598834532513 119.57807347666477 l 5.920611732316277 15.259919611834286 a37.368225005921865,37.368225005921865 0 0,0 -0.6016814129444161,0.22750442654363162 l -5.657060098611586 -15.359572288484548" fill="#ff940d" stroke="none" /><path d="M 106.91757812671514 119.82793768551818 l 9.599149281397313 27.514157454975184 a50.140564980516714,50.140564980516714 0 0,0 -0.8173634762123149,0.2772940691465611 l -9.124116072247771 -27.67531451101987" fill="#bdff1f" stroke="none" /><path d="M 106.2309692047433 120.05430185196036 l 9.076280081684086 29.211901787681295 a51.589443704884744,51.589443704884744 0 0,0 -0.8503046438555586,0.2561898140383264 l -8.572100463388281 -29.363806970825348" fill="#abff21" stroke="none" /><path d="M 105.53697534728816 120.25689768951611 l 7.691253846373452 28.13827631477371 a50.17049844784812,50.17049844784812 0 0,0 -0.8350032712587548,0.22053195316607116 l -7.205760132303199 -28.266499617243362" fill="#bcff1f" stroke="none" /><path d="M 104.48393922423573 120.51570834832081 l 6.2206728796113655 28.46191800250558 a50.133787042821666,50.133787042821666 0 0,0 -0.8446553298395961,0.17700573679783094 l -5.729826088342392 -28.564779720029954" fill="#bdff1f" stroke="none" /><path d="M 104.13013068566511 120.58985236759428 l 8.591048966836778 42.82877307584685 a64.68191760366034,64.68191760366034 0 0,0 -1.0935321667097142,0.20957804237840896 l -7.852549185555359 -42.97030831657372" fill="#33ff4e" stroke="none" /><path d="M 103.41894727170886 120.7198165907248 l 4.741404095457658 28.734290245807504 a50.122849254953245,50.122849254953245 0 0,0 -0.8524801984583741,0.13313987485843573 l -4.246088033390766 -28.811648428013044" fill="#bdff1f" stroke="none" /><path d="M 102.70371172650421 120.8252237178851 l 3.9363838423772672 30.319827869728748 a51.57428788712026,51.57428788712026 0 0,0 -0.8813617903971824,0.10672063864292139 l -3.4138946289287047 -30.38309403709702" fill="#abff21" stroke="none" /><path d="M 102.34483914955558 120.86867818915974 l 3.251526354874526 28.938043420295372 a50.120143897847484,50.120143897847484 0 0,0 -0.8581699999572652,0.08895282934100202 l -2.752923758311658 -28.989725618092134" fill="#bdff1f" stroke="none" /><path d="M 101.62511606390274 120.93702456842531 l 3.381576171861928 43.566207339214635 a64.69724796059293,64.69724796059293 0 0,0 -1.1110588995099626,0.07662512676287332 l -2.631154511573035 -43.61796081049379" fill="#33ff4f" stroke="none" /><path d="M 100.90346689309514 120.98055641714683 l 0.7512906897112839 17.44667881206448 a38.46284739874304,38.46284739874304 0 0,0 -0.6617068562766381,0.02279052206137876 l -0.4508634817599935 -17.457026132551952" fill="#ffa40f" stroke="none" /><line stroke="#e1ed5e" stroke-width="0.3" x1="102.19456741930631" x2="102.32365962044197" y1="184.97166512339345" y2="189.96999836594603" /><path d="M 102.22038585953345 185.97133177190398 a86.0,86.0 0 0,1 -42.740103519485714,-10.115201625700543" fill="none" id="id19" stroke="none" /><text fill="#e1ed5e" style="font-size:6.75px; font-family:Arial;" text-anchor="middle"><textPath startOffset="22.20632615414155" xlink:href="#id19">July</textPath></text><path d="M 100.18074693466247 120.99922214144158 l 0.058076546124054204 6.747347032712747 a27.747596969667587,27.747596969667587 0 0,0 -0.4776469615730147,0.0 l 0.058076546124049555 -6.747347032712747" fill="#ff0000" stroke="none" /><path d="M 99.09653310690486 120.98055641714683 l -1.029541587376788 23.908297606521185 a44.930454452895894,44.930454452895894 0 0,0 -0.7724014356714145,-0.03992433154062494 l 1.4409310914616913 -23.88703346821836" fill="#fffe18" stroke="none" /><path d="M 98.37488393609728 120.93702456842531 l -2.5716216087073738 33.13123659174093 a54.23089038524673,54.23089038524673 0 0,0 -0.9300744441039145,-0.08025073658644692 l 3.1415403705528298 -33.08206160287582" fill="#8bff24" stroke="none" /><path d="M 97.65516085044442 120.86867818915974 l -1.629230572263075 14.499880947033263 a35.5911253759172,35.5911253759172 0 0,0 -0.608222803816976,-0.07364731120382433 l 1.8785807991314405 -14.46968810710409" fill="#ff7a0b" stroke="none" /><path d="M 97.2962882734958 120.8252237178851 l -3.2151353755607825 24.764442459962805 a45.972278747362864,45.972278747362864 0 0,0 -0.7838742198771393,-0.10863782419680797 l 3.640938186624753 -24.70543007027339" fill="#f3ff19" stroke="none" /><path d="M 96.58105272829116 120.7198165907248 l -7.110817942092532 43.09362849475946 a64.67636144014207,64.67636144014207 0 0,0 -1.0968834594453356,-0.19070724935537053 l 7.851550373009918 -42.96484266688309" fill="#33ff4e" stroke="none" /><path d="M 96.22490169976321 120.6578951692458 l -5.24022556972935 28.675287866247114 a50.150164634762945,50.150164634762945 0 0,0 -0.8478539323762908,-0.16249322404927824 l 5.733047116677335 -28.58083744384937" fill="#bdff1f" stroke="none" /><path d="M 95.86986931433489 120.58985236759428 l -2.8952067298435997 14.433412324710844 a35.720924337270624,35.720924337270624 0 0,0 -0.6018270493410081,-0.1261187096442075 l 3.143225240613994 -14.381437634340095" fill="#ff7b0b" stroke="none" /><path d="M 94.81253420990036 120.34920634021253 l -7.191496237955688 28.210545719707106 a50.11275507306404,50.11275507306404 0 0,0 -0.8340422302420432,-0.22027813349879216 l 7.676028911009221 -28.082576236904735" fill="#bdff1f" stroke="none" /><path d="M 94.11515582081647 120.15858648285463 l -4.084544120377983 13.991642494958743 a35.575649569677836,35.575649569677836 0 0,0 -0.5863629817433142,-0.17666635639037648 l 4.324782076561543 -13.91926076946264" fill="#ff790b" stroke="none" /><path d="M 93.76903079525671 120.05430185196036 l -18.2572668855125 58.76080094171357 a82.53177651783278,82.53177651783278 0 0,0 -1.353044238419742,-0.43320203741323726 l 19.26603246902318 -58.43782605764063" fill="#4be1ff" stroke="none" /><path d="M 93.42475214034765 119.94407469862007 l -7.3381085351261115 22.257987515450804 a44.43642133755183,44.43642133755183 0 0,0 -0.724377713514194,-0.245748249860942 l 7.720155981577531 -22.12837627869174" fill="#fff717" stroke="none" /><path d="M 93.08242187328487 119.8279376855182 l -2.9186696426871923 8.365818027601511 a29.860335419953707,29.860335419953707 0 0,0 -0.48385181221169443,-0.17349204523619982 l 3.0622410155286133 -8.314338441325354" fill="#ff2203" stroke="none" /><path d="M 92.7421414339146 119.70592522655815 l -11.279012277837031 30.623822516338713 a53.63486821600192,53.63486821600192 0 0,0 -0.8635974356870498,-0.3265386550817126 l 11.804479934284364 -30.425135611150367" fill="#92ff23" stroke="none" /><path d="M 92.06813273071674 119.44442032107085 l -5.50841543274409 13.503496886809097 a35.58379473085645,35.58379473085645 0 0,0 -0.5651529105773544,-0.23623396245659317 l 5.740039802818907 -13.40667788133253" fill="#ff790b" stroke="none" /><path d="M 91.40352486487194 119.15986991738527 l -16.451503828412122 36.66720002593793 a61.188748872767874,61.188748872767874 0 0,0 -0.9572601096978326,-0.43943116571879653 l 17.080231933877375 -36.37858178988506" fill="#3cff2e" stroke="none" /><path d="M 90.7491055286396 118.85261126421891 l -13.71156478255927 27.94311420047262 a52.125948017803,52.125948017803 0 0,0 -0.802109352870695,-0.40219428104638594 l 14.190528043112725 -27.702952078516933" fill="#a4ff21" stroke="none" /><path d="M 90.10565033884886 118.52300852407294 l -13.935553368571421 26.088462877679454 a50.577145619690235,50.577145619690235 0 0,0 -0.7643824885946472,-0.4168022788950003 l 14.382558669034708 -25.844719947024686" fill="#b7ff1f" stroke="none" /><line stroke="#e1ed5e" stroke-width="0.3" x1="58.666819895761336" x2="56.23545636021788" y1="174.27360380694188" y2="178.64263932499728" /><path d="M 58.180547188652646 175.14741091055294 a86.0,86.0 0 0,1 -31.652253787137756,-30.449443065178592" fill="none" id="id20" stroke="none" /><text fill="#e1ed5e" style="font-size:6.75px; font-family:Arial;" text-anchor="middle"><textPath startOffset="22.20632615414155" xlink:href="#id20">August</textPath></text><path d="M 89.7882731507175 118.34994917583269 l -14.442366289634718 25.952191172463383 a50.70013755348725,50.70013755348725 0 0,0 -0.758935750343006,-0.43094352605114805 l 14.88695080689893 -25.699744480617603" fill="#b6ff1f" stroke="none" /><path d="M 89.4739219176387 118.17145234162733 l -14.602736885625259 25.209098326861067 a50.13311797601057,50.13311797601057 0 0,0 -0.7430017637932884,-0.438978538514034 l 15.03450652044693 -24.954001216053285" fill="#bdff1f" stroke="none" /><path d="M 89.1626897886671 117.98757091392108 l -15.034551556997137 24.954075966902415 a50.13320524559462,50.13320524559462 0 0,0 -0.7353366661764682,-0.45170383939650255 l 15.461867423105915 -24.691583660677534" fill="#bdff1f" stroke="none" /><path d="M 88.54995079064634 117.60387380957326 l -15.87830479960479 24.412093685487516 a50.1216565706378,50.1216565706378 0 0,0 -0.7191868221809338,-0.4766378096827472 l 16.296166320525685 -24.13515785471345" fill="#bdff1f" stroke="none" /><path d="M 87.95078237400918 117.19931262002967 l -20.92907312488767 29.874609513728 a57.47627167714133,57.47627167714133 0 0,0 -0.8054140977007483,-0.5746415736388762 l 21.440214550437304 -29.509923678244903" fill="#65ff29" stroke="none" /><path d="M 87.36589467227662 116.77436683061367 l -17.66292381263846 23.45115507975336 a50.35873894065807,50.35873894065807 0 0,0 -0.6879274033986259,-0.5274733981967126 l 18.063979944530573 -23.14364233972928" fill="#baff1f" stroke="none" /><path d="M 87.07902340077011 116.55440617244103 l -37.860789499323275 48.507392809491215 a82.53378371826608,82.53378371826608 0 0,0 -1.112408051387682,-0.8837642336701699 l 38.69015504342831 -47.84849466181591" fill="#4be1ff" stroke="none" /><path d="M 86.51685102203217 116.09983520530335 l -22.44525625526498 26.80122628927851 a55.95847907122999,55.95847907122999 0 0,0 -0.7331480700350294,-0.6248046905915647 l 22.903269801877066 -26.410897208463993" fill="#76ff27" stroke="none" /><path d="M 85.97065885151581 115.62618273729859 l -32.27082143959979 35.94393689345871 a69.30499472919416,69.30499472919416 0 0,0 -0.8808349674961518,-0.8046218584122269 l 32.8847559565628 -35.38312226845991" fill="#39ff89" stroke="none" /><path d="M 85.70375840098266 115.38237550388516 l -25.361782636962047 27.288603180606607 a58.254367288589435,58.254367288589435 0 0,0 -0.7286349893784871,-0.6889698615603087 l 25.82775346073135 -26.847998682300368" fill="#5cff2a" stroke="none" /><path d="M 85.18274418774928 114.88116024355367 l -20.546839935589457 20.6354551378775 a50.120347526876955,50.120347526876955 0 0,0 -0.606120577615482,-0.6139969450610372 l 20.899001138260473 -20.2787176988358" fill="#bdff1f" stroke="none" /><path d="M 84.67929136418377 114.36230785411682 l -25.483466657711524 23.88932535878587 a55.930029186827554,55.930029186827554 0 0,0 -0.6523934071531965,-0.7080441942020145 l 25.89090647286045 -23.447129909782515" fill="#77ff27" stroke="none" /><path d="M 83.95833913139862 113.55231037782056 l -27.812788205058226 23.496790096423403 a57.40948135547672,57.40948135547672 0 0,0 -0.6312418518579532,-0.7603714749506316 l 28.213126056809717 -23.01455736435901" fill="#66ff29" stroke="none" /><path d="M 83.50135304334701 112.99209946851258 l -49.49594086995897 38.976298405537754 a84.0,84.0 0 0,0 -0.8847727311277263,-1.1436880235469893 l 50.159520418304766 -38.118532387877515" fill="#4dd2ff" stroke="none" /><path d="M 83.06392112726016 112.41649034213515 l -28.720021536716434 21.055751612643714 a56.61157554844778,56.61157554844778 0 0,0 -0.5694051781565297,-0.7908539908751728 l 29.07820650724857 -20.558264016317402" fill="#6fff28" stroke="none" /><path d="M 82.6465618267979 111.8261652097733 l -39.57592848632148 26.9705325214553 a68.89220959660673,68.89220959660673 0 0,0 -0.6593866757290968,-0.9856936134559914 l 40.03431826746131 -26.28530199379349" fill="#38ff84" stroke="none" /><path d="M 82.24976979558568 111.22182372390057 l -31.14749233669896 19.69166959632186 a57.85007639551684,57.85007639551684 0 0,0 -0.5248802452979086,-0.8462740809286907 l 31.481837221664822 -19.152599184027906" fill="#61ff29" stroke="none" /><line stroke="#e1ed5e" stroke-width="0.3" x1="26.63291911575756" x2="22.317208475507996" y1="142.92168965132927" y2="145.44649492493687" /><path d="M 25.769776987707644 143.4266507060508 a86.0,86.0 0 0,1 -11.730757126820373,-40.83630448921669" fill="none" id="id21" stroke="none" /><text fill="#e1ed5e" style="font-size:6.75px; font-family:Arial;" text-anchor="middle"><textPath startOffset="21.46611528233685" xlink:href="#id21">September</textPath></text><path d="M 81.02952815118164 109.00673069616217 l -31.561602519902806 14.984701303240604 a55.938174348006164,55.938174348006164 0 0,0 -0.40548619159075316,-0.8733811829414048 l 31.814863328333388 -14.439200053020372" fill="#77ff27" stroke="none" /><path d="M 80.73074385275274 108.34839909993369 l -42.72686709740636 18.511401586715152 a67.56454832449324,67.56454832449324 0 0,0 -0.4531619208423742,-1.0711409190039831 l 43.03917999944104 -17.77318614204501" fill="#37ff73" stroke="none" /><path d="M 80.45479744820244 107.68017299344265 l -27.098185039247262 10.648073273131565 a50.115169531556276,50.115169531556276 0 0,0 -0.3085799095033956,-0.8056047703816368 l 27.277459228344167 -10.180044935916772" fill="#bdff1f" stroke="none" /><path d="M 80.32549172779594 107.34259656027581 l -43.62254057280393 16.280087508610443 a67.56143570932858,67.56143570932858 0 0,0 -0.39724753341701746,-1.0930546009368558 l 43.89631236722617 -15.526785110667472" fill="#36ff73" stroke="none" /><line stroke="#e1ed5e" stroke-width="0.3" x1="15.007084014347285" x2="10.007500721073583" y1="101.09737516637583" y2="101.16192664675087" /><path d="M 14.007167355692545 101.11028546245083 a86.0,86.0 0 0,1 10.666146001902534,-42.60595125391555" fill="none" id="id22" stroke="none" /><text fill="#e1ed5e" style="font-size:6.75px; font-family:Arial;" text-anchor="middle"><textPath startOffset="22.20632615414155" xlink:href="#id22">October</textPath></text><line stroke="#e1ed5e" stroke-width="0.3" x1="26.266209847984243" x2="21.928928074336255" y1="57.711370442889674" y2="55.22380399835377" /><path d="M 25.398753493254645 57.213857153982495 a86.0,86.0 0 0,1 29.58750427330803,-30.492523968695096" fill="none" id="id23" stroke="none" /><text fill="#e1ed5e" style="font-size:6.75px; font-family:Arial;" text-anchor="middle"><textPath startOffset="21.46611528233685" xlink:href="#id23">November</textPath></text><line stroke="#e1ed5e" stroke-width="0.3" x1="56.762969772571076" x2="54.21961505331055" y1="26.818313649435495" y2="22.513508569990535" /><path d="M 56.25429882871897 25.957352633546506 a86.0,86.0 0 0,1 42.265352541879196,-11.944610805530505" fill="none" id="id24" stroke="none" /><text fill="#e1ed5e" style="font-size:6.75px; font-family:Arial;" text-anchor="middle"><textPath startOffset="22.20632615414155" xlink:href="#id24">December</textPath></text></svg>