<?xml version="1.0" encoding="utf-8" ?>
<svg baseProfile="full" height="200mm" version="1.1" viewBox="0,0,200,200" width="200mm" xmlns="http://www.w3.org/2000/svg" xmlns:ev="http://www.w3.org/2001/xml-events" xmlns:xlink="http://www.w3.org/1999/xlink"><defs /><rect fill="#1a1a1a" height="200" width="200" x="0" y="0" /><text alignment-baseline="middle" fill="#e1ed5e" style="dominant-baseline: central; font-size:9.0px; font-family:Arial;" text-anchor="middle" x="100.0" y="100.0">2025</text><line stroke="#e1ed5e" stroke-width="0.3" x1="100.0" x2="100.0" y1="15.0" y2="10.0" /><path d="M 100.0 14.0 a86.0,86.0 0 0,1 42.46469731375804,11.215312516191453" fill="none" id="id13" stroke="none" /><text fill="#e1ed5e" style="font-size:6.75px; font-family:Arial;" text-anchor="middle"><textPath startOffset="22.20632615414155" xlink:href="#id13">January</textPath></text><path d="M 100.0 79.0 l 0.0 -62.881251267592035 a83.88125126759203,83.88125126759203 0 0,0 1.4438778528661214,0.012427912528125468 l -1.082397373593593 62.87193473167247" fill="#4dd3ff" stroke="none" /><path d="M 102.16513564639614 79.11191278185805 l 2.6403479092932907 -25.47268459015821 a46.60916041794016,46.60916041794016 0 0,0 0.7973124925514607,0.0895873485621889 l -3.0784271053544763 25.42346128812542" fill="#ecff1a" stroke="none" /><path d="M 102.52436894288641 79.15227682838746 l 3.584706509555268 -29.604614322831402 a50.82085360889661,50.82085360889661 0 0,0 0.8675489287356338,0.11263274977085634 l -4.093770166798747 29.53852324989641" fill="#b6ff1f" stroke="none" /><path d="M 102.88285421437855 79.19881850522331 l 2.5029437010056763 -18.05994418175957 a39.232561833672065,39.232561833672065 0 0,0 0.6681324328081879,0.09846535281573181 l -2.81344511424252 18.01418434478287" fill="#ffad10" stroke="none" /><path d="M 103.59715602781102 79.31037775812273 l 4.0929022347904445 -23.540986394821495 a44.894139221673655,44.894139221673655 0 0,0 0.7602178543387033,0.13892495369016153 l -4.497515210232049 23.467045959780595" fill="#fffc17" stroke="none" /><path d="M 103.95276090670814 79.375362276772 l 4.493635760828023 -23.446803845366887 a44.87352870679372,44.87352870679372 0 0,0 0.7573659952109011,0.15192049370994568 l -4.896568165506049 23.365979395579732" fill="#fffb17" stroke="none" /><path d="M 104.66035177308747 79.52364482259891 l 7.015152119840008 -30.822726142446918 a52.610960221365886,52.610960221365886 0 0,0 0.8812995053349252,0.20857511926775524 l -7.544675312137456 30.697405111038297" fill="#9fff22" stroke="none" /><path d="M 105.01212808612495 79.60689891045804 l 4.270677158400616 -17.37632189671267 a38.89344142554643,38.89344142554643 0 0,0 0.648763181896121,0.16538418038013966 l -4.569149228981763 17.30023472016366" fill="#ffa80f" stroke="none" /><path d="M 105.36241919743992 79.69619591428918 l 8.051169587639773 -30.484257934611513 a52.529530817201525,52.529530817201525 0 0,0 0.8722456320974429,0.23841768052187087 l -8.574713108960927 30.34115371326335" fill="#a0ff22" stroke="none" /><path d="M 106.0581310904928 79.89281104454417 l 12.032703470582256 -39.93704307713915 a62.71035078438241,62.71035078438241 0 0,0 1.0308823987243187,0.32030017936203226 l -12.718371242017293 39.7240027628946" fill="#30ff34" stroke="none" /><path d="M 106.40334571778207 80.00007090966166 l 4.868890200900286 -15.20727804782304 a36.96769856341932,36.96769856341932 0 0,0 0.6043640923326742,0.19924933919526744 l -5.129937115475378 15.121214984368535" fill="#ff8c0c" stroke="none" /><path d="M 107.08798089147638 80.2323363322302 l 6.421823660770265 -17.909818353558098 a40.026334712378926,40.026334712378926 0 0,0 0.6465542937610271,0.23813140288832835 l -6.729160280303868 17.796623682863444" fill="#ffb811" stroke="none" /><path d="M 107.4271985657038 80.35727306442388 l 10.54584940832624 -27.890629070831874 a50.817815642830496,50.817815642830496 0 0,0 0.8155456852179593,0.3164190556021519 l -11.024378258543868 27.704967311339175" fill="#b6ff1f" stroke="none" /><path d="M 107.76421540070413 80.48803036053334 l 12.672733883696868 -31.847390370610892 a55.276149980782236,55.276149980782236 0 0,0 0.8810390012199695,0.35939793016950317 l -13.219056754505225 31.62453155425781" fill="#7fff26" stroke="none" /><line stroke="#e1ed5e" stroke-width="0.3" x1="143.23703022742887" x2="145.7803849466894" y1="26.81831364943548" y2="22.513508569990506" /><path d="M 143.74570117128098 25.957352633546492 a86.0,86.0 0 0,1 28.547481713284135,27.462654790039103" fill="none" id="id14" stroke="none" /><text fill="#e1ed5e" style="font-size:6.75px; font-family:Arial;" text-anchor="middle"><textPath startOffset="19.985693538727396" xlink:href="#id14">February</textPath></text><path d="M 111.2981086023043 82.29822771554956 l 16.04609693196811 -25.140876578756412 a50.82517228614747,50.82517228614747 0 0,0 0.7334144344236974,0.4770331493989051 l -16.476478392176087 24.860944505197978" fill="#b5ff1f" stroke="none" /><path d="M 111.60114157652 82.49532879139004 l 19.764030948617663 -29.82145000389886 a56.77619040189936,56.77619040189936 0 0,0 0.8099942911375907,0.5469117611127058 l -20.274429934161795 29.476826330487484" fill="#6eff28" stroke="none" /><path d="M 111.90073688211348 82.69761687909136 l 25.333412376455648 -36.8320391450887 a65.70325368718593,65.70325368718593 0 0,0 0.926318449752925,0.6489452711642237 l -25.963661965792227 36.39050903116054" fill="#34ff5b" stroke="none" /><path d="M 112.19680574252982 82.90503203632743 l 8.894461733767413 -12.466422898142161 a36.3141486674505,36.3141486674505 0 0,0 0.5057258504962249,0.3674313378971862 l -9.107732900617426 12.3114723254283" fill="#ff820c" stroke="none" /><path d="M 113.06298171725822 83.55741782278167 l 18.54994649611669 -23.349111730167824 a50.82082382491558,50.82082382491558 0 0,0 0.6802648028255479,0.5500601613055792 l -18.94911469750673 23.026345471598116" fill="#b6ff1f" stroke="none" /><path d="M 113.6212207817346 84.01681056812373 l 19.34438723783528 -22.698773525533994 a50.82347459922816,50.82347459922816 0 0,0 0.6609621946365654,0.5731799019592082 l -19.73224323111861 22.362428630155115" fill="#b5ff1f" stroke="none" /><path d="M 113.89432698308785 84.25364557470407 l 19.72193693405864 -22.350748567744304 a50.807897577144054,50.807897577144054 0 0,0 0.6507983900761938,0.5842932203442048 l -20.103746311730823 22.0079563386308" fill="#b6ff1f" stroke="none" /><path d="M 114.16331599549186 84.49514656593476 l 20.100512205561888 -22.004415900631994 a50.803102356196554,50.803102356196554 0 0,0 0.6405838563182995,0.5953528810971713 l -20.476303945675035 21.655158433460183" fill="#b6ff1f" stroke="none" /><path d="M 114.68862486808459 84.99185889309783 l 20.858444376530898 -21.312170423361593 a50.82085360889661,50.82085360889661 0 0,0 0.6199277761684114,0.6172656092851457 l -21.222207952866633 20.94996896342633" fill="#b6ff1f" stroke="none" /><path d="M 115.4437574822437 85.77008943001954 l 21.937509706473538 -20.2132675037218 a50.830027075057046,50.830027075057046 0 0,0 0.5873442532105563,0.6485601941797567 l -22.28219760030013 19.832654522272495" fill="#b5ff1f" stroke="none" /><path d="M 115.68641384162765 86.03803664274999 l 22.280551262915306 -19.8311891712705 a50.82782306046006,50.82782306046006 0 0,0 0.5760683545245224,0.6585457127057267 l -22.618611481017677 19.444727902361823" fill="#b5ff1f" stroke="none" /><path d="M 115.9244219780498 86.31012108654704 l 22.62414489564419 -19.449484858458522 a50.83512013581495,50.83512013581495 0 0,0 0.5647282852282364,0.6684601652397378 l -22.955583794359544 19.057165743589678" fill="#b5ff1f" stroke="none" /><path d="M 116.38621287248628 86.86637796730983 l 27.920684241403844 -22.378551809027446 a56.78217698208848,56.78217698208848 0 0,0 0.6047191512874014,0.7679319119437066 l -28.301757473285207 21.8946275031307" fill="#6eff28" stroke="none" /><path d="M 117.04232023915458 87.72973835380427 l 24.224982511371163 -17.441690428168226 a50.85066737391802,50.85066737391802 0 0,0 0.5053282169279579,0.7147509261534899 l -24.521623348103006 17.022113001682943" fill="#b5ff1f" stroke="none" /><path d="M 117.2510076193507 88.02491185347247 l 24.53823633388121 -17.03364519582839 a50.87089069704443,50.87089069704443 0 0,0 0.49314613121706097,0.7236310965245811 l -24.827806930767 16.608736076033406" fill="#b5ff20" stroke="none" /><path d="M 117.45458315368197 88.32363383020206 l 24.791713309448955 -16.58459099418339 a50.82746565268758,50.82746565268758 0 0,0 0.4802066762725105,0.7313877130494005 l -25.07351662107939 16.155385217156315" fill="#b5ff1f" stroke="none" /><line stroke="#e1ed5e" stroke-width="0.3" x1="172.23445277983987" x2="176.4835382374775" y1="55.19839476539836" y2="52.563006222186495" /><path d="M 173.08426987136738 54.67131705675599 a86.0,86.0 0 0,1 12.851231095245387,41.99856678651699" fill="none" id="id15" stroke="none" /><text fill="#e1ed5e" style="font-size:6.75px; font-family:Arial;" text-anchor="middle"><textPath startOffset="22.20632615414155" xlink:href="#id15">March</textPath></text><path d="M 117.84615892207809 88.93136811851018 l 37.98943716464474 -23.56199433146576 a65.7030749832997,65.7030749832997 0 0,0 0.5878366568275064,0.9662489025825974 l -38.38938961975847 22.90457765567608" fill="#34ff5b" stroke="none" /><path d="M 118.3937258080291 89.86733742301442 l 26.128368942567498 -14.393492049688996 a50.83059297069681,50.83059297069681 0 0,0 0.41558100595197506,0.7700084882126718 l -26.372258047737937 13.941602578143867" fill="#b5ff1f" stroke="none" /><path d="M 118.56541770881063 90.18545643968196 l 26.368282059194794 -13.93950068561637 a50.82609558955971,50.82609558955971 0 0,0 0.40222941125176376,0.7769791954881833 l -26.604320903606673 13.483548767867843" fill="#b5ff1f" stroke="none" /><path d="M 118.73160827565052 90.50648371742162 l 26.617976215939496 -13.490469525982556 a50.84140455581447,50.84140455581447 0 0,0 0.3889125032988845,0.7840238748879201 l -26.84624873219179 13.030286062595685" fill="#b5ff1f" stroke="none" /><path d="M 119.34039704204932 91.81776055985345 l 17.518209429202308 -7.411336168576299 a40.02145013948831,40.02145013948831 0 0,0 0.2629567704102265,0.6367706770922973 l -17.64318788649873 7.108690921030699" fill="#ffb811" stroke="none" /><path d="M 119.7369772167798 92.82701384747503 l 28.032880455666987 -10.187956398558095 a50.826780621123646,50.826780621123646 0 0,0 0.29176246743962525,0.8248517846082233 l -28.204096003916423 9.703906987523256" fill="#b5ff1f" stroke="none" /><path d="M 120.18372546131832 94.20196356495316 l 28.679029478118736 -8.238422493141368 a50.83887291742604,50.83887291742604 0 0,0 0.2343750222810608,0.8431716563838029 l -28.81659127096616 7.7435395333386134" fill="#b5ff1f" stroke="none" /><path d="M 120.37134235888165 94.90015583598534 l 28.917559599048893 -7.239338722048328 a50.809952671835845,50.809952671835845 0 0,0 0.2050960669938962,0.8502556070271301 l -29.03788846630361 6.740497883361792" fill="#b6ff1f" stroke="none" /><path d="M 120.73433829027371 96.67025291283417 l 29.439956690019784 -4.727790617792005 a50.81716039524761,50.81716039524761 0 0,0 0.1312634030281905,0.8648618205226394 l -29.516975986487274 4.220329684877283" fill="#b6ff1f" stroke="none" /><path d="M 120.83666639777658 97.38593545837742 l 29.60221180191103 -3.713746275327142 a50.83425640036478,50.83425640036478 0 0,0 0.10144979719353994,0.869159908007186 l -29.66175195210816 3.2036426289951034" fill="#b5ff1f" stroke="none" /><path d="M 120.94382443527127 98.46500227214037 l 29.74746844979444 -2.1802272369659104 a50.827257164820296,50.827257164820296 0 0,0 0.056441028473818884,0.873117729099471 l -29.780590069272673 1.667850443613404" fill="#b5ff1f" stroke="none" /><line stroke="#e1ed5e" stroke-width="0.3" x1="184.98032266829074" x2="189.97916517819016" y1="98.17113171792111" y2="98.06355123074" /><path d="M 185.9800911702706 98.14961562048488 a86.0,86.0 0 0,1 -9.607161424134198,41.387399972396054" fill="none" id="id16" stroke="none" /><text fill="#e1ed5e" style="font-size:6.75px; font-family:Arial;" text-anchor="middle"><textPath startOffset="21.466115282336823" xlink:href="#id16">April</textPath></text><path d="M 120.76222939487914 103.15116336523771 l 29.4961073632312 4.476737597507567 a50.833898992592296,50.833898992592296 0 0,0 -0.13874809091575516,0.8639844945778027 l -29.414677517954157 -4.983801321778574" fill="#b5ff1f" stroke="none" /><path d="M 120.5718875245553 104.21870165774334 l 29.202208607838823 5.988531957342574 a50.809922887854796,50.809922887854796 0 0,0 -0.18307531703078353,0.8552669322565127 l -29.094799252083597 -6.490312709015256" fill="#b6ff1f" stroke="none" /><path d="M 118.64920377521936 109.65438752849418 l 19.069254358565935 9.87184083974957 a42.47299940290209,42.47299940290209 0 0,0 -0.3417003198707582,0.6463682320677662 l -18.896501530470285 -10.198624086903472" fill="#ffda14" stroke="none" /><line stroke="#e1ed5e" stroke-width="0.3" x1="174.80103733775053" x2="179.2010983576182" y1="140.37084112569926" y2="142.7455964860345" /><path d="M 175.68104954172406 140.8457921977663 a86.0,86.0 0 0,1 -30.038265399797805,32.042727171017184" fill="none" id="id17" stroke="none" /><text fill="#e1ed5e" style="font-size:6.75px; font-family:Arial;" text-anchor="middle"><textPath startOffset="22.206326154141568" xlink:href="#id17">May</textPath></text><path d="M 118.30583269289576 110.29060199501025 l 26.005879005888985 14.619173837629049 a50.83330331297148,50.83330331297148 0 0,0 -0.4353461014199311,0.7590626232577438 l -25.750380908316675 -15.064656306745109" fill="#b5ff1f" stroke="none" /><path d="M 118.12598468904814 110.60418214915192 l 25.77367218306863 15.078282320679948 a50.86028759979406,50.86028759979406 0 0,0 -0.4485856157604843,0.7518552946109816 l -25.51030569160992 -15.519699709177033" fill="#b5ff20" stroke="none" /><path d="M 117.75023020441432 111.22182372390056 l 25.21853514380527 15.943340041212231 a50.835626463492645,50.835626463492645 0 0,0 -0.47396992517775133,0.7356118493674663 l -24.940360355250466 -16.37507349050115" fill="#b5ff1f" stroke="none" /><path d="M 117.35343817320211 111.8261652097733 l 24.639388013930407 16.791454835182144 a50.81698169136137,50.81698169136137 0 0,0 -0.4988269765055032,0.7185974639300956 l -24.346700130262768 -17.21309356129926" fill="#b6ff1f" stroke="none" /><path d="M 116.93607887273984 112.41649034213515 l 20.619021537612728 15.116597159813995 a46.5666884609766,46.5666884609766 0 0,0 -0.47950103461932636,0.6423699948117676 l -20.355759236298308 -15.469280034135078" fill="#ecff1a" stroke="none" /><path d="M 115.07121518719521 114.62390073753431 l 10.704823516591953 10.38710379853567 a35.91593684094077,35.91593684094077 0 0,0 -0.4343423271747705,0.4399864842820034 l -10.524440564361646 -10.569830776798337" fill="#ff7c0b" stroke="none" /><path d="M 113.48314897796784 116.09983520530334 l 9.579696869930407 11.43883681584043 a35.92037465411579,35.92037465411579 0 0,0 -0.47744997903951786,0.39290882812044237 l -9.381376762346198 -11.602040762818051" fill="#ff7c0b" stroke="none" /><path d="M 113.20401910651253 116.32954008644616 l 11.987041128736035 14.824491471163427 a40.06448799209164,40.06448799209164 0 0,0 -0.5399977682989142,0.4290068858176322 l -11.730085867719769 -15.028632270986185" fill="#ffb911" stroke="none" /><path d="M 112.34349029814194 116.9893568818739 l 12.646756866807081 17.406767504067926 a42.51594790356231,42.51594790356231 0 0,0 -0.5957753142199473,0.42506986788024487 l -12.34525422473825 -17.62188163379239" fill="#ffdb14" stroke="none" /><path d="M 111.7513745106137 117.40417183066458 l 13.364053689833822 19.792602691882724 a44.88189800546607,44.88189800546607 0 0,0 -0.6440024494104413,0.4268097070890087 l -13.021376541683418 -20.019710420063053" fill="#fffb17" stroke="none" /><path d="M 111.1453310114006 117.79835938074945 l 15.833209202571235 25.284592018818714 a50.83288633723692,50.83288633723692 0 0,0 -0.7455993485402729,0.4580080171146375 l -15.395630654098653 -25.553388502761727" fill="#b5ff1f" stroke="none" /><line stroke="#e1ed5e" stroke-width="0.3" x1="143.8653032363475" x2="146.44561519142675" y1="172.8068346515853" y2="177.08958963109032" /><path d="M 144.38136562736335 173.6633856474863 a86.0,86.0 0 0,1 -40.68145358897372,12.25698825130547" fill="none" id="id18" stroke="none" /><text fill="#e1ed5e" style="font-size:6.75px; font-family:Arial;" text-anchor="middle"><textPath startOffset="21.466115282336833" xlink:href="#id18">June</textPath></text><path d="M 110.8373102113329 117.98757091392108 l 9.252469043785911 15.357080291004147 a38.928973714927594,38.928973714927594 0 0,0 -0.5769498746655747,0.3408721555161897 l -8.986751298091955 -15.514071018814086" fill="#ffa80f" stroke="none" /><path d="M 110.21172684928248 118.3499491758327 l 14.508540511428016 26.071102853570753 a50.836222143113446,50.836222143113446 0 0,0 -0.768297963762004,0.41893730814679697 l -14.057619735797363 -26.316980813477322" fill="#b5ff1f" stroke="none" /><path d="M 109.57404056367764 118.69057910512821 l 13.670698539955191 26.688133477600815 a50.9857377279361,50.9857377279361 0 0,0 -0.7845639005092476,0.39339662699474 l -13.209280731763185 -26.919497945504855" fill="#b3ff20" stroke="none" /><path d="M 108.92500713936063 119.00905698771935 l 15.209817124227092 32.394851451954665 a56.78777637052407,56.78777637052407 0 0,0 -0.8884096184247549,0.4078252820786743 l -14.649939510034917 -32.651863804367416" fill="#6eff28" stroke="none" /><path d="M 108.2653958097858 119.30500536409082 l 11.743117978153105 27.427719225617096 a50.835894519322,50.835894519322 0 0,0 -0.8073915097224038,0.3374897165453551 l -11.26925500893324 -27.625793985182423" fill="#b5ff1f" stroke="none" /><path d="M 107.59598834532513 119.57807347666477 l 6.061884773111097 15.62403996684445 a37.758790883832546,37.758790883832546 0 0,0 -0.6079700774242499,0.22988226135027545 l -5.7920444749265725 -15.726070478301356" fill="#ff970e" stroke="none" /><path d="M 106.91757812671514 119.82793768551818 l 9.828196729421045 28.170678920038576 a50.835894519322,50.835894519322 0 0,0 -0.8286983498654504,0.28113947370648257 l -9.341828646618366 -28.335681380643184" fill="#b5ff1f" stroke="none" /><path d="M 106.2309692047433 120.05430185196036 l 9.292851230784473 29.90893350999808 a52.31934526299965,52.31934526299965 0 0,0 -0.8623349864964455,0.25981445758962013 l -8.776641269847781 -30.064463336693425" fill="#a3ff22" stroke="none" /><path d="M 105.53697534728816 120.25689768951611 l 7.87477657468736 28.809690019546018 a50.86654223581254,50.86654223581254 0 0,0 -0.8465877453594811,0.22359151806571964 l -7.377698386516381 -28.940972886915322" fill="#b5ff20" stroke="none" /><path d="M 104.48393922423573 120.51570834832081 l 6.3691057465558 29.14105419397708 a50.828954851739596,50.828954851739596 0 0,0 -0.856367534912672,0.1794601432465309 l -5.866546750213749 -29.246370317950152" fill="#b5ff1f" stroke="none" /><path d="M 104.13013068566511 120.58985236759428 l 8.796041907775232 43.85072000962578 a65.72422160983837,65.72422160983837 0 0,0 -1.111153675169469,0.2129552464142646 l -8.039920618034058 -43.99563245438851" fill="#34ff5b" stroke="none" /><path d="M 103.41894727170886 120.7198165907248 l 4.854539799078651 29.419925572297323 a50.81775607486842,50.81775607486842 0 0,0 -0.864299045801591,0.13498573574657424 l -4.347404889668543 -29.499129615391006" fill="#b6ff1f" stroke="none" /><path d="M 102.70371172650421 120.8252237178851 l 4.030310777682425 31.043296064096616 a52.303827808877614,52.303827808877614 0 0,0 -0.8938290223832756,0.10823024681309827 l -3.495354332247769 -31.108071839635063" fill="#a3ff21" stroke="none" /><path d="M 102.34483914955558 120.86867818915974 l 3.329111752489835 29.628540546854673 a50.81498616463166,50.81498616463166 0 0,0 -0.8700672680351825,0.09018602982227243 l -2.8186118878490496 -29.681455945132704" fill="#b6ff1f" stroke="none" /><path d="M 101.62511606390274 120.93702456842531 l 3.462264717248326 44.60575035689207 a65.73991776784663,65.73991776784663 0 0,0 -1.128964878591255,0.07786002791664882 l -2.693937077878141 -44.658738729324995" fill="#34ff5b" stroke="none" /><path d="M 100.90346689309514 120.98055641714683 l 0.7692174048979978 17.86297791745889 a38.87953230640058,38.87953230640058 0 0,0 -0.6688754170814474,0.02303742178989244 l -0.46162163614189816 -17.873572137674877" fill="#ffa80f" stroke="none" /><line stroke="#e1ed5e" stroke-width="0.3" x1="102.19456741930631" x2="102.32365962044197" y1="184.97166512339345" y2="189.96999836594603" /><path d="M 102.22038585953345 185.97133177190398 a86.0,86.0 0 0,1 -42.740103519485714,-10.115201625700543" fill="none" id="id19" stroke="none" /><text fill="#e1ed5e" style="font-size:6.75px; font-family:Arial;" text-anchor="middle"><textPath startOffset="22.20632615414155" xlink:href="#id19">July</textPath></text><path d="M 100.18074693466247 120.99922214144158 l 0.05946232358097179 6.908346989424365 a27.908602890180788,27.908602890180788 0 0,0 -0.4804185164868497,0.0 l 0.05946232358096703 -6.908346989424365" fill="#ff0000" stroke="none" /><path d="M 99.09653310690486 120.98055641714683 l -1.0541077094684557 24.47877884322598 a45.50146437906781,45.50146437906781 0 0,0 -0.7822176926429572,-0.040431719900771074 l 1.4753134705249018 -24.45700731656301" fill="#faff18" stroke="none" /><path d="M 98.37488393609728 120.93702456842531 l -2.6329836471016095 33.92178843844624 a55.02382009340823,55.02382009340823 0 0,0 -0.9436734031527672,-0.0814241119946174 l 3.2165013679959182 -33.871440074172966" fill="#82ff25" stroke="none" /><path d="M 97.65516085044442 120.86867818915974 l -1.668106007354212 14.845865849466447 a35.93928748207642,35.93928748207642 0 0,0 -0.614172605351891,-0.07436774931053947 l 1.9234060357574922 -14.81495257143056" fill="#ff7d0b" stroke="none" /><path d="M 97.2962882734958 120.8252237178851 l -3.2918524398791966 25.355352360507585 a46.568147876047576,46.568147876047576 0 0,0 -0.7940343959903018,-0.11004593202635661 l 3.7278154270563295 -25.294931862988623" fill="#ecff1a" stroke="none" /><path d="M 96.58105272829116 120.7198165907248 l -7.280490759469589 44.12189520292867 a65.71853286945964,65.71853286945964 0 0,0 -1.1145582416574258,-0.1937802367995676 l 8.038897972599065 -43.9900363876081" fill="#34ff5b" stroke="none" /><path d="M 96.22490169976321 120.6578951692458 l -5.365263764118225 29.359515323761308 a50.84572323306532,50.84572323306532 0 0,0 -0.8596132575363127,-0.16474692670362617 l 5.869844636226233 -29.262811198709212" fill="#b5ff1f" stroke="none" /><path d="M 95.86986931433489 120.58985236759428 l -2.964289905188829 14.77781120447991 a36.07218360547855,36.07218360547855 0 0,0 -0.6077450745002476,-0.12735888935620698 l 3.2182264411184636 -14.724596334397162" fill="#ff7f0b" stroke="none" /><path d="M 94.81253420990036 120.34920634021253 l -7.363094138195473 28.88368386091488 a50.80742103344741,50.80742103344741 0 0,0 -0.8456037727281158,-0.22333164195058838 l 7.859188353735077 -28.75266086966071" fill="#b6ff1f" stroke="none" /><path d="M 94.11515582081647 120.15858648285463 l -4.182006341215195 14.325500206010423 a35.92344240416295,35.92344240416295 0 0,0 -0.592095353349298,-0.17839347293189806 l 4.427976669004739 -14.2513913639728" fill="#ff7c0b" stroke="none" /><path d="M 93.76903079525671 120.05430185196036 l -18.692907614229874 60.16290555588108 a84.0,84.0 0 0,0 -1.3771146196362385,-0.4409086133611737 l 19.725743578957054 -59.832224095860205" fill="#4dd2ff" stroke="none" /><path d="M 93.42475214034765 119.94407469862007 l -7.5132047841811245 22.789090333951396 a44.99564302905924,44.99564302905924 0 0,0 -0.7334938330856716,-0.24884093257110626 l 7.904368350204022 -22.656386414482167" fill="#fffd17" stroke="none" /><path d="M 93.08242187328487 119.8279376855182 l -2.98831267184368 8.56543668272197 a30.071753865180682,30.071753865180682 0 0,0 -0.4872776008513523,-0.17472041115865944 l 3.135309833324759 -8.512728730523351" fill="#ff2303" stroke="none" /><path d="M 92.7421414339146 119.70592522655815 l -11.548143312550017 31.35454439496314 a54.41357610587212,54.41357610587212 0 0,0 -0.8761357369677182,-0.3312795677662686 l 12.086149270278018 -31.15111657709024" fill="#8aff24" stroke="none" /><path d="M 92.06813273071674 119.44442032107085 l -5.6398529654397915 13.825706846322284 a35.931781918854256,35.931781918854256 0 0,0 -0.5706797514786159,-0.23854418240156056 l 5.87700417641587 -13.72657762090075" fill="#ff7d0b" stroke="none" /><line stroke="#e1ed5e" stroke-width="0.3" x1="58.666819895761336" x2="56.23545636021788" y1="174.27360380694188" y2="178.64263932499728" /><path d="M 58.180547188652646 175.14741091055294 a86.0,86.0 0 0,1 -31.652253787137756,-30.449443065178592" fill="none" id="id20" stroke="none" /><text fill="#e1ed5e" style="font-size:6.75px; font-family:Arial;" text-anchor="middle"><textPath startOffset="22.20632615414155" xlink:href="#id20">August</textPath></text><line stroke="#e1ed5e" stroke-width="0.3" x1="26.63291911575756" x2="22.317208475507996" y1="142.92168965132927" y2="145.44649492493687" /><path d="M 25.769776987707644 143.4266507060508 a86.0,86.0 0 0,1 -11.730757126820373,-40.83630448921669" fill="none" id="id21" stroke="none" /><text fill="#e1ed5e" style="font-size:6.75px; font-family:Arial;" text-anchor="middle"><textPath startOffset="21.46611528233685" xlink:href="#id21">September</textPath></text><line stroke="#e1ed5e" stroke-width="0.3" x1="15.007084014347285" x2="10.007500721073583" y1="101.09737516637583" y2="101.16192664675087" /><path d="M 14.007167355692545 101.11028546245083 a86.0,86.0 0 0,1 10.666146001902534,-42.60595125391555" fill="none" id="id22" stroke="none" /><text fill="#e1ed5e" style="font-size:6.75px; font-family:Arial;" text-anchor="middle"><textPath startOffset="22.20632615414155" xlink:href="#id22">October</textPath></text><line stroke="#e1ed5e" stroke-width="0.3" x1="26.266209847984243" x2="21.928928074336255" y1="57.711370442889674" y2="55.22380399835377" /><path d="M 25.398753493254645 57.213857153982495 a86.0,86.0 0 0,1 29.58750427330803,-30.492523968695096" fill="none" id="id23" stroke="none" /><text fill="#e1ed5e" style="font-size:6.75px; font-family:Arial;" text-anchor="middle"><textPath startOffset="21.46611528233685" xlink:href="#id23">November</textPath></text><line stroke="#e1ed5e" stroke-width="0.3" x1="56.762969772571076" x2="54.21961505331055" y1="26.818313649435495" y2="22.513508569990535" /><path d="M 56.25429882871897 25.957352633546506 a86.0,86.0 0 0,1 42.265352541879196,-11.944610805530505" fill="none" id="id24" stroke="none" /><text fill="#e1ed5e" style="font-size:6.75px; font-family:Arial;" text-anchor="middle"><textPath startOffset="22.20632615414155" xlink:href="#id24">December</textPath></text></svg>