<?xml version="1.0" encoding="utf-8" ?>
<svg baseProfile="full" height="200mm" version="1.1" viewBox="0,0,200,200" width="200mm" xmlns="http://www.w3.org/2000/svg" xmlns:ev="http://www.w3.org/2001/xml-events" xmlns:xlink="http://www.w3.org/1999/xlink"><defs /><rect fill="#1a1a1a" height="200" width="200" x="0" y="0" /><rect fill="#1a1a1a" height="200" width="180" x="10" y="0" /><text alignment-baseline="middle" fill="#e1ed5e" style="dominant-baseline: central; font-size:9.0px; font-family:Arial;" text-anchor="middle" x="100.0" y="100.0">2025</text><line stroke="#e1ed5e" stroke-width="0.3" x1="100.0" x2="100.0" y1="15.0" y2="10.0" /><path d="M 100.0 14.0 a86.0,86.0 0 0,1 42.46469731375804,11.215312516191453" fill="none" id="id13" stroke="none" /><text fill="#e1ed5e" style="font-size:6.75px; font-family:Arial;" text-anchor="middle"><textPath startOffset="22.20632615414155" xlink:href="#id13">January</textPath></text><path d="M 100.0 79.0 l 0.0 -60.426297504914444 a81.42629750491444,81.42629750491444 0 0,0 1.4016198594030456,0.012064184637064105 l -1.040139380130517 60.41734469688594" fill="#49ecff" stroke="none" /><path d="M 102.16513564639614 79.11191278185805 l 2.537265799697323 -24.47820274351058 a45.60935040367223,45.60935040367223 0 0,0 0.7802093950614866,0.08766561627949986 l -2.958241898268535 24.43090117376048" fill="#f6ff19" stroke="none" /><path d="M 102.52436894288641 79.15227682838746 l 3.4447555932435385 -28.448817358563435 a49.65661442316735,49.65661442316735 0 0,0 0.8476745191843025,0.11005248101172015 l -3.9339448409356867 28.38530655438758" fill="#c2ff1e" stroke="none" /><path d="M 102.88285421437855 79.19881850522331 l 2.4052260040341964 -17.354863938777697 a38.52074240618727,38.52074240618727 0 0,0 0.6560101133985651,0.09667883804859705 l -2.7036050978614172 17.31089061656813" fill="#ffa60f" stroke="none" /><path d="M 103.59715602781102 79.31037775812273 l 3.933110793955219 -22.621920187293682 a43.96128553626326,43.96128553626326 0 0,0 0.7444213152039854,0.13603823713222898 l -4.321927230262105 22.550866468810714" fill="#fff216" stroke="none" /><path d="M 103.95276090670814 79.375362276772 l 4.318199238863759 -22.531414628985107 a43.941479678734055,43.941479678734055 0 0,0 0.7416350674219552,0.1487650175843683 l -4.705400715752839 22.45374565532353" fill="#fff116" stroke="none" /><path d="M 104.66035177308747 79.52364482259891 l 6.741272803745151 -29.619372742283595 a51.37683328888721,51.37683328888721 0 0,0 0.8606263328526585,0.20368244726461718 l -7.250122823560333 29.498944382878108" fill="#adff20" stroke="none" /><path d="M 105.01212808612495 79.60689891045804 l 4.1039451874577875 -16.697931025635697 a38.19486163476011,38.19486163476011 0 0,0 0.6371105013600866,0.16241365265374932 l -4.3907645775029 16.624814376813077" fill="#ffa10e" stroke="none" /><path d="M 105.36241919743992 79.69619591428918 l 7.736843001023034 -29.294118708524273 a51.29858297893799,51.29858297893799 0 0,0 0.8518059125994427,0.23283073306819024 l -8.239946802846188 29.156601434629792" fill="#aeff20" stroke="none" /><path d="M 106.0581310904928 79.89281104454417 l 11.562933387054768 -38.37785663927369 a61.08193244765164,61.08193244765164 0 0,0 1.0041131687631022,0.3119828493071478 l -12.221831928528587 38.17313365508402" fill="#3cff2e" stroke="none" /><path d="M 106.40334571778207 80.00007090966166 l 4.678803329570411 -14.613569053313437 a36.344301908941944,36.344301908941944 0 0,0 0.5941725313784508,0.1958893417843367 l -4.92965868319128 14.530865987269864" fill="#ff860c" stroke="none" /><path d="M 107.08798089147638 80.2323363322302 l 6.171108545510064 -17.210599189345952 a39.28352551169448,39.28352551169448 0 0,0 0.6345555314062219,0.23371215745133259 l -6.466446402688863 17.101823764088294" fill="#ffb110" stroke="none" /><path d="M 107.4271985657038 80.35727306442388 l 10.134127755787421 -26.801747991008764 a49.65369506266449,49.65369506266449 0 0,0 0.7968633883852784,0.30917061467796736 l -10.593974309172365 26.62333467244025" fill="#c2ff1e" stroke="none" /><path d="M 107.76421540070413 80.48803036053334 l 12.17797630327277 -30.604032942987814 a53.937971085337914,53.937971085337914 0 0,0 0.8597099506637024,0.3506972749070363 l -12.702970123524858 30.3898747818972" fill="#8eff24" stroke="none" /><line stroke="#e1ed5e" stroke-width="0.3" x1="143.23703022742887" x2="145.7803849466894" y1="26.81831364943548" y2="22.513508569990506" /><path d="M 143.74570117128098 25.957352633546492 a86.0,86.0 0 0,1 28.547481713284135,27.462654790039103" fill="none" id="id14" stroke="none" /><text fill="#e1ed5e" style="font-size:6.75px; font-family:Arial;" text-anchor="middle"><textPath startOffset="19.985693538727396" xlink:href="#id14">February</textPath></text><path d="M 111.2981086023043 82.29822771554956 l 15.419639518266377 -24.15934888473229 a49.66076449447044,49.66076449447044 0 0,0 0.7166118650755141,0.46610429090097316 l -15.833218409126172 23.890345669671788" fill="#c2ff1e" stroke="none" /><path d="M 111.60114157652 82.49532879139004 l 18.99242126902479 -28.657187534247512 a55.3794482653974,55.3794482653974 0 0,0 0.7900677488889923,0.5334572708362844 l -19.482893712320323 28.32601835111256" fill="#7dff26" stroke="none" /><path d="M 111.90073688211348 82.69761687909136 l 24.344367871434866 -35.39407550308774 a63.957989103053066,63.957989103053066 0 0,0 0.9017128070601044,0.6317074460148688 l -24.95001181807862 34.96978321430893" fill="#32ff45" stroke="none" /><path d="M 112.19680574252982 82.90503203632743 l 8.547212086851468 -11.97971992732044 a35.71626732546872,35.71626732546872 0 0,0 0.49739950769968894,0.3613818957527518 l -8.752156910904946 11.830818796751013" fill="#ff7d0b" stroke="none" /><path d="M 113.06298171725822 83.55741782278167 l 17.82573601954209 -22.43753652226961 a49.656585801985955,49.656585801985955 0 0,0 0.6646808337061425,0.5374590087367618 l -18.209320251812727 22.12737141626872" fill="#c2ff1e" stroke="none" /><path d="M 113.6212207817346 84.01681056812373 l 18.589160913948632 -21.812588242141015 a49.6591330871306,49.6591330871306 0 0,0 0.6458198666629059,0.5600486243554283 l -18.9618745792583 21.489374624365915" fill="#c2ff1e" stroke="none" /><path d="M 113.89432698308785 84.25364557470407 l 18.95197065146161 -21.4781505645407 a49.64416420925809,49.64416420925809 0 0,0 0.6358921286795635,0.5709102316835999 l -19.318873767737163 21.148741324087805" fill="#c2ff1e" stroke="none" /><path d="M 114.16331599549186 84.49514656593476 l 19.315765924658546 -21.145339108713568 a49.63955619905259,49.63955619905259 0 0,0 0.6259125301634174,0.5817174823750949 l -19.67688633861681 20.809717040263834" fill="#c2ff1e" stroke="none" /><path d="M 114.68862486808459 84.99185889309783 l 20.044107583392734 -20.48011966233256 a49.65661442316735,49.65661442316735 0 0,0 0.6057260428624026,0.6031248627352489 l -20.39366942642246 20.132058948947193" fill="#c2ff1e" stroke="none" /><path d="M 115.4437574822437 85.77008943001954 l 21.081045006550493 -19.42411913097233 a49.66542974703873,49.66542974703873 0 0,0 0.5738872556979269,0.6337006414180502 l -21.412275902864454 19.058365702284732" fill="#c2ff1e" stroke="none" /><path d="M 115.68641384162765 86.03803664274999 l 21.410693840316345 -19.05695756021041 a49.663311779615086,49.663311779615086 0 0,0 0.5628701088199278,0.6434578363179124 l -21.73555581271412 18.685584167689548" fill="#c2ff1e" stroke="none" /><path d="M 115.9244219780498 86.31012108654704 l 21.74087319669901 -18.690155406946445 a49.67032396905823,49.67032396905823 0 0,0 0.5517885431732253,0.6531435920513478 l -22.05937235335935 18.31315286526599" fill="#c2ff1e" stroke="none" /><path d="M 116.38621287248628 86.86637796730983 l 26.83062977440099 -21.504868336460135 a55.38520112285892,55.38520112285892 0 0,0 0.5898416298385714,0.7490389705396502 l -27.196825484833525 21.039836971967443" fill="#7cff26" stroke="none" /><path d="M 117.04232023915458 87.72973835380427 l 23.27921233714213 -16.76074749715251 a49.685264225749336,49.685264225749336 0 0,0 0.4937470297915946,0.6983701582597138 l -23.56427198673761 16.357550838561004" fill="#c2ff1e" stroke="none" /><path d="M 117.2510076193507 88.02491185347247 l 23.580236383133077 -16.36863280306187 a49.70469800792034,49.70469800792034 0 0,0 0.48184097408269655,0.7070421734130217 l -23.85850182288451 15.960312606378444" fill="#c2ff1e" stroke="none" /><path d="M 117.45458315368197 88.32363383020206 l 23.823817336557852 -15.937110175292258 a49.662968325438285,49.662968325438285 0 0,0 0.4692047625657027,0.7146310436760188 l -24.09461873448148 15.524661067638565" fill="#c2ff1e" stroke="none" /><line stroke="#e1ed5e" stroke-width="0.3" x1="172.23445277983987" x2="176.4835382374775" y1="55.19839476539836" y2="52.563006222186495" /><path d="M 173.08426987136738 54.67131705675599 a86.0,86.0 0 0,1 12.851231095245387,41.99856678651699" fill="none" id="id15" stroke="none" /><text fill="#e1ed5e" style="font-size:6.75px; font-family:Arial;" text-anchor="middle"><textPath startOffset="22.20632615414155" xlink:href="#id15">March</textPath></text><path d="M 117.84615892207809 88.93136811851018 l 36.50628742081299 -22.64210795080094 a63.957817375964666,63.957817375964666 0 0,0 0.5722220695732665,0.9405826267159041 l -36.89062528867248 22.010357550877956" fill="#32ff45" stroke="none" /><path d="M 118.3937258080291 89.86733742301442 l 25.108288451878483 -13.831554162748994 a49.665973549485344,49.665973549485344 0 0,0 0.40605930489888514,0.7523662222570663 l -25.342655855995833 13.397306957159469" fill="#c2ff1e" stroke="none" /><path d="M 118.56541770881063 90.18545643968196 l 25.33883509445339 -13.395287124846508 a49.661651751093856,49.661651751093856 0 0,0 0.39301419308186614,0.7591783271289734 l -25.565658720695374 12.95713607545719" fill="#c2ff1e" stroke="none" /><path d="M 118.73160827565052 90.50648371742162 l 25.578780914495777 -12.963786639502414 a49.67636303833376,49.67636303833376 0 0,0 0.38000049119046336,0.7660578022956934 l -25.79814141863965 12.521569248707772" fill="#c2ff1e" stroke="none" /><path d="M 119.34039704204932 91.81776055985345 l 16.83427911155357 -7.121989387990015 a39.27883163794478,39.27883163794478 0 0,0 0.2580774728802229,0.6249550711009851 l -16.95437827131999 6.831159746435727" fill="#ffb110" stroke="none" /><path d="M 119.7369772167798 92.82701384747503 l 26.938445724073166 -9.790207285898092 a49.66231003826607,49.66231003826607 0 0,0 0.28507802261814497,0.8059539589608783 l -27.10297682750112 9.325055700510598" fill="#c2ff1e" stroke="none" /><path d="M 120.18372546131832 94.20196356495316 l 27.559368372336387 -7.916785345496234 a49.6739302379147,49.6739302379147 0 0,0 0.22900445738065286,0.8238508769819631 l -27.691559600283405 7.441223165095319" fill="#c2ff1e" stroke="none" /><path d="M 120.37134235888165 94.90015583598534 l 27.788586012899422 -6.9567069124591665 a49.64613907077473,49.64613907077473 0 0,0 0.20039829461388084,0.8307803076457718 l -27.904217107774123 6.477341373153989" fill="#c2ff1e" stroke="none" /><path d="M 120.73433829027371 96.67025291283417 l 28.29058814228418 -4.543212430616486 a49.653065396673675,49.653065396673675 0 0,0 0.12825648430678943,0.8450499831059601 l -28.36460052003027 4.055563335118444" fill="#c2ff1e" stroke="none" /><path d="M 120.83666639777658 97.38593545837742 l 28.446508634723344 -3.568757503499965 a49.669493954797616,49.669493954797616 0 0,0 0.09912528372075917,0.8492448961288551 l -28.50372427144769 3.0785688690462574" fill="#c2ff1e" stroke="none" /><path d="M 120.94382443527127 98.46500227214037 l 28.58609430203485 -2.0951087485295936 a49.66276797716848,49.66276797716848 0 0,0 0.05514792372916228,0.8531139710413406 l -28.61792281676843 1.602735713235218" fill="#c2ff1e" stroke="none" /><line stroke="#e1ed5e" stroke-width="0.3" x1="184.98032266829074" x2="189.97916517819016" y1="98.17113171792111" y2="98.06355123074" /><path d="M 185.9800911702706 98.14961562048488 a86.0,86.0 0 0,1 -9.607161424134198,41.387399972396054" fill="none" id="id16" stroke="none" /><text fill="#e1ed5e" style="font-size:6.75px; font-family:Arial;" text-anchor="middle"><textPath startOffset="21.466115282336823" xlink:href="#id16">April</textPath></text><path d="M 120.76222939487914 103.15116336523771 l 28.34454663096208 4.301960798573452 a49.66915050062081,49.66915050062081 0 0,0 -0.13556897947908178,0.8441881646269388 l -28.266295897121708 -4.789228192893596" fill="#c2ff1e" stroke="none" /><path d="M 120.5718875245553 104.21870165774334 l 28.062122008810572 5.7547330305522895 a49.64611044959333,49.64611044959333 0 0,0 -0.1788819367029024,0.835676855412846 l -27.958906033383226 -6.2369237053813045" fill="#c2ff1e" stroke="none" /><path d="M 118.64920377521936 109.65438752849418 l 18.32476952731156 9.486433228966423 a41.63466970020903,41.63466970020903 0 0,0 -0.334955857939779,0.6336102518111945 l -18.158761161146888 -9.80045849586375" fill="#ffd213" stroke="none" /><line stroke="#e1ed5e" stroke-width="0.3" x1="174.80103733775053" x2="179.2010983576182" y1="140.37084112569926" y2="142.7455964860345" /><path d="M 175.68104954172406 140.8457921977663 a86.0,86.0 0 0,1 -30.038265399797805,32.042727171017184" fill="none" id="id17" stroke="none" /><text fill="#e1ed5e" style="font-size:6.75px; font-family:Arial;" text-anchor="middle"><textPath startOffset="22.206326154141568" xlink:href="#id17">May</textPath></text><path d="M 118.30583269289576 110.29060199501025 l 24.99058065812616 14.048425083486142 a49.668578076992794,49.668578076992794 0 0,0 -0.42537117243318273,0.7416704937800814 l -24.7450574895406 -14.476515423124539" fill="#c2ff1e" stroke="none" /><path d="M 118.12598468904814 110.60418214915192 l 24.7674394471044 14.489609462368904 a49.69450886734174,49.69450886734174 0 0,0 -0.4383034959531295,0.7346218703874287 l -24.514355075453047 -14.913793426642437" fill="#c2ff1e" stroke="none" /><path d="M 117.75023020441432 111.22182372390056 l 24.233975573305596 15.320894370446853 a49.670810529142045,49.670810529142045 0 0,0 -0.46310967303457207,0.7187564968666825 l -23.966661036893974 -15.73577246723499" fill="#c2ff1e" stroke="none" /><path d="M 117.35343817320211 111.8261652097733 l 23.67743898945152 16.13589782259918 a49.652893669585275,49.652893669585275 0 0,0 -0.4874001170392009,0.7021362206134366 l -23.396177965250185 -16.541075305399634" fill="#c2ff1e" stroke="none" /><path d="M 116.93607887273984 112.41649034213515 l 19.81403207754165 14.52642844770548 a45.568536598994996,45.568536598994996 0 0,0 -0.46922298251071504,0.628600864397012 l -19.561047828335845 -14.865342191611807" fill="#f7ff18" stroke="none" /><path d="M 115.07121518719521 114.62390073753431 l 10.286895338620068 9.98157975059612 a35.333602130142786,35.333602130142786 0 0,0 -0.4272999767384504,0.4328526204706794 l -10.113554736826083 -10.157172865047464" fill="#ff770b" stroke="none" /><path d="M 113.48314897796784 116.09983520530334 l 9.205694883613905 10.992251944903305 a35.33786668617147,35.33786668617147 0 0,0 -0.469707342172185,0.38653716509466163 l -9.015117412897029 -11.149084228855145" fill="#ff770b" stroke="none" /><path d="M 113.20401910651253 116.32954008644616 l 11.5190537536577 14.245726888982295 a39.32018924506864,39.32018924506864 0 0,0 -0.529965950035832,0.42103700267220595 l -11.272130310904515 -14.441897805659627" fill="#ffb110" stroke="none" /><path d="M 112.34349029814194 116.9893568818739 l 12.153013457921737 16.727188002726333 a41.67594144378869,41.67594144378869 0 0,0 -0.5840043168131958,0.4166715737698927 l -11.863281813259658 -16.933903838340445" fill="#ffd213" stroke="none" /><path d="M 111.7513745106137 117.40417183066458 l 12.842306217747627 19.01987753975677 a43.94952223070762,43.94952223070762 0 0,0 -0.6306239536382199,0.4179431695982574 l -12.513007565369442 -19.238118730446345" fill="#fff116" stroke="none" /><path d="M 111.1453310114006 117.79835938074945 l 15.21506316184277 24.29745351468468 a49.66817738045319,49.66817738045319 0 0,0 -0.7285157968871999,0.4475139043807437 l -14.79456816502326 -24.555755885893802" fill="#c2ff1e" stroke="none" /><line stroke="#e1ed5e" stroke-width="0.3" x1="143.8653032363475" x2="146.44561519142675" y1="172.8068346515853" y2="177.08958963109032" /><path d="M 144.38136562736335 173.6633856474863 a86.0,86.0 0 0,1 -40.68145358897372,12.25698825130547" fill="none" id="id18" stroke="none" /><text fill="#e1ed5e" style="font-size:6.75px; font-family:Arial;" text-anchor="middle"><textPath startOffset="21.466115282336833" xlink:href="#id18">June</textPath></text><path d="M 110.8373102113329 117.98757091392108 l 8.891242394582651 14.757522850842749 a38.22900670417101,38.22900670417101 0 0,0 -0.5665759592861618,0.3347430634549899 l -8.635898564268107 -14.908384486591489" fill="#ffa10e" stroke="none" /><path d="M 110.21172684928248 118.3499491758327 l 13.942111004993443 25.053258094484125 a49.67138295277006,49.67138295277006 0 0,0 -0.7506935167688428,0.4093379599998682 l -13.508794676355953 -25.289536706243762" fill="#c2ff1e" stroke="none" /><path d="M 109.57404056367764 118.69057910512821 l 13.136979312958974 25.64619915888211 a49.815061283401036,49.815061283401036 0 0,0 -0.7665496377273741,0.38436390166594775 l -12.69357576754884 -25.86853090145736" fill="#c0ff1e" stroke="none" /><path d="M 108.92500713936063 119.00905698771935 l 14.616009001359732 31.130120536774136 a55.39058190496223,55.39058190496223 0 0,0 -0.8665513756593406,0.39779123490417917 l -14.07798962993297 -31.37709884201239" fill="#7cff26" stroke="none" /><path d="M 108.2653958097858 119.30500536409082 l 11.284653633298506 26.35691065935537 a49.671068119774645,49.671068119774645 0 0,0 -0.7888913740566965,0.329756658336684 l -10.82929079974435 -26.54725236071203" fill="#c2ff1e" stroke="none" /><path d="M 107.59598834532513 119.57807347666477 l 5.825222071070734 15.014060124973863 a37.104509108123096,37.104509108123096 0 0,0 -0.5974352130251446,0.22589887706704717 l -5.565916637285315 -15.11210725214754" fill="#ff910d" stroke="none" /><path d="M 106.91757812671514 119.82793768551818 l 9.444493033091087 27.070864383625654 a49.671068119774645,49.671068119774645 0 0,0 -0.8097100007016974,0.2746975947147853 l -8.977113299452162 -27.22942496523856" fill="#c2ff1e" stroke="none" /><path d="M 106.2309692047433 120.05430185196036 l 8.930048016231149 28.741255587280175 a51.096603301794005,51.096603301794005 0 0,0 -0.8421815773261938,0.2537424007275596 l -8.43399146446471 -28.890713357113462" fill="#b0ff20" stroke="none" /><path d="M 105.53697534728816 120.25689768951611 l 7.567336566854091 27.684927781369765 a49.700519315435855,49.700519315435855 0 0,0 -0.8271812618084098,0.21846608937709744 l -7.089664862234184 -27.811085220050447" fill="#c2ff1e" stroke="none" /><path d="M 104.48393922423573 120.51570834832081 l 6.120448797112156 28.003355131064723 a49.664399384508314,49.664399384508314 0 0,0 -0.8367470745343135,0.1753484850080829 l -5.637510261148465 -28.104559596799348" fill="#c2ff1e" stroke="none" /><path d="M 104.13013068566511 120.58985236759428 l 8.45263467997899 42.13873928542485 a63.97813841475909,63.97813841475909 0 0,0 -1.0816338617454093,0.20729770391379543 l -7.726033203661876 -42.277994187687106" fill="#32ff46" stroke="none" /><path d="M 103.41894727170886 120.7198165907248 l 4.665013183345442 28.27133906160507 a49.65363782030169,49.65363782030169 0 0,0 -0.8444999367039774,0.13189352209477115 l -4.177677383032947 -28.347450891046947" fill="#c2ff1e" stroke="none" /><path d="M 102.70371172650421 120.8252237178851 l 3.8729629767246077 29.831331369657622 a51.0816916662843,51.0816916662843 0 0,0 -0.8729437296749656,0.10570132872252534 l -3.358891823998262 -29.893578227105497" fill="#b0ff20" stroke="none" /><path d="M 102.34483914955558 120.86867818915974 l 3.199139538858627 28.47180947627507 a49.65097605043143,49.65097605043143 0 0,0 -0.8501367873548115,0.08812015400893303 l -2.708570154898213 -28.52265899873976" fill="#c2ff1e" stroke="none" /><path d="M 101.62511606390274 120.93702456842531 l 3.327094064253141 42.86429241087076 a63.99322177735719,63.99322177735719 0 0,0 -1.09896851574513,0.07579130311139932 l -2.5887627877290806 -42.91521205849844" fill="#32ff46" stroke="none" /><path d="M 100.90346689309514 120.98055641714683 l 0.73918630461923 17.165587455801617 a38.181495543046026,38.181495543046026 0 0,0 -0.6568665372536905,0.022623811687396356 l -0.44359941569088723 -17.175768065915108" fill="#ffa10e" stroke="none" /><line stroke="#e1ed5e" stroke-width="0.3" x1="102.19456741930631" x2="102.32365962044197" y1="184.97166512339345" y2="189.96999836594603" /><path d="M 102.22038585953345 185.97133177190398 a86.0,86.0 0 0,1 -42.740103519485714,-10.115201625700543" fill="none" id="id19" stroke="none" /><text fill="#e1ed5e" style="font-size:6.75px; font-family:Arial;" text-anchor="middle"><textPath startOffset="22.20632615414155" xlink:href="#id19">July</textPath></text><path d="M 100.18074693466247 120.99922214144158 l 0.057140848545568126 6.638637464030258 a27.638883374137446,27.638883374137446 0 0,0 -0.4757755664160426,0.0 l 0.057140848545563554 -6.638637464030258" fill="#ff0000" stroke="none" /><path d="M 99.09653310690486 120.98055641714683 l -1.0129541758561125 23.52310017883048 a44.54490004620276,44.54490004620276 0 0,0 -0.7657733527622727,-0.03958173536288311 l 1.417715597031874 -23.502178636705395" fill="#fff917" stroke="none" /><path d="M 98.37488393609728 120.93702456842531 l -2.5301890464659818 32.597444210477036 a53.69549243651209,53.69549243651209 0 0,0 -0.9208922244131381,-0.07945845603476127 l 3.090925588620662 -32.54906150216361" fill="#90ff24" stroke="none" /><path d="M 97.65516085044442 120.86867818915974 l -1.6029812994842545 14.266266787859701 a35.35604113636085,35.35604113636085 0 0,0 -0.6042054092050906,-0.073160860664066 l 1.8483141317407346 -14.236560398470285" fill="#ff770b" stroke="none" /><path d="M 97.2962882734958 120.8252237178851 l -3.1633348711197806 24.36545129418569 a45.56993903688362,45.56993903688362 0 0,0 -0.7770139176412925,-0.10768704881813596 l 3.582277379947904 -24.307389679874948" fill="#f7ff18" stroke="none" /><path d="M 96.58105272829116 120.7198165907248 l -6.996252328716369 42.39932749854329 a63.97267176911157,63.97267176911157 0 0,0 -1.084949183250002,-0.18863232246440415 l 7.72505048343842 -42.272616597557885" fill="#32ff46" stroke="none" /><path d="M 96.22490169976321 120.6578951692458 l -5.155797918576629 28.213287296145623 a49.68051310963685,49.68051310963685 0 0,0 -0.8399138608865022,-0.1609714904507309 l 5.640679394034826 -28.120358607346425" fill="#c2ff1e" stroke="none" /><path d="M 95.86986931433489 120.58985236759428 l -2.848560740935365 14.200869071662103 a35.4837488477703,35.4837488477703 0 0,0 -0.5978311106112519,-0.12528132183160254 l 3.0925833129760036 -14.14973176910396" fill="#ff790b" stroke="none" /><path d="M 94.81253420990036 120.34920634021253 l -7.075630779958698 27.75603282113844 a49.64370627035568,49.64370627035568 0 0,0 -0.8262357045594527,-0.2182163591136122 l 7.55235692732964 -27.630125112721245" fill="#c2ff1e" stroke="none" /><path d="M 94.11515582081647 120.15858648285463 l -4.018736177280036 13.766216796026676 a35.34081466785574,35.34081466785574 0 0,0 -0.5824923990578144,-0.1755001815781093 l 4.255103550778095 -13.69500124534284" fill="#ff770b" stroke="none" /><path d="M 93.76903079525671 120.05430185196036 l -17.96311577711054 57.81407902347796 a81.54041015515861,81.54041015515861 0 0,0 -1.3367915585214778,-0.427998442552528 l 18.95562868072296 -57.49630773426573" fill="#4aebff" stroke="none" /><path d="M 93.42475214034765 119.94407469862007 l -7.219880939905163 21.899378982228228 a44.058826522476494,44.058826522476494 0 0,0 -0.7182223738053246,-0.24366002443305604 l 7.5957730466477145 -21.77185597089705" fill="#fff316" stroke="none" /><path d="M 93.08242187328487 119.8279376855182 l -2.8716456321472106 8.231032538571892 a29.717582536899744,29.717582536899744 0 0,0 -0.4815386686989813,-0.17266263427024509 l 3.0129038614759187 -8.180382363261689" fill="#ff2103" stroke="none" /><path d="M 92.7421414339146 119.70592522655815 l -11.097290994798891 30.130428220622196 a53.10907305079533,53.10907305079533 0 0,0 -0.8551313879186395,-0.323337520226611 l 11.614292603477814 -29.93494245028895" fill="#98ff23" stroke="none" /><path d="M 92.06813273071674 119.44442032107085 l -5.4196668530557535 13.285935923195797 a35.3488285986479,35.3488285986479 0 0,0 -0.5614211052848286,-0.23467406754165898 l 5.647559417838044 -13.190676812634164" fill="#ff770b" stroke="none" /><path d="M 91.40352486487194 119.15986991738527 l -16.18644618772843 36.07643813385075 a60.54124970981302,60.54124970981302 0 0,0 -0.9471303859957146,-0.43478110639872725 l 16.80504456949156 -35.792469957117945" fill="#42ff2d" stroke="none" /><path d="M 90.7491055286396 118.85261126421891 l -13.490651542696652 27.492910012418943 a51.62446375036515,51.62446375036515 0 0,0 -0.7943925585192134,-0.39832492016053017 l 13.961898008898626 -27.25661725134911" fill="#aaff21" stroke="none" /><path d="M 90.10565033884886 118.52300852407294 l -13.711031346996952 25.668139818368637 a50.10061481023476,50.10061481023476 0 0,0 -0.7571805834345072,-0.4128752259759167 l 14.150834742300098 -25.428323940632954" fill="#bdff1f" stroke="none" /><line stroke="#e1ed5e" stroke-width="0.3" x1="58.666819895761336" x2="56.23545636021788" y1="174.27360380694188" y2="178.64263932499728" /><path d="M 58.180547188652646 175.14741091055294 a86.0,86.0 0 0,1 -31.652253787137756,-30.449443065178592" fill="none" id="id20" stroke="none" /><text fill="#e1ed5e" style="font-size:6.75px; font-family:Arial;" text-anchor="middle"><textPath startOffset="22.20632615414155" xlink:href="#id20">August</textPath></text><path d="M 89.7882731507175 118.34994917583269 l -14.209678775195512 25.534063648408992 a50.221625165196464,50.221625165196464 0 0,0 -0.7517728475190685,-0.4268762428874359 l 14.647100389635787 -25.285684239726923" fill="#bbff1f" stroke="none" /><path d="M 89.4739219176387 118.17145234162733 l -14.367465567768951 24.80294310871369 a49.6637410973361,49.6637410973361 0 0,0 -0.7360453273532929,-0.4348685532481785 l 14.792278766150627 -24.551955983171766" fill="#c2ff1e" stroke="none" /><path d="M 89.1626897886671 117.98757091392108 l -14.792323077096547 24.552029529676062 a49.6638269608803,49.6638269608803 0 0,0 -0.7284519864244632,-0.4474747067827758 l 15.21275426345332 -24.293766356064907" fill="#c2ff1e" stroke="none" /><path d="M 88.54995079064634 117.60387380957326 l -15.622482228480841 24.018779370643557 a49.65246435186426,49.65246435186426 0 0,0 -0.7124544656728002,-0.4721759708933362 l 16.033611392893604 -23.746305378658903" fill="#c2ff1e" stroke="none" /><path d="M 87.95078237400918 117.19931262002967 l -20.59187533421526 29.39328612854421 a56.888585918287895,56.888585918287895 0 0,0 -0.7971788663367981,-0.5687659547196517 l 21.094781528400944 -29.03447591198034" fill="#6bff28" stroke="none" /><path d="M 87.36589467227662 116.77436683061367 l -17.37834843508128 23.073322882674095 a49.8857269802791,49.8857269802791 0 0,0 -0.6814658061361638,-0.522518920952499 l 17.77294296971093 -22.77076461989423" fill="#bfff1e" stroke="none" /><path d="M 87.07902340077011 116.55440617244103 l -37.25079714581079 47.72586820068334 a81.54238501667524,81.54238501667524 0 0,0 -1.099045766901252,-0.8731484267326877 l 38.066800405429404 -47.077585859945515" fill="#4aebff" stroke="none" /><path d="M 86.51685102203217 116.09983520530335 l -22.083630550428992 26.369419575329513 a55.39524715753053,55.39524715753053 0 0,0 -0.7257688060277773,-0.6185159217148707 l 22.534264833033827 -25.98537926339169" fill="#7cff26" stroke="none" /><path d="M 85.97065885151581 115.62618273729859 l -31.750891597141706 35.364827821775556 a68.526731047667,68.526731047667 0 0,0 -0.8709435900088572,-0.79558631959988 l 32.354934736617416 -34.8130487355891" fill="#38ff80" stroke="none" /><path d="M 85.70375840098266 115.38237550388516 l -24.953167452636084 26.84894411648424 a57.65414527839096,57.65414527839096 0 0,0 -0.7211275220694849,-0.6818710826271643 l 25.411630809096387 -26.415438397111146" fill="#62ff29" stroke="none" /><path d="M 85.18274418774928 114.88116024355367 l -20.21580047721318 20.302987959780754 a49.65117639870124,49.65117639870124 0 0,0 -0.6004467487367441,-0.608249386362322 l 20.562287851005454 -19.951998079437768" fill="#c2ff1e" stroke="none" /><path d="M 84.67929136418377 114.36230785411682 l -25.072890966930643 23.50443360158436 a55.367255642120746,55.367255642120746 0 0,0 -0.6458289594741057,-0.7009197827405238 l 25.47376633440048 -23.069362564042493" fill="#7dff26" stroke="none" /><path d="M 83.95833913139862 113.55231037782056 l -27.364683758233348 23.118222652890243 a56.82287168579213,56.82287168579213 0 0,0 -0.624791827132653,-0.7526020046605847 l 27.758571585259535 -22.643759391115896" fill="#6cff28" stroke="none" /><path d="M 83.50135304334701 112.99209946851258 l -48.69848931493737 38.348333582035494 a82.98497842280935,82.98497842280935 0 0,0 -0.8740815000205293,-1.1298681661484806 l 49.35137763217597 -37.50438742177376" fill="#4cdcff" stroke="none" /><path d="M 83.06392112726016 112.41649034213515 l -28.257300242158543 20.71651284739292 a56.037821301155255,56.037821301155255 0 0,0 -0.5636342976213629,-0.7828387425473012 l 28.609714332155512 -20.22704049939448" fill="#75ff27" stroke="none" /><path d="M 82.6465618267979 111.8261652097733 l -38.93830275059181 26.535998038001356 a68.12059648359258,68.12059648359258 0 0,0 -0.6520013500367061,-0.9746535536000159 l 39.38930720603924 -25.86180757019552" fill="#37ff7a" stroke="none" /><path d="M 82.24976979558568 111.22182372390057 l -30.645660958966744 19.374408175192087 a57.25636809928552,57.25636809928552 0 0,0 -0.5194934631953105,-0.8375888729905412 l 30.97461906183001 -18.84402297083628" fill="#67ff28" stroke="none" /><line stroke="#e1ed5e" stroke-width="0.3" x1="26.63291911575756" x2="22.317208475507996" y1="142.92168965132927" y2="145.44649492493687" /><path d="M 25.769776987707644 143.4266507060508 a86.0,86.0 0 0,1 -11.730757126820373,-40.83630448921669" fill="none" id="id21" stroke="none" /><text fill="#e1ed5e" style="font-size:6.75px; font-family:Arial;" text-anchor="middle"><textPath startOffset="21.46611528233685" xlink:href="#id21">September</textPath></text><path d="M 81.02952815118164 109.00673069616217 l -31.053099225166047 14.743275983390669 a55.37526957291291,55.37526957291291 0 0,0 -0.401405791825455,-0.864592364856357 l 31.30227963383133 -14.206563551255485" fill="#7dff26" stroke="none" /><path d="M 80.73074385275274 108.34839909993369 l -42.0384751604282 18.21315599886504 a66.81432576446949,66.81432576446949 0 0,0 -0.4481301060106246,-1.0592471951157996 l 42.34575624763113 -17.486834278083084" fill="#36ff6a" stroke="none" /><path d="M 80.45479744820244 107.68017299344265 l -26.661593888175187 10.47651733459608 a49.64608182841194,49.64608182841194 0 0,0 -0.3056915417229716,-0.7980641535402133 l 26.837979709491666 -10.01602961422271" fill="#c2ff1e" stroke="none" /><path d="M 80.32549172779594 107.34259656027581 l -42.91971803418058 16.017791634010578 a66.81126329805963,66.81126329805963 0 0,0 -0.3928366718524972,-1.0809178043009577 l 43.189078967038306 -15.276626032703502" fill="#36ff6a" stroke="none" /><path d="M 80.0844068197444 106.66101706037122 l -33.960413591112186 11.358481379903232 a56.80956283644085,56.80956283644085 0 0,0 -0.30219373262903554,-0.9300566759499268 l 34.15089957475747 -10.772225803975502" fill="#6cff28" stroke="none" /><path d="M 79.86692584326677 105.97154293290107 l -60.399222470199675 17.914628798703227 a84.0,84.0 0 0,0 -0.3992294524555837,-1.389770097981616 l 60.698644559541364 -16.872301225217015" fill="#4dd2ff" stroke="none" /><line stroke="#e1ed5e" stroke-width="0.3" x1="15.007084014347285" x2="10.007500721073583" y1="101.09737516637583" y2="101.16192664675087" /><path d="M 14.007167355692545 101.11028546245083 a86.0,86.0 0 0,1 10.666146001902534,-42.60595125391555" fill="none" id="id22" stroke="none" /><text fill="#e1ed5e" style="font-size:6.75px; font-family:Arial;" text-anchor="middle"><textPath startOffset="22.20632615414155" xlink:href="#id22">October</textPath></text><line stroke="#e1ed5e" stroke-width="0.3" x1="26.266209847984243" x2="21.928928074336255" y1="57.711370442889674" y2="55.22380399835377" /><path d="M 25.398753493254645 57.213857153982495 a86.0,86.0 0 0,1 29.58750427330803,-30.492523968695096" fill="none" id="id23" stroke="none" /><text fill="#e1ed5e" style="font-size:6.75px; font-family:Arial;" text-anchor="middle"><textPath startOffset="21.46611528233685" xlink:href="#id23">November</textPath></text><line stroke="#e1ed5e" stroke-width="0.3" x1="56.762969772571076" x2="54.21961505331055" y1="26.818313649435495" y2="22.513508569990535" /><path d="M 56.25429882871897 25.957352633546506 a86.0,86.0 0 0,1 42.265352541879196,-11.944610805530505" fill="none" id="id24" stroke="none" /><text fill="#e1ed5e" style="font-size:6.75px; font-family:Arial;" text-anchor="middle"><textPath startOffset="22.20632615414155" xlink:href="#id24">December</textPath></text></svg>