<?xml version="1.0" encoding="utf-8" ?>
<svg baseProfile="full" height="200mm" version="1.1" viewBox="0,0,200,200" width="200mm" xmlns="http://www.w3.org/2000/svg" xmlns:ev="http://www.w3.org/2001/xml-events" xmlns:xlink="http://www.w3.org/1999/xlink"><defs /><rect fill="#1a1a1a" height="200" width="200" x="0" y="0" /><text alignment-baseline="middle" fill="#e1ed5e" style="dominant-baseline: central; font-size:9.0px; font-family:Arial;" text-anchor="middle" x="100.0" y="100.0">2025</text><line stroke="#e1ed5e" stroke-width="0.3" x1="100.0" x2="100.0" y1="15.0" y2="10.0" /><path d="M 100.0 14.0 a86.0,86.0 0 0,1 42.46469731375804,11.215312516191453" fill="none" id="id13" stroke="none" /><text fill="#e1ed5e" style="font-size:6.75px; font-family:Arial;" text-anchor="middle"><textPath startOffset="22.20632615414155" xlink:href="#id13">January</textPath></text><path d="M 100.0 79.0 l 0.0 -62.87920011345909 a83.87920011345909,83.87920011345909 0 0,0 1.4438425456195005,0.012427608627506907 l -1.082362066346972 62.869883881440146" fill="#4dd3ff" stroke="none" /><path d="M 102.16513564639614 79.11191278185805 l 2.6402617825000507 -25.47185368426462 a46.608325060275135,46.608325060275135 0 0,0 0.7972982026329961,0.08958574292334796 l -3.0783266886427723 25.422631987870673" fill="#ecff1a" stroke="none" /><path d="M 102.52436894288641 79.15227682838746 l 3.5845895782693225 -29.603648635511266 a50.819880867961984,50.819880867961984 0 0,0 0.867532323340489,0.11263059391398851 l -4.093636630117658 29.537559718433144" fill="#b6ff1f" stroke="none" /><path d="M 102.88285421437855 79.19881850522331 l 2.5028620562671673 -18.05935507565238 a39.231967096865695,39.231967096865695 0 0,0 0.6681223044115003,0.09846386015334285 l -2.8133533411073235 18.01359673133807" fill="#ffad10" stroke="none" /><path d="M 103.59715602781102 79.31037775812273 l 4.092768726420851 -23.540218499931292 a44.89335980711955,44.89335980711955 0 0,0 0.7602046560711736,0.1389225417911317 l -4.497368503594926 23.46628047678942" fill="#fffc17" stroke="none" /><path d="M 103.95276090670814 79.375362276772 l 4.49348918073655 -23.446039022663108 a44.87274996454404,44.87274996454404 0 0,0 0.757352851762727,0.15191785725788912 l -4.896408441966402 23.36521720932801" fill="#fffb17" stroke="none" /><path d="M 104.66035177308747 79.52364482259891 l 7.014923289179455 -30.82172072094462 a52.60992908807261,52.60992908807261 0 0,0 0.881282232560251,0.20857103136005084 l -7.54442920870223 30.6964037774437" fill="#9fff22" stroke="none" /><path d="M 105.01212808612495 79.60689891045804 l 4.270537851104286 -17.375755090013445 a38.89285775067366,38.89285775067366 0 0,0 0.648753445890415,0.165381698455504 l -4.569000185679726 17.299670395389075" fill="#ffa80f" stroke="none" /><path d="M 105.36241919743992 79.69619591428918 l 8.050906962621315 -30.48326355376838 a52.52850234009361,52.52850234009361 0 0,0 0.872228554376566,0.23841301253564057 l -8.574433406221592 30.340164000406446" fill="#a0ff22" stroke="none" /><path d="M 106.0581310904928 79.89281104454417 l 12.032310969972665 -39.93574035129775 a62.70899021415402,62.70899021415402 0 0,0 1.030860032593638,0.320293230096357 l -12.717956375277021 39.722706986318876" fill="#30ff34" stroke="none" /><path d="M 106.40334571778207 80.00007090966166 l 4.8687313802016305 -15.206781994220565 a36.96717770529003,36.96717770529003 0 0,0 0.6043555771163428,0.1992465318623225 l -5.129769779560391 15.120721738099007" fill="#ff8c0c" stroke="none" /><path d="M 107.08798089147638 80.2323363322302 l 6.4216141841794325 -17.909234144478354 a40.02571408310878,40.02571408310878 0 0,0 0.6465442685982854,0.23812771053628473 l -6.728940778550294 17.796043166135746" fill="#ffb811" stroke="none" /><path d="M 107.4271985657038 80.35727306442388 l 10.545505408132808 -27.889719292830705 a50.81684300099277,50.81684300099277 0 0,0 0.8155300758525431,0.31641299941087647 l -11.024018648985018 27.70406358952928" fill="#b6ff1f" stroke="none" /><path d="M 107.76421540070413 80.48803036053334 l 12.672320505623794 -31.846351525087535 a55.275031910367325,55.275031910367325 0 0,0 0.8810211804484073,0.35939066062933 l -13.218625555660589 31.623499978274623" fill="#7fff26" stroke="none" /><line stroke="#e1ed5e" stroke-width="0.3" x1="143.23703022742887" x2="145.7803849466894" y1="26.81831364943548" y2="22.513508569990506" /><path d="M 143.74570117128098 25.957352633546492 a86.0,86.0 0 0,1 28.547481713284135,27.462654790039103" fill="none" id="id14" stroke="none" /><text fill="#e1ed5e" style="font-size:6.75px; font-family:Arial;" text-anchor="middle"><textPath startOffset="19.985693538727396" xlink:href="#id14">February</textPath></text><path d="M 111.2981086023043 82.29822771554956 l 16.045573516524293 -25.140056496269796 a50.82419940433981,50.82419940433981 0 0,0 0.7334003956014242,0.4770240181583834 l -16.475940937909996 24.860133553951886" fill="#b5ff1f" stroke="none" /><path d="M 111.60114157652 82.49532879139004 l 19.76338625607502 -29.820477243510137 a56.775023400936036,56.775023400936036 0 0,0 0.8099776421847223,0.5469005196654098 l -20.273768592666283 29.475864811546057" fill="#6eff28" stroke="none" /><path d="M 111.90073688211348 82.69761687909136 l 25.332586013550163 -36.830837702881446 a65.70179549000142,65.70179549000142 0 0,0 0.9262978913348925,0.6489308686785901 l -25.96281504446871 36.38932199143892" fill="#34ff5b" stroke="none" /><path d="M 112.19680574252982 82.90503203632743 l 8.894171600992097 -12.466016249827517 a36.31364912778329,36.31364912778329 0 0,0 0.5057188937002561,0.36742628348905626 l -9.107435811046141 12.311070731521784" fill="#ff820c" stroke="none" /><path d="M 113.06298171725822 83.55741782278167 l 18.549341406385572 -23.348350094130673 a50.81985108495249,50.81985108495249 0 0,0 0.6802517821637525,0.5500496328359337 l -18.948496587113816 23.02559436403061" fill="#b6ff1f" stroke="none" /><path d="M 113.6212207817346 84.01681056812373 l 19.34375623385504 -22.6980331031952 a50.822501772798184,50.822501772798184 0 0,0 0.6609495429731908,0.5731689305614013 l -19.731599575474995 22.361699179214128" fill="#b5ff1f" stroke="none" /><path d="M 113.89432698308785 84.25364557470407 l 19.72129361460114 -22.350019497800954 a50.806925258828535,50.806925258828535 0 0,0 0.650785935650316,0.5842820386376815 l -20.103090537847446 22.007238450393974" fill="#b6ff1f" stroke="none" /><path d="M 114.16331599549186 84.49514656593476 l 20.099856537173395 -22.00369812788244 a50.802130194298684,50.802130194298684 0 0,0 0.6405715981846695,0.5953414884979018 l -20.475636019152912 21.654452053309896" fill="#b6ff1f" stroke="none" /><path d="M 114.68862486808459 84.99185889309783 l 20.857763984784107 -21.3114752313041 a50.819880867961984,50.819880867961984 0 0,0 0.6199159103873084,0.6172537944594777 l -21.221515695338738 20.949285586194502" fill="#b6ff1f" stroke="none" /><path d="M 115.4437574822437 85.77008943001954 l 21.936794116169686 -20.212608157313372 a50.82905403488867,50.82905403488867 0 0,0 0.5873330096684233,0.6485477787797096 l -22.281470766454145 19.832007591264112" fill="#b5ff1f" stroke="none" /><path d="M 115.68641384162765 86.03803664274999 l 22.279824482772 -19.830542288061114 a50.82685009218551,50.82685009218551 0 0,0 0.5760573271737689,0.658533106537545 l -22.61787367352362 19.44409362532062" fill="#b5ff1f" stroke="none" /><path d="M 115.9244219780498 86.31012108654704 l 22.62340690765299 -19.448850426247855 a50.834146929513544,50.834146929513544 0 0,0 0.5647174738615218,0.6684473679916284 l -22.95483499500163 19.056544108627122" fill="#b5ff1f" stroke="none" /><path d="M 116.38621287248628 86.86637796730983 l 27.91977348301843 -22.377821832156634 a56.781009785845974,56.781009785845974 0 0,0 0.6047067208742213,0.767916126581296 l -28.300834284486616 21.8939133116223" fill="#6eff28" stroke="none" /><path d="M 117.04232023915458 87.72973835380427 l 24.22419230487881 -17.441121489181064 a50.84969366047369,50.84969366047369 0 0,0 0.5053185406561599,0.71473723975325 l -24.52082346533885 17.021557749096022" fill="#b5ff1f" stroke="none" /><path d="M 117.2510076193507 88.02491185347247 l 24.537435909209986 -17.03308956706722 a50.86991632392568,50.86991632392568 0 0,0 0.4931366855728568,0.7236172362072427 l -24.826997060451575 16.60819430758957" fill="#b5ff20" stroke="none" /><path d="M 117.45458315368197 88.32363383020206 l 24.790904616488927 -16.58405001333973 a50.82649269607148,50.82649269607148 0 0,0 0.48019748399316364,0.7313737125773092 l -25.072698735840017 16.154858236784747" fill="#b5ff1f" stroke="none" /><line stroke="#e1ed5e" stroke-width="0.3" x1="172.23445277983987" x2="176.4835382374775" y1="55.19839476539836" y2="52.563006222186495" /><path d="M 173.08426987136738 54.67131705675599 a86.0,86.0 0 0,1 12.851231095245387,41.99856678651699" fill="none" id="id15" stroke="none" /><text fill="#e1ed5e" style="font-size:6.75px; font-family:Arial;" text-anchor="middle"><textPath startOffset="22.20632615414155" xlink:href="#id15">March</textPath></text><path d="M 117.84615892207809 88.93136811851018 l 37.988197968708306 -23.561225751307454 a65.70161679194442,65.70161679194442 0 0,0 0.5878236105837572,0.9662274579881526 l -38.38813737757828 22.90383052011222" fill="#34ff5b" stroke="none" /><path d="M 118.3937258080291 89.86733742301442 l 26.127516648586955 -14.393022541367989 a50.829619912069205,50.829619912069205 0 0,0 0.41557305041457765,0.769993747810111 l -26.37139779822 13.941147810225418" fill="#b5ff1f" stroke="none" /><path d="M 118.56541770881063 90.18545643968196 l 26.367421939371567 -13.939045986260581 a50.825122677634376,50.825122677634376 0 0,0 0.402221711785842,0.7769643225707132 l -26.603453084317525 13.483108941429522" fill="#b5ff1f" stroke="none" /><path d="M 118.73160827565052 90.50648371742162 l 26.61710795122106 -13.490029473792655 a50.840431144518504,50.840431144518504 0 0,0 0.38890505716659995,0.7840088639396037 l -26.84537302134107 13.029861021354101" fill="#b5ff1f" stroke="none" /><path d="M 119.34039704204932 91.81776055985345 l 17.517637994204623 -7.41109441459548 a40.02082966955042,40.02082966955042 0 0,0 0.26295269367711377,0.6367608049597012 l -17.642612374767936 7.108459039182476" fill="#ffb811" stroke="none" /><path d="M 119.7369772167798 92.82701384747503 l 28.03196603749868 -10.187624072650896 a50.82580768685293,50.82580768685293 0 0,0 0.29175688247634385,0.8248359951649475 l -28.203176000784833 9.703590451059334" fill="#b5ff1f" stroke="none" /><path d="M 120.18372546131832 94.20196356495316 l 28.67809398290104 -8.238153760029267 a50.83789958871082,50.83789958871082 0 0,0 0.23437053508600267,0.8431555135557283 l -28.815651288553408 7.743286943054588" fill="#b5ff1f" stroke="none" /><path d="M 120.37134235888165 94.90015583598534 l 28.916616323101113 -7.239102578535908 a50.808980286484186,50.808980286484186 0 0,0 0.20509214192802347,0.8502393350950781 l -29.036941265289954 6.740278011781423" fill="#b6ff1f" stroke="none" /><path d="M 120.73433829027371 96.67025291283417 l 29.43899637374709 -4.72763639968931 a50.816187774783714,50.816187774783714 0 0,0 0.13126089069828162,0.8648452674075392 l -29.516013157884675 4.220192019889689" fill="#b6ff1f" stroke="none" /><path d="M 120.83666639777658 97.38593545837742 l 29.6012461929599 -3.7136251348302873 a50.83328322223798,50.83328322223798 0 0,0 0.10144785502440858,0.8691432686881312 l -29.660784400987897 3.203538127817304" fill="#b5ff1f" stroke="none" /><path d="M 120.94382443527127 98.46500227214037 l 29.746498102646026 -2.180156119072774 a50.82628421500496,50.82628421500496 0 0,0 0.05643994806359622,0.8731010156315273 l -29.779618641714038 1.6677960391882116" fill="#b5ff1f" stroke="none" /><line stroke="#e1ed5e" stroke-width="0.3" x1="184.98032266829074" x2="189.97916517819016" y1="98.17113171792111" y2="98.06355123074" /><path d="M 185.9800911702706 98.14961562048488 a86.0,86.0 0 0,1 -9.607161424134198,41.387399972396054" fill="none" id="id16" stroke="none" /><text fill="#e1ed5e" style="font-size:6.75px; font-family:Arial;" text-anchor="middle"><textPath startOffset="21.466115282336823" xlink:href="#id16">April</textPath></text><path d="M 120.76222939487914 103.15116336523771 l 29.495145215352387 4.476591568625504 a50.832925826123954,50.832925826123954 0 0,0 -0.13874543471600848,0.8639679544194447 l -29.413718026275088 -4.983638752738154" fill="#b5ff1f" stroke="none" /><path d="M 120.5718875245553 104.21870165774334 l 29.201256046786526 5.988336614504653 a50.808950503474684,50.808950503474684 0 0,0 -0.18307181339274303,0.8552505644260087 l -29.09385019466934 -6.49010099834683" fill="#b6ff1f" stroke="none" /><path d="M 118.64920377521936 109.65438752849418 l 19.068632329278966 9.871518825369607 a42.47229896468586,42.47229896468586 0 0,0 -0.3416946847621975,0.6463575725660154 l -18.895885136291874 -10.198291413021757" fill="#ffda14" stroke="none" /><line stroke="#e1ed5e" stroke-width="0.3" x1="174.80103733775053" x2="179.2010983576182" y1="140.37084112569926" y2="142.7455964860345" /><path d="M 175.68104954172406 140.8457921977663 a86.0,86.0 0 0,1 -30.038265399797805,32.042727171017184" fill="none" id="id17" stroke="none" /><text fill="#e1ed5e" style="font-size:6.75px; font-family:Arial;" text-anchor="middle"><textPath startOffset="22.206326154141568" xlink:href="#id17">May</textPath></text><path d="M 118.30583269289576 110.29060199501025 l 26.005030707467306 14.61869696768399 a50.83233016593391,50.83233016593391 0 0,0 -0.4353377672031617,0.759048091848313 l -25.749540944111764 -15.064164905390617" fill="#b5ff1f" stroke="none" /><path d="M 118.12598468904814 110.60418214915192 l 25.772831459114283 15.077790474851874 a50.8593135725429,50.8593135725429 0 0,0 -0.44857702488074586,0.7518408958023935 l -25.509473558535312 -15.519193464540372" fill="#b5ff20" stroke="none" /><path d="M 117.75023020441432 111.22182372390056 l 25.21771252813613 15.942819977645433 a50.83465324067508,50.83465324067508 0 0,0 -0.47396085125896426,0.7355977664440033 l -24.939546813500115 -16.374539344010888" fill="#b5ff1f" stroke="none" /><path d="M 117.35343817320211 111.8261652097733 l 24.638584289743314 16.790907106546193 a50.81600907672671,50.81600907672671 0 0,0 -0.4988174291770046,0.7185837102913201 l -24.345905953404174 -17.212532079024534" fill="#b6ff1f" stroke="none" /><path d="M 116.93607887273984 112.41649034213515 l 20.61834895571603 15.116104064175543 a46.56585448872501,46.56585448872501 0 0,0 -0.47949244713821704,0.6423584904774756 l -20.355095241882722 -15.468775434162334" fill="#ecff1a" stroke="none" /><path d="M 115.07121518719521 114.62390073753431 l 10.704474330744725 10.386764976542526 a35.9154502907389,35.9154502907389 0 0,0 -0.4343364431754778,0.43998052382178493 l -10.524097262513711 -10.569485994344976" fill="#ff7c0b" stroke="none" /><path d="M 113.48314897796784 116.09983520530334 l 9.579384385136748 11.438463686856222 a35.91988795915473,35.91988795915473 0 0,0 -0.47744350993942647,0.39290350449148126 l -9.38107074665263 -11.601662310204883" fill="#ff7c0b" stroke="none" /><path d="M 113.20401910651253 116.32954008644616 l 11.986650117608594 14.824007903862569 a40.0638661182811,40.0638661182811 0 0,0 -0.5399893865502213,0.4290002268495484 l -11.72970323834102 -15.028142044717244" fill="#ffb911" stroke="none" /><path d="M 112.34349029814194 116.9893568818739 l 12.64634433609096 17.406199704248618 a42.51524606438803,42.51524606438803 0 0,0 -0.5957654793585552,0.42506285096777335 l -12.34485152888352 -17.62130681706061" fill="#ffdb14" stroke="none" /><path d="M 111.7513745106137 117.40417183066458 l 13.363617761263598 19.791957067344484 a44.881118990214155,44.881118990214155 0 0,0 -0.6439912714577999,0.4268022989515131 l -13.020951791065833 -20.019057387387317" fill="#fffb17" stroke="none" /><path d="M 111.1453310114006 117.79835938074945 l 15.832692731415857 25.283767248408232 a50.83191320380088,50.83191320380088 0 0,0 -0.7455850749526756,0.4579992491113321 l -15.395128456530873 -25.55255496434794" fill="#b5ff1f" stroke="none" /><line stroke="#e1ed5e" stroke-width="0.3" x1="143.8653032363475" x2="146.44561519142675" y1="172.8068346515853" y2="177.08958963109032" /><path d="M 144.38136562736335 173.6633856474863 a86.0,86.0 0 0,1 -40.68145358897372,12.25698825130547" fill="none" id="id18" stroke="none" /><text fill="#e1ed5e" style="font-size:6.75px; font-family:Arial;" text-anchor="middle"><textPath startOffset="21.466115282336833" xlink:href="#id18">June</textPath></text><path d="M 110.8373102113329 117.98757091392108 l 9.25216723299594 15.356579350929414 a38.92838888100979,38.92838888100979 0 0,0 -0.5769412070891302,0.34086703455924794 l -8.986458154878429 -15.51356495778241" fill="#ffa80f" stroke="none" /><path d="M 110.21172684928248 118.3499491758327 l 14.508067250285253 26.070252427580638 a50.835248900865125,50.835248900865125 0 0,0 -0.7682832549578067,0.41892928773397914 l -14.057161183458797 -26.31612236707439" fill="#b5ff1f" stroke="none" /><path d="M 109.57404056367764 118.69057910512821 l 13.67025260878739 26.687262924388527 a50.984759608566165,50.984759608566165 0 0,0 -0.7845488492972374,0.39338908000458006 l -13.208849851807392 -26.91861984530241" fill="#b3ff20" stroke="none" /><path d="M 108.92500713936063 119.00905698771935 l 15.209320987801254 32.393794748531896 a56.78660899163239,56.78660899163239 0 0,0 -0.8883913555044224,0.4078168984676893 l -14.649461636529413 -32.65079871733366" fill="#6eff28" stroke="none" /><path d="M 108.2653958097858 119.30500536409082 l 11.742734923673604 27.426824547497418 a50.8349212877606,50.8349212877606 0 0,0 -0.8073760525556304,0.3374832554483902 l -11.268887411620511 -27.624892845965782" fill="#b5ff1f" stroke="none" /><path d="M 107.59598834532513 119.57807347666477 l 6.061687037541983 15.623530318682148 a37.758244220677916,37.758244220677916 0 0,0 -0.6079612753722597,0.22987893316737443 l -5.791855541409449 -15.725557501956153" fill="#ff970e" stroke="none" /><path d="M 106.91757812671514 119.82793768551818 l 9.827876138689552 28.169760006955105 a50.8349212877606,50.8349212877606 0 0,0 -0.828682484788292,0.2811340914109303 l -9.341523920964033 -28.334757085264158" fill="#b5ff1f" stroke="none" /><path d="M 106.2309692047433 120.05430185196036 l 9.292548102748295 29.907957895942292 a52.31832364203659,52.31832364203659 0 0,0 -0.8623181479925431,0.2598093842865227 l -8.776354980315507 -30.063482649334542" fill="#a3ff22" stroke="none" /><path d="M 105.53697534728816 120.25689768951611 l 7.8745197035184225 28.808750262248545 a50.86556800453836,50.86556800453836 0 0,0 -0.8465715309241841,0.22358723568598698 l -7.377457729782741 -28.940028847238114" fill="#b5ff20" stroke="none" /><path d="M 104.48393922423573 120.51570834832081 l 6.368897989596262 29.14010362775036 a50.82798184654659,50.82798184654659 0 0,0 -0.8563511416962264,0.17945670788863644 l -5.866355386470658 -29.24541631636554" fill="#b5ff1f" stroke="none" /><path d="M 104.13013068566511 120.58985236759428 l 8.79575498540411 43.84928962165213 a65.72276272869098,65.72276272869098 0 0,0 -1.1111290108811924,0.21295051944471485 l -8.039658359951215 -43.99419733944532" fill="#34ff5b" stroke="none" /><path d="M 103.41894727170886 120.7198165907248 l 4.854381446482738 29.418965909429417 a50.816783434973765,50.816783434973765 0 0,0 -0.8642825033212104,0.13498315215135206 l -4.34726307955301 -29.498167368927874" fill="#b6ff1f" stroke="none" /><path d="M 102.70371172650421 120.8252237178851 l 4.030179311014027 31.042283447716702 a52.302806694085945,52.302806694085945 0 0,0 -0.8938115723786733,0.10822813386055624 l -3.495240315583974 -31.10705711030261" fill="#a3ff21" stroke="none" /><path d="M 102.34483914955558 120.86867818915974 l 3.3290031585736424 29.627574079073394 a50.814013615090055,50.814013615090055 0 0,0 -0.8700506157916897,0.09018430374914749 l -2.81851994617635 -29.680487751278303" fill="#b6ff1f" stroke="none" /><path d="M 101.62511606390274 120.93702456842531 l 3.462151779950784 44.60429534021612 a65.73845837469862,65.73845837469862 0 0,0 -1.12893981613812,0.07785829946314442 l -2.693849203033734 -44.65728198419555" fill="#34ff5b" stroke="none" /><path d="M 100.90346689309514 120.98055641714683 l 0.7691923134211681 17.86239523629012 a38.87894908523614,38.87894908523614 0 0,0 -0.6688653834653909,0.02303707621186809 l -0.4616065782811249 -17.872989110928078" fill="#ffa80f" stroke="none" /><line stroke="#e1ed5e" stroke-width="0.3" x1="102.19456741930631" x2="102.32365962044197" y1="184.97166512339345" y2="189.96999836594603" /><path d="M 102.22038585953345 185.97133177190398 a86.0,86.0 0 0,1 -42.740103519485714,-10.115201625700543" fill="none" id="id19" stroke="none" /><text fill="#e1ed5e" style="font-size:6.75px; font-family:Arial;" text-anchor="middle"><textPath startOffset="22.20632615414155" xlink:href="#id19">July</textPath></text><path d="M 100.18074693466247 120.99922214144158 l 0.05946038395050469 6.9081216426923335 a27.908377535101405,27.908377535101405 0 0,0 -0.4804146372259155,0.0 l 0.05946038395049993 -6.9081216426923335" fill="#ff0000" stroke="none" /><path d="M 99.09653310690486 120.98055641714683 l -1.0540733250161547 24.477980358027587 a45.500665153878884,45.500665153878884 0 0,0 -0.7822039531272796,-0.04043100972474889 l 1.4752653465569232 -24.456209541540638" fill="#faff18" stroke="none" /><path d="M 98.37488393609728 120.93702456842531 l -2.632897760526822 33.920681927122914 a55.0227102538647,55.0227102538647 0 0,0 -0.943654369104291,-0.08142246965682377 l 3.2163964473726545 -33.87033520518743" fill="#82ff25" stroke="none" /><path d="M 97.65516085044442 120.86867818915974 l -1.6680515945926622 14.845381584944345 a35.93880017018863,35.93880017018863 0 0,0 -0.6141642775960362,-0.0743667409352809 l 1.9233432952400877 -14.814469315283716" fill="#ff7d0b" stroke="none" /><path d="M 97.2962882734958 120.8252237178851 l -3.291745061342653 25.354525281931082 a46.56731385619061,46.56731385619061 0 0,0 -0.7940201751014845,-0.11004396114074758 l 3.727693827630968 -25.29410675529773" fill="#ecff1a" stroke="none" /><path d="M 96.58105272829116 120.7198165907248 l -7.28025327359884 44.120455969359455 a65.71707417387606,65.71707417387606 0 0,0 -1.114533502803502,-0.19377593563270853 l 8.038635747874391 -43.988601455205746" fill="#34ff5b" stroke="none" /><path d="M 96.22490169976321 120.6578951692458 l -5.36508875196878 29.358557631444693 a50.84474968089633,50.84474968089633 0 0,0 -0.8595967983673176,-0.1647437722647151 l 5.869653164907793 -29.261856660831512" fill="#b5ff1f" stroke="none" /><path d="M 95.86986931433489 120.58985236759428 l -2.964193211573996 14.777329159865387 a36.07169195858744,36.07169195858744 0 0,0 -0.6077367912208173,-0.12735715351446553 l 3.2181214642242 -14.72411602562438" fill="#ff7f0b" stroke="none" /><path d="M 94.81253420990036 120.34920634021253 l -7.362853957844917 28.882741689976292 a50.80644873067651,50.80644873067651 0 0,0 -0.8455875903895009,-0.22332736804788123 l 7.858931991045907 -28.75172297262483" fill="#b6ff1f" stroke="none" /><path d="M 94.11515582081647 120.15858648285463 l -4.1818699263153984 14.325032915548453 a35.92295560913346,35.92295560913346 0 0,0 -0.5920873299234873,-0.17839105553951848 l 4.427832230679131 -14.25092649090321" fill="#ff7c0b" stroke="none" /><path d="M 93.76903079525671 120.05430185196036 l -18.692297861180485 60.160943072789635 a83.99794497234436,83.99794497234436 0 0,0 -1.3770809290573296,-0.4408978267017205 l 19.725100135328756 -59.83027239942821" fill="#4dd2ff" stroke="none" /><path d="M 93.42475214034765 119.94407469862007 l -7.512959707298361 22.788346965524674 a44.994860303503046,44.994860303503046 0 0,0 -0.7334810735309721,-0.24883660383738365 l 7.904110513766558 -22.655647374789165" fill="#fffd17" stroke="none" /><path d="M 93.08242187328487 119.8279376855182 l -2.9882151946185314 8.565157282574894 a30.07145794922706,30.07145794922706 0 0,0 -0.4872728058794135,-0.1747186918523191 l 3.1352075611276717 -8.512451049682618" fill="#ff2303" stroke="none" /><path d="M 92.7421414339146 119.70592522655815 l -11.547766618044006 31.353521625822477 a54.412486172174155,54.412486172174155 0 0,0 -0.8761181874895906,-0.33127293205528996 l 12.08575502629388 -31.150100443660552" fill="#8aff24" stroke="none" /><path d="M 92.06813273071674 119.44442032107085 l -5.639668996331571 13.825255858863104 a35.93129485179407,35.93129485179407 0 0,0 -0.5706720157278679,-0.23854094885712046 l 5.876812471556902 -13.72612986698601" fill="#ff7d0b" stroke="none" /><path d="M 91.40352486487194 119.15986991738527 l -16.843507396446658 37.54089968220765 a62.14635938164799,62.14635938164799 0 0,0 -0.9722413334957642,-0.4463083107818008 l 17.487216725709843 -37.245404301091774" fill="#32ff2f" stroke="none" /><path d="M 90.7491055286396 118.85261126421891 l -14.038281560196166 28.608937859077265 a52.86761168628563,52.86761168628563 0 0,0 -0.8135220060270679,-0.4079168222617844 l 14.528657473905994 -28.36305319590618" fill="#9cff22" stroke="none" /><path d="M 90.10565033884886 118.52300852407294 l -14.267607307226035 26.710094227570096 a51.281904694369594,51.281904694369594 0 0,0 -0.7750336530437802,-0.42261014299644795 l 14.725263772138456 -26.460543432813882" fill="#b0ff20" stroke="none" /><line stroke="#e1ed5e" stroke-width="0.3" x1="58.666819895761336" x2="56.23545636021788" y1="174.27360380694188" y2="178.64263932499728" /><path d="M 58.180547188652646 175.14741091055294 a86.0,86.0 0 0,1 -31.652253787137756,-30.449443065178592" fill="none" id="id20" stroke="none" /><text fill="#e1ed5e" style="font-size:6.75px; font-family:Arial;" text-anchor="middle"><textPath startOffset="22.20632615414155" xlink:href="#id20">August</textPath></text><path d="M 89.7882731507175 118.34994917583269 l -14.786496478306043 26.570575463895175 a51.407827258544884,51.407827258544884 0 0,0 -0.7695292327916742,-0.4369587818584108 l 15.241674478018924 -26.312113516242132" fill="#aeff20" stroke="none" /><path d="M 89.4739219176387 118.17145234162733 l -14.950688356927754 25.80977633138467 a50.82729683732804,50.82729683732804 0 0,0 -0.7532898954549517,-0.44505694804272716 l 15.392746123411088 -25.548600811048193" fill="#b5ff1f" stroke="none" /><path d="M 89.1626897886671 117.98757091392108 l -15.39279223308437 25.548677343047537 a50.82738618635654,50.82738618635654 0 0,0 -0.7455186742129077,-0.45795846035364934 l 15.830290107229587 -25.279930415865508" fill="#b5ff1f" stroke="none" /><path d="M 88.54995079064634 117.60387380957326 l -16.256650281009073 24.993780802222556 a50.815562331584175,50.815562331584175 0 0,0 -0.7291435537268024,-0.4832365884273722 l 16.684468533475837 -24.710246192703867" fill="#b6ff1f" stroke="none" /><path d="M 87.95078237400918 117.19931262002967 l -21.427767434306528 30.586456506268267 a58.34542192596795,58.34542192596795 0 0,0 -0.8175934865685109,-0.583331244213194 l 21.951088248723924 -30.213081000210856" fill="#5cff2a" stroke="none" /><path d="M 87.36589467227662 116.77436683061367 l -18.08379288507661 24.009945118747734 a51.05829385902709,51.05829385902709 0 0,0 -0.6974836990615381,-0.5348007582096816 l 18.49440531263163 -23.695105018710688" fill="#b3ff20" stroke="none" /><path d="M 87.07902340077011 116.55440617244103 l -38.76292979768965 49.663218517323095 a84.0,84.0 0 0,0 -1.1321700291305676,-0.8994643439794774 l 39.61205731953757 -48.98862025933849" fill="#4dd2ff" stroke="none" /><line stroke="#e1ed5e" stroke-width="0.3" x1="26.63291911575756" x2="22.317208475507996" y1="142.92168965132927" y2="145.44649492493687" /><path d="M 25.769776987707644 143.4266507060508 a86.0,86.0 0 0,1 -11.730757126820373,-40.83630448921669" fill="none" id="id21" stroke="none" /><text fill="#e1ed5e" style="font-size:6.75px; font-family:Arial;" text-anchor="middle"><textPath startOffset="21.46611528233685" xlink:href="#id21">September</textPath></text><line stroke="#e1ed5e" stroke-width="0.3" x1="15.007084014347285" x2="10.007500721073583" y1="101.09737516637583" y2="101.16192664675087" /><path d="M 14.007167355692545 101.11028546245083 a86.0,86.0 0 0,1 10.666146001902534,-42.60595125391555" fill="none" id="id22" stroke="none" /><text fill="#e1ed5e" style="font-size:6.75px; font-family:Arial;" text-anchor="middle"><textPath startOffset="22.20632615414155" xlink:href="#id22">October</textPath></text><line stroke="#e1ed5e" stroke-width="0.3" x1="26.266209847984243" x2="21.928928074336255" y1="57.711370442889674" y2="55.22380399835377" /><path d="M 25.398753493254645 57.213857153982495 a86.0,86.0 0 0,1 29.58750427330803,-30.492523968695096" fill="none" id="id23" stroke="none" /><text fill="#e1ed5e" style="font-size:6.75px; font-family:Arial;" text-anchor="middle"><textPath startOffset="21.46611528233685" xlink:href="#id23">November</textPath></text><line stroke="#e1ed5e" stroke-width="0.3" x1="56.762969772571076" x2="54.21961505331055" y1="26.818313649435495" y2="22.513508569990535" /><path d="M 56.25429882871897 25.957352633546506 a86.0,86.0 0 0,1 42.265352541879196,-11.944610805530505" fill="none" id="id24" stroke="none" /><text fill="#e1ed5e" style="font-size:6.75px; font-family:Arial;" text-anchor="middle"><textPath startOffset="22.20632615414155" xlink:href="#id24">December</textPath></text></svg>