<?xml version="1.0" encoding="utf-8" ?>
<svg baseProfile="full" height="200mm" version="1.1" viewBox="0,0,200,200" width="200mm" xmlns="http://www.w3.org/2000/svg" xmlns:ev="http://www.w3.org/2001/xml-events" xmlns:xlink="http://www.w3.org/1999/xlink"><defs /><rect fill="#1a1a1a" height="200" width="200" x="0" y="0" /><text alignment-baseline="middle" fill="#e1ed5e" style="dominant-baseline: central; font-size:9.0px; font-family:Arial;" text-anchor="middle" x="100.0" y="100.0">2024</text><line stroke="#e1ed5e" stroke-width="0.3" x1="100.0" x2="100.0" y1="15.0" y2="10.0" /><path d="M 100.0 14.0 a86.0,86.0 0 0,1 42.35913384403234,11.155469271406648" fill="none" id="id1" stroke="none" /><text fill="#e1ed5e" style="font-size:6.75px; font-family:Arial;" text-anchor="middle"><textPath startOffset="22.145653131862478" xlink:href="#id1">January</textPath></text><line stroke="#e1ed5e" stroke-width="0.3" x1="143.13028292997686" x2="145.6673583964461" y1="26.7553504044142" y2="22.446841604673864" /><path d="M 143.63769802327073 25.89364864446614 a86.0,86.0 0 0,1 29.32050498858742,28.57503671076993" fill="none" id="id2" stroke="none" /><text fill="#e1ed5e" style="font-size:6.75px; font-family:Arial;" text-anchor="middle"><textPath startOffset="20.669276256404974" xlink:href="#id2">February</textPath></text><line stroke="#e1ed5e" stroke-width="0.3" x1="172.87174338648825" x2="177.1583165268699" y1="56.24261187166439" y2="53.66864786411523" /><path d="M 173.72905801456457 55.72781907015455 a86.0,86.0 0 0,1 12.242430191666344,42.057860355516425" fill="none" id="id3" stroke="none" /><text fill="#e1ed5e" style="font-size:6.75px; font-family:Arial;" text-anchor="middle"><textPath startOffset="22.145653131862474" xlink:href="#id3">March</textPath></text><line stroke="#e1ed5e" stroke-width="0.3" x1="184.99686870605535" x2="189.99668451229388" y1="99.2704041080226" y2="99.22748670261217" /><path d="M 185.99683186730306 99.26182062694052 a86.0,86.0 0 0,1 -10.086455211305974,41.156179273409016" fill="none" id="id4" stroke="none" /><text fill="#e1ed5e" style="font-size:6.75px; font-family:Arial;" text-anchor="middle"><textPath startOffset="21.40746469413373" xlink:href="#id4">April</textPath></text><line stroke="#e1ed5e" stroke-width="0.3" x1="174.33088141563837" x2="178.70328620479359" y1="141.23008692659167" y2="143.65538615756765" /><path d="M 175.20536237346943 141.71514677278685 a86.0,86.0 0 0,1 -30.301960400862466,31.631185727798858" fill="none" id="id5" stroke="none" /><text fill="#e1ed5e" style="font-size:6.75px; font-family:Arial;" text-anchor="middle"><textPath startOffset="22.145653131862474" xlink:href="#id5">May</textPath></text><line stroke="#e1ed5e" stroke-width="0.3" x1="143.1302829299769" x2="145.66735839644613" y1="173.24464959558577" y2="177.55315839532614" /><path d="M 143.63769802327073 174.10635135553383 a86.0,86.0 0 0,1 -40.68552437913181,11.842963189579606" fill="none" id="id6" stroke="none" /><text fill="#e1ed5e" style="font-size:6.75px; font-family:Arial;" text-anchor="middle"><textPath startOffset="21.407464694133747" xlink:href="#id6">June</textPath></text><line stroke="#e1ed5e" stroke-width="0.3" x1="101.45913802915013" x2="101.54496967792366" y1="184.9874750549273" y2="189.98673829345242" /><path d="M 101.47630435890484 185.9873277026323 a86.0,86.0 0 0,1 -42.54439059252881,-10.42667462771756" fill="none" id="id7" stroke="none" /><text fill="#e1ed5e" style="font-size:6.75px; font-family:Arial;" text-anchor="middle"><textPath startOffset="22.145653131862474" xlink:href="#id7">July</textPath></text><line stroke="#e1ed5e" stroke-width="0.3" x1="58.13341422392154" x2="55.67067388415222" y1="173.97424548756322" y2="178.32567169271397" /><path d="M 57.64086615596768 174.84453072859336 a86.0,86.0 0 0,1 -31.369924170532247,-30.572349798747897" fill="none" id="id8" stroke="none" /><text fill="#e1ed5e" style="font-size:6.75px; font-family:Arial;" text-anchor="middle"><textPath startOffset="22.145653131862474" xlink:href="#id8">August</textPath></text><path d="M 86.68645165197938 116.24036423190432 l -9.373364939272177 11.433981138091875 a35.78498883837988,35.78498883837988 0 0,0 -0.47172396962827373,-0.3935289129082643 l 9.568263243062344 -11.27139004127174" fill="red" stroke="none" /><path d="M 86.13680546590413 115.77377054828092 l -12.158422985252814 13.834053466294415 a39.417608009636226,39.417608009636226 0 0,0 -0.5044233252931652,-0.4510584479057228 l 12.39411133736935 -13.62329948850531" fill="red" stroke="none" /><path d="M 85.34317274990678 115.03919595460226 l -14.638601035757503 15.020494253051982 a41.97388585575044,41.97388585575044 0 0,0 -0.5116978058387998,-0.5073243465985711 l 14.894290761726266 -14.766989896224752" fill="red" stroke="none" /><path d="M 84.83555147118756 114.52719865689866 l -14.877641479897164 14.25244399187575 a41.60282446039649,41.60282446039649 0 0,0 -0.48961406502293864,-0.5199531700029199 l 15.120111378656357 -13.994949361928342" fill="red" stroke="none" /><path d="M 84.3458050057657 113.99807769240083 l -16.55387585381338 14.802577864743919 a43.20691597735427,43.20691597735427 0 0,0 -0.48965561728957296,-0.5571382076336335 l 16.805542535061548 -14.516227379298984" fill="red" stroke="none" /><path d="M 84.1078160697243 113.72728997021213 l -16.983186304247972 14.669671836128975 a43.44165521579261,43.44165521579261 0 0,0 -0.4826273491473348,-0.5685338037463515 l 17.232508216902417 -14.37597124993307" fill="red" stroke="none" /><path d="M 83.64595745247003 113.17365903436017 l -20.90798947403928 16.841996321367358 a47.84766030654234,47.84766030654234 0 0,0 -0.5097679917063233,-0.6440752047145095 l 21.194023896387165 -16.48060117273817" fill="red" stroke="none" /><path d="M 82.98947788004972 112.3143062007846 l -15.138510204932441 10.959113939753982 a39.688945116548275,39.688945116548275 0 0,0 -0.3947819709580946,-0.555310282053262 l 15.324407274420496 -10.697626430991216" fill="red" stroke="none" /><path d="M 82.78059297857968 112.02048342749411 l -15.301736673746138 10.681800591032935 a39.661297090482726,39.661297090482726 0 0,0 -0.38492282848842235,-0.5616139103227052 l 15.482849239049886 -10.417551945640179" fill="red" stroke="none" /><path d="M 82.18462484594161 111.11811171558189 l -15.857499833303809 9.896252711598398 a39.69214055947175,39.69214055947175 0 0,0 -0.35577773393483625,-0.5811361906478392 l 16.02504553169405 -9.622579404826002" fill="red" stroke="none" /><path d="M 81.99639281039703 110.81064883170644 l -15.993823385284824 9.603831402992393 a39.65572202024855,39.65572202024855 0 0,0 -0.3454321000613927,-0.5866192245745526 l 16.156329195475987 -9.327861010124282" fill="red" stroke="none" /><line stroke="#e1ed5e" stroke-width="0.3" x1="26.387840678322732" x2="22.057713659400548" y1="142.50000000000003" y2="145.00000000000006" /><path d="M 25.521815274538298 143.00000000000003 a86.0,86.0 0 0,1 -11.493303480769221,-40.785679425670985" fill="none" id="id9" stroke="none" /><text fill="#e1ed5e" style="font-size:6.75px; font-family:Arial;" text-anchor="middle"><textPath startOffset="21.40746469413373" xlink:href="#id9">September</textPath></text><path d="M 81.81346652052679 110.50000000000001 l -15.913177770291643 9.18747746934026 a39.3749549386805,39.3749549386805 0 0,0 -0.3329370595664932,-0.5882678828411031 l 16.068548194879515 -8.912952816400034" fill="red" stroke="none" /><path d="M 81.4637452351635 109.86951160357371 l -16.47412356394674 8.771542889101726 a39.66378074923557,39.66378074923557 0 0,0 -0.3148396288021101,-0.6037465013891641 l 16.6222712617238 -8.487450144608058" fill="red" stroke="none" /><path d="M 81.29705330413844 109.54985784667822 l -19.1538502333767 9.780092405748363 a42.50628248274447,42.50628248274447 0 0,0 -0.32624601426738936,-0.6527105720757047 l 19.318916160855828 -9.449849977508904" fill="red" stroke="none" /><path d="M 80.9802524753101 108.90220220490708 l -19.530210954044136 9.141124864654413 a42.56361063691952,42.56361063691952 0 0,0 -0.3040572774951671,-0.6644200249288706 l 19.68425269639436 -8.804515857510854" fill="red" stroke="none" /><path d="M 80.83023694016515 108.57439118712176 l -26.94279119945156 12.051167805045873 a50.51515954696194,50.51515954696194 0 0,0 -0.3472703563375425,-0.7946225356993405 l 27.14569543780607 -11.586883199570684" fill="red" stroke="none" /><path d="M 80.41425534168474 107.57618678355246 l -19.47832367512913 7.534634039590518 a41.8848223191784,41.8848223191784 0 0,0 -0.2536411529944651,-0.6728132926995768 l 19.604795511938033 -7.1991524666967965" fill="red" stroke="none" /><path d="M 80.28708602549918 107.23885506374661 l -22.765351199925114 8.359752293583515 a45.25173547740464,45.25173547740464 0 0,0 -0.2615115677502042,-0.7314943979845795 l 22.905502937719262 -7.967722939218014" fill="red" stroke="none" /><path d="M 80.05021161711548 106.5578916946017 l -23.10403402692429 7.594754889076896 a45.32029379227218,45.32029379227218 0 0,0 -0.23660491861781302,-0.7411615376414313 l 23.231003661319356 -7.197024317744073" fill="red" stroke="none" /><path d="M 79.94057633289273 106.21446072829308 l -23.73200443637955 7.3522356385240055 a45.844786242846226,45.844786242846226 0 0,0 -0.2264376160835706,-0.7537371790988628 l 23.85471837246675 -6.9437608558344195" fill="red" stroke="none" /><path d="M 79.83685265289637 105.86919833188381 l -23.27285146515611 6.774387879335461 a45.23876949143471,45.23876949143471 0 0,0 -0.21064357607443787,-0.7474997402812739 l 23.385713533305122 -6.373880215151192" fill="red" stroke="none" /><path d="M 79.64726062577567 105.17358676015961 l -23.125899246689926 5.878513155383034 a44.86135228536021,44.86135228536021 0 0,0 -0.18331731444908037,-0.7479972001391904 l 23.223404087655297 -5.480660130635744" fill="red" stroke="none" /><path d="M 79.56144815229197 104.8234425847677 l -18.17789722070999 4.289934248239581 a39.67724506507624,39.67724506507624 0 0,0 -0.1507530095003698,-0.6642455756556196 l 18.248861091768024 -3.977254338644935" fill="red" stroke="none" /><path d="M 79.22317932658666 103.0534771498775 l -30.10703636391977 4.424697552758773 a51.43043849588397,51.43043849588397 0 0,0 -0.12087495979722672,-0.8745909952988842 l 30.178555840272214 -3.9072182492598033" fill="red" stroke="none" /><path d="M 79.17382384314188 102.69636545807758 l -23.27327382242861 3.0131912434877237 a44.467522150486445,44.467522150486445 0 0,0 -0.09151397793077727,-0.7578670166289477 l 23.32156988661905 -2.6132305499353765" fill="red" stroke="none" /><path d="M 79.13060592940153 102.33845913500099 l -24.70301127318842 2.7680239387114662 a45.857608945523175,45.857608945523175 0 0,0 -0.08094437381532821,-0.783063389846781 l 24.746888039485412 -2.3435560265817537" fill="red" stroke="none" /><path d="M 79.06263194458094 101.62068470465958 l -27.27144349221601 2.1109822029604555 a48.35302316034458,48.35302316034458 0 0,0 -0.05695534565146393,-0.8281182257921553 l 27.303662799032544 -1.6425205530139568" fill="red" stroke="none" /><path d="M 79.03789590574601 101.26102812881392 l -24.88763713065696 1.4971784483254682 a45.93262973000211,45.93262973000211 0 0,0 -0.04059221904136261,-0.7874782051039676 l 24.909670939154896 -1.06972844984477" fill="red" stroke="none" /><path d="M 79.00696218219943 100.54070618675478 l -23.88435344531407 0.6151762211169081 a44.89227451047124,44.89227451047124 0 0,0 -0.013229471976167275,-0.7705504188792027 l 23.891394348888902 -0.20507888626865295" fill="red" stroke="none" /><line stroke="#e1ed5e" stroke-width="0.3" x1="15.003131293944662" x2="10.003315487706104" y1="100.72959589197737" y2="100.7725132973878" /><path d="M 14.003168132696942 100.73817937305945 a86.0,86.0 0 0,1 10.791469493833604,-42.45332614584628" fill="none" id="id10" stroke="none" /><text fill="#e1ed5e" style="font-size:6.75px; font-family:Arial;" text-anchor="middle"><textPath startOffset="22.145653131862435" xlink:href="#id10">October</textPath></text><path d="M 79.00077361379809 100.18025310272382 l -27.409992921285948 0.23528182318879204 a48.411002708424746,48.411002708424746 0 0,0 0.0,-0.8310698518252091 l 27.409992921285948 0.23528182318878194" fill="red" stroke="none" /><path d="M 79.00077361379809 99.81974689727619 l -30.462999006855817 -0.2614882085783053 a51.46412126707291,51.46412126707291 0 0,0 0.01516615403218224,-0.8833524394123387 l 30.45402142122497 0.7843875639596962" fill="red" stroke="none" /><path d="M 79.00696218219943 99.45929381324524 l -23.848659684609775 -0.6142568764556425 a44.8565689122012,44.8565689122012 0 0,0 0.02643400383503984,-0.7695971796291955 l 23.834600993777883 1.0235603206489767" fill="red" stroke="none" /><path d="M 79.01933749520258 99.09900007780938 l -24.159793508183586 -1.037525486434829 a45.182061150635434,45.182061150635434 0 0,0 0.0399289161919922,-0.7746103070289051 l 24.138423002535024 1.452107586840446" fill="red" stroke="none" /><path d="M 79.03789590574601 98.7389718711861 l -36.57945456888409 -2.200529152065303 a57.64558397823869,57.64558397823869 0 0,0 0.06790111447372814,-0.987267302201792 l 36.5362894932453 2.8281398784214202" fill="red" stroke="none" /><path d="M 79.06263194458094 98.37931529534042 l -27.3256559365287 -2.1151785890137322 a48.40739777550887,48.40739777550887 0 0,0 0.07124272856525271,-0.8279484967750516 l 27.285319585265707 2.5839481331644647" fill="red" stroke="none" /><path d="M 79.13060592940154 97.66154086499901 l -18.469166140542388 -2.06950858904184 a39.58475083844482,39.58475083844482 0 0,0 0.08146525462706812,-0.67464917249951 l 18.430918799655654 2.3862514384647864" fill="red" stroke="none" /><path d="M 79.17382384314186 97.30363454192245 l -24.166701025431728 -3.1288632819521887 a45.36840626486992,45.36840626486992 0 0,0 0.10662760115820907,-0.7715042055006845 l 24.10942890771831 3.5432557956529402" fill="red" stroke="none" /><path d="M 79.22317932658666 96.9465228501225 l -22.70655677009945 -3.3370819019782236 a43.95046483133315,43.95046483133315 0 0,0 0.11610981946056727,-0.7455083325012881 l 22.645925458500614 3.7263784164109617" fill="red" stroke="none" /><path d="M 79.407916724674 95.88100663000787 l -32.21530566630356 -6.443963375515903 a53.85347140194413,53.85347140194413 0 0,0 0.18910848863018362,-0.9049525761389419 l 32.09993946684901 6.996032402940254" fill="red" stroke="none" /><path d="M 79.48165901384962 95.52812308129327 l -23.48332295554322 -5.118080938917673 a45.034583614692714,45.034583614692714 0 0,0 0.17110812508217976,-0.7539339706799463 l 23.392003968903378 5.520449243536628" fill="red" stroke="none" /><path d="M 79.56144815229197 95.17655741523228 l -21.275552858589737 -5.020972544300204 a42.85999347505077,42.85999347505077 0 0,0 0.1751391454090203,-0.7146274796487195 l 21.186226186664417 5.38545584855704" fill="red" stroke="none" /><path d="M 79.64726062577567 94.8264132398404 l -21.58733960672343 -5.487417311394213 a43.27386315943866,43.27386315943866 0 0,0 0.18919027829777715,-0.7183863023087926 l 21.489959847620923 5.85718411807579" fill="red" stroke="none" /><path d="M 79.94057633289273 93.78553927170692 l -37.308276546744644 -11.55819944220147 a60.05764295543297,60.05764295543297 0 0,0 0.3135446073889001,-0.9821740168762727 l 37.104367223578485 12.196942492769136" fill="red" stroke="none" /><path d="M 80.05021161711548 93.44210830539832 l -26.036696575176087 -8.558779318767058 a48.40733974640992,48.40733974640992 0 0,0 0.2662739735052306,-0.7871916888837784 l 25.88593718009849 9.004472682124998" fill="red" stroke="none" /><path d="M 80.16572619554312 93.10060997987247 l -24.95766110412924 -8.681570076382696 a47.4245058001036,47.4245058001036 0 0,0 0.2740680933166953,-0.7666172347640673 l 24.8049528407686 9.108722267527686" fill="red" stroke="none" /><path d="M 80.28708602549916 92.7611449362534 l -25.476553812227984 -9.355343446890338 a48.139956616704865,48.139956616704865 0 0,0 0.29152025543567034,-0.7732921122329669 l 25.312202872977878 9.791303839317449" fill="red" stroke="none" /><path d="M 80.41425534168474 92.42381321644754 l -22.9346441228497 -8.871613038988695 a45.590718146392526,45.590718146392526 0 0,0 0.28861383236319327,-0.7274953940646851 l 22.778971615520376 9.264009450266963" fill="red" stroke="none" /><path d="M 80.5471966667186 92.08871423366112 l -16.99343634990896 -6.911082624590661 a39.345024993777635,39.345024993777635 0 0,0 0.259816100604917,-0.6234640587214352 l 16.872294404767565 7.20177919275336" fill="red" stroke="none" /><path d="M 80.83023694016515 91.42560881287825 l -43.45562464622753 -19.43714817102667 a68.60455905074915,68.60455905074915 0 0,0 0.49008331616103235,-1.0709204917685597 l 43.115556865211445 20.1802576450099" fill="red" stroke="none" /><path d="M 81.1358732173502 90.77261029715801 l -26.34432559154449 -12.886329777814815 a50.327137364835025,50.327137364835025 0 0,0 0.386272969917552,-0.7728046938394911 l 26.119232708415193 13.336666327818076" fill="red" stroke="none" /><path d="M 81.29705330413844 90.45014215332179 l -16.387696156260127 -8.3676744243445 a39.40039566372778,39.40039566372778 0 0,0 0.31274895411134224,-0.5997373570038229 l 16.241639133173845 8.64775802445281" fill="red" stroke="none" /><path d="M 81.46374523516351 90.13048839642627 l -24.76317255989578 -13.184994596903177 a49.054568215382346,49.054568215382346 0 0,0 0.40214152575662293,-0.7398951132481864 l 24.533185684523808 13.608144543625984" fill="red" stroke="none" /><path d="M 81.63589988554816 89.8137432299009 l -16.024468861319544 -8.888502753119022 a39.324548656913876,39.324548656913876 0 0,0 0.3325108465267448,-0.587514805238812 l 15.869524649771432 9.16227432845694" fill="red" stroke="none" /><line stroke="#e1ed5e" stroke-width="0.3" x1="26.387840678322718" x2="22.05771365940052" y1="57.49999999999999" y2="54.99999999999999" /><path d="M 25.521815274538284 56.99999999999999 a86.0,86.0 0 0,1 29.574782752854787,-30.34633250058573" fill="none" id="id11" stroke="none" /><text fill="#e1ed5e" style="font-size:6.75px; font-family:Arial;" text-anchor="middle"><textPath startOffset="21.40746469413373" xlink:href="#id11">November</textPath></text><path d="M 81.81346652052679 89.5 l -24.133773126552338 -13.933640411176352 a48.8672808223527,48.8672808223527 0 0,0 0.4256719227085316,-0.7228839855301791 l 23.891027493714027 14.345875565000103" fill="red" stroke="none" /><path d="M 81.99639281039701 89.18935116829357 l -31.418450996382635 -18.865877097908374 a57.647515354870656,57.647515354870656 0 0,0 0.5167194837779185,-0.8440224437744389 l 31.08996354814932 19.402436657807357" fill="red" stroke="none" /><path d="M 82.37810715431573 88.57770195909679 l -23.053285242818035 -14.942860972504025 a48.47258732865028,48.47258732865028 0 0,0 0.4585865944992169,-0.6943585532107174 l 22.79337420939809 15.336399404053804" fill="red" stroke="none" /><path d="M 82.576782715395 88.27688183743585 l -21.98994668188229 -14.795817507709854 a47.50422552713962,47.50422552713962 0 0,0 0.46104041462243023,-0.6726717432938425 l 21.732716530444545 15.17112398607373" fill="red" stroke="none" /><path d="M 82.78059297857968 87.97951657250589 l -24.13228876577665 -16.8462117665068 a50.43063390341469,50.43063390341469 0 0,0 0.5016284759040864,-0.7056032720141996 l 23.83954519134259 17.25799226523052" fill="red" stroke="none" /><path d="M 82.98947788004972 87.6856937992154 l -23.790585870287842 -17.222549492422058 a50.3701921524267,50.3701921524267 0 0,0 0.5130515416466215,-0.6960529506452019 l 23.4914323090574 17.628408752336124" fill="red" stroke="none" /><path d="M 83.2033758604659 87.39550010848427 l -23.50560742766777 -17.639046025606177 a50.38791461191289,50.38791461191289 0 0,0 0.5251093084789129,-0.6873849410341479 l 23.19934614183455 18.039951879881208" fill="red" stroke="none" /><path d="M 83.42222388311158 87.10902102172516 l -11.650635606366674 -9.059604715750197 a35.75851441161956,35.75851441161956 0 0,0 0.3809704792508001,-0.48134375520972555 l 11.493398696474312 9.258268414874607" fill="red" stroke="none" /><path d="M 83.64595745247003 86.82634096563983 l -41.11268790374704 -33.11747116078209 a73.79223430350473,73.79223430350473 0 0,0 0.80311666026449,-0.9796717405803487 l 40.53812442424392 33.81834518306093" fill="red" stroke="none" /><path d="M 84.58840730492382 85.73525988315684 l -26.90203550718171 -24.900122441377384 a57.656999495665914,57.656999495665914 0 0,0 0.6785519556964076,-0.7205986624577396 l 26.470627717749032 25.358262563779636" fill="red" stroke="none" /><path d="M 85.08716467003674 85.21462403516908 l -39.011403774323824 -38.677974976380504 a75.93519247910982,75.93519247910982 0 0,0 0.9257153724351216,-0.9178033227776842 l 38.34169648175873 39.34195830938686" fill="red" stroke="none" /><path d="M 85.34317274990677 84.96080404539775 l -17.44369493116604 -17.898767705025612 a45.99296657481972,45.99296657481972 0 0,0 0.5701540312430069,-0.5461946645248326 l 17.133868414057734 18.19557449985601" fill="red" stroke="none" /><path d="M 85.60350026404147 84.71141617570332 l -17.551978944892117 -18.639593394429145 a46.602859347963125,46.602859347963125 0 0,0 0.5871299597673464,-0.5434387254193126 l 17.229419213810818 18.938149865980822" fill="red" stroke="none" /><path d="M 85.86807049272753 84.46653392183569 l -12.392352075101924 -13.621365751096036 a39.41499375178865,39.41499375178865 0 0,0 0.5043898708877667,-0.45102853277012545 l 12.156697177390766 13.832089813749562" fill="red" stroke="none" /><path d="M 86.40962598614128 83.9905735841838 l -23.75578043612458 -27.984249620694516 a57.70770124868487,57.70770124868487 0 0,0 0.7607129915310868,-0.6346138332303263 l 23.271893110431588 28.387925637836727" fill="red" stroke="none" /><path d="M 86.68645165197937 83.75963576809568 l -11.56846564019492 -14.111647074836203 a39.24741023907512,39.24741023907512 0 0,0 0.5246990566748566,-0.42266041855986974 l 11.324515813164819 14.30815578718947" fill="red" stroke="none" /><path d="M 86.96720088162412 83.53348406188908 l -14.219303781303594 -17.9656258196708 a43.91183779441136,43.91183779441136 0 0,0 0.5950891594799851,-0.4627449297762396 l 13.908804677188366 18.207071801067844" fill="red" stroke="none" /><path d="M 87.83215693770416 82.88440491214696 l -23.435903334738793 -32.965532998892094 a61.44710040307296,61.44710040307296 0 0,0 0.8649554529660411,-0.6038060819960474 l 22.866552790598988 33.36298389669327" fill="red" stroke="none" /><path d="M 88.12776184653039 82.6780497279521 l -12.88130102434701 -18.794203156867283 a43.78486314160003,43.78486314160003 0 0,0 0.6236292900389468,-0.4196056180291361 l 12.556775446211073 19.012558448953527" fill="red" stroke="none" /><path d="M 88.72937992617638 82.28071324371311 l -18.446226561983725 -29.00053199223302 a55.36995970624005,55.36995970624005 0 0,0 0.8063866602684386,-0.5032449161070365 l 17.945675772925586 29.312912705181596" fill="red" stroke="none" /><path d="M 89.03521579738668 82.08984904055464 l -23.040031076042915 -37.634159237159515 a65.126782949507,65.126782949507 0 0,0 0.9585026324041153,-0.5755532907411544 l 22.390595687081365 38.02412652843659" fill="red" stroke="none" /><line stroke="#e1ed5e" stroke-width="0.3" x1="56.869717070023135" x2="54.33264160355391" y1="26.7553504044142" y2="22.446841604673864" /><path d="M 56.362301976729285 25.89364864446614 a86.0,86.0 0 0,1 42.16139366436587,-11.88097634709845" fill="none" id="id12" stroke="none" /><text fill="#e1ed5e" style="font-size:6.75px; font-family:Arial;" text-anchor="middle"><textPath startOffset="22.145653131862474" xlink:href="#id12">December</textPath></text><path d="M 89.97174638481275 81.54914285379989 l -16.43937117187284 -30.246591351282074 a55.42541521751125,55.42541521751125 0 0,0 0.8398565243755128,-0.44717629412309423 l 15.917725831710765 30.524338113127744" fill="red" stroke="none" /><path d="M 90.28995756902619 81.37971332152246 l -12.736816227495385 -24.424524528392176 a48.54603212898404,48.54603212898404 0 0,0 0.7422290195445048,-0.3789874259705742 l 12.315659986237298 24.639569906035582" fill="red" stroke="none" /><path d="M 90.93487009805054 81.0573650232925 l -13.127182778449587 -27.430763191955617 a51.41002625766657,51.41002625766657 0 0,0 0.7993311330137862,-0.374127330845426 l 12.654362931564279 27.652066754371585" fill="red" stroke="none" /><path d="M 91.26138138417902 80.90454125486306 l -26.215855847462933 -57.286376235410835 a84.0,84.0 0 0,0 1.3163463885775248,-0.5887849963606175 l 25.22859605602979 57.7279649826813" fill="red" stroke="none" /><path d="M 92.25597844496254 80.48000691201159 l -8.06664433634673 -20.333213249686924 a42.87487855752252,42.87487855752252 0 0,0 0.6864630196790709,-0.26553864291710977 l 7.71640905417413 20.468691780742073" fill="red" stroke="none" /><path d="M 92.592206182469 80.34994680014964 l -7.741620212387541 -20.535567373168927 a42.946348462803726,42.946348462803726 0 0,0 0.6920719150788042,-0.2541383934118191 l 7.38795914565461 20.665436615589467" fill="red" stroke="none" /><path d="M 92.93061703081487 80.22567764915836 l -8.543910157851094 -23.898837329144214 a46.38016600557073,46.38016600557073 0 0,0 0.7520085150710163,-0.26158759806804716 l 8.132395870735072 24.041983359780847" fill="red" stroke="none" /><path d="M 93.61358852112211 79.99465700312896 l -13.588139183976951 -42.564652459951475 a65.68094857452763,65.68094857452763 0 0,0 1.0770404706436314,-0.33366989095367044 l 12.855458080461704 42.791638938711785" fill="red" stroke="none" /><path d="M 94.6519064749342 79.69241777938228 l -9.600825724575989 -36.455899073913365 a58.69891817918702,58.69891817918702 0 0,0 0.9766233954859319,-0.24825384807644574 l 8.97359703586468 36.61533815382507" fill="red" stroke="none" /><path d="M 95.00130118170881 79.60360301121753 l -5.319997180223389 -21.707403948800707 a43.34980438827135,43.34980438827135 0 0,0 0.7242882143575782,-0.1709300464538265 l 4.946576812125905 21.795530138900766" fill="red" stroke="none" /><path d="M 95.35216902796891 79.52079915486377 l -4.932527511850679 -21.73362632961825 a43.28632632558896,43.28632632558896 0 0,0 0.7260509989696043,-0.15823943594112808 l 4.558714096261956 21.81509722369309" fill="red" stroke="none" /><path d="M 96.05791012581881 79.37332000966035 l -10.419373683097461 -54.518565918200544 a76.50529143897185,76.50529143897185 0 0,0 1.2920842653789717,-0.2354607947435306 l 9.481954684167452 54.689394886875434" fill="red" stroke="none" /><path d="M 96.41257539226777 79.30868818359171 l -2.2963890862688126 -13.24496200794628 a34.44256007713839,34.44256007713839 0 0,0 0.583428260565915,-0.096002898255631 l 2.0686833226498247 13.282430904697579" fill="red" stroke="none" /><path d="M 97.12497278360702 79.19773525538626 l -5.814176265573303 -42.06848312902135 a63.4683637361261,63.4683637361261 0 0,0 1.0805403639984354,-0.1398975832913348 l 5.091158079684073 42.16209230851308" fill="red" stroke="none" /><path d="M 97.48249496171623 79.15144685158666 l -3.0059727997087577 -24.89376693368452 a46.07459879282605,46.07459879282605 0 0,0 0.7860416474103203,-0.08807760611830669 l 2.578195250697638 24.941700300309797" fill="red" stroke="none" /><path d="M 97.84075906011542 79.11130261209362 l -2.492873070665146 -24.116285606537616 a45.24478598797153,45.24478598797153 0 0,0 0.7732558783635483,-0.07322813563213405 l 2.0785176289165825 24.155525497674933" fill="red" stroke="none" /><path d="M 98.5590905019552 79.04949213459386 l -2.5544769230190547 -37.14153383007603 a58.22927460481763,58.22927460481763 0 0,0 0.9978158732272456,-0.06002612513795573 l 1.9165166976593253 37.17991193303868" fill="red" stroke="none" /><path d="M 98.9189461498227 79.02784411241856 l -1.3195591495517984 -25.599094978243826 a46.633082141137734,46.633082141137734 0 0,0 0.7998111852868459,-0.03434733367194108 l 0.8799222036641324 25.617974880341595" fill="red" stroke="none" /><path d="M 99.63950707515114 79.00309439819443 l -0.3787935792270612 -22.06282697208356 a43.06607845938561,43.06607845938561 0 0,0 0.7392865040759079,-0.006345885496481668 l 5.404630471004189e-15 22.066078459385608" fill="red" stroke="none" /></svg>